<?xml version="1.0" encoding="utf-8" standalone="no"?>
<!DOCTYPE svg PUBLIC "-//W3C//DTD SVG 1.1//EN"
  "http://www.w3.org/Graphics/SVG/1.1/DTD/svg11.dtd">
<!-- Created with matplotlib (https://matplotlib.org/) -->
<svg height="345.6pt" version="1.1" viewBox="0 0 460.8 345.6" width="460.8pt" xmlns="http://www.w3.org/2000/svg" xmlns:xlink="http://www.w3.org/1999/xlink">
 <defs>
  <style type="text/css">
*{stroke-linecap:butt;stroke-linejoin:round;}
  </style>
 </defs>
 <g id="figure_1">
  <g id="patch_1">
   <path d="M 0 345.6 
L 460.8 345.6 
L 460.8 0 
L 0 0 
z
" style="fill:#ffffff;"/>
  </g>
  <g id="axes_1">
   <g id="patch_2">
    <path d="M 57.6 276.48 
L 414.72 276.48 
L 414.72 41.472 
L 57.6 41.472 
z
" style="fill:#ffffff;"/>
   </g>
   <g id="matplotlib.axis_1">
    <g id="xtick_1">
     <g id="line2d_1">
      <defs>
       <path d="M 0 0 
L 0 3.5 
" id="mbe07c50947" style="stroke:#000000;stroke-width:0.8;"/>
      </defs>
      <g>
       <use style="stroke:#000000;stroke-width:0.8;" x="72.938362" xlink:href="#mbe07c50947" y="276.48"/>
      </g>
     </g>
     <g id="text_1">
      <!-- 2002-01 -->
      <defs>
       <path d="M 19.1875 8.296875 
L 53.609375 8.296875 
L 53.609375 0 
L 7.328125 0 
L 7.328125 8.296875 
Q 12.9375 14.109375 22.625 23.890625 
Q 32.328125 33.6875 34.8125 36.53125 
Q 39.546875 41.84375 41.421875 45.53125 
Q 43.3125 49.21875 43.3125 52.78125 
Q 43.3125 58.59375 39.234375 62.25 
Q 35.15625 65.921875 28.609375 65.921875 
Q 23.96875 65.921875 18.8125 64.3125 
Q 13.671875 62.703125 7.8125 59.421875 
L 7.8125 69.390625 
Q 13.765625 71.78125 18.9375 73 
Q 24.125 74.21875 28.421875 74.21875 
Q 39.75 74.21875 46.484375 68.546875 
Q 53.21875 62.890625 53.21875 53.421875 
Q 53.21875 48.921875 51.53125 44.890625 
Q 49.859375 40.875 45.40625 35.40625 
Q 44.1875 33.984375 37.640625 27.21875 
Q 31.109375 20.453125 19.1875 8.296875 
z
" id="DejaVuSans-50"/>
       <path d="M 31.78125 66.40625 
Q 24.171875 66.40625 20.328125 58.90625 
Q 16.5 51.421875 16.5 36.375 
Q 16.5 21.390625 20.328125 13.890625 
Q 24.171875 6.390625 31.78125 6.390625 
Q 39.453125 6.390625 43.28125 13.890625 
Q 47.125 21.390625 47.125 36.375 
Q 47.125 51.421875 43.28125 58.90625 
Q 39.453125 66.40625 31.78125 66.40625 
z
M 31.78125 74.21875 
Q 44.046875 74.21875 50.515625 64.515625 
Q 56.984375 54.828125 56.984375 36.375 
Q 56.984375 17.96875 50.515625 8.265625 
Q 44.046875 -1.421875 31.78125 -1.421875 
Q 19.53125 -1.421875 13.0625 8.265625 
Q 6.59375 17.96875 6.59375 36.375 
Q 6.59375 54.828125 13.0625 64.515625 
Q 19.53125 74.21875 31.78125 74.21875 
z
" id="DejaVuSans-48"/>
       <path d="M 4.890625 31.390625 
L 31.203125 31.390625 
L 31.203125 23.390625 
L 4.890625 23.390625 
z
" id="DejaVuSans-45"/>
       <path d="M 12.40625 8.296875 
L 28.515625 8.296875 
L 28.515625 63.921875 
L 10.984375 60.40625 
L 10.984375 69.390625 
L 28.421875 72.90625 
L 38.28125 72.90625 
L 38.28125 8.296875 
L 54.390625 8.296875 
L 54.390625 0 
L 12.40625 0 
z
" id="DejaVuSans-49"/>
      </defs>
      <g transform="translate(35.713541 310.951846)rotate(-30)scale(0.1 -0.1)">
       <use xlink:href="#DejaVuSans-50"/>
       <use x="63.623047" xlink:href="#DejaVuSans-48"/>
       <use x="127.246094" xlink:href="#DejaVuSans-48"/>
       <use x="190.869141" xlink:href="#DejaVuSans-50"/>
       <use x="254.492188" xlink:href="#DejaVuSans-45"/>
       <use x="290.576172" xlink:href="#DejaVuSans-48"/>
       <use x="354.199219" xlink:href="#DejaVuSans-49"/>
      </g>
     </g>
    </g>
    <g id="xtick_2">
     <g id="line2d_2">
      <g>
       <use style="stroke:#000000;stroke-width:0.8;" x="125.705905" xlink:href="#mbe07c50947" y="276.48"/>
      </g>
     </g>
     <g id="text_2">
      <!-- 2002-03 -->
      <defs>
       <path d="M 40.578125 39.3125 
Q 47.65625 37.796875 51.625 33 
Q 55.609375 28.21875 55.609375 21.1875 
Q 55.609375 10.40625 48.1875 4.484375 
Q 40.765625 -1.421875 27.09375 -1.421875 
Q 22.515625 -1.421875 17.65625 -0.515625 
Q 12.796875 0.390625 7.625 2.203125 
L 7.625 11.71875 
Q 11.71875 9.328125 16.59375 8.109375 
Q 21.484375 6.890625 26.8125 6.890625 
Q 36.078125 6.890625 40.9375 10.546875 
Q 45.796875 14.203125 45.796875 21.1875 
Q 45.796875 27.640625 41.28125 31.265625 
Q 36.765625 34.90625 28.71875 34.90625 
L 20.21875 34.90625 
L 20.21875 43.015625 
L 29.109375 43.015625 
Q 36.375 43.015625 40.234375 45.921875 
Q 44.09375 48.828125 44.09375 54.296875 
Q 44.09375 59.90625 40.109375 62.90625 
Q 36.140625 65.921875 28.71875 65.921875 
Q 24.65625 65.921875 20.015625 65.03125 
Q 15.375 64.15625 9.8125 62.3125 
L 9.8125 71.09375 
Q 15.4375 72.65625 20.34375 73.4375 
Q 25.25 74.21875 29.59375 74.21875 
Q 40.828125 74.21875 47.359375 69.109375 
Q 53.90625 64.015625 53.90625 55.328125 
Q 53.90625 49.265625 50.4375 45.09375 
Q 46.96875 40.921875 40.578125 39.3125 
z
" id="DejaVuSans-51"/>
      </defs>
      <g transform="translate(88.481085 310.951846)rotate(-30)scale(0.1 -0.1)">
       <use xlink:href="#DejaVuSans-50"/>
       <use x="63.623047" xlink:href="#DejaVuSans-48"/>
       <use x="127.246094" xlink:href="#DejaVuSans-48"/>
       <use x="190.869141" xlink:href="#DejaVuSans-50"/>
       <use x="254.492188" xlink:href="#DejaVuSans-45"/>
       <use x="290.576172" xlink:href="#DejaVuSans-48"/>
       <use x="354.199219" xlink:href="#DejaVuSans-51"/>
      </g>
     </g>
    </g>
    <g id="xtick_3">
     <g id="line2d_3">
      <g>
       <use style="stroke:#000000;stroke-width:0.8;" x="180.262179" xlink:href="#mbe07c50947" y="276.48"/>
      </g>
     </g>
     <g id="text_3">
      <!-- 2002-05 -->
      <defs>
       <path d="M 10.796875 72.90625 
L 49.515625 72.90625 
L 49.515625 64.59375 
L 19.828125 64.59375 
L 19.828125 46.734375 
Q 21.96875 47.46875 24.109375 47.828125 
Q 26.265625 48.1875 28.421875 48.1875 
Q 40.625 48.1875 47.75 41.5 
Q 54.890625 34.8125 54.890625 23.390625 
Q 54.890625 11.625 47.5625 5.09375 
Q 40.234375 -1.421875 26.90625 -1.421875 
Q 22.3125 -1.421875 17.546875 -0.640625 
Q 12.796875 0.140625 7.71875 1.703125 
L 7.71875 11.625 
Q 12.109375 9.234375 16.796875 8.0625 
Q 21.484375 6.890625 26.703125 6.890625 
Q 35.15625 6.890625 40.078125 11.328125 
Q 45.015625 15.765625 45.015625 23.390625 
Q 45.015625 31 40.078125 35.4375 
Q 35.15625 39.890625 26.703125 39.890625 
Q 22.75 39.890625 18.8125 39.015625 
Q 14.890625 38.140625 10.796875 36.28125 
z
" id="DejaVuSans-53"/>
      </defs>
      <g transform="translate(143.037358 310.951846)rotate(-30)scale(0.1 -0.1)">
       <use xlink:href="#DejaVuSans-50"/>
       <use x="63.623047" xlink:href="#DejaVuSans-48"/>
       <use x="127.246094" xlink:href="#DejaVuSans-48"/>
       <use x="190.869141" xlink:href="#DejaVuSans-50"/>
       <use x="254.492188" xlink:href="#DejaVuSans-45"/>
       <use x="290.576172" xlink:href="#DejaVuSans-48"/>
       <use x="354.199219" xlink:href="#DejaVuSans-53"/>
      </g>
     </g>
    </g>
    <g id="xtick_4">
     <g id="line2d_4">
      <g>
       <use style="stroke:#000000;stroke-width:0.8;" x="234.818452" xlink:href="#mbe07c50947" y="276.48"/>
      </g>
     </g>
     <g id="text_4">
      <!-- 2002-07 -->
      <defs>
       <path d="M 8.203125 72.90625 
L 55.078125 72.90625 
L 55.078125 68.703125 
L 28.609375 0 
L 18.3125 0 
L 43.21875 64.59375 
L 8.203125 64.59375 
z
" id="DejaVuSans-55"/>
      </defs>
      <g transform="translate(197.593631 310.951846)rotate(-30)scale(0.1 -0.1)">
       <use xlink:href="#DejaVuSans-50"/>
       <use x="63.623047" xlink:href="#DejaVuSans-48"/>
       <use x="127.246094" xlink:href="#DejaVuSans-48"/>
       <use x="190.869141" xlink:href="#DejaVuSans-50"/>
       <use x="254.492188" xlink:href="#DejaVuSans-45"/>
       <use x="290.576172" xlink:href="#DejaVuSans-48"/>
       <use x="354.199219" xlink:href="#DejaVuSans-55"/>
      </g>
     </g>
    </g>
    <g id="xtick_5">
     <g id="line2d_5">
      <g>
       <use style="stroke:#000000;stroke-width:0.8;" x="290.269091" xlink:href="#mbe07c50947" y="276.48"/>
      </g>
     </g>
     <g id="text_5">
      <!-- 2002-09 -->
      <defs>
       <path d="M 10.984375 1.515625 
L 10.984375 10.5 
Q 14.703125 8.734375 18.5 7.8125 
Q 22.3125 6.890625 25.984375 6.890625 
Q 35.75 6.890625 40.890625 13.453125 
Q 46.046875 20.015625 46.78125 33.40625 
Q 43.953125 29.203125 39.59375 26.953125 
Q 35.25 24.703125 29.984375 24.703125 
Q 19.046875 24.703125 12.671875 31.3125 
Q 6.296875 37.9375 6.296875 49.421875 
Q 6.296875 60.640625 12.9375 67.421875 
Q 19.578125 74.21875 30.609375 74.21875 
Q 43.265625 74.21875 49.921875 64.515625 
Q 56.59375 54.828125 56.59375 36.375 
Q 56.59375 19.140625 48.40625 8.859375 
Q 40.234375 -1.421875 26.421875 -1.421875 
Q 22.703125 -1.421875 18.890625 -0.6875 
Q 15.09375 0.046875 10.984375 1.515625 
z
M 30.609375 32.421875 
Q 37.25 32.421875 41.125 36.953125 
Q 45.015625 41.5 45.015625 49.421875 
Q 45.015625 57.28125 41.125 61.84375 
Q 37.25 66.40625 30.609375 66.40625 
Q 23.96875 66.40625 20.09375 61.84375 
Q 16.21875 57.28125 16.21875 49.421875 
Q 16.21875 41.5 20.09375 36.953125 
Q 23.96875 32.421875 30.609375 32.421875 
z
" id="DejaVuSans-57"/>
      </defs>
      <g transform="translate(253.04427 310.951846)rotate(-30)scale(0.1 -0.1)">
       <use xlink:href="#DejaVuSans-50"/>
       <use x="63.623047" xlink:href="#DejaVuSans-48"/>
       <use x="127.246094" xlink:href="#DejaVuSans-48"/>
       <use x="190.869141" xlink:href="#DejaVuSans-50"/>
       <use x="254.492188" xlink:href="#DejaVuSans-45"/>
       <use x="290.576172" xlink:href="#DejaVuSans-48"/>
       <use x="354.199219" xlink:href="#DejaVuSans-57"/>
      </g>
     </g>
    </g>
    <g id="xtick_6">
     <g id="line2d_6">
      <g>
       <use style="stroke:#000000;stroke-width:0.8;" x="344.825364" xlink:href="#mbe07c50947" y="276.48"/>
      </g>
     </g>
     <g id="text_6">
      <!-- 2002-11 -->
      <g transform="translate(307.600544 310.951846)rotate(-30)scale(0.1 -0.1)">
       <use xlink:href="#DejaVuSans-50"/>
       <use x="63.623047" xlink:href="#DejaVuSans-48"/>
       <use x="127.246094" xlink:href="#DejaVuSans-48"/>
       <use x="190.869141" xlink:href="#DejaVuSans-50"/>
       <use x="254.492188" xlink:href="#DejaVuSans-45"/>
       <use x="290.576172" xlink:href="#DejaVuSans-49"/>
       <use x="354.199219" xlink:href="#DejaVuSans-49"/>
      </g>
     </g>
    </g>
    <g id="xtick_7">
     <g id="line2d_7">
      <g>
       <use style="stroke:#000000;stroke-width:0.8;" x="399.381638" xlink:href="#mbe07c50947" y="276.48"/>
      </g>
     </g>
     <g id="text_7">
      <!-- 2003-01 -->
      <g transform="translate(362.156817 310.951846)rotate(-30)scale(0.1 -0.1)">
       <use xlink:href="#DejaVuSans-50"/>
       <use x="63.623047" xlink:href="#DejaVuSans-48"/>
       <use x="127.246094" xlink:href="#DejaVuSans-48"/>
       <use x="190.869141" xlink:href="#DejaVuSans-51"/>
       <use x="254.492188" xlink:href="#DejaVuSans-45"/>
       <use x="290.576172" xlink:href="#DejaVuSans-48"/>
       <use x="354.199219" xlink:href="#DejaVuSans-49"/>
      </g>
     </g>
    </g>
   </g>
   <g id="matplotlib.axis_2">
    <g id="ytick_1">
     <g id="line2d_8">
      <defs>
       <path d="M 0 0 
L -3.5 0 
" id="mf0e8813c19" style="stroke:#000000;stroke-width:0.8;"/>
      </defs>
      <g>
       <use style="stroke:#000000;stroke-width:0.8;" x="57.6" xlink:href="#mf0e8813c19" y="248.646257"/>
      </g>
     </g>
     <g id="text_8">
      <!-- 45 -->
      <defs>
       <path d="M 37.796875 64.3125 
L 12.890625 25.390625 
L 37.796875 25.390625 
z
M 35.203125 72.90625 
L 47.609375 72.90625 
L 47.609375 25.390625 
L 58.015625 25.390625 
L 58.015625 17.1875 
L 47.609375 17.1875 
L 47.609375 0 
L 37.796875 0 
L 37.796875 17.1875 
L 4.890625 17.1875 
L 4.890625 26.703125 
z
" id="DejaVuSans-52"/>
      </defs>
      <g transform="translate(37.875 252.445476)scale(0.1 -0.1)">
       <use xlink:href="#DejaVuSans-52"/>
       <use x="63.623047" xlink:href="#DejaVuSans-53"/>
      </g>
     </g>
    </g>
    <g id="ytick_2">
     <g id="line2d_9">
      <g>
       <use style="stroke:#000000;stroke-width:0.8;" x="57.6" xlink:href="#mf0e8813c19" y="209.126532"/>
      </g>
     </g>
     <g id="text_9">
      <!-- 50 -->
      <g transform="translate(37.875 212.92575)scale(0.1 -0.1)">
       <use xlink:href="#DejaVuSans-53"/>
       <use x="63.623047" xlink:href="#DejaVuSans-48"/>
      </g>
     </g>
    </g>
    <g id="ytick_3">
     <g id="line2d_10">
      <g>
       <use style="stroke:#000000;stroke-width:0.8;" x="57.6" xlink:href="#mf0e8813c19" y="169.606806"/>
      </g>
     </g>
     <g id="text_10">
      <!-- 55 -->
      <g transform="translate(37.875 173.406025)scale(0.1 -0.1)">
       <use xlink:href="#DejaVuSans-53"/>
       <use x="63.623047" xlink:href="#DejaVuSans-53"/>
      </g>
     </g>
    </g>
    <g id="ytick_4">
     <g id="line2d_11">
      <g>
       <use style="stroke:#000000;stroke-width:0.8;" x="57.6" xlink:href="#mf0e8813c19" y="130.087081"/>
      </g>
     </g>
     <g id="text_11">
      <!-- 60 -->
      <defs>
       <path d="M 33.015625 40.375 
Q 26.375 40.375 22.484375 35.828125 
Q 18.609375 31.296875 18.609375 23.390625 
Q 18.609375 15.53125 22.484375 10.953125 
Q 26.375 6.390625 33.015625 6.390625 
Q 39.65625 6.390625 43.53125 10.953125 
Q 47.40625 15.53125 47.40625 23.390625 
Q 47.40625 31.296875 43.53125 35.828125 
Q 39.65625 40.375 33.015625 40.375 
z
M 52.59375 71.296875 
L 52.59375 62.3125 
Q 48.875 64.0625 45.09375 64.984375 
Q 41.3125 65.921875 37.59375 65.921875 
Q 27.828125 65.921875 22.671875 59.328125 
Q 17.53125 52.734375 16.796875 39.40625 
Q 19.671875 43.65625 24.015625 45.921875 
Q 28.375 48.1875 33.59375 48.1875 
Q 44.578125 48.1875 50.953125 41.515625 
Q 57.328125 34.859375 57.328125 23.390625 
Q 57.328125 12.15625 50.6875 5.359375 
Q 44.046875 -1.421875 33.015625 -1.421875 
Q 20.359375 -1.421875 13.671875 8.265625 
Q 6.984375 17.96875 6.984375 36.375 
Q 6.984375 53.65625 15.1875 63.9375 
Q 23.390625 74.21875 37.203125 74.21875 
Q 40.921875 74.21875 44.703125 73.484375 
Q 48.484375 72.75 52.59375 71.296875 
z
" id="DejaVuSans-54"/>
      </defs>
      <g transform="translate(37.875 133.886299)scale(0.1 -0.1)">
       <use xlink:href="#DejaVuSans-54"/>
       <use x="63.623047" xlink:href="#DejaVuSans-48"/>
      </g>
     </g>
    </g>
    <g id="ytick_5">
     <g id="line2d_12">
      <g>
       <use style="stroke:#000000;stroke-width:0.8;" x="57.6" xlink:href="#mf0e8813c19" y="90.567355"/>
      </g>
     </g>
     <g id="text_12">
      <!-- 65 -->
      <g transform="translate(37.875 94.366574)scale(0.1 -0.1)">
       <use xlink:href="#DejaVuSans-54"/>
       <use x="63.623047" xlink:href="#DejaVuSans-53"/>
      </g>
     </g>
    </g>
    <g id="ytick_6">
     <g id="line2d_13">
      <g>
       <use style="stroke:#000000;stroke-width:0.8;" x="57.6" xlink:href="#mf0e8813c19" y="51.04763"/>
      </g>
     </g>
     <g id="text_13">
      <!-- 70 -->
      <g transform="translate(37.875 54.846848)scale(0.1 -0.1)">
       <use xlink:href="#DejaVuSans-55"/>
       <use x="63.623047" xlink:href="#DejaVuSans-48"/>
      </g>
     </g>
    </g>
   </g>
   <g id="line2d_14">
    <path clip-path="url(#pb21bb876f1)" d="M 73.832727 74.443307 
L 74.727092 57.133667 
L 75.621458 59.741969 
L 78.304553 62.42931 
L 79.198918 55.948075 
L 80.093283 61.243719 
L 80.987648 56.73847 
L 81.882014 62.034113 
L 84.565109 63.140666 
L 85.459474 54.604405 
L 86.353839 67.883033 
L 87.248204 52.154182 
L 88.142569 81.873015 
L 91.72003 94.835485 
L 92.614395 100.526326 
L 93.50876 93.728933 
L 94.403125 100.052089 
L 97.086221 99.89401 
L 97.980586 111.749928 
L 98.874951 107.560837 
L 99.769316 100.763444 
L 100.663681 109.062587 
L 103.346777 121.234662 
L 104.241142 120.997544 
L 105.135507 126.925503 
L 106.029872 131.66787 
L 106.924237 124.949516 
L 109.607333 121.155623 
L 110.501698 128.980528 
L 111.396063 115.701901 
L 112.290428 116.808453 
L 113.184793 128.269173 
L 116.762254 138.544302 
L 117.656619 130.877475 
L 118.550984 145.499774 
L 119.445349 145.97401 
L 122.128445 137.35871 
L 123.02281 141.547801 
L 123.917175 142.812432 
L 124.81154 143.20763 
L 125.705905 119.258676 
L 128.389001 104.004062 
L 129.283366 105.74293 
L 130.177731 101.39576 
L 131.072096 108.58835 
L 131.966461 98.866497 
L 134.649557 95.783959 
L 135.543922 110.01106 
L 136.438287 113.488796 
L 137.332652 120.444268 
L 138.227017 110.406257 
L 140.910113 113.172638 
L 141.804478 112.461283 
L 142.698843 129.296686 
L 143.593208 119.337715 
L 144.487573 126.530305 
L 147.170669 136.173118 
L 148.065034 137.35871 
L 148.959399 134.51329 
L 149.853764 127.636858 
L 153.431225 127.083581 
L 154.32559 151.585811 
L 155.219955 159.094559 
L 156.11432 158.146086 
L 157.008685 162.730374 
L 159.691781 152.060048 
L 160.586146 170.634319 
L 161.480511 159.331678 
L 162.374876 171.266635 
L 163.269241 162.256137 
L 165.952337 164.153084 
L 166.846702 147.39672 
L 167.741067 156.723376 
L 168.635432 158.778401 
L 169.529797 152.218127 
L 172.212893 164.943479 
L 173.107258 177.589791 
L 174.001623 185.256617 
L 174.895988 179.644816 
L 175.790353 197.270614 
L 178.473449 191.421695 
L 179.367814 191.263616 
L 180.262179 187.390683 
L 182.050909 212.604268 
L 184.734005 220.033976 
L 185.62837 213.315623 
L 186.522735 169.843925 
L 187.4171 192.370168 
L 188.311465 208.731334 
L 190.99456 187.864919 
L 191.888926 170.55528 
L 192.783291 171.582792 
L 193.677656 163.757887 
L 194.572021 161.465743 
L 197.255116 177.431712 
L 198.149482 191.816892 
L 199.043847 179.960974 
L 199.938212 171.029516 
L 200.832577 183.359671 
L 204.410038 190.789379 
L 205.304403 192.923444 
L 206.198768 188.260117 
L 207.093133 201.933942 
L 209.776228 213.71082 
L 210.670594 209.284611 
L 211.564959 196.005983 
L 212.459324 194.109036 
L 213.353689 193.47672 
L 216.036784 186.837407 
L 216.93115 188.813393 
L 217.825515 165.338676 
L 218.71988 175.771883 
L 219.614245 167.63082 
L 222.29734 164.232123 
L 223.191705 161.781901 
L 224.086071 174.665331 
L 224.980436 176.720357 
L 225.874801 191.105537 
L 228.557896 176.24612 
L 229.452261 185.809894 
L 230.346627 176.483238 
L 231.240992 170.239122 
L 232.135357 171.97799 
L 234.818452 188.102038 
L 235.712817 197.744851 
L 236.607183 194.583273 
L 238.395913 170.792398 
L 241.079008 186.047012 
L 241.973373 183.754868 
L 242.867739 191.421695 
L 243.762104 186.126051 
L 244.656469 194.425194 
L 247.339564 194.899431 
L 248.233929 199.2466 
L 249.128295 193.318642 
L 250.02266 200.353153 
L 250.917025 212.604268 
L 253.60012 228.807355 
L 254.494485 264.375108 
L 255.38885 238.924405 
L 256.283216 265.797818 
L 257.177581 245.879877 
L 259.860676 222.958436 
L 260.755041 224.144027 
L 261.649406 225.092501 
L 262.543772 242.718298 
L 263.438137 253.309585 
L 266.121232 256.629242 
L 267.015597 243.350614 
L 267.909962 232.127012 
L 268.804328 217.741832 
L 269.698693 223.985949 
L 272.381788 221.219568 
L 273.276153 232.36413 
L 274.170518 211.418676 
L 275.064884 210.944439 
L 275.959249 209.126532 
L 278.642344 193.318642 
L 279.536709 200.906429 
L 280.431074 191.105537 
L 281.32544 183.596789 
L 282.219805 191.579774 
L 284.9029 192.528247 
L 285.797265 202.487218 
L 286.69163 214.026978 
L 287.585995 204.542244 
L 288.480361 216.398161 
L 292.057821 232.680288 
L 292.952186 223.274593 
L 293.846551 241.453667 
L 294.740917 226.357132 
L 297.424012 219.40166 
L 298.318377 210.78636 
L 299.212742 220.350134 
L 300.107107 231.652775 
L 301.001473 225.645777 
L 303.684568 226.67329 
L 304.578933 230.546223 
L 305.473298 226.910408 
L 306.367663 231.257578 
L 307.262029 229.202552 
L 309.945124 246.82835 
L 310.839489 243.587732 
L 311.733854 236.7113 
L 312.628219 239.161523 
L 313.522585 246.670271 
L 316.20568 258.605228 
L 317.100045 238.924405 
L 317.99441 243.824851 
L 318.888775 250.227046 
L 319.78314 258.36811 
L 322.466236 256.155005 
L 323.360601 248.725297 
L 324.254966 256.629242 
L 326.043696 218.05799 
L 328.726792 214.738333 
L 329.621157 191.026497 
L 330.515522 205.885914 
L 331.409887 203.040494 
L 332.304252 184.229105 
L 334.987348 189.28763 
L 335.881713 195.926943 
L 336.776078 183.833907 
L 337.670443 199.404679 
L 338.564808 187.943959 
L 341.247904 193.713839 
L 342.142269 192.765365 
L 343.036634 184.545262 
L 343.930999 181.699842 
L 344.825364 185.414696 
L 347.50846 160.912467 
L 348.402825 156.328178 
L 349.29719 153.561798 
L 351.08592 168.816412 
L 353.769016 178.617304 
L 354.663381 173.479739 
L 355.557746 166.761386 
L 356.452111 153.877955 
L 357.346476 156.249139 
L 360.029572 162.888453 
L 360.923937 170.713358 
L 361.818302 156.802415 
L 362.712667 147.159602 
L 363.607032 144.156103 
L 366.290128 144.077063 
L 367.184493 154.58931 
L 368.078858 145.262655 
L 369.867588 148.424233 
L 372.550684 148.345194 
L 373.445049 156.09106 
L 374.339414 157.434731 
L 375.233779 166.919465 
L 376.128144 165.891952 
L 378.81124 181.225605 
L 379.705605 177.431712 
L 380.59997 172.294148 
L 381.494335 176.167081 
L 382.3887 189.366669 
L 385.071796 173.716858 
L 385.966161 174.665331 
L 386.860526 181.225605 
L 387.754891 184.545262 
L 388.649256 185.098539 
L 391.332352 177.510751 
L 392.226717 178.933461 
L 394.015447 182.332158 
L 394.909812 185.651815 
L 397.592908 187.390683 
L 398.487273 195.689825 
L 398.487273 195.689825 
" style="fill:none;stroke:#1f77b4;stroke-linecap:square;stroke-width:1.5;"/>
   </g>
   <g id="line2d_15">
    <path clip-path="url(#pb21bb876f1)" d="M 73.832727 71.936627 
L 75.621458 68.187899 
L 78.304553 67.19426 
L 79.198918 65.466684 
L 80.093283 64.51821 
L 80.987648 61.096931 
L 81.882014 59.324189 
L 84.565109 60.182332 
L 85.459474 59.448394 
L 86.353839 60.227497 
L 87.248204 59.685512 
L 88.142569 62.632555 
L 91.72003 68.074986 
L 92.614395 73.573873 
L 93.50876 77.943626 
L 94.403125 84.436152 
L 97.086221 89.009149 
L 97.980586 97.522827 
L 98.874951 101.192516 
L 99.769316 102.039367 
L 100.663681 103.258833 
L 103.346777 107.188222 
L 104.241142 110.18043 
L 105.135507 114.042072 
L 106.924237 119.371589 
L 109.607333 122.284758 
L 110.501698 125.130178 
L 111.396063 124.339783 
L 112.290428 123.741342 
L 113.184793 123.933295 
L 116.762254 124.915642 
L 117.656619 125.762494 
L 118.550984 129.240229 
L 119.445349 131.66787 
L 122.128445 134.7617 
L 123.02281 138.295892 
L 123.917175 140.373501 
L 124.81154 141.03969 
L 125.705905 139.379862 
L 128.389001 133.451903 
L 130.177731 122.567041 
L 131.072096 117.858548 
L 131.966461 111.580558 
L 134.649557 104.805748 
L 135.543922 103.48466 
L 136.438287 104.839622 
L 137.332652 106.939813 
L 138.227017 108.227027 
L 140.910113 108.881925 
L 141.804478 110.824037 
L 142.698843 115.61157 
L 143.593208 116.943949 
L 144.487573 118.807022 
L 147.170669 121.054 
L 148.065034 124.904351 
L 148.959399 127.953015 
L 149.853764 130.120955 
L 153.431225 129.804797 
L 155.219955 139.063704 
L 156.11432 142.202699 
L 157.008685 145.827223 
L 159.691781 148.333902 
L 160.586146 154.476397 
L 161.480511 159.083268 
L 162.374876 161.894814 
L 163.269241 162.346468 
L 165.952337 163.204611 
L 166.846702 161.014089 
L 167.741067 161.680278 
L 168.635432 159.986576 
L 169.529797 158.970354 
L 172.212893 158.067046 
L 173.107258 160.257568 
L 174.001623 163.272359 
L 174.895988 167.87923 
L 175.790353 173.671692 
L 178.473449 178.33502 
L 179.367814 183.912947 
L 181.156544 190.258686 
L 182.050909 194.165493 
L 184.734005 199.935373 
L 185.62837 202.227517 
L 186.522735 199.144978 
L 187.4171 199.303057 
L 188.311465 202.351722 
L 190.99456 200.680602 
L 191.888926 194.673604 
L 193.677656 180.672329 
L 194.572021 179.475446 
L 197.255116 177.341381 
L 198.149482 174.925032 
L 199.043847 173.795897 
L 199.938212 173.863645 
L 200.832577 175.546056 
L 204.410038 179.407698 
L 205.304403 183.901655 
L 209.776228 191.71527 
L 210.670594 197.180283 
L 211.564959 198.986899 
L 212.459324 199.461136 
L 213.353689 199.540175 
L 216.036784 199.336931 
L 216.93115 197.462567 
L 217.825515 190.552261 
L 218.71988 185.764728 
L 219.614245 181.711134 
L 222.29734 177.443003 
L 223.191705 172.915172 
L 224.980436 169.448727 
L 225.874801 173.129707 
L 228.557896 173.197456 
L 229.452261 175.794466 
L 230.346627 177.544625 
L 231.240992 178.7528 
L 232.135357 178.368894 
L 234.818452 179.994848 
L 235.712817 180.943322 
L 236.607183 183.562915 
L 238.395913 181.417558 
L 241.079008 182.783812 
L 241.973373 184.714633 
L 242.867739 187.492305 
L 243.762104 187.210021 
L 244.656469 186.735784 
L 247.339564 186.78095 
L 248.233929 190.845836 
L 249.128295 191.88464 
L 250.02266 194.255824 
L 250.917025 197.281905 
L 253.60012 203.379235 
L 254.494485 213.372079 
L 255.38885 219.661361 
L 256.283216 229.168678 
L 257.177581 236.677426 
L 259.860676 239.906752 
L 260.755041 241.555289 
L 261.649406 241.024596 
L 262.543772 237.930766 
L 263.438137 239.985792 
L 267.015597 238.314672 
L 267.909962 239.624469 
L 268.804328 238.709869 
L 269.698693 238.55179 
L 272.381788 235.480543 
L 273.276153 232.488335 
L 274.170518 226.029683 
L 275.064884 221.400229 
L 275.959249 218.114446 
L 278.642344 214.625419 
L 279.536709 211.328345 
L 280.431074 207.026341 
L 281.32544 200.059578 
L 282.219805 197.225449 
L 285.797265 193.646091 
L 286.69163 196.604424 
L 287.585995 197.123827 
L 288.480361 200.737059 
L 292.057821 207.748987 
L 292.952186 212.276818 
L 293.846551 219.266164 
L 294.740917 222.676152 
L 297.424012 223.443964 
L 298.318377 224.33598 
L 299.212742 224.900548 
L 300.107107 224.75376 
L 301.001473 225.092501 
L 303.684568 222.981018 
L 304.578933 223.57946 
L 305.473298 224.652138 
L 306.367663 227.576598 
L 307.262029 228.841229 
L 309.945124 231.009168 
L 310.839489 233.572305 
L 312.628219 236.237063 
L 313.522585 239.059901 
L 317.100045 244.355544 
L 317.99441 243.926473 
L 318.888775 244.874946 
L 319.78314 247.968776 
L 322.466236 250.396417 
L 323.360601 250.689992 
L 325.149331 250.238338 
L 326.043696 246.557358 
L 328.726792 241.487541 
L 329.621157 231.867311 
L 331.409887 218.159612 
L 332.304252 207.816735 
L 334.987348 200.895137 
L 335.881713 197.733559 
L 336.776078 193.318642 
L 337.670443 194.515525 
L 338.564808 191.952388 
L 341.247904 190.620009 
L 342.142269 191.839475 
L 343.036634 191.161994 
L 343.930999 189.129551 
L 344.825364 189.355378 
L 347.50846 183.85649 
L 348.402825 179.33995 
L 349.29719 173.603944 
L 350.191555 169.155152 
L 351.08592 166.908173 
L 353.769016 166.467811 
L 354.663381 164.762817 
L 355.557746 165.598377 
L 356.452111 165.248345 
L 357.346476 165.632251 
L 360.029572 165.812913 
L 360.923937 166.083905 
L 361.818302 162.967492 
L 362.712667 159.207473 
L 363.607032 155.978147 
L 366.290128 154.578019 
L 367.184493 154.340901 
L 368.078858 151.82293 
L 369.867588 148.638769 
L 372.550684 147.430594 
L 373.445049 148.706517 
L 374.339414 150.603464 
L 375.233779 153.866664 
L 376.128144 155.481327 
L 378.81124 160.618891 
L 379.705605 164.762817 
L 380.59997 168.184096 
L 381.494335 171.052099 
L 382.3887 175.613804 
L 385.071796 176.584861 
L 385.966161 177.8382 
L 386.860526 177.8382 
L 387.754891 178.854422 
L 388.649256 180.683621 
L 391.332352 180.875574 
L 392.226717 179.385115 
L 394.015447 180.615873 
L 394.909812 182.18537 
L 397.592908 183.066096 
L 398.487273 184.658176 
L 398.487273 184.658176 
" style="fill:none;stroke:#ff7f0e;stroke-linecap:square;stroke-width:1.5;"/>
   </g>
   <g id="line2d_16">
    <path clip-path="url(#pb21bb876f1)" d="M 73.832727 77.705002 
L 74.727092 76.996281 
L 75.621458 76.074154 
L 78.304553 74.885928 
L 79.198918 73.655547 
L 80.093283 72.714978 
L 81.882014 69.724652 
L 84.565109 68.768274 
L 85.459474 67.361372 
L 86.353839 66.544631 
L 87.248204 65.527657 
L 88.142569 66.054587 
L 91.72003 67.158504 
L 92.614395 68.236075 
L 93.50876 68.884199 
L 94.403125 69.811595 
L 97.086221 70.899705 
L 98.874951 73.149695 
L 99.769316 74.538154 
L 100.663681 76.279657 
L 103.346777 78.484858 
L 104.241142 79.962895 
L 106.924237 85.664274 
L 109.607333 87.434758 
L 110.501698 89.471341 
L 111.396063 90.638491 
L 112.290428 92.050662 
L 113.184793 94.421846 
L 116.762254 97.04859 
L 117.656619 99.330196 
L 119.445349 105.139595 
L 122.128445 107.826937 
L 124.81154 116.086559 
L 125.705905 117.799081 
L 128.389001 119.52741 
L 129.283366 120.323074 
L 131.966461 120.981736 
L 134.649557 120.839465 
L 135.543922 121.1767 
L 136.438287 121.234662 
L 138.227017 121.985537 
L 140.910113 122.122539 
L 141.804478 121.830093 
L 142.698843 122.106731 
L 144.487573 121.682552 
L 147.170669 122.056672 
L 148.065034 122.596775 
L 148.959399 122.781201 
L 149.853764 123.179033 
L 153.431225 123.521537 
L 156.11432 125.89272 
L 157.008685 126.467074 
L 159.691781 126.669942 
L 160.586146 127.779129 
L 161.480511 128.371925 
L 162.374876 129.320398 
L 163.269241 129.955348 
L 165.952337 131.451828 
L 166.846702 132.89825 
L 169.529797 137.964679 
L 172.212893 140.167245 
L 174.001623 145.402292 
L 174.895988 147.607492 
L 175.790353 150.16837 
L 178.473449 152.868885 
L 180.262179 157.969564 
L 181.156544 160.311767 
L 182.050909 163.420652 
L 184.734005 166.537441 
L 185.62837 169.108858 
L 186.522735 170.191698 
L 187.4171 172.120261 
L 188.311465 174.82341 
L 191.888926 177.48177 
L 192.783291 177.898045 
L 193.677656 178.085105 
L 194.572021 178.04295 
L 197.255116 178.888672 
L 199.043847 180.282401 
L 199.938212 180.274497 
L 200.832577 180.977949 
L 204.410038 181.865825 
L 205.304403 183.383383 
L 206.198768 184.434607 
L 207.093133 185.873125 
L 209.776228 187.922882 
L 210.670594 189.400919 
L 211.564959 190.014792 
L 212.459324 190.309873 
L 213.353689 190.770937 
L 216.93115 190.33622 
L 217.825515 189.472055 
L 218.71988 189.084762 
L 219.614245 188.020364 
L 222.29734 186.407959 
L 223.191705 184.466223 
L 224.086071 183.17788 
L 224.980436 183.407094 
L 225.874801 183.36494 
L 228.557896 182.282099 
L 229.452261 182.213599 
L 230.346627 182.411197 
L 231.240992 182.366408 
L 234.818452 183.528288 
L 235.712817 184.205393 
L 236.607183 184.297605 
L 238.395913 183.991986 
L 241.079008 184.492569 
L 242.867739 184.52682 
L 243.762104 184.30024 
L 244.656469 184.505743 
L 247.339564 184.271259 
L 249.128295 183.256919 
L 250.02266 183.401825 
L 250.917025 184.018333 
L 253.60012 185.196021 
L 254.494485 187.780611 
L 255.38885 189.450978 
L 256.283216 192.799616 
L 257.177581 195.136549 
L 259.860676 196.980803 
L 261.649406 201.08822 
L 263.438137 205.909626 
L 266.121232 208.09375 
L 267.015597 210.330566 
L 269.698693 215.041317 
L 272.381788 216.682703 
L 273.276153 218.158106 
L 275.064884 219.159273 
L 275.959249 220.437077 
L 278.642344 220.679465 
L 279.536709 221.251184 
L 281.32544 221.156336 
L 282.219805 221.061489 
L 284.9029 220.982449 
L 285.797265 221.09047 
L 286.69163 221.780748 
L 288.480361 222.046847 
L 292.057821 222.175945 
L 292.952186 220.805928 
L 293.846551 220.890237 
L 294.740917 219.575547 
L 299.212742 218.160741 
L 300.107107 218.379417 
L 301.001473 217.810333 
L 303.684568 216.922456 
L 304.578933 216.053022 
L 305.473298 215.505015 
L 306.367663 215.476034 
L 307.262029 215.858058 
L 309.945124 216.619472 
L 310.839489 217.365077 
L 311.733854 217.509983 
L 312.628219 218.434744 
L 313.522585 219.625605 
L 316.20568 221.274895 
L 317.99441 224.225702 
L 318.888775 226.196419 
L 319.78314 228.688796 
L 322.466236 230.841304 
L 324.254966 234.519273 
L 325.149331 235.309667 
L 326.043696 235.760192 
L 328.726792 235.704864 
L 329.621157 234.316405 
L 330.515522 233.736782 
L 332.304252 231.052075 
L 334.987348 230.048274 
L 335.881713 229.552961 
L 338.564808 226.004089 
L 341.247904 224.905441 
L 343.036634 222.233907 
L 344.825364 219.122388 
L 347.50846 216.258525 
L 349.29719 210.578223 
L 351.08592 205.398504 
L 353.769016 202.73224 
L 354.663381 200.550751 
L 355.557746 197.981969 
L 357.346476 191.366367 
L 360.029572 188.257482 
L 360.923937 185.657084 
L 362.712667 179.310216 
L 363.607032 176.84682 
L 366.290128 174.491444 
L 367.184493 173.276871 
L 368.078858 171.256096 
L 369.867588 169.435554 
L 372.550684 168.239424 
L 374.339414 165.849798 
L 375.233779 165.285983 
L 376.128144 164.168892 
L 378.81124 163.944947 
L 379.705605 163.402209 
L 380.59997 162.719835 
L 381.494335 162.440563 
L 382.3887 162.696123 
L 385.071796 162.306196 
L 385.966161 162.764624 
L 386.860526 163.594539 
L 387.754891 164.627321 
L 388.649256 165.409811 
L 394.015447 166.005242 
L 394.909812 166.634923 
L 397.592908 167.752014 
L 398.487273 169.066703 
L 398.487273 169.066703 
" style="fill:none;stroke:#2ca02c;stroke-linecap:square;stroke-width:1.5;"/>
   </g>
   <g id="line2d_17">
    <path clip-path="url(#pb21bb876f1)" d="M 73.832727 109.499938 
L 75.621458 108.975643 
L 78.304553 108.839959 
L 81.882014 109.495986 
L 84.565109 109.634305 
L 86.353839 109.919506 
L 87.248204 109.737057 
L 88.142569 109.751547 
L 91.72003 109.950463 
L 92.614395 110.138182 
L 97.086221 110.483321 
L 100.663681 111.49766 
L 103.346777 111.842141 
L 105.135507 112.390148 
L 106.924237 113.108089 
L 109.607333 113.342573 
L 111.396063 113.728549 
L 112.290428 113.741722 
L 113.184793 113.904412 
L 118.550984 114.146799 
L 119.445349 114.414216 
L 123.02281 114.771211 
L 123.917175 114.893722 
L 124.81154 114.801509 
L 125.705905 114.516967 
L 128.389001 114.042731 
L 129.283366 113.691005 
L 131.966461 112.288055 
L 134.649557 111.535204 
L 136.438287 110.451705 
L 137.332652 109.762744 
L 138.227017 108.920974 
L 140.910113 108.25375 
L 143.593208 106.135492 
L 144.487573 105.524254 
L 147.170669 105.034209 
L 148.065034 104.637036 
L 149.853764 104.170703 
L 157.008685 103.8967 
L 159.691781 103.841372 
L 161.480511 104.193098 
L 163.269241 104.328782 
L 166.846702 104.629132 
L 168.635432 105.205461 
L 169.529797 105.558504 
L 172.212893 105.99388 
L 174.895988 107.043129 
L 175.790353 107.724185 
L 178.473449 108.32752 
L 180.262179 109.845077 
L 182.050909 111.682744 
L 184.734005 112.775465 
L 185.62837 113.850401 
L 187.4171 115.612981 
L 188.311465 116.671451 
L 190.99456 117.531664 
L 192.783291 119.001139 
L 194.572021 120.120206 
L 197.255116 120.853297 
L 198.149482 121.614051 
L 199.938212 122.874072 
L 200.832577 123.595307 
L 204.410038 124.415341 
L 206.198768 126.352467 
L 207.093133 127.520933 
L 209.776228 128.73353 
L 212.459324 131.947142 
L 213.353689 132.88837 
L 216.036784 133.851334 
L 216.93115 134.932199 
L 219.614245 137.600439 
L 222.29734 138.381612 
L 224.086071 140.001921 
L 225.874801 141.934436 
L 228.557896 142.730758 
L 232.135357 146.487108 
L 234.818452 147.588391 
L 236.607183 149.874607 
L 238.395913 150.780926 
L 241.079008 151.805146 
L 244.656469 155.965256 
L 247.339564 156.799122 
L 250.917025 160.226799 
L 253.60012 161.202278 
L 256.283216 164.966532 
L 257.177581 166.005242 
L 259.860676 166.854916 
L 262.543772 169.425015 
L 263.438137 170.526298 
L 266.121232 171.590038 
L 267.909962 173.614765 
L 269.698693 175.072384 
L 272.381788 175.825235 
L 273.276153 176.549105 
L 275.959249 178.270847 
L 278.642344 178.691732 
L 280.431074 179.77128 
L 282.219805 181.149859 
L 284.9029 181.909297 
L 285.797265 182.691787 
L 288.480361 185.444336 
L 292.057821 186.437599 
L 292.952186 187.294518 
L 294.740917 189.329784 
L 297.424012 190.220954 
L 298.318377 190.900034 
L 301.001473 193.363431 
L 303.684568 194.107719 
L 307.262029 197.250196 
L 309.945124 197.98131 
L 312.628219 200.035678 
L 313.522585 200.66931 
L 316.20568 201.49659 
L 317.99441 202.740144 
L 318.888775 203.457427 
L 319.78314 204.382189 
L 322.466236 205.210786 
L 325.149331 207.437063 
L 326.043696 207.774298 
L 331.409887 208.283444 
L 332.304252 208.224823 
L 335.881713 208.210333 
L 338.564808 207.587238 
L 342.142269 207.789448 
L 343.036634 207.587897 
L 343.930999 207.536521 
L 344.825364 207.66035 
L 349.29719 207.44365 
L 351.08592 207.120247 
L 355.557746 206.991149 
L 357.346476 206.377935 
L 360.029572 206.166504 
L 360.923937 205.906333 
L 363.607032 204.482305 
L 366.290128 204.065372 
L 368.078858 203.394854 
L 369.867588 203.058278 
L 372.550684 202.916666 
L 374.339414 202.667691 
L 379.705605 202.784933 
L 380.59997 202.628172 
L 385.966161 202.670985 
L 387.754891 202.718408 
L 388.649256 202.613022 
L 391.332352 202.470751 
L 392.226717 202.538593 
L 397.592908 202.489852 
L 398.487273 202.569551 
L 398.487273 202.569551 
" style="fill:none;stroke:#d62728;stroke-linecap:square;stroke-width:1.5;"/>
   </g>
   <g id="patch_3">
    <path d="M 57.6 276.48 
L 57.6 41.472 
" style="fill:none;stroke:#000000;stroke-linecap:square;stroke-linejoin:miter;stroke-width:0.8;"/>
   </g>
   <g id="patch_4">
    <path d="M 414.72 276.48 
L 414.72 41.472 
" style="fill:none;stroke:#000000;stroke-linecap:square;stroke-linejoin:miter;stroke-width:0.8;"/>
   </g>
   <g id="patch_5">
    <path d="M 57.6 276.48 
L 414.72 276.48 
" style="fill:none;stroke:#000000;stroke-linecap:square;stroke-linejoin:miter;stroke-width:0.8;"/>
   </g>
   <g id="patch_6">
    <path d="M 57.6 41.472 
L 414.72 41.472 
" style="fill:none;stroke:#000000;stroke-linecap:square;stroke-linejoin:miter;stroke-width:0.8;"/>
   </g>
   <g id="legend_1">
    <g id="patch_7">
     <path d="M 341.16375 108.1845 
L 407.72 108.1845 
Q 409.72 108.1845 409.72 106.1845 
L 409.72 48.472 
Q 409.72 46.472 407.72 46.472 
L 341.16375 46.472 
Q 339.16375 46.472 339.16375 48.472 
L 339.16375 106.1845 
Q 339.16375 108.1845 341.16375 108.1845 
z
" style="fill:#ffffff;opacity:0.8;stroke:#cccccc;stroke-linejoin:miter;"/>
    </g>
    <g id="line2d_18">
     <path d="M 343.16375 54.570437 
L 363.16375 54.570437 
" style="fill:none;stroke:#1f77b4;stroke-linecap:square;stroke-width:1.5;"/>
    </g>
    <g id="line2d_19"/>
    <g id="text_14">
     <!-- close -->
     <defs>
      <path d="M 48.78125 52.59375 
L 48.78125 44.1875 
Q 44.96875 46.296875 41.140625 47.34375 
Q 37.3125 48.390625 33.40625 48.390625 
Q 24.65625 48.390625 19.8125 42.84375 
Q 14.984375 37.3125 14.984375 27.296875 
Q 14.984375 17.28125 19.8125 11.734375 
Q 24.65625 6.203125 33.40625 6.203125 
Q 37.3125 6.203125 41.140625 7.25 
Q 44.96875 8.296875 48.78125 10.40625 
L 48.78125 2.09375 
Q 45.015625 0.34375 40.984375 -0.53125 
Q 36.96875 -1.421875 32.421875 -1.421875 
Q 20.0625 -1.421875 12.78125 6.34375 
Q 5.515625 14.109375 5.515625 27.296875 
Q 5.515625 40.671875 12.859375 48.328125 
Q 20.21875 56 33.015625 56 
Q 37.15625 56 41.109375 55.140625 
Q 45.0625 54.296875 48.78125 52.59375 
z
" id="DejaVuSans-99"/>
      <path d="M 9.421875 75.984375 
L 18.40625 75.984375 
L 18.40625 0 
L 9.421875 0 
z
" id="DejaVuSans-108"/>
      <path d="M 30.609375 48.390625 
Q 23.390625 48.390625 19.1875 42.75 
Q 14.984375 37.109375 14.984375 27.296875 
Q 14.984375 17.484375 19.15625 11.84375 
Q 23.34375 6.203125 30.609375 6.203125 
Q 37.796875 6.203125 41.984375 11.859375 
Q 46.1875 17.53125 46.1875 27.296875 
Q 46.1875 37.015625 41.984375 42.703125 
Q 37.796875 48.390625 30.609375 48.390625 
z
M 30.609375 56 
Q 42.328125 56 49.015625 48.375 
Q 55.71875 40.765625 55.71875 27.296875 
Q 55.71875 13.875 49.015625 6.21875 
Q 42.328125 -1.421875 30.609375 -1.421875 
Q 18.84375 -1.421875 12.171875 6.21875 
Q 5.515625 13.875 5.515625 27.296875 
Q 5.515625 40.765625 12.171875 48.375 
Q 18.84375 56 30.609375 56 
z
" id="DejaVuSans-111"/>
      <path d="M 44.28125 53.078125 
L 44.28125 44.578125 
Q 40.484375 46.53125 36.375 47.5 
Q 32.28125 48.484375 27.875 48.484375 
Q 21.1875 48.484375 17.84375 46.4375 
Q 14.5 44.390625 14.5 40.28125 
Q 14.5 37.15625 16.890625 35.375 
Q 19.28125 33.59375 26.515625 31.984375 
L 29.59375 31.296875 
Q 39.15625 29.25 43.1875 25.515625 
Q 47.21875 21.78125 47.21875 15.09375 
Q 47.21875 7.46875 41.1875 3.015625 
Q 35.15625 -1.421875 24.609375 -1.421875 
Q 20.21875 -1.421875 15.453125 -0.5625 
Q 10.6875 0.296875 5.421875 2 
L 5.421875 11.28125 
Q 10.40625 8.6875 15.234375 7.390625 
Q 20.0625 6.109375 24.8125 6.109375 
Q 31.15625 6.109375 34.5625 8.28125 
Q 37.984375 10.453125 37.984375 14.40625 
Q 37.984375 18.0625 35.515625 20.015625 
Q 33.0625 21.96875 24.703125 23.78125 
L 21.578125 24.515625 
Q 13.234375 26.265625 9.515625 29.90625 
Q 5.8125 33.546875 5.8125 39.890625 
Q 5.8125 47.609375 11.28125 51.796875 
Q 16.75 56 26.8125 56 
Q 31.78125 56 36.171875 55.265625 
Q 40.578125 54.546875 44.28125 53.078125 
z
" id="DejaVuSans-115"/>
      <path d="M 56.203125 29.59375 
L 56.203125 25.203125 
L 14.890625 25.203125 
Q 15.484375 15.921875 20.484375 11.0625 
Q 25.484375 6.203125 34.421875 6.203125 
Q 39.59375 6.203125 44.453125 7.46875 
Q 49.3125 8.734375 54.109375 11.28125 
L 54.109375 2.78125 
Q 49.265625 0.734375 44.1875 -0.34375 
Q 39.109375 -1.421875 33.890625 -1.421875 
Q 20.796875 -1.421875 13.15625 6.1875 
Q 5.515625 13.8125 5.515625 26.8125 
Q 5.515625 40.234375 12.765625 48.109375 
Q 20.015625 56 32.328125 56 
Q 43.359375 56 49.78125 48.890625 
Q 56.203125 41.796875 56.203125 29.59375 
z
M 47.21875 32.234375 
Q 47.125 39.59375 43.09375 43.984375 
Q 39.0625 48.390625 32.421875 48.390625 
Q 24.90625 48.390625 20.390625 44.140625 
Q 15.875 39.890625 15.1875 32.171875 
z
" id="DejaVuSans-101"/>
     </defs>
     <g transform="translate(371.16375 58.070437)scale(0.1 -0.1)">
      <use xlink:href="#DejaVuSans-99"/>
      <use x="54.980469" xlink:href="#DejaVuSans-108"/>
      <use x="82.763672" xlink:href="#DejaVuSans-111"/>
      <use x="143.945312" xlink:href="#DejaVuSans-115"/>
      <use x="196.044922" xlink:href="#DejaVuSans-101"/>
     </g>
    </g>
    <g id="line2d_20">
     <path d="M 343.16375 69.248562 
L 363.16375 69.248562 
" style="fill:none;stroke:#ff7f0e;stroke-linecap:square;stroke-width:1.5;"/>
    </g>
    <g id="line2d_21"/>
    <g id="text_15">
     <!-- MA7 -->
     <defs>
      <path d="M 9.8125 72.90625 
L 24.515625 72.90625 
L 43.109375 23.296875 
L 61.8125 72.90625 
L 76.515625 72.90625 
L 76.515625 0 
L 66.890625 0 
L 66.890625 64.015625 
L 48.09375 14.015625 
L 38.1875 14.015625 
L 19.390625 64.015625 
L 19.390625 0 
L 9.8125 0 
z
" id="DejaVuSans-77"/>
      <path d="M 34.1875 63.1875 
L 20.796875 26.90625 
L 47.609375 26.90625 
z
M 28.609375 72.90625 
L 39.796875 72.90625 
L 67.578125 0 
L 57.328125 0 
L 50.6875 18.703125 
L 17.828125 18.703125 
L 11.1875 0 
L 0.78125 0 
z
" id="DejaVuSans-65"/>
     </defs>
     <g transform="translate(371.16375 72.748562)scale(0.1 -0.1)">
      <use xlink:href="#DejaVuSans-77"/>
      <use x="86.279297" xlink:href="#DejaVuSans-65"/>
      <use x="154.6875" xlink:href="#DejaVuSans-55"/>
     </g>
    </g>
    <g id="line2d_22">
     <path d="M 343.16375 83.926687 
L 363.16375 83.926687 
" style="fill:none;stroke:#2ca02c;stroke-linecap:square;stroke-width:1.5;"/>
    </g>
    <g id="line2d_23"/>
    <g id="text_16">
     <!-- MA30 -->
     <g transform="translate(371.16375 87.426687)scale(0.1 -0.1)">
      <use xlink:href="#DejaVuSans-77"/>
      <use x="86.279297" xlink:href="#DejaVuSans-65"/>
      <use x="154.6875" xlink:href="#DejaVuSans-51"/>
      <use x="218.310547" xlink:href="#DejaVuSans-48"/>
     </g>
    </g>
    <g id="line2d_24">
     <path d="M 343.16375 98.604812 
L 363.16375 98.604812 
" style="fill:none;stroke:#d62728;stroke-linecap:square;stroke-width:1.5;"/>
    </g>
    <g id="line2d_25"/>
    <g id="text_17">
     <!-- MA120 -->
     <g transform="translate(371.16375 102.104812)scale(0.1 -0.1)">
      <use xlink:href="#DejaVuSans-77"/>
      <use x="86.279297" xlink:href="#DejaVuSans-65"/>
      <use x="154.6875" xlink:href="#DejaVuSans-49"/>
      <use x="218.310547" xlink:href="#DejaVuSans-50"/>
      <use x="281.933594" xlink:href="#DejaVuSans-48"/>
     </g>
    </g>
   </g>
  </g>
 </g>
 <defs>
  <clipPath id="pb21bb876f1">
   <rect height="235.008" width="357.12" x="57.6" y="41.472"/>
  </clipPath>
 </defs>
</svg>
