<?xml version="1.0" encoding="utf-8" standalone="no"?>
<!DOCTYPE svg PUBLIC "-//W3C//DTD SVG 1.1//EN"
  "http://www.w3.org/Graphics/SVG/1.1/DTD/svg11.dtd">
<!-- Created with matplotlib (https://matplotlib.org/) -->
<svg height="345.6pt" version="1.1" viewBox="0 0 460.8 345.6" width="460.8pt" xmlns="http://www.w3.org/2000/svg" xmlns:xlink="http://www.w3.org/1999/xlink">
 <defs>
  <style type="text/css">
*{stroke-linecap:butt;stroke-linejoin:round;}
  </style>
 </defs>
 <g id="figure_1">
  <g id="patch_1">
   <path d="M 0 345.6 
L 460.8 345.6 
L 460.8 0 
L 0 0 
z
" style="fill:#ffffff;"/>
  </g>
  <g id="axes_1">
   <g id="patch_2">
    <path d="M 57.6 276.48 
L 414.72 276.48 
L 414.72 41.472 
L 57.6 41.472 
z
" style="fill:#ffffff;"/>
   </g>
   <g id="matplotlib.axis_1">
    <g id="xtick_1">
     <g id="line2d_1">
      <defs>
       <path d="M 0 0 
L 0 3.5 
" id="mefe4a1c215" style="stroke:#000000;stroke-width:0.8;"/>
      </defs>
      <g>
       <use style="stroke:#000000;stroke-width:0.8;" x="72.938362" xlink:href="#mefe4a1c215" y="276.48"/>
      </g>
     </g>
     <g id="text_1">
      <!-- 2014-01 -->
      <defs>
       <path d="M 19.1875 8.296875 
L 53.609375 8.296875 
L 53.609375 0 
L 7.328125 0 
L 7.328125 8.296875 
Q 12.9375 14.109375 22.625 23.890625 
Q 32.328125 33.6875 34.8125 36.53125 
Q 39.546875 41.84375 41.421875 45.53125 
Q 43.3125 49.21875 43.3125 52.78125 
Q 43.3125 58.59375 39.234375 62.25 
Q 35.15625 65.921875 28.609375 65.921875 
Q 23.96875 65.921875 18.8125 64.3125 
Q 13.671875 62.703125 7.8125 59.421875 
L 7.8125 69.390625 
Q 13.765625 71.78125 18.9375 73 
Q 24.125 74.21875 28.421875 74.21875 
Q 39.75 74.21875 46.484375 68.546875 
Q 53.21875 62.890625 53.21875 53.421875 
Q 53.21875 48.921875 51.53125 44.890625 
Q 49.859375 40.875 45.40625 35.40625 
Q 44.1875 33.984375 37.640625 27.21875 
Q 31.109375 20.453125 19.1875 8.296875 
z
" id="DejaVuSans-50"/>
       <path d="M 31.78125 66.40625 
Q 24.171875 66.40625 20.328125 58.90625 
Q 16.5 51.421875 16.5 36.375 
Q 16.5 21.390625 20.328125 13.890625 
Q 24.171875 6.390625 31.78125 6.390625 
Q 39.453125 6.390625 43.28125 13.890625 
Q 47.125 21.390625 47.125 36.375 
Q 47.125 51.421875 43.28125 58.90625 
Q 39.453125 66.40625 31.78125 66.40625 
z
M 31.78125 74.21875 
Q 44.046875 74.21875 50.515625 64.515625 
Q 56.984375 54.828125 56.984375 36.375 
Q 56.984375 17.96875 50.515625 8.265625 
Q 44.046875 -1.421875 31.78125 -1.421875 
Q 19.53125 -1.421875 13.0625 8.265625 
Q 6.59375 17.96875 6.59375 36.375 
Q 6.59375 54.828125 13.0625 64.515625 
Q 19.53125 74.21875 31.78125 74.21875 
z
" id="DejaVuSans-48"/>
       <path d="M 12.40625 8.296875 
L 28.515625 8.296875 
L 28.515625 63.921875 
L 10.984375 60.40625 
L 10.984375 69.390625 
L 28.421875 72.90625 
L 38.28125 72.90625 
L 38.28125 8.296875 
L 54.390625 8.296875 
L 54.390625 0 
L 12.40625 0 
z
" id="DejaVuSans-49"/>
       <path d="M 37.796875 64.3125 
L 12.890625 25.390625 
L 37.796875 25.390625 
z
M 35.203125 72.90625 
L 47.609375 72.90625 
L 47.609375 25.390625 
L 58.015625 25.390625 
L 58.015625 17.1875 
L 47.609375 17.1875 
L 47.609375 0 
L 37.796875 0 
L 37.796875 17.1875 
L 4.890625 17.1875 
L 4.890625 26.703125 
z
" id="DejaVuSans-52"/>
       <path d="M 4.890625 31.390625 
L 31.203125 31.390625 
L 31.203125 23.390625 
L 4.890625 23.390625 
z
" id="DejaVuSans-45"/>
      </defs>
      <g transform="translate(35.713541 310.951846)rotate(-30)scale(0.1 -0.1)">
       <use xlink:href="#DejaVuSans-50"/>
       <use x="63.623047" xlink:href="#DejaVuSans-48"/>
       <use x="127.246094" xlink:href="#DejaVuSans-49"/>
       <use x="190.869141" xlink:href="#DejaVuSans-52"/>
       <use x="254.492188" xlink:href="#DejaVuSans-45"/>
       <use x="290.576172" xlink:href="#DejaVuSans-48"/>
       <use x="354.199219" xlink:href="#DejaVuSans-49"/>
      </g>
     </g>
    </g>
    <g id="xtick_2">
     <g id="line2d_2">
      <g>
       <use style="stroke:#000000;stroke-width:0.8;" x="125.705905" xlink:href="#mefe4a1c215" y="276.48"/>
      </g>
     </g>
     <g id="text_2">
      <!-- 2014-03 -->
      <defs>
       <path d="M 40.578125 39.3125 
Q 47.65625 37.796875 51.625 33 
Q 55.609375 28.21875 55.609375 21.1875 
Q 55.609375 10.40625 48.1875 4.484375 
Q 40.765625 -1.421875 27.09375 -1.421875 
Q 22.515625 -1.421875 17.65625 -0.515625 
Q 12.796875 0.390625 7.625 2.203125 
L 7.625 11.71875 
Q 11.71875 9.328125 16.59375 8.109375 
Q 21.484375 6.890625 26.8125 6.890625 
Q 36.078125 6.890625 40.9375 10.546875 
Q 45.796875 14.203125 45.796875 21.1875 
Q 45.796875 27.640625 41.28125 31.265625 
Q 36.765625 34.90625 28.71875 34.90625 
L 20.21875 34.90625 
L 20.21875 43.015625 
L 29.109375 43.015625 
Q 36.375 43.015625 40.234375 45.921875 
Q 44.09375 48.828125 44.09375 54.296875 
Q 44.09375 59.90625 40.109375 62.90625 
Q 36.140625 65.921875 28.71875 65.921875 
Q 24.65625 65.921875 20.015625 65.03125 
Q 15.375 64.15625 9.8125 62.3125 
L 9.8125 71.09375 
Q 15.4375 72.65625 20.34375 73.4375 
Q 25.25 74.21875 29.59375 74.21875 
Q 40.828125 74.21875 47.359375 69.109375 
Q 53.90625 64.015625 53.90625 55.328125 
Q 53.90625 49.265625 50.4375 45.09375 
Q 46.96875 40.921875 40.578125 39.3125 
z
" id="DejaVuSans-51"/>
      </defs>
      <g transform="translate(88.481085 310.951846)rotate(-30)scale(0.1 -0.1)">
       <use xlink:href="#DejaVuSans-50"/>
       <use x="63.623047" xlink:href="#DejaVuSans-48"/>
       <use x="127.246094" xlink:href="#DejaVuSans-49"/>
       <use x="190.869141" xlink:href="#DejaVuSans-52"/>
       <use x="254.492188" xlink:href="#DejaVuSans-45"/>
       <use x="290.576172" xlink:href="#DejaVuSans-48"/>
       <use x="354.199219" xlink:href="#DejaVuSans-51"/>
      </g>
     </g>
    </g>
    <g id="xtick_3">
     <g id="line2d_3">
      <g>
       <use style="stroke:#000000;stroke-width:0.8;" x="180.262179" xlink:href="#mefe4a1c215" y="276.48"/>
      </g>
     </g>
     <g id="text_3">
      <!-- 2014-05 -->
      <defs>
       <path d="M 10.796875 72.90625 
L 49.515625 72.90625 
L 49.515625 64.59375 
L 19.828125 64.59375 
L 19.828125 46.734375 
Q 21.96875 47.46875 24.109375 47.828125 
Q 26.265625 48.1875 28.421875 48.1875 
Q 40.625 48.1875 47.75 41.5 
Q 54.890625 34.8125 54.890625 23.390625 
Q 54.890625 11.625 47.5625 5.09375 
Q 40.234375 -1.421875 26.90625 -1.421875 
Q 22.3125 -1.421875 17.546875 -0.640625 
Q 12.796875 0.140625 7.71875 1.703125 
L 7.71875 11.625 
Q 12.109375 9.234375 16.796875 8.0625 
Q 21.484375 6.890625 26.703125 6.890625 
Q 35.15625 6.890625 40.078125 11.328125 
Q 45.015625 15.765625 45.015625 23.390625 
Q 45.015625 31 40.078125 35.4375 
Q 35.15625 39.890625 26.703125 39.890625 
Q 22.75 39.890625 18.8125 39.015625 
Q 14.890625 38.140625 10.796875 36.28125 
z
" id="DejaVuSans-53"/>
      </defs>
      <g transform="translate(143.037358 310.951846)rotate(-30)scale(0.1 -0.1)">
       <use xlink:href="#DejaVuSans-50"/>
       <use x="63.623047" xlink:href="#DejaVuSans-48"/>
       <use x="127.246094" xlink:href="#DejaVuSans-49"/>
       <use x="190.869141" xlink:href="#DejaVuSans-52"/>
       <use x="254.492188" xlink:href="#DejaVuSans-45"/>
       <use x="290.576172" xlink:href="#DejaVuSans-48"/>
       <use x="354.199219" xlink:href="#DejaVuSans-53"/>
      </g>
     </g>
    </g>
    <g id="xtick_4">
     <g id="line2d_4">
      <g>
       <use style="stroke:#000000;stroke-width:0.8;" x="234.818452" xlink:href="#mefe4a1c215" y="276.48"/>
      </g>
     </g>
     <g id="text_4">
      <!-- 2014-07 -->
      <defs>
       <path d="M 8.203125 72.90625 
L 55.078125 72.90625 
L 55.078125 68.703125 
L 28.609375 0 
L 18.3125 0 
L 43.21875 64.59375 
L 8.203125 64.59375 
z
" id="DejaVuSans-55"/>
      </defs>
      <g transform="translate(197.593631 310.951846)rotate(-30)scale(0.1 -0.1)">
       <use xlink:href="#DejaVuSans-50"/>
       <use x="63.623047" xlink:href="#DejaVuSans-48"/>
       <use x="127.246094" xlink:href="#DejaVuSans-49"/>
       <use x="190.869141" xlink:href="#DejaVuSans-52"/>
       <use x="254.492188" xlink:href="#DejaVuSans-45"/>
       <use x="290.576172" xlink:href="#DejaVuSans-48"/>
       <use x="354.199219" xlink:href="#DejaVuSans-55"/>
      </g>
     </g>
    </g>
    <g id="xtick_5">
     <g id="line2d_5">
      <g>
       <use style="stroke:#000000;stroke-width:0.8;" x="290.269091" xlink:href="#mefe4a1c215" y="276.48"/>
      </g>
     </g>
     <g id="text_5">
      <!-- 2014-09 -->
      <defs>
       <path d="M 10.984375 1.515625 
L 10.984375 10.5 
Q 14.703125 8.734375 18.5 7.8125 
Q 22.3125 6.890625 25.984375 6.890625 
Q 35.75 6.890625 40.890625 13.453125 
Q 46.046875 20.015625 46.78125 33.40625 
Q 43.953125 29.203125 39.59375 26.953125 
Q 35.25 24.703125 29.984375 24.703125 
Q 19.046875 24.703125 12.671875 31.3125 
Q 6.296875 37.9375 6.296875 49.421875 
Q 6.296875 60.640625 12.9375 67.421875 
Q 19.578125 74.21875 30.609375 74.21875 
Q 43.265625 74.21875 49.921875 64.515625 
Q 56.59375 54.828125 56.59375 36.375 
Q 56.59375 19.140625 48.40625 8.859375 
Q 40.234375 -1.421875 26.421875 -1.421875 
Q 22.703125 -1.421875 18.890625 -0.6875 
Q 15.09375 0.046875 10.984375 1.515625 
z
M 30.609375 32.421875 
Q 37.25 32.421875 41.125 36.953125 
Q 45.015625 41.5 45.015625 49.421875 
Q 45.015625 57.28125 41.125 61.84375 
Q 37.25 66.40625 30.609375 66.40625 
Q 23.96875 66.40625 20.09375 61.84375 
Q 16.21875 57.28125 16.21875 49.421875 
Q 16.21875 41.5 20.09375 36.953125 
Q 23.96875 32.421875 30.609375 32.421875 
z
" id="DejaVuSans-57"/>
      </defs>
      <g transform="translate(253.04427 310.951846)rotate(-30)scale(0.1 -0.1)">
       <use xlink:href="#DejaVuSans-50"/>
       <use x="63.623047" xlink:href="#DejaVuSans-48"/>
       <use x="127.246094" xlink:href="#DejaVuSans-49"/>
       <use x="190.869141" xlink:href="#DejaVuSans-52"/>
       <use x="254.492188" xlink:href="#DejaVuSans-45"/>
       <use x="290.576172" xlink:href="#DejaVuSans-48"/>
       <use x="354.199219" xlink:href="#DejaVuSans-57"/>
      </g>
     </g>
    </g>
    <g id="xtick_6">
     <g id="line2d_6">
      <g>
       <use style="stroke:#000000;stroke-width:0.8;" x="344.825364" xlink:href="#mefe4a1c215" y="276.48"/>
      </g>
     </g>
     <g id="text_6">
      <!-- 2014-11 -->
      <g transform="translate(307.600544 310.951846)rotate(-30)scale(0.1 -0.1)">
       <use xlink:href="#DejaVuSans-50"/>
       <use x="63.623047" xlink:href="#DejaVuSans-48"/>
       <use x="127.246094" xlink:href="#DejaVuSans-49"/>
       <use x="190.869141" xlink:href="#DejaVuSans-52"/>
       <use x="254.492188" xlink:href="#DejaVuSans-45"/>
       <use x="290.576172" xlink:href="#DejaVuSans-49"/>
       <use x="354.199219" xlink:href="#DejaVuSans-49"/>
      </g>
     </g>
    </g>
    <g id="xtick_7">
     <g id="line2d_7">
      <g>
       <use style="stroke:#000000;stroke-width:0.8;" x="399.381638" xlink:href="#mefe4a1c215" y="276.48"/>
      </g>
     </g>
     <g id="text_7">
      <!-- 2015-01 -->
      <g transform="translate(362.156817 310.951846)rotate(-30)scale(0.1 -0.1)">
       <use xlink:href="#DejaVuSans-50"/>
       <use x="63.623047" xlink:href="#DejaVuSans-48"/>
       <use x="127.246094" xlink:href="#DejaVuSans-49"/>
       <use x="190.869141" xlink:href="#DejaVuSans-53"/>
       <use x="254.492188" xlink:href="#DejaVuSans-45"/>
       <use x="290.576172" xlink:href="#DejaVuSans-48"/>
       <use x="354.199219" xlink:href="#DejaVuSans-49"/>
      </g>
     </g>
    </g>
   </g>
   <g id="matplotlib.axis_2">
    <g id="ytick_1">
     <g id="line2d_8">
      <defs>
       <path d="M 0 0 
L -3.5 0 
" id="mbc63856da7" style="stroke:#000000;stroke-width:0.8;"/>
      </defs>
      <g>
       <use style="stroke:#000000;stroke-width:0.8;" x="57.6" xlink:href="#mbc63856da7" y="274.825195"/>
      </g>
     </g>
     <g id="text_8">
      <!-- 34 -->
      <g transform="translate(37.875 278.624414)scale(0.1 -0.1)">
       <use xlink:href="#DejaVuSans-51"/>
       <use x="63.623047" xlink:href="#DejaVuSans-52"/>
      </g>
     </g>
    </g>
    <g id="ytick_2">
     <g id="line2d_9">
      <g>
       <use style="stroke:#000000;stroke-width:0.8;" x="57.6" xlink:href="#mbc63856da7" y="246.295917"/>
      </g>
     </g>
     <g id="text_9">
      <!-- 36 -->
      <defs>
       <path d="M 33.015625 40.375 
Q 26.375 40.375 22.484375 35.828125 
Q 18.609375 31.296875 18.609375 23.390625 
Q 18.609375 15.53125 22.484375 10.953125 
Q 26.375 6.390625 33.015625 6.390625 
Q 39.65625 6.390625 43.53125 10.953125 
Q 47.40625 15.53125 47.40625 23.390625 
Q 47.40625 31.296875 43.53125 35.828125 
Q 39.65625 40.375 33.015625 40.375 
z
M 52.59375 71.296875 
L 52.59375 62.3125 
Q 48.875 64.0625 45.09375 64.984375 
Q 41.3125 65.921875 37.59375 65.921875 
Q 27.828125 65.921875 22.671875 59.328125 
Q 17.53125 52.734375 16.796875 39.40625 
Q 19.671875 43.65625 24.015625 45.921875 
Q 28.375 48.1875 33.59375 48.1875 
Q 44.578125 48.1875 50.953125 41.515625 
Q 57.328125 34.859375 57.328125 23.390625 
Q 57.328125 12.15625 50.6875 5.359375 
Q 44.046875 -1.421875 33.015625 -1.421875 
Q 20.359375 -1.421875 13.671875 8.265625 
Q 6.984375 17.96875 6.984375 36.375 
Q 6.984375 53.65625 15.1875 63.9375 
Q 23.390625 74.21875 37.203125 74.21875 
Q 40.921875 74.21875 44.703125 73.484375 
Q 48.484375 72.75 52.59375 71.296875 
z
" id="DejaVuSans-54"/>
      </defs>
      <g transform="translate(37.875 250.095136)scale(0.1 -0.1)">
       <use xlink:href="#DejaVuSans-51"/>
       <use x="63.623047" xlink:href="#DejaVuSans-54"/>
      </g>
     </g>
    </g>
    <g id="ytick_3">
     <g id="line2d_10">
      <g>
       <use style="stroke:#000000;stroke-width:0.8;" x="57.6" xlink:href="#mbc63856da7" y="217.766639"/>
      </g>
     </g>
     <g id="text_10">
      <!-- 38 -->
      <defs>
       <path d="M 31.78125 34.625 
Q 24.75 34.625 20.71875 30.859375 
Q 16.703125 27.09375 16.703125 20.515625 
Q 16.703125 13.921875 20.71875 10.15625 
Q 24.75 6.390625 31.78125 6.390625 
Q 38.8125 6.390625 42.859375 10.171875 
Q 46.921875 13.96875 46.921875 20.515625 
Q 46.921875 27.09375 42.890625 30.859375 
Q 38.875 34.625 31.78125 34.625 
z
M 21.921875 38.8125 
Q 15.578125 40.375 12.03125 44.71875 
Q 8.5 49.078125 8.5 55.328125 
Q 8.5 64.0625 14.71875 69.140625 
Q 20.953125 74.21875 31.78125 74.21875 
Q 42.671875 74.21875 48.875 69.140625 
Q 55.078125 64.0625 55.078125 55.328125 
Q 55.078125 49.078125 51.53125 44.71875 
Q 48 40.375 41.703125 38.8125 
Q 48.828125 37.15625 52.796875 32.3125 
Q 56.78125 27.484375 56.78125 20.515625 
Q 56.78125 9.90625 50.3125 4.234375 
Q 43.84375 -1.421875 31.78125 -1.421875 
Q 19.734375 -1.421875 13.25 4.234375 
Q 6.78125 9.90625 6.78125 20.515625 
Q 6.78125 27.484375 10.78125 32.3125 
Q 14.796875 37.15625 21.921875 38.8125 
z
M 18.3125 54.390625 
Q 18.3125 48.734375 21.84375 45.5625 
Q 25.390625 42.390625 31.78125 42.390625 
Q 38.140625 42.390625 41.71875 45.5625 
Q 45.3125 48.734375 45.3125 54.390625 
Q 45.3125 60.0625 41.71875 63.234375 
Q 38.140625 66.40625 31.78125 66.40625 
Q 25.390625 66.40625 21.84375 63.234375 
Q 18.3125 60.0625 18.3125 54.390625 
z
" id="DejaVuSans-56"/>
      </defs>
      <g transform="translate(37.875 221.565858)scale(0.1 -0.1)">
       <use xlink:href="#DejaVuSans-51"/>
       <use x="63.623047" xlink:href="#DejaVuSans-56"/>
      </g>
     </g>
    </g>
    <g id="ytick_4">
     <g id="line2d_11">
      <g>
       <use style="stroke:#000000;stroke-width:0.8;" x="57.6" xlink:href="#mbc63856da7" y="189.237362"/>
      </g>
     </g>
     <g id="text_11">
      <!-- 40 -->
      <g transform="translate(37.875 193.03658)scale(0.1 -0.1)">
       <use xlink:href="#DejaVuSans-52"/>
       <use x="63.623047" xlink:href="#DejaVuSans-48"/>
      </g>
     </g>
    </g>
    <g id="ytick_5">
     <g id="line2d_12">
      <g>
       <use style="stroke:#000000;stroke-width:0.8;" x="57.6" xlink:href="#mbc63856da7" y="160.708084"/>
      </g>
     </g>
     <g id="text_12">
      <!-- 42 -->
      <g transform="translate(37.875 164.507303)scale(0.1 -0.1)">
       <use xlink:href="#DejaVuSans-52"/>
       <use x="63.623047" xlink:href="#DejaVuSans-50"/>
      </g>
     </g>
    </g>
    <g id="ytick_6">
     <g id="line2d_13">
      <g>
       <use style="stroke:#000000;stroke-width:0.8;" x="57.6" xlink:href="#mbc63856da7" y="132.178806"/>
      </g>
     </g>
     <g id="text_13">
      <!-- 44 -->
      <g transform="translate(37.875 135.978025)scale(0.1 -0.1)">
       <use xlink:href="#DejaVuSans-52"/>
       <use x="63.623047" xlink:href="#DejaVuSans-52"/>
      </g>
     </g>
    </g>
    <g id="ytick_7">
     <g id="line2d_14">
      <g>
       <use style="stroke:#000000;stroke-width:0.8;" x="57.6" xlink:href="#mbc63856da7" y="103.649528"/>
      </g>
     </g>
     <g id="text_14">
      <!-- 46 -->
      <g transform="translate(37.875 107.448747)scale(0.1 -0.1)">
       <use xlink:href="#DejaVuSans-52"/>
       <use x="63.623047" xlink:href="#DejaVuSans-54"/>
      </g>
     </g>
    </g>
    <g id="ytick_8">
     <g id="line2d_15">
      <g>
       <use style="stroke:#000000;stroke-width:0.8;" x="57.6" xlink:href="#mbc63856da7" y="75.12025"/>
      </g>
     </g>
     <g id="text_15">
      <!-- 48 -->
      <g transform="translate(37.875 78.919469)scale(0.1 -0.1)">
       <use xlink:href="#DejaVuSans-52"/>
       <use x="63.623047" xlink:href="#DejaVuSans-56"/>
      </g>
     </g>
    </g>
    <g id="ytick_9">
     <g id="line2d_16">
      <g>
       <use style="stroke:#000000;stroke-width:0.8;" x="57.6" xlink:href="#mbc63856da7" y="46.590973"/>
      </g>
     </g>
     <g id="text_16">
      <!-- 50 -->
      <g transform="translate(37.875 50.390191)scale(0.1 -0.1)">
       <use xlink:href="#DejaVuSans-53"/>
       <use x="63.623047" xlink:href="#DejaVuSans-48"/>
      </g>
     </g>
    </g>
   </g>
   <g id="line2d_17">
    <path clip-path="url(#pdf8043db3a)" d="M 73.832727 229.748936 
L 77.410188 244.441514 
L 78.304553 240.447415 
L 79.198918 249.71943 
L 80.093283 253.000297 
L 80.987648 245.725332 
L 83.670744 260.845849 
L 84.565109 249.434138 
L 85.459474 235.454792 
L 86.353839 233.600389 
L 87.248204 240.875354 
L 90.825665 243.870929 
L 91.72003 247.294442 
L 92.614395 245.511362 
L 93.50876 234.812883 
L 96.191856 245.867978 
L 97.086221 242.444465 
L 97.980586 236.881255 
L 98.874951 234.028328 
L 99.769316 220.048982 
L 102.452412 239.44889 
L 103.346777 241.303294 
L 104.241142 248.863552 
L 106.029872 238.307719 
L 108.712968 234.884206 
L 109.607333 229.534966 
L 110.501698 225.326898 
L 111.396063 223.329849 
L 112.290428 223.187202 
L 115.867889 226.04013 
L 116.762254 224.756312 
L 118.550984 218.051932 
L 121.23408 222.188677 
L 122.128445 224.328373 
L 123.02281 225.326898 
L 123.917175 219.763689 
L 124.81154 213.344601 
L 127.494636 220.90486 
L 128.389001 211.918137 
L 129.283366 216.197529 
L 130.177731 215.626944 
L 131.072096 219.193103 
L 133.755192 220.334274 
L 134.649557 217.481347 
L 135.543922 213.915187 
L 136.438287 219.33575 
L 137.332652 222.046031 
L 140.015748 217.053407 
L 140.910113 195.656449 
L 141.804478 199.650548 
L 142.698843 184.530031 
L 143.593208 186.955019 
L 146.276304 182.105042 
L 147.170669 184.387384 
L 148.065034 192.232936 
L 148.959399 198.36673 
L 149.853764 184.95797 
L 152.53686 175.115369 
L 153.431225 168.981574 
L 154.32559 169.980099 
L 155.219955 174.830076 
L 156.11432 191.091765 
L 158.797415 192.090289 
L 159.691781 191.804997 
L 160.586146 182.532981 
L 161.480511 198.36673 
L 162.374876 200.520691 
L 165.057971 200.934365 
L 165.952337 192.803521 
L 166.846702 183.531506 
L 167.741067 189.094715 
L 171.318527 190.09324 
L 172.212893 189.380008 
L 173.107258 193.6594 
L 174.001623 191.234411 
L 174.895988 190.521179 
L 177.579083 176.827126 
L 178.473449 181.962396 
L 179.367814 183.531506 
L 180.262179 189.237362 
L 181.156544 193.6594 
L 183.839639 197.368206 
L 184.734005 202.646122 
L 185.62837 197.439529 
L 186.522735 194.372632 
L 187.4171 195.799095 
L 190.100195 189.665301 
L 190.99456 183.246213 
L 191.888926 185.813848 
L 192.783291 194.943217 
L 193.677656 191.66235 
L 196.360751 192.803521 
L 197.255116 193.802046 
L 198.149482 184.244738 
L 199.043847 187.810898 
L 199.938212 187.525605 
L 203.515672 186.52708 
L 204.410038 189.094715 
L 205.304403 184.387384 
L 206.198768 175.828601 
L 208.881863 177.968297 
L 209.776228 185.100616 
L 210.670594 184.672677 
L 211.564959 171.977149 
L 212.459324 168.125696 
L 215.142419 171.12127 
L 216.036784 173.403612 
L 217.825515 180.963871 
L 218.71988 171.691856 
L 221.402975 167.840403 
L 222.29734 165.272768 
L 223.191705 165.700707 
L 224.086071 167.697757 
L 224.980436 165.272768 
L 227.663531 160.85073 
L 228.557896 164.345567 
L 229.452261 160.280145 
L 230.346627 164.702183 
L 231.240992 157.141924 
L 233.924087 164.987475 
L 234.818452 162.562487 
L 235.712817 162.134548 
L 236.607183 163.561012 
L 240.184643 160.85073 
L 241.079008 163.846304 
L 241.973373 165.415415 
L 242.867739 165.201445 
L 243.762104 159.424266 
L 246.445199 158.711034 
L 247.339564 154.288996 
L 248.233929 131.037635 
L 249.128295 124.618547 
L 250.02266 122.336205 
L 252.705755 120.267833 
L 253.60012 120.339156 
L 254.494485 119.76857 
L 255.38885 126.47295 
L 256.283216 125.046487 
L 258.966311 132.606745 
L 259.860676 133.819239 
L 260.755041 138.191351 
L 261.649406 144.161103 
L 262.543772 148.440494 
L 265.226867 141.165528 
L 266.121232 145.302274 
L 267.015597 150.152251 
L 267.909962 143.162578 
L 268.804328 143.590517 
L 271.487423 143.590517 
L 272.381788 139.025833 
L 273.276153 131.037635 
L 274.170518 128.327353 
L 275.064884 120.909741 
L 277.747979 116.345057 
L 278.642344 113.206836 
L 279.536709 118.627399 
L 280.431074 114.775947 
L 281.32544 115.774471 
L 284.008535 115.489178 
L 284.9029 117.842844 
L 285.797265 119.76857 
L 286.69163 119.625924 
L 287.585995 111.780372 
L 291.163456 116.63035 
L 292.057821 118.484753 
L 292.952186 114.205361 
L 293.846551 104.933346 
L 296.529647 96.945148 
L 297.424012 92.808403 
L 298.318377 91.667232 
L 299.212742 89.384889 
L 300.107107 93.735604 
L 302.790203 100.226015 
L 303.684568 92.808403 
L 304.578933 96.231916 
L 305.473298 93.949574 
L 306.367663 81.967277 
L 309.050759 88.529011 
L 309.945124 95.66133 
L 310.839489 88.243718 
L 311.733854 103.078943 
L 312.628219 97.801026 
L 315.311315 97.373087 
L 316.20568 98.514258 
L 317.100045 105.075992 
L 317.99441 107.073042 
L 318.888775 102.365711 
L 321.571871 102.365711 
L 322.466236 110.353908 
L 323.360601 92.52311 
L 324.254966 105.789224 
L 325.149331 131.750867 
L 327.832427 137.17143 
L 328.726792 136.030258 
L 330.515522 150.152251 
L 331.409887 137.456722 
L 334.092983 131.037635 
L 334.987348 119.625924 
L 335.881713 126.758243 
L 336.776078 117.628874 
L 337.670443 101.795125 
L 340.353539 104.933346 
L 341.247904 96.659855 
L 342.142269 94.805452 
L 343.036634 102.936296 
L 343.930999 90.098121 
L 346.614095 83.108448 
L 347.50846 81.254045 
L 348.402825 77.1173 
L 349.29719 65.135003 
L 350.191555 65.420296 
L 352.874651 62.424722 
L 353.769016 62.710015 
L 354.663381 63.993832 
L 355.557746 52.154182 
L 356.452111 52.582121 
L 359.135207 54.293878 
L 360.029572 64.564418 
L 360.923937 71.98203 
L 361.818302 65.135003 
L 362.712667 75.405543 
L 366.290128 82.680509 
L 367.184493 78.68641 
L 368.973223 77.830532 
L 371.656319 66.276174 
L 372.550684 68.558517 
L 373.445049 73.979079 
L 374.339414 63.137954 
L 375.233779 69.129102 
L 377.916875 79.470965 
L 378.81124 80.968752 
L 379.705605 90.811353 
L 380.59997 86.959901 
L 381.494335 90.098121 
L 384.177431 94.09222 
L 385.071796 115.631825 
L 385.966161 107.358334 
L 386.860526 81.967277 
L 387.754891 79.970228 
L 390.437986 75.405543 
L 391.332352 68.701163 
L 392.226717 73.123201 
L 394.015447 76.832007 
L 396.698542 82.965802 
L 397.592908 89.099597 
L 398.487273 97.230441 
L 398.487273 97.230441 
" style="fill:none;stroke:#1f77b4;stroke-linecap:square;stroke-width:1.5;"/>
   </g>
   <g id="line2d_18">
    <path clip-path="url(#pdf8043db3a)" d="M 73.832727 229.402509 
L 74.727092 228.811545 
L 77.410188 230.747461 
L 78.304553 232.8464 
L 79.198918 235.964243 
L 80.093283 239.550781 
L 80.987648 242.342574 
L 83.670744 246.78499 
L 84.565109 249.087711 
L 85.459474 247.803893 
L 86.353839 246.825747 
L 87.248204 245.562307 
L 90.825665 244.258112 
L 91.72003 244.48227 
L 93.50876 240.202879 
L 96.191856 241.690477 
L 97.086221 242.953916 
L 97.980586 242.38333 
L 98.874951 240.977245 
L 99.769316 237.085036 
L 102.452412 236.218969 
L 103.346777 237.14617 
L 104.241142 237.574109 
L 106.029872 237.961292 
L 108.712968 238.083561 
L 109.607333 239.438701 
L 110.501698 237.421274 
L 111.396063 234.853639 
L 112.290428 231.185589 
L 115.867889 228.65871 
L 117.656619 224.786879 
L 118.550984 223.146446 
L 121.23408 222.698129 
L 122.128445 222.840775 
L 123.02281 223.146446 
L 123.917175 222.249812 
L 124.81154 220.619567 
L 127.494636 220.558433 
L 129.283366 218.826298 
L 130.177731 217.583237 
L 131.072096 216.70698 
L 133.755192 216.788493 
L 134.649557 217.379456 
L 135.543922 216.380932 
L 136.438287 217.44059 
L 137.332652 218.276091 
L 140.015748 218.479871 
L 141.804478 212.162674 
L 142.698843 207.455343 
L 143.593208 203.603891 
L 146.276304 198.285218 
L 147.170669 192.905412 
L 148.065034 189.35963 
L 148.959399 189.746813 
L 149.853764 187.647873 
L 152.53686 186.302922 
L 153.431225 183.735287 
L 154.32559 182.003152 
L 155.219955 180.637822 
L 156.11432 180.474798 
L 158.797415 179.578163 
L 160.586146 181.615969 
L 162.374876 190.17679 
L 165.057971 193.905974 
L 165.952337 194.150511 
L 166.846702 192.927827 
L 167.741067 192.540644 
L 171.318527 193.620681 
L 172.212893 192.336864 
L 173.107258 191.356679 
L 174.001623 189.970972 
L 177.579083 188.687154 
L 179.367814 186.730861 
L 181.156544 186.710483 
L 183.839639 187.586739 
L 184.734005 189.318874 
L 185.62837 192.263503 
L 187.4171 195.788906 
L 190.100195 195.850041 
L 191.888926 192.71182 
L 192.783291 191.611405 
L 193.677656 190.786094 
L 196.360751 190.561935 
L 197.255116 190.276642 
L 198.149482 189.502276 
L 199.043847 190.154374 
L 199.938212 190.398911 
L 204.410038 188.8298 
L 205.304403 187.627495 
L 206.198768 185.05986 
L 209.776228 183.776043 
L 210.670594 183.368482 
L 211.564959 181.28992 
L 212.459324 178.294346 
L 215.142419 176.399187 
L 216.036784 176.05276 
L 216.93115 175.910113 
L 217.825515 175.31915 
L 218.71988 173.464747 
L 221.402975 172.873783 
L 222.29734 172.466222 
L 224.086071 170.876734 
L 224.980436 169.205733 
L 228.557896 165.282957 
L 229.452261 164.20292 
L 230.346627 164.121408 
L 231.240992 162.898725 
L 233.924087 162.511542 
L 234.818452 162.124359 
L 235.712817 162.307761 
L 236.607183 162.195682 
L 240.184643 162.277194 
L 241.079008 162.154926 
L 241.973373 163.336853 
L 242.867739 163.36742 
L 243.762104 162.919103 
L 246.445199 162.430029 
L 247.339564 161.105456 
L 248.233929 156.846442 
L 250.02266 145.088304 
L 252.705755 138.669217 
L 254.494485 127.52242 
L 255.38885 123.548699 
L 256.283216 122.692821 
L 258.966311 123.833992 
L 259.860676 125.474426 
L 260.755041 128.034928 
L 261.649406 131.438064 
L 262.543772 135.534053 
L 265.226867 137.632993 
L 266.121232 140.526676 
L 267.015597 143.033177 
L 267.909962 144.36794 
L 268.804328 145.139249 
L 271.487423 145.057737 
L 273.276153 142.265943 
L 274.170518 139.840955 
L 275.064884 135.663453 
L 277.747979 131.832379 
L 278.642344 127.491853 
L 280.431074 120.461424 
L 281.32544 118.280972 
L 284.008535 116.446947 
L 284.9029 116.008819 
L 285.797265 116.497892 
L 286.69163 117.414905 
L 287.585995 116.436758 
L 291.163456 116.701673 
L 292.057821 117.088856 
L 292.952186 116.905453 
L 293.846551 115.061239 
L 296.529647 111.80075 
L 297.424012 107.969676 
L 298.318377 105.09637 
L 300.107107 97.668569 
L 302.790203 95.671519 
L 303.684568 93.939385 
L 304.578933 93.837494 
L 305.473298 94.000519 
L 306.367663 92.614811 
L 309.050759 92.492543 
L 309.945124 92.767647 
L 310.839489 91.05589 
L 311.733854 92.52311 
L 312.628219 92.747268 
L 315.311315 93.236342 
L 317.100045 97.964051 
L 317.99441 99.594295 
L 318.888775 101.611723 
L 321.571871 101.509832 
L 322.466236 103.303101 
L 323.360601 102.610247 
L 324.254966 103.649528 
L 325.149331 107.460225 
L 327.832427 111.759994 
L 328.726792 116.569215 
L 331.409887 134.522282 
L 334.092983 138.129198 
L 334.987348 136.397063 
L 335.881713 134.909465 
L 336.776078 132.280696 
L 337.670443 126.350682 
L 340.353539 119.890838 
L 342.142269 108.886688 
L 343.036634 106.502456 
L 343.930999 101.265296 
L 346.614095 96.333806 
L 347.50846 93.399366 
L 348.402825 89.425645 
L 350.191555 80.724216 
L 352.874651 74.936848 
L 353.769016 71.024261 
L 354.663381 68.293602 
L 355.557746 64.136478 
L 356.452111 60.631453 
L 359.135207 59.082721 
L 360.029572 58.960452 
L 360.923937 60.325782 
L 361.818302 60.672209 
L 362.712667 62.302453 
L 365.395763 66.418821 
L 366.290128 70.71859 
L 367.184493 74.203238 
L 368.973223 76.098397 
L 371.656319 75.283275 
L 372.550684 75.772348 
L 373.445049 75.568568 
L 374.339414 73.021311 
L 375.233779 71.085395 
L 377.916875 71.197475 
L 378.81124 71.645792 
L 379.705605 75.150818 
L 381.494335 80.082307 
L 384.177431 84.504345 
L 385.071796 91.147591 
L 385.966161 95.131501 
L 386.860526 95.274147 
L 387.754891 93.725415 
L 390.437986 92.074793 
L 392.226717 86.02251 
L 394.015447 80.479679 
L 396.698542 76.995032 
L 397.592908 78.013934 
L 398.487273 80.479679 
L 398.487273 80.479679 
" style="fill:none;stroke:#ff7f0e;stroke-linecap:square;stroke-width:1.5;"/>
   </g>
   <g id="line2d_19">
    <path clip-path="url(#pdf8043db3a)" d="M 73.832727 225.740572 
L 74.727092 225.65974 
L 77.410188 226.111453 
L 78.304553 226.582186 
L 80.987648 229.068988 
L 83.670744 230.314767 
L 84.565109 231.432163 
L 86.353839 232.910931 
L 87.248204 234.12818 
L 90.825665 234.998323 
L 92.614395 237.413802 
L 93.50876 238.034314 
L 96.191856 238.785585 
L 97.086221 239.237298 
L 98.874951 239.26345 
L 99.769316 238.635806 
L 103.346777 238.635806 
L 104.241142 239.101784 
L 106.029872 239.558253 
L 109.607333 239.917246 
L 111.396063 239.736561 
L 112.290428 239.517836 
L 115.867889 239.275337 
L 117.656619 237.98201 
L 118.550984 236.926427 
L 121.23408 235.899373 
L 122.128445 235.186141 
L 123.02281 234.002176 
L 123.917175 233.013161 
L 124.81154 232.276155 
L 127.494636 231.85297 
L 131.072096 228.032424 
L 133.755192 227.549804 
L 135.543922 225.652607 
L 136.438287 225.067757 
L 137.332652 224.668347 
L 140.015748 224.568495 
L 141.804478 221.720322 
L 143.593208 217.683429 
L 146.276304 215.810006 
L 147.170669 214.126779 
L 148.065034 212.883378 
L 148.959399 211.984706 
L 149.853764 210.705643 
L 152.53686 209.103249 
L 154.32559 205.375423 
L 155.219955 203.825332 
L 156.11432 202.92666 
L 158.797415 201.92338 
L 159.691781 200.839268 
L 160.586146 199.412804 
L 161.480511 198.699572 
L 162.374876 198.272108 
L 165.057971 197.606425 
L 165.952337 196.969271 
L 166.846702 195.880404 
L 167.741067 194.995996 
L 171.318527 194.026001 
L 172.212893 192.994192 
L 174.895988 190.483616 
L 177.579083 188.976319 
L 178.473449 187.806618 
L 180.262179 187.055347 
L 181.156544 187.35966 
L 183.839639 187.706766 
L 184.734005 188.391468 
L 185.62837 188.82654 
L 186.522735 188.897863 
L 187.4171 188.812275 
L 190.100195 188.969186 
L 190.99456 189.240214 
L 191.888926 189.80129 
L 192.783291 190.633394 
L 193.677656 191.19447 
L 197.255116 191.308587 
L 198.149482 191.056579 
L 199.043847 191.232509 
L 199.938212 190.871138 
L 203.515672 190.404685 
L 205.304403 189.729492 
L 206.198768 189.472728 
L 210.670594 188.778516 
L 212.459324 187.285483 
L 216.036784 186.524703 
L 217.825515 186.272694 
L 218.71988 185.687844 
L 221.402975 184.827211 
L 224.980436 180.564461 
L 227.663531 179.399516 
L 229.452261 177.789989 
L 230.346627 177.086267 
L 231.240992 175.826224 
L 233.924087 174.937061 
L 235.712817 172.873443 
L 236.607183 172.183986 
L 240.184643 171.285314 
L 243.762104 168.163735 
L 246.445199 167.593149 
L 247.339564 166.803839 
L 250.02266 161.345238 
L 252.705755 159.749976 
L 255.38885 154.586176 
L 256.283216 152.722263 
L 258.966311 151.419426 
L 259.860676 150.285388 
L 260.755041 149.382674 
L 262.543772 148.022778 
L 265.226867 147.219203 
L 267.909962 145.657226 
L 268.804328 144.953503 
L 271.487423 144.50179 
L 272.381788 143.636402 
L 274.170518 141.458667 
L 275.064884 140.036958 
L 277.747979 138.553435 
L 280.431074 133.625003 
L 281.32544 132.170009 
L 284.008535 130.729281 
L 284.9029 129.514409 
L 285.797265 129.138774 
L 286.69163 128.972353 
L 287.585995 128.620492 
L 292.057821 128.437429 
L 292.952186 128.251989 
L 293.846551 127.534002 
L 296.529647 126.597291 
L 298.318377 123.865612 
L 300.107107 120.55788 
L 302.790203 118.950731 
L 304.578933 115.703148 
L 306.367663 111.789882 
L 309.050759 109.954499 
L 310.839489 106.664122 
L 312.628219 104.714621 
L 315.311315 103.930066 
L 316.20568 103.335706 
L 317.99441 102.679533 
L 318.888775 102.265858 
L 322.466236 101.647724 
L 323.360601 100.803733 
L 324.254966 100.337755 
L 325.149331 100.741919 
L 327.832427 101.588288 
L 328.726792 102.234952 
L 329.621157 103.062301 
L 331.409887 105.344643 
L 334.092983 106.481059 
L 334.987348 107.374976 
L 335.881713 108.544677 
L 336.776078 109.486143 
L 337.670443 109.754794 
L 342.142269 109.992538 
L 343.930999 110.563123 
L 346.614095 110.382438 
L 348.402825 109.531314 
L 350.191555 107.187159 
L 352.874651 106.022213 
L 354.663381 103.459333 
L 356.452111 99.969251 
L 359.135207 98.366857 
L 360.029572 96.840541 
L 360.923937 96.155838 
L 361.818302 94.800697 
L 362.712667 92.92252 
L 365.395763 91.049097 
L 366.290128 89.270772 
L 367.184493 87.116812 
L 368.973223 84.706088 
L 371.656319 82.333403 
L 372.550684 80.250766 
L 373.445049 78.729204 
L 374.339414 76.608528 
L 375.233779 74.991869 
L 377.916875 74.24773 
L 378.81124 73.44891 
L 380.59997 72.992442 
L 381.494335 72.564503 
L 384.177431 72.697639 
L 385.071796 73.781752 
L 385.966161 74.651895 
L 386.860526 74.813561 
L 387.754891 75.308068 
L 391.332352 75.850124 
L 392.226717 76.197231 
L 394.015447 76.62517 
L 396.698542 77.652224 
L 397.592908 78.869473 
L 398.487273 80.300692 
L 398.487273 80.300692 
" style="fill:none;stroke:#2ca02c;stroke-linecap:square;stroke-width:1.5;"/>
   </g>
   <g id="line2d_20">
    <path clip-path="url(#pdf8043db3a)" d="M 73.832727 265.797818 
L 74.727092 265.709853 
L 78.304553 265.646851 
L 79.198918 265.608812 
L 80.987648 264.638816 
L 83.670744 264.263181 
L 84.565109 263.80909 
L 87.248204 261.968951 
L 90.825665 261.455424 
L 92.614395 260.447984 
L 93.50876 259.863728 
L 96.191856 259.349013 
L 99.769316 257.162125 
L 102.452412 256.732997 
L 106.029872 254.74308 
L 108.712968 254.100339 
L 111.396063 252.122903 
L 112.290428 251.781741 
L 115.867889 251.393029 
L 118.550984 249.798956 
L 121.23408 249.288995 
L 123.02281 247.870258 
L 124.81154 246.231845 
L 127.494636 245.503754 
L 129.283366 244.149802 
L 131.072096 242.921855 
L 133.755192 242.325236 
L 136.438287 240.626555 
L 137.332652 240.043013 
L 140.015748 239.411802 
L 143.593208 236.046536 
L 146.276304 235.188281 
L 148.065034 233.686927 
L 149.853764 232.269973 
L 152.53686 231.355848 
L 155.219955 228.510052 
L 156.11432 227.827727 
L 158.797415 227.191762 
L 161.480511 225.337359 
L 162.374876 224.832272 
L 165.057971 224.334198 
L 165.952337 223.71963 
L 167.741067 222.182615 
L 171.318527 221.682164 
L 174.895988 219.612008 
L 177.579083 218.976637 
L 179.367814 217.986434 
L 181.156544 217.509757 
L 184.734005 217.138876 
L 186.522735 216.716881 
L 187.4171 216.536314 
L 190.100195 216.283236 
L 192.783291 215.184859 
L 193.677656 214.896 
L 196.360751 214.636859 
L 198.149482 214.037744 
L 199.938212 213.504009 
L 203.515672 213.297171 
L 206.198768 212.579185 
L 209.776228 212.101913 
L 210.670594 211.839206 
L 212.459324 210.904873 
L 215.142419 210.360439 
L 218.71988 208.27483 
L 221.402975 207.716131 
L 223.191705 206.571394 
L 224.980436 205.565737 
L 227.663531 205.007039 
L 230.346627 203.341048 
L 231.240992 202.613551 
L 233.924087 201.984718 
L 236.607183 199.816493 
L 240.184643 198.983201 
L 241.973373 197.686307 
L 243.762104 196.437557 
L 246.445199 195.727891 
L 247.339564 194.952846 
L 250.02266 192.05118 
L 252.705755 191.033042 
L 254.494485 189.109693 
L 255.38885 188.329893 
L 256.283216 187.376539 
L 258.966311 186.470735 
L 260.755041 184.632558 
L 262.543772 183.127638 
L 265.226867 182.391226 
L 268.804328 179.760589 
L 271.487423 179.084208 
L 274.170518 176.891019 
L 275.064884 176.029197 
L 277.747979 175.121015 
L 280.431074 172.559324 
L 281.32544 171.758127 
L 284.008535 170.918891 
L 287.585995 167.555408 
L 291.163456 166.744701 
L 293.846551 164.07127 
L 296.529647 163.248675 
L 298.318377 161.584468 
L 300.107107 160.034971 
L 302.790203 159.333626 
L 306.367663 156.119328 
L 309.050759 155.44889 
L 310.839489 154.108014 
L 312.628219 152.58883 
L 315.311315 151.801897 
L 317.100045 150.324318 
L 318.888775 148.724182 
L 321.571871 147.970534 
L 322.466236 147.360721 
L 324.254966 145.853424 
L 325.149331 145.373181 
L 327.832427 144.902448 
L 329.621157 144.048947 
L 330.515522 143.826656 
L 331.409887 143.455776 
L 334.092983 143.018327 
L 336.776078 141.216227 
L 337.670443 140.375802 
L 340.353539 139.604918 
L 343.930999 136.450055 
L 346.614095 135.594177 
L 349.29719 132.62832 
L 350.191555 131.558473 
L 352.874651 130.543306 
L 356.452111 126.213988 
L 359.135207 125.129875 
L 362.712667 121.409182 
L 365.395763 120.650779 
L 367.184493 119.168445 
L 368.973223 118.372003 
L 371.656319 117.449556 
L 373.445049 115.698572 
L 375.233779 114.024854 
L 377.916875 113.306273 
L 379.705605 111.963019 
L 381.494335 110.728534 
L 384.177431 110.176968 
L 385.966161 109.353185 
L 387.754891 107.973081 
L 390.437986 107.250339 
L 392.226717 105.728778 
L 394.015447 105.003658 
L 396.698542 104.316578 
L 398.487273 103.164114 
L 398.487273 103.164114 
" style="fill:none;stroke:#d62728;stroke-linecap:square;stroke-width:1.5;"/>
   </g>
   <g id="patch_3">
    <path d="M 57.6 276.48 
L 57.6 41.472 
" style="fill:none;stroke:#000000;stroke-linecap:square;stroke-linejoin:miter;stroke-width:0.8;"/>
   </g>
   <g id="patch_4">
    <path d="M 414.72 276.48 
L 414.72 41.472 
" style="fill:none;stroke:#000000;stroke-linecap:square;stroke-linejoin:miter;stroke-width:0.8;"/>
   </g>
   <g id="patch_5">
    <path d="M 57.6 276.48 
L 414.72 276.48 
" style="fill:none;stroke:#000000;stroke-linecap:square;stroke-linejoin:miter;stroke-width:0.8;"/>
   </g>
   <g id="patch_6">
    <path d="M 57.6 41.472 
L 414.72 41.472 
" style="fill:none;stroke:#000000;stroke-linecap:square;stroke-linejoin:miter;stroke-width:0.8;"/>
   </g>
   <g id="legend_1">
    <g id="patch_7">
     <path d="M 64.6 108.1845 
L 131.15625 108.1845 
Q 133.15625 108.1845 133.15625 106.1845 
L 133.15625 48.472 
Q 133.15625 46.472 131.15625 46.472 
L 64.6 46.472 
Q 62.6 46.472 62.6 48.472 
L 62.6 106.1845 
Q 62.6 108.1845 64.6 108.1845 
z
" style="fill:#ffffff;opacity:0.8;stroke:#cccccc;stroke-linejoin:miter;"/>
    </g>
    <g id="line2d_21">
     <path d="M 66.6 54.570437 
L 86.6 54.570437 
" style="fill:none;stroke:#1f77b4;stroke-linecap:square;stroke-width:1.5;"/>
    </g>
    <g id="line2d_22"/>
    <g id="text_17">
     <!-- close -->
     <defs>
      <path d="M 48.78125 52.59375 
L 48.78125 44.1875 
Q 44.96875 46.296875 41.140625 47.34375 
Q 37.3125 48.390625 33.40625 48.390625 
Q 24.65625 48.390625 19.8125 42.84375 
Q 14.984375 37.3125 14.984375 27.296875 
Q 14.984375 17.28125 19.8125 11.734375 
Q 24.65625 6.203125 33.40625 6.203125 
Q 37.3125 6.203125 41.140625 7.25 
Q 44.96875 8.296875 48.78125 10.40625 
L 48.78125 2.09375 
Q 45.015625 0.34375 40.984375 -0.53125 
Q 36.96875 -1.421875 32.421875 -1.421875 
Q 20.0625 -1.421875 12.78125 6.34375 
Q 5.515625 14.109375 5.515625 27.296875 
Q 5.515625 40.671875 12.859375 48.328125 
Q 20.21875 56 33.015625 56 
Q 37.15625 56 41.109375 55.140625 
Q 45.0625 54.296875 48.78125 52.59375 
z
" id="DejaVuSans-99"/>
      <path d="M 9.421875 75.984375 
L 18.40625 75.984375 
L 18.40625 0 
L 9.421875 0 
z
" id="DejaVuSans-108"/>
      <path d="M 30.609375 48.390625 
Q 23.390625 48.390625 19.1875 42.75 
Q 14.984375 37.109375 14.984375 27.296875 
Q 14.984375 17.484375 19.15625 11.84375 
Q 23.34375 6.203125 30.609375 6.203125 
Q 37.796875 6.203125 41.984375 11.859375 
Q 46.1875 17.53125 46.1875 27.296875 
Q 46.1875 37.015625 41.984375 42.703125 
Q 37.796875 48.390625 30.609375 48.390625 
z
M 30.609375 56 
Q 42.328125 56 49.015625 48.375 
Q 55.71875 40.765625 55.71875 27.296875 
Q 55.71875 13.875 49.015625 6.21875 
Q 42.328125 -1.421875 30.609375 -1.421875 
Q 18.84375 -1.421875 12.171875 6.21875 
Q 5.515625 13.875 5.515625 27.296875 
Q 5.515625 40.765625 12.171875 48.375 
Q 18.84375 56 30.609375 56 
z
" id="DejaVuSans-111"/>
      <path d="M 44.28125 53.078125 
L 44.28125 44.578125 
Q 40.484375 46.53125 36.375 47.5 
Q 32.28125 48.484375 27.875 48.484375 
Q 21.1875 48.484375 17.84375 46.4375 
Q 14.5 44.390625 14.5 40.28125 
Q 14.5 37.15625 16.890625 35.375 
Q 19.28125 33.59375 26.515625 31.984375 
L 29.59375 31.296875 
Q 39.15625 29.25 43.1875 25.515625 
Q 47.21875 21.78125 47.21875 15.09375 
Q 47.21875 7.46875 41.1875 3.015625 
Q 35.15625 -1.421875 24.609375 -1.421875 
Q 20.21875 -1.421875 15.453125 -0.5625 
Q 10.6875 0.296875 5.421875 2 
L 5.421875 11.28125 
Q 10.40625 8.6875 15.234375 7.390625 
Q 20.0625 6.109375 24.8125 6.109375 
Q 31.15625 6.109375 34.5625 8.28125 
Q 37.984375 10.453125 37.984375 14.40625 
Q 37.984375 18.0625 35.515625 20.015625 
Q 33.0625 21.96875 24.703125 23.78125 
L 21.578125 24.515625 
Q 13.234375 26.265625 9.515625 29.90625 
Q 5.8125 33.546875 5.8125 39.890625 
Q 5.8125 47.609375 11.28125 51.796875 
Q 16.75 56 26.8125 56 
Q 31.78125 56 36.171875 55.265625 
Q 40.578125 54.546875 44.28125 53.078125 
z
" id="DejaVuSans-115"/>
      <path d="M 56.203125 29.59375 
L 56.203125 25.203125 
L 14.890625 25.203125 
Q 15.484375 15.921875 20.484375 11.0625 
Q 25.484375 6.203125 34.421875 6.203125 
Q 39.59375 6.203125 44.453125 7.46875 
Q 49.3125 8.734375 54.109375 11.28125 
L 54.109375 2.78125 
Q 49.265625 0.734375 44.1875 -0.34375 
Q 39.109375 -1.421875 33.890625 -1.421875 
Q 20.796875 -1.421875 13.15625 6.1875 
Q 5.515625 13.8125 5.515625 26.8125 
Q 5.515625 40.234375 12.765625 48.109375 
Q 20.015625 56 32.328125 56 
Q 43.359375 56 49.78125 48.890625 
Q 56.203125 41.796875 56.203125 29.59375 
z
M 47.21875 32.234375 
Q 47.125 39.59375 43.09375 43.984375 
Q 39.0625 48.390625 32.421875 48.390625 
Q 24.90625 48.390625 20.390625 44.140625 
Q 15.875 39.890625 15.1875 32.171875 
z
" id="DejaVuSans-101"/>
     </defs>
     <g transform="translate(94.6 58.070437)scale(0.1 -0.1)">
      <use xlink:href="#DejaVuSans-99"/>
      <use x="54.980469" xlink:href="#DejaVuSans-108"/>
      <use x="82.763672" xlink:href="#DejaVuSans-111"/>
      <use x="143.945312" xlink:href="#DejaVuSans-115"/>
      <use x="196.044922" xlink:href="#DejaVuSans-101"/>
     </g>
    </g>
    <g id="line2d_23">
     <path d="M 66.6 69.248562 
L 86.6 69.248562 
" style="fill:none;stroke:#ff7f0e;stroke-linecap:square;stroke-width:1.5;"/>
    </g>
    <g id="line2d_24"/>
    <g id="text_18">
     <!-- MA7 -->
     <defs>
      <path d="M 9.8125 72.90625 
L 24.515625 72.90625 
L 43.109375 23.296875 
L 61.8125 72.90625 
L 76.515625 72.90625 
L 76.515625 0 
L 66.890625 0 
L 66.890625 64.015625 
L 48.09375 14.015625 
L 38.1875 14.015625 
L 19.390625 64.015625 
L 19.390625 0 
L 9.8125 0 
z
" id="DejaVuSans-77"/>
      <path d="M 34.1875 63.1875 
L 20.796875 26.90625 
L 47.609375 26.90625 
z
M 28.609375 72.90625 
L 39.796875 72.90625 
L 67.578125 0 
L 57.328125 0 
L 50.6875 18.703125 
L 17.828125 18.703125 
L 11.1875 0 
L 0.78125 0 
z
" id="DejaVuSans-65"/>
     </defs>
     <g transform="translate(94.6 72.748562)scale(0.1 -0.1)">
      <use xlink:href="#DejaVuSans-77"/>
      <use x="86.279297" xlink:href="#DejaVuSans-65"/>
      <use x="154.6875" xlink:href="#DejaVuSans-55"/>
     </g>
    </g>
    <g id="line2d_25">
     <path d="M 66.6 83.926687 
L 86.6 83.926687 
" style="fill:none;stroke:#2ca02c;stroke-linecap:square;stroke-width:1.5;"/>
    </g>
    <g id="line2d_26"/>
    <g id="text_19">
     <!-- MA30 -->
     <g transform="translate(94.6 87.426687)scale(0.1 -0.1)">
      <use xlink:href="#DejaVuSans-77"/>
      <use x="86.279297" xlink:href="#DejaVuSans-65"/>
      <use x="154.6875" xlink:href="#DejaVuSans-51"/>
      <use x="218.310547" xlink:href="#DejaVuSans-48"/>
     </g>
    </g>
    <g id="line2d_27">
     <path d="M 66.6 98.604812 
L 86.6 98.604812 
" style="fill:none;stroke:#d62728;stroke-linecap:square;stroke-width:1.5;"/>
    </g>
    <g id="line2d_28"/>
    <g id="text_20">
     <!-- MA120 -->
     <g transform="translate(94.6 102.104812)scale(0.1 -0.1)">
      <use xlink:href="#DejaVuSans-77"/>
      <use x="86.279297" xlink:href="#DejaVuSans-65"/>
      <use x="154.6875" xlink:href="#DejaVuSans-49"/>
      <use x="218.310547" xlink:href="#DejaVuSans-50"/>
      <use x="281.933594" xlink:href="#DejaVuSans-48"/>
     </g>
    </g>
   </g>
  </g>
 </g>
 <defs>
  <clipPath id="pdf8043db3a">
   <rect height="235.008" width="357.12" x="57.6" y="41.472"/>
  </clipPath>
 </defs>
</svg>
