<?xml version="1.0" encoding="utf-8" standalone="no"?>
<!DOCTYPE svg PUBLIC "-//W3C//DTD SVG 1.1//EN"
  "http://www.w3.org/Graphics/SVG/1.1/DTD/svg11.dtd">
<!-- Created with matplotlib (https://matplotlib.org/) -->
<svg height="345.6pt" version="1.1" viewBox="0 0 460.8 345.6" width="460.8pt" xmlns="http://www.w3.org/2000/svg" xmlns:xlink="http://www.w3.org/1999/xlink">
 <defs>
  <style type="text/css">
*{stroke-linecap:butt;stroke-linejoin:round;}
  </style>
 </defs>
 <g id="figure_1">
  <g id="patch_1">
   <path d="M 0 345.6 
L 460.8 345.6 
L 460.8 0 
L 0 0 
z
" style="fill:#ffffff;"/>
  </g>
  <g id="axes_1">
   <g id="patch_2">
    <path d="M 57.6 276.48 
L 414.72 276.48 
L 414.72 41.472 
L 57.6 41.472 
z
" style="fill:#ffffff;"/>
   </g>
   <g id="matplotlib.axis_1">
    <g id="xtick_1">
     <g id="line2d_1">
      <defs>
       <path d="M 0 0 
L 0 3.5 
" id="ma51cbe8767" style="stroke:#000000;stroke-width:0.8;"/>
      </defs>
      <g>
       <use style="stroke:#000000;stroke-width:0.8;" x="71.998521" xlink:href="#ma51cbe8767" y="276.48"/>
      </g>
     </g>
     <g id="text_1">
      <!-- 2002-01 -->
      <defs>
       <path d="M 19.1875 8.296875 
L 53.609375 8.296875 
L 53.609375 0 
L 7.328125 0 
L 7.328125 8.296875 
Q 12.9375 14.109375 22.625 23.890625 
Q 32.328125 33.6875 34.8125 36.53125 
Q 39.546875 41.84375 41.421875 45.53125 
Q 43.3125 49.21875 43.3125 52.78125 
Q 43.3125 58.59375 39.234375 62.25 
Q 35.15625 65.921875 28.609375 65.921875 
Q 23.96875 65.921875 18.8125 64.3125 
Q 13.671875 62.703125 7.8125 59.421875 
L 7.8125 69.390625 
Q 13.765625 71.78125 18.9375 73 
Q 24.125 74.21875 28.421875 74.21875 
Q 39.75 74.21875 46.484375 68.546875 
Q 53.21875 62.890625 53.21875 53.421875 
Q 53.21875 48.921875 51.53125 44.890625 
Q 49.859375 40.875 45.40625 35.40625 
Q 44.1875 33.984375 37.640625 27.21875 
Q 31.109375 20.453125 19.1875 8.296875 
z
" id="DejaVuSans-50"/>
       <path d="M 31.78125 66.40625 
Q 24.171875 66.40625 20.328125 58.90625 
Q 16.5 51.421875 16.5 36.375 
Q 16.5 21.390625 20.328125 13.890625 
Q 24.171875 6.390625 31.78125 6.390625 
Q 39.453125 6.390625 43.28125 13.890625 
Q 47.125 21.390625 47.125 36.375 
Q 47.125 51.421875 43.28125 58.90625 
Q 39.453125 66.40625 31.78125 66.40625 
z
M 31.78125 74.21875 
Q 44.046875 74.21875 50.515625 64.515625 
Q 56.984375 54.828125 56.984375 36.375 
Q 56.984375 17.96875 50.515625 8.265625 
Q 44.046875 -1.421875 31.78125 -1.421875 
Q 19.53125 -1.421875 13.0625 8.265625 
Q 6.59375 17.96875 6.59375 36.375 
Q 6.59375 54.828125 13.0625 64.515625 
Q 19.53125 74.21875 31.78125 74.21875 
z
" id="DejaVuSans-48"/>
       <path d="M 4.890625 31.390625 
L 31.203125 31.390625 
L 31.203125 23.390625 
L 4.890625 23.390625 
z
" id="DejaVuSans-45"/>
       <path d="M 12.40625 8.296875 
L 28.515625 8.296875 
L 28.515625 63.921875 
L 10.984375 60.40625 
L 10.984375 69.390625 
L 28.421875 72.90625 
L 38.28125 72.90625 
L 38.28125 8.296875 
L 54.390625 8.296875 
L 54.390625 0 
L 12.40625 0 
z
" id="DejaVuSans-49"/>
      </defs>
      <g transform="translate(34.7737 310.951846)rotate(-30)scale(0.1 -0.1)">
       <use xlink:href="#DejaVuSans-50"/>
       <use x="63.623047" xlink:href="#DejaVuSans-48"/>
       <use x="127.246094" xlink:href="#DejaVuSans-48"/>
       <use x="190.869141" xlink:href="#DejaVuSans-50"/>
       <use x="254.492188" xlink:href="#DejaVuSans-45"/>
       <use x="290.576172" xlink:href="#DejaVuSans-48"/>
       <use x="354.199219" xlink:href="#DejaVuSans-49"/>
      </g>
     </g>
    </g>
    <g id="xtick_2">
     <g id="line2d_2">
      <g>
       <use style="stroke:#000000;stroke-width:0.8;" x="128.858921" xlink:href="#ma51cbe8767" y="276.48"/>
      </g>
     </g>
     <g id="text_2">
      <!-- 2002-02 -->
      <g transform="translate(91.634101 310.951846)rotate(-30)scale(0.1 -0.1)">
       <use xlink:href="#DejaVuSans-50"/>
       <use x="63.623047" xlink:href="#DejaVuSans-48"/>
       <use x="127.246094" xlink:href="#DejaVuSans-48"/>
       <use x="190.869141" xlink:href="#DejaVuSans-50"/>
       <use x="254.492188" xlink:href="#DejaVuSans-45"/>
       <use x="290.576172" xlink:href="#DejaVuSans-48"/>
       <use x="354.199219" xlink:href="#DejaVuSans-50"/>
      </g>
     </g>
    </g>
    <g id="xtick_3">
     <g id="line2d_3">
      <g>
       <use style="stroke:#000000;stroke-width:0.8;" x="180.216703" xlink:href="#ma51cbe8767" y="276.48"/>
      </g>
     </g>
     <g id="text_3">
      <!-- 2002-03 -->
      <defs>
       <path d="M 40.578125 39.3125 
Q 47.65625 37.796875 51.625 33 
Q 55.609375 28.21875 55.609375 21.1875 
Q 55.609375 10.40625 48.1875 4.484375 
Q 40.765625 -1.421875 27.09375 -1.421875 
Q 22.515625 -1.421875 17.65625 -0.515625 
Q 12.796875 0.390625 7.625 2.203125 
L 7.625 11.71875 
Q 11.71875 9.328125 16.59375 8.109375 
Q 21.484375 6.890625 26.8125 6.890625 
Q 36.078125 6.890625 40.9375 10.546875 
Q 45.796875 14.203125 45.796875 21.1875 
Q 45.796875 27.640625 41.28125 31.265625 
Q 36.765625 34.90625 28.71875 34.90625 
L 20.21875 34.90625 
L 20.21875 43.015625 
L 29.109375 43.015625 
Q 36.375 43.015625 40.234375 45.921875 
Q 44.09375 48.828125 44.09375 54.296875 
Q 44.09375 59.90625 40.109375 62.90625 
Q 36.140625 65.921875 28.71875 65.921875 
Q 24.65625 65.921875 20.015625 65.03125 
Q 15.375 64.15625 9.8125 62.3125 
L 9.8125 71.09375 
Q 15.4375 72.65625 20.34375 73.4375 
Q 25.25 74.21875 29.59375 74.21875 
Q 40.828125 74.21875 47.359375 69.109375 
Q 53.90625 64.015625 53.90625 55.328125 
Q 53.90625 49.265625 50.4375 45.09375 
Q 46.96875 40.921875 40.578125 39.3125 
z
" id="DejaVuSans-51"/>
      </defs>
      <g transform="translate(142.991882 310.951846)rotate(-30)scale(0.1 -0.1)">
       <use xlink:href="#DejaVuSans-50"/>
       <use x="63.623047" xlink:href="#DejaVuSans-48"/>
       <use x="127.246094" xlink:href="#DejaVuSans-48"/>
       <use x="190.869141" xlink:href="#DejaVuSans-50"/>
       <use x="254.492188" xlink:href="#DejaVuSans-45"/>
       <use x="290.576172" xlink:href="#DejaVuSans-48"/>
       <use x="354.199219" xlink:href="#DejaVuSans-51"/>
      </g>
     </g>
    </g>
    <g id="xtick_4">
     <g id="line2d_4">
      <g>
       <use style="stroke:#000000;stroke-width:0.8;" x="237.077103" xlink:href="#ma51cbe8767" y="276.48"/>
      </g>
     </g>
     <g id="text_4">
      <!-- 2002-04 -->
      <defs>
       <path d="M 37.796875 64.3125 
L 12.890625 25.390625 
L 37.796875 25.390625 
z
M 35.203125 72.90625 
L 47.609375 72.90625 
L 47.609375 25.390625 
L 58.015625 25.390625 
L 58.015625 17.1875 
L 47.609375 17.1875 
L 47.609375 0 
L 37.796875 0 
L 37.796875 17.1875 
L 4.890625 17.1875 
L 4.890625 26.703125 
z
" id="DejaVuSans-52"/>
      </defs>
      <g transform="translate(199.852282 310.951846)rotate(-30)scale(0.1 -0.1)">
       <use xlink:href="#DejaVuSans-50"/>
       <use x="63.623047" xlink:href="#DejaVuSans-48"/>
       <use x="127.246094" xlink:href="#DejaVuSans-48"/>
       <use x="190.869141" xlink:href="#DejaVuSans-50"/>
       <use x="254.492188" xlink:href="#DejaVuSans-45"/>
       <use x="290.576172" xlink:href="#DejaVuSans-48"/>
       <use x="354.199219" xlink:href="#DejaVuSans-52"/>
      </g>
     </g>
    </g>
    <g id="xtick_5">
     <g id="line2d_5">
      <g>
       <use style="stroke:#000000;stroke-width:0.8;" x="292.103297" xlink:href="#ma51cbe8767" y="276.48"/>
      </g>
     </g>
     <g id="text_5">
      <!-- 2002-05 -->
      <defs>
       <path d="M 10.796875 72.90625 
L 49.515625 72.90625 
L 49.515625 64.59375 
L 19.828125 64.59375 
L 19.828125 46.734375 
Q 21.96875 47.46875 24.109375 47.828125 
Q 26.265625 48.1875 28.421875 48.1875 
Q 40.625 48.1875 47.75 41.5 
Q 54.890625 34.8125 54.890625 23.390625 
Q 54.890625 11.625 47.5625 5.09375 
Q 40.234375 -1.421875 26.90625 -1.421875 
Q 22.3125 -1.421875 17.546875 -0.640625 
Q 12.796875 0.140625 7.71875 1.703125 
L 7.71875 11.625 
Q 12.109375 9.234375 16.796875 8.0625 
Q 21.484375 6.890625 26.703125 6.890625 
Q 35.15625 6.890625 40.078125 11.328125 
Q 45.015625 15.765625 45.015625 23.390625 
Q 45.015625 31 40.078125 35.4375 
Q 35.15625 39.890625 26.703125 39.890625 
Q 22.75 39.890625 18.8125 39.015625 
Q 14.890625 38.140625 10.796875 36.28125 
z
" id="DejaVuSans-53"/>
      </defs>
      <g transform="translate(254.878477 310.951846)rotate(-30)scale(0.1 -0.1)">
       <use xlink:href="#DejaVuSans-50"/>
       <use x="63.623047" xlink:href="#DejaVuSans-48"/>
       <use x="127.246094" xlink:href="#DejaVuSans-48"/>
       <use x="190.869141" xlink:href="#DejaVuSans-50"/>
       <use x="254.492188" xlink:href="#DejaVuSans-45"/>
       <use x="290.576172" xlink:href="#DejaVuSans-48"/>
       <use x="354.199219" xlink:href="#DejaVuSans-53"/>
      </g>
     </g>
    </g>
    <g id="xtick_6">
     <g id="line2d_6">
      <g>
       <use style="stroke:#000000;stroke-width:0.8;" x="348.963698" xlink:href="#ma51cbe8767" y="276.48"/>
      </g>
     </g>
     <g id="text_6">
      <!-- 2002-06 -->
      <defs>
       <path d="M 33.015625 40.375 
Q 26.375 40.375 22.484375 35.828125 
Q 18.609375 31.296875 18.609375 23.390625 
Q 18.609375 15.53125 22.484375 10.953125 
Q 26.375 6.390625 33.015625 6.390625 
Q 39.65625 6.390625 43.53125 10.953125 
Q 47.40625 15.53125 47.40625 23.390625 
Q 47.40625 31.296875 43.53125 35.828125 
Q 39.65625 40.375 33.015625 40.375 
z
M 52.59375 71.296875 
L 52.59375 62.3125 
Q 48.875 64.0625 45.09375 64.984375 
Q 41.3125 65.921875 37.59375 65.921875 
Q 27.828125 65.921875 22.671875 59.328125 
Q 17.53125 52.734375 16.796875 39.40625 
Q 19.671875 43.65625 24.015625 45.921875 
Q 28.375 48.1875 33.59375 48.1875 
Q 44.578125 48.1875 50.953125 41.515625 
Q 57.328125 34.859375 57.328125 23.390625 
Q 57.328125 12.15625 50.6875 5.359375 
Q 44.046875 -1.421875 33.015625 -1.421875 
Q 20.359375 -1.421875 13.671875 8.265625 
Q 6.984375 17.96875 6.984375 36.375 
Q 6.984375 53.65625 15.1875 63.9375 
Q 23.390625 74.21875 37.203125 74.21875 
Q 40.921875 74.21875 44.703125 73.484375 
Q 48.484375 72.75 52.59375 71.296875 
z
" id="DejaVuSans-54"/>
      </defs>
      <g transform="translate(311.738877 310.951846)rotate(-30)scale(0.1 -0.1)">
       <use xlink:href="#DejaVuSans-50"/>
       <use x="63.623047" xlink:href="#DejaVuSans-48"/>
       <use x="127.246094" xlink:href="#DejaVuSans-48"/>
       <use x="190.869141" xlink:href="#DejaVuSans-50"/>
       <use x="254.492188" xlink:href="#DejaVuSans-45"/>
       <use x="290.576172" xlink:href="#DejaVuSans-48"/>
       <use x="354.199219" xlink:href="#DejaVuSans-54"/>
      </g>
     </g>
    </g>
    <g id="xtick_7">
     <g id="line2d_7">
      <g>
       <use style="stroke:#000000;stroke-width:0.8;" x="403.989892" xlink:href="#ma51cbe8767" y="276.48"/>
      </g>
     </g>
     <g id="text_7">
      <!-- 2002-07 -->
      <defs>
       <path d="M 8.203125 72.90625 
L 55.078125 72.90625 
L 55.078125 68.703125 
L 28.609375 0 
L 18.3125 0 
L 43.21875 64.59375 
L 8.203125 64.59375 
z
" id="DejaVuSans-55"/>
      </defs>
      <g transform="translate(366.765071 310.951846)rotate(-30)scale(0.1 -0.1)">
       <use xlink:href="#DejaVuSans-50"/>
       <use x="63.623047" xlink:href="#DejaVuSans-48"/>
       <use x="127.246094" xlink:href="#DejaVuSans-48"/>
       <use x="190.869141" xlink:href="#DejaVuSans-50"/>
       <use x="254.492188" xlink:href="#DejaVuSans-45"/>
       <use x="290.576172" xlink:href="#DejaVuSans-48"/>
       <use x="354.199219" xlink:href="#DejaVuSans-55"/>
      </g>
     </g>
    </g>
   </g>
   <g id="matplotlib.axis_2">
    <g id="ytick_1">
     <g id="line2d_8">
      <defs>
       <path d="M 0 0 
L -3.5 0 
" id="m2b13041388" style="stroke:#000000;stroke-width:0.8;"/>
      </defs>
      <g>
       <use style="stroke:#000000;stroke-width:0.8;" x="57.6" xlink:href="#m2b13041388" y="251.917017"/>
      </g>
     </g>
     <g id="text_8">
      <!-- 50 -->
      <g transform="translate(37.875 255.716236)scale(0.1 -0.1)">
       <use xlink:href="#DejaVuSans-53"/>
       <use x="63.623047" xlink:href="#DejaVuSans-48"/>
      </g>
     </g>
    </g>
    <g id="ytick_2">
     <g id="line2d_9">
      <g>
       <use style="stroke:#000000;stroke-width:0.8;" x="57.6" xlink:href="#m2b13041388" y="201.624259"/>
      </g>
     </g>
     <g id="text_9">
      <!-- 55 -->
      <g transform="translate(37.875 205.423478)scale(0.1 -0.1)">
       <use xlink:href="#DejaVuSans-53"/>
       <use x="63.623047" xlink:href="#DejaVuSans-53"/>
      </g>
     </g>
    </g>
    <g id="ytick_3">
     <g id="line2d_10">
      <g>
       <use style="stroke:#000000;stroke-width:0.8;" x="57.6" xlink:href="#m2b13041388" y="151.331501"/>
      </g>
     </g>
     <g id="text_10">
      <!-- 60 -->
      <g transform="translate(37.875 155.13072)scale(0.1 -0.1)">
       <use xlink:href="#DejaVuSans-54"/>
       <use x="63.623047" xlink:href="#DejaVuSans-48"/>
      </g>
     </g>
    </g>
    <g id="ytick_4">
     <g id="line2d_11">
      <g>
       <use style="stroke:#000000;stroke-width:0.8;" x="57.6" xlink:href="#m2b13041388" y="101.038743"/>
      </g>
     </g>
     <g id="text_11">
      <!-- 65 -->
      <g transform="translate(37.875 104.837961)scale(0.1 -0.1)">
       <use xlink:href="#DejaVuSans-54"/>
       <use x="63.623047" xlink:href="#DejaVuSans-53"/>
      </g>
     </g>
    </g>
    <g id="ytick_5">
     <g id="line2d_12">
      <g>
       <use style="stroke:#000000;stroke-width:0.8;" x="57.6" xlink:href="#m2b13041388" y="50.745985"/>
      </g>
     </g>
     <g id="text_12">
      <!-- 70 -->
      <g transform="translate(37.875 54.545203)scale(0.1 -0.1)">
       <use xlink:href="#DejaVuSans-55"/>
       <use x="63.623047" xlink:href="#DejaVuSans-48"/>
      </g>
     </g>
    </g>
   </g>
   <g id="line2d_13">
    <path clip-path="url(#p4bae872001)" d="M 73.832727 80.519297 
L 75.666934 58.491069 
L 77.50114 61.810391 
L 83.00376 65.230299 
L 84.837966 56.982287 
L 86.672173 63.721516 
L 88.506379 57.988142 
L 90.340586 64.727371 
L 95.843205 66.135569 
L 97.677411 55.272333 
L 99.511618 72.1707 
L 101.345824 52.154182 
L 103.180031 89.974336 
L 110.516857 106.470361 
L 112.351063 113.712518 
L 114.18527 105.062163 
L 116.019476 113.109005 
L 121.522096 112.907834 
L 123.356302 127.995661 
L 125.190508 122.664629 
L 127.024715 114.014274 
L 128.858921 124.575753 
L 134.361541 140.065923 
L 136.195747 139.764166 
L 138.029954 147.30808 
L 139.86416 153.343211 
L 141.698367 144.793442 
L 147.200986 139.965337 
L 149.035193 149.923304 
L 150.869399 133.024937 
L 152.703606 134.433134 
L 154.537812 149.018034 
L 161.874638 162.094151 
L 163.708844 152.337356 
L 165.543051 170.945676 
L 167.377257 171.54919 
L 172.879877 160.585368 
L 174.714083 165.916401 
L 176.54829 167.525769 
L 178.382496 168.028696 
L 180.216703 137.551285 
L 185.719322 118.13828 
L 187.553529 120.351162 
L 189.387735 114.818958 
L 191.221941 123.97224 
L 193.056148 111.600222 
L 198.558767 107.677387 
L 200.392974 125.78278 
L 202.22718 130.208542 
L 204.061387 139.060068 
L 205.895593 126.285707 
L 211.398213 129.8062 
L 213.232419 128.900931 
L 215.066626 150.325646 
L 216.900832 137.651871 
L 218.735039 146.805153 
L 224.237658 159.076586 
L 226.071864 160.585368 
L 227.906071 156.96429 
L 229.740277 148.21335 
L 237.077103 147.509251 
L 238.91131 178.690761 
L 240.745516 188.246385 
L 242.579723 187.039359 
L 244.413929 192.873319 
L 249.916549 179.294274 
L 251.750755 202.931871 
L 253.584961 188.548142 
L 255.419168 203.736555 
L 257.253374 192.269806 
L 262.755994 194.683858 
L 264.5902 173.359729 
L 266.424407 185.22882 
L 268.258613 187.844043 
L 270.09282 179.495445 
L 275.595439 195.689713 
L 277.429646 211.783396 
L 279.263852 221.540191 
L 281.098059 214.398619 
L 282.932265 236.82919 
L 288.434884 229.385861 
L 290.269091 229.18469 
L 292.103297 224.256 
L 293.937504 239.746169 
L 295.77171 256.34278 
L 301.27433 265.797818 
L 303.108536 257.248049 
L 304.942743 201.926015 
L 306.776949 230.592888 
L 308.611156 251.414089 
L 314.113775 224.859513 
L 315.947982 202.831285 
L 317.782188 204.138897 
L 319.616394 194.180931 
L 321.450601 191.263951 
L 326.95322 211.582225 
L 328.787427 229.888789 
L 330.621633 214.800961 
L 332.45584 203.434798 
L 334.290046 219.126139 
L 341.626872 228.581177 
L 343.461079 231.296986 
L 345.295285 225.362441 
L 347.129492 242.763735 
L 352.632111 257.750977 
L 354.466317 252.118188 
L 356.300524 235.219821 
L 358.13473 232.805769 
L 359.968937 232.001085 
L 365.471556 223.551901 
L 367.305763 226.066539 
L 369.139969 196.192641 
L 370.974176 209.469929 
L 372.808382 199.109621 
L 378.311002 194.784444 
L 380.145208 191.666293 
L 381.979414 208.061732 
L 383.813621 210.676955 
L 385.647827 228.983519 
L 391.150447 210.073442 
L 392.984653 222.24429 
L 394.81886 210.375199 
L 396.653066 202.428943 
L 398.487273 204.641824 
" style="fill:none;stroke:#1f77b4;stroke-linecap:square;stroke-width:1.5;"/>
   </g>
   <g id="line2d_14">
    <path clip-path="url(#p4bae872001)" d="M 73.832727 84.670126 
L 75.666934 83.76821 
L 77.50114 82.594712 
L 83.00376 81.082576 
L 84.837966 79.516795 
L 86.672173 78.319827 
L 88.506379 76.462348 
L 90.340586 74.514342 
L 95.843205 73.297257 
L 97.677411 71.506835 
L 99.511618 70.467451 
L 101.345824 69.173251 
L 103.180031 69.843821 
L 110.516857 71.248666 
L 112.351063 72.619982 
L 114.18527 73.444783 
L 116.019476 74.624986 
L 121.522096 76.009713 
L 123.356302 77.334089 
L 125.190508 78.873048 
L 127.024715 80.64 
L 128.858921 82.856234 
L 134.361541 85.66257 
L 136.195747 87.543519 
L 138.029954 89.937455 
L 139.86416 92.442034 
L 141.698367 94.799088 
L 147.200986 97.052203 
L 149.035193 99.643957 
L 150.869399 101.12927 
L 152.703606 102.926398 
L 154.537812 105.943963 
L 161.874638 109.286755 
L 163.708844 112.190324 
L 165.543051 115.989103 
L 167.377257 119.583359 
L 172.879877 123.003267 
L 174.714083 126.376234 
L 176.54829 129.755908 
L 178.382496 133.514453 
L 180.216703 135.693806 
L 185.719322 137.893276 
L 187.553529 138.905837 
L 189.387735 139.184123 
L 191.221941 139.526114 
L 193.056148 139.744049 
L 198.558767 139.562995 
L 200.392974 139.99216 
L 202.22718 140.065923 
L 204.061387 140.612438 
L 205.895593 141.021485 
L 211.398213 141.195834 
L 213.232419 140.823667 
L 215.066626 141.175716 
L 216.900832 140.853843 
L 218.735039 140.635908 
L 224.237658 141.112012 
L 226.071864 141.799347 
L 227.906071 142.034046 
L 229.740277 142.540327 
L 237.077103 142.976197 
L 238.91131 143.965288 
L 240.745516 144.837029 
L 242.579723 145.993763 
L 244.413929 146.724684 
L 249.916549 146.982854 
L 251.750755 148.394404 
L 253.584961 149.148795 
L 255.419168 150.355821 
L 257.253374 151.163858 
L 262.755994 153.068277 
L 264.5902 154.908992 
L 266.424407 157.071581 
L 268.258613 159.50575 
L 270.09282 161.356524 
L 275.595439 164.159507 
L 277.429646 167.629707 
L 279.263852 170.821621 
L 281.098059 173.627957 
L 282.932265 176.886928 
L 288.434884 180.323599 
L 290.269091 183.636216 
L 292.103297 186.814718 
L 293.937504 189.795402 
L 295.77171 193.751766 
L 301.27433 197.718188 
L 303.108536 200.99057 
L 304.942743 202.368592 
L 306.776949 204.822878 
L 308.611156 208.262903 
L 314.113775 210.841245 
L 315.947982 211.645929 
L 317.782188 212.17568 
L 319.616394 212.413732 
L 321.450601 212.360086 
L 326.95322 213.436351 
L 328.787427 214.334915 
L 330.621633 215.210009 
L 332.45584 215.199951 
L 334.290046 216.095162 
L 341.626872 217.225072 
L 343.461079 219.156314 
L 345.295285 220.494102 
L 347.129492 222.324758 
L 352.632111 224.933276 
L 354.466317 226.814225 
L 356.300524 227.595439 
L 358.13473 227.970958 
L 359.968937 228.557707 
L 365.471556 228.115131 
L 367.305763 228.004487 
L 369.139969 226.904752 
L 370.974176 226.411883 
L 372.808382 225.057331 
L 378.311002 223.005387 
L 380.145208 220.534336 
L 381.979414 218.894792 
L 383.813621 219.18649 
L 385.647827 219.132844 
L 391.150447 217.754823 
L 392.984653 217.667649 
L 394.81886 217.919112 
L 396.653066 217.862114 
L 398.487273 218.21081 
" style="fill:none;stroke:#ff7f0e;stroke-linecap:square;stroke-width:1.5;"/>
   </g>
   <g id="line2d_15">
    <path clip-path="url(#p4bae872001)" d="M 73.832727 139.731756 
L 75.666934 139.001952 
L 77.50114 138.094447 
L 83.00376 137.21153 
L 84.837966 136.064855 
L 86.672173 135.320522 
L 88.506379 134.541543 
L 90.340586 133.661978 
L 95.843205 132.743297 
L 97.677411 131.333983 
L 99.511618 130.124721 
L 101.345824 128.58688 
L 103.180031 127.652553 
L 110.516857 126.709284 
L 112.351063 125.777192 
L 114.18527 124.992625 
L 116.019476 123.77554 
L 121.522096 122.713804 
L 123.356302 121.769418 
L 125.190508 120.418219 
L 127.024715 118.853555 
L 128.858921 117.663293 
L 134.361541 116.565794 
L 136.195747 115.349826 
L 138.029954 114.183034 
L 139.86416 113.218531 
L 141.698367 112.228323 
L 147.200986 111.325288 
L 149.035193 110.8883 
L 150.869399 110.287022 
L 152.703606 109.844446 
L 154.537812 109.599688 
L 161.874638 109.111289 
L 163.708844 108.620655 
L 165.543051 108.427308 
L 167.377257 108.247371 
L 172.879877 108.133374 
L 174.714083 108.122198 
L 176.54829 107.858441 
L 178.382496 107.68074 
L 180.216703 107.292927 
L 185.719322 106.941995 
L 187.553529 106.645826 
L 189.387735 106.387657 
L 191.221941 106.369775 
L 193.056148 106.174192 
L 198.558767 105.648912 
L 200.392974 105.239864 
L 202.22718 104.798406 
L 204.061387 104.867698 
L 205.895593 104.745878 
L 211.398213 104.872168 
L 213.232419 105.157161 
L 215.066626 105.620972 
L 216.900832 105.962963 
L 218.735039 106.494948 
L 224.237658 107.228105 
L 226.071864 108.213843 
L 227.906071 108.941411 
L 229.740277 109.590747 
L 237.077103 110.190907 
L 238.91131 111.22582 
L 240.745516 112.239499 
L 242.579723 113.088888 
L 244.413929 114.076861 
L 249.916549 114.962013 
L 251.750755 115.953339 
L 253.584961 116.67979 
L 255.419168 117.802995 
L 257.253374 118.728382 
L 262.755994 119.743178 
L 264.5902 120.658506 
L 266.424407 121.940413 
L 268.258613 123.312846 
L 270.09282 124.500873 
L 275.595439 125.78278 
L 277.429646 127.272563 
L 279.263852 128.941165 
L 281.098059 130.342656 
L 282.932265 132.124138 
L 288.434884 133.995028 
L 290.269091 135.896095 
L 292.103297 137.766985 
L 293.937504 139.504879 
L 295.77171 141.514354 
L 301.27433 143.59871 
L 303.108536 145.63389 
L 304.942743 147.073381 
L 306.776949 148.833627 
L 308.611156 150.644166 
L 314.113775 152.247947 
L 315.947982 153.851727 
L 317.782188 155.433155 
L 319.616394 156.865939 
L 321.450601 158.357958 
L 326.95322 160.000855 
L 328.787427 161.910862 
L 330.621633 163.578346 
L 332.45584 165.103893 
L 334.290046 166.924491 
L 341.626872 168.662385 
L 343.461079 170.652861 
L 345.295285 172.157173 
L 347.129492 173.671544 
L 352.632111 175.271971 
L 354.466317 176.905927 
L 356.300524 178.262714 
L 358.13473 179.594913 
L 359.968937 180.750529 
L 365.471556 181.871499 
L 367.305763 183.116524 
L 369.139969 183.912267 
L 370.974176 184.683423 
L 372.808382 185.342817 
L 378.311002 185.870332 
L 380.145208 186.296144 
L 381.979414 186.999125 
L 383.813621 187.784809 
L 385.647827 188.663256 
L 391.150447 189.519351 
L 392.984653 190.49503 
L 394.81886 191.176777 
L 396.653066 191.624941 
L 398.487273 192.206102 
" style="fill:none;stroke:#2ca02c;stroke-linecap:square;stroke-width:1.5;"/>
   </g>
   <g id="patch_3">
    <path d="M 57.6 276.48 
L 57.6 41.472 
" style="fill:none;stroke:#000000;stroke-linecap:square;stroke-linejoin:miter;stroke-width:0.8;"/>
   </g>
   <g id="patch_4">
    <path d="M 414.72 276.48 
L 414.72 41.472 
" style="fill:none;stroke:#000000;stroke-linecap:square;stroke-linejoin:miter;stroke-width:0.8;"/>
   </g>
   <g id="patch_5">
    <path d="M 57.6 276.48 
L 414.72 276.48 
" style="fill:none;stroke:#000000;stroke-linecap:square;stroke-linejoin:miter;stroke-width:0.8;"/>
   </g>
   <g id="patch_6">
    <path d="M 57.6 41.472 
L 414.72 41.472 
" style="fill:none;stroke:#000000;stroke-linecap:square;stroke-linejoin:miter;stroke-width:0.8;"/>
   </g>
   <g id="legend_1">
    <g id="patch_7">
     <path d="M 347.52625 93.506375 
L 407.72 93.506375 
Q 409.72 93.506375 409.72 91.506375 
L 409.72 48.472 
Q 409.72 46.472 407.72 46.472 
L 347.52625 46.472 
Q 345.52625 46.472 345.52625 48.472 
L 345.52625 91.506375 
Q 345.52625 93.506375 347.52625 93.506375 
z
" style="fill:#ffffff;opacity:0.8;stroke:#cccccc;stroke-linejoin:miter;"/>
    </g>
    <g id="line2d_16">
     <path d="M 349.52625 54.570437 
L 369.52625 54.570437 
" style="fill:none;stroke:#1f77b4;stroke-linecap:square;stroke-width:1.5;"/>
    </g>
    <g id="line2d_17"/>
    <g id="text_13">
     <!-- close -->
     <defs>
      <path d="M 48.78125 52.59375 
L 48.78125 44.1875 
Q 44.96875 46.296875 41.140625 47.34375 
Q 37.3125 48.390625 33.40625 48.390625 
Q 24.65625 48.390625 19.8125 42.84375 
Q 14.984375 37.3125 14.984375 27.296875 
Q 14.984375 17.28125 19.8125 11.734375 
Q 24.65625 6.203125 33.40625 6.203125 
Q 37.3125 6.203125 41.140625 7.25 
Q 44.96875 8.296875 48.78125 10.40625 
L 48.78125 2.09375 
Q 45.015625 0.34375 40.984375 -0.53125 
Q 36.96875 -1.421875 32.421875 -1.421875 
Q 20.0625 -1.421875 12.78125 6.34375 
Q 5.515625 14.109375 5.515625 27.296875 
Q 5.515625 40.671875 12.859375 48.328125 
Q 20.21875 56 33.015625 56 
Q 37.15625 56 41.109375 55.140625 
Q 45.0625 54.296875 48.78125 52.59375 
z
" id="DejaVuSans-99"/>
      <path d="M 9.421875 75.984375 
L 18.40625 75.984375 
L 18.40625 0 
L 9.421875 0 
z
" id="DejaVuSans-108"/>
      <path d="M 30.609375 48.390625 
Q 23.390625 48.390625 19.1875 42.75 
Q 14.984375 37.109375 14.984375 27.296875 
Q 14.984375 17.484375 19.15625 11.84375 
Q 23.34375 6.203125 30.609375 6.203125 
Q 37.796875 6.203125 41.984375 11.859375 
Q 46.1875 17.53125 46.1875 27.296875 
Q 46.1875 37.015625 41.984375 42.703125 
Q 37.796875 48.390625 30.609375 48.390625 
z
M 30.609375 56 
Q 42.328125 56 49.015625 48.375 
Q 55.71875 40.765625 55.71875 27.296875 
Q 55.71875 13.875 49.015625 6.21875 
Q 42.328125 -1.421875 30.609375 -1.421875 
Q 18.84375 -1.421875 12.171875 6.21875 
Q 5.515625 13.875 5.515625 27.296875 
Q 5.515625 40.765625 12.171875 48.375 
Q 18.84375 56 30.609375 56 
z
" id="DejaVuSans-111"/>
      <path d="M 44.28125 53.078125 
L 44.28125 44.578125 
Q 40.484375 46.53125 36.375 47.5 
Q 32.28125 48.484375 27.875 48.484375 
Q 21.1875 48.484375 17.84375 46.4375 
Q 14.5 44.390625 14.5 40.28125 
Q 14.5 37.15625 16.890625 35.375 
Q 19.28125 33.59375 26.515625 31.984375 
L 29.59375 31.296875 
Q 39.15625 29.25 43.1875 25.515625 
Q 47.21875 21.78125 47.21875 15.09375 
Q 47.21875 7.46875 41.1875 3.015625 
Q 35.15625 -1.421875 24.609375 -1.421875 
Q 20.21875 -1.421875 15.453125 -0.5625 
Q 10.6875 0.296875 5.421875 2 
L 5.421875 11.28125 
Q 10.40625 8.6875 15.234375 7.390625 
Q 20.0625 6.109375 24.8125 6.109375 
Q 31.15625 6.109375 34.5625 8.28125 
Q 37.984375 10.453125 37.984375 14.40625 
Q 37.984375 18.0625 35.515625 20.015625 
Q 33.0625 21.96875 24.703125 23.78125 
L 21.578125 24.515625 
Q 13.234375 26.265625 9.515625 29.90625 
Q 5.8125 33.546875 5.8125 39.890625 
Q 5.8125 47.609375 11.28125 51.796875 
Q 16.75 56 26.8125 56 
Q 31.78125 56 36.171875 55.265625 
Q 40.578125 54.546875 44.28125 53.078125 
z
" id="DejaVuSans-115"/>
      <path d="M 56.203125 29.59375 
L 56.203125 25.203125 
L 14.890625 25.203125 
Q 15.484375 15.921875 20.484375 11.0625 
Q 25.484375 6.203125 34.421875 6.203125 
Q 39.59375 6.203125 44.453125 7.46875 
Q 49.3125 8.734375 54.109375 11.28125 
L 54.109375 2.78125 
Q 49.265625 0.734375 44.1875 -0.34375 
Q 39.109375 -1.421875 33.890625 -1.421875 
Q 20.796875 -1.421875 13.15625 6.1875 
Q 5.515625 13.8125 5.515625 26.8125 
Q 5.515625 40.234375 12.765625 48.109375 
Q 20.015625 56 32.328125 56 
Q 43.359375 56 49.78125 48.890625 
Q 56.203125 41.796875 56.203125 29.59375 
z
M 47.21875 32.234375 
Q 47.125 39.59375 43.09375 43.984375 
Q 39.0625 48.390625 32.421875 48.390625 
Q 24.90625 48.390625 20.390625 44.140625 
Q 15.875 39.890625 15.1875 32.171875 
z
" id="DejaVuSans-101"/>
     </defs>
     <g transform="translate(377.52625 58.070437)scale(0.1 -0.1)">
      <use xlink:href="#DejaVuSans-99"/>
      <use x="54.980469" xlink:href="#DejaVuSans-108"/>
      <use x="82.763672" xlink:href="#DejaVuSans-111"/>
      <use x="143.945312" xlink:href="#DejaVuSans-115"/>
      <use x="196.044922" xlink:href="#DejaVuSans-101"/>
     </g>
    </g>
    <g id="line2d_18">
     <path d="M 349.52625 69.248562 
L 369.52625 69.248562 
" style="fill:none;stroke:#ff7f0e;stroke-linecap:square;stroke-width:1.5;"/>
    </g>
    <g id="line2d_19"/>
    <g id="text_14">
     <!-- MA30 -->
     <defs>
      <path d="M 9.8125 72.90625 
L 24.515625 72.90625 
L 43.109375 23.296875 
L 61.8125 72.90625 
L 76.515625 72.90625 
L 76.515625 0 
L 66.890625 0 
L 66.890625 64.015625 
L 48.09375 14.015625 
L 38.1875 14.015625 
L 19.390625 64.015625 
L 19.390625 0 
L 9.8125 0 
z
" id="DejaVuSans-77"/>
      <path d="M 34.1875 63.1875 
L 20.796875 26.90625 
L 47.609375 26.90625 
z
M 28.609375 72.90625 
L 39.796875 72.90625 
L 67.578125 0 
L 57.328125 0 
L 50.6875 18.703125 
L 17.828125 18.703125 
L 11.1875 0 
L 0.78125 0 
z
" id="DejaVuSans-65"/>
     </defs>
     <g transform="translate(377.52625 72.748562)scale(0.1 -0.1)">
      <use xlink:href="#DejaVuSans-77"/>
      <use x="86.279297" xlink:href="#DejaVuSans-65"/>
      <use x="154.6875" xlink:href="#DejaVuSans-51"/>
      <use x="218.310547" xlink:href="#DejaVuSans-48"/>
     </g>
    </g>
    <g id="line2d_20">
     <path d="M 349.52625 83.926687 
L 369.52625 83.926687 
" style="fill:none;stroke:#2ca02c;stroke-linecap:square;stroke-width:1.5;"/>
    </g>
    <g id="line2d_21"/>
    <g id="text_15">
     <!-- MA90 -->
     <defs>
      <path d="M 10.984375 1.515625 
L 10.984375 10.5 
Q 14.703125 8.734375 18.5 7.8125 
Q 22.3125 6.890625 25.984375 6.890625 
Q 35.75 6.890625 40.890625 13.453125 
Q 46.046875 20.015625 46.78125 33.40625 
Q 43.953125 29.203125 39.59375 26.953125 
Q 35.25 24.703125 29.984375 24.703125 
Q 19.046875 24.703125 12.671875 31.3125 
Q 6.296875 37.9375 6.296875 49.421875 
Q 6.296875 60.640625 12.9375 67.421875 
Q 19.578125 74.21875 30.609375 74.21875 
Q 43.265625 74.21875 49.921875 64.515625 
Q 56.59375 54.828125 56.59375 36.375 
Q 56.59375 19.140625 48.40625 8.859375 
Q 40.234375 -1.421875 26.421875 -1.421875 
Q 22.703125 -1.421875 18.890625 -0.6875 
Q 15.09375 0.046875 10.984375 1.515625 
z
M 30.609375 32.421875 
Q 37.25 32.421875 41.125 36.953125 
Q 45.015625 41.5 45.015625 49.421875 
Q 45.015625 57.28125 41.125 61.84375 
Q 37.25 66.40625 30.609375 66.40625 
Q 23.96875 66.40625 20.09375 61.84375 
Q 16.21875 57.28125 16.21875 49.421875 
Q 16.21875 41.5 20.09375 36.953125 
Q 23.96875 32.421875 30.609375 32.421875 
z
" id="DejaVuSans-57"/>
     </defs>
     <g transform="translate(377.52625 87.426687)scale(0.1 -0.1)">
      <use xlink:href="#DejaVuSans-77"/>
      <use x="86.279297" xlink:href="#DejaVuSans-65"/>
      <use x="154.6875" xlink:href="#DejaVuSans-57"/>
      <use x="218.310547" xlink:href="#DejaVuSans-48"/>
     </g>
    </g>
   </g>
  </g>
 </g>
 <defs>
  <clipPath id="p4bae872001">
   <rect height="235.008" width="357.12" x="57.6" y="41.472"/>
  </clipPath>
 </defs>
</svg>
