<?xml version="1.0" encoding="utf-8" standalone="no"?>
<!DOCTYPE svg PUBLIC "-//W3C//DTD SVG 1.1//EN"
  "http://www.w3.org/Graphics/SVG/1.1/DTD/svg11.dtd">
<!-- Created with matplotlib (https://matplotlib.org/) -->
<svg height="576pt" version="1.1" viewBox="0 0 864 576" width="864pt" xmlns="http://www.w3.org/2000/svg" xmlns:xlink="http://www.w3.org/1999/xlink">
 <defs>
  <style type="text/css">
*{stroke-linecap:butt;stroke-linejoin:round;}
  </style>
 </defs>
 <g id="figure_1">
  <g id="patch_1">
   <path d="M 0 576 
L 864 576 
L 864 0 
L 0 0 
z
" style="fill:#ffffff;"/>
  </g>
  <g id="axes_1">
   <g id="patch_2">
    <path d="M 108 512.64 
L 777.6 512.64 
L 777.6 69.12 
L 108 69.12 
z
" style="fill:#ffffff;"/>
   </g>
   <g id="PathCollection_1">
    <defs>
     <path d="M 0 3 
C 0.795609 3 1.55874 2.683901 2.12132 2.12132 
C 2.683901 1.55874 3 0.795609 3 0 
C 3 -0.795609 2.683901 -1.55874 2.12132 -2.12132 
C 1.55874 -2.683901 0.795609 -3 0 -3 
C -0.795609 -3 -1.55874 -2.683901 -2.12132 -2.12132 
C -2.683901 -1.55874 -3 -0.795609 -3 0 
C -3 0.795609 -2.683901 1.55874 -2.12132 2.12132 
C -1.55874 2.683901 -0.795609 3 0 3 
z
" id="me02c862f48" style="stroke:#1f77b4;"/>
    </defs>
    <g clip-path="url(#p5eff0033b8)">
     <use style="fill:#1f77b4;stroke:#1f77b4;" x="461.84812" xlink:href="#me02c862f48" y="306.920465"/>
     <use style="fill:#1f77b4;stroke:#1f77b4;" x="534.88962" xlink:href="#me02c862f48" y="325.013907"/>
     <use style="fill:#1f77b4;stroke:#1f77b4;" x="742.644677" xlink:href="#me02c862f48" y="279.895756"/>
     <use style="fill:#1f77b4;stroke:#1f77b4;" x="233.448659" xlink:href="#me02c862f48" y="384.472861"/>
     <use style="fill:#1f77b4;stroke:#1f77b4;" x="491.548011" xlink:href="#me02c862f48" y="372.389394"/>
     <use style="fill:#1f77b4;stroke:#1f77b4;" x="442.338103" xlink:href="#me02c862f48" y="293.807686"/>
     <use style="fill:#1f77b4;stroke:#1f77b4;" x="423.824305" xlink:href="#me02c862f48" y="298.789733"/>
     <use style="fill:#1f77b4;stroke:#1f77b4;" x="405.391708" xlink:href="#me02c862f48" y="298.818058"/>
     <use style="fill:#1f77b4;stroke:#1f77b4;" x="423.824305" xlink:href="#me02c862f48" y="308.880251"/>
     <use style="fill:#1f77b4;stroke:#1f77b4;" x="423.824305" xlink:href="#me02c862f48" y="278.666882"/>
     <use style="fill:#1f77b4;stroke:#1f77b4;" x="386.796709" xlink:href="#me02c862f48" y="462.327468"/>
     <use style="fill:#1f77b4;stroke:#1f77b4;" x="479.859401" xlink:href="#me02c862f48" y="285.815428"/>
     <use style="fill:#1f77b4;stroke:#1f77b4;" x="571.285083" xlink:href="#me02c862f48" y="266.613492"/>
     <use style="fill:#1f77b4;stroke:#1f77b4;" x="333.004711" xlink:href="#me02c862f48" y="307.589915"/>
     <use style="fill:#1f77b4;stroke:#1f77b4;" x="363.760701" xlink:href="#me02c862f48" y="212.037469"/>
     <use style="fill:#1f77b4;stroke:#1f77b4;" x="440.442798" xlink:href="#me02c862f48" y="330.748808"/>
     <use style="fill:#1f77b4;stroke:#1f77b4;" x="379.682873" xlink:href="#me02c862f48" y="323.505285"/>
     <use style="fill:#1f77b4;stroke:#1f77b4;" x="431.259302" xlink:href="#me02c862f48" y="334.943526"/>
     <use style="fill:#1f77b4;stroke:#1f77b4;" x="427.535239" xlink:href="#me02c862f48" y="274.593889"/>
     <use style="fill:#1f77b4;stroke:#1f77b4;" x="407.139837" xlink:href="#me02c862f48" y="280.263293"/>
     <use style="fill:#1f77b4;stroke:#1f77b4;" x="384.738709" xlink:href="#me02c862f48" y="261.080854"/>
     <use style="fill:#1f77b4;stroke:#1f77b4;" x="423.824305" xlink:href="#me02c862f48" y="299.444494"/>
     <use style="fill:#1f77b4;stroke:#1f77b4;" x="376.857025" xlink:href="#me02c862f48" y="326.666865"/>
     <use style="fill:#1f77b4;stroke:#1f77b4;" x="389.625671" xlink:href="#me02c862f48" y="249.795531"/>
     <use style="fill:#1f77b4;stroke:#1f77b4;" x="458.303512" xlink:href="#me02c862f48" y="304.878489"/>
     <use style="fill:#1f77b4;stroke:#1f77b4;" x="439.023698" xlink:href="#me02c862f48" y="340.46408"/>
     <use style="fill:#1f77b4;stroke:#1f77b4;" x="404.893529" xlink:href="#me02c862f48" y="271.723051"/>
     <use style="fill:#1f77b4;stroke:#1f77b4;" x="385.791435" xlink:href="#me02c862f48" y="294.093631"/>
     <use style="fill:#1f77b4;stroke:#1f77b4;" x="398.877173" xlink:href="#me02c862f48" y="324.635339"/>
     <use style="fill:#1f77b4;stroke:#1f77b4;" x="385.214914" xlink:href="#me02c862f48" y="328.030192"/>
     <use style="fill:#1f77b4;stroke:#1f77b4;" x="388.753661" xlink:href="#me02c862f48" y="179.110956"/>
     <use style="fill:#1f77b4;stroke:#1f77b4;" x="406.141421" xlink:href="#me02c862f48" y="332.160811"/>
     <use style="fill:#1f77b4;stroke:#1f77b4;" x="394.228304" xlink:href="#me02c862f48" y="349.70282"/>
     <use style="fill:#1f77b4;stroke:#1f77b4;" x="364.212501" xlink:href="#me02c862f48" y="265.539237"/>
     <use style="fill:#1f77b4;stroke:#1f77b4;" x="355.292174" xlink:href="#me02c862f48" y="271.526787"/>
     <use style="fill:#1f77b4;stroke:#1f77b4;" x="395.137396" xlink:href="#me02c862f48" y="271.723051"/>
     <use style="fill:#1f77b4;stroke:#1f77b4;" x="448.582079" xlink:href="#me02c862f48" y="288.549088"/>
     <use style="fill:#1f77b4;stroke:#1f77b4;" x="626.87974" xlink:href="#me02c862f48" y="252.56392"/>
     <use style="fill:#1f77b4;stroke:#1f77b4;" x="415.998174" xlink:href="#me02c862f48" y="237.018354"/>
     <use style="fill:#1f77b4;stroke:#1f77b4;" x="537.514914" xlink:href="#me02c862f48" y="330.95965"/>
     <use style="fill:#1f77b4;stroke:#1f77b4;" x="410.464439" xlink:href="#me02c862f48" y="229.298881"/>
     <use style="fill:#1f77b4;stroke:#1f77b4;" x="360.641224" xlink:href="#me02c862f48" y="307.008895"/>
     <use style="fill:#1f77b4;stroke:#1f77b4;" x="390.778631" xlink:href="#me02c862f48" y="341.395972"/>
     <use style="fill:#1f77b4;stroke:#1f77b4;" x="419.905767" xlink:href="#me02c862f48" y="258.873271"/>
     <use style="fill:#1f77b4;stroke:#1f77b4;" x="553.256747" xlink:href="#me02c862f48" y="288.661024"/>
     <use style="fill:#1f77b4;stroke:#1f77b4;" x="328.699086" xlink:href="#me02c862f48" y="272.72404"/>
     <use style="fill:#1f77b4;stroke:#1f77b4;" x="425.770869" xlink:href="#me02c862f48" y="291.32136"/>
     <use style="fill:#1f77b4;stroke:#1f77b4;" x="575.586023" xlink:href="#me02c862f48" y="280.793373"/>
     <use style="fill:#1f77b4;stroke:#1f77b4;" x="474.526302" xlink:href="#me02c862f48" y="314.88383"/>
     <use style="fill:#1f77b4;stroke:#1f77b4;" x="383.004037" xlink:href="#me02c862f48" y="304.569546"/>
     <use style="fill:#1f77b4;stroke:#1f77b4;" x="641.169527" xlink:href="#me02c862f48" y="267.313715"/>
     <use style="fill:#1f77b4;stroke:#1f77b4;" x="347.218462" xlink:href="#me02c862f48" y="325.582936"/>
     <use style="fill:#1f77b4;stroke:#1f77b4;" x="412.936657" xlink:href="#me02c862f48" y="344.961236"/>
     <use style="fill:#1f77b4;stroke:#1f77b4;" x="405.631092" xlink:href="#me02c862f48" y="307.862192"/>
     <use style="fill:#1f77b4;stroke:#1f77b4;" x="411.033685" xlink:href="#me02c862f48" y="371.943376"/>
     <use style="fill:#1f77b4;stroke:#1f77b4;" x="354.177544" xlink:href="#me02c862f48" y="259.44024"/>
     <use style="fill:#1f77b4;stroke:#1f77b4;" x="302.684131" xlink:href="#me02c862f48" y="299.878197"/>
     <use style="fill:#1f77b4;stroke:#1f77b4;" x="362.415981" xlink:href="#me02c862f48" y="291.32136"/>
     <use style="fill:#1f77b4;stroke:#1f77b4;" x="421.876839" xlink:href="#me02c862f48" y="256.945196"/>
     <use style="fill:#1f77b4;stroke:#1f77b4;" x="375.115077" xlink:href="#me02c862f48" y="313.847051"/>
     <use style="fill:#1f77b4;stroke:#1f77b4;" x="408.054578" xlink:href="#me02c862f48" y="291.32136"/>
     <use style="fill:#1f77b4;stroke:#1f77b4;" x="382.272857" xlink:href="#me02c862f48" y="322.651221"/>
     <use style="fill:#1f77b4;stroke:#1f77b4;" x="343.888363" xlink:href="#me02c862f48" y="279.745199"/>
     <use style="fill:#1f77b4;stroke:#1f77b4;" x="413.638575" xlink:href="#me02c862f48" y="282.68979"/>
     <use style="fill:#1f77b4;stroke:#1f77b4;" x="374.814017" xlink:href="#me02c862f48" y="285.591999"/>
     <use style="fill:#1f77b4;stroke:#1f77b4;" x="403.162397" xlink:href="#me02c862f48" y="288.464959"/>
     <use style="fill:#1f77b4;stroke:#1f77b4;" x="342.844732" xlink:href="#me02c862f48" y="302.730476"/>
     <use style="fill:#1f77b4;stroke:#1f77b4;" x="290.441017" xlink:href="#me02c862f48" y="489.271186"/>
     <use style="fill:#1f77b4;stroke:#1f77b4;" x="408.518152" xlink:href="#me02c862f48" y="294.509472"/>
     <use style="fill:#1f77b4;stroke:#1f77b4;" x="353.597553" xlink:href="#me02c862f48" y="313.674196"/>
     <use style="fill:#1f77b4;stroke:#1f77b4;" x="468.461928" xlink:href="#me02c862f48" y="333.308586"/>
     <use style="fill:#1f77b4;stroke:#1f77b4;" x="384.072661" xlink:href="#me02c862f48" y="301.221006"/>
     <use style="fill:#1f77b4;stroke:#1f77b4;" x="423.824305" xlink:href="#me02c862f48" y="307.903821"/>
     <use style="fill:#1f77b4;stroke:#1f77b4;" x="432.742357" xlink:href="#me02c862f48" y="334.800518"/>
     <use style="fill:#1f77b4;stroke:#1f77b4;" x="454.971394" xlink:href="#me02c862f48" y="318.679552"/>
     <use style="fill:#1f77b4;stroke:#1f77b4;" x="549.704512" xlink:href="#me02c862f48" y="235.837025"/>
     <use style="fill:#1f77b4;stroke:#1f77b4;" x="316.614301" xlink:href="#me02c862f48" y="412.752519"/>
     <use style="fill:#1f77b4;stroke:#1f77b4;" x="478.83258" xlink:href="#me02c862f48" y="237.413284"/>
     <use style="fill:#1f77b4;stroke:#1f77b4;" x="393.417664" xlink:href="#me02c862f48" y="273.829064"/>
     <use style="fill:#1f77b4;stroke:#1f77b4;" x="395.383796" xlink:href="#me02c862f48" y="409.225571"/>
     <use style="fill:#1f77b4;stroke:#1f77b4;" x="415.013755" xlink:href="#me02c862f48" y="306.072326"/>
     <use style="fill:#1f77b4;stroke:#1f77b4;" x="379.679009" xlink:href="#me02c862f48" y="254.166671"/>
     <use style="fill:#1f77b4;stroke:#1f77b4;" x="401.51734" xlink:href="#me02c862f48" y="262.146018"/>
     <use style="fill:#1f77b4;stroke:#1f77b4;" x="430.552105" xlink:href="#me02c862f48" y="356.01105"/>
     <use style="fill:#1f77b4;stroke:#1f77b4;" x="488.755756" xlink:href="#me02c862f48" y="235.589327"/>
     <use style="fill:#1f77b4;stroke:#1f77b4;" x="355.470896" xlink:href="#me02c862f48" y="273.253449"/>
     <use style="fill:#1f77b4;stroke:#1f77b4;" x="352.099383" xlink:href="#me02c862f48" y="294.90221"/>
     <use style="fill:#1f77b4;stroke:#1f77b4;" x="364.535951" xlink:href="#me02c862f48" y="294.908709"/>
     <use style="fill:#1f77b4;stroke:#1f77b4;" x="375.252332" xlink:href="#me02c862f48" y="302.102975"/>
     <use style="fill:#1f77b4;stroke:#1f77b4;" x="372.344401" xlink:href="#me02c862f48" y="309.38927"/>
     <use style="fill:#1f77b4;stroke:#1f77b4;" x="464.097556" xlink:href="#me02c862f48" y="258.4991"/>
     <use style="fill:#1f77b4;stroke:#1f77b4;" x="520.031965" xlink:href="#me02c862f48" y="259.035217"/>
     <use style="fill:#1f77b4;stroke:#1f77b4;" x="499.526741" xlink:href="#me02c862f48" y="220.727452"/>
     <use style="fill:#1f77b4;stroke:#1f77b4;" x="412.557195" xlink:href="#me02c862f48" y="284.505396"/>
     <use style="fill:#1f77b4;stroke:#1f77b4;" x="378.634712" xlink:href="#me02c862f48" y="294.71763"/>
     <use style="fill:#1f77b4;stroke:#1f77b4;" x="437.52854" xlink:href="#me02c862f48" y="213.072691"/>
     <use style="fill:#1f77b4;stroke:#1f77b4;" x="403.334766" xlink:href="#me02c862f48" y="317.501882"/>
     <use style="fill:#1f77b4;stroke:#1f77b4;" x="416.960997" xlink:href="#me02c862f48" y="324.486283"/>
     <use style="fill:#1f77b4;stroke:#1f77b4;" x="529.233836" xlink:href="#me02c862f48" y="325.052237"/>
     <use style="fill:#1f77b4;stroke:#1f77b4;" x="392.528108" xlink:href="#me02c862f48" y="397.702457"/>
     <use style="fill:#1f77b4;stroke:#1f77b4;" x="536.435028" xlink:href="#me02c862f48" y="276.813988"/>
     <use style="fill:#1f77b4;stroke:#1f77b4;" x="581.752028" xlink:href="#me02c862f48" y="323.725121"/>
     <use style="fill:#1f77b4;stroke:#1f77b4;" x="523.182309" xlink:href="#me02c862f48" y="236.414987"/>
     <use style="fill:#1f77b4;stroke:#1f77b4;" x="392.846672" xlink:href="#me02c862f48" y="312.690326"/>
     <use style="fill:#1f77b4;stroke:#1f77b4;" x="142.955323" xlink:href="#me02c862f48" y="251.716763"/>
     <use style="fill:#1f77b4;stroke:#1f77b4;" x="294.512546" xlink:href="#me02c862f48" y="224.257147"/>
     <use style="fill:#1f77b4;stroke:#1f77b4;" x="428.424888" xlink:href="#me02c862f48" y="339.115508"/>
     <use style="fill:#1f77b4;stroke:#1f77b4;" x="423.824305" xlink:href="#me02c862f48" y="277.327523"/>
     <use style="fill:#1f77b4;stroke:#1f77b4;" x="364.082131" xlink:href="#me02c862f48" y="353.850937"/>
     <use style="fill:#1f77b4;stroke:#1f77b4;" x="552.024399" xlink:href="#me02c862f48" y="309.258106"/>
     <use style="fill:#1f77b4;stroke:#1f77b4;" x="405.72901" xlink:href="#me02c862f48" y="320.282963"/>
     <use style="fill:#1f77b4;stroke:#1f77b4;" x="435.18277" xlink:href="#me02c862f48" y="265.603133"/>
     <use style="fill:#1f77b4;stroke:#1f77b4;" x="392.106326" xlink:href="#me02c862f48" y="269.560302"/>
     <use style="fill:#1f77b4;stroke:#1f77b4;" x="407.844715" xlink:href="#me02c862f48" y="320.020154"/>
     <use style="fill:#1f77b4;stroke:#1f77b4;" x="400.90919" xlink:href="#me02c862f48" y="265.839949"/>
     <use style="fill:#1f77b4;stroke:#1f77b4;" x="391.56726" xlink:href="#me02c862f48" y="287.727488"/>
     <use style="fill:#1f77b4;stroke:#1f77b4;" x="428.468098" xlink:href="#me02c862f48" y="259.035217"/>
     <use style="fill:#1f77b4;stroke:#1f77b4;" x="419.185638" xlink:href="#me02c862f48" y="291.32136"/>
     <use style="fill:#1f77b4;stroke:#1f77b4;" x="391.317758" xlink:href="#me02c862f48" y="308.969837"/>
     <use style="fill:#1f77b4;stroke:#1f77b4;" x="393.404362" xlink:href="#me02c862f48" y="312.690326"/>
     <use style="fill:#1f77b4;stroke:#1f77b4;" x="317.756752" xlink:href="#me02c862f48" y="320.124703"/>
     <use style="fill:#1f77b4;stroke:#1f77b4;" x="428.660476" xlink:href="#me02c862f48" y="298.628677"/>
     <use style="fill:#1f77b4;stroke:#1f77b4;" x="411.747776" xlink:href="#me02c862f48" y="272.98528"/>
     <use style="fill:#1f77b4;stroke:#1f77b4;" x="356.000846" xlink:href="#me02c862f48" y="342.190499"/>
     <use style="fill:#1f77b4;stroke:#1f77b4;" x="362.274332" xlink:href="#me02c862f48" y="306.239318"/>
     <use style="fill:#1f77b4;stroke:#1f77b4;" x="446.311635" xlink:href="#me02c862f48" y="306.352762"/>
     <use style="fill:#1f77b4;stroke:#1f77b4;" x="252.339018" xlink:href="#me02c862f48" y="344.334409"/>
     <use style="fill:#1f77b4;stroke:#1f77b4;" x="366.821896" xlink:href="#me02c862f48" y="279.648351"/>
     <use style="fill:#1f77b4;stroke:#1f77b4;" x="429.077595" xlink:href="#me02c862f48" y="306.793997"/>
     <use style="fill:#1f77b4;stroke:#1f77b4;" x="392.343914" xlink:href="#me02c862f48" y="267.929296"/>
     <use style="fill:#1f77b4;stroke:#1f77b4;" x="407.965316" xlink:href="#me02c862f48" y="295.174439"/>
     <use style="fill:#1f77b4;stroke:#1f77b4;" x="365.454414" xlink:href="#me02c862f48" y="345.369821"/>
     <use style="fill:#1f77b4;stroke:#1f77b4;" x="429.205396" xlink:href="#me02c862f48" y="255.599141"/>
     <use style="fill:#1f77b4;stroke:#1f77b4;" x="415.76299" xlink:href="#me02c862f48" y="92.488814"/>
     <use style="fill:#1f77b4;stroke:#1f77b4;" x="491.131034" xlink:href="#me02c862f48" y="92.949948"/>
     <use style="fill:#1f77b4;stroke:#1f77b4;" x="490.070083" xlink:href="#me02c862f48" y="342.829618"/>
     <use style="fill:#1f77b4;stroke:#1f77b4;" x="395.128493" xlink:href="#me02c862f48" y="397.094172"/>
     <use style="fill:#1f77b4;stroke:#1f77b4;" x="418.571015" xlink:href="#me02c862f48" y="298.305916"/>
     <use style="fill:#1f77b4;stroke:#1f77b4;" x="387.00525" xlink:href="#me02c862f48" y="287.816698"/>
     <use style="fill:#1f77b4;stroke:#1f77b4;" x="439.743366" xlink:href="#me02c862f48" y="273.829064"/>
     <use style="fill:#1f77b4;stroke:#1f77b4;" x="423.824305" xlink:href="#me02c862f48" y="457.774364"/>
     <use style="fill:#1f77b4;stroke:#1f77b4;" x="423.824305" xlink:href="#me02c862f48" y="283.748067"/>
     <use style="fill:#1f77b4;stroke:#1f77b4;" x="423.824305" xlink:href="#me02c862f48" y="295.093553"/>
     <use style="fill:#1f77b4;stroke:#1f77b4;" x="423.824305" xlink:href="#me02c862f48" y="487.85048"/>
     <use style="fill:#1f77b4;stroke:#1f77b4;" x="423.824305" xlink:href="#me02c862f48" y="240.961374"/>
     <use style="fill:#1f77b4;stroke:#1f77b4;" x="423.824305" xlink:href="#me02c862f48" y="287.228959"/>
     <use style="fill:#1f77b4;stroke:#1f77b4;" x="423.824305" xlink:href="#me02c862f48" y="360.748426"/>
     <use style="fill:#1f77b4;stroke:#1f77b4;" x="423.824305" xlink:href="#me02c862f48" y="265.925693"/>
     <use style="fill:#1f77b4;stroke:#1f77b4;" x="423.824305" xlink:href="#me02c862f48" y="295.50028"/>
     <use style="fill:#1f77b4;stroke:#1f77b4;" x="423.824305" xlink:href="#me02c862f48" y="224.316972"/>
     <use style="fill:#1f77b4;stroke:#1f77b4;" x="423.824305" xlink:href="#me02c862f48" y="214.362427"/>
     <use style="fill:#1f77b4;stroke:#1f77b4;" x="423.824305" xlink:href="#me02c862f48" y="299.118714"/>
     <use style="fill:#1f77b4;stroke:#1f77b4;" x="423.824305" xlink:href="#me02c862f48" y="279.579007"/>
     <use style="fill:#1f77b4;stroke:#1f77b4;" x="423.824305" xlink:href="#me02c862f48" y="314.667377"/>
     <use style="fill:#1f77b4;stroke:#1f77b4;" x="423.824305" xlink:href="#me02c862f48" y="259.821289"/>
     <use style="fill:#1f77b4;stroke:#1f77b4;" x="315.454545" xlink:href="#me02c862f48" y="353.333263"/>
     <use style="fill:#1f77b4;stroke:#1f77b4;" x="453.668691" xlink:href="#me02c862f48" y="271.314989"/>
     <use style="fill:#1f77b4;stroke:#1f77b4;" x="407.660335" xlink:href="#me02c862f48" y="259.63191"/>
     <use style="fill:#1f77b4;stroke:#1f77b4;" x="413.006719" xlink:href="#me02c862f48" y="303.017392"/>
     <use style="fill:#1f77b4;stroke:#1f77b4;" x="494.320071" xlink:href="#me02c862f48" y="252.102522"/>
     <use style="fill:#1f77b4;stroke:#1f77b4;" x="570.489768" xlink:href="#me02c862f48" y="295.166942"/>
     <use style="fill:#1f77b4;stroke:#1f77b4;" x="410.940699" xlink:href="#me02c862f48" y="295.174439"/>
     <use style="fill:#1f77b4;stroke:#1f77b4;" x="387.63928" xlink:href="#me02c862f48" y="306.763777"/>
     <use style="fill:#1f77b4;stroke:#1f77b4;" x="470.75196" xlink:href="#me02c862f48" y="287.430357"/>
     <use style="fill:#1f77b4;stroke:#1f77b4;" x="392.884682" xlink:href="#me02c862f48" y="314.62151"/>
     <use style="fill:#1f77b4;stroke:#1f77b4;" x="530.318693" xlink:href="#me02c862f48" y="252.024552"/>
     <use style="fill:#1f77b4;stroke:#1f77b4;" x="558.08561" xlink:href="#me02c862f48" y="233.525178"/>
     <use style="fill:#1f77b4;stroke:#1f77b4;" x="436.098348" xlink:href="#me02c862f48" y="283.834127"/>
     <use style="fill:#1f77b4;stroke:#1f77b4;" x="404.243025" xlink:href="#me02c862f48" y="216.73157"/>
     <use style="fill:#1f77b4;stroke:#1f77b4;" x="487.761366" xlink:href="#me02c862f48" y="284.133616"/>
     <use style="fill:#1f77b4;stroke:#1f77b4;" x="418.979772" xlink:href="#me02c862f48" y="187.476698"/>
     <use style="fill:#1f77b4;stroke:#1f77b4;" x="324.396769" xlink:href="#me02c862f48" y="400.189073"/>
     <use style="fill:#1f77b4;stroke:#1f77b4;" x="446.178732" xlink:href="#me02c862f48" y="244.515927"/>
     <use style="fill:#1f77b4;stroke:#1f77b4;" x="480.650019" xlink:href="#me02c862f48" y="315.941299"/>
     <use style="fill:#1f77b4;stroke:#1f77b4;" x="240.995179" xlink:href="#me02c862f48" y="391.043205"/>
     <use style="fill:#1f77b4;stroke:#1f77b4;" x="421.275711" xlink:href="#me02c862f48" y="283.81992"/>
     <use style="fill:#1f77b4;stroke:#1f77b4;" x="597.233885" xlink:href="#me02c862f48" y="287.58482"/>
     <use style="fill:#1f77b4;stroke:#1f77b4;" x="355.249887" xlink:href="#me02c862f48" y="280.132891"/>
     <use style="fill:#1f77b4;stroke:#1f77b4;" x="299.338755" xlink:href="#me02c862f48" y="287.612862"/>
     <use style="fill:#1f77b4;stroke:#1f77b4;" x="382.772953" xlink:href="#me02c862f48" y="272.813594"/>
     <use style="fill:#1f77b4;stroke:#1f77b4;" x="553.375235" xlink:href="#me02c862f48" y="236.31312"/>
     <use style="fill:#1f77b4;stroke:#1f77b4;" x="466.554417" xlink:href="#me02c862f48" y="273.481744"/>
     <use style="fill:#1f77b4;stroke:#1f77b4;" x="391.477225" xlink:href="#me02c862f48" y="263.033282"/>
     <use style="fill:#1f77b4;stroke:#1f77b4;" x="426.331842" xlink:href="#me02c862f48" y="301.779716"/>
     <use style="fill:#1f77b4;stroke:#1f77b4;" x="313.558464" xlink:href="#me02c862f48" y="266.788725"/>
     <use style="fill:#1f77b4;stroke:#1f77b4;" x="341.470215" xlink:href="#me02c862f48" y="319.014942"/>
     <use style="fill:#1f77b4;stroke:#1f77b4;" x="631.199659" xlink:href="#me02c862f48" y="185.994747"/>
     <use style="fill:#1f77b4;stroke:#1f77b4;" x="366.288269" xlink:href="#me02c862f48" y="314.654253"/>
     <use style="fill:#1f77b4;stroke:#1f77b4;" x="545.566215" xlink:href="#me02c862f48" y="298.067535"/>
     <use style="fill:#1f77b4;stroke:#1f77b4;" x="722.075621" xlink:href="#me02c862f48" y="331.937033"/>
     <use style="fill:#1f77b4;stroke:#1f77b4;" x="262.715733" xlink:href="#me02c862f48" y="263.676193"/>
     <use style="fill:#1f77b4;stroke:#1f77b4;" x="268.259902" xlink:href="#me02c862f48" y="403.784758"/>
     <use style="fill:#1f77b4;stroke:#1f77b4;" x="304.530192" xlink:href="#me02c862f48" y="284.094195"/>
     <use style="fill:#1f77b4;stroke:#1f77b4;" x="426.382207" xlink:href="#me02c862f48" y="305.723031"/>
     <use style="fill:#1f77b4;stroke:#1f77b4;" x="380.36643" xlink:href="#me02c862f48" y="313.082418"/>
     <use style="fill:#1f77b4;stroke:#1f77b4;" x="470.319314" xlink:href="#me02c862f48" y="313.324656"/>
     <use style="fill:#1f77b4;stroke:#1f77b4;" x="352.29014" xlink:href="#me02c862f48" y="350.657327"/>
     <use style="fill:#1f77b4;stroke:#1f77b4;" x="460.210731" xlink:href="#me02c862f48" y="268.381753"/>
     <use style="fill:#1f77b4;stroke:#1f77b4;" x="351.676113" xlink:href="#me02c862f48" y="317.777203"/>
     <use style="fill:#1f77b4;stroke:#1f77b4;" x="423.824305" xlink:href="#me02c862f48" y="283.660005"/>
    </g>
   </g>
   <g id="matplotlib.axis_1">
    <g id="xtick_1">
     <g id="line2d_1">
      <defs>
       <path d="M 0 0 
L 0 3.5 
" id="meef1d51c9c" style="stroke:#000000;stroke-width:0.8;"/>
      </defs>
      <g>
       <use style="stroke:#000000;stroke-width:0.8;" x="171.666374" xlink:href="#meef1d51c9c" y="512.64"/>
      </g>
     </g>
     <g id="text_1">
      <!-- -0.06 -->
      <defs>
       <path d="M 4.890625 31.390625 
L 31.203125 31.390625 
L 31.203125 23.390625 
L 4.890625 23.390625 
z
" id="DejaVuSans-45"/>
       <path d="M 31.78125 66.40625 
Q 24.171875 66.40625 20.328125 58.90625 
Q 16.5 51.421875 16.5 36.375 
Q 16.5 21.390625 20.328125 13.890625 
Q 24.171875 6.390625 31.78125 6.390625 
Q 39.453125 6.390625 43.28125 13.890625 
Q 47.125 21.390625 47.125 36.375 
Q 47.125 51.421875 43.28125 58.90625 
Q 39.453125 66.40625 31.78125 66.40625 
z
M 31.78125 74.21875 
Q 44.046875 74.21875 50.515625 64.515625 
Q 56.984375 54.828125 56.984375 36.375 
Q 56.984375 17.96875 50.515625 8.265625 
Q 44.046875 -1.421875 31.78125 -1.421875 
Q 19.53125 -1.421875 13.0625 8.265625 
Q 6.59375 17.96875 6.59375 36.375 
Q 6.59375 54.828125 13.0625 64.515625 
Q 19.53125 74.21875 31.78125 74.21875 
z
" id="DejaVuSans-48"/>
       <path d="M 10.6875 12.40625 
L 21 12.40625 
L 21 0 
L 10.6875 0 
z
" id="DejaVuSans-46"/>
       <path d="M 33.015625 40.375 
Q 26.375 40.375 22.484375 35.828125 
Q 18.609375 31.296875 18.609375 23.390625 
Q 18.609375 15.53125 22.484375 10.953125 
Q 26.375 6.390625 33.015625 6.390625 
Q 39.65625 6.390625 43.53125 10.953125 
Q 47.40625 15.53125 47.40625 23.390625 
Q 47.40625 31.296875 43.53125 35.828125 
Q 39.65625 40.375 33.015625 40.375 
z
M 52.59375 71.296875 
L 52.59375 62.3125 
Q 48.875 64.0625 45.09375 64.984375 
Q 41.3125 65.921875 37.59375 65.921875 
Q 27.828125 65.921875 22.671875 59.328125 
Q 17.53125 52.734375 16.796875 39.40625 
Q 19.671875 43.65625 24.015625 45.921875 
Q 28.375 48.1875 33.59375 48.1875 
Q 44.578125 48.1875 50.953125 41.515625 
Q 57.328125 34.859375 57.328125 23.390625 
Q 57.328125 12.15625 50.6875 5.359375 
Q 44.046875 -1.421875 33.015625 -1.421875 
Q 20.359375 -1.421875 13.671875 8.265625 
Q 6.984375 17.96875 6.984375 36.375 
Q 6.984375 53.65625 15.1875 63.9375 
Q 23.390625 74.21875 37.203125 74.21875 
Q 40.921875 74.21875 44.703125 73.484375 
Q 48.484375 72.75 52.59375 71.296875 
z
" id="DejaVuSans-54"/>
      </defs>
      <g transform="translate(158.729656 527.238438)scale(0.1 -0.1)">
       <use xlink:href="#DejaVuSans-45"/>
       <use x="36.083984" xlink:href="#DejaVuSans-48"/>
       <use x="99.707031" xlink:href="#DejaVuSans-46"/>
       <use x="131.494141" xlink:href="#DejaVuSans-48"/>
       <use x="195.117188" xlink:href="#DejaVuSans-54"/>
      </g>
     </g>
    </g>
    <g id="xtick_2">
     <g id="line2d_2">
      <g>
       <use style="stroke:#000000;stroke-width:0.8;" x="255.719018" xlink:href="#meef1d51c9c" y="512.64"/>
      </g>
     </g>
     <g id="text_2">
      <!-- -0.04 -->
      <defs>
       <path d="M 37.796875 64.3125 
L 12.890625 25.390625 
L 37.796875 25.390625 
z
M 35.203125 72.90625 
L 47.609375 72.90625 
L 47.609375 25.390625 
L 58.015625 25.390625 
L 58.015625 17.1875 
L 47.609375 17.1875 
L 47.609375 0 
L 37.796875 0 
L 37.796875 17.1875 
L 4.890625 17.1875 
L 4.890625 26.703125 
z
" id="DejaVuSans-52"/>
      </defs>
      <g transform="translate(242.782299 527.238438)scale(0.1 -0.1)">
       <use xlink:href="#DejaVuSans-45"/>
       <use x="36.083984" xlink:href="#DejaVuSans-48"/>
       <use x="99.707031" xlink:href="#DejaVuSans-46"/>
       <use x="131.494141" xlink:href="#DejaVuSans-48"/>
       <use x="195.117188" xlink:href="#DejaVuSans-52"/>
      </g>
     </g>
    </g>
    <g id="xtick_3">
     <g id="line2d_3">
      <g>
       <use style="stroke:#000000;stroke-width:0.8;" x="339.771662" xlink:href="#meef1d51c9c" y="512.64"/>
      </g>
     </g>
     <g id="text_3">
      <!-- -0.02 -->
      <defs>
       <path d="M 19.1875 8.296875 
L 53.609375 8.296875 
L 53.609375 0 
L 7.328125 0 
L 7.328125 8.296875 
Q 12.9375 14.109375 22.625 23.890625 
Q 32.328125 33.6875 34.8125 36.53125 
Q 39.546875 41.84375 41.421875 45.53125 
Q 43.3125 49.21875 43.3125 52.78125 
Q 43.3125 58.59375 39.234375 62.25 
Q 35.15625 65.921875 28.609375 65.921875 
Q 23.96875 65.921875 18.8125 64.3125 
Q 13.671875 62.703125 7.8125 59.421875 
L 7.8125 69.390625 
Q 13.765625 71.78125 18.9375 73 
Q 24.125 74.21875 28.421875 74.21875 
Q 39.75 74.21875 46.484375 68.546875 
Q 53.21875 62.890625 53.21875 53.421875 
Q 53.21875 48.921875 51.53125 44.890625 
Q 49.859375 40.875 45.40625 35.40625 
Q 44.1875 33.984375 37.640625 27.21875 
Q 31.109375 20.453125 19.1875 8.296875 
z
" id="DejaVuSans-50"/>
      </defs>
      <g transform="translate(326.834943 527.238438)scale(0.1 -0.1)">
       <use xlink:href="#DejaVuSans-45"/>
       <use x="36.083984" xlink:href="#DejaVuSans-48"/>
       <use x="99.707031" xlink:href="#DejaVuSans-46"/>
       <use x="131.494141" xlink:href="#DejaVuSans-48"/>
       <use x="195.117188" xlink:href="#DejaVuSans-50"/>
      </g>
     </g>
    </g>
    <g id="xtick_4">
     <g id="line2d_4">
      <g>
       <use style="stroke:#000000;stroke-width:0.8;" x="423.824305" xlink:href="#meef1d51c9c" y="512.64"/>
      </g>
     </g>
     <g id="text_4">
      <!-- 0.00 -->
      <g transform="translate(412.691493 527.238438)scale(0.1 -0.1)">
       <use xlink:href="#DejaVuSans-48"/>
       <use x="63.623047" xlink:href="#DejaVuSans-46"/>
       <use x="95.410156" xlink:href="#DejaVuSans-48"/>
       <use x="159.033203" xlink:href="#DejaVuSans-48"/>
      </g>
     </g>
    </g>
    <g id="xtick_5">
     <g id="line2d_5">
      <g>
       <use style="stroke:#000000;stroke-width:0.8;" x="507.876949" xlink:href="#meef1d51c9c" y="512.64"/>
      </g>
     </g>
     <g id="text_5">
      <!-- 0.02 -->
      <g transform="translate(496.744136 527.238438)scale(0.1 -0.1)">
       <use xlink:href="#DejaVuSans-48"/>
       <use x="63.623047" xlink:href="#DejaVuSans-46"/>
       <use x="95.410156" xlink:href="#DejaVuSans-48"/>
       <use x="159.033203" xlink:href="#DejaVuSans-50"/>
      </g>
     </g>
    </g>
    <g id="xtick_6">
     <g id="line2d_6">
      <g>
       <use style="stroke:#000000;stroke-width:0.8;" x="591.929592" xlink:href="#meef1d51c9c" y="512.64"/>
      </g>
     </g>
     <g id="text_6">
      <!-- 0.04 -->
      <g transform="translate(580.79678 527.238438)scale(0.1 -0.1)">
       <use xlink:href="#DejaVuSans-48"/>
       <use x="63.623047" xlink:href="#DejaVuSans-46"/>
       <use x="95.410156" xlink:href="#DejaVuSans-48"/>
       <use x="159.033203" xlink:href="#DejaVuSans-52"/>
      </g>
     </g>
    </g>
    <g id="xtick_7">
     <g id="line2d_7">
      <g>
       <use style="stroke:#000000;stroke-width:0.8;" x="675.982236" xlink:href="#meef1d51c9c" y="512.64"/>
      </g>
     </g>
     <g id="text_7">
      <!-- 0.06 -->
      <g transform="translate(664.849423 527.238438)scale(0.1 -0.1)">
       <use xlink:href="#DejaVuSans-48"/>
       <use x="63.623047" xlink:href="#DejaVuSans-46"/>
       <use x="95.410156" xlink:href="#DejaVuSans-48"/>
       <use x="159.033203" xlink:href="#DejaVuSans-54"/>
      </g>
     </g>
    </g>
    <g id="xtick_8">
     <g id="line2d_8">
      <g>
       <use style="stroke:#000000;stroke-width:0.8;" x="760.034879" xlink:href="#meef1d51c9c" y="512.64"/>
      </g>
     </g>
     <g id="text_8">
      <!-- 0.08 -->
      <defs>
       <path d="M 31.78125 34.625 
Q 24.75 34.625 20.71875 30.859375 
Q 16.703125 27.09375 16.703125 20.515625 
Q 16.703125 13.921875 20.71875 10.15625 
Q 24.75 6.390625 31.78125 6.390625 
Q 38.8125 6.390625 42.859375 10.171875 
Q 46.921875 13.96875 46.921875 20.515625 
Q 46.921875 27.09375 42.890625 30.859375 
Q 38.875 34.625 31.78125 34.625 
z
M 21.921875 38.8125 
Q 15.578125 40.375 12.03125 44.71875 
Q 8.5 49.078125 8.5 55.328125 
Q 8.5 64.0625 14.71875 69.140625 
Q 20.953125 74.21875 31.78125 74.21875 
Q 42.671875 74.21875 48.875 69.140625 
Q 55.078125 64.0625 55.078125 55.328125 
Q 55.078125 49.078125 51.53125 44.71875 
Q 48 40.375 41.703125 38.8125 
Q 48.828125 37.15625 52.796875 32.3125 
Q 56.78125 27.484375 56.78125 20.515625 
Q 56.78125 9.90625 50.3125 4.234375 
Q 43.84375 -1.421875 31.78125 -1.421875 
Q 19.734375 -1.421875 13.25 4.234375 
Q 6.78125 9.90625 6.78125 20.515625 
Q 6.78125 27.484375 10.78125 32.3125 
Q 14.796875 37.15625 21.921875 38.8125 
z
M 18.3125 54.390625 
Q 18.3125 48.734375 21.84375 45.5625 
Q 25.390625 42.390625 31.78125 42.390625 
Q 38.140625 42.390625 41.71875 45.5625 
Q 45.3125 48.734375 45.3125 54.390625 
Q 45.3125 60.0625 41.71875 63.234375 
Q 38.140625 66.40625 31.78125 66.40625 
Q 25.390625 66.40625 21.84375 63.234375 
Q 18.3125 60.0625 18.3125 54.390625 
z
" id="DejaVuSans-56"/>
      </defs>
      <g transform="translate(748.902067 527.238438)scale(0.1 -0.1)">
       <use xlink:href="#DejaVuSans-48"/>
       <use x="63.623047" xlink:href="#DejaVuSans-46"/>
       <use x="95.410156" xlink:href="#DejaVuSans-48"/>
       <use x="159.033203" xlink:href="#DejaVuSans-56"/>
      </g>
     </g>
    </g>
    <g id="text_9">
     <!-- 000004.SZ -->
     <defs>
      <path d="M 53.515625 70.515625 
L 53.515625 60.890625 
Q 47.90625 63.578125 42.921875 64.890625 
Q 37.9375 66.21875 33.296875 66.21875 
Q 25.25 66.21875 20.875 63.09375 
Q 16.5 59.96875 16.5 54.203125 
Q 16.5 49.359375 19.40625 46.890625 
Q 22.3125 44.4375 30.421875 42.921875 
L 36.375 41.703125 
Q 47.40625 39.59375 52.65625 34.296875 
Q 57.90625 29 57.90625 20.125 
Q 57.90625 9.515625 50.796875 4.046875 
Q 43.703125 -1.421875 29.984375 -1.421875 
Q 24.8125 -1.421875 18.96875 -0.25 
Q 13.140625 0.921875 6.890625 3.21875 
L 6.890625 13.375 
Q 12.890625 10.015625 18.65625 8.296875 
Q 24.421875 6.59375 29.984375 6.59375 
Q 38.421875 6.59375 43.015625 9.90625 
Q 47.609375 13.234375 47.609375 19.390625 
Q 47.609375 24.75 44.3125 27.78125 
Q 41.015625 30.8125 33.5 32.328125 
L 27.484375 33.5 
Q 16.453125 35.6875 11.515625 40.375 
Q 6.59375 45.0625 6.59375 53.421875 
Q 6.59375 63.09375 13.40625 68.65625 
Q 20.21875 74.21875 32.171875 74.21875 
Q 37.3125 74.21875 42.625 73.28125 
Q 47.953125 72.359375 53.515625 70.515625 
z
" id="DejaVuSans-83"/>
      <path d="M 5.609375 72.90625 
L 62.890625 72.90625 
L 62.890625 65.375 
L 16.796875 8.296875 
L 64.015625 8.296875 
L 64.015625 0 
L 4.5 0 
L 4.5 7.515625 
L 50.59375 64.59375 
L 5.609375 64.59375 
z
" id="DejaVuSans-90"/>
     </defs>
     <g transform="translate(415.524219 540.916563)scale(0.1 -0.1)">
      <use xlink:href="#DejaVuSans-48"/>
      <use x="63.623047" xlink:href="#DejaVuSans-48"/>
      <use x="127.246094" xlink:href="#DejaVuSans-48"/>
      <use x="190.869141" xlink:href="#DejaVuSans-48"/>
      <use x="254.492188" xlink:href="#DejaVuSans-48"/>
      <use x="318.115234" xlink:href="#DejaVuSans-52"/>
      <use x="381.738281" xlink:href="#DejaVuSans-46"/>
      <use x="413.525391" xlink:href="#DejaVuSans-83"/>
      <use x="477.001953" xlink:href="#DejaVuSans-90"/>
     </g>
    </g>
   </g>
   <g id="matplotlib.axis_2">
    <g id="ytick_1">
     <g id="line2d_9">
      <defs>
       <path d="M 0 0 
L -3.5 0 
" id="m076df7acb8" style="stroke:#000000;stroke-width:0.8;"/>
      </defs>
      <g>
       <use style="stroke:#000000;stroke-width:0.8;" x="108" xlink:href="#m076df7acb8" y="488.984302"/>
      </g>
     </g>
     <g id="text_10">
      <!-- -0.100 -->
      <defs>
       <path d="M 12.40625 8.296875 
L 28.515625 8.296875 
L 28.515625 63.921875 
L 10.984375 60.40625 
L 10.984375 69.390625 
L 28.421875 72.90625 
L 38.28125 72.90625 
L 38.28125 8.296875 
L 54.390625 8.296875 
L 54.390625 0 
L 12.40625 0 
z
" id="DejaVuSans-49"/>
      </defs>
      <g transform="translate(68.764062 492.783521)scale(0.1 -0.1)">
       <use xlink:href="#DejaVuSans-45"/>
       <use x="36.083984" xlink:href="#DejaVuSans-48"/>
       <use x="99.707031" xlink:href="#DejaVuSans-46"/>
       <use x="131.494141" xlink:href="#DejaVuSans-49"/>
       <use x="195.117188" xlink:href="#DejaVuSans-48"/>
       <use x="258.740234" xlink:href="#DejaVuSans-48"/>
      </g>
     </g>
    </g>
    <g id="ytick_2">
     <g id="line2d_10">
      <g>
       <use style="stroke:#000000;stroke-width:0.8;" x="108" xlink:href="#m076df7acb8" y="439.568567"/>
      </g>
     </g>
     <g id="text_11">
      <!-- -0.075 -->
      <defs>
       <path d="M 8.203125 72.90625 
L 55.078125 72.90625 
L 55.078125 68.703125 
L 28.609375 0 
L 18.3125 0 
L 43.21875 64.59375 
L 8.203125 64.59375 
z
" id="DejaVuSans-55"/>
       <path d="M 10.796875 72.90625 
L 49.515625 72.90625 
L 49.515625 64.59375 
L 19.828125 64.59375 
L 19.828125 46.734375 
Q 21.96875 47.46875 24.109375 47.828125 
Q 26.265625 48.1875 28.421875 48.1875 
Q 40.625 48.1875 47.75 41.5 
Q 54.890625 34.8125 54.890625 23.390625 
Q 54.890625 11.625 47.5625 5.09375 
Q 40.234375 -1.421875 26.90625 -1.421875 
Q 22.3125 -1.421875 17.546875 -0.640625 
Q 12.796875 0.140625 7.71875 1.703125 
L 7.71875 11.625 
Q 12.109375 9.234375 16.796875 8.0625 
Q 21.484375 6.890625 26.703125 6.890625 
Q 35.15625 6.890625 40.078125 11.328125 
Q 45.015625 15.765625 45.015625 23.390625 
Q 45.015625 31 40.078125 35.4375 
Q 35.15625 39.890625 26.703125 39.890625 
Q 22.75 39.890625 18.8125 39.015625 
Q 14.890625 38.140625 10.796875 36.28125 
z
" id="DejaVuSans-53"/>
      </defs>
      <g transform="translate(68.764062 443.367785)scale(0.1 -0.1)">
       <use xlink:href="#DejaVuSans-45"/>
       <use x="36.083984" xlink:href="#DejaVuSans-48"/>
       <use x="99.707031" xlink:href="#DejaVuSans-46"/>
       <use x="131.494141" xlink:href="#DejaVuSans-48"/>
       <use x="195.117188" xlink:href="#DejaVuSans-55"/>
       <use x="258.740234" xlink:href="#DejaVuSans-53"/>
      </g>
     </g>
    </g>
    <g id="ytick_3">
     <g id="line2d_11">
      <g>
       <use style="stroke:#000000;stroke-width:0.8;" x="108" xlink:href="#m076df7acb8" y="390.152831"/>
      </g>
     </g>
     <g id="text_12">
      <!-- -0.050 -->
      <g transform="translate(68.764062 393.95205)scale(0.1 -0.1)">
       <use xlink:href="#DejaVuSans-45"/>
       <use x="36.083984" xlink:href="#DejaVuSans-48"/>
       <use x="99.707031" xlink:href="#DejaVuSans-46"/>
       <use x="131.494141" xlink:href="#DejaVuSans-48"/>
       <use x="195.117188" xlink:href="#DejaVuSans-53"/>
       <use x="258.740234" xlink:href="#DejaVuSans-48"/>
      </g>
     </g>
    </g>
    <g id="ytick_4">
     <g id="line2d_12">
      <g>
       <use style="stroke:#000000;stroke-width:0.8;" x="108" xlink:href="#m076df7acb8" y="340.737095"/>
      </g>
     </g>
     <g id="text_13">
      <!-- -0.025 -->
      <g transform="translate(68.764062 344.536314)scale(0.1 -0.1)">
       <use xlink:href="#DejaVuSans-45"/>
       <use x="36.083984" xlink:href="#DejaVuSans-48"/>
       <use x="99.707031" xlink:href="#DejaVuSans-46"/>
       <use x="131.494141" xlink:href="#DejaVuSans-48"/>
       <use x="195.117188" xlink:href="#DejaVuSans-50"/>
       <use x="258.740234" xlink:href="#DejaVuSans-53"/>
      </g>
     </g>
    </g>
    <g id="ytick_5">
     <g id="line2d_13">
      <g>
       <use style="stroke:#000000;stroke-width:0.8;" x="108" xlink:href="#m076df7acb8" y="291.32136"/>
      </g>
     </g>
     <g id="text_14">
      <!-- 0.000 -->
      <g transform="translate(72.371875 295.120578)scale(0.1 -0.1)">
       <use xlink:href="#DejaVuSans-48"/>
       <use x="63.623047" xlink:href="#DejaVuSans-46"/>
       <use x="95.410156" xlink:href="#DejaVuSans-48"/>
       <use x="159.033203" xlink:href="#DejaVuSans-48"/>
       <use x="222.65625" xlink:href="#DejaVuSans-48"/>
      </g>
     </g>
    </g>
    <g id="ytick_6">
     <g id="line2d_14">
      <g>
       <use style="stroke:#000000;stroke-width:0.8;" x="108" xlink:href="#m076df7acb8" y="241.905624"/>
      </g>
     </g>
     <g id="text_15">
      <!-- 0.025 -->
      <g transform="translate(72.371875 245.704843)scale(0.1 -0.1)">
       <use xlink:href="#DejaVuSans-48"/>
       <use x="63.623047" xlink:href="#DejaVuSans-46"/>
       <use x="95.410156" xlink:href="#DejaVuSans-48"/>
       <use x="159.033203" xlink:href="#DejaVuSans-50"/>
       <use x="222.65625" xlink:href="#DejaVuSans-53"/>
      </g>
     </g>
    </g>
    <g id="ytick_7">
     <g id="line2d_15">
      <g>
       <use style="stroke:#000000;stroke-width:0.8;" x="108" xlink:href="#m076df7acb8" y="192.489888"/>
      </g>
     </g>
     <g id="text_16">
      <!-- 0.050 -->
      <g transform="translate(72.371875 196.289107)scale(0.1 -0.1)">
       <use xlink:href="#DejaVuSans-48"/>
       <use x="63.623047" xlink:href="#DejaVuSans-46"/>
       <use x="95.410156" xlink:href="#DejaVuSans-48"/>
       <use x="159.033203" xlink:href="#DejaVuSans-53"/>
       <use x="222.65625" xlink:href="#DejaVuSans-48"/>
      </g>
     </g>
    </g>
    <g id="ytick_8">
     <g id="line2d_16">
      <g>
       <use style="stroke:#000000;stroke-width:0.8;" x="108" xlink:href="#m076df7acb8" y="143.074153"/>
      </g>
     </g>
     <g id="text_17">
      <!-- 0.075 -->
      <g transform="translate(72.371875 146.873372)scale(0.1 -0.1)">
       <use xlink:href="#DejaVuSans-48"/>
       <use x="63.623047" xlink:href="#DejaVuSans-46"/>
       <use x="95.410156" xlink:href="#DejaVuSans-48"/>
       <use x="159.033203" xlink:href="#DejaVuSans-55"/>
       <use x="222.65625" xlink:href="#DejaVuSans-53"/>
      </g>
     </g>
    </g>
    <g id="ytick_9">
     <g id="line2d_17">
      <g>
       <use style="stroke:#000000;stroke-width:0.8;" x="108" xlink:href="#m076df7acb8" y="93.658417"/>
      </g>
     </g>
     <g id="text_18">
      <!-- 0.100 -->
      <g transform="translate(72.371875 97.457636)scale(0.1 -0.1)">
       <use xlink:href="#DejaVuSans-48"/>
       <use x="63.623047" xlink:href="#DejaVuSans-46"/>
       <use x="95.410156" xlink:href="#DejaVuSans-49"/>
       <use x="159.033203" xlink:href="#DejaVuSans-48"/>
       <use x="222.65625" xlink:href="#DejaVuSans-48"/>
      </g>
     </g>
    </g>
    <g id="text_19">
     <!-- 000006.SZ -->
     <g transform="translate(62.684375 318.155781)rotate(-90)scale(0.1 -0.1)">
      <use xlink:href="#DejaVuSans-48"/>
      <use x="63.623047" xlink:href="#DejaVuSans-48"/>
      <use x="127.246094" xlink:href="#DejaVuSans-48"/>
      <use x="190.869141" xlink:href="#DejaVuSans-48"/>
      <use x="254.492188" xlink:href="#DejaVuSans-48"/>
      <use x="318.115234" xlink:href="#DejaVuSans-54"/>
      <use x="381.738281" xlink:href="#DejaVuSans-46"/>
      <use x="413.525391" xlink:href="#DejaVuSans-83"/>
      <use x="477.001953" xlink:href="#DejaVuSans-90"/>
     </g>
    </g>
   </g>
   <g id="LineCollection_1">
    <path clip-path="url(#p5eff0033b8)" d="M 423.824305 577 
L 423.824305 -1 
" style="fill:none;stroke:#000000;stroke-width:1.5;"/>
   </g>
   <g id="LineCollection_2">
    <path clip-path="url(#p5eff0033b8)" d="M -1 291.32136 
L 865 291.32136 
" style="fill:none;stroke:#000000;stroke-width:1.5;"/>
   </g>
   <g id="line2d_18">
    <path clip-path="url(#p5eff0033b8)" d="M -1 491.129524 
L 865 83.822625 
" style="fill:none;stroke:#1f77b4;stroke-linecap:square;stroke-width:1.5;"/>
   </g>
   <g id="patch_3">
    <path d="M 108 512.64 
L 108 69.12 
" style="fill:none;stroke:#000000;stroke-linecap:square;stroke-linejoin:miter;stroke-width:0.8;"/>
   </g>
   <g id="patch_4">
    <path d="M 777.6 512.64 
L 777.6 69.12 
" style="fill:none;stroke:#000000;stroke-linecap:square;stroke-linejoin:miter;stroke-width:0.8;"/>
   </g>
   <g id="patch_5">
    <path d="M 108 512.64 
L 777.6 512.64 
" style="fill:none;stroke:#000000;stroke-linecap:square;stroke-linejoin:miter;stroke-width:0.8;"/>
   </g>
   <g id="patch_6">
    <path d="M 108 69.12 
L 777.6 69.12 
" style="fill:none;stroke:#000000;stroke-linecap:square;stroke-linejoin:miter;stroke-width:0.8;"/>
   </g>
  </g>
 </g>
 <defs>
  <clipPath id="p5eff0033b8">
   <rect height="443.52" width="669.6" x="108" y="69.12"/>
  </clipPath>
 </defs>
</svg>
