<?xml version="1.0" encoding="utf-8" standalone="no"?>
<!DOCTYPE svg PUBLIC "-//W3C//DTD SVG 1.1//EN"
  "http://www.w3.org/Graphics/SVG/1.1/DTD/svg11.dtd">
<!-- Created with matplotlib (https://matplotlib.org/) -->
<svg height="504pt" version="1.1" viewBox="0 0 1440 504" width="1440pt" xmlns="http://www.w3.org/2000/svg" xmlns:xlink="http://www.w3.org/1999/xlink">
 <defs>
  <style type="text/css">
*{stroke-linecap:butt;stroke-linejoin:round;}
  </style>
 </defs>
 <g id="figure_1">
  <g id="patch_1">
   <path d="M 0 504 
L 1440 504 
L 1440 0 
L 0 0 
z
"/>
  </g>
  <g id="axes_1">
   <g id="patch_2">
    <path d="M 180 441 
L 1296 441 
L 1296 60.48 
L 180 60.48 
z
"/>
   </g>
   <g id="matplotlib.axis_1">
    <g id="xtick_1">
     <g id="line2d_1">
      <path clip-path="url(#pf9c0f0eea3)" d="M 378.246138 441 
L 378.246138 60.48 
" style="fill:none;stroke:#ffffff;stroke-linecap:round;stroke-width:0.2;"/>
     </g>
     <g id="line2d_2"/>
     <g id="text_1">
      <!-- 2015 -->
      <defs>
       <path d="M 50.34375 8.453125 
L 50.34375 0 
L 3.03125 0 
Q 2.9375 3.171875 4.046875 6.109375 
Q 5.859375 10.9375 9.828125 15.625 
Q 13.8125 20.3125 21.34375 26.46875 
Q 33.015625 36.03125 37.109375 41.625 
Q 41.21875 47.21875 41.21875 52.203125 
Q 41.21875 57.421875 37.46875 61 
Q 33.734375 64.59375 27.734375 64.59375 
Q 21.390625 64.59375 17.578125 60.78125 
Q 13.765625 56.984375 13.71875 50.25 
L 4.6875 51.171875 
Q 5.609375 61.28125 11.65625 66.578125 
Q 17.71875 71.875 27.9375 71.875 
Q 38.234375 71.875 44.234375 66.15625 
Q 50.25 60.453125 50.25 52 
Q 50.25 47.703125 48.484375 43.546875 
Q 46.734375 39.40625 42.65625 34.8125 
Q 38.578125 30.21875 29.109375 22.21875 
Q 21.1875 15.578125 18.9375 13.203125 
Q 16.703125 10.84375 15.234375 8.453125 
z
" id="ArialMT-50"/>
       <path d="M 4.15625 35.296875 
Q 4.15625 48 6.765625 55.734375 
Q 9.375 63.484375 14.515625 67.671875 
Q 19.671875 71.875 27.484375 71.875 
Q 33.25 71.875 37.59375 69.546875 
Q 41.9375 67.234375 44.765625 62.859375 
Q 47.609375 58.5 49.21875 52.21875 
Q 50.828125 45.953125 50.828125 35.296875 
Q 50.828125 22.703125 48.234375 14.96875 
Q 45.65625 7.234375 40.5 3 
Q 35.359375 -1.21875 27.484375 -1.21875 
Q 17.140625 -1.21875 11.234375 6.203125 
Q 4.15625 15.140625 4.15625 35.296875 
z
M 13.1875 35.296875 
Q 13.1875 17.671875 17.3125 11.828125 
Q 21.4375 6 27.484375 6 
Q 33.546875 6 37.671875 11.859375 
Q 41.796875 17.71875 41.796875 35.296875 
Q 41.796875 52.984375 37.671875 58.78125 
Q 33.546875 64.59375 27.390625 64.59375 
Q 21.34375 64.59375 17.71875 59.46875 
Q 13.1875 52.9375 13.1875 35.296875 
z
" id="ArialMT-48"/>
       <path d="M 37.25 0 
L 28.46875 0 
L 28.46875 56 
Q 25.296875 52.984375 20.140625 49.953125 
Q 14.984375 46.921875 10.890625 45.40625 
L 10.890625 53.90625 
Q 18.265625 57.375 23.78125 62.296875 
Q 29.296875 67.234375 31.59375 71.875 
L 37.25 71.875 
z
" id="ArialMT-49"/>
       <path d="M 4.15625 18.75 
L 13.375 19.53125 
Q 14.40625 12.796875 18.140625 9.390625 
Q 21.875 6 27.15625 6 
Q 33.5 6 37.890625 10.78125 
Q 42.28125 15.578125 42.28125 23.484375 
Q 42.28125 31 38.0625 35.34375 
Q 33.84375 39.703125 27 39.703125 
Q 22.75 39.703125 19.328125 37.765625 
Q 15.921875 35.84375 13.96875 32.765625 
L 5.71875 33.84375 
L 12.640625 70.609375 
L 48.25 70.609375 
L 48.25 62.203125 
L 19.671875 62.203125 
L 15.828125 42.96875 
Q 22.265625 47.46875 29.34375 47.46875 
Q 38.71875 47.46875 45.15625 40.96875 
Q 51.609375 34.46875 51.609375 24.265625 
Q 51.609375 14.546875 45.953125 7.46875 
Q 39.0625 -1.21875 27.15625 -1.21875 
Q 17.390625 -1.21875 11.203125 4.25 
Q 5.03125 9.71875 4.15625 18.75 
z
" id="ArialMT-53"/>
      </defs>
      <g style="fill:#ffffff;" transform="translate(367.124263 451.657812)scale(0.1 -0.1)">
       <use xlink:href="#ArialMT-50"/>
       <use x="55.615234" xlink:href="#ArialMT-48"/>
       <use x="111.230469" xlink:href="#ArialMT-49"/>
       <use x="166.845703" xlink:href="#ArialMT-53"/>
      </g>
     </g>
    </g>
    <g id="xtick_2">
     <g id="line2d_3">
      <path clip-path="url(#pf9c0f0eea3)" d="M 584.546467 441 
L 584.546467 60.48 
" style="fill:none;stroke:#ffffff;stroke-linecap:round;stroke-width:0.2;"/>
     </g>
     <g id="line2d_4"/>
     <g id="text_2">
      <!-- 2016 -->
      <defs>
       <path d="M 49.75 54.046875 
L 41.015625 53.375 
Q 39.84375 58.546875 37.703125 60.890625 
Q 34.125 64.65625 28.90625 64.65625 
Q 24.703125 64.65625 21.53125 62.3125 
Q 17.390625 59.28125 14.984375 53.46875 
Q 12.59375 47.65625 12.5 36.921875 
Q 15.671875 41.75 20.265625 44.09375 
Q 24.859375 46.4375 29.890625 46.4375 
Q 38.671875 46.4375 44.84375 39.96875 
Q 51.03125 33.5 51.03125 23.25 
Q 51.03125 16.5 48.125 10.71875 
Q 45.21875 4.9375 40.140625 1.859375 
Q 35.0625 -1.21875 28.609375 -1.21875 
Q 17.625 -1.21875 10.6875 6.859375 
Q 3.765625 14.9375 3.765625 33.5 
Q 3.765625 54.25 11.421875 63.671875 
Q 18.109375 71.875 29.4375 71.875 
Q 37.890625 71.875 43.28125 67.140625 
Q 48.6875 62.40625 49.75 54.046875 
z
M 13.875 23.1875 
Q 13.875 18.65625 15.796875 14.5 
Q 17.71875 10.359375 21.1875 8.171875 
Q 24.65625 6 28.46875 6 
Q 34.03125 6 38.03125 10.484375 
Q 42.046875 14.984375 42.046875 22.703125 
Q 42.046875 30.125 38.078125 34.390625 
Q 34.125 38.671875 28.125 38.671875 
Q 22.171875 38.671875 18.015625 34.390625 
Q 13.875 30.125 13.875 23.1875 
z
" id="ArialMT-54"/>
      </defs>
      <g style="fill:#ffffff;" transform="translate(573.424592 451.657812)scale(0.1 -0.1)">
       <use xlink:href="#ArialMT-50"/>
       <use x="55.615234" xlink:href="#ArialMT-48"/>
       <use x="111.230469" xlink:href="#ArialMT-49"/>
       <use x="166.845703" xlink:href="#ArialMT-54"/>
      </g>
     </g>
    </g>
    <g id="xtick_3">
     <g id="line2d_5">
      <path clip-path="url(#pf9c0f0eea3)" d="M 791.412003 441 
L 791.412003 60.48 
" style="fill:none;stroke:#ffffff;stroke-linecap:round;stroke-width:0.2;"/>
     </g>
     <g id="line2d_6"/>
     <g id="text_3">
      <!-- 2017 -->
      <defs>
       <path d="M 4.734375 62.203125 
L 4.734375 70.65625 
L 51.078125 70.65625 
L 51.078125 63.8125 
Q 44.234375 56.546875 37.515625 44.484375 
Q 30.8125 32.421875 27.15625 19.671875 
Q 24.515625 10.6875 23.78125 0 
L 14.75 0 
Q 14.890625 8.453125 18.0625 20.40625 
Q 21.234375 32.375 27.171875 43.484375 
Q 33.109375 54.59375 39.796875 62.203125 
z
" id="ArialMT-55"/>
      </defs>
      <g style="fill:#ffffff;" transform="translate(780.290128 451.657812)scale(0.1 -0.1)">
       <use xlink:href="#ArialMT-50"/>
       <use x="55.615234" xlink:href="#ArialMT-48"/>
       <use x="111.230469" xlink:href="#ArialMT-49"/>
       <use x="166.845703" xlink:href="#ArialMT-55"/>
      </g>
     </g>
    </g>
    <g id="xtick_4">
     <g id="line2d_7">
      <path clip-path="url(#pf9c0f0eea3)" d="M 997.712332 441 
L 997.712332 60.48 
" style="fill:none;stroke:#ffffff;stroke-linecap:round;stroke-width:0.2;"/>
     </g>
     <g id="line2d_8"/>
     <g id="text_4">
      <!-- 2018 -->
      <defs>
       <path d="M 17.671875 38.8125 
Q 12.203125 40.828125 9.5625 44.53125 
Q 6.9375 48.25 6.9375 53.421875 
Q 6.9375 61.234375 12.546875 66.546875 
Q 18.171875 71.875 27.484375 71.875 
Q 36.859375 71.875 42.578125 66.421875 
Q 48.296875 60.984375 48.296875 53.171875 
Q 48.296875 48.1875 45.671875 44.5 
Q 43.0625 40.828125 37.75 38.8125 
Q 44.34375 36.671875 47.78125 31.875 
Q 51.21875 27.09375 51.21875 20.453125 
Q 51.21875 11.28125 44.71875 5.03125 
Q 38.234375 -1.21875 27.640625 -1.21875 
Q 17.046875 -1.21875 10.546875 5.046875 
Q 4.046875 11.328125 4.046875 20.703125 
Q 4.046875 27.6875 7.59375 32.390625 
Q 11.140625 37.109375 17.671875 38.8125 
z
M 15.921875 53.71875 
Q 15.921875 48.640625 19.1875 45.40625 
Q 22.46875 42.1875 27.6875 42.1875 
Q 32.765625 42.1875 36.015625 45.375 
Q 39.265625 48.578125 39.265625 53.21875 
Q 39.265625 58.0625 35.90625 61.359375 
Q 32.5625 64.65625 27.59375 64.65625 
Q 22.5625 64.65625 19.234375 61.421875 
Q 15.921875 58.203125 15.921875 53.71875 
z
M 13.09375 20.65625 
Q 13.09375 16.890625 14.875 13.375 
Q 16.65625 9.859375 20.171875 7.921875 
Q 23.6875 6 27.734375 6 
Q 34.03125 6 38.125 10.046875 
Q 42.234375 14.109375 42.234375 20.359375 
Q 42.234375 26.703125 38.015625 30.859375 
Q 33.796875 35.015625 27.4375 35.015625 
Q 21.234375 35.015625 17.15625 30.90625 
Q 13.09375 26.8125 13.09375 20.65625 
z
" id="ArialMT-56"/>
      </defs>
      <g style="fill:#ffffff;" transform="translate(986.590457 451.657812)scale(0.1 -0.1)">
       <use xlink:href="#ArialMT-50"/>
       <use x="55.615234" xlink:href="#ArialMT-48"/>
       <use x="111.230469" xlink:href="#ArialMT-49"/>
       <use x="166.845703" xlink:href="#ArialMT-56"/>
      </g>
     </g>
    </g>
    <g id="xtick_5">
     <g id="line2d_9">
      <path clip-path="url(#pf9c0f0eea3)" d="M 1204.012661 441 
L 1204.012661 60.48 
" style="fill:none;stroke:#ffffff;stroke-linecap:round;stroke-width:0.2;"/>
     </g>
     <g id="line2d_10"/>
     <g id="text_5">
      <!-- 2019 -->
      <defs>
       <path d="M 5.46875 16.546875 
L 13.921875 17.328125 
Q 14.984375 11.375 18.015625 8.6875 
Q 21.046875 6 25.78125 6 
Q 29.828125 6 32.875 7.859375 
Q 35.9375 9.71875 37.890625 12.8125 
Q 39.84375 15.921875 41.15625 21.1875 
Q 42.484375 26.46875 42.484375 31.9375 
Q 42.484375 32.515625 42.4375 33.6875 
Q 39.796875 29.5 35.234375 26.875 
Q 30.671875 24.265625 25.34375 24.265625 
Q 16.453125 24.265625 10.296875 30.703125 
Q 4.15625 37.15625 4.15625 47.703125 
Q 4.15625 58.59375 10.578125 65.234375 
Q 17 71.875 26.65625 71.875 
Q 33.640625 71.875 39.421875 68.109375 
Q 45.21875 64.359375 48.21875 57.390625 
Q 51.21875 50.4375 51.21875 37.25 
Q 51.21875 23.53125 48.234375 15.40625 
Q 45.265625 7.28125 39.375 3.03125 
Q 33.5 -1.21875 25.59375 -1.21875 
Q 17.1875 -1.21875 11.859375 3.4375 
Q 6.546875 8.109375 5.46875 16.546875 
z
M 41.453125 48.140625 
Q 41.453125 55.71875 37.421875 60.15625 
Q 33.40625 64.59375 27.734375 64.59375 
Q 21.875 64.59375 17.53125 59.8125 
Q 13.1875 55.03125 13.1875 47.40625 
Q 13.1875 40.578125 17.3125 36.296875 
Q 21.4375 32.03125 27.484375 32.03125 
Q 33.59375 32.03125 37.515625 36.296875 
Q 41.453125 40.578125 41.453125 48.140625 
z
" id="ArialMT-57"/>
      </defs>
      <g style="fill:#ffffff;" transform="translate(1192.890786 451.657812)scale(0.1 -0.1)">
       <use xlink:href="#ArialMT-50"/>
       <use x="55.615234" xlink:href="#ArialMT-48"/>
       <use x="111.230469" xlink:href="#ArialMT-49"/>
       <use x="166.845703" xlink:href="#ArialMT-57"/>
      </g>
     </g>
    </g>
   </g>
   <g id="matplotlib.axis_2">
    <g id="ytick_1">
     <g id="line2d_11">
      <path clip-path="url(#pf9c0f0eea3)" d="M 180 426.93898 
L 1296 426.93898 
" style="fill:none;stroke:#ffffff;stroke-linecap:round;stroke-width:0.2;"/>
     </g>
     <g id="line2d_12"/>
     <g id="text_6">
      <!-- 0 -->
      <g style="fill:#ffffff;" transform="translate(170.939063 430.517886)scale(0.1 -0.1)">
       <use xlink:href="#ArialMT-48"/>
      </g>
     </g>
    </g>
    <g id="ytick_2">
     <g id="line2d_13">
      <path clip-path="url(#pf9c0f0eea3)" d="M 180 381.498764 
L 1296 381.498764 
" style="fill:none;stroke:#ffffff;stroke-linecap:round;stroke-width:0.2;"/>
     </g>
     <g id="line2d_14"/>
     <g id="text_7">
      <!-- 2500 -->
      <g style="fill:#ffffff;" transform="translate(154.25625 385.07767)scale(0.1 -0.1)">
       <use xlink:href="#ArialMT-50"/>
       <use x="55.615234" xlink:href="#ArialMT-53"/>
       <use x="111.230469" xlink:href="#ArialMT-48"/>
       <use x="166.845703" xlink:href="#ArialMT-48"/>
      </g>
     </g>
    </g>
    <g id="ytick_3">
     <g id="line2d_15">
      <path clip-path="url(#pf9c0f0eea3)" d="M 180 336.058549 
L 1296 336.058549 
" style="fill:none;stroke:#ffffff;stroke-linecap:round;stroke-width:0.2;"/>
     </g>
     <g id="line2d_16"/>
     <g id="text_8">
      <!-- 5000 -->
      <g style="fill:#ffffff;" transform="translate(154.25625 339.637455)scale(0.1 -0.1)">
       <use xlink:href="#ArialMT-53"/>
       <use x="55.615234" xlink:href="#ArialMT-48"/>
       <use x="111.230469" xlink:href="#ArialMT-48"/>
       <use x="166.845703" xlink:href="#ArialMT-48"/>
      </g>
     </g>
    </g>
    <g id="ytick_4">
     <g id="line2d_17">
      <path clip-path="url(#pf9c0f0eea3)" d="M 180 290.618333 
L 1296 290.618333 
" style="fill:none;stroke:#ffffff;stroke-linecap:round;stroke-width:0.2;"/>
     </g>
     <g id="line2d_18"/>
     <g id="text_9">
      <!-- 7500 -->
      <g style="fill:#ffffff;" transform="translate(154.25625 294.197239)scale(0.1 -0.1)">
       <use xlink:href="#ArialMT-55"/>
       <use x="55.615234" xlink:href="#ArialMT-53"/>
       <use x="111.230469" xlink:href="#ArialMT-48"/>
       <use x="166.845703" xlink:href="#ArialMT-48"/>
      </g>
     </g>
    </g>
    <g id="ytick_5">
     <g id="line2d_19">
      <path clip-path="url(#pf9c0f0eea3)" d="M 180 245.178118 
L 1296 245.178118 
" style="fill:none;stroke:#ffffff;stroke-linecap:round;stroke-width:0.2;"/>
     </g>
     <g id="line2d_20"/>
     <g id="text_10">
      <!-- 10000 -->
      <g style="fill:#ffffff;" transform="translate(148.695312 248.757024)scale(0.1 -0.1)">
       <use xlink:href="#ArialMT-49"/>
       <use x="55.615234" xlink:href="#ArialMT-48"/>
       <use x="111.230469" xlink:href="#ArialMT-48"/>
       <use x="166.845703" xlink:href="#ArialMT-48"/>
       <use x="222.460938" xlink:href="#ArialMT-48"/>
      </g>
     </g>
    </g>
    <g id="ytick_6">
     <g id="line2d_21">
      <path clip-path="url(#pf9c0f0eea3)" d="M 180 199.737902 
L 1296 199.737902 
" style="fill:none;stroke:#ffffff;stroke-linecap:round;stroke-width:0.2;"/>
     </g>
     <g id="line2d_22"/>
     <g id="text_11">
      <!-- 12500 -->
      <g style="fill:#ffffff;" transform="translate(148.695312 203.316808)scale(0.1 -0.1)">
       <use xlink:href="#ArialMT-49"/>
       <use x="55.615234" xlink:href="#ArialMT-50"/>
       <use x="111.230469" xlink:href="#ArialMT-53"/>
       <use x="166.845703" xlink:href="#ArialMT-48"/>
       <use x="222.460938" xlink:href="#ArialMT-48"/>
      </g>
     </g>
    </g>
    <g id="ytick_7">
     <g id="line2d_23">
      <path clip-path="url(#pf9c0f0eea3)" d="M 180 154.297687 
L 1296 154.297687 
" style="fill:none;stroke:#ffffff;stroke-linecap:round;stroke-width:0.2;"/>
     </g>
     <g id="line2d_24"/>
     <g id="text_12">
      <!-- 15000 -->
      <g style="fill:#ffffff;" transform="translate(148.695312 157.876593)scale(0.1 -0.1)">
       <use xlink:href="#ArialMT-49"/>
       <use x="55.615234" xlink:href="#ArialMT-53"/>
       <use x="111.230469" xlink:href="#ArialMT-48"/>
       <use x="166.845703" xlink:href="#ArialMT-48"/>
       <use x="222.460938" xlink:href="#ArialMT-48"/>
      </g>
     </g>
    </g>
    <g id="ytick_8">
     <g id="line2d_25">
      <path clip-path="url(#pf9c0f0eea3)" d="M 180 108.857471 
L 1296 108.857471 
" style="fill:none;stroke:#ffffff;stroke-linecap:round;stroke-width:0.2;"/>
     </g>
     <g id="line2d_26"/>
     <g id="text_13">
      <!-- 17500 -->
      <g style="fill:#ffffff;" transform="translate(148.695312 112.436377)scale(0.1 -0.1)">
       <use xlink:href="#ArialMT-49"/>
       <use x="55.615234" xlink:href="#ArialMT-55"/>
       <use x="111.230469" xlink:href="#ArialMT-53"/>
       <use x="166.845703" xlink:href="#ArialMT-48"/>
       <use x="222.460938" xlink:href="#ArialMT-48"/>
      </g>
     </g>
    </g>
    <g id="ytick_9">
     <g id="line2d_27">
      <path clip-path="url(#pf9c0f0eea3)" d="M 180 63.417256 
L 1296 63.417256 
" style="fill:none;stroke:#ffffff;stroke-linecap:round;stroke-width:0.2;"/>
     </g>
     <g id="line2d_28"/>
     <g id="text_14">
      <!-- 20000 -->
      <g style="fill:#ffffff;" transform="translate(148.695312 66.996162)scale(0.1 -0.1)">
       <use xlink:href="#ArialMT-50"/>
       <use x="55.615234" xlink:href="#ArialMT-48"/>
       <use x="111.230469" xlink:href="#ArialMT-48"/>
       <use x="166.845703" xlink:href="#ArialMT-48"/>
       <use x="222.460938" xlink:href="#ArialMT-48"/>
      </g>
     </g>
    </g>
   </g>
   <g id="line2d_29">
    <path clip-path="url(#pf9c0f0eea3)" d="M 230.727273 417.760056 
L 231.292479 417.160245 
L 232.422892 418.164474 
L 232.988098 417.714618 
L 234.683717 418.010886 
L 235.248924 418.032152 
L 235.81413 417.887652 
L 236.379337 418.509093 
L 236.944543 418.621603 
L 237.509749 418.850621 
L 239.205368 418.771192 
L 239.770575 418.576162 
L 240.900988 418.917873 
L 242.596607 419.106906 
L 243.161813 418.832445 
L 243.727019 418.90515 
L 244.857432 418.66886 
L 245.422639 418.998756 
L 248.813877 418.788823 
L 249.94429 418.814269 
L 250.509496 418.061052 
L 251.074702 417.959993 
L 251.639909 417.360182 
L 252.770322 417.362 
L 253.900734 416.32051 
L 255.031147 416.518266 
L 255.596354 416.533534 
L 256.16156 415.576926 
L 256.726766 415.578926 
L 257.291973 415.197228 
L 258.422385 414.852791 
L 258.987592 415.215404 
L 259.552798 414.893687 
L 260.118005 415.079083 
L 261.248417 414.982023 
L 261.813624 415.115617 
L 262.37883 414.994746 
L 262.944036 415.346272 
L 263.509243 416.192187 
L 264.074449 415.95099 
L 264.639656 416.673308 
L 265.204862 416.577156 
L 265.770068 416.040417 
L 266.335275 415.791586 
L 268.030894 416.171466 
L 269.161307 415.983707 
L 269.726513 416.251441 
L 270.291719 416.276888 
L 270.856926 416.675126 
L 271.987339 416.324327 
L 272.552545 416.019151 
L 273.117751 416.071498 
L 273.682958 415.325188 
L 274.248164 415.1427 
L 274.81337 415.088535 
L 275.943783 415.486228 
L 277.074196 415.378989 
L 277.639402 415.606553 
L 278.769815 415.56075 
L 279.335022 415.724153 
L 279.900228 415.420794 
L 281.030641 415.489863 
L 281.595847 415.67017 
L 283.291466 415.615823 
L 284.421879 415.524216 
L 285.552292 415.69907 
L 286.682704 415.6898 
L 287.247911 416.015152 
L 288.94353 416.129843 
L 290.073943 416.317784 
L 290.639149 416.69421 
L 291.204356 416.323782 
L 292.334768 416.126208 
L 294.030387 416.345048 
L 296.291213 416.250896 
L 296.856419 416.273252 
L 297.421626 416.539532 
L 297.986832 416.642045 
L 298.552038 417.049916 
L 299.117245 417.796408 
L 299.682451 417.967264 
L 300.247658 417.542125 
L 301.37807 418.639597 
L 301.943277 418.247175 
L 302.508483 417.660088 
L 303.07369 417.427797 
L 303.638896 417.540853 
L 304.204102 417.874566 
L 304.769309 417.608286 
L 305.334515 417.838577 
L 306.464928 417.648273 
L 307.030134 417.755876 
L 307.595341 417.718251 
L 308.160547 417.877292 
L 308.725753 418.205552 
L 310.421372 418.281892 
L 310.986579 418.007069 
L 311.551785 418.204825 
L 312.116992 418.132848 
L 312.682198 418.175925 
L 313.247404 418.387131 
L 314.943024 418.273349 
L 315.50823 418.334602 
L 316.638643 418.244812 
L 317.203849 418.279347 
L 318.334262 418.705213 
L 319.464675 419.727072 
L 320.029881 419.529498 
L 320.595087 419.723619 
L 321.160294 419.567304 
L 321.7255 418.99603 
L 323.421119 419.543676 
L 323.986326 419.668727 
L 325.116738 420.137488 
L 325.681945 419.850306 
L 326.812358 420.162571 
L 327.377564 420.419763 
L 328.507977 421.368373 
L 329.073183 420.831815 
L 329.638389 420.942144 
L 330.203596 420.504827 
L 330.768802 420.395589 
L 331.899215 420.366325 
L 332.464421 420.104771 
L 333.029628 419.713804 
L 333.594834 419.604384 
L 334.725247 420.049698 
L 335.85566 419.850306 
L 338.116485 419.996987 
L 338.681692 420.413765 
L 340.942517 420.554629 
L 341.507723 420.531364 
L 342.07293 420.873256 
L 342.638136 420.64969 
L 343.203343 420.766017 
L 343.768549 421.040294 
L 345.464168 420.973588 
L 346.594581 420.617337 
L 347.159787 420.73639 
L 347.724994 420.661687 
L 348.2902 420.399042 
L 348.855406 420.263085 
L 349.420613 420.281988 
L 349.985819 419.304115 
L 350.551026 419.318656 
L 351.681438 420.068419 
L 352.246645 419.83213 
L 352.811851 419.88684 
L 353.377057 420.122947 
L 353.942264 420.122947 
L 354.50747 420.459205 
L 355.637883 420.53918 
L 356.768296 419.993897 
L 357.333502 420.070964 
L 357.898709 420.269265 
L 358.463915 420.231822 
L 359.029121 420.068419 
L 360.72474 419.982992 
L 361.289947 419.949548 
L 362.42036 420.203467 
L 362.985566 420.057332 
L 364.681185 420.29562 
L 365.246391 420.552267 
L 366.376804 420.60316 
L 366.942011 420.528819 
L 367.507217 420.617519 
L 368.072423 420.521731 
L 368.63763 420.634604 
L 369.202836 420.95832 
L 370.333249 421.285126 
L 371.463662 420.951595 
L 372.028868 421.083372 
L 373.159281 420.83545 
L 373.724487 421.068104 
L 374.289694 421.165709 
L 374.8549 420.93142 
L 375.420106 421.197881 
L 376.550519 421.226599 
L 377.115726 421.295305 
L 377.680932 421.125359 
L 378.811345 421.209877 
L 379.941757 422.201928 
L 380.506964 421.858764 
L 381.07217 421.711356 
L 382.202583 421.774063 
L 382.767789 421.667733 
L 383.898202 422.060336 
L 384.463408 422.048158 
L 385.593821 423.703636 
L 386.159028 423.130908 
L 386.724234 423.140723 
L 387.28944 423.306489 
L 388.419853 422.976593 
L 388.98506 423.076561 
L 389.550266 422.83173 
L 390.115472 422.71304 
L 390.680679 422.733033 
L 391.245885 422.431674 
L 391.811091 422.324071 
L 392.376298 421.956733 
L 392.941504 422.13195 
L 393.506711 422.645425 
L 395.20233 422.912977 
L 395.767536 422.805192 
L 396.332742 422.561088 
L 396.897949 422.763933 
L 398.593568 422.878442 
L 399.158774 422.776292 
L 400.289187 422.942422 
L 401.984806 422.885531 
L 402.550013 422.640335 
L 403.115219 422.233191 
L 403.680425 422.685776 
L 404.810838 422.534732 
L 405.376045 422.670871 
L 406.506457 422.480204 
L 407.071664 422.480386 
L 407.63687 422.636882 
L 409.332489 422.615252 
L 409.897696 422.630702 
L 410.462902 422.254093 
L 411.028108 422.287901 
L 411.593315 422.183207 
L 412.723728 421.797692 
L 413.288934 421.97709 
L 413.85414 421.902386 
L 414.984553 421.916382 
L 415.549759 421.948735 
L 416.114966 421.652102 
L 417.245379 421.547589 
L 417.810585 421.562312 
L 418.940998 421.780606 
L 420.07141 421.646285 
L 420.636617 421.77479 
L 421.201823 422.286083 
L 422.332236 422.167394 
L 422.897442 422.199747 
L 423.462649 422.049613 
L 424.027855 422.075241 
L 424.593062 422.412044 
L 425.723474 422.409863 
L 426.288681 422.429856 
L 426.853887 422.332251 
L 427.419093 422.522191 
L 428.549506 422.454576 
L 429.114713 422.461846 
L 430.245125 422.329524 
L 432.505951 422.295717 
L 433.636364 422.523281 
L 434.20157 422.681959 
L 435.331983 422.649423 
L 435.897189 422.895891 
L 436.462396 422.974048 
L 438.158015 422.894982 
L 439.853634 422.875716 
L 440.41884 422.695045 
L 442.679666 422.813372 
L 443.244872 422.949329 
L 443.810079 422.74921 
L 444.375285 422.849542 
L 444.940491 422.829367 
L 445.505698 422.649242 
L 446.63611 422.655603 
L 447.766523 422.596167 
L 448.896936 422.745211 
L 450.027349 422.477114 
L 451.722968 422.518737 
L 457.375032 422.663782 
L 459.635857 422.628521 
L 461.896683 422.638518 
L 463.592302 422.932425 
L 464.722715 422.838455 
L 466.98354 422.879896 
L 468.113953 422.759934 
L 469.809572 422.76575 
L 473.20081 422.402774 
L 474.896429 422.501652 
L 476.026842 422.489292 
L 477.157255 422.549637 
L 477.722461 422.526917 
L 478.287668 422.364059 
L 478.852874 422.413861 
L 479.983287 422.143946 
L 481.678906 422.297171 
L 483.374525 421.959823 
L 483.939732 422.106867 
L 485.070144 422.025802 
L 485.635351 421.734076 
L 486.765763 421.342745 
L 487.33097 421.607934 
L 490.722208 421.940374 
L 491.852621 421.861127 
L 492.983034 421.923289 
L 493.54824 421.679184 
L 494.678653 421.619748 
L 495.243859 421.534502 
L 497.504685 421.76443 
L 498.069891 421.858945 
L 499.76551 421.742073 
L 501.461129 421.863126 
L 502.026336 422.091599 
L 503.156749 422.126134 
L 504.287161 422.034526 
L 504.852368 422.120681 
L 505.417574 422.077967 
L 507.6784 422.341339 
L 508.243606 422.859721 
L 508.808812 422.647424 
L 510.504432 422.802466 
L 511.069638 423.116912 
L 511.634844 422.900253 
L 513.330463 422.687957 
L 514.460876 422.798467 
L 515.026083 422.744121 
L 516.156495 422.766114 
L 516.721702 422.812099 
L 519.547734 422.501834 
L 520.678146 422.584898 
L 521.808559 422.635973 
L 522.373766 422.757753 
L 523.504178 422.754481 
L 524.069385 422.780655 
L 525.199797 422.679959 
L 527.460623 422.752118 
L 530.286655 422.6945 
L 530.851861 422.577083 
L 533.112687 422.61816 
L 535.938719 422.497835 
L 537.634338 422.469117 
L 541.025576 422.18248 
L 541.590782 422.016169 
L 542.721195 422.137039 
L 543.286402 422.031618 
L 543.851608 422.060155 
L 544.982021 421.889481 
L 546.67764 421.725351 
L 547.242846 421.51778 
L 547.808053 421.43617 
L 548.938465 421.035205 
L 549.503672 421.254227 
L 550.068878 420.968135 
L 551.199291 419.629467 
L 551.764497 419.79596 
L 552.329704 419.844853 
L 552.89491 420.120766 
L 553.460116 419.886476 
L 554.025323 420.132035 
L 554.590529 419.983355 
L 555.155736 420.832178 
L 555.720942 421.314208 
L 556.286148 420.878891 
L 556.851355 420.726757 
L 557.416561 420.795826 
L 557.981768 421.117906 
L 559.11218 420.792918 
L 560.242593 420.978314 
L 560.807799 421.084281 
L 561.938212 421.052291 
L 563.633831 420.966681 
L 564.199038 420.524457 
L 564.764244 420.373959 
L 565.32945 420.468475 
L 565.894657 420.105317 
L 566.459863 420.059149 
L 567.02507 420.336335 
L 568.155482 420.385047 
L 568.720689 420.356874 
L 569.285895 419.805048 
L 570.416308 419.726345 
L 571.546721 419.342103 
L 572.111927 419.365186 
L 572.677133 418.739747 
L 573.24234 419.050558 
L 573.807546 419.032382 
L 574.372753 418.886974 
L 574.937959 418.491462 
L 575.503165 418.687218 
L 576.633578 418.522361 
L 577.198785 418.563621 
L 577.763991 418.89388 
L 578.329197 419.017478 
L 578.894404 419.017841 
L 579.45961 418.90515 
L 580.024816 418.652684 
L 580.590023 418.647049 
L 581.155229 419.390451 
L 581.720436 419.234137 
L 582.285642 419.287029 
L 582.850848 419.148709 
L 583.416055 419.21069 
L 584.546467 419.054557 
L 587.372499 419.105268 
L 587.937706 418.627964 
L 590.763738 418.825538 
L 591.328944 419.095453 
L 591.89415 419.127625 
L 592.459357 420.410857 
L 593.024563 419.879388 
L 593.58977 419.995715 
L 594.154976 419.904107 
L 594.720182 420.05097 
L 595.285389 419.310476 
L 595.850595 419.468427 
L 596.415801 420.013709 
L 596.981008 419.930826 
L 597.546214 419.618197 
L 598.111421 419.832857 
L 599.241833 419.759971 
L 599.80704 420.06133 
L 600.937453 420.094593 
L 601.502659 420.295257 
L 602.633072 420.161117 
L 603.198278 420.232367 
L 603.763484 419.851033 
L 604.328691 419.913195 
L 604.893897 420.145667 
L 606.589516 420.141669 
L 607.154723 420.015708 
L 607.719929 420.068601 
L 608.850342 419.79596 
L 609.415548 419.517684 
L 609.980755 419.670363 
L 611.676374 419.277759 
L 612.24158 419.30775 
L 612.806787 418.965131 
L 613.937199 418.936594 
L 614.502406 419.279577 
L 615.067612 419.189424 
L 615.632818 419.216324 
L 616.198025 419.023476 
L 617.328438 419.042379 
L 617.893644 418.95677 
L 618.45885 419.032564 
L 619.024057 419.267035 
L 619.589263 419.294845 
L 620.719676 419.71653 
L 622.415295 419.462247 
L 624.110914 419.296481 
L 624.676121 419.486603 
L 627.502152 419.331924 
L 628.067359 419.51932 
L 628.632565 419.554763 
L 630.893391 419.320837 
L 632.023803 419.374093 
L 632.58901 419.36664 
L 633.154216 419.205782 
L 633.719423 419.218324 
L 634.284629 419.379364 
L 635.415042 419.356098 
L 636.545455 419.299571 
L 639.936693 419.317565 
L 641.067106 419.28503 
L 644.458344 419.087092 
L 645.588757 419.131624 
L 647.284376 418.741747 
L 647.849582 418.806272 
L 650.110408 418.435843 
L 650.675614 418.796275 
L 652.93644 418.739747 
L 653.501646 418.86389 
L 654.066852 418.73284 
L 655.197265 418.785369 
L 655.762472 418.533085 
L 659.15371 418.686673 
L 660.849329 418.598156 
L 661.979742 418.708848 
L 662.544948 418.670496 
L 663.110154 418.897152 
L 664.805774 418.980944 
L 667.066599 418.693762 
L 667.631806 418.330785 
L 668.197012 417.214955 
L 668.762218 417.472329 
L 669.327425 417.21441 
L 669.892631 417.263667 
L 671.023044 417.074454 
L 671.58825 416.596605 
L 672.718663 416.463011 
L 673.283869 416.318693 
L 673.849076 416.479187 
L 674.414282 416.3236 
L 674.979488 416.453559 
L 675.544695 416.435019 
L 676.109901 416.154926 
L 676.675108 414.551795 
L 677.240314 414.214084 
L 677.80552 414.507082 
L 678.370727 414.31896 
L 678.935933 412.837609 
L 679.50114 413.449961 
L 680.631552 413.017734 
L 682.327171 415.942448 
L 683.457584 414.927131 
L 684.022791 414.741008 
L 684.587997 415.455147 
L 685.153203 415.179052 
L 685.71841 415.142518 
L 686.283616 415.342637 
L 686.848822 414.728467 
L 687.414029 414.607596 
L 687.979235 414.190091 
L 688.544442 414.879328 
L 689.109648 414.637405 
L 689.674854 414.813894 
L 690.240061 414.643221 
L 690.805267 415.373536 
L 691.370474 414.94349 
L 691.93568 415.115436 
L 693.066093 415.164148 
L 693.631299 414.635223 
L 694.196505 414.887871 
L 695.326918 414.872421 
L 695.892125 414.881146 
L 696.457331 414.567972 
L 698.718156 414.856063 
L 699.283363 415.202681 
L 700.413776 414.91877 
L 700.978982 415.042368 
L 703.805014 415.040732 
L 704.935427 415.844842 
L 709.457078 415.958806 
L 710.022284 416.192369 
L 710.587491 416.183281 
L 711.152697 416.322328 
L 711.717903 416.337596 
L 712.28311 416.611509 
L 712.848316 416.654587 
L 713.413522 416.451378 
L 714.543935 416.536442 
L 716.239554 416.376129 
L 716.804761 416.247079 
L 718.50038 416.436292 
L 719.065586 416.432838 
L 719.630793 416.605511 
L 721.326412 416.410482 
L 722.456825 416.531898 
L 723.022031 416.479006 
L 723.587237 415.905005 
L 724.152444 415.783225 
L 725.848063 415.681621 
L 726.413269 415.486228 
L 726.978476 415.569656 
L 727.543682 415.507676 
L 728.108888 415.855566 
L 730.369714 415.806127 
L 731.500127 415.883194 
L 732.065333 415.782134 
L 734.326159 416.098035 
L 734.891365 415.960805 
L 738.282603 415.928997 
L 739.413016 415.777227 
L 739.978222 415.852839 
L 741.673841 415.770502 
L 742.239048 415.778136 
L 743.369461 415.657265 
L 743.934667 415.753053 
L 744.499873 415.691254 
L 745.06508 415.278112 
L 746.195493 415.346999 
L 747.891112 415.231399 
L 749.586731 415.459872 
L 750.717144 415.392621 
L 751.28235 414.880237 
L 752.412763 415.033825 
L 754.108382 414.474002 
L 754.673588 414.386575 
L 755.238795 413.855651 
L 755.804001 414.173914 
L 756.369207 414.179731 
L 756.934414 413.615909 
L 757.49962 413.534298 
L 758.064827 414.575788 
L 758.630033 414.055588 
L 759.195239 414.068311 
L 759.760446 413.941988 
L 760.890858 414.134472 
L 762.021271 413.790035 
L 762.586478 413.945441 
L 763.151684 413.913815 
L 763.71689 414.150831 
L 764.847303 414.080671 
L 765.412509 413.997606 
L 765.977716 413.425605 
L 766.542922 413.476498 
L 767.108129 413.234756 
L 767.673335 413.254204 
L 768.238541 413.676435 
L 769.368954 413.309641 
L 770.499367 413.532117 
L 771.064573 413.482133 
L 772.194986 413.761499 
L 772.760192 413.642809 
L 773.325399 413.651352 
L 773.890605 413.506852 
L 775.021018 412.858875 
L 775.586224 412.991196 
L 776.151431 412.970657 
L 776.716637 413.291465 
L 778.977463 412.934305 
L 781.238288 412.852513 
L 782.368701 412.808345 
L 783.499114 412.561877 
L 784.629526 412.569148 
L 785.194733 412.409925 
L 786.325146 411.325722 
L 786.890352 410.235338 
L 787.455558 410.66702 
L 788.020765 410.60922 
L 788.585971 410.420916 
L 789.151178 409.918347 
L 789.716384 409.095516 
L 790.846797 409.505205 
L 791.412003 409.369793 
L 791.977209 408.776707 
L 793.107622 408.072202 
L 793.672829 406.225512 
L 794.238035 408.701095 
L 794.803241 410.607766 
L 795.933654 410.291502 
L 796.49886 410.525792 
L 797.064067 410.47599 
L 797.629273 412.76963 
L 798.759686 411.903358 
L 799.324892 412.11002 
L 800.455305 411.851011 
L 801.020512 410.50798 
L 801.585718 410.796071 
L 802.150924 410.552147 
L 802.716131 410.650662 
L 803.281337 410.143913 
L 803.846543 410.149365 
L 804.976956 410.826788 
L 805.542163 410.701373 
L 806.107369 410.301136 
L 807.237782 410.227341 
L 807.802988 410.352392 
L 808.368194 410.264965 
L 808.933401 409.377245 
L 811.194226 408.197617 
L 811.759433 408.642931 
L 812.324639 408.352114 
L 812.889846 407.815919 
L 813.455052 407.874083 
L 814.020258 409.035717 
L 815.150671 408.762893 
L 816.281084 408.826146 
L 816.84629 408.521152 
L 817.411497 408.508428 
L 818.541909 407.728674 
L 819.107116 407.675964 
L 819.672322 407.741397 
L 820.802735 406.407273 
L 821.367941 406.461801 
L 821.933148 405.296714 
L 822.498354 405.396682 
L 823.06356 405.981952 
L 823.628767 405.514827 
L 824.193973 405.202198 
L 824.75918 405.325796 
L 825.324386 404.495148 
L 825.889592 404.084369 
L 826.454799 403.497281 
L 827.020005 403.909878 
L 827.585211 403.702671 
L 828.150418 403.68813 
L 828.715624 404.540589 
L 829.280831 406.036481 
L 829.846037 405.303984 
L 830.411243 406.701725 
L 831.541656 404.68418 
L 835.498101 407.984957 
L 836.063307 406.647197 
L 836.628514 408.228517 
L 837.19372 408.297586 
L 837.758926 409.897263 
L 838.324133 409.488665 
L 838.889339 409.555371 
L 839.454545 408.11219 
L 840.019752 407.99041 
L 841.150165 408.1649 
L 841.715371 407.290631 
L 842.280577 407.234285 
L 842.845784 406.77443 
L 843.41099 405.9456 
L 843.976197 406.292763 
L 844.541403 406.461801 
L 845.106609 405.14767 
L 846.237022 405.400318 
L 846.802228 404.800507 
L 847.367435 404.793236 
L 847.932641 404.429715 
L 848.497848 404.658733 
L 849.063054 405.327613 
L 849.62826 404.985903 
L 850.193467 405.165846 
L 851.323879 404.429715 
L 851.889086 403.906243 
L 852.454292 403.891702 
L 853.019499 403.275533 
L 854.149911 402.528496 
L 855.280324 402.499414 
L 855.845531 402.037742 
L 856.975943 400.663629 
L 857.54115 401.512453 
L 858.671562 400.734516 
L 859.236769 399.17319 
L 859.801975 398.771499 
L 860.367182 397.620953 
L 860.932388 398.106254 
L 861.497594 398.371625 
L 862.062801 397.971751 
L 862.628007 397.428286 
L 863.75842 394.785483 
L 864.323626 394.585546 
L 864.888833 393.164176 
L 865.454039 394.767307 
L 866.019245 393.967559 
L 866.584452 393.93666 
L 867.149658 394.552829 
L 867.714865 394.554647 
L 868.280071 392.860636 
L 868.845277 391.566498 
L 869.410484 391.13209 
L 869.97569 389.350833 
L 870.540896 389.897934 
L 871.106103 390.915794 
L 871.671309 386.44266 
L 872.236516 383.687165 
L 872.801722 383.734423 
L 873.366928 388.529274 
L 873.932135 391.497429 
L 874.497341 389.986996 
L 875.062547 387.071552 
L 875.627754 388.660142 
L 877.888579 381.913179 
L 878.453786 381.931355 
L 879.018992 379.337438 
L 879.584199 375.524285 
L 880.149405 378.321584 
L 880.714611 376.489435 
L 881.279818 375.889624 
L 881.845024 375.78602 
L 882.41023 373.563085 
L 882.975437 380.702652 
L 883.540643 378.208893 
L 884.10585 383.785316 
L 884.671056 383.585379 
L 885.236262 382.8856 
L 885.801469 379.135873 
L 886.366675 381.878644 
L 886.931881 380.26279 
L 887.497088 377.003818 
L 888.062294 379.661162 
L 888.627501 378.317949 
L 889.192707 378.007138 
L 889.757913 381.76777 
L 890.32312 382.18582 
L 890.888326 383.361813 
L 891.453533 381.578739 
L 892.018739 381.286104 
L 892.583945 381.675072 
L 893.149152 382.843795 
L 893.714358 384.588699 
L 894.844771 380.580872 
L 895.409977 380.391841 
L 895.975184 379.659344 
L 896.54039 379.726596 
L 897.105596 382.338499 
L 897.670803 380.746274 
L 898.236009 381.55511 
L 898.801215 384.926774 
L 899.366422 384.850434 
L 899.931628 383.968894 
L 900.496835 384.485095 
L 901.062041 386.897062 
L 901.627247 389.952462 
L 902.192454 391.495612 
L 902.75766 387.044288 
L 903.322867 385.221227 
L 903.888073 385.982805 
L 904.453279 375.229832 
L 905.018486 377.899899 
L 905.583692 375.391599 
L 906.148898 377.358252 
L 906.714105 376.545781 
L 907.279311 380.733551 
L 907.844518 381.298827 
L 908.409724 378.236157 
L 908.97493 376.273139 
L 909.540137 377.881723 
L 910.105343 377.318264 
L 910.67055 375.173486 
L 911.235756 377.75449 
L 911.800962 378.059849 
L 912.366169 375.956876 
L 912.931375 375.06443 
L 913.496581 368.144794 
L 914.061788 367.863064 
L 914.626994 365.3584 
L 915.192201 364.218759 
L 915.757407 367.097851 
L 916.322613 364.674979 
L 916.88782 360.356341 
L 917.453026 357.24096 
L 918.018232 352.253441 
L 918.583439 349.728783 
L 919.148645 350.92477 
L 919.713852 348.33286 
L 920.279058 348.505533 
L 920.844264 352.389762 
L 921.409471 351.42643 
L 921.974677 351.6918 
L 922.539884 354.094679 
L 923.10509 353.543944 
L 923.670296 351.631819 
L 924.235503 348.214715 
L 924.800709 347.622175 
L 925.365915 348.098388 
L 925.931122 348.091118 
L 926.496328 347.511301 
L 927.061535 343.279908 
L 927.626741 343.847002 
L 928.757154 338.534132 
L 929.32236 346.313497 
L 929.887566 344.001498 
L 930.452773 349.688796 
L 931.583186 343.067248 
L 932.148392 342.929109 
L 932.713598 348.514621 
L 933.278805 348.08203 
L 933.844011 349.459777 
L 934.409218 350.444921 
L 934.974424 351.153788 
L 935.53963 355.414263 
L 936.104837 367.019694 
L 936.670043 358.934971 
L 937.235249 359.494794 
L 937.800456 359.669285 
L 938.365662 353.344007 
L 938.930869 355.730527 
L 939.496075 355.161615 
L 940.061281 361.13973 
L 940.626488 361.430547 
L 941.191694 358.745939 
L 941.7569 360.032806 
L 942.322107 355.606929 
L 942.887313 356.306709 
L 943.45252 350.670304 
L 944.582932 351.279203 
L 945.148139 347.609451 
L 945.713345 346.836968 
L 946.278552 347.434961 
L 946.843758 348.600048 
L 947.408964 350.197726 
L 947.974171 347.696697 
L 948.539377 347.836653 
L 949.104583 345.766396 
L 949.66979 342.836411 
L 950.234996 340.562583 
L 950.800203 339.859168 
L 951.365409 339.421125 
L 951.930615 330.376704 
L 952.495822 324.351332 
L 953.061028 322.428302 
L 953.626234 323.004484 
L 954.191441 323.062647 
L 954.756647 325.970821 
L 955.321854 325.463708 
L 955.88706 323.166251 
L 956.452266 317.7934 
L 957.017473 316.515621 
L 957.582679 319.51831 
L 958.147886 319.89819 
L 958.713092 327.13409 
L 959.278298 323.971451 
L 959.843505 320.132662 
L 960.408711 322.030245 
L 960.973917 322.608245 
L 961.539124 314.527157 
L 962.10433 316.17391 
L 964.365156 295.213248 
L 964.930362 292.810369 
L 965.495568 293.857312 
L 966.625981 300.497036 
L 967.191188 297.852415 
L 967.756394 291.581666 
L 968.3216 297.408919 
L 968.886807 308.045565 
L 969.452013 312.380561 
L 970.01722 321.323196 
L 970.582426 309.221557 
L 971.147632 307.158572 
L 972.278045 283.998603 
L 972.843251 287.42116 
L 973.408458 285.650809 
L 973.973664 280.608762 
L 974.538871 277.00808 
L 975.104077 280.088926 
L 975.669283 277.34979 
L 976.23449 281.795661 
L 976.799696 278.047752 
L 977.930109 257.84685 
L 978.495315 250.160183 
L 979.060522 247.088424 
L 979.625728 249.322265 
L 980.190934 246.866676 
L 980.756141 229.546683 
L 981.321347 229.255866 
L 981.886554 224.075682 
L 982.45176 216.114556 
L 983.016966 216.278141 
L 983.582173 181.507288 
L 984.147379 125.088716 
L 984.712585 139.451813 
L 985.277792 160.477556 
L 985.842998 155.44278 
L 986.408205 122.416831 
L 987.538617 132.995314 
L 988.103824 129.141983 
L 988.66903 107.593332 
L 989.234237 77.776364 
L 989.799443 82.338561 
L 990.364649 82.956548 
L 990.929856 111.765645 
L 992.060268 142.483231 
L 992.625475 187.48722 
L 993.190681 171.819434 
L 993.755888 181.252822 
L 994.321094 179.12622 
L 994.8863 141.937948 
L 995.451507 147.481654 
L 996.016713 166.602897 
L 996.581919 166.875538 
L 997.147126 201.828152 
L 997.712332 176.672449 
L 998.277539 183.833827 
L 998.842745 159.330722 
L 999.407951 151.862091 
L 999.973158 151.116871 
L 1000.538364 119.763123 
L 1001.103571 114.764699 
L 1001.668777 132.849905 
L 1002.233983 155.751773 
L 1002.79919 164.076421 
L 1003.364396 156.115295 
L 1003.929602 186.033133 
L 1004.494809 176.10899 
L 1005.060015 168.893084 
L 1005.625222 180.671188 
L 1006.190428 179.798736 
L 1006.755634 225.739305 
L 1007.320841 224.784549 
L 1007.886047 227.025027 
L 1008.451253 218.459271 
L 1009.01646 195.539226 
L 1009.581666 217.514114 
L 1010.146873 230.837186 
L 1010.712079 230.16467 
L 1011.277285 223.603103 
L 1011.842492 224.620964 
L 1012.407698 220.095119 
L 1012.972905 211.570534 
L 1013.538111 222.948764 
L 1014.103317 243.778559 
L 1014.668524 241.688309 
L 1015.23373 258.392132 
L 1015.798936 266.069711 
L 1016.364143 260.44603 
L 1016.929349 277.004445 
L 1017.494556 301.814802 
L 1018.059762 286.397846 
L 1018.624968 287.528398 
L 1019.755381 268.80703 
L 1020.320587 271.186279 
L 1020.885794 280.27614 
L 1021.451 265.439001 
L 1022.016207 271.784273 
L 1022.581413 254.829619 
L 1023.146619 242.815226 
L 1023.711826 241.997303 
L 1024.277032 226.72939 
L 1024.842239 236.817118 
L 1025.407445 224.057505 
L 1025.972651 223.984801 
L 1027.103064 248.100832 
L 1027.66827 241.415668 
L 1028.233477 250.99083 
L 1028.798683 253.639086 
L 1029.36389 239.725292 
L 1029.929096 233.036492 
L 1030.494302 239.834348 
L 1031.059509 228.092597 
L 1031.624715 226.602158 
L 1032.189921 218.586503 
L 1032.755128 217.296001 
L 1033.320334 217.096064 
L 1034.450747 247.359248 
L 1035.015953 256.945856 
L 1035.58116 257.84685 
L 1036.146366 266.849465 
L 1036.711573 254.535167 
L 1037.276779 261.565677 
L 1037.841985 260.616885 
L 1038.407192 278.347657 
L 1038.972398 276.664552 
L 1039.537604 272.545851 
L 1040.102811 281.657523 
L 1040.668017 278.858405 
L 1041.79843 264.590178 
L 1042.363636 265.717095 
L 1042.928843 268.972432 
L 1044.059256 269.903048 
L 1044.624462 272.787593 
L 1045.754875 282.866232 
L 1046.320081 282.220981 
L 1046.885287 295.709455 
L 1047.450494 303.803266 
L 1048.0157 300.722419 
L 1048.580907 303.230719 
L 1049.146113 299.241068 
L 1049.711319 292.542584 
L 1050.276526 304.40853 
L 1050.841732 303.705115 
L 1051.406938 307.056786 
L 1051.972145 300.733325 
L 1052.537351 298.959339 
L 1053.102558 305.188284 
L 1053.667764 303.608782 
L 1054.23297 301.129564 
L 1054.798177 284.729281 
L 1055.363383 284.027684 
L 1055.92859 280.381561 
L 1056.493796 275.479471 
L 1057.059002 281.366705 
L 1057.624209 283.531477 
L 1058.189415 278.647563 
L 1058.754621 276.617294 
L 1059.319828 265.33358 
L 1059.885034 266.933075 
L 1060.450241 266.393245 
L 1061.015447 264.6338 
L 1061.580653 253.128338 
L 1062.14586 262.937971 
L 1062.711066 260.300621 
L 1063.276272 262.263639 
L 1063.841479 257.294297 
L 1064.406685 255.854751 
L 1064.971892 260.11886 
L 1065.537098 262.263639 
L 1066.102304 258.919239 
L 1066.667511 251.214396 
L 1067.232717 249.811202 
L 1067.797924 247.826373 
L 1068.36313 251.647685 
L 1068.928336 258.088592 
L 1069.493543 259.119176 
L 1070.058749 257.34519 
L 1070.623955 261.514784 
L 1071.189162 273.861799 
L 1071.754368 273.042058 
L 1072.319575 268.452596 
L 1072.884781 269.179639 
L 1073.449987 273.698214 
L 1074.015194 276.253772 
L 1074.5804 280.116191 
L 1075.145606 277.856903 
L 1075.710813 277.773374 
L 1076.276019 272.514951 
L 1076.841226 274.799685 
L 1077.971638 289.202416 
L 1078.536845 289.475057 
L 1079.102051 293.039388 
L 1079.667258 293.755526 
L 1080.232464 293.819142 
L 1080.79767 298.05417 
L 1081.362877 291.817955 
L 1081.928083 293.328388 
L 1084.188909 287.023103 
L 1084.754115 290.440207 
L 1085.319321 288.437203 
L 1085.884528 287.848298 
L 1087.01494 287.935921 
L 1087.580147 289.109718 
L 1088.145353 305.211913 
L 1088.71056 303.915958 
L 1089.840972 311.987958 
L 1090.406179 307.12949 
L 1090.971385 309.830456 
L 1091.536592 308.26186 
L 1092.101798 309.119771 
L 1092.667004 304.977441 
L 1093.232211 304.688441 
L 1093.797417 304.7048 
L 1094.362623 304.566662 
L 1094.92783 316.830067 
L 1095.493036 314.536245 
L 1096.058243 315.026999 
L 1096.623449 313.520202 
L 1097.188655 314.979741 
L 1097.753862 315.346898 
L 1098.319068 319.304096 
L 1098.884274 313.692875 
L 1099.449481 311.744398 
L 1100.014687 311.268185 
L 1100.579894 306.42244 
L 1101.1451 308.569036 
L 1101.710306 305.504548 
L 1102.275513 308.236414 
L 1102.840719 307.354873 
L 1103.405926 307.594798 
L 1103.971132 304.234039 
L 1104.536338 305.179196 
L 1105.101545 311.162971 
L 1105.666751 311.042006 
L 1106.231957 315.132421 
L 1107.36237 313.169403 
L 1107.927577 311.329983 
L 1108.492783 305.784459 
L 1109.057989 294.466047 
L 1109.623196 293.173891 
L 1110.188402 290.72739 
L 1110.753609 293.255683 
L 1111.318815 292.130584 
L 1111.884021 292.052426 
L 1112.449228 286.256072 
L 1113.014434 275.826634 
L 1113.57964 276.459162 
L 1114.144847 282.537245 
L 1114.710053 277.131677 
L 1115.27526 277.985953 
L 1116.405672 278.14772 
L 1116.970879 286.655946 
L 1117.536085 289.271485 
L 1118.101291 289.722282 
L 1118.666498 291.765244 
L 1119.231704 299.648213 
L 1119.796911 299.168364 
L 1120.362117 302.143789 
L 1120.927323 304.259486 
L 1121.49253 312.844051 
L 1122.057736 306.976811 
L 1122.622943 315.943204 
L 1123.188149 310.702908 
L 1124.318562 313.225749 
L 1124.883768 315.054263 
L 1125.448974 310.811965 
L 1126.014181 312.589586 
L 1126.579387 307.59298 
L 1127.144594 310.505486 
L 1127.7098 308.747162 
L 1128.275006 312.156995 
L 1128.840213 309.296079 
L 1129.405419 311.051889 
L 1129.970625 308.730803 
L 1130.535832 305.210095 
L 1131.101038 304.761146 
L 1131.666245 305.395491 
L 1132.231451 304.290385 
L 1132.796657 298.250472 
L 1133.361864 298.757585 
L 1133.92707 300.953256 
L 1134.492277 299.235616 
L 1135.057483 295.843958 
L 1135.622689 294.357154 
L 1136.187896 294.408047 
L 1136.753102 293.150262 
L 1137.883515 309.626884 
L 1138.448721 310.38311 
L 1139.013928 314.685289 
L 1139.579134 313.234837 
L 1140.709547 312.304222 
L 1141.274753 311.953423 
L 1141.839959 309.01435 
L 1142.405166 308.143715 
L 1142.970372 308.3382 
L 1143.535579 308.89257 
L 1144.100785 313.198485 
L 1144.665991 311.464486 
L 1145.231198 310.913751 
L 1145.796404 308.891609 
L 1146.361611 304.475781 
L 1146.926817 304.959265 
L 1147.492023 305.050146 
L 1148.05723 306.88593 
L 1148.622436 310.39028 
L 1149.187642 309.452394 
L 1149.752849 305.54817 
L 1150.318055 306.284706 
L 1151.448468 306.649641 
L 1152.578881 307.523911 
L 1153.144087 309.21974 
L 1153.709293 307.042245 
L 1154.2745 306.522409 
L 1154.839706 307.151301 
L 1155.404913 307.234911 
L 1155.970119 305.700849 
L 1156.535325 305.739019 
L 1157.100532 306.722346 
L 1157.665738 312.709548 
L 1158.796151 311.973209 
L 1159.361357 311.186392 
L 1159.926564 304.62119 
L 1160.49177 304.842938 
L 1161.056976 304.457605 
L 1161.622183 307.040427 
L 1162.752596 307.182201 
L 1163.317802 306.940459 
L 1163.883008 307.540269 
L 1165.013421 307.556628 
L 1166.143834 308.149168 
L 1166.70904 308.954369 
L 1167.839453 311.755304 
L 1168.404659 311.85709 
L 1168.969866 311.06643 
L 1169.535072 310.682915 
L 1170.100279 310.066745 
L 1170.665485 310.911933 
L 1171.230691 309.314255 
L 1171.795898 309.421494 
L 1172.361104 308.740666 
L 1172.92631 307.485741 
L 1173.491517 309.110683 
L 1174.056723 310.246689 
L 1175.187136 309.775928 
L 1175.752342 309.801375 
L 1176.882755 320.243536 
L 1177.447962 322.671861 
L 1178.013168 324.236822 
L 1178.578374 324.705765 
L 1179.143581 324.153212 
L 1179.708787 336.454787 
L 1180.273993 344.958219 
L 1180.8392 341.691318 
L 1181.404406 346.369842 
L 1181.969613 346.478899 
L 1182.534819 354.848987 
L 1183.100025 352.118938 
L 1184.230438 356.446665 
L 1184.795644 348.372847 
L 1185.360851 348.80362 
L 1185.926057 353.609378 
L 1186.491264 349.63245 
L 1187.05647 351.689983 
L 1187.621676 356.092231 
L 1188.186883 354.719936 
L 1188.752089 358.371512 
L 1189.317296 362.886452 
L 1189.882502 364.293281 
L 1190.447708 362.704691 
L 1191.012915 360.461762 
L 1191.578121 362.757402 
L 1192.143327 364.562287 
L 1192.708534 362.870093 
L 1193.27374 366.099984 
L 1193.838947 367.44865 
L 1194.969359 366.912093 
L 1195.534566 360.987051 
L 1196.099772 358.487839 
L 1196.664978 357.62084 
L 1197.230185 350.55943 
L 1197.795391 354.681767 
L 1198.360598 351.893685 
L 1198.925804 352.836894 
L 1199.49101 351.664296 
L 1200.056217 356.201287 
L 1200.621423 355.541495 
L 1201.18663 359.349386 
L 1201.751836 353.752969 
L 1202.317042 356.234004 
L 1202.882249 354.668559 
L 1203.447455 357.406362 
L 1204.012661 355.018024 
L 1204.577868 353.125894 
L 1206.273487 355.854124 
L 1206.838693 351.090172 
L 1207.4039 352.197096 
L 1208.534312 352.709661 
L 1209.664725 359.503882 
L 1210.229932 359.662014 
L 1210.795138 361.868591 
L 1211.360344 358.780474 
L 1211.925551 360.489026 
L 1212.490757 360.036442 
L 1213.055964 359.413002 
L 1213.62117 360.106364 
L 1214.186376 358.447852 
L 1214.751583 361.743176 
L 1215.316789 361.864956 
L 1215.881995 360.756215 
L 1216.447202 361.143365 
L 1217.012408 360.685861 
L 1217.577615 360.948881 
L 1218.142821 360.894353 
L 1218.708027 361.510522 
L 1219.273234 363.231798 
L 1219.83844 363.708011 
L 1220.403646 362.751949 
L 1220.968853 363.344489 
L 1221.534059 362.579276 
L 1222.099266 362.168497 
L 1222.664472 363.340854 
L 1223.229678 363.497168 
L 1223.794885 363.124559 
L 1224.360091 364.232417 
L 1224.925298 364.485947 
L 1225.490504 359.432996 
L 1226.05571 359.353021 
L 1226.620917 358.924065 
L 1227.186123 359.985549 
L 1227.751329 359.749259 
L 1228.316536 360.319989 
L 1228.881742 360.469032 
L 1229.446949 360.329077 
L 1230.012155 359.980096 
L 1230.577361 358.9586 
L 1231.142568 354.779917 
L 1231.707774 354.519999 
L 1232.272981 353.454881 
L 1232.838187 354.260081 
L 1233.403393 353.024108 
L 1233.9686 350.414022 
L 1235.099012 355.601477 
L 1235.664219 356.103137 
L 1236.229425 356.015891 
L 1236.794632 356.143124 
L 1237.359838 355.634194 
L 1237.925044 355.820783 
L 1238.490251 356.361237 
L 1239.055457 357.87167 
L 1239.620663 355.267037 
L 1240.751076 354.925326 
L 1241.316283 355.296118 
L 1241.881489 354.052874 
L 1242.446695 354.114673 
L 1243.011902 355.078005 
L 1243.577108 354.921691 
L 1244.142315 355.185244 
L 1244.707521 355.232502 
L 1245.272727 354.269169 
L 1245.272727 354.269169 
" style="fill:none;stroke:#8dd3c7;stroke-linecap:round;stroke-width:1.5;"/>
   </g>
   <g id="patch_3">
    <path d="M 180 441 
L 180 60.48 
" style="fill:none;"/>
   </g>
   <g id="patch_4">
    <path d="M 1296 441 
L 1296 60.48 
" style="fill:none;"/>
   </g>
   <g id="patch_5">
    <path d="M 180 441 
L 1296 441 
" style="fill:none;"/>
   </g>
   <g id="patch_6">
    <path d="M 180 60.48 
L 1296 60.48 
" style="fill:none;"/>
   </g>
   <g id="text_15">
    <!-- BTC x USD (Bitfinex) -->
    <defs>
     <path d="M 2.5 65.203125 
L 2.5 68.203125 
L 8.40625 68.5 
Q 17.796875 69 23.796875 69.25 
Q 29.796875 69.5 31.40625 69.5 
Q 35.703125 69.5 40.046875 68.84375 
Q 44.40625 68.203125 47.84375 66.59375 
Q 51.296875 65 53.4375 62.25 
Q 55.59375 59.5 55.59375 55.296875 
Q 55.59375 52.90625 54.546875 50.75 
Q 53.5 48.59375 51.703125 46.890625 
Q 49.90625 45.203125 47.453125 43.953125 
Q 45 42.703125 42.203125 42.09375 
Q 46.296875 41.5 49.796875 40.34375 
Q 53.296875 39.203125 55.84375 37.203125 
Q 58.40625 35.203125 59.84375 32.203125 
Q 61.296875 29.203125 61.296875 24.90625 
Q 61.296875 20.703125 59 17.203125 
Q 56.703125 13.703125 52.75 11.203125 
Q 48.796875 8.703125 43.59375 7.296875 
Q 38.40625 5.90625 32.59375 5.90625 
Q 27.09375 5.90625 21.6875 5.953125 
Q 16.296875 6 10.796875 6 
L 2.703125 6 
L 2.703125 9.09375 
L 7.703125 10.296875 
Q 9.5 10.796875 10.34375 11.796875 
Q 11.203125 12.796875 11.203125 15.703125 
L 11.203125 61.296875 
Q 11.203125 62.09375 11.140625 62.59375 
Q 11.09375 63.09375 10.640625 63.5 
Q 10.203125 63.90625 9.296875 64.15625 
Q 8.40625 64.40625 6.703125 64.59375 
z
M 23.59375 42.40625 
Q 24.40625 42.203125 26.09375 42.140625 
Q 27.796875 42.09375 31.09375 42.09375 
Q 36.703125 42.09375 39.546875 45.390625 
Q 42.40625 48.703125 42.40625 55 
Q 42.40625 57.59375 41.5 59.546875 
Q 40.59375 61.5 39.046875 62.84375 
Q 37.5 64.203125 35.453125 64.890625 
Q 33.40625 65.59375 31.203125 65.59375 
Q 27.203125 65.59375 23.59375 64.703125 
z
M 23.59375 38 
L 23.59375 17.203125 
Q 23.59375 13.40625 26.390625 11.5 
Q 29.203125 9.59375 34.203125 9.59375 
Q 40.203125 9.59375 43.640625 13.34375 
Q 47.09375 17.09375 47.09375 23.296875 
Q 47.09375 30.90625 43.09375 34.65625 
Q 39.09375 38.40625 31.296875 38.40625 
Q 29.59375 38.40625 27.59375 38.296875 
Q 25.59375 38.203125 23.59375 38 
z
" id="STSongti-SC-Black-66"/>
     <path d="M 5.09375 70.59375 
Q 5.796875 73.296875 6.5 73.25 
Q 7.203125 73.203125 8.296875 71.203125 
Q 8.796875 70.203125 9.25 69.640625 
Q 9.703125 69.09375 10.203125 68.84375 
Q 10.703125 68.59375 11.453125 68.546875 
Q 12.203125 68.5 13.296875 68.5 
L 52 68.5 
Q 53.90625 68.5 55 68.59375 
Q 56.09375 68.703125 56.75 69.046875 
Q 57.40625 69.40625 57.796875 69.953125 
Q 58.203125 70.5 58.59375 71.40625 
Q 59.5 73.296875 60.296875 73.296875 
Q 61.59375 73.296875 61.59375 71.296875 
L 61.40625 53.40625 
Q 61.40625 52.59375 61.15625 52.140625 
Q 60.90625 51.703125 60.453125 51.84375 
Q 60 52 59.5 52.84375 
Q 59 53.703125 58.59375 55.703125 
Q 58.09375 57.59375 57.59375 59.046875 
Q 57.09375 60.5 56.09375 61.5 
Q 55.09375 62.5 53.5 62.953125 
Q 51.90625 63.40625 49.203125 63.40625 
L 39 63.40625 
L 39 15 
Q 39 12.40625 39.640625 11.453125 
Q 40.296875 10.5 42.40625 10 
L 50.203125 8.296875 
L 50.203125 5.703125 
Q 48.90625 5.796875 46.796875 5.84375 
Q 44.703125 5.90625 42.140625 5.953125 
Q 39.59375 6 36.6875 6 
Q 33.796875 6 30.796875 6 
Q 27.90625 6 25.09375 6 
Q 22.296875 6 20 5.953125 
Q 17.703125 5.90625 16.09375 5.84375 
Q 14.5 5.796875 13.90625 5.703125 
L 13.90625 8.296875 
L 21.5 9.703125 
Q 24.40625 10.203125 25.296875 11.453125 
Q 26.203125 12.703125 26.203125 15.09375 
L 26.203125 63.40625 
L 15.796875 63.40625 
Q 14.203125 63.5 13 63.140625 
Q 11.796875 62.796875 10.546875 61.84375 
Q 9.296875 60.90625 7.890625 59.15625 
Q 6.5 57.40625 4.59375 54.59375 
Q 3.203125 52.703125 2.546875 52.203125 
Q 1.90625 51.703125 1.65625 52.140625 
Q 1.40625 52.59375 1.546875 53.75 
Q 1.703125 54.90625 2 56.296875 
z
" id="STSongti-SC-Black-84"/>
     <path d="M 61.09375 22.796875 
Q 60.796875 21.296875 60.5 19.25 
Q 60.203125 17.203125 59.796875 15 
Q 59.40625 12.796875 58.953125 10.6875 
Q 58.5 8.59375 58 6.90625 
Q 54.796875 5.59375 50 5 
Q 45.203125 4.40625 38.203125 4.40625 
Q 31.203125 4.40625 24.84375 6.5 
Q 18.5 8.59375 13.640625 12.59375 
Q 8.796875 16.59375 5.890625 22.4375 
Q 3 28.296875 3 35.90625 
Q 3 43.5 5.59375 49.703125 
Q 8.203125 55.90625 12.75 60.296875 
Q 17.296875 64.703125 23.4375 67.09375 
Q 29.59375 69.5 36.703125 69.5 
Q 42.5 69.5 46.703125 68.84375 
Q 50.90625 68.203125 53.59375 67.40625 
Q 56.796875 66.5 58.90625 65.40625 
Q 59 64.203125 59.09375 62.046875 
Q 59.203125 59.90625 59.25 57.5 
Q 59.296875 55.09375 59.25 52.890625 
Q 59.203125 50.703125 59.203125 49.40625 
L 56.296875 49.40625 
Q 56 52.296875 54.953125 55.140625 
Q 53.90625 58 51.84375 60.296875 
Q 49.796875 62.59375 46.640625 64 
Q 43.5 65.40625 39 65.40625 
Q 34 65.40625 29.953125 63.796875 
Q 25.90625 62.203125 23.046875 58.890625 
Q 20.203125 55.59375 18.59375 50.4375 
Q 17 45.296875 17 38.203125 
Q 17 30.203125 18.84375 24.59375 
Q 20.703125 19 23.84375 15.453125 
Q 27 11.90625 31.296875 10.25 
Q 35.59375 8.59375 40.59375 8.59375 
Q 44 8.59375 46.703125 9.59375 
Q 49.40625 10.59375 51.546875 12.390625 
Q 53.703125 14.203125 55.453125 16.84375 
Q 57.203125 19.5 58.796875 22.796875 
z
" id="STSongti-SC-Black-67"/>
     <path id="STSongti-SC-Black-32"/>
     <path d="M 45.703125 5.90625 
Q 43.796875 6.09375 40.390625 6.046875 
Q 37 6 34.09375 6 
Q 32.59375 6 30.9375 6 
Q 29.296875 6 27.640625 5.953125 
Q 26 5.90625 24.59375 5.796875 
Q 23.203125 5.703125 22.296875 5.59375 
L 22.296875 7.703125 
L 24.09375 8.203125 
Q 26 8.703125 26.34375 9.546875 
Q 26.703125 10.40625 26.09375 11.59375 
Q 25.90625 12 25.65625 12.390625 
Q 25.40625 12.796875 25 13.296875 
L 19.203125 21.09375 
L 13.40625 13.296875 
Q 12.296875 11.90625 12.296875 10.90625 
Q 12.296875 10 13 9.34375 
Q 13.703125 8.703125 15.703125 8.296875 
L 18.703125 7.703125 
L 18.703125 5.59375 
Q 14.703125 6 9.546875 6 
Q 4.40625 6 -0.5 5.59375 
L -0.5 7.703125 
L 2.296875 8.40625 
Q 4.40625 8.90625 6.34375 10.796875 
Q 8.296875 12.703125 10.5 15.703125 
L 17 23.796875 
L 7.90625 36.59375 
Q 5.703125 39.203125 4.5 40.25 
Q 3.296875 41.296875 2.5 41.5 
L 0.09375 42 
L 0.09375 44.40625 
Q 2.203125 44.09375 9.703125 44.09375 
Q 13.5 44.09375 16.953125 44.140625 
Q 20.40625 44.203125 21.703125 44.40625 
L 21.703125 42.09375 
L 20.796875 41.90625 
Q 19.203125 41.59375 19.25 40.75 
Q 19.296875 39.90625 21.296875 37 
L 25.796875 30.59375 
L 29.90625 35.90625 
Q 31.296875 37.796875 31.296875 39 
Q 31.296875 40.90625 28.5 41.5 
L 26 42 
L 26 44.40625 
Q 26.703125 44.203125 27.890625 44.140625 
Q 29.09375 44.09375 30.4375 44.046875 
Q 31.796875 44 33.09375 44 
Q 34.40625 44 35.40625 44 
Q 39.5 44 41.296875 44.09375 
Q 43.09375 44.203125 44.40625 44.296875 
L 44.40625 42 
L 41.09375 41.40625 
Q 40 41.09375 39.140625 40.640625 
Q 38.296875 40.203125 37.546875 39.5 
Q 36.796875 38.796875 35.9375 37.75 
Q 35.09375 36.703125 33.90625 35.203125 
L 28.09375 27.90625 
L 39.203125 13 
Q 40.90625 10.796875 41.90625 9.84375 
Q 42.90625 8.90625 43.796875 8.59375 
L 45.703125 8 
z
" id="STSongti-SC-Black-120"/>
     <path d="M 32.796875 68.796875 
L 32.796875 66 
L 26.796875 65.203125 
Q 25 65 24.25 63.84375 
Q 23.5 62.703125 23.5 60.203125 
L 23.5 25.703125 
Q 23.5 17.59375 27.546875 13.390625 
Q 31.59375 9.203125 39.40625 9.203125 
Q 44.203125 9.203125 47.546875 10.390625 
Q 50.90625 11.59375 53.046875 14.390625 
Q 55.203125 17.203125 56.140625 21.890625 
Q 57.09375 26.59375 57.09375 33.59375 
L 57.09375 60.09375 
Q 57.09375 64.09375 53 64.90625 
L 47.09375 66 
L 47.09375 68.796875 
Q 49.5 68.5 57.296875 68.5 
Q 61.203125 68.5 64.84375 68.546875 
Q 68.5 68.59375 69.796875 68.796875 
L 69.796875 66 
L 64 64.703125 
Q 61.796875 64.296875 61.796875 60.09375 
L 61.796875 31 
Q 61.796875 17.90625 56.296875 11.15625 
Q 50.796875 4.40625 38.40625 4.40625 
Q 25 4.40625 17.84375 9.796875 
Q 10.703125 15.203125 10.703125 25.5 
L 10.703125 60.5 
Q 10.703125 62.90625 10.203125 63.953125 
Q 9.703125 65 8.296875 65.203125 
L 2.5 66 
L 2.5 68.796875 
Q 5.796875 68.59375 10.046875 68.546875 
Q 14.296875 68.5 18.5 68.5 
Q 20.59375 68.5 22.75 68.5 
Q 24.90625 68.5 26.84375 68.546875 
Q 28.796875 68.59375 30.34375 68.640625 
Q 31.90625 68.703125 32.796875 68.796875 
z
" id="STSongti-SC-Black-85"/>
     <path d="M 36.796875 52.703125 
Q 35.40625 59.296875 32.046875 62.1875 
Q 28.703125 65.09375 22.90625 65.09375 
Q 18.703125 65.09375 15.5 62.890625 
Q 12.296875 60.703125 12.296875 56.796875 
Q 12.296875 54.40625 13.34375 52.703125 
Q 14.40625 51 16.296875 49.75 
Q 18.203125 48.5 20.796875 47.390625 
Q 23.40625 46.296875 26.5 45 
Q 31.09375 43.09375 34.34375 41.25 
Q 37.59375 39.40625 39.6875 37.046875 
Q 41.796875 34.703125 42.796875 31.640625 
Q 43.796875 28.59375 43.796875 24.203125 
Q 43.796875 19.59375 42.09375 15.9375 
Q 40.40625 12.296875 37.25 9.75 
Q 34.09375 7.203125 29.75 5.796875 
Q 25.40625 4.40625 20.203125 4.40625 
Q 10.5 4.40625 2.5 9.09375 
L 3.59375 25 
L 5.796875 25 
Q 6 21.703125 7.34375 18.84375 
Q 8.703125 16 10.890625 13.84375 
Q 13.09375 11.703125 15.890625 10.5 
Q 18.703125 9.296875 21.90625 9.296875 
Q 24.40625 9.296875 26.75 9.9375 
Q 29.09375 10.59375 30.84375 11.84375 
Q 32.59375 13.09375 33.640625 14.9375 
Q 34.703125 16.796875 34.703125 19.203125 
Q 34.703125 22.296875 33.59375 24.34375 
Q 32.5 26.40625 30.34375 27.90625 
Q 28.203125 29.40625 25.046875 30.65625 
Q 21.90625 31.90625 17.90625 33.59375 
Q 13.40625 35.5 10.5 37.59375 
Q 7.59375 39.703125 5.9375 42 
Q 4.296875 44.296875 3.640625 46.84375 
Q 3 49.40625 3 52.09375 
Q 3 56.796875 4.890625 60.09375 
Q 6.796875 63.40625 9.890625 65.5 
Q 13 67.59375 16.84375 68.546875 
Q 20.703125 69.5 24.5 69.5 
Q 33.203125 69.5 39 65.09375 
L 38.59375 52.703125 
z
" id="STSongti-SC-Black-83"/>
     <path d="M 12.203125 59.40625 
Q 12.203125 61.796875 11.59375 62.75 
Q 11 63.703125 9.296875 64.09375 
L 3.5 65.296875 
L 3.5 68.59375 
Q 6.703125 68.5 11.140625 68.640625 
Q 15.59375 68.796875 20.296875 69 
Q 25 69.203125 29.546875 69.34375 
Q 34.09375 69.5 37.59375 69.5 
Q 45.40625 69.5 52.15625 67.546875 
Q 58.90625 65.59375 63.84375 61.6875 
Q 68.796875 57.796875 71.640625 51.9375 
Q 74.5 46.09375 74.5 38.203125 
Q 74.5 31.203125 71.703125 25.203125 
Q 68.90625 19.203125 64.15625 14.84375 
Q 59.40625 10.5 53.09375 8.09375 
Q 46.796875 5.703125 39.703125 5.90625 
L 23.5 6.296875 
L 2.5 6.296875 
L 2.5 9.40625 
L 9.296875 11.09375 
Q 10.90625 11.40625 11.546875 12.40625 
Q 12.203125 13.40625 12.203125 16.203125 
z
M 24.296875 18.59375 
Q 24.296875 17 25.046875 15.453125 
Q 25.796875 13.90625 27.390625 12.65625 
Q 29 11.40625 31.5 10.65625 
Q 34 9.90625 37.5 9.90625 
Q 43.796875 9.90625 48.140625 12.046875 
Q 52.5 14.203125 55.203125 18 
Q 57.90625 21.796875 59.09375 27.046875 
Q 60.296875 32.296875 60.296875 38.59375 
Q 60.296875 51.203125 53.390625 58.25 
Q 46.5 65.296875 34 65.296875 
Q 31.703125 65.296875 30.25 65.25 
Q 28.796875 65.203125 27.890625 65.046875 
Q 27 64.90625 26.5 64.703125 
Q 26 64.5 25.703125 64.203125 
Q 24.296875 63.09375 24.296875 59.40625 
z
" id="STSongti-SC-Black-68"/>
     <path d="M 28.796875 74.703125 
L 30.09375 72.09375 
Q 25.09375 67.59375 22.046875 62.140625 
Q 19 56.703125 17.296875 51.09375 
Q 15.59375 45.5 15 40.09375 
Q 14.40625 34.703125 14.40625 30.40625 
Q 14.40625 26 15.15625 20.453125 
Q 15.90625 14.90625 17.65625 9.09375 
Q 19.40625 3.296875 22.34375 -2.09375 
Q 25.296875 -7.5 29.796875 -11.40625 
L 28.59375 -13.703125 
Q 23.5 -10 19 -5.453125 
Q 14.5 -0.90625 11.046875 4.59375 
Q 7.59375 10.09375 5.59375 16.59375 
Q 3.59375 23.09375 3.59375 30.796875 
Q 3.59375 38.5 5.59375 45.046875 
Q 7.59375 51.59375 11.046875 57.046875 
Q 14.5 62.5 19.09375 66.890625 
Q 23.703125 71.296875 28.796875 74.703125 
z
" id="STSongti-SC-Black-40"/>
     <path d="M 15.40625 67.5 
Q 18 67.5 19.84375 65.546875 
Q 21.703125 63.59375 21.703125 61 
Q 21.703125 58.703125 19.84375 56.796875 
Q 18 54.90625 15.296875 54.90625 
Q 12.703125 54.90625 10.953125 56.65625 
Q 9.203125 58.40625 9.203125 61 
Q 9.203125 63.59375 11 65.546875 
Q 12.796875 67.5 15.40625 67.5 
z
M 25.5 5.59375 
Q 23.90625 5.796875 20.703125 5.890625 
Q 17.5 6 13.5 6 
Q 9.5 6 6.296875 5.890625 
Q 3.09375 5.796875 1.5 5.59375 
L 1.5 8.203125 
L 5.296875 9.203125 
Q 8.40625 9.796875 8.40625 12.90625 
L 8.40625 30.90625 
Q 8.40625 33.296875 7.203125 34.390625 
Q 6 35.5 2.40625 36.296875 
L 2.40625 38.703125 
Q 4.09375 39.09375 6.296875 39.84375 
Q 8.5 40.59375 10.59375 41.546875 
Q 12.703125 42.5 14.5 43.640625 
Q 16.296875 44.796875 17.296875 46 
Q 18 46 18.59375 45.953125 
Q 19.203125 45.90625 19.90625 45.90625 
L 19.90625 12.59375 
Q 19.90625 11.09375 20.34375 10.34375 
Q 20.796875 9.59375 22.09375 9.296875 
L 25.5 8.203125 
z
" id="STSongti-SC-Black-105"/>
     <path d="M 17.40625 54.203125 
L 19.59375 54.203125 
Q 19.59375 51.5 19.640625 48.84375 
Q 19.703125 46.203125 19.703125 43.5 
L 32.203125 43.796875 
L 32.203125 39.09375 
L 19.703125 38.703125 
L 19.703125 20.703125 
Q 19.703125 16.296875 20.796875 14.1875 
Q 21.90625 12.09375 25.40625 12.09375 
Q 26.90625 12.09375 28.703125 12.4375 
Q 30.5 12.796875 32.59375 14.59375 
L 33.5 13.203125 
Q 32.796875 11.796875 31.59375 10.25 
Q 30.40625 8.703125 28.65625 7.390625 
Q 26.90625 6.09375 24.703125 5.25 
Q 22.5 4.40625 19.703125 4.40625 
Q 14.09375 4.40625 11.25 7.25 
Q 8.40625 10.09375 8.40625 17 
L 8.40625 38.5 
Q 7 38.5 5.703125 38.453125 
Q 4.40625 38.40625 3 38.40625 
Q 1.59375 38.40625 1.546875 39.703125 
Q 1.5 41 2.90625 41.59375 
Q 5.09375 42.5 6.9375 43.5 
Q 8.796875 44.5 10 45.5 
Q 10.59375 46 11.640625 46.84375 
Q 12.703125 47.703125 13.796875 48.796875 
Q 14.90625 49.90625 15.84375 51.296875 
Q 16.796875 52.703125 17.40625 54.203125 
z
" id="STSongti-SC-Black-116"/>
     <path d="M 20.09375 44.296875 
L 32.796875 44 
L 32.796875 40.5 
L 20.296875 40.09375 
L 20.296875 16 
Q 20.296875 12.796875 21.34375 11.25 
Q 22.40625 9.703125 24.5 9.296875 
L 29.90625 8.296875 
L 29.90625 5.703125 
Q 23.59375 6 16.5 6 
L 13.40625 6 
Q 10 6 6.546875 5.953125 
Q 3.09375 5.90625 1.59375 5.703125 
L 1.59375 8.203125 
L 4.703125 8.90625 
Q 6.203125 9.203125 7 9.546875 
Q 7.796875 9.90625 8.1875 10.546875 
Q 8.59375 11.203125 8.6875 12.296875 
Q 8.796875 13.40625 8.796875 15.203125 
L 8.796875 38.90625 
Q 6.90625 39.296875 1.5 39.5 
L 1.5 41 
Q 3.90625 42 5.296875 42.75 
Q 6.703125 43.5 7.453125 44.09375 
Q 8.203125 44.703125 8.390625 45.296875 
Q 8.59375 45.90625 8.59375 46.59375 
Q 8.59375 47.5 8.796875 49.75 
Q 9 52 9.75 54.84375 
Q 10.5 57.703125 11.890625 60.703125 
Q 13.296875 63.703125 15.640625 66.25 
Q 18 68.796875 21.453125 70.390625 
Q 24.90625 72 29.796875 72 
Q 30.59375 72 31.390625 71.953125 
Q 32.203125 71.90625 33 71.796875 
Q 36.203125 71.296875 38.453125 69.9375 
Q 40.703125 68.59375 40.703125 65.796875 
Q 40.703125 62.90625 39.25 61.203125 
Q 37.796875 59.5 34.90625 59.5 
Q 32.59375 59.5 31.25 60.640625 
Q 29.90625 61.796875 29 63.25 
Q 28.09375 64.703125 27.4375 65.84375 
Q 26.796875 67 26.09375 67 
Q 23.59375 67 22.34375 65.546875 
Q 21.09375 64.09375 20.546875 61.84375 
Q 20 59.59375 20 56.796875 
Q 20 54 20 51.296875 
Q 20 48.59375 20 46.84375 
Q 20 45.09375 20.09375 44.296875 
z
" id="STSongti-SC-Black-102"/>
     <path d="M 51.5 5.703125 
Q 46.296875 6 39.9375 6 
Q 33.59375 6 28.40625 5.703125 
L 28.40625 8.203125 
L 31.90625 9 
Q 34.09375 9.296875 34.09375 12.90625 
L 34.09375 29.703125 
Q 34.09375 31.90625 33.9375 33.546875 
Q 33.796875 35.203125 33.25 36.34375 
Q 32.703125 37.5 31.546875 38.046875 
Q 30.40625 38.59375 28.40625 38.59375 
Q 26.09375 38.59375 23.546875 37.140625 
Q 21 35.703125 19.296875 33.703125 
L 19.296875 11.796875 
Q 19.296875 10.203125 21.703125 9.59375 
L 24.59375 8.203125 
L 24.59375 5.703125 
Q 23.703125 5.796875 22.84375 5.84375 
Q 22 5.90625 21 5.953125 
Q 20 6 18.796875 6 
Q 17.59375 6 15.796875 6 
L 12.703125 6 
Q 9.5 6 6.25 5.953125 
Q 3 5.90625 1.5 5.703125 
L 1.5 8.203125 
L 5.796875 9.203125 
Q 6.796875 9.40625 7.296875 10.09375 
Q 7.796875 10.796875 7.796875 12.203125 
L 7.796875 31.90625 
Q 7.796875 35 6.546875 36.09375 
Q 5.296875 37.203125 2.09375 37.703125 
L 2.09375 39.59375 
Q 3.703125 40 5.84375 40.59375 
Q 8 41.203125 10.09375 42.140625 
Q 12.203125 43.09375 14 44.4375 
Q 15.796875 45.796875 16.703125 47.703125 
L 19.296875 47.703125 
L 19.296875 38 
Q 22.296875 41.703125 25.796875 43.796875 
Q 29.296875 45.90625 32.796875 45.90625 
Q 38.59375 45.90625 42.09375 42.5 
Q 45.59375 39.09375 45.59375 32.203125 
L 45.59375 13.203125 
Q 45.59375 11.203125 46.09375 10.296875 
Q 46.59375 9.40625 48.09375 9 
L 51.5 8.203125 
z
" id="STSongti-SC-Black-110"/>
     <path d="M 39.296875 29.5 
L 14.5 29.5 
Q 14.296875 28.5 14.25 28.296875 
Q 14.203125 28.09375 14.203125 27.09375 
Q 14.203125 23.90625 15.09375 21.25 
Q 16 18.59375 17.640625 16.640625 
Q 19.296875 14.703125 21.640625 13.59375 
Q 24 12.5 26.796875 12.5 
Q 30.296875 12.5 33.25 13.453125 
Q 36.203125 14.40625 39.5 17.59375 
L 39.90625 16.09375 
Q 38.703125 13.796875 37.140625 11.6875 
Q 35.59375 9.59375 33.390625 8 
Q 31.203125 6.40625 28.25 5.40625 
Q 25.296875 4.40625 21.296875 4.40625 
Q 17.09375 4.40625 13.59375 5.84375 
Q 10.09375 7.296875 7.640625 10 
Q 5.203125 12.703125 3.84375 16.5 
Q 2.5 20.296875 2.5 25 
Q 2.5 29.703125 3.953125 33.546875 
Q 5.40625 37.40625 8.046875 40.15625 
Q 10.703125 42.90625 14.5 44.40625 
Q 18.296875 45.90625 23 45.90625 
Q 27.296875 45.90625 30.296875 44.59375 
Q 33.296875 43.296875 35.25 41.046875 
Q 37.203125 38.796875 38.140625 35.796875 
Q 39.09375 32.796875 39.296875 29.5 
z
M 15 33.203125 
L 24.40625 33.203125 
Q 27.09375 33.203125 27.09375 35.796875 
Q 27.09375 38.703125 26.1875 40.75 
Q 25.296875 42.796875 22.59375 42.796875 
Q 17 42.796875 15 33.203125 
z
" id="STSongti-SC-Black-101"/>
     <path d="M 2.90625 74.703125 
Q 8 71.296875 12.59375 66.890625 
Q 17.203125 62.5 20.640625 57.046875 
Q 24.09375 51.59375 26.09375 45.046875 
Q 28.09375 38.5 28.09375 30.796875 
Q 28.09375 23.09375 26.09375 16.59375 
Q 24.09375 10.09375 20.640625 4.59375 
Q 17.203125 -0.90625 12.703125 -5.453125 
Q 8.203125 -10 3.09375 -13.703125 
L 1.90625 -11.40625 
Q 6.40625 -7.5 9.34375 -2.09375 
Q 12.296875 3.296875 14.046875 9.09375 
Q 15.796875 14.90625 16.546875 20.453125 
Q 17.296875 26 17.296875 30.40625 
Q 17.296875 34.703125 16.6875 40.09375 
Q 16.09375 45.5 14.390625 51.09375 
Q 12.703125 56.703125 9.59375 62.140625 
Q 6.5 67.59375 1.59375 72.09375 
z
" id="STSongti-SC-Black-41"/>
    </defs>
    <g style="fill:#ffffff;" transform="translate(693.325 54.48)scale(0.1 -0.1)">
     <use xlink:href="#STSongti-SC-Black-66"/>
     <use x="63.799988" xlink:href="#STSongti-SC-Black-84"/>
     <use x="126.899979" xlink:href="#STSongti-SC-Black-67"/>
     <use x="190.499969" xlink:href="#STSongti-SC-Black-32"/>
     <use x="215.499954" xlink:href="#STSongti-SC-Black-120"/>
     <use x="260.699951" xlink:href="#STSongti-SC-Black-32"/>
     <use x="285.699936" xlink:href="#STSongti-SC-Black-85"/>
     <use x="357.999924" xlink:href="#STSongti-SC-Black-83"/>
     <use x="404.299911" xlink:href="#STSongti-SC-Black-68"/>
     <use x="481.799896" xlink:href="#STSongti-SC-Black-32"/>
     <use x="506.799881" xlink:href="#STSongti-SC-Black-40"/>
     <use x="535.999878" xlink:href="#STSongti-SC-Black-66"/>
     <use x="599.799866" xlink:href="#STSongti-SC-Black-105"/>
     <use x="626.79985" xlink:href="#STSongti-SC-Black-116"/>
     <use x="660.999847" xlink:href="#STSongti-SC-Black-102"/>
     <use x="696.699844" xlink:href="#STSongti-SC-Black-105"/>
     <use x="723.699829" xlink:href="#STSongti-SC-Black-110"/>
     <use x="776.699814" xlink:href="#STSongti-SC-Black-101"/>
     <use x="819.099808" xlink:href="#STSongti-SC-Black-120"/>
     <use x="864.299805" xlink:href="#STSongti-SC-Black-41"/>
    </g>
   </g>
  </g>
 </g>
 <defs>
  <clipPath id="pf9c0f0eea3">
   <rect height="380.52" width="1116" x="180" y="60.48"/>
  </clipPath>
 </defs>
</svg>
