<?xml version="1.0" encoding="utf-8" standalone="no"?>
<!DOCTYPE svg PUBLIC "-//W3C//DTD SVG 1.1//EN"
  "http://www.w3.org/Graphics/SVG/1.1/DTD/svg11.dtd">
<!-- Created with matplotlib (https://matplotlib.org/) -->
<svg height="345.6pt" version="1.1" viewBox="0 0 460.8 345.6" width="460.8pt" xmlns="http://www.w3.org/2000/svg" xmlns:xlink="http://www.w3.org/1999/xlink">
 <defs>
  <style type="text/css">
*{stroke-linecap:butt;stroke-linejoin:round;}
  </style>
 </defs>
 <g id="figure_1">
  <g id="patch_1">
   <path d="M 0 345.6 
L 460.8 345.6 
L 460.8 0 
L 0 0 
z
" style="fill:#ffffff;"/>
  </g>
  <g id="axes_1">
   <g id="patch_2">
    <path d="M 57.6 276.48 
L 414.72 276.48 
L 414.72 41.472 
L 57.6 41.472 
z
" style="fill:#ffffff;"/>
   </g>
   <g id="matplotlib.axis_1">
    <g id="xtick_1">
     <g id="line2d_1">
      <defs>
       <path d="M 0 0 
L 0 3.5 
" id="m5dc356cc2f" style="stroke:#000000;stroke-width:0.8;"/>
      </defs>
      <g>
       <use style="stroke:#000000;stroke-width:0.8;" x="72.930909" xlink:href="#m5dc356cc2f" y="276.48"/>
      </g>
     </g>
     <g id="text_1">
      <!-- 2018-01 -->
      <defs>
       <path d="M 19.1875 8.296875 
L 53.609375 8.296875 
L 53.609375 0 
L 7.328125 0 
L 7.328125 8.296875 
Q 12.9375 14.109375 22.625 23.890625 
Q 32.328125 33.6875 34.8125 36.53125 
Q 39.546875 41.84375 41.421875 45.53125 
Q 43.3125 49.21875 43.3125 52.78125 
Q 43.3125 58.59375 39.234375 62.25 
Q 35.15625 65.921875 28.609375 65.921875 
Q 23.96875 65.921875 18.8125 64.3125 
Q 13.671875 62.703125 7.8125 59.421875 
L 7.8125 69.390625 
Q 13.765625 71.78125 18.9375 73 
Q 24.125 74.21875 28.421875 74.21875 
Q 39.75 74.21875 46.484375 68.546875 
Q 53.21875 62.890625 53.21875 53.421875 
Q 53.21875 48.921875 51.53125 44.890625 
Q 49.859375 40.875 45.40625 35.40625 
Q 44.1875 33.984375 37.640625 27.21875 
Q 31.109375 20.453125 19.1875 8.296875 
z
" id="DejaVuSans-50"/>
       <path d="M 31.78125 66.40625 
Q 24.171875 66.40625 20.328125 58.90625 
Q 16.5 51.421875 16.5 36.375 
Q 16.5 21.390625 20.328125 13.890625 
Q 24.171875 6.390625 31.78125 6.390625 
Q 39.453125 6.390625 43.28125 13.890625 
Q 47.125 21.390625 47.125 36.375 
Q 47.125 51.421875 43.28125 58.90625 
Q 39.453125 66.40625 31.78125 66.40625 
z
M 31.78125 74.21875 
Q 44.046875 74.21875 50.515625 64.515625 
Q 56.984375 54.828125 56.984375 36.375 
Q 56.984375 17.96875 50.515625 8.265625 
Q 44.046875 -1.421875 31.78125 -1.421875 
Q 19.53125 -1.421875 13.0625 8.265625 
Q 6.59375 17.96875 6.59375 36.375 
Q 6.59375 54.828125 13.0625 64.515625 
Q 19.53125 74.21875 31.78125 74.21875 
z
" id="DejaVuSans-48"/>
       <path d="M 12.40625 8.296875 
L 28.515625 8.296875 
L 28.515625 63.921875 
L 10.984375 60.40625 
L 10.984375 69.390625 
L 28.421875 72.90625 
L 38.28125 72.90625 
L 38.28125 8.296875 
L 54.390625 8.296875 
L 54.390625 0 
L 12.40625 0 
z
" id="DejaVuSans-49"/>
       <path d="M 31.78125 34.625 
Q 24.75 34.625 20.71875 30.859375 
Q 16.703125 27.09375 16.703125 20.515625 
Q 16.703125 13.921875 20.71875 10.15625 
Q 24.75 6.390625 31.78125 6.390625 
Q 38.8125 6.390625 42.859375 10.171875 
Q 46.921875 13.96875 46.921875 20.515625 
Q 46.921875 27.09375 42.890625 30.859375 
Q 38.875 34.625 31.78125 34.625 
z
M 21.921875 38.8125 
Q 15.578125 40.375 12.03125 44.71875 
Q 8.5 49.078125 8.5 55.328125 
Q 8.5 64.0625 14.71875 69.140625 
Q 20.953125 74.21875 31.78125 74.21875 
Q 42.671875 74.21875 48.875 69.140625 
Q 55.078125 64.0625 55.078125 55.328125 
Q 55.078125 49.078125 51.53125 44.71875 
Q 48 40.375 41.703125 38.8125 
Q 48.828125 37.15625 52.796875 32.3125 
Q 56.78125 27.484375 56.78125 20.515625 
Q 56.78125 9.90625 50.3125 4.234375 
Q 43.84375 -1.421875 31.78125 -1.421875 
Q 19.734375 -1.421875 13.25 4.234375 
Q 6.78125 9.90625 6.78125 20.515625 
Q 6.78125 27.484375 10.78125 32.3125 
Q 14.796875 37.15625 21.921875 38.8125 
z
M 18.3125 54.390625 
Q 18.3125 48.734375 21.84375 45.5625 
Q 25.390625 42.390625 31.78125 42.390625 
Q 38.140625 42.390625 41.71875 45.5625 
Q 45.3125 48.734375 45.3125 54.390625 
Q 45.3125 60.0625 41.71875 63.234375 
Q 38.140625 66.40625 31.78125 66.40625 
Q 25.390625 66.40625 21.84375 63.234375 
Q 18.3125 60.0625 18.3125 54.390625 
z
" id="DejaVuSans-56"/>
       <path d="M 4.890625 31.390625 
L 31.203125 31.390625 
L 31.203125 23.390625 
L 4.890625 23.390625 
z
" id="DejaVuSans-45"/>
      </defs>
      <g transform="translate(35.706088 310.951846)rotate(-30)scale(0.1 -0.1)">
       <use xlink:href="#DejaVuSans-50"/>
       <use x="63.623047" xlink:href="#DejaVuSans-48"/>
       <use x="127.246094" xlink:href="#DejaVuSans-49"/>
       <use x="190.869141" xlink:href="#DejaVuSans-56"/>
       <use x="254.492188" xlink:href="#DejaVuSans-45"/>
       <use x="290.576172" xlink:href="#DejaVuSans-48"/>
       <use x="354.199219" xlink:href="#DejaVuSans-49"/>
      </g>
     </g>
    </g>
    <g id="xtick_2">
     <g id="line2d_2">
      <g>
       <use style="stroke:#000000;stroke-width:0.8;" x="126.138182" xlink:href="#m5dc356cc2f" y="276.48"/>
      </g>
     </g>
     <g id="text_2">
      <!-- 2018-03 -->
      <defs>
       <path d="M 40.578125 39.3125 
Q 47.65625 37.796875 51.625 33 
Q 55.609375 28.21875 55.609375 21.1875 
Q 55.609375 10.40625 48.1875 4.484375 
Q 40.765625 -1.421875 27.09375 -1.421875 
Q 22.515625 -1.421875 17.65625 -0.515625 
Q 12.796875 0.390625 7.625 2.203125 
L 7.625 11.71875 
Q 11.71875 9.328125 16.59375 8.109375 
Q 21.484375 6.890625 26.8125 6.890625 
Q 36.078125 6.890625 40.9375 10.546875 
Q 45.796875 14.203125 45.796875 21.1875 
Q 45.796875 27.640625 41.28125 31.265625 
Q 36.765625 34.90625 28.71875 34.90625 
L 20.21875 34.90625 
L 20.21875 43.015625 
L 29.109375 43.015625 
Q 36.375 43.015625 40.234375 45.921875 
Q 44.09375 48.828125 44.09375 54.296875 
Q 44.09375 59.90625 40.109375 62.90625 
Q 36.140625 65.921875 28.71875 65.921875 
Q 24.65625 65.921875 20.015625 65.03125 
Q 15.375 64.15625 9.8125 62.3125 
L 9.8125 71.09375 
Q 15.4375 72.65625 20.34375 73.4375 
Q 25.25 74.21875 29.59375 74.21875 
Q 40.828125 74.21875 47.359375 69.109375 
Q 53.90625 64.015625 53.90625 55.328125 
Q 53.90625 49.265625 50.4375 45.09375 
Q 46.96875 40.921875 40.578125 39.3125 
z
" id="DejaVuSans-51"/>
      </defs>
      <g transform="translate(88.913361 310.951846)rotate(-30)scale(0.1 -0.1)">
       <use xlink:href="#DejaVuSans-50"/>
       <use x="63.623047" xlink:href="#DejaVuSans-48"/>
       <use x="127.246094" xlink:href="#DejaVuSans-49"/>
       <use x="190.869141" xlink:href="#DejaVuSans-56"/>
       <use x="254.492188" xlink:href="#DejaVuSans-45"/>
       <use x="290.576172" xlink:href="#DejaVuSans-48"/>
       <use x="354.199219" xlink:href="#DejaVuSans-51"/>
      </g>
     </g>
    </g>
    <g id="xtick_3">
     <g id="line2d_3">
      <g>
       <use style="stroke:#000000;stroke-width:0.8;" x="181.149091" xlink:href="#m5dc356cc2f" y="276.48"/>
      </g>
     </g>
     <g id="text_3">
      <!-- 2018-05 -->
      <defs>
       <path d="M 10.796875 72.90625 
L 49.515625 72.90625 
L 49.515625 64.59375 
L 19.828125 64.59375 
L 19.828125 46.734375 
Q 21.96875 47.46875 24.109375 47.828125 
Q 26.265625 48.1875 28.421875 48.1875 
Q 40.625 48.1875 47.75 41.5 
Q 54.890625 34.8125 54.890625 23.390625 
Q 54.890625 11.625 47.5625 5.09375 
Q 40.234375 -1.421875 26.90625 -1.421875 
Q 22.3125 -1.421875 17.546875 -0.640625 
Q 12.796875 0.140625 7.71875 1.703125 
L 7.71875 11.625 
Q 12.109375 9.234375 16.796875 8.0625 
Q 21.484375 6.890625 26.703125 6.890625 
Q 35.15625 6.890625 40.078125 11.328125 
Q 45.015625 15.765625 45.015625 23.390625 
Q 45.015625 31 40.078125 35.4375 
Q 35.15625 39.890625 26.703125 39.890625 
Q 22.75 39.890625 18.8125 39.015625 
Q 14.890625 38.140625 10.796875 36.28125 
z
" id="DejaVuSans-53"/>
      </defs>
      <g transform="translate(143.92427 310.951846)rotate(-30)scale(0.1 -0.1)">
       <use xlink:href="#DejaVuSans-50"/>
       <use x="63.623047" xlink:href="#DejaVuSans-48"/>
       <use x="127.246094" xlink:href="#DejaVuSans-49"/>
       <use x="190.869141" xlink:href="#DejaVuSans-56"/>
       <use x="254.492188" xlink:href="#DejaVuSans-45"/>
       <use x="290.576172" xlink:href="#DejaVuSans-48"/>
       <use x="354.199219" xlink:href="#DejaVuSans-53"/>
      </g>
     </g>
    </g>
    <g id="xtick_4">
     <g id="line2d_4">
      <g>
       <use style="stroke:#000000;stroke-width:0.8;" x="236.16" xlink:href="#m5dc356cc2f" y="276.48"/>
      </g>
     </g>
     <g id="text_4">
      <!-- 2018-07 -->
      <defs>
       <path d="M 8.203125 72.90625 
L 55.078125 72.90625 
L 55.078125 68.703125 
L 28.609375 0 
L 18.3125 0 
L 43.21875 64.59375 
L 8.203125 64.59375 
z
" id="DejaVuSans-55"/>
      </defs>
      <g transform="translate(198.935179 310.951846)rotate(-30)scale(0.1 -0.1)">
       <use xlink:href="#DejaVuSans-50"/>
       <use x="63.623047" xlink:href="#DejaVuSans-48"/>
       <use x="127.246094" xlink:href="#DejaVuSans-49"/>
       <use x="190.869141" xlink:href="#DejaVuSans-56"/>
       <use x="254.492188" xlink:href="#DejaVuSans-45"/>
       <use x="290.576172" xlink:href="#DejaVuSans-48"/>
       <use x="354.199219" xlink:href="#DejaVuSans-55"/>
      </g>
     </g>
    </g>
    <g id="xtick_5">
     <g id="line2d_5">
      <g>
       <use style="stroke:#000000;stroke-width:0.8;" x="292.072727" xlink:href="#m5dc356cc2f" y="276.48"/>
      </g>
     </g>
     <g id="text_5">
      <!-- 2018-09 -->
      <defs>
       <path d="M 10.984375 1.515625 
L 10.984375 10.5 
Q 14.703125 8.734375 18.5 7.8125 
Q 22.3125 6.890625 25.984375 6.890625 
Q 35.75 6.890625 40.890625 13.453125 
Q 46.046875 20.015625 46.78125 33.40625 
Q 43.953125 29.203125 39.59375 26.953125 
Q 35.25 24.703125 29.984375 24.703125 
Q 19.046875 24.703125 12.671875 31.3125 
Q 6.296875 37.9375 6.296875 49.421875 
Q 6.296875 60.640625 12.9375 67.421875 
Q 19.578125 74.21875 30.609375 74.21875 
Q 43.265625 74.21875 49.921875 64.515625 
Q 56.59375 54.828125 56.59375 36.375 
Q 56.59375 19.140625 48.40625 8.859375 
Q 40.234375 -1.421875 26.421875 -1.421875 
Q 22.703125 -1.421875 18.890625 -0.6875 
Q 15.09375 0.046875 10.984375 1.515625 
z
M 30.609375 32.421875 
Q 37.25 32.421875 41.125 36.953125 
Q 45.015625 41.5 45.015625 49.421875 
Q 45.015625 57.28125 41.125 61.84375 
Q 37.25 66.40625 30.609375 66.40625 
Q 23.96875 66.40625 20.09375 61.84375 
Q 16.21875 57.28125 16.21875 49.421875 
Q 16.21875 41.5 20.09375 36.953125 
Q 23.96875 32.421875 30.609375 32.421875 
z
" id="DejaVuSans-57"/>
      </defs>
      <g transform="translate(254.847906 310.951846)rotate(-30)scale(0.1 -0.1)">
       <use xlink:href="#DejaVuSans-50"/>
       <use x="63.623047" xlink:href="#DejaVuSans-48"/>
       <use x="127.246094" xlink:href="#DejaVuSans-49"/>
       <use x="190.869141" xlink:href="#DejaVuSans-56"/>
       <use x="254.492188" xlink:href="#DejaVuSans-45"/>
       <use x="290.576172" xlink:href="#DejaVuSans-48"/>
       <use x="354.199219" xlink:href="#DejaVuSans-57"/>
      </g>
     </g>
    </g>
    <g id="xtick_6">
     <g id="line2d_6">
      <g>
       <use style="stroke:#000000;stroke-width:0.8;" x="347.083636" xlink:href="#m5dc356cc2f" y="276.48"/>
      </g>
     </g>
     <g id="text_6">
      <!-- 2018-11 -->
      <g transform="translate(309.858816 310.951846)rotate(-30)scale(0.1 -0.1)">
       <use xlink:href="#DejaVuSans-50"/>
       <use x="63.623047" xlink:href="#DejaVuSans-48"/>
       <use x="127.246094" xlink:href="#DejaVuSans-49"/>
       <use x="190.869141" xlink:href="#DejaVuSans-56"/>
       <use x="254.492188" xlink:href="#DejaVuSans-45"/>
       <use x="290.576172" xlink:href="#DejaVuSans-49"/>
       <use x="354.199219" xlink:href="#DejaVuSans-49"/>
      </g>
     </g>
    </g>
    <g id="xtick_7">
     <g id="line2d_7">
      <g>
       <use style="stroke:#000000;stroke-width:0.8;" x="402.094545" xlink:href="#m5dc356cc2f" y="276.48"/>
      </g>
     </g>
     <g id="text_7">
      <!-- 2019-01 -->
      <g transform="translate(364.869725 310.951846)rotate(-30)scale(0.1 -0.1)">
       <use xlink:href="#DejaVuSans-50"/>
       <use x="63.623047" xlink:href="#DejaVuSans-48"/>
       <use x="127.246094" xlink:href="#DejaVuSans-49"/>
       <use x="190.869141" xlink:href="#DejaVuSans-57"/>
       <use x="254.492188" xlink:href="#DejaVuSans-45"/>
       <use x="290.576172" xlink:href="#DejaVuSans-48"/>
       <use x="354.199219" xlink:href="#DejaVuSans-49"/>
      </g>
     </g>
    </g>
   </g>
   <g id="matplotlib.axis_2">
    <g id="ytick_1">
     <g id="line2d_8">
      <defs>
       <path d="M 0 0 
L -3.5 0 
" id="m1c56ee7c04" style="stroke:#000000;stroke-width:0.8;"/>
      </defs>
      <g>
       <use style="stroke:#000000;stroke-width:0.8;" x="57.6" xlink:href="#m1c56ee7c04" y="256.636937"/>
      </g>
     </g>
     <g id="text_8">
      <!-- 0.4 -->
      <defs>
       <path d="M 10.6875 12.40625 
L 21 12.40625 
L 21 0 
L 10.6875 0 
z
" id="DejaVuSans-46"/>
       <path d="M 37.796875 64.3125 
L 12.890625 25.390625 
L 37.796875 25.390625 
z
M 35.203125 72.90625 
L 47.609375 72.90625 
L 47.609375 25.390625 
L 58.015625 25.390625 
L 58.015625 17.1875 
L 47.609375 17.1875 
L 47.609375 0 
L 37.796875 0 
L 37.796875 17.1875 
L 4.890625 17.1875 
L 4.890625 26.703125 
z
" id="DejaVuSans-52"/>
      </defs>
      <g transform="translate(34.696875 260.436155)scale(0.1 -0.1)">
       <use xlink:href="#DejaVuSans-48"/>
       <use x="63.623047" xlink:href="#DejaVuSans-46"/>
       <use x="95.410156" xlink:href="#DejaVuSans-52"/>
      </g>
     </g>
    </g>
    <g id="ytick_2">
     <g id="line2d_9">
      <g>
       <use style="stroke:#000000;stroke-width:0.8;" x="57.6" xlink:href="#m1c56ee7c04" y="209.259448"/>
      </g>
     </g>
     <g id="text_9">
      <!-- 0.6 -->
      <defs>
       <path d="M 33.015625 40.375 
Q 26.375 40.375 22.484375 35.828125 
Q 18.609375 31.296875 18.609375 23.390625 
Q 18.609375 15.53125 22.484375 10.953125 
Q 26.375 6.390625 33.015625 6.390625 
Q 39.65625 6.390625 43.53125 10.953125 
Q 47.40625 15.53125 47.40625 23.390625 
Q 47.40625 31.296875 43.53125 35.828125 
Q 39.65625 40.375 33.015625 40.375 
z
M 52.59375 71.296875 
L 52.59375 62.3125 
Q 48.875 64.0625 45.09375 64.984375 
Q 41.3125 65.921875 37.59375 65.921875 
Q 27.828125 65.921875 22.671875 59.328125 
Q 17.53125 52.734375 16.796875 39.40625 
Q 19.671875 43.65625 24.015625 45.921875 
Q 28.375 48.1875 33.59375 48.1875 
Q 44.578125 48.1875 50.953125 41.515625 
Q 57.328125 34.859375 57.328125 23.390625 
Q 57.328125 12.15625 50.6875 5.359375 
Q 44.046875 -1.421875 33.015625 -1.421875 
Q 20.359375 -1.421875 13.671875 8.265625 
Q 6.984375 17.96875 6.984375 36.375 
Q 6.984375 53.65625 15.1875 63.9375 
Q 23.390625 74.21875 37.203125 74.21875 
Q 40.921875 74.21875 44.703125 73.484375 
Q 48.484375 72.75 52.59375 71.296875 
z
" id="DejaVuSans-54"/>
      </defs>
      <g transform="translate(34.696875 213.058667)scale(0.1 -0.1)">
       <use xlink:href="#DejaVuSans-48"/>
       <use x="63.623047" xlink:href="#DejaVuSans-46"/>
       <use x="95.410156" xlink:href="#DejaVuSans-54"/>
      </g>
     </g>
    </g>
    <g id="ytick_3">
     <g id="line2d_10">
      <g>
       <use style="stroke:#000000;stroke-width:0.8;" x="57.6" xlink:href="#m1c56ee7c04" y="161.881959"/>
      </g>
     </g>
     <g id="text_10">
      <!-- 0.8 -->
      <g transform="translate(34.696875 165.681178)scale(0.1 -0.1)">
       <use xlink:href="#DejaVuSans-48"/>
       <use x="63.623047" xlink:href="#DejaVuSans-46"/>
       <use x="95.410156" xlink:href="#DejaVuSans-56"/>
      </g>
     </g>
    </g>
    <g id="ytick_4">
     <g id="line2d_11">
      <g>
       <use style="stroke:#000000;stroke-width:0.8;" x="57.6" xlink:href="#m1c56ee7c04" y="114.50447"/>
      </g>
     </g>
     <g id="text_11">
      <!-- 1.0 -->
      <g transform="translate(34.696875 118.303689)scale(0.1 -0.1)">
       <use xlink:href="#DejaVuSans-49"/>
       <use x="63.623047" xlink:href="#DejaVuSans-46"/>
       <use x="95.410156" xlink:href="#DejaVuSans-48"/>
      </g>
     </g>
    </g>
    <g id="ytick_5">
     <g id="line2d_12">
      <g>
       <use style="stroke:#000000;stroke-width:0.8;" x="57.6" xlink:href="#m1c56ee7c04" y="67.126982"/>
      </g>
     </g>
     <g id="text_12">
      <!-- 1.2 -->
      <g transform="translate(34.696875 70.9262)scale(0.1 -0.1)">
       <use xlink:href="#DejaVuSans-49"/>
       <use x="63.623047" xlink:href="#DejaVuSans-46"/>
       <use x="95.410156" xlink:href="#DejaVuSans-50"/>
      </g>
     </g>
    </g>
   </g>
   <g id="line2d_13">
    <path clip-path="url(#p7a5f2fc574)" d="M 73.832727 114.50447 
L 75.636364 110.61849 
L 76.538182 110.429319 
L 79.243636 109.379725 
L 80.145455 106.755959 
L 81.047273 106.074232 
L 81.949091 106.3606 
L 82.850909 105.095418 
L 85.556364 106.046315 
L 86.458182 103.552843 
L 87.36 106.371574 
L 88.261818 105.755319 
L 89.163636 106.117016 
L 91.869091 100.402818 
L 92.770909 98.760659 
L 93.672727 98.988702 
L 94.574545 100.741463 
L 95.476364 100.596462 
L 98.181818 106.477086 
L 99.083636 109.120482 
L 99.985455 109.550068 
L 100.887273 114.754187 
L 101.789091 112.897237 
L 104.494545 115.63805 
L 105.396364 124.823235 
L 106.298182 130.654766 
L 107.2 127.714932 
L 108.101818 136.332068 
L 112.610909 125.219698 
L 119.825455 120.046318 
L 120.727273 120.190616 
L 123.432727 115.708289 
L 124.334545 119.591812 
L 125.236364 119.888642 
L 126.138182 117.99314 
L 127.04 120.039085 
L 129.745455 120.243082 
L 130.647273 117.05484 
L 131.549091 119.65591 
L 133.352727 112.876152 
L 136.058182 110.648432 
L 136.96 112.649618 
L 137.861818 114.034905 
L 138.763636 112.645493 
L 139.665455 115.88757 
L 142.370909 115.969021 
L 143.272727 116.446465 
L 144.174545 118.173889 
L 145.076364 121.322376 
L 145.978182 128.739863 
L 148.683636 128.298743 
L 149.585455 125.014262 
L 150.487273 129.320412 
L 151.389091 125.479922 
L 152.290909 124.928621 
L 154.996364 125.893485 
L 155.898182 127.36824 
L 156.8 127.760067 
L 161.309091 129.338537 
L 162.210909 125.49541 
L 163.112727 124.639072 
L 164.014545 126.879651 
L 164.916364 127.986229 
L 167.621818 131.020777 
L 168.523636 135.660285 
L 169.425455 135.16241 
L 170.327273 131.530374 
L 171.229091 134.78832 
L 173.934545 135.115917 
L 174.836364 130.56174 
L 175.738182 131.314103 
L 176.64 137.882697 
L 177.541818 137.568462 
L 182.050909 136.621007 
L 182.952727 133.639731 
L 183.854545 134.484252 
L 186.56 130.005618 
L 187.461818 127.295769 
L 188.363636 127.494577 
L 189.265455 126.447264 
L 190.167273 128.100745 
L 193.774545 124.420246 
L 194.676364 125.633375 
L 195.578182 127.30691 
L 196.48 126.32648 
L 199.185455 124.987228 
L 200.087273 125.836398 
L 200.989091 128.960709 
L 201.890909 130.964586 
L 202.792727 132.66527 
L 205.498182 130.831446 
L 206.4 133.098941 
L 207.301818 137.806202 
L 208.203636 132.510362 
L 209.105455 134.718354 
L 211.810909 132.71595 
L 212.712727 129.090881 
L 213.614545 129.884683 
L 214.516364 130.44408 
L 215.418182 132.90483 
L 218.123636 132.472542 
L 219.025455 129.130742 
L 219.927273 132.379246 
L 221.730909 136.489433 
L 225.338182 146.557144 
L 226.24 145.185934 
L 227.141818 148.804105 
L 228.043636 147.166272 
L 231.650909 150.09678 
L 232.552727 155.001737 
L 233.454545 157.153289 
L 234.356364 150.672131 
L 237.061818 156.010408 
L 237.963636 156.117233 
L 238.865455 160.638549 
L 239.767273 163.05957 
L 240.669091 161.564088 
L 243.374545 155.274134 
L 244.276364 154.434077 
L 245.178182 158.035603 
L 246.08 152.680158 
L 246.981818 151.40188 
L 249.687273 151.708151 
L 250.589091 152.584286 
L 251.490909 154.922932 
L 252.392727 154.984352 
L 253.294545 152.907599 
L 256 151.865246 
L 256.901818 148.437179 
L 257.803636 148.845683 
L 258.705455 151.598897 
L 259.607273 152.831304 
L 262.312727 154.917216 
L 263.214545 154.862391 
L 264.116364 159.002098 
L 265.92 169.023206 
L 268.625455 172.563365 
L 269.527273 166.733106 
L 270.429091 170.820142 
L 271.330909 165.07357 
L 272.232727 163.821091 
L 274.938182 163.660745 
L 275.84 165.014758 
L 276.741818 169.544035 
L 277.643636 171.247827 
L 278.545455 174.309593 
L 281.250909 172.840639 
L 282.152727 169.039884 
L 283.054545 170.739673 
L 283.956364 170.043047 
L 284.858182 170.24401 
L 287.563636 164.47421 
L 288.465455 164.573626 
L 289.367273 165.540649 
L 290.269091 167.897567 
L 291.170909 169.492506 
L 293.876364 170.357123 
L 294.778182 168.135021 
L 295.68 171.79529 
L 296.581818 174.136695 
L 297.483636 174.16534 
L 300.189091 177.710295 
L 301.090909 177.547357 
L 301.992727 179.519456 
L 302.894545 178.316852 
L 303.796364 178.168461 
L 306.501818 180.244029 
L 308.305455 174.775838 
L 309.207273 174.989255 
L 310.109091 170.181518 
L 313.716364 171.878903 
L 314.618182 169.995009 
L 315.52 171.422733 
L 316.421818 169.859571 
L 325.44 178.159621 
L 326.341818 178.144644 
L 327.243636 179.408997 
L 328.145455 188.393501 
L 329.047273 186.873246 
L 331.752727 189.357457 
L 332.654545 191.916401 
L 333.556364 190.492615 
L 334.458182 193.687746 
L 335.36 189.248845 
L 338.065455 181.453126 
L 338.967273 185.850866 
L 339.869091 186.504483 
L 340.770909 186.624265 
L 341.672727 187.645885 
L 344.378182 193.078745 
L 345.28 192.162074 
L 347.083636 187.441119 
L 347.985455 180.32716 
L 350.690909 181.593818 
L 351.592727 183.425753 
L 353.396364 185.574672 
L 354.298182 187.309447 
L 357.003636 183.964143 
L 357.905455 181.405644 
L 358.807273 182.914246 
L 360.610909 179.809406 
L 363.316364 178.032353 
L 364.218182 183.072348 
L 365.12 182.667519 
L 366.021818 182.96715 
L 366.923636 187.487693 
L 370.530909 187.938818 
L 371.432727 184.918303 
L 372.334545 187.92726 
L 373.236364 185.710698 
L 375.941818 180.041872 
L 376.843636 180.26282 
L 377.745455 180.961086 
L 378.647273 185.655824 
L 379.549091 185.73198 
L 382.254545 188.482127 
L 383.156364 187.431102 
L 384.058182 186.762443 
L 384.96 183.798498 
L 385.861818 187.327977 
L 388.567273 188.129392 
L 389.469091 189.832121 
L 390.370909 192.084172 
L 391.272727 192.160994 
L 392.174545 194.825913 
L 394.88 193.861008 
L 397.585455 197.226179 
L 398.487273 196.552201 
L 398.487273 196.552201 
" style="fill:none;stroke:#1f77b4;stroke-linecap:square;stroke-width:1.5;"/>
   </g>
   <g id="line2d_14">
    <path clip-path="url(#p7a5f2fc574)" d="M 73.832727 114.50447 
L 74.734545 120.90216 
L 75.636364 122.285445 
L 76.538182 121.420892 
L 79.243636 127.29985 
L 80.145455 125.224924 
L 81.047273 118.481413 
L 81.949091 119.691787 
L 82.850909 117.098128 
L 85.556364 105.858943 
L 86.458182 105.858943 
L 87.36 105.340212 
L 88.261818 96.867595 
L 89.163636 95.484311 
L 91.869091 101.70909 
L 92.770909 98.077969 
L 93.672727 98.250879 
L 94.574545 105.858943 
L 95.476364 108.452601 
L 99.083636 115.369023 
L 99.985455 108.452601 
L 100.887273 108.798422 
L 101.789091 108.452601 
L 104.494545 99.807074 
L 105.396364 109.317154 
L 106.298182 127.991493 
L 107.2 134.562093 
L 108.101818 149.259489 
L 110.807273 148.740758 
L 111.709091 144.936726 
L 112.610909 143.899263 
L 119.825455 135.945378 
L 120.727273 133.351719 
L 123.432727 133.005898 
L 124.334545 139.057767 
L 125.236364 143.03471 
L 126.138182 143.20762 
L 127.04 144.763815 
L 129.745455 146.32001 
L 130.647273 142.170157 
L 131.549091 143.03471 
L 132.450909 141.997247 
L 136.058182 143.380531 
L 136.96 143.553442 
L 137.861818 145.282547 
L 138.763636 148.913668 
L 139.665455 150.124042 
L 142.370909 146.838742 
L 143.272727 147.011652 
L 144.174545 145.628368 
L 145.076364 149.778221 
L 145.978182 155.311358 
L 148.683636 162.400691 
L 149.585455 162.22778 
L 150.487273 163.092333 
L 151.389091 160.325764 
L 152.290909 162.919422 
L 154.996364 166.204723 
L 155.898182 168.798381 
L 156.8 163.438154 
L 161.309091 160.844496 
L 163.112727 146.838742 
L 164.014545 152.198969 
L 164.916364 151.334416 
L 167.621818 159.461211 
L 168.523636 157.559195 
L 169.425455 152.54479 
L 170.327273 153.063521 
L 171.229091 155.138448 
L 173.934545 151.334416 
L 174.836364 146.32001 
L 175.738182 149.4324 
L 176.64 153.928074 
L 177.541818 163.783975 
L 182.050909 163.265243 
L 182.952727 165.51308 
L 183.854545 166.723454 
L 186.56 164.475617 
L 187.461818 161.017406 
L 188.363636 161.709049 
L 189.265455 161.017406 
L 190.167273 161.017406 
L 192.872727 158.077927 
L 193.774545 159.11539 
L 194.676364 162.919422 
L 195.578182 164.302707 
L 196.48 161.881959 
L 199.185455 162.05487 
L 200.087273 163.611064 
L 200.989091 167.242186 
L 201.890909 167.933828 
L 202.792727 168.279649 
L 205.498182 168.279649 
L 206.4 171.910771 
L 207.301818 177.098087 
L 208.203636 175.368981 
L 209.105455 175.196071 
L 211.810909 173.812787 
L 212.712727 173.985697 
L 213.614545 176.060624 
L 214.516364 172.083681 
L 215.418182 176.406445 
L 218.123636 177.789729 
L 219.025455 177.443908 
L 219.927273 179.345924 
L 220.829091 177.270997 
L 221.730909 175.541892 
L 225.338182 180.729208 
L 226.24 180.037566 
L 227.141818 180.902119 
L 228.043636 181.075029 
L 230.749091 187.81854 
L 231.650909 189.547646 
L 232.552727 194.216231 
L 233.454545 197.15571 
L 234.356364 194.216231 
L 237.061818 202.515937 
L 237.963636 201.478473 
L 238.865455 202.515937 
L 239.767273 202.688847 
L 240.669091 201.651384 
L 243.374545 195.253694 
L 244.276364 196.118247 
L 245.178182 199.576457 
L 246.08 197.847352 
L 246.981818 197.847352 
L 249.687273 200.44101 
L 250.589091 200.613921 
L 251.490909 200.959742 
L 252.392727 200.44101 
L 253.294545 193.870409 
L 256 188.510183 
L 257.803636 189.201825 
L 258.705455 191.449662 
L 259.607273 191.449662 
L 262.312727 189.028914 
L 263.214545 188.510183 
L 264.116364 193.178767 
L 265.018182 196.809889 
L 265.92 197.32862 
L 268.625455 196.809889 
L 269.527273 192.832946 
L 270.429091 194.907873 
L 271.330909 190.75802 
L 274.938182 194.907873 
L 275.84 195.772425 
L 276.741818 199.403547 
L 277.643636 199.576457 
L 278.545455 199.057726 
L 281.250909 195.772425 
L 282.152727 191.795483 
L 283.054545 190.75802 
L 283.956364 189.547646 
L 284.858182 177.96264 
L 287.563636 171.046218 
L 288.465455 173.466965 
L 289.367273 173.812787 
L 290.269091 176.406445 
L 291.170909 176.233534 
L 293.876364 175.196071 
L 294.778182 171.046218 
L 295.68 177.616818 
L 296.581818 179.000103 
L 297.483636 178.308461 
L 300.189091 180.556298 
L 301.090909 180.037566 
L 301.992727 180.556298 
L 302.894545 179.173013 
L 303.796364 181.24794 
L 306.501818 183.841598 
L 307.403636 177.098087 
L 308.305455 174.331518 
L 309.207273 174.504429 
L 310.109091 166.896365 
L 313.716364 168.971291 
L 314.618182 166.204723 
L 315.52 165.685991 
L 316.421818 160.325764 
L 325.44 170.700397 
L 326.341818 168.798381 
L 327.243636 170.700397 
L 328.145455 180.902119 
L 329.047273 173.294055 
L 331.752727 176.579355 
L 332.654545 172.083681 
L 333.556364 172.775323 
L 334.458182 176.925176 
L 335.36 165.34017 
L 338.065455 158.596659 
L 338.967273 163.956886 
L 339.869091 160.498675 
L 340.770909 156.175911 
L 341.672727 158.077927 
L 344.378182 165.51308 
L 345.28 162.919422 
L 346.181818 162.746512 
L 347.083636 164.129796 
L 347.985455 159.634122 
L 350.690909 162.573601 
L 351.592727 163.956886 
L 352.494545 164.475617 
L 353.396364 163.092333 
L 354.298182 168.971291 
L 357.003636 168.798381 
L 357.905455 169.144202 
L 358.807273 170.873307 
L 359.709091 167.760918 
L 360.610909 168.62547 
L 363.316364 163.783975 
L 364.218182 168.62547 
L 365.12 167.933828 
L 366.021818 168.971291 
L 366.923636 172.948234 
L 369.629091 172.602413 
L 370.530909 175.368981 
L 371.432727 173.639876 
L 372.334545 175.02316 
L 373.236364 172.256592 
L 375.941818 168.279649 
L 376.843636 168.279649 
L 377.745455 170.700397 
L 378.647273 174.158608 
L 379.549091 173.639876 
L 382.254545 175.541892 
L 383.156364 174.504429 
L 384.058182 174.331518 
L 384.96 171.73786 
L 385.861818 175.541892 
L 388.567273 173.466965 
L 390.370909 179.518834 
L 391.272727 183.495777 
L 392.174545 187.991451 
L 394.88 188.510183 
L 395.781818 189.893467 
L 396.683636 190.585109 
L 397.585455 190.93093 
L 398.487273 189.201825 
L 398.487273 189.201825 
" style="fill:none;stroke:#ff7f0e;stroke-linecap:square;stroke-width:1.5;"/>
   </g>
   <g id="line2d_15">
    <path clip-path="url(#p7a5f2fc574)" d="M 73.832727 114.50447 
L 74.734545 116.177815 
L 75.636364 110.430239 
L 76.538182 98.498562 
L 79.243636 89.549804 
L 81.047273 91.877936 
L 81.949091 95.661151 
L 82.850909 92.750986 
L 85.556364 81.54685 
L 86.458182 58.920316 
L 87.36 62.048743 
L 88.261818 62.121497 
L 89.163636 64.595138 
L 91.869091 63.794842 
L 92.770909 53.245494 
L 93.672727 52.154182 
L 94.574545 58.920316 
L 95.476364 60.084382 
L 98.181818 70.779239 
L 99.083636 86.857901 
L 99.985455 78.127406 
L 100.887273 78.563931 
L 101.789091 79.43698 
L 104.494545 82.274391 
L 105.396364 90.786624 
L 106.298182 111.448797 
L 107.2 113.122142 
L 108.101818 123.889753 
L 110.807273 119.306243 
L 111.709091 113.26765 
L 112.610909 110.066468 
L 119.825455 106.2105 
L 120.727273 98.789578 
L 123.432727 102.718301 
L 124.334545 112.03083 
L 125.236364 113.485912 
L 126.138182 115.595782 
L 127.04 116.541586 
L 129.745455 117.269127 
L 130.647273 106.428762 
L 131.549091 112.03083 
L 132.450909 106.647024 
L 133.352727 107.956599 
L 136.058182 114.067946 
L 136.96 115.086503 
L 137.861818 113.485912 
L 139.665455 113.995191 
L 142.370909 121.634375 
L 143.272727 123.380474 
L 144.174545 121.052342 
L 145.076364 124.54454 
L 145.978182 125.344836 
L 148.683636 130.728641 
L 149.585455 125.708606 
L 150.487273 123.453228 
L 151.389091 102.86381 
L 152.290909 109.193419 
L 154.996364 107.738336 
L 155.898182 106.647024 
L 156.8 112.758371 
L 161.309091 121.343358 
L 162.210909 117.269127 
L 163.112727 114.1407 
L 164.014545 119.670013 
L 164.916364 124.035261 
L 167.621818 132.911265 
L 168.523636 133.71156 
L 169.425455 132.838511 
L 170.327273 131.456182 
L 173.934545 133.784314 
L 174.836364 126.363393 
L 175.738182 132.256478 
L 176.64 144.042647 
L 177.541818 144.770188 
L 182.050909 150.008485 
L 182.952727 152.55488 
L 183.854545 155.610553 
L 186.56 152.191109 
L 187.461818 142.660318 
L 188.363636 146.225271 
L 190.167273 148.116878 
L 192.872727 148.116878 
L 193.774545 149.499206 
L 194.676364 153.282421 
L 195.578182 156.483603 
L 196.48 153.864454 
L 199.185455 154.446487 
L 200.087273 156.992882 
L 200.989091 156.410849 
L 201.890909 157.50216 
L 202.792727 159.393768 
L 205.498182 158.593472 
L 207.301818 172.12574 
L 208.203636 165.214098 
L 209.105455 162.231179 
L 211.810909 152.773142 
L 212.712727 151.390814 
L 213.614545 155.02852 
L 214.516364 152.118355 
L 215.418182 157.065636 
L 218.123636 152.700388 
L 219.025455 149.790223 
L 219.927273 150.299502 
L 220.829091 152.263863 
L 221.730909 147.753107 
L 225.338182 154.228225 
L 226.24 155.246783 
L 227.141818 149.644715 
L 228.043636 146.952812 
L 230.749091 158.666227 
L 231.650909 165.577869 
L 232.552727 175.181414 
L 233.454545 177.655054 
L 234.356364 172.416757 
L 237.061818 185.5125 
L 237.963636 181.001744 
L 238.865455 184.057418 
L 239.767273 183.693647 
L 240.669091 182.529581 
L 243.374545 176.709251 
L 244.276364 175.690693 
L 245.178182 180.710728 
L 246.08 177.873317 
L 246.981818 178.81912 
L 250.589091 184.202926 
L 251.490909 187.913386 
L 252.392727 186.38555 
L 253.294545 183.03886 
L 256 178.600858 
L 256.901818 174.017348 
L 257.803636 175.47243 
L 258.705455 178.891874 
L 259.607273 181.729285 
L 262.312727 182.747843 
L 263.214545 181.729285 
L 265.018182 195.843586 
L 265.92 198.02621 
L 268.625455 199.626801 
L 269.527273 192.351388 
L 270.429091 194.970537 
L 271.330909 187.840632 
L 272.232727 182.747843 
L 274.938182 183.766401 
L 275.84 189.004698 
L 276.741818 189.150207 
L 277.643636 186.094533 
L 278.545455 186.312796 
L 281.250909 181.511023 
L 282.152727 177.436792 
L 283.054545 177.364038 
L 283.956364 185.366992 
L 284.858182 185.658008 
L 287.563636 177.436792 
L 288.465455 177.655054 
L 289.367273 177.436792 
L 290.269091 180.419711 
L 291.170909 176.418234 
L 293.876364 180.05594 
L 294.778182 173.653577 
L 295.68 181.074498 
L 296.581818 185.439746 
L 297.483636 182.529581 
L 300.189091 180.710728 
L 301.090909 181.583777 
L 301.992727 184.930467 
L 303.796364 181.729285 
L 306.501818 185.294238 
L 307.403636 184.057418 
L 308.305455 175.545184 
L 309.207273 176.709251 
L 310.109091 163.686261 
L 313.716364 172.12574 
L 314.618182 171.907478 
L 315.52 173.508069 
L 316.421818 174.599381 
L 326.341818 192.642405 
L 327.243636 193.151684 
L 328.145455 199.117522 
L 329.047273 192.787913 
L 331.752727 195.188799 
L 332.654545 198.535489 
L 333.556364 197.007653 
L 334.458182 201.591163 
L 335.36 194.534012 
L 338.065455 185.366992 
L 338.967273 190.314273 
L 339.869091 187.113091 
L 340.770909 180.492465 
L 341.672727 178.164333 
L 344.378182 185.5125 
L 345.28 179.037383 
L 346.181818 175.10866 
L 347.985455 172.271249 
L 350.690909 176.490988 
L 351.592727 175.763447 
L 352.494545 177.873317 
L 353.396364 176.854759 
L 354.298182 180.05594 
L 357.003636 177.655054 
L 357.905455 177.218529 
L 359.709091 174.017348 
L 363.316364 162.449441 
L 364.218182 164.777573 
L 365.12 162.012916 
L 366.021818 164.923082 
L 366.923636 170.234133 
L 369.629091 168.124263 
L 370.530909 169.870362 
L 371.432727 163.104228 
L 372.334545 167.396722 
L 373.236364 166.30541 
L 375.941818 164.19554 
L 376.843636 168.560788 
L 377.745455 167.323968 
L 378.647273 168.77905 
L 379.549091 167.032951 
L 382.254545 169.506592 
L 383.156364 162.449441 
L 384.058182 159.684784 
L 384.96 154.228225 
L 385.861818 158.884489 
L 388.567273 158.447964 
L 389.469091 165.868885 
L 390.370909 166.741935 
L 391.272727 167.323968 
L 392.174545 174.963151 
L 394.88 177.655054 
L 395.781818 177.000267 
L 396.683636 178.237087 
L 397.585455 180.856236 
L 398.487273 178.091579 
L 398.487273 178.091579 
" style="fill:none;stroke:#2ca02c;stroke-linecap:square;stroke-width:1.5;"/>
   </g>
   <g id="line2d_16">
    <path clip-path="url(#p7a5f2fc574)" d="M 73.832727 114.50447 
L 74.734545 99.023017 
L 75.636364 104.961109 
L 76.538182 105.597333 
L 79.243636 109.202603 
L 80.145455 107.29393 
L 81.047273 113.868246 
L 81.949091 115.034657 
L 82.850909 115.988993 
L 85.556364 125.532355 
L 86.458182 120.336525 
L 87.36 122.351234 
L 88.261818 123.199533 
L 89.163636 123.199533 
L 92.770909 121.821048 
L 93.672727 117.261441 
L 94.574545 120.654637 
L 95.476364 121.927085 
L 98.181818 124.684056 
L 99.083636 124.684056 
L 99.985455 137.196464 
L 100.887273 140.589659 
L 101.789091 140.589659 
L 104.494545 140.271547 
L 105.396364 141.437958 
L 106.298182 140.377584 
L 107.2 138.999099 
L 108.101818 138.787024 
L 110.807273 136.13609 
L 111.709091 138.256837 
L 112.610909 137.196464 
L 120.727273 136.560239 
L 123.432727 135.393829 
L 124.334545 132.95497 
L 125.236364 132.95497 
L 126.138182 130.94026 
L 127.04 127.228953 
L 129.745455 130.197998 
L 130.647273 126.592728 
L 131.549091 129.773849 
L 132.450909 128.713475 
L 136.058182 120.760674 
L 136.96 103.264511 
L 137.861818 114.50447 
L 138.763636 110.687126 
L 139.665455 109.626752 
L 142.370909 109.626752 
L 143.272727 110.687126 
L 145.076364 110.687126 
L 145.978182 112.807873 
L 148.683636 109.626752 
L 149.585455 101.143764 
L 150.487273 106.551669 
L 151.389091 110.050902 
L 152.290909 109.096565 
L 154.996364 111.641462 
L 155.898182 111.217312 
L 156.8 111.005238 
L 161.309091 111.959574 
L 162.210909 114.186358 
L 163.112727 114.186358 
L 164.014545 116.837292 
L 164.916364 118.745964 
L 167.621818 116.837292 
L 168.523636 115.988993 
L 169.425455 117.049367 
L 170.327273 119.170114 
L 171.229091 120.548599 
L 173.934545 122.669346 
L 174.836364 124.578019 
L 175.738182 125.532355 
L 176.64 127.122915 
L 177.541818 130.304036 
L 182.050909 133.909306 
L 182.952727 135.393829 
L 183.854545 134.12138 
L 186.56 123.623683 
L 187.461818 124.047832 
L 188.363636 117.897666 
L 189.265455 118.639927 
L 190.167273 122.13916 
L 192.872727 123.941795 
L 193.774545 124.153869 
L 194.676364 117.155404 
L 195.578182 122.457272 
L 196.48 122.351234 
L 200.087273 111.217312 
L 200.989091 113.550134 
L 201.890909 101.249801 
L 202.792727 105.809407 
L 205.498182 106.445632 
L 206.4 107.506005 
L 207.301818 108.248267 
L 208.203636 112.277686 
L 209.105455 119.170114 
L 211.810909 122.563309 
L 212.712727 122.669346 
L 213.614545 125.32028 
L 214.516364 126.168579 
L 215.418182 128.395363 
L 218.123636 132.636857 
L 219.025455 133.167044 
L 219.927273 135.711941 
L 220.829091 136.772314 
L 221.730909 140.907771 
L 225.338182 147.588124 
L 226.24 148.330386 
L 227.141818 151.723581 
L 228.043636 149.602834 
L 230.749091 151.511506 
L 231.650909 151.511506 
L 232.552727 151.087357 
L 233.454545 149.602834 
L 234.356364 143.558705 
L 237.061818 148.860572 
L 237.963636 146.209638 
L 239.767273 149.072647 
L 240.669091 149.496796 
L 243.374545 151.617543 
L 244.276364 152.677917 
L 245.178182 152.359805 
L 246.08 149.284722 
L 246.981818 152.57188 
L 249.687273 155.965075 
L 250.589091 158.722046 
L 252.392727 163.281652 
L 253.294545 161.479017 
L 256 157.131486 
L 256.901818 153.632253 
L 257.803636 154.16244 
L 258.705455 156.283187 
L 259.607273 155.646963 
L 263.214545 156.919411 
L 264.116364 152.041693 
L 265.018182 153.526216 
L 265.92 148.224348 
L 268.625455 140.589659 
L 269.527273 135.605903 
L 270.429091 137.196464 
L 271.330909 151.511506 
L 272.232727 157.661672 
L 275.84 157.449598 
L 276.741818 160.206569 
L 277.643636 154.374515 
L 278.545455 155.222813 
L 281.250909 154.692627 
L 282.152727 156.17715 
L 283.054545 156.919411 
L 283.956364 157.979785 
L 284.858182 159.464307 
L 287.563636 159.252233 
L 288.465455 159.464307 
L 290.269091 162.327316 
L 291.170909 167.098997 
L 293.876364 166.886922 
L 294.778182 167.417109 
L 296.581818 173.037088 
L 297.483636 172.082752 
L 301.090909 181.732151 
L 301.992727 181.520077 
L 302.894545 182.792525 
L 303.796364 183.428749 
L 306.501818 185.761571 
L 307.403636 185.549496 
L 308.305455 185.867608 
L 310.109091 180.56574 
L 314.618182 181.944226 
L 315.52 183.428749 
L 316.421818 182.792525 
L 341.672727 182.792525 
L 344.378182 187.140056 
L 345.28 185.973645 
L 346.181818 186.609869 
L 347.083636 187.034019 
L 347.985455 184.277048 
L 350.690909 178.444993 
L 351.592727 178.97518 
L 352.494545 180.459703 
L 353.396364 178.551031 
L 354.298182 179.823479 
L 357.003636 175.475948 
L 357.905455 169.855968 
L 358.807273 169.325781 
L 359.709091 170.17408 
L 360.610909 167.417109 
L 363.316364 167.629184 
L 364.218182 171.976715 
L 365.12 171.022379 
L 366.021818 168.58352 
L 366.923636 176.536321 
L 369.629091 176.642358 
L 370.530909 169.431819 
L 371.432727 172.400864 
L 372.334545 177.702732 
L 373.236364 179.39933 
L 376.843636 172.294827 
L 377.745455 173.673313 
L 378.647273 173.567275 
L 379.549091 178.232919 
L 382.254545 181.626114 
L 383.156364 173.249163 
L 384.058182 175.688022 
L 384.96 170.598229 
L 385.861818 157.76771 
L 388.567273 165.190324 
L 389.469091 172.082752 
L 390.370909 177.172545 
L 391.272727 177.066508 
L 392.174545 178.869143 
L 394.88 176.96047 
L 395.781818 179.929516 
L 396.683636 178.444993 
L 397.585455 181.414039 
L 398.487273 181.414039 
L 398.487273 181.414039 
" style="fill:none;stroke:#d62728;stroke-linecap:square;stroke-width:1.5;"/>
   </g>
   <g id="line2d_17">
    <path clip-path="url(#p7a5f2fc574)" d="M 73.832727 114.50447 
L 74.734545 117.246223 
L 75.636364 116.149522 
L 76.538182 113.407769 
L 79.243636 111.762717 
L 80.145455 109.569315 
L 81.047273 114.50447 
L 81.949091 116.149522 
L 82.850909 111.762717 
L 85.556364 120.536327 
L 86.458182 115.052821 
L 87.36 118.891275 
L 88.261818 118.891275 
L 89.163636 120.536327 
L 91.869091 122.729729 
L 92.770909 122.181378 
L 93.672727 121.084677 
L 94.574545 120.536327 
L 95.476364 119.439625 
L 98.181818 122.729729 
L 99.083636 124.37478 
L 99.985455 130.406637 
L 100.887273 139.180246 
L 101.789091 143.0187 
L 104.494545 141.921999 
L 105.396364 152.340659 
L 106.298182 151.243958 
L 107.2 147.953855 
L 108.101818 151.792309 
L 110.807273 146.857154 
L 111.709091 148.502205 
L 112.610909 145.212102 
L 119.825455 144.115401 
L 120.727273 144.115401 
L 123.432727 141.921999 
L 124.334545 143.0187 
L 125.236364 141.921999 
L 126.138182 141.373648 
L 127.04 140.276947 
L 129.745455 141.921999 
L 130.647273 139.180246 
L 131.549091 117.794574 
L 132.450909 122.729729 
L 133.352727 125.471482 
L 136.058182 124.37478 
L 136.96 126.568183 
L 137.861818 126.019832 
L 138.763636 132.600039 
L 139.665455 133.69674 
L 142.370909 134.793441 
L 143.272727 133.148389 
L 144.174545 136.438493 
L 145.076364 136.438493 
L 145.978182 150.695608 
L 148.683636 149.050556 
L 149.585455 144.663751 
L 150.487273 137.535194 
L 151.389091 136.438493 
L 152.290909 139.728596 
L 154.996364 141.373648 
L 155.898182 145.760452 
L 156.8 145.212102 
L 161.309091 145.212102 
L 162.210909 145.760452 
L 163.112727 147.405504 
L 164.916364 151.792309 
L 167.621818 153.43736 
L 168.523636 155.082412 
L 169.425455 152.88901 
L 170.327273 152.340659 
L 171.229091 158.372515 
L 173.934545 158.920866 
L 174.836364 151.792309 
L 175.738182 151.243958 
L 176.64 155.630763 
L 177.541818 155.082412 
L 182.050909 153.43736 
L 182.952727 152.340659 
L 183.854545 151.792309 
L 186.56 148.502205 
L 187.461818 148.502205 
L 188.363636 149.598906 
L 189.265455 145.760452 
L 190.167273 145.212102 
L 192.872727 145.760452 
L 193.774545 147.405504 
L 195.578182 149.598906 
L 196.48 149.598906 
L 199.185455 148.502205 
L 200.087273 149.050556 
L 200.989091 150.695608 
L 201.890909 150.695608 
L 202.792727 147.953855 
L 205.498182 149.598906 
L 206.4 153.985711 
L 207.301818 164.952722 
L 208.203636 162.75932 
L 209.105455 162.75932 
L 211.810909 164.952722 
L 212.712727 163.856021 
L 213.614545 165.501073 
L 214.516364 166.049423 
L 215.418182 168.791176 
L 218.123636 170.984578 
L 219.025455 171.532929 
L 219.927273 177.016435 
L 220.829091 177.564785 
L 221.730909 180.854889 
L 225.338182 197.853756 
L 226.24 192.37025 
L 227.141818 191.8219 
L 228.043636 190.725199 
L 230.749091 190.725199 
L 231.650909 189.628498 
L 232.552727 189.628498 
L 233.454545 192.37025 
L 234.356364 189.080147 
L 237.061818 192.37025 
L 237.963636 190.725199 
L 238.865455 190.725199 
L 239.767273 194.563653 
L 244.276364 191.8219 
L 245.178182 196.208704 
L 246.08 192.918601 
L 246.981818 190.176848 
L 249.687273 190.176848 
L 250.589091 190.725199 
L 251.490909 174.823032 
L 252.392727 183.048291 
L 253.294545 184.693343 
L 256 185.241693 
L 256.901818 174.274682 
L 257.803636 179.758187 
L 258.705455 175.919734 
L 259.607273 175.919734 
L 262.312727 177.564785 
L 263.214545 178.661486 
L 264.116364 182.49994 
L 265.018182 187.435095 
L 265.92 188.531796 
L 268.625455 192.37025 
L 269.527273 187.983446 
L 270.429091 186.338394 
L 271.330909 183.596641 
L 272.232727 182.49994 
L 274.938182 183.596641 
L 275.84 181.403239 
L 276.741818 186.338394 
L 277.643636 189.080147 
L 278.545455 190.725199 
L 281.250909 189.080147 
L 282.152727 187.983446 
L 283.054545 189.628498 
L 284.858182 188.531796 
L 287.563636 185.241693 
L 288.465455 181.403239 
L 289.367273 182.49994 
L 290.269091 187.435095 
L 291.170909 189.080147 
L 293.876364 187.435095 
L 294.778182 185.790044 
L 295.68 189.080147 
L 296.581818 189.080147 
L 297.483636 188.531796 
L 300.189091 187.983446 
L 301.090909 189.628498 
L 301.992727 189.080147 
L 302.894545 186.886745 
L 303.796364 189.080147 
L 306.501818 190.176848 
L 307.403636 187.983446 
L 308.305455 185.241693 
L 309.207273 184.693343 
L 310.109091 183.048291 
L 313.716364 186.886745 
L 314.618182 186.338394 
L 315.52 189.628498 
L 316.421818 190.176848 
L 325.44 195.112003 
L 326.341818 194.563653 
L 327.243636 192.918601 
L 328.145455 207.724066 
L 329.047273 208.272417 
L 331.752727 210.465819 
L 332.654545 211.56252 
L 333.556364 209.369118 
L 334.458182 212.659221 
L 335.36 208.820767 
L 338.065455 194.563653 
L 338.967273 199.498808 
L 339.869091 197.853756 
L 340.770909 201.69221 
L 341.672727 201.69221 
L 344.378182 204.982313 
L 345.28 203.885612 
L 346.181818 201.69221 
L 347.083636 202.788911 
L 347.985455 200.047158 
L 350.690909 197.305406 
L 351.592727 196.757055 
L 352.494545 198.402107 
L 353.396364 194.563653 
L 354.298182 194.015302 
L 357.003636 186.886745 
L 357.905455 178.661486 
L 358.807273 182.49994 
L 359.709091 182.49994 
L 360.610909 178.661486 
L 363.316364 177.564785 
L 364.218182 183.596641 
L 366.021818 183.596641 
L 366.923636 192.37025 
L 369.629091 191.273549 
L 370.530909 191.273549 
L 372.334545 186.886745 
L 373.236364 186.886745 
L 375.941818 182.49994 
L 376.843636 183.596641 
L 377.745455 186.338394 
L 378.647273 186.338394 
L 379.549091 185.790044 
L 382.254545 191.273549 
L 383.156364 184.693343 
L 384.058182 186.338394 
L 384.96 186.886745 
L 385.861818 190.176848 
L 388.567273 189.628498 
L 389.469091 192.37025 
L 390.370909 194.015302 
L 391.272727 194.563653 
L 392.174545 196.208704 
L 394.88 195.660354 
L 395.781818 200.047158 
L 396.683636 201.143859 
L 397.585455 205.530664 
L 398.487273 204.433963 
L 398.487273 204.433963 
" style="fill:none;stroke:#9467bd;stroke-linecap:square;stroke-width:1.5;"/>
   </g>
   <g id="line2d_18">
    <path clip-path="url(#p7a5f2fc574)" d="M 73.832727 114.50447 
L 132.450909 114.50447 
L 133.352727 116.373932 
L 136.058182 120.37992 
L 136.96 119.04459 
L 137.861818 129.994292 
L 138.763636 139.074532 
L 142.370909 140.142796 
L 143.272727 140.943993 
L 144.174545 142.813455 
L 145.076364 141.478125 
L 145.978182 159.638606 
L 148.683636 159.104474 
L 149.585455 156.700881 
L 150.487273 158.303276 
L 151.389091 150.558365 
L 152.290909 154.564354 
L 154.996364 157.769144 
L 155.898182 162.042199 
L 156.8 160.439803 
L 161.309091 159.37154 
L 162.210909 156.433815 
L 163.112727 157.235013 
L 164.014545 160.706869 
L 164.916364 156.700881 
L 167.621818 158.03621 
L 168.523636 162.843396 
L 169.425455 160.973935 
L 170.327273 161.241001 
L 171.229091 164.445792 
L 173.934545 167.917648 
L 174.836364 157.502078 
L 175.738182 161.508067 
L 176.64 167.11645 
L 177.541818 164.712857 
L 182.050909 162.843396 
L 182.952727 160.973935 
L 183.854545 160.706869 
L 186.56 156.967947 
L 187.461818 151.626629 
L 188.363636 155.632617 
L 189.265455 149.490102 
L 190.167273 151.092497 
L 192.872727 156.166749 
L 193.774545 152.961958 
L 194.676364 152.694892 
L 195.578182 150.825431 
L 196.48 150.825431 
L 199.185455 149.757168 
L 200.087273 152.160761 
L 200.989091 153.49609 
L 201.890909 151.092497 
L 202.792727 154.564354 
L 206.4 161.508067 
L 207.301818 169.252978 
L 208.203636 166.315253 
L 209.105455 167.11645 
L 211.810909 167.11645 
L 212.712727 163.91166 
L 213.614545 166.048187 
L 214.516364 166.048187 
L 215.418182 168.985912 
L 218.123636 167.917648 
L 219.025455 167.11645 
L 219.927273 166.582319 
L 220.829091 166.315253 
L 221.730909 167.383516 
L 225.338182 185.811063 
L 226.24 186.078129 
L 227.141818 187.94759 
L 228.043636 191.419446 
L 230.749091 192.220644 
L 231.650909 193.555974 
L 232.552727 197.02783 
L 233.454545 199.164357 
L 234.356364 194.891303 
L 237.061818 204.505675 
L 237.963636 200.499687 
L 238.865455 199.164357 
L 239.767273 208.244597 
L 240.669091 209.312861 
L 243.374545 206.642202 
L 244.276364 204.505675 
L 245.178182 209.312861 
L 246.08 205.306873 
L 246.981818 203.971543 
L 249.687273 204.238609 
L 250.589091 204.505675 
L 251.490909 205.306873 
L 252.392727 206.642202 
L 253.294545 204.238609 
L 256 201.835016 
L 256.901818 196.493698 
L 257.803636 195.959567 
L 258.705455 196.226632 
L 259.607273 190.084117 
L 262.312727 192.220644 
L 264.116364 197.561962 
L 265.018182 205.841004 
L 265.92 204.772741 
L 268.625455 207.176334 
L 269.527273 203.170346 
L 270.429091 204.772741 
L 271.330909 201.835016 
L 272.232727 196.760764 
L 274.938182 200.499687 
L 275.84 199.431423 
L 276.741818 204.238609 
L 277.643636 205.573939 
L 278.545455 207.710466 
L 281.250909 205.841004 
L 282.152727 204.238609 
L 283.054545 206.375136 
L 283.956364 204.505675 
L 284.858182 204.238609 
L 287.563636 201.835016 
L 288.465455 201.835016 
L 289.367273 203.170346 
L 290.269091 204.772741 
L 291.170909 206.909268 
L 293.876364 207.4434 
L 294.778182 206.10807 
L 295.68 209.846993 
L 297.483636 211.98352 
L 300.189091 215.722442 
L 301.090909 214.921245 
L 301.992727 215.989508 
L 302.894545 214.387113 
L 303.796364 214.654179 
L 306.501818 218.393101 
L 307.403636 215.989508 
L 309.207273 187.413458 
L 310.109091 191.686512 
L 313.716364 200.232621 
L 314.618182 200.766753 
L 315.52 200.499687 
L 316.421818 199.164357 
L 325.44 211.98352 
L 326.341818 211.449388 
L 327.243636 211.716454 
L 328.145455 225.60388 
L 329.047273 222.39909 
L 331.752727 222.132024 
L 332.654545 226.672144 
L 333.556364 225.069748 
L 334.458182 225.336814 
L 335.36 221.06376 
L 338.065455 215.989508 
L 338.967273 216.52364 
L 339.869091 215.722442 
L 340.770909 217.324838 
L 341.672727 215.188311 
L 344.378182 219.461365 
L 345.28 218.126035 
L 346.181818 215.989508 
L 347.083636 216.790706 
L 347.985455 214.120047 
L 350.690909 214.387113 
L 351.592727 214.654179 
L 352.494545 215.722442 
L 353.396364 215.455376 
L 354.298182 217.057772 
L 357.003636 214.387113 
L 357.905455 210.381125 
L 358.807273 209.846993 
L 359.709091 204.505675 
L 360.610909 203.971543 
L 363.316364 196.226632 
L 364.218182 204.772741 
L 365.12 201.300884 
L 366.021818 203.170346 
L 366.923636 210.64819 
L 370.530909 209.846993 
L 371.432727 209.045795 
L 372.334545 208.778729 
L 376.843636 202.102082 
L 377.745455 199.965555 
L 378.647273 200.766753 
L 379.549091 198.897291 
L 382.254545 201.033818 
L 383.156364 193.021842 
L 384.058182 194.891303 
L 384.96 195.425435 
L 385.861818 198.630225 
L 388.567273 196.493698 
L 389.469091 205.306873 
L 390.370909 204.772741 
L 391.272727 205.841004 
L 392.174545 207.4434 
L 394.88 209.045795 
L 395.781818 213.318849 
L 396.683636 211.716454 
L 397.585455 213.585915 
L 398.487273 213.051783 
L 398.487273 213.051783 
" style="fill:none;stroke:#8c564b;stroke-linecap:square;stroke-width:1.5;"/>
   </g>
   <g id="line2d_19">
    <path clip-path="url(#p7a5f2fc574)" d="M 73.832727 114.50447 
L 133.352727 114.50447 
L 136.96 124.220557 
L 137.861818 137.021115 
L 138.763636 141.339376 
L 139.665455 130.081054 
L 142.370909 126.688134 
L 143.272727 135.324656 
L 144.174545 134.861985 
L 145.076364 129.618383 
L 145.978182 141.647823 
L 148.683636 142.881612 
L 149.585455 130.389501 
L 150.487273 132.08596 
L 151.389091 129.772606 
L 154.996364 132.240184 
L 155.898182 126.533911 
L 156.8 131.469066 
L 161.309091 136.249997 
L 162.210909 133.319749 
L 163.112727 133.473973 
L 164.014545 134.861985 
L 164.916364 135.787327 
L 167.621818 135.633103 
L 169.425455 138.871799 
L 170.327273 141.4936 
L 171.229091 141.647823 
L 173.934545 141.339376 
L 174.836364 139.951364 
L 175.738182 141.4936 
L 176.64 142.110494 
L 177.541818 141.802047 
L 182.050909 138.717575 
L 182.952727 140.414034 
L 183.854545 140.414034 
L 186.56 141.030929 
L 187.461818 137.792233 
L 188.363636 139.951364 
L 190.167273 143.344283 
L 192.872727 143.65273 
L 193.774545 144.732295 
L 194.676364 146.274531 
L 195.578182 147.045649 
L 196.48 146.274531 
L 199.185455 146.737202 
L 200.087273 146.120308 
L 200.989091 146.274531 
L 201.890909 138.409128 
L 202.792727 141.185152 
L 205.498182 143.498506 
L 206.4 143.65273 
L 207.301818 139.79714 
L 208.203636 141.185152 
L 209.105455 146.274531 
L 211.810909 138.563351 
L 212.712727 137.175339 
L 213.614545 137.021115 
L 214.516364 137.946457 
L 215.418182 138.563351 
L 218.123636 139.026022 
L 219.025455 139.488693 
L 219.927273 140.722482 
L 233.454545 140.722482 
L 234.356364 144.886519 
L 237.061818 146.891426 
L 237.963636 144.578072 
L 238.865455 145.040742 
L 239.767273 146.582978 
L 240.669091 144.578072 
L 243.374545 142.573165 
L 244.276364 137.021115 
L 245.178182 142.881612 
L 246.08 142.418941 
L 246.981818 130.852172 
L 249.687273 136.095774 
L 250.589091 134.707761 
L 251.490909 123.91211 
L 252.392727 136.712668 
L 253.294545 144.115401 
L 256 144.423848 
L 256.901818 145.040742 
L 257.803636 145.34919 
L 258.705455 146.582978 
L 259.607273 136.866892 
L 262.312727 145.194966 
L 263.214545 144.732295 
L 264.116364 149.359003 
L 265.018182 153.214593 
L 265.92 151.672357 
L 268.625455 159.229313 
L 269.527273 150.130121 
L 270.429091 154.602605 
L 271.330909 148.433661 
L 272.232727 145.81186 
L 274.938182 148.279438 
L 275.84 147.50832 
L 276.741818 152.135028 
L 277.643636 150.284345 
L 278.545455 152.135028 
L 281.250909 152.289251 
L 282.152727 152.751922 
L 283.054545 154.294158 
L 283.956364 153.831487 
L 284.858182 154.139935 
L 287.563636 155.836394 
L 288.465455 155.065276 
L 289.367273 157.224406 
L 290.269091 162.93068 
L 291.170909 162.776456 
L 293.876364 157.070183 
L 294.778182 157.224406 
L 295.68 157.532854 
L 296.581818 158.149748 
L 297.483636 161.079996 
L 300.189091 164.781363 
L 301.090909 161.079996 
L 301.992727 160.617326 
L 302.894545 161.23422 
L 303.796364 161.388444 
L 306.501818 162.313785 
L 307.403636 161.388444 
L 308.305455 162.93068 
L 309.207273 164.935586 
L 310.109091 167.403164 
L 313.716364 185.755772 
L 315.52 217.217385 
L 316.421818 230.634838 
L 325.44 242.664279 
L 326.341818 245.594527 
L 328.145455 265.797818 
L 329.047273 262.250675 
L 331.752727 253.305707 
L 332.654545 259.783098 
L 333.556364 262.250675 
L 335.36 243.435397 
L 338.065455 232.639745 
L 338.967273 220.764528 
L 339.869091 221.227199 
L 340.770909 233.873534 
L 341.672727 232.639745 
L 344.378182 244.514962 
L 345.28 242.818502 
L 346.181818 239.579807 
L 347.083636 240.967819 
L 347.985455 240.813596 
L 350.690909 233.565087 
L 351.592727 242.972726 
L 352.494545 242.972726 
L 353.396364 238.500242 
L 354.298182 238.962912 
L 357.003636 234.490428 
L 357.905455 222.769435 
L 358.807273 228.013037 
L 359.709091 228.784155 
L 360.610909 225.391236 
L 363.316364 225.699683 
L 364.218182 224.465894 
L 366.021818 197.785212 
L 366.923636 203.337262 
L 369.629091 218.142727 
L 370.530909 224.157447 
L 371.432727 226.470801 
L 372.334545 237.112229 
L 373.236364 241.122043 
L 375.941818 237.420676 
L 376.843636 226.00813 
L 377.745455 229.555273 
L 378.647273 222.306764 
L 379.549091 228.013037 
L 382.254545 234.798875 
L 383.156364 223.077882 
L 384.058182 224.003224 
L 384.96 219.684963 
L 385.861818 226.470801 
L 388.567273 218.913845 
L 389.469091 209.814653 
L 390.370909 215.212479 
L 391.272727 216.754715 
L 392.174545 222.306764 
L 394.88 219.684963 
L 395.781818 219.376516 
L 396.683636 217.217385 
L 397.585455 225.391236 
L 398.487273 227.087696 
L 398.487273 227.087696 
" style="fill:none;stroke:#e377c2;stroke-linecap:square;stroke-width:1.5;"/>
   </g>
   <g id="patch_3">
    <path d="M 57.6 276.48 
L 57.6 41.472 
" style="fill:none;stroke:#000000;stroke-linecap:square;stroke-linejoin:miter;stroke-width:0.8;"/>
   </g>
   <g id="patch_4">
    <path d="M 414.72 276.48 
L 414.72 41.472 
" style="fill:none;stroke:#000000;stroke-linecap:square;stroke-linejoin:miter;stroke-width:0.8;"/>
   </g>
   <g id="patch_5">
    <path d="M 57.6 276.48 
L 414.72 276.48 
" style="fill:none;stroke:#000000;stroke-linecap:square;stroke-linejoin:miter;stroke-width:0.8;"/>
   </g>
   <g id="patch_6">
    <path d="M 57.6 41.472 
L 414.72 41.472 
" style="fill:none;stroke:#000000;stroke-linecap:square;stroke-linejoin:miter;stroke-width:0.8;"/>
   </g>
   <g id="legend_1">
    <g id="patch_7">
     <path d="M 321.168438 152.218875 
L 407.72 152.218875 
Q 409.72 152.218875 409.72 150.218875 
L 409.72 48.472 
Q 409.72 46.472 407.72 46.472 
L 321.168438 46.472 
Q 319.168438 46.472 319.168438 48.472 
L 319.168438 150.218875 
Q 319.168438 152.218875 321.168438 152.218875 
z
" style="fill:#ffffff;opacity:0.8;stroke:#cccccc;stroke-linejoin:miter;"/>
    </g>
    <g id="line2d_20">
     <path d="M 323.168438 54.570437 
L 343.168438 54.570437 
" style="fill:none;stroke:#1f77b4;stroke-linecap:square;stroke-width:1.5;"/>
    </g>
    <g id="line2d_21"/>
    <g id="text_13">
     <!-- 399004.SZ -->
     <defs>
      <path d="M 53.515625 70.515625 
L 53.515625 60.890625 
Q 47.90625 63.578125 42.921875 64.890625 
Q 37.9375 66.21875 33.296875 66.21875 
Q 25.25 66.21875 20.875 63.09375 
Q 16.5 59.96875 16.5 54.203125 
Q 16.5 49.359375 19.40625 46.890625 
Q 22.3125 44.4375 30.421875 42.921875 
L 36.375 41.703125 
Q 47.40625 39.59375 52.65625 34.296875 
Q 57.90625 29 57.90625 20.125 
Q 57.90625 9.515625 50.796875 4.046875 
Q 43.703125 -1.421875 29.984375 -1.421875 
Q 24.8125 -1.421875 18.96875 -0.25 
Q 13.140625 0.921875 6.890625 3.21875 
L 6.890625 13.375 
Q 12.890625 10.015625 18.65625 8.296875 
Q 24.421875 6.59375 29.984375 6.59375 
Q 38.421875 6.59375 43.015625 9.90625 
Q 47.609375 13.234375 47.609375 19.390625 
Q 47.609375 24.75 44.3125 27.78125 
Q 41.015625 30.8125 33.5 32.328125 
L 27.484375 33.5 
Q 16.453125 35.6875 11.515625 40.375 
Q 6.59375 45.0625 6.59375 53.421875 
Q 6.59375 63.09375 13.40625 68.65625 
Q 20.21875 74.21875 32.171875 74.21875 
Q 37.3125 74.21875 42.625 73.28125 
Q 47.953125 72.359375 53.515625 70.515625 
z
" id="DejaVuSans-83"/>
      <path d="M 5.609375 72.90625 
L 62.890625 72.90625 
L 62.890625 65.375 
L 16.796875 8.296875 
L 64.015625 8.296875 
L 64.015625 0 
L 4.5 0 
L 4.5 7.515625 
L 50.59375 64.59375 
L 5.609375 64.59375 
z
" id="DejaVuSans-90"/>
     </defs>
     <g transform="translate(351.168438 58.070437)scale(0.1 -0.1)">
      <use xlink:href="#DejaVuSans-51"/>
      <use x="63.623047" xlink:href="#DejaVuSans-57"/>
      <use x="127.246094" xlink:href="#DejaVuSans-57"/>
      <use x="190.869141" xlink:href="#DejaVuSans-48"/>
      <use x="254.492188" xlink:href="#DejaVuSans-48"/>
      <use x="318.115234" xlink:href="#DejaVuSans-52"/>
      <use x="381.738281" xlink:href="#DejaVuSans-46"/>
      <use x="413.525391" xlink:href="#DejaVuSans-83"/>
      <use x="477.001953" xlink:href="#DejaVuSans-90"/>
     </g>
    </g>
    <g id="line2d_22">
     <path d="M 323.168438 69.248562 
L 343.168438 69.248562 
" style="fill:none;stroke:#ff7f0e;stroke-linecap:square;stroke-width:1.5;"/>
    </g>
    <g id="line2d_23"/>
    <g id="text_14">
     <!-- 000001.SZ -->
     <g transform="translate(351.168438 72.748562)scale(0.1 -0.1)">
      <use xlink:href="#DejaVuSans-48"/>
      <use x="63.623047" xlink:href="#DejaVuSans-48"/>
      <use x="127.246094" xlink:href="#DejaVuSans-48"/>
      <use x="190.869141" xlink:href="#DejaVuSans-48"/>
      <use x="254.492188" xlink:href="#DejaVuSans-48"/>
      <use x="318.115234" xlink:href="#DejaVuSans-49"/>
      <use x="381.738281" xlink:href="#DejaVuSans-46"/>
      <use x="413.525391" xlink:href="#DejaVuSans-83"/>
      <use x="477.001953" xlink:href="#DejaVuSans-90"/>
     </g>
    </g>
    <g id="line2d_24">
     <path d="M 323.168438 83.926687 
L 343.168438 83.926687 
" style="fill:none;stroke:#2ca02c;stroke-linecap:square;stroke-width:1.5;"/>
    </g>
    <g id="line2d_25"/>
    <g id="text_15">
     <!-- 000002.SZ -->
     <g transform="translate(351.168438 87.426687)scale(0.1 -0.1)">
      <use xlink:href="#DejaVuSans-48"/>
      <use x="63.623047" xlink:href="#DejaVuSans-48"/>
      <use x="127.246094" xlink:href="#DejaVuSans-48"/>
      <use x="190.869141" xlink:href="#DejaVuSans-48"/>
      <use x="254.492188" xlink:href="#DejaVuSans-48"/>
      <use x="318.115234" xlink:href="#DejaVuSans-50"/>
      <use x="381.738281" xlink:href="#DejaVuSans-46"/>
      <use x="413.525391" xlink:href="#DejaVuSans-83"/>
      <use x="477.001953" xlink:href="#DejaVuSans-90"/>
     </g>
    </g>
    <g id="line2d_26">
     <path d="M 323.168438 98.604812 
L 343.168438 98.604812 
" style="fill:none;stroke:#d62728;stroke-linecap:square;stroke-width:1.5;"/>
    </g>
    <g id="line2d_27"/>
    <g id="text_16">
     <!-- 000004.SZ -->
     <g transform="translate(351.168438 102.104812)scale(0.1 -0.1)">
      <use xlink:href="#DejaVuSans-48"/>
      <use x="63.623047" xlink:href="#DejaVuSans-48"/>
      <use x="127.246094" xlink:href="#DejaVuSans-48"/>
      <use x="190.869141" xlink:href="#DejaVuSans-48"/>
      <use x="254.492188" xlink:href="#DejaVuSans-48"/>
      <use x="318.115234" xlink:href="#DejaVuSans-52"/>
      <use x="381.738281" xlink:href="#DejaVuSans-46"/>
      <use x="413.525391" xlink:href="#DejaVuSans-83"/>
      <use x="477.001953" xlink:href="#DejaVuSans-90"/>
     </g>
    </g>
    <g id="line2d_28">
     <path d="M 323.168438 113.282937 
L 343.168438 113.282937 
" style="fill:none;stroke:#9467bd;stroke-linecap:square;stroke-width:1.5;"/>
    </g>
    <g id="line2d_29"/>
    <g id="text_17">
     <!-- 000005.SZ -->
     <g transform="translate(351.168438 116.782937)scale(0.1 -0.1)">
      <use xlink:href="#DejaVuSans-48"/>
      <use x="63.623047" xlink:href="#DejaVuSans-48"/>
      <use x="127.246094" xlink:href="#DejaVuSans-48"/>
      <use x="190.869141" xlink:href="#DejaVuSans-48"/>
      <use x="254.492188" xlink:href="#DejaVuSans-48"/>
      <use x="318.115234" xlink:href="#DejaVuSans-53"/>
      <use x="381.738281" xlink:href="#DejaVuSans-46"/>
      <use x="413.525391" xlink:href="#DejaVuSans-83"/>
      <use x="477.001953" xlink:href="#DejaVuSans-90"/>
     </g>
    </g>
    <g id="line2d_30">
     <path d="M 323.168438 127.961062 
L 343.168438 127.961062 
" style="fill:none;stroke:#8c564b;stroke-linecap:square;stroke-width:1.5;"/>
    </g>
    <g id="line2d_31"/>
    <g id="text_18">
     <!-- 000006.SZ -->
     <g transform="translate(351.168438 131.461062)scale(0.1 -0.1)">
      <use xlink:href="#DejaVuSans-48"/>
      <use x="63.623047" xlink:href="#DejaVuSans-48"/>
      <use x="127.246094" xlink:href="#DejaVuSans-48"/>
      <use x="190.869141" xlink:href="#DejaVuSans-48"/>
      <use x="254.492188" xlink:href="#DejaVuSans-48"/>
      <use x="318.115234" xlink:href="#DejaVuSans-54"/>
      <use x="381.738281" xlink:href="#DejaVuSans-46"/>
      <use x="413.525391" xlink:href="#DejaVuSans-83"/>
      <use x="477.001953" xlink:href="#DejaVuSans-90"/>
     </g>
    </g>
    <g id="line2d_32">
     <path d="M 323.168438 142.639187 
L 343.168438 142.639187 
" style="fill:none;stroke:#e377c2;stroke-linecap:square;stroke-width:1.5;"/>
    </g>
    <g id="line2d_33"/>
    <g id="text_19">
     <!-- 000007.SZ -->
     <g transform="translate(351.168438 146.139187)scale(0.1 -0.1)">
      <use xlink:href="#DejaVuSans-48"/>
      <use x="63.623047" xlink:href="#DejaVuSans-48"/>
      <use x="127.246094" xlink:href="#DejaVuSans-48"/>
      <use x="190.869141" xlink:href="#DejaVuSans-48"/>
      <use x="254.492188" xlink:href="#DejaVuSans-48"/>
      <use x="318.115234" xlink:href="#DejaVuSans-55"/>
      <use x="381.738281" xlink:href="#DejaVuSans-46"/>
      <use x="413.525391" xlink:href="#DejaVuSans-83"/>
      <use x="477.001953" xlink:href="#DejaVuSans-90"/>
     </g>
    </g>
   </g>
  </g>
 </g>
 <defs>
  <clipPath id="p7a5f2fc574">
   <rect height="235.008" width="357.12" x="57.6" y="41.472"/>
  </clipPath>
 </defs>
</svg>
