<?xml version="1.0" encoding="utf-8" standalone="no"?>
<!DOCTYPE svg PUBLIC "-//W3C//DTD SVG 1.1//EN"
  "http://www.w3.org/Graphics/SVG/1.1/DTD/svg11.dtd">
<!-- Created with matplotlib (https://matplotlib.org/) -->
<svg height="576pt" version="1.1" viewBox="0 0 864 576" width="864pt" xmlns="http://www.w3.org/2000/svg" xmlns:xlink="http://www.w3.org/1999/xlink">
 <defs>
  <style type="text/css">
*{stroke-linecap:butt;stroke-linejoin:round;}
  </style>
 </defs>
 <g id="figure_1">
  <g id="patch_1">
   <path d="M 0 576 
L 864 576 
L 864 0 
L 0 0 
z
" style="fill:#ffffff;"/>
  </g>
  <g id="axes_1">
   <g id="patch_2">
    <path d="M 108 460.8 
L 777.6 460.8 
L 777.6 69.12 
L 108 69.12 
z
" style="fill:#ffffff;"/>
   </g>
   <g id="matplotlib.axis_1">
    <g id="xtick_1">
     <g id="line2d_1">
      <defs>
       <path d="M 0 0 
L 0 3.5 
" id="ma5c70e9cad" style="stroke:#000000;stroke-width:0.8;"/>
      </defs>
      <g>
       <use style="stroke:#000000;stroke-width:0.8;" x="135.045125" xlink:href="#ma5c70e9cad" y="460.8"/>
      </g>
     </g>
     <g id="text_1">
      <!-- 2018-01 -->
      <defs>
       <path d="M 19.1875 8.296875 
L 53.609375 8.296875 
L 53.609375 0 
L 7.328125 0 
L 7.328125 8.296875 
Q 12.9375 14.109375 22.625 23.890625 
Q 32.328125 33.6875 34.8125 36.53125 
Q 39.546875 41.84375 41.421875 45.53125 
Q 43.3125 49.21875 43.3125 52.78125 
Q 43.3125 58.59375 39.234375 62.25 
Q 35.15625 65.921875 28.609375 65.921875 
Q 23.96875 65.921875 18.8125 64.3125 
Q 13.671875 62.703125 7.8125 59.421875 
L 7.8125 69.390625 
Q 13.765625 71.78125 18.9375 73 
Q 24.125 74.21875 28.421875 74.21875 
Q 39.75 74.21875 46.484375 68.546875 
Q 53.21875 62.890625 53.21875 53.421875 
Q 53.21875 48.921875 51.53125 44.890625 
Q 49.859375 40.875 45.40625 35.40625 
Q 44.1875 33.984375 37.640625 27.21875 
Q 31.109375 20.453125 19.1875 8.296875 
z
" id="DejaVuSans-50"/>
       <path d="M 31.78125 66.40625 
Q 24.171875 66.40625 20.328125 58.90625 
Q 16.5 51.421875 16.5 36.375 
Q 16.5 21.390625 20.328125 13.890625 
Q 24.171875 6.390625 31.78125 6.390625 
Q 39.453125 6.390625 43.28125 13.890625 
Q 47.125 21.390625 47.125 36.375 
Q 47.125 51.421875 43.28125 58.90625 
Q 39.453125 66.40625 31.78125 66.40625 
z
M 31.78125 74.21875 
Q 44.046875 74.21875 50.515625 64.515625 
Q 56.984375 54.828125 56.984375 36.375 
Q 56.984375 17.96875 50.515625 8.265625 
Q 44.046875 -1.421875 31.78125 -1.421875 
Q 19.53125 -1.421875 13.0625 8.265625 
Q 6.59375 17.96875 6.59375 36.375 
Q 6.59375 54.828125 13.0625 64.515625 
Q 19.53125 74.21875 31.78125 74.21875 
z
" id="DejaVuSans-48"/>
       <path d="M 12.40625 8.296875 
L 28.515625 8.296875 
L 28.515625 63.921875 
L 10.984375 60.40625 
L 10.984375 69.390625 
L 28.421875 72.90625 
L 38.28125 72.90625 
L 38.28125 8.296875 
L 54.390625 8.296875 
L 54.390625 0 
L 12.40625 0 
z
" id="DejaVuSans-49"/>
       <path d="M 31.78125 34.625 
Q 24.75 34.625 20.71875 30.859375 
Q 16.703125 27.09375 16.703125 20.515625 
Q 16.703125 13.921875 20.71875 10.15625 
Q 24.75 6.390625 31.78125 6.390625 
Q 38.8125 6.390625 42.859375 10.171875 
Q 46.921875 13.96875 46.921875 20.515625 
Q 46.921875 27.09375 42.890625 30.859375 
Q 38.875 34.625 31.78125 34.625 
z
M 21.921875 38.8125 
Q 15.578125 40.375 12.03125 44.71875 
Q 8.5 49.078125 8.5 55.328125 
Q 8.5 64.0625 14.71875 69.140625 
Q 20.953125 74.21875 31.78125 74.21875 
Q 42.671875 74.21875 48.875 69.140625 
Q 55.078125 64.0625 55.078125 55.328125 
Q 55.078125 49.078125 51.53125 44.71875 
Q 48 40.375 41.703125 38.8125 
Q 48.828125 37.15625 52.796875 32.3125 
Q 56.78125 27.484375 56.78125 20.515625 
Q 56.78125 9.90625 50.3125 4.234375 
Q 43.84375 -1.421875 31.78125 -1.421875 
Q 19.734375 -1.421875 13.25 4.234375 
Q 6.78125 9.90625 6.78125 20.515625 
Q 6.78125 27.484375 10.78125 32.3125 
Q 14.796875 37.15625 21.921875 38.8125 
z
M 18.3125 54.390625 
Q 18.3125 48.734375 21.84375 45.5625 
Q 25.390625 42.390625 31.78125 42.390625 
Q 38.140625 42.390625 41.71875 45.5625 
Q 45.3125 48.734375 45.3125 54.390625 
Q 45.3125 60.0625 41.71875 63.234375 
Q 38.140625 66.40625 31.78125 66.40625 
Q 25.390625 66.40625 21.84375 63.234375 
Q 18.3125 60.0625 18.3125 54.390625 
z
" id="DejaVuSans-56"/>
       <path d="M 4.890625 31.390625 
L 31.203125 31.390625 
L 31.203125 23.390625 
L 4.890625 23.390625 
z
" id="DejaVuSans-45"/>
      </defs>
      <g transform="translate(97.820305 495.271846)rotate(-30)scale(0.1 -0.1)">
       <use xlink:href="#DejaVuSans-50"/>
       <use x="63.623047" xlink:href="#DejaVuSans-48"/>
       <use x="127.246094" xlink:href="#DejaVuSans-49"/>
       <use x="190.869141" xlink:href="#DejaVuSans-56"/>
       <use x="254.492188" xlink:href="#DejaVuSans-45"/>
       <use x="290.576172" xlink:href="#DejaVuSans-48"/>
       <use x="354.199219" xlink:href="#DejaVuSans-49"/>
      </g>
     </g>
    </g>
    <g id="xtick_2">
     <g id="line2d_2">
      <g>
       <use style="stroke:#000000;stroke-width:0.8;" x="235.086655" xlink:href="#ma5c70e9cad" y="460.8"/>
      </g>
     </g>
     <g id="text_2">
      <!-- 2018-03 -->
      <defs>
       <path d="M 40.578125 39.3125 
Q 47.65625 37.796875 51.625 33 
Q 55.609375 28.21875 55.609375 21.1875 
Q 55.609375 10.40625 48.1875 4.484375 
Q 40.765625 -1.421875 27.09375 -1.421875 
Q 22.515625 -1.421875 17.65625 -0.515625 
Q 12.796875 0.390625 7.625 2.203125 
L 7.625 11.71875 
Q 11.71875 9.328125 16.59375 8.109375 
Q 21.484375 6.890625 26.8125 6.890625 
Q 36.078125 6.890625 40.9375 10.546875 
Q 45.796875 14.203125 45.796875 21.1875 
Q 45.796875 27.640625 41.28125 31.265625 
Q 36.765625 34.90625 28.71875 34.90625 
L 20.21875 34.90625 
L 20.21875 43.015625 
L 29.109375 43.015625 
Q 36.375 43.015625 40.234375 45.921875 
Q 44.09375 48.828125 44.09375 54.296875 
Q 44.09375 59.90625 40.109375 62.90625 
Q 36.140625 65.921875 28.71875 65.921875 
Q 24.65625 65.921875 20.015625 65.03125 
Q 15.375 64.15625 9.8125 62.3125 
L 9.8125 71.09375 
Q 15.4375 72.65625 20.34375 73.4375 
Q 25.25 74.21875 29.59375 74.21875 
Q 40.828125 74.21875 47.359375 69.109375 
Q 53.90625 64.015625 53.90625 55.328125 
Q 53.90625 49.265625 50.4375 45.09375 
Q 46.96875 40.921875 40.578125 39.3125 
z
" id="DejaVuSans-51"/>
      </defs>
      <g transform="translate(197.861834 495.271846)rotate(-30)scale(0.1 -0.1)">
       <use xlink:href="#DejaVuSans-50"/>
       <use x="63.623047" xlink:href="#DejaVuSans-48"/>
       <use x="127.246094" xlink:href="#DejaVuSans-49"/>
       <use x="190.869141" xlink:href="#DejaVuSans-56"/>
       <use x="254.492188" xlink:href="#DejaVuSans-45"/>
       <use x="290.576172" xlink:href="#DejaVuSans-48"/>
       <use x="354.199219" xlink:href="#DejaVuSans-51"/>
      </g>
     </g>
    </g>
    <g id="xtick_3">
     <g id="line2d_3">
      <g>
       <use style="stroke:#000000;stroke-width:0.8;" x="338.519423" xlink:href="#ma5c70e9cad" y="460.8"/>
      </g>
     </g>
     <g id="text_3">
      <!-- 2018-05 -->
      <defs>
       <path d="M 10.796875 72.90625 
L 49.515625 72.90625 
L 49.515625 64.59375 
L 19.828125 64.59375 
L 19.828125 46.734375 
Q 21.96875 47.46875 24.109375 47.828125 
Q 26.265625 48.1875 28.421875 48.1875 
Q 40.625 48.1875 47.75 41.5 
Q 54.890625 34.8125 54.890625 23.390625 
Q 54.890625 11.625 47.5625 5.09375 
Q 40.234375 -1.421875 26.90625 -1.421875 
Q 22.3125 -1.421875 17.546875 -0.640625 
Q 12.796875 0.140625 7.71875 1.703125 
L 7.71875 11.625 
Q 12.109375 9.234375 16.796875 8.0625 
Q 21.484375 6.890625 26.703125 6.890625 
Q 35.15625 6.890625 40.078125 11.328125 
Q 45.015625 15.765625 45.015625 23.390625 
Q 45.015625 31 40.078125 35.4375 
Q 35.15625 39.890625 26.703125 39.890625 
Q 22.75 39.890625 18.8125 39.015625 
Q 14.890625 38.140625 10.796875 36.28125 
z
" id="DejaVuSans-53"/>
      </defs>
      <g transform="translate(301.294602 495.271846)rotate(-30)scale(0.1 -0.1)">
       <use xlink:href="#DejaVuSans-50"/>
       <use x="63.623047" xlink:href="#DejaVuSans-48"/>
       <use x="127.246094" xlink:href="#DejaVuSans-49"/>
       <use x="190.869141" xlink:href="#DejaVuSans-56"/>
       <use x="254.492188" xlink:href="#DejaVuSans-45"/>
       <use x="290.576172" xlink:href="#DejaVuSans-48"/>
       <use x="354.199219" xlink:href="#DejaVuSans-53"/>
      </g>
     </g>
    </g>
    <g id="xtick_4">
     <g id="line2d_4">
      <g>
       <use style="stroke:#000000;stroke-width:0.8;" x="441.95219" xlink:href="#ma5c70e9cad" y="460.8"/>
      </g>
     </g>
     <g id="text_4">
      <!-- 2018-07 -->
      <defs>
       <path d="M 8.203125 72.90625 
L 55.078125 72.90625 
L 55.078125 68.703125 
L 28.609375 0 
L 18.3125 0 
L 43.21875 64.59375 
L 8.203125 64.59375 
z
" id="DejaVuSans-55"/>
      </defs>
      <g transform="translate(404.72737 495.271846)rotate(-30)scale(0.1 -0.1)">
       <use xlink:href="#DejaVuSans-50"/>
       <use x="63.623047" xlink:href="#DejaVuSans-48"/>
       <use x="127.246094" xlink:href="#DejaVuSans-49"/>
       <use x="190.869141" xlink:href="#DejaVuSans-56"/>
       <use x="254.492188" xlink:href="#DejaVuSans-45"/>
       <use x="290.576172" xlink:href="#DejaVuSans-48"/>
       <use x="354.199219" xlink:href="#DejaVuSans-55"/>
      </g>
     </g>
    </g>
    <g id="xtick_5">
     <g id="line2d_5">
      <g>
       <use style="stroke:#000000;stroke-width:0.8;" x="547.080577" xlink:href="#ma5c70e9cad" y="460.8"/>
      </g>
     </g>
     <g id="text_5">
      <!-- 2018-09 -->
      <defs>
       <path d="M 10.984375 1.515625 
L 10.984375 10.5 
Q 14.703125 8.734375 18.5 7.8125 
Q 22.3125 6.890625 25.984375 6.890625 
Q 35.75 6.890625 40.890625 13.453125 
Q 46.046875 20.015625 46.78125 33.40625 
Q 43.953125 29.203125 39.59375 26.953125 
Q 35.25 24.703125 29.984375 24.703125 
Q 19.046875 24.703125 12.671875 31.3125 
Q 6.296875 37.9375 6.296875 49.421875 
Q 6.296875 60.640625 12.9375 67.421875 
Q 19.578125 74.21875 30.609375 74.21875 
Q 43.265625 74.21875 49.921875 64.515625 
Q 56.59375 54.828125 56.59375 36.375 
Q 56.59375 19.140625 48.40625 8.859375 
Q 40.234375 -1.421875 26.421875 -1.421875 
Q 22.703125 -1.421875 18.890625 -0.6875 
Q 15.09375 0.046875 10.984375 1.515625 
z
M 30.609375 32.421875 
Q 37.25 32.421875 41.125 36.953125 
Q 45.015625 41.5 45.015625 49.421875 
Q 45.015625 57.28125 41.125 61.84375 
Q 37.25 66.40625 30.609375 66.40625 
Q 23.96875 66.40625 20.09375 61.84375 
Q 16.21875 57.28125 16.21875 49.421875 
Q 16.21875 41.5 20.09375 36.953125 
Q 23.96875 32.421875 30.609375 32.421875 
z
" id="DejaVuSans-57"/>
      </defs>
      <g transform="translate(509.855757 495.271846)rotate(-30)scale(0.1 -0.1)">
       <use xlink:href="#DejaVuSans-50"/>
       <use x="63.623047" xlink:href="#DejaVuSans-48"/>
       <use x="127.246094" xlink:href="#DejaVuSans-49"/>
       <use x="190.869141" xlink:href="#DejaVuSans-56"/>
       <use x="254.492188" xlink:href="#DejaVuSans-45"/>
       <use x="290.576172" xlink:href="#DejaVuSans-48"/>
       <use x="354.199219" xlink:href="#DejaVuSans-57"/>
      </g>
     </g>
    </g>
    <g id="xtick_6">
     <g id="line2d_6">
      <g>
       <use style="stroke:#000000;stroke-width:0.8;" x="650.513345" xlink:href="#ma5c70e9cad" y="460.8"/>
      </g>
     </g>
     <g id="text_6">
      <!-- 2018-11 -->
      <g transform="translate(613.288524 495.271846)rotate(-30)scale(0.1 -0.1)">
       <use xlink:href="#DejaVuSans-50"/>
       <use x="63.623047" xlink:href="#DejaVuSans-48"/>
       <use x="127.246094" xlink:href="#DejaVuSans-49"/>
       <use x="190.869141" xlink:href="#DejaVuSans-56"/>
       <use x="254.492188" xlink:href="#DejaVuSans-45"/>
       <use x="290.576172" xlink:href="#DejaVuSans-49"/>
       <use x="354.199219" xlink:href="#DejaVuSans-49"/>
      </g>
     </g>
    </g>
    <g id="xtick_7">
     <g id="line2d_7">
      <g>
       <use style="stroke:#000000;stroke-width:0.8;" x="753.946113" xlink:href="#ma5c70e9cad" y="460.8"/>
      </g>
     </g>
     <g id="text_7">
      <!-- 2019-01 -->
      <g transform="translate(716.721292 495.271846)rotate(-30)scale(0.1 -0.1)">
       <use xlink:href="#DejaVuSans-50"/>
       <use x="63.623047" xlink:href="#DejaVuSans-48"/>
       <use x="127.246094" xlink:href="#DejaVuSans-49"/>
       <use x="190.869141" xlink:href="#DejaVuSans-57"/>
       <use x="254.492188" xlink:href="#DejaVuSans-45"/>
       <use x="290.576172" xlink:href="#DejaVuSans-48"/>
       <use x="354.199219" xlink:href="#DejaVuSans-49"/>
      </g>
     </g>
    </g>
    <g id="text_8">
     <!-- date -->
     <defs>
      <path d="M 45.40625 46.390625 
L 45.40625 75.984375 
L 54.390625 75.984375 
L 54.390625 0 
L 45.40625 0 
L 45.40625 8.203125 
Q 42.578125 3.328125 38.25 0.953125 
Q 33.9375 -1.421875 27.875 -1.421875 
Q 17.96875 -1.421875 11.734375 6.484375 
Q 5.515625 14.40625 5.515625 27.296875 
Q 5.515625 40.1875 11.734375 48.09375 
Q 17.96875 56 27.875 56 
Q 33.9375 56 38.25 53.625 
Q 42.578125 51.265625 45.40625 46.390625 
z
M 14.796875 27.296875 
Q 14.796875 17.390625 18.875 11.75 
Q 22.953125 6.109375 30.078125 6.109375 
Q 37.203125 6.109375 41.296875 11.75 
Q 45.40625 17.390625 45.40625 27.296875 
Q 45.40625 37.203125 41.296875 42.84375 
Q 37.203125 48.484375 30.078125 48.484375 
Q 22.953125 48.484375 18.875 42.84375 
Q 14.796875 37.203125 14.796875 27.296875 
z
" id="DejaVuSans-100"/>
      <path d="M 34.28125 27.484375 
Q 23.390625 27.484375 19.1875 25 
Q 14.984375 22.515625 14.984375 16.5 
Q 14.984375 11.71875 18.140625 8.90625 
Q 21.296875 6.109375 26.703125 6.109375 
Q 34.1875 6.109375 38.703125 11.40625 
Q 43.21875 16.703125 43.21875 25.484375 
L 43.21875 27.484375 
z
M 52.203125 31.203125 
L 52.203125 0 
L 43.21875 0 
L 43.21875 8.296875 
Q 40.140625 3.328125 35.546875 0.953125 
Q 30.953125 -1.421875 24.3125 -1.421875 
Q 15.921875 -1.421875 10.953125 3.296875 
Q 6 8.015625 6 15.921875 
Q 6 25.140625 12.171875 29.828125 
Q 18.359375 34.515625 30.609375 34.515625 
L 43.21875 34.515625 
L 43.21875 35.40625 
Q 43.21875 41.609375 39.140625 45 
Q 35.0625 48.390625 27.6875 48.390625 
Q 23 48.390625 18.546875 47.265625 
Q 14.109375 46.140625 10.015625 43.890625 
L 10.015625 52.203125 
Q 14.9375 54.109375 19.578125 55.046875 
Q 24.21875 56 28.609375 56 
Q 40.484375 56 46.34375 49.84375 
Q 52.203125 43.703125 52.203125 31.203125 
z
" id="DejaVuSans-97"/>
      <path d="M 18.3125 70.21875 
L 18.3125 54.6875 
L 36.8125 54.6875 
L 36.8125 47.703125 
L 18.3125 47.703125 
L 18.3125 18.015625 
Q 18.3125 11.328125 20.140625 9.421875 
Q 21.96875 7.515625 27.59375 7.515625 
L 36.8125 7.515625 
L 36.8125 0 
L 27.59375 0 
Q 17.1875 0 13.234375 3.875 
Q 9.28125 7.765625 9.28125 18.015625 
L 9.28125 47.703125 
L 2.6875 47.703125 
L 2.6875 54.6875 
L 9.28125 54.6875 
L 9.28125 70.21875 
z
" id="DejaVuSans-116"/>
      <path d="M 56.203125 29.59375 
L 56.203125 25.203125 
L 14.890625 25.203125 
Q 15.484375 15.921875 20.484375 11.0625 
Q 25.484375 6.203125 34.421875 6.203125 
Q 39.59375 6.203125 44.453125 7.46875 
Q 49.3125 8.734375 54.109375 11.28125 
L 54.109375 2.78125 
Q 49.265625 0.734375 44.1875 -0.34375 
Q 39.109375 -1.421875 33.890625 -1.421875 
Q 20.796875 -1.421875 13.15625 6.1875 
Q 5.515625 13.8125 5.515625 26.8125 
Q 5.515625 40.234375 12.765625 48.109375 
Q 20.015625 56 32.328125 56 
Q 43.359375 56 49.78125 48.890625 
Q 56.203125 41.796875 56.203125 29.59375 
z
M 47.21875 32.234375 
Q 47.125 39.59375 43.09375 43.984375 
Q 39.0625 48.390625 32.421875 48.390625 
Q 24.90625 48.390625 20.390625 44.140625 
Q 15.875 39.890625 15.1875 32.171875 
z
" id="DejaVuSans-101"/>
     </defs>
     <g transform="translate(431.525 508.671346)scale(0.1 -0.1)">
      <use xlink:href="#DejaVuSans-100"/>
      <use x="63.476562" xlink:href="#DejaVuSans-97"/>
      <use x="124.755859" xlink:href="#DejaVuSans-116"/>
      <use x="163.964844" xlink:href="#DejaVuSans-101"/>
     </g>
    </g>
   </g>
   <g id="matplotlib.axis_2">
    <g id="ytick_1">
     <g id="line2d_8">
      <defs>
       <path d="M 0 0 
L -3.5 0 
" id="m162f410927" style="stroke:#000000;stroke-width:0.8;"/>
      </defs>
      <g>
       <use style="stroke:#000000;stroke-width:0.8;" x="108" xlink:href="#m162f410927" y="427.728228"/>
      </g>
     </g>
     <g id="text_9">
      <!-- 0.4 -->
      <defs>
       <path d="M 10.6875 12.40625 
L 21 12.40625 
L 21 0 
L 10.6875 0 
z
" id="DejaVuSans-46"/>
       <path d="M 37.796875 64.3125 
L 12.890625 25.390625 
L 37.796875 25.390625 
z
M 35.203125 72.90625 
L 47.609375 72.90625 
L 47.609375 25.390625 
L 58.015625 25.390625 
L 58.015625 17.1875 
L 47.609375 17.1875 
L 47.609375 0 
L 37.796875 0 
L 37.796875 17.1875 
L 4.890625 17.1875 
L 4.890625 26.703125 
z
" id="DejaVuSans-52"/>
      </defs>
      <g transform="translate(85.096875 431.527446)scale(0.1 -0.1)">
       <use xlink:href="#DejaVuSans-48"/>
       <use x="63.623047" xlink:href="#DejaVuSans-46"/>
       <use x="95.410156" xlink:href="#DejaVuSans-52"/>
      </g>
     </g>
    </g>
    <g id="ytick_2">
     <g id="line2d_9">
      <g>
       <use style="stroke:#000000;stroke-width:0.8;" x="108" xlink:href="#m162f410927" y="348.765746"/>
      </g>
     </g>
     <g id="text_10">
      <!-- 0.6 -->
      <defs>
       <path d="M 33.015625 40.375 
Q 26.375 40.375 22.484375 35.828125 
Q 18.609375 31.296875 18.609375 23.390625 
Q 18.609375 15.53125 22.484375 10.953125 
Q 26.375 6.390625 33.015625 6.390625 
Q 39.65625 6.390625 43.53125 10.953125 
Q 47.40625 15.53125 47.40625 23.390625 
Q 47.40625 31.296875 43.53125 35.828125 
Q 39.65625 40.375 33.015625 40.375 
z
M 52.59375 71.296875 
L 52.59375 62.3125 
Q 48.875 64.0625 45.09375 64.984375 
Q 41.3125 65.921875 37.59375 65.921875 
Q 27.828125 65.921875 22.671875 59.328125 
Q 17.53125 52.734375 16.796875 39.40625 
Q 19.671875 43.65625 24.015625 45.921875 
Q 28.375 48.1875 33.59375 48.1875 
Q 44.578125 48.1875 50.953125 41.515625 
Q 57.328125 34.859375 57.328125 23.390625 
Q 57.328125 12.15625 50.6875 5.359375 
Q 44.046875 -1.421875 33.015625 -1.421875 
Q 20.359375 -1.421875 13.671875 8.265625 
Q 6.984375 17.96875 6.984375 36.375 
Q 6.984375 53.65625 15.1875 63.9375 
Q 23.390625 74.21875 37.203125 74.21875 
Q 40.921875 74.21875 44.703125 73.484375 
Q 48.484375 72.75 52.59375 71.296875 
z
" id="DejaVuSans-54"/>
      </defs>
      <g transform="translate(85.096875 352.564965)scale(0.1 -0.1)">
       <use xlink:href="#DejaVuSans-48"/>
       <use x="63.623047" xlink:href="#DejaVuSans-46"/>
       <use x="95.410156" xlink:href="#DejaVuSans-54"/>
      </g>
     </g>
    </g>
    <g id="ytick_3">
     <g id="line2d_10">
      <g>
       <use style="stroke:#000000;stroke-width:0.8;" x="108" xlink:href="#m162f410927" y="269.803265"/>
      </g>
     </g>
     <g id="text_11">
      <!-- 0.8 -->
      <g transform="translate(85.096875 273.602484)scale(0.1 -0.1)">
       <use xlink:href="#DejaVuSans-48"/>
       <use x="63.623047" xlink:href="#DejaVuSans-46"/>
       <use x="95.410156" xlink:href="#DejaVuSans-56"/>
      </g>
     </g>
    </g>
    <g id="ytick_4">
     <g id="line2d_11">
      <g>
       <use style="stroke:#000000;stroke-width:0.8;" x="108" xlink:href="#m162f410927" y="190.840784"/>
      </g>
     </g>
     <g id="text_12">
      <!-- 1.0 -->
      <g transform="translate(85.096875 194.640003)scale(0.1 -0.1)">
       <use xlink:href="#DejaVuSans-49"/>
       <use x="63.623047" xlink:href="#DejaVuSans-46"/>
       <use x="95.410156" xlink:href="#DejaVuSans-48"/>
      </g>
     </g>
    </g>
    <g id="ytick_5">
     <g id="line2d_12">
      <g>
       <use style="stroke:#000000;stroke-width:0.8;" x="108" xlink:href="#m162f410927" y="111.878303"/>
      </g>
     </g>
     <g id="text_13">
      <!-- 1.2 -->
      <g transform="translate(85.096875 115.677521)scale(0.1 -0.1)">
       <use xlink:href="#DejaVuSans-49"/>
       <use x="63.623047" xlink:href="#DejaVuSans-46"/>
       <use x="95.410156" xlink:href="#DejaVuSans-50"/>
      </g>
     </g>
    </g>
   </g>
   <g id="line2d_13">
    <path clip-path="url(#p46e7e2b742)" d="M 138.436364 201.503601 
L 140.131983 203.809075 
L 141.827602 202.368153 
L 146.914459 212.166417 
L 148.610079 208.708207 
L 150.305698 197.469021 
L 152.001317 199.486311 
L 153.696936 195.163547 
L 158.783793 176.431572 
L 160.479413 176.431572 
L 162.175032 175.567019 
L 163.870651 161.445992 
L 165.56627 159.140518 
L 170.653127 169.51515 
L 172.348747 163.463281 
L 174.044366 163.751465 
L 175.739985 176.431572 
L 177.435604 180.754336 
L 182.522461 189.688047 
L 184.218081 192.281705 
L 185.9137 180.754336 
L 187.609319 181.330704 
L 189.304938 180.754336 
L 194.391795 166.345124 
L 196.087415 182.195257 
L 197.783034 213.319154 
L 199.478653 224.270155 
L 201.174272 248.765816 
L 206.261129 247.901263 
L 207.956749 241.56121 
L 209.652368 239.832104 
L 223.217321 226.575629 
L 224.91294 222.252866 
L 229.999797 221.676497 
L 231.695417 231.762946 
L 233.391036 238.391183 
L 235.086655 238.679367 
L 236.782274 241.273026 
L 241.869131 243.866684 
L 243.564751 236.950262 
L 245.26037 238.391183 
L 246.955989 236.662078 
L 253.738465 238.967552 
L 255.434085 239.255736 
L 257.129704 242.137578 
L 258.825323 248.189447 
L 260.520942 250.206737 
L 265.607799 244.731236 
L 267.303419 245.019421 
L 268.999038 242.713947 
L 270.694657 249.630368 
L 272.390276 258.852264 
L 277.477133 270.667818 
L 279.172753 270.379634 
L 280.868372 271.820555 
L 282.563991 267.209607 
L 284.25961 271.532371 
L 289.346467 277.007871 
L 291.042087 281.330635 
L 292.737706 272.396923 
L 301.215801 268.07416 
L 304.60704 244.731236 
L 306.302659 253.664948 
L 307.998278 252.224027 
L 313.085135 265.768686 
L 314.780755 262.598659 
L 316.476374 254.241316 
L 318.171993 255.105869 
L 319.867612 258.56408 
L 324.954469 252.224027 
L 326.650089 243.866684 
L 328.345708 249.054 
L 330.041327 256.54679 
L 331.736946 272.973292 
L 340.215042 272.108739 
L 341.910661 275.855134 
L 343.60628 277.872424 
L 348.693138 274.126029 
L 350.388757 268.362344 
L 352.084376 269.515081 
L 353.779995 268.362344 
L 355.475614 268.362344 
L 360.562472 263.463212 
L 362.258091 265.192317 
L 363.95371 271.532371 
L 365.649329 273.837844 
L 367.344948 269.803265 
L 372.431806 270.091449 
L 374.127425 272.685107 
L 375.823044 278.736976 
L 377.518663 279.889713 
L 379.214282 280.466082 
L 384.30114 280.466082 
L 385.996759 286.517951 
L 387.692378 295.163478 
L 389.387997 292.281636 
L 391.083616 291.993451 
L 396.170474 289.687978 
L 397.866093 289.976162 
L 399.561712 293.434373 
L 401.257331 286.806135 
L 402.95295 294.010741 
L 408.039808 296.316215 
L 409.735427 295.739847 
L 411.431046 298.909873 
L 413.126665 295.451662 
L 414.822284 292.56982 
L 421.604761 301.215347 
L 423.30038 300.06261 
L 424.995999 301.503531 
L 426.691618 301.791716 
L 431.778476 313.030901 
L 433.474095 315.912743 
L 435.169714 323.693718 
L 436.865333 328.59285 
L 438.560952 323.693718 
L 443.64781 337.526561 
L 445.343429 335.797456 
L 447.039048 337.526561 
L 448.734667 337.814745 
L 450.430286 336.08564 
L 455.517144 325.422823 
L 457.212763 326.863744 
L 458.908382 332.627429 
L 460.604001 329.745587 
L 462.29962 329.745587 
L 467.386478 334.06835 
L 469.082097 334.356534 
L 470.777716 334.932903 
L 472.473335 334.06835 
L 474.168954 323.117349 
L 479.255812 314.183638 
L 482.64705 315.336375 
L 484.342669 319.08277 
L 486.038288 319.08277 
L 491.125146 315.04819 
L 492.820765 314.183638 
L 494.516384 321.964612 
L 496.212003 328.016481 
L 497.907622 328.881034 
L 502.99448 328.016481 
L 504.690099 321.388244 
L 506.385718 324.846455 
L 508.081337 317.930033 
L 514.863814 324.846455 
L 516.559433 326.287376 
L 518.255052 332.339245 
L 519.950671 332.627429 
L 521.64629 331.762876 
L 526.733148 326.287376 
L 528.428767 319.659138 
L 530.124386 317.930033 
L 531.820005 315.912743 
L 533.515624 296.604399 
L 538.602482 285.07703 
L 540.298101 289.111609 
L 541.99372 289.687978 
L 543.689339 294.010741 
L 545.384958 293.722557 
L 550.471816 291.993451 
L 552.167435 285.07703 
L 553.863054 296.028031 
L 555.558673 298.333505 
L 557.254292 297.180768 
L 562.34115 300.927163 
L 564.036769 300.06261 
L 565.732388 300.927163 
L 567.428007 298.621689 
L 569.123626 302.0799 
L 574.210484 306.402663 
L 575.906103 295.163478 
L 577.601722 290.55253 
L 579.297341 290.840714 
L 580.99296 278.160608 
L 587.775437 281.618819 
L 589.471056 277.007871 
L 591.166675 276.143318 
L 592.862294 267.209607 
L 609.818486 284.500661 
L 611.514105 281.330635 
L 613.209724 284.500661 
L 614.905343 301.503531 
L 616.600962 288.823425 
L 621.68782 294.298925 
L 623.383439 286.806135 
L 625.079058 287.958872 
L 626.774677 294.875294 
L 628.470296 275.56695 
L 633.557154 264.327765 
L 635.252773 273.261476 
L 636.948392 267.497791 
L 638.644011 260.293185 
L 640.33963 263.463212 
L 645.426488 275.855134 
L 647.122107 271.532371 
L 648.817726 271.244186 
L 650.513345 273.54966 
L 652.208964 266.05687 
L 657.295822 270.956002 
L 658.991441 273.261476 
L 660.68706 274.126029 
L 662.382679 271.820555 
L 664.078298 281.618819 
L 669.165156 281.330635 
L 670.860775 281.907003 
L 672.556394 284.788845 
L 674.252013 279.601529 
L 675.947632 281.04245 
L 681.03449 272.973292 
L 682.730109 281.04245 
L 684.425728 279.889713 
L 686.121347 281.618819 
L 687.816966 288.247056 
L 692.903824 287.670688 
L 694.599443 292.281636 
L 696.295062 289.399793 
L 697.990681 291.705267 
L 699.6863 287.094319 
L 704.773158 280.466082 
L 706.468777 280.466082 
L 708.164396 284.500661 
L 709.860015 290.264346 
L 711.555634 289.399793 
L 716.642492 292.56982 
L 718.338111 290.840714 
L 720.03373 290.55253 
L 721.729349 286.229767 
L 723.424968 292.56982 
L 728.511826 289.111609 
L 731.903064 299.198057 
L 733.598683 305.826295 
L 735.294302 313.319085 
L 740.38116 314.183638 
L 742.076779 316.489112 
L 743.772398 317.641849 
L 745.468017 318.218217 
L 747.163636 315.336375 
L 747.163636 315.336375 
" style="fill:none;stroke:#1f77b4;stroke-linecap:square;stroke-width:1.5;"/>
   </g>
   <g id="line2d_14">
    <path clip-path="url(#p46e7e2b742)" d="M 138.436364 193.629692 
L 140.131983 184.050398 
L 141.827602 164.16427 
L 146.914459 149.249673 
L 148.610079 151.068527 
L 150.305698 153.129894 
L 152.001317 159.435252 
L 153.696936 154.584976 
L 158.783793 135.911417 
L 160.479413 98.200526 
L 162.175032 103.414572 
L 163.870651 103.535829 
L 165.56627 107.658563 
L 170.653127 106.324737 
L 172.348747 88.74249 
L 174.044366 86.923636 
L 175.739985 98.200526 
L 177.435604 100.140636 
L 182.522461 117.965398 
L 184.218081 144.763169 
L 185.9137 130.212343 
L 187.609319 130.939884 
L 189.304938 132.394967 
L 194.391795 137.123985 
L 196.087415 151.31104 
L 197.783034 185.747995 
L 199.478653 188.536903 
L 201.174272 206.482922 
L 206.261129 198.843738 
L 207.956749 188.779417 
L 209.652368 183.444114 
L 223.217321 177.017499 
L 224.91294 164.649297 
L 229.999797 171.197169 
L 231.695417 186.71805 
L 233.391036 189.143187 
L 235.086655 192.659637 
L 236.782274 194.235977 
L 241.869131 195.448545 
L 243.564751 177.38127 
L 245.26037 186.71805 
L 246.955989 177.745041 
L 248.651608 179.927665 
L 253.738465 190.113243 
L 255.434085 191.810839 
L 257.129704 189.143187 
L 258.825323 189.628215 
L 260.520942 189.991986 
L 265.607799 202.723958 
L 267.303419 205.634123 
L 268.999038 201.753903 
L 270.694657 207.574233 
L 272.390276 208.908059 
L 277.477133 217.881068 
L 279.172753 209.514344 
L 280.868372 205.75538 
L 282.563991 171.439683 
L 284.25961 181.989031 
L 289.346467 179.563894 
L 291.042087 177.745041 
L 292.737706 187.930619 
L 301.215801 202.238931 
L 302.911421 195.448545 
L 304.60704 190.234499 
L 306.302659 199.450022 
L 307.998278 206.725435 
L 313.085135 221.518775 
L 314.780755 222.852601 
L 316.476374 221.397518 
L 318.171993 219.093637 
L 324.954469 222.973857 
L 326.650089 210.605656 
L 328.345708 220.427463 
L 330.041327 240.071078 
L 331.736946 241.283647 
L 340.215042 250.014142 
L 341.910661 254.258133 
L 343.60628 259.350922 
L 348.693138 253.651848 
L 350.388757 237.767197 
L 352.084376 243.708784 
L 355.475614 246.861463 
L 360.562472 246.861463 
L 362.258091 249.165344 
L 363.95371 255.470702 
L 365.649329 260.806004 
L 367.344948 256.440757 
L 372.431806 257.410812 
L 374.127425 261.654803 
L 375.823044 260.684748 
L 377.518663 262.503601 
L 379.214282 265.65628 
L 384.30114 264.322454 
L 385.996759 275.235573 
L 387.692378 286.876234 
L 389.387997 275.35683 
L 391.083616 270.385298 
L 396.170474 254.621904 
L 397.866093 252.318023 
L 399.561712 258.380867 
L 401.257331 253.530592 
L 402.95295 261.77606 
L 408.039808 254.500647 
L 409.735427 249.650371 
L 411.431046 250.49917 
L 413.126665 253.773105 
L 414.822284 246.255179 
L 421.604761 257.047041 
L 423.30038 258.744638 
L 424.995999 249.407858 
L 426.691618 244.921353 
L 431.778476 264.443711 
L 433.474095 275.963115 
L 435.169714 291.969023 
L 436.865333 296.091757 
L 438.560952 287.361262 
L 443.64781 309.1875 
L 445.343429 301.669574 
L 447.039048 306.762363 
L 448.734667 306.156078 
L 450.430286 304.215968 
L 455.517144 294.515418 
L 457.212763 292.817821 
L 458.908382 301.184546 
L 460.604001 296.455528 
L 462.29962 298.031867 
L 467.386478 304.943509 
L 469.082097 307.004876 
L 470.777716 313.188977 
L 472.473335 310.642583 
L 474.168954 305.064766 
L 479.255812 297.668096 
L 480.951431 290.028913 
L 482.64705 292.454051 
L 484.342669 298.153124 
L 486.038288 302.882142 
L 491.125146 304.579739 
L 492.820765 302.882142 
L 496.212003 326.405977 
L 497.907622 330.043684 
L 502.99448 332.711335 
L 504.690099 320.585647 
L 506.385718 324.950895 
L 508.081337 313.06772 
L 509.776956 304.579739 
L 514.863814 306.277335 
L 516.559433 315.007831 
L 518.255052 315.250344 
L 519.950671 310.157555 
L 521.64629 310.521326 
L 526.733148 302.518372 
L 528.428767 295.727986 
L 530.124386 295.606729 
L 531.820005 308.944986 
L 533.515624 309.430014 
L 538.602482 295.727986 
L 540.298101 296.091757 
L 541.99372 295.727986 
L 543.689339 300.699519 
L 545.384958 294.03039 
L 550.471816 300.093234 
L 552.167435 289.422629 
L 553.863054 301.79083 
L 555.558673 309.066243 
L 557.254292 304.215968 
L 562.34115 301.184546 
L 564.036769 302.639629 
L 565.732388 308.217445 
L 569.123626 302.882142 
L 574.210484 308.82373 
L 575.906103 306.762363 
L 577.601722 292.575307 
L 579.297341 294.515418 
L 580.99296 272.810436 
L 587.775437 286.876234 
L 589.471056 286.512463 
L 591.166675 289.180115 
L 592.862294 290.998968 
L 611.514105 321.070675 
L 613.209724 321.919473 
L 614.905343 331.862537 
L 616.600962 321.313188 
L 621.68782 325.314665 
L 623.383439 330.892482 
L 625.079058 328.346088 
L 626.774677 335.985271 
L 628.470296 324.223354 
L 633.557154 308.944986 
L 635.252773 317.190454 
L 636.948392 311.855152 
L 638.644011 300.820775 
L 640.33963 296.940555 
L 645.426488 309.1875 
L 647.122107 298.395638 
L 648.817726 291.847766 
L 652.208964 287.118748 
L 657.295822 294.151647 
L 658.991441 292.939078 
L 660.68706 296.455528 
L 662.382679 294.757931 
L 664.078298 300.093234 
L 669.165156 296.091757 
L 670.860775 295.364216 
L 672.556394 292.817821 
L 674.252013 290.028913 
L 681.03449 270.749069 
L 682.730109 274.629289 
L 684.425728 270.021527 
L 686.121347 274.871803 
L 687.816966 283.723555 
L 692.903824 280.207106 
L 694.599443 283.117271 
L 696.295062 271.840381 
L 697.990681 278.994537 
L 699.6863 277.175683 
L 704.773158 273.659234 
L 706.468777 280.934647 
L 708.164396 278.87328 
L 709.860015 281.298417 
L 711.555634 278.388252 
L 716.642492 282.510986 
L 718.338111 270.749069 
L 720.03373 266.141307 
L 721.729349 257.047041 
L 723.424968 264.807482 
L 728.511826 264.07994 
L 730.207445 276.448142 
L 731.903064 277.903225 
L 733.598683 278.87328 
L 735.294302 291.605252 
L 740.38116 296.091757 
L 742.076779 295.000445 
L 743.772398 297.061812 
L 745.468017 301.42706 
L 747.163636 296.819298 
L 747.163636 296.819298 
" style="fill:none;stroke:#ff7f0e;stroke-linecap:square;stroke-width:1.5;"/>
   </g>
   <g id="line2d_15">
    <path clip-path="url(#p46e7e2b742)" d="M 138.436364 165.038362 
L 140.131983 174.935181 
L 141.827602 175.995555 
L 146.914459 182.004338 
L 148.610079 178.823217 
L 150.305698 189.78041 
L 152.001317 191.724428 
L 153.696936 193.314989 
L 158.783793 209.220591 
L 160.479413 200.560874 
L 162.175032 203.918724 
L 163.870651 205.332555 
L 165.56627 205.332555 
L 170.653127 203.741995 
L 172.348747 203.035079 
L 174.044366 195.435736 
L 175.739985 201.091061 
L 177.435604 203.211808 
L 182.522461 207.80676 
L 184.218081 207.80676 
L 185.9137 228.660773 
L 187.609319 234.316098 
L 189.304938 234.316098 
L 194.391795 233.785911 
L 196.087415 235.729929 
L 197.783034 233.96264 
L 199.478653 231.665164 
L 201.174272 231.311706 
L 206.261129 226.893483 
L 207.956749 230.428062 
L 209.652368 228.660773 
L 224.91294 227.600399 
L 229.999797 225.656381 
L 231.695417 221.591616 
L 233.391036 221.591616 
L 235.086655 218.233766 
L 236.782274 212.048254 
L 241.869131 216.996664 
L 243.564751 210.987881 
L 245.26037 216.289748 
L 246.955989 214.522459 
L 253.738465 201.26779 
L 255.434085 172.107518 
L 257.129704 190.840784 
L 258.825323 184.478543 
L 260.520942 182.711254 
L 265.607799 182.711254 
L 267.303419 184.478543 
L 270.694657 184.478543 
L 272.390276 188.013121 
L 277.477133 182.711254 
L 279.172753 168.57294 
L 280.868372 177.586115 
L 282.563991 183.418169 
L 284.25961 181.827609 
L 289.346467 186.069103 
L 291.042087 185.362187 
L 292.737706 185.008729 
L 301.215801 186.59929 
L 302.911421 190.310597 
L 304.60704 190.310597 
L 306.302659 194.72882 
L 307.998278 197.909941 
L 313.085135 194.72882 
L 314.780755 193.314989 
L 316.476374 195.082278 
L 318.171993 198.616856 
L 319.867612 200.914332 
L 324.954469 204.448911 
L 326.650089 207.630031 
L 328.345708 209.220591 
L 330.041327 211.871525 
L 331.736946 217.173393 
L 340.215042 223.182176 
L 341.910661 225.656381 
L 343.60628 223.535634 
L 348.693138 206.039471 
L 350.388757 206.746387 
L 352.084376 196.496109 
L 353.779995 197.733212 
L 355.475614 203.565266 
L 360.562472 206.569658 
L 362.258091 206.923116 
L 363.95371 195.259007 
L 365.649329 204.095453 
L 367.344948 203.918724 
L 374.127425 185.362187 
L 375.823044 189.250224 
L 377.518663 168.749669 
L 379.214282 176.349012 
L 384.30114 177.409386 
L 385.996759 179.176675 
L 387.692378 180.413778 
L 389.387997 187.129477 
L 391.083616 198.616856 
L 396.170474 204.272182 
L 397.866093 204.448911 
L 399.561712 208.867134 
L 401.257331 210.280965 
L 402.95295 213.992272 
L 408.039808 221.061429 
L 409.735427 221.945074 
L 411.431046 226.186568 
L 413.126665 227.953857 
L 414.822284 234.846285 
L 421.604761 245.980207 
L 423.30038 247.217309 
L 424.995999 252.872635 
L 426.691618 249.338056 
L 431.778476 252.519177 
L 433.474095 252.519177 
L 435.169714 251.812261 
L 436.865333 249.338056 
L 438.560952 239.264508 
L 443.64781 248.100954 
L 445.343429 243.682731 
L 448.734667 248.454412 
L 450.430286 249.161327 
L 455.517144 252.695906 
L 457.212763 254.463195 
L 458.908382 253.933008 
L 460.604001 248.807869 
L 462.29962 254.286466 
L 467.386478 259.941791 
L 469.082097 264.536743 
L 472.473335 272.136087 
L 474.168954 269.131695 
L 479.255812 261.88581 
L 480.951431 256.053755 
L 482.64705 256.9374 
L 484.342669 260.471978 
L 486.038288 259.411605 
L 492.820765 261.532352 
L 494.516384 253.402821 
L 496.212003 255.877026 
L 497.907622 247.04058 
L 502.99448 234.316098 
L 504.690099 226.009839 
L 506.385718 228.660773 
L 508.081337 252.519177 
L 509.776956 262.769454 
L 514.863814 262.415996 
L 516.559433 262.415996 
L 518.255052 267.010948 
L 519.950671 257.290858 
L 521.64629 258.704689 
L 526.733148 257.821044 
L 528.428767 260.295249 
L 530.124386 261.532352 
L 531.820005 263.299641 
L 533.515624 265.773846 
L 538.602482 265.420388 
L 540.298101 265.773846 
L 543.689339 270.545527 
L 545.384958 278.498328 
L 550.471816 278.14487 
L 552.167435 279.028515 
L 553.863054 283.976924 
L 555.558673 288.395147 
L 557.254292 286.804587 
L 564.036769 302.886919 
L 565.732388 302.533461 
L 567.428007 304.654208 
L 569.123626 305.714582 
L 574.210484 309.602618 
L 575.906103 309.24916 
L 577.601722 309.779347 
L 580.99296 300.942901 
L 587.775437 302.886919 
L 589.471056 303.240377 
L 591.166675 305.714582 
L 592.862294 304.654208 
L 640.33963 304.654208 
L 645.426488 311.900094 
L 647.122107 309.956076 
L 648.817726 311.016449 
L 650.513345 311.723365 
L 652.208964 307.128413 
L 657.295822 297.408322 
L 658.991441 298.291967 
L 660.68706 300.766172 
L 662.382679 297.585051 
L 664.078298 299.705798 
L 669.165156 292.459913 
L 670.860775 283.09328 
L 672.556394 282.209635 
L 674.252013 283.623467 
L 675.947632 279.028515 
L 681.03449 279.381973 
L 682.730109 286.627858 
L 684.425728 285.037298 
L 686.121347 280.972533 
L 687.816966 294.227202 
L 692.903824 294.403931 
L 694.599443 282.386364 
L 696.295062 287.334774 
L 697.990681 296.17122 
L 699.6863 298.998883 
L 706.468777 287.158045 
L 708.164396 289.455521 
L 709.860015 289.278792 
L 711.555634 297.054864 
L 716.642492 302.71019 
L 718.338111 288.748605 
L 720.03373 292.81337 
L 721.729349 284.330382 
L 723.424968 262.946183 
L 728.511826 275.317207 
L 730.207445 286.804587 
L 731.903064 295.287575 
L 733.598683 295.110846 
L 735.294302 298.115238 
L 740.38116 294.934117 
L 742.076779 299.882527 
L 743.772398 297.408322 
L 745.468017 302.356732 
L 747.163636 302.356732 
L 747.163636 302.356732 
" style="fill:none;stroke:#2ca02c;stroke-linecap:square;stroke-width:1.5;"/>
   </g>
   <g id="line2d_16">
    <path clip-path="url(#p46e7e2b742)" d="M 138.436364 195.410372 
L 140.131983 193.582537 
L 141.827602 189.012949 
L 146.914459 186.271196 
L 148.610079 182.615525 
L 150.305698 190.840784 
L 152.001317 193.582537 
L 153.696936 186.271196 
L 158.783793 200.893878 
L 160.479413 191.754701 
L 162.175032 198.152125 
L 163.870651 198.152125 
L 165.56627 200.893878 
L 170.653127 204.549548 
L 172.348747 203.63563 
L 174.044366 201.807795 
L 175.739985 200.893878 
L 177.435604 199.066042 
L 182.522461 204.549548 
L 184.218081 207.291301 
L 185.9137 217.344394 
L 187.609319 231.967076 
L 189.304938 238.364499 
L 194.391795 236.536664 
L 196.087415 253.901099 
L 197.783034 252.073264 
L 199.478653 246.589758 
L 201.174272 252.987181 
L 206.261129 244.761923 
L 207.956749 247.503675 
L 209.652368 242.02017 
L 223.217321 240.192335 
L 224.91294 240.192335 
L 229.999797 236.536664 
L 231.695417 238.364499 
L 233.391036 236.536664 
L 235.086655 235.622747 
L 236.782274 233.794911 
L 241.869131 236.536664 
L 243.564751 231.967076 
L 245.26037 196.324289 
L 246.955989 204.549548 
L 248.651608 209.119136 
L 253.738465 207.291301 
L 255.434085 210.946971 
L 257.129704 210.033054 
L 258.825323 221.000065 
L 260.520942 222.8279 
L 265.607799 224.655735 
L 267.303419 221.913982 
L 268.999038 227.397488 
L 270.694657 227.397488 
L 272.390276 251.159346 
L 277.477133 248.417593 
L 279.172753 241.106252 
L 280.868372 229.225323 
L 282.563991 227.397488 
L 284.25961 232.880994 
L 289.346467 235.622747 
L 291.042087 242.934087 
L 292.737706 242.02017 
L 301.215801 242.02017 
L 302.911421 242.934087 
L 304.60704 245.67584 
L 307.998278 252.987181 
L 313.085135 255.728934 
L 314.780755 258.470687 
L 316.476374 254.815016 
L 318.171993 253.901099 
L 319.867612 263.954192 
L 324.954469 264.86811 
L 326.650089 252.987181 
L 328.345708 252.073264 
L 330.041327 259.384604 
L 331.736946 258.470687 
L 340.215042 255.728934 
L 341.910661 253.901099 
L 343.60628 252.987181 
L 348.693138 247.503675 
L 350.388757 247.503675 
L 352.084376 249.331511 
L 353.779995 242.934087 
L 355.475614 242.02017 
L 360.562472 242.934087 
L 362.258091 245.67584 
L 365.649329 249.331511 
L 367.344948 249.331511 
L 372.431806 247.503675 
L 374.127425 248.417593 
L 375.823044 251.159346 
L 377.518663 251.159346 
L 379.214282 246.589758 
L 384.30114 249.331511 
L 385.996759 256.642852 
L 387.692378 274.921204 
L 389.387997 271.265533 
L 391.083616 271.265533 
L 396.170474 274.921204 
L 397.866093 273.093368 
L 399.561712 275.835121 
L 401.257331 276.749039 
L 402.95295 281.318627 
L 408.039808 284.974297 
L 409.735427 285.888215 
L 411.431046 295.027391 
L 413.126665 295.941309 
L 414.822284 301.424814 
L 421.604761 329.75626 
L 423.30038 320.617084 
L 424.995999 319.703166 
L 426.691618 317.875331 
L 431.778476 317.875331 
L 433.474095 316.047496 
L 435.169714 316.047496 
L 436.865333 320.617084 
L 438.560952 315.133578 
L 443.64781 320.617084 
L 445.343429 317.875331 
L 447.039048 317.875331 
L 448.734667 324.272754 
L 457.212763 319.703166 
L 458.908382 327.014507 
L 460.604001 321.531002 
L 462.29962 316.961414 
L 467.386478 316.961414 
L 469.082097 317.875331 
L 470.777716 291.371721 
L 472.473335 305.080485 
L 474.168954 307.822238 
L 479.255812 308.736155 
L 480.951431 290.457803 
L 482.64705 299.596979 
L 484.342669 293.199556 
L 486.038288 293.199556 
L 491.125146 295.941309 
L 492.820765 297.769144 
L 494.516384 304.166567 
L 496.212003 312.391826 
L 497.907622 314.219661 
L 502.99448 320.617084 
L 504.690099 313.305743 
L 506.385718 310.56399 
L 508.081337 305.994402 
L 509.776956 304.166567 
L 514.863814 305.994402 
L 516.559433 302.338732 
L 518.255052 310.56399 
L 519.950671 315.133578 
L 521.64629 317.875331 
L 526.733148 315.133578 
L 528.428767 313.305743 
L 530.124386 316.047496 
L 533.515624 314.219661 
L 538.602482 308.736155 
L 540.298101 302.338732 
L 541.99372 304.166567 
L 543.689339 312.391826 
L 545.384958 315.133578 
L 550.471816 312.391826 
L 552.167435 309.650073 
L 553.863054 315.133578 
L 555.558673 315.133578 
L 557.254292 314.219661 
L 562.34115 313.305743 
L 564.036769 316.047496 
L 565.732388 315.133578 
L 567.428007 311.477908 
L 569.123626 315.133578 
L 574.210484 316.961414 
L 575.906103 313.305743 
L 577.601722 308.736155 
L 579.297341 307.822238 
L 580.99296 305.080485 
L 587.775437 311.477908 
L 589.471056 310.56399 
L 591.166675 316.047496 
L 592.862294 316.961414 
L 609.818486 325.186672 
L 611.514105 324.272754 
L 613.209724 321.531002 
L 614.905343 346.206777 
L 616.600962 347.120695 
L 621.68782 350.776365 
L 623.383439 352.6042 
L 625.079058 348.94853 
L 626.774677 354.432036 
L 628.470296 348.034612 
L 633.557154 324.272754 
L 635.252773 332.498013 
L 636.948392 329.75626 
L 638.644011 336.153683 
L 640.33963 336.153683 
L 645.426488 341.637189 
L 647.122107 339.809354 
L 648.817726 336.153683 
L 650.513345 337.981519 
L 652.208964 333.411931 
L 657.295822 328.842343 
L 658.991441 327.928425 
L 660.68706 330.670178 
L 662.382679 324.272754 
L 664.078298 323.358837 
L 669.165156 311.477908 
L 670.860775 297.769144 
L 672.556394 304.166567 
L 674.252013 304.166567 
L 675.947632 297.769144 
L 681.03449 295.941309 
L 682.730109 305.994402 
L 686.121347 305.994402 
L 687.816966 320.617084 
L 692.903824 318.789249 
L 694.599443 318.789249 
L 697.990681 311.477908 
L 699.6863 311.477908 
L 704.773158 304.166567 
L 706.468777 305.994402 
L 708.164396 310.56399 
L 709.860015 310.56399 
L 711.555634 309.650073 
L 716.642492 318.789249 
L 718.338111 307.822238 
L 720.03373 310.56399 
L 721.729349 311.477908 
L 723.424968 316.961414 
L 728.511826 316.047496 
L 730.207445 320.617084 
L 731.903064 323.358837 
L 733.598683 324.272754 
L 735.294302 327.014507 
L 740.38116 326.10059 
L 742.076779 333.411931 
L 743.772398 335.239766 
L 745.468017 342.551107 
L 747.163636 340.723271 
L 747.163636 340.723271 
" style="fill:none;stroke:#d62728;stroke-linecap:square;stroke-width:1.5;"/>
   </g>
   <g id="line2d_17">
    <path clip-path="url(#p46e7e2b742)" d="M 248.651608 193.956553 
L 253.738465 200.6332 
L 255.434085 198.407651 
L 257.129704 216.657153 
L 258.825323 231.790887 
L 265.607799 233.571326 
L 267.303419 234.906656 
L 268.999038 238.022424 
L 270.694657 235.796875 
L 272.390276 266.064343 
L 277.477133 265.174123 
L 279.172753 261.168135 
L 280.868372 263.838794 
L 282.563991 250.930609 
L 284.25961 257.607256 
L 289.346467 262.948574 
L 291.042087 270.070331 
L 292.737706 267.399672 
L 301.215801 265.619233 
L 302.911421 260.723025 
L 304.60704 262.058354 
L 306.302659 267.844782 
L 307.998278 261.168135 
L 313.085135 263.393684 
L 314.780755 271.40566 
L 316.476374 268.289892 
L 318.171993 268.735002 
L 319.867612 274.076319 
L 324.954469 279.862747 
L 326.650089 262.503464 
L 328.345708 269.180111 
L 330.041327 278.527417 
L 331.736946 274.521429 
L 340.215042 271.40566 
L 341.910661 268.289892 
L 343.60628 267.844782 
L 348.693138 261.613244 
L 350.388757 252.711048 
L 352.084376 259.387695 
L 353.779995 249.15017 
L 355.475614 251.820829 
L 360.562472 260.277915 
L 362.258091 254.936597 
L 363.95371 254.491487 
L 365.649329 251.375719 
L 367.344948 251.375719 
L 372.431806 249.595279 
L 374.127425 253.601268 
L 375.823044 255.826817 
L 377.518663 251.820829 
L 379.214282 257.607256 
L 384.30114 266.509452 
L 385.996759 269.180111 
L 387.692378 282.088296 
L 389.387997 277.192088 
L 391.083616 278.527417 
L 396.170474 278.527417 
L 397.866093 273.1861 
L 399.561712 276.746978 
L 401.257331 276.746978 
L 402.95295 281.643186 
L 408.039808 279.862747 
L 409.735427 278.527417 
L 411.431046 277.637198 
L 413.126665 277.192088 
L 414.822284 278.972527 
L 421.604761 309.685105 
L 423.30038 310.130214 
L 424.995999 313.245983 
L 426.691618 319.032411 
L 431.778476 320.36774 
L 433.474095 322.593289 
L 435.169714 328.379717 
L 436.865333 331.940595 
L 438.560952 324.818838 
L 443.64781 340.842792 
L 445.343429 334.166144 
L 447.039048 331.940595 
L 448.734667 347.074329 
L 450.430286 348.854768 
L 455.517144 344.40367 
L 457.212763 340.842792 
L 458.908382 348.854768 
L 460.604001 342.178121 
L 462.29962 339.952572 
L 467.386478 340.397682 
L 469.082097 340.842792 
L 470.777716 342.178121 
L 472.473335 344.40367 
L 474.168954 340.397682 
L 479.255812 336.391693 
L 480.951431 327.489497 
L 482.64705 326.599278 
L 484.342669 327.044387 
L 486.038288 316.806862 
L 491.125146 320.36774 
L 494.516384 329.269936 
L 496.212003 343.068341 
L 497.907622 341.287901 
L 502.99448 345.29389 
L 504.690099 338.617243 
L 506.385718 341.287901 
L 508.081337 336.391693 
L 509.776956 327.934607 
L 514.863814 334.166144 
L 516.559433 332.385705 
L 518.255052 340.397682 
L 519.950671 342.623231 
L 521.64629 346.184109 
L 526.733148 343.068341 
L 528.428767 340.397682 
L 530.124386 343.95856 
L 531.820005 340.842792 
L 533.515624 340.397682 
L 538.602482 336.391693 
L 540.298101 336.391693 
L 541.99372 338.617243 
L 543.689339 341.287901 
L 545.384958 344.84878 
L 550.471816 345.739 
L 552.167435 343.513451 
L 553.863054 349.744988 
L 557.254292 353.305866 
L 562.34115 359.537404 
L 564.036769 358.202074 
L 565.732388 359.982514 
L 567.428007 357.311855 
L 569.123626 357.756965 
L 574.210484 363.988502 
L 575.906103 359.982514 
L 577.601722 337.281913 
L 579.297341 312.355763 
L 580.99296 319.47752 
L 587.775437 333.721035 
L 589.471056 334.611254 
L 591.166675 334.166144 
L 592.862294 331.940595 
L 609.818486 353.305866 
L 611.514105 352.415647 
L 613.209724 352.860757 
L 614.905343 376.006467 
L 616.600962 370.665149 
L 621.68782 370.220039 
L 623.383439 377.786906 
L 625.079058 375.116247 
L 626.774677 375.561357 
L 628.470296 368.4396 
L 633.557154 359.982514 
L 635.252773 360.872733 
L 636.948392 359.537404 
L 638.644011 362.208063 
L 640.33963 358.647184 
L 645.426488 365.768941 
L 647.122107 363.543392 
L 648.817726 359.982514 
L 650.513345 361.317843 
L 652.208964 356.866745 
L 657.295822 357.311855 
L 658.991441 357.756965 
L 660.68706 359.537404 
L 662.382679 359.092294 
L 664.078298 361.762953 
L 669.165156 357.311855 
L 670.860775 350.635208 
L 672.556394 349.744988 
L 674.252013 340.842792 
L 675.947632 339.952572 
L 681.03449 327.044387 
L 682.730109 341.287901 
L 684.425728 335.501474 
L 686.121347 338.617243 
L 687.816966 351.080317 
L 692.903824 350.190098 
L 694.599443 349.744988 
L 696.295062 348.409659 
L 697.990681 347.964549 
L 706.468777 336.836803 
L 708.164396 333.275925 
L 709.860015 334.611254 
L 711.555634 331.495486 
L 716.642492 335.056364 
L 718.338111 321.70307 
L 720.03373 324.818838 
L 721.729349 325.709058 
L 723.424968 331.050376 
L 728.511826 327.489497 
L 730.207445 342.178121 
L 731.903064 341.287901 
L 733.598683 343.068341 
L 735.294302 345.739 
L 740.38116 348.409659 
L 742.076779 355.531416 
L 743.772398 352.860757 
L 745.468017 355.976525 
L 747.163636 355.086306 
L 747.163636 355.086306 
" style="fill:none;stroke:#9467bd;stroke-linecap:square;stroke-width:1.5;"/>
   </g>
   <g id="line2d_18">
    <path clip-path="url(#p46e7e2b742)" d="M 253.738465 202.664593 
L 255.434085 207.034261 
L 257.129704 228.368526 
L 258.825323 235.565627 
L 260.520942 216.801756 
L 265.607799 211.146891 
L 267.303419 225.541093 
L 268.999038 224.769975 
L 270.694657 216.030638 
L 272.390276 236.079705 
L 277.477133 238.13602 
L 279.172753 217.315835 
L 280.868372 220.143267 
L 282.563991 216.287677 
L 289.346467 220.400306 
L 291.042087 210.889851 
L 292.737706 219.11511 
L 301.215801 227.083329 
L 302.911421 222.199582 
L 304.60704 222.456621 
L 306.302659 224.769975 
L 307.998278 226.312211 
L 313.085135 226.055172 
L 314.780755 228.625565 
L 316.476374 231.452998 
L 318.171993 235.822666 
L 319.867612 236.079705 
L 324.954469 235.565627 
L 326.650089 233.252273 
L 328.345708 235.822666 
L 330.041327 236.850823 
L 331.736946 236.336745 
L 340.215042 231.195958 
L 341.910661 234.023391 
L 343.60628 234.023391 
L 348.693138 235.051548 
L 350.388757 229.653722 
L 352.084376 233.252273 
L 355.475614 238.907138 
L 360.562472 239.421217 
L 362.258091 241.220492 
L 363.95371 243.790885 
L 365.649329 245.076082 
L 367.344948 243.790885 
L 372.431806 244.562003 
L 374.127425 243.533846 
L 375.823044 243.790885 
L 377.518663 230.68188 
L 379.214282 235.308587 
L 384.30114 239.164177 
L 385.996759 239.421217 
L 387.692378 232.995233 
L 389.387997 235.308587 
L 391.083616 243.790885 
L 396.170474 230.938919 
L 397.866093 228.625565 
L 399.561712 228.368526 
L 401.257331 229.910762 
L 402.95295 230.938919 
L 408.039808 231.710037 
L 409.735427 232.481155 
L 411.431046 234.537469 
L 436.865333 234.537469 
L 438.560952 241.477531 
L 443.64781 244.819043 
L 445.343429 240.963453 
L 447.039048 241.734571 
L 448.734667 244.304964 
L 450.430286 240.963453 
L 455.517144 237.621941 
L 457.212763 228.368526 
L 458.908382 238.13602 
L 460.604001 237.364902 
L 462.29962 218.086953 
L 467.386478 226.82629 
L 469.082097 224.512936 
L 470.777716 206.520183 
L 472.473335 227.854447 
L 474.168954 240.192335 
L 479.255812 240.706413 
L 480.951431 241.734571 
L 482.64705 242.248649 
L 484.342669 244.304964 
L 486.038288 228.111486 
L 491.125146 241.99161 
L 492.820765 241.220492 
L 494.516384 248.931672 
L 496.212003 255.357655 
L 497.907622 252.787262 
L 502.99448 265.382189 
L 504.690099 250.216868 
L 506.385718 257.671009 
L 508.081337 247.389436 
L 509.776956 243.019767 
L 514.863814 247.132396 
L 516.559433 245.8472 
L 518.255052 253.55838 
L 519.950671 250.473908 
L 521.64629 253.55838 
L 526.733148 253.815419 
L 528.428767 254.586537 
L 530.124386 257.15693 
L 531.820005 256.385812 
L 533.515624 256.899891 
L 538.602482 259.727323 
L 540.298101 258.442127 
L 541.99372 262.040677 
L 543.689339 271.551133 
L 545.384958 271.294093 
L 550.471816 261.783638 
L 552.167435 262.040677 
L 553.863054 262.554756 
L 555.558673 263.582913 
L 557.254292 268.466661 
L 562.34115 274.635604 
L 564.036769 268.466661 
L 565.732388 267.695543 
L 567.428007 268.7237 
L 569.123626 268.980739 
L 574.210484 270.522975 
L 575.906103 268.980739 
L 577.601722 271.551133 
L 579.297341 274.892644 
L 580.99296 279.005273 
L 587.775437 309.592953 
L 589.471056 337.096161 
L 591.166675 362.028976 
L 592.862294 384.391397 
L 609.818486 404.440465 
L 611.514105 409.324212 
L 613.209724 427.059925 
L 614.905343 442.996364 
L 616.600962 437.084459 
L 621.68782 422.176178 
L 623.383439 432.97183 
L 625.079058 437.084459 
L 626.774677 422.176178 
L 628.470296 405.725661 
L 633.557154 387.732908 
L 635.252773 367.94088 
L 636.948392 368.711998 
L 638.644011 389.789223 
L 640.33963 387.732908 
L 645.426488 407.524937 
L 647.122107 404.697504 
L 648.817726 399.299678 
L 650.513345 401.613032 
L 652.208964 401.355993 
L 657.295822 389.275144 
L 658.991441 404.954543 
L 660.68706 404.954543 
L 662.382679 397.500403 
L 664.078298 398.271521 
L 669.165156 390.81738 
L 670.860775 371.282391 
L 672.556394 380.021729 
L 674.252013 381.306925 
L 675.947632 375.65206 
L 681.03449 376.166139 
L 682.730109 374.109824 
L 684.425728 353.032599 
L 686.121347 329.64202 
L 687.816966 338.895436 
L 692.903824 363.571212 
L 694.599443 373.595745 
L 696.295062 377.451335 
L 697.990681 395.187049 
L 699.6863 401.870071 
L 704.773158 395.701127 
L 706.468777 376.680217 
L 708.164396 382.592122 
L 709.860015 370.511273 
L 711.555634 380.021729 
L 716.642492 391.331459 
L 718.338111 371.79647 
L 720.03373 373.338706 
L 721.729349 366.141605 
L 723.424968 377.451335 
L 728.511826 364.856408 
L 730.207445 349.691088 
L 731.903064 358.687464 
L 733.598683 361.257858 
L 735.294302 370.511273 
L 740.38116 366.141605 
L 742.076779 365.627526 
L 743.772398 362.028976 
L 745.468017 375.65206 
L 747.163636 378.479493 
L 747.163636 378.479493 
" style="fill:none;stroke:#8c564b;stroke-linecap:square;stroke-width:1.5;"/>
   </g>
   <g id="patch_3">
    <path d="M 108 460.8 
L 108 69.12 
" style="fill:none;stroke:#000000;stroke-linecap:square;stroke-linejoin:miter;stroke-width:0.8;"/>
   </g>
   <g id="patch_4">
    <path d="M 777.6 460.8 
L 777.6 69.12 
" style="fill:none;stroke:#000000;stroke-linecap:square;stroke-linejoin:miter;stroke-width:0.8;"/>
   </g>
   <g id="patch_5">
    <path d="M 108 460.8 
L 777.6 460.8 
" style="fill:none;stroke:#000000;stroke-linecap:square;stroke-linejoin:miter;stroke-width:0.8;"/>
   </g>
   <g id="patch_6">
    <path d="M 108 69.12 
L 777.6 69.12 
" style="fill:none;stroke:#000000;stroke-linecap:square;stroke-linejoin:miter;stroke-width:0.8;"/>
   </g>
   <g id="legend_1">
    <g id="patch_7">
     <path d="M 684.048437 165.18875 
L 770.6 165.18875 
Q 772.6 165.18875 772.6 163.18875 
L 772.6 76.12 
Q 772.6 74.12 770.6 74.12 
L 684.048437 74.12 
Q 682.048437 74.12 682.048437 76.12 
L 682.048437 163.18875 
Q 682.048437 165.18875 684.048437 165.18875 
z
" style="fill:#ffffff;opacity:0.8;stroke:#cccccc;stroke-linejoin:miter;"/>
    </g>
    <g id="line2d_19">
     <path d="M 686.048437 82.218438 
L 706.048437 82.218438 
" style="fill:none;stroke:#1f77b4;stroke-linecap:square;stroke-width:1.5;"/>
    </g>
    <g id="line2d_20"/>
    <g id="text_14">
     <!-- 000001.SZ -->
     <defs>
      <path d="M 53.515625 70.515625 
L 53.515625 60.890625 
Q 47.90625 63.578125 42.921875 64.890625 
Q 37.9375 66.21875 33.296875 66.21875 
Q 25.25 66.21875 20.875 63.09375 
Q 16.5 59.96875 16.5 54.203125 
Q 16.5 49.359375 19.40625 46.890625 
Q 22.3125 44.4375 30.421875 42.921875 
L 36.375 41.703125 
Q 47.40625 39.59375 52.65625 34.296875 
Q 57.90625 29 57.90625 20.125 
Q 57.90625 9.515625 50.796875 4.046875 
Q 43.703125 -1.421875 29.984375 -1.421875 
Q 24.8125 -1.421875 18.96875 -0.25 
Q 13.140625 0.921875 6.890625 3.21875 
L 6.890625 13.375 
Q 12.890625 10.015625 18.65625 8.296875 
Q 24.421875 6.59375 29.984375 6.59375 
Q 38.421875 6.59375 43.015625 9.90625 
Q 47.609375 13.234375 47.609375 19.390625 
Q 47.609375 24.75 44.3125 27.78125 
Q 41.015625 30.8125 33.5 32.328125 
L 27.484375 33.5 
Q 16.453125 35.6875 11.515625 40.375 
Q 6.59375 45.0625 6.59375 53.421875 
Q 6.59375 63.09375 13.40625 68.65625 
Q 20.21875 74.21875 32.171875 74.21875 
Q 37.3125 74.21875 42.625 73.28125 
Q 47.953125 72.359375 53.515625 70.515625 
z
" id="DejaVuSans-83"/>
      <path d="M 5.609375 72.90625 
L 62.890625 72.90625 
L 62.890625 65.375 
L 16.796875 8.296875 
L 64.015625 8.296875 
L 64.015625 0 
L 4.5 0 
L 4.5 7.515625 
L 50.59375 64.59375 
L 5.609375 64.59375 
z
" id="DejaVuSans-90"/>
     </defs>
     <g transform="translate(714.048437 85.718438)scale(0.1 -0.1)">
      <use xlink:href="#DejaVuSans-48"/>
      <use x="63.623047" xlink:href="#DejaVuSans-48"/>
      <use x="127.246094" xlink:href="#DejaVuSans-48"/>
      <use x="190.869141" xlink:href="#DejaVuSans-48"/>
      <use x="254.492188" xlink:href="#DejaVuSans-48"/>
      <use x="318.115234" xlink:href="#DejaVuSans-49"/>
      <use x="381.738281" xlink:href="#DejaVuSans-46"/>
      <use x="413.525391" xlink:href="#DejaVuSans-83"/>
      <use x="477.001953" xlink:href="#DejaVuSans-90"/>
     </g>
    </g>
    <g id="line2d_21">
     <path d="M 686.048437 96.896563 
L 706.048437 96.896563 
" style="fill:none;stroke:#ff7f0e;stroke-linecap:square;stroke-width:1.5;"/>
    </g>
    <g id="line2d_22"/>
    <g id="text_15">
     <!-- 000002.SZ -->
     <g transform="translate(714.048437 100.396563)scale(0.1 -0.1)">
      <use xlink:href="#DejaVuSans-48"/>
      <use x="63.623047" xlink:href="#DejaVuSans-48"/>
      <use x="127.246094" xlink:href="#DejaVuSans-48"/>
      <use x="190.869141" xlink:href="#DejaVuSans-48"/>
      <use x="254.492188" xlink:href="#DejaVuSans-48"/>
      <use x="318.115234" xlink:href="#DejaVuSans-50"/>
      <use x="381.738281" xlink:href="#DejaVuSans-46"/>
      <use x="413.525391" xlink:href="#DejaVuSans-83"/>
      <use x="477.001953" xlink:href="#DejaVuSans-90"/>
     </g>
    </g>
    <g id="line2d_23">
     <path d="M 686.048437 111.574688 
L 706.048437 111.574688 
" style="fill:none;stroke:#2ca02c;stroke-linecap:square;stroke-width:1.5;"/>
    </g>
    <g id="line2d_24"/>
    <g id="text_16">
     <!-- 000004.SZ -->
     <g transform="translate(714.048437 115.074688)scale(0.1 -0.1)">
      <use xlink:href="#DejaVuSans-48"/>
      <use x="63.623047" xlink:href="#DejaVuSans-48"/>
      <use x="127.246094" xlink:href="#DejaVuSans-48"/>
      <use x="190.869141" xlink:href="#DejaVuSans-48"/>
      <use x="254.492188" xlink:href="#DejaVuSans-48"/>
      <use x="318.115234" xlink:href="#DejaVuSans-52"/>
      <use x="381.738281" xlink:href="#DejaVuSans-46"/>
      <use x="413.525391" xlink:href="#DejaVuSans-83"/>
      <use x="477.001953" xlink:href="#DejaVuSans-90"/>
     </g>
    </g>
    <g id="line2d_25">
     <path d="M 686.048437 126.252813 
L 706.048437 126.252813 
" style="fill:none;stroke:#d62728;stroke-linecap:square;stroke-width:1.5;"/>
    </g>
    <g id="line2d_26"/>
    <g id="text_17">
     <!-- 000005.SZ -->
     <g transform="translate(714.048437 129.752813)scale(0.1 -0.1)">
      <use xlink:href="#DejaVuSans-48"/>
      <use x="63.623047" xlink:href="#DejaVuSans-48"/>
      <use x="127.246094" xlink:href="#DejaVuSans-48"/>
      <use x="190.869141" xlink:href="#DejaVuSans-48"/>
      <use x="254.492188" xlink:href="#DejaVuSans-48"/>
      <use x="318.115234" xlink:href="#DejaVuSans-53"/>
      <use x="381.738281" xlink:href="#DejaVuSans-46"/>
      <use x="413.525391" xlink:href="#DejaVuSans-83"/>
      <use x="477.001953" xlink:href="#DejaVuSans-90"/>
     </g>
    </g>
    <g id="line2d_27">
     <path d="M 686.048437 140.930938 
L 706.048437 140.930938 
" style="fill:none;stroke:#9467bd;stroke-linecap:square;stroke-width:1.5;"/>
    </g>
    <g id="line2d_28"/>
    <g id="text_18">
     <!-- 000006.SZ -->
     <g transform="translate(714.048437 144.430938)scale(0.1 -0.1)">
      <use xlink:href="#DejaVuSans-48"/>
      <use x="63.623047" xlink:href="#DejaVuSans-48"/>
      <use x="127.246094" xlink:href="#DejaVuSans-48"/>
      <use x="190.869141" xlink:href="#DejaVuSans-48"/>
      <use x="254.492188" xlink:href="#DejaVuSans-48"/>
      <use x="318.115234" xlink:href="#DejaVuSans-54"/>
      <use x="381.738281" xlink:href="#DejaVuSans-46"/>
      <use x="413.525391" xlink:href="#DejaVuSans-83"/>
      <use x="477.001953" xlink:href="#DejaVuSans-90"/>
     </g>
    </g>
    <g id="line2d_29">
     <path d="M 686.048437 155.609063 
L 706.048437 155.609063 
" style="fill:none;stroke:#8c564b;stroke-linecap:square;stroke-width:1.5;"/>
    </g>
    <g id="line2d_30"/>
    <g id="text_19">
     <!-- 000007.SZ -->
     <g transform="translate(714.048437 159.109063)scale(0.1 -0.1)">
      <use xlink:href="#DejaVuSans-48"/>
      <use x="63.623047" xlink:href="#DejaVuSans-48"/>
      <use x="127.246094" xlink:href="#DejaVuSans-48"/>
      <use x="190.869141" xlink:href="#DejaVuSans-48"/>
      <use x="254.492188" xlink:href="#DejaVuSans-48"/>
      <use x="318.115234" xlink:href="#DejaVuSans-55"/>
      <use x="381.738281" xlink:href="#DejaVuSans-46"/>
      <use x="413.525391" xlink:href="#DejaVuSans-83"/>
      <use x="477.001953" xlink:href="#DejaVuSans-90"/>
     </g>
    </g>
   </g>
  </g>
 </g>
 <defs>
  <clipPath id="p46e7e2b742">
   <rect height="391.68" width="669.6" x="108" y="69.12"/>
  </clipPath>
 </defs>
</svg>
