<?xml version="1.0" encoding="utf-8" standalone="no"?>
<!DOCTYPE svg PUBLIC "-//W3C//DTD SVG 1.1//EN"
  "http://www.w3.org/Graphics/SVG/1.1/DTD/svg11.dtd">
<!-- Created with matplotlib (https://matplotlib.org/) -->
<svg height="345.6pt" version="1.1" viewBox="0 0 460.8 345.6" width="460.8pt" xmlns="http://www.w3.org/2000/svg" xmlns:xlink="http://www.w3.org/1999/xlink">
 <defs>
  <style type="text/css">
*{stroke-linecap:butt;stroke-linejoin:round;}
  </style>
 </defs>
 <g id="figure_1">
  <g id="patch_1">
   <path d="M 0 345.6 
L 460.8 345.6 
L 460.8 0 
L 0 0 
z
" style="fill:#ffffff;"/>
  </g>
  <g id="axes_1">
   <g id="patch_2">
    <path d="M 57.6 307.584 
L 414.72 307.584 
L 414.72 41.472 
L 57.6 41.472 
z
" style="fill:#ffffff;"/>
   </g>
   <g id="matplotlib.axis_1">
    <g id="xtick_1">
     <g id="line2d_1">
      <defs>
       <path d="M 0 0 
L 0 3.5 
" id="m4773cd1561" style="stroke:#000000;stroke-width:0.8;"/>
      </defs>
      <g>
       <use style="stroke:#000000;stroke-width:0.8;" x="73.832727" xlink:href="#m4773cd1561" y="307.584"/>
      </g>
     </g>
     <g id="text_1">
      <!-- 0 -->
      <defs>
       <path d="M 31.78125 66.40625 
Q 24.171875 66.40625 20.328125 58.90625 
Q 16.5 51.421875 16.5 36.375 
Q 16.5 21.390625 20.328125 13.890625 
Q 24.171875 6.390625 31.78125 6.390625 
Q 39.453125 6.390625 43.28125 13.890625 
Q 47.125 21.390625 47.125 36.375 
Q 47.125 51.421875 43.28125 58.90625 
Q 39.453125 66.40625 31.78125 66.40625 
z
M 31.78125 74.21875 
Q 44.046875 74.21875 50.515625 64.515625 
Q 56.984375 54.828125 56.984375 36.375 
Q 56.984375 17.96875 50.515625 8.265625 
Q 44.046875 -1.421875 31.78125 -1.421875 
Q 19.53125 -1.421875 13.0625 8.265625 
Q 6.59375 17.96875 6.59375 36.375 
Q 6.59375 54.828125 13.0625 64.515625 
Q 19.53125 74.21875 31.78125 74.21875 
z
" id="DejaVuSans-48"/>
      </defs>
      <g transform="translate(70.651477 322.182437)scale(0.1 -0.1)">
       <use xlink:href="#DejaVuSans-48"/>
      </g>
     </g>
    </g>
    <g id="xtick_2">
     <g id="line2d_2">
      <g>
       <use style="stroke:#000000;stroke-width:0.8;" x="117.469091" xlink:href="#m4773cd1561" y="307.584"/>
      </g>
     </g>
     <g id="text_2">
      <!-- 50 -->
      <defs>
       <path d="M 10.796875 72.90625 
L 49.515625 72.90625 
L 49.515625 64.59375 
L 19.828125 64.59375 
L 19.828125 46.734375 
Q 21.96875 47.46875 24.109375 47.828125 
Q 26.265625 48.1875 28.421875 48.1875 
Q 40.625 48.1875 47.75 41.5 
Q 54.890625 34.8125 54.890625 23.390625 
Q 54.890625 11.625 47.5625 5.09375 
Q 40.234375 -1.421875 26.90625 -1.421875 
Q 22.3125 -1.421875 17.546875 -0.640625 
Q 12.796875 0.140625 7.71875 1.703125 
L 7.71875 11.625 
Q 12.109375 9.234375 16.796875 8.0625 
Q 21.484375 6.890625 26.703125 6.890625 
Q 35.15625 6.890625 40.078125 11.328125 
Q 45.015625 15.765625 45.015625 23.390625 
Q 45.015625 31 40.078125 35.4375 
Q 35.15625 39.890625 26.703125 39.890625 
Q 22.75 39.890625 18.8125 39.015625 
Q 14.890625 38.140625 10.796875 36.28125 
z
" id="DejaVuSans-53"/>
      </defs>
      <g transform="translate(111.106591 322.182437)scale(0.1 -0.1)">
       <use xlink:href="#DejaVuSans-53"/>
       <use x="63.623047" xlink:href="#DejaVuSans-48"/>
      </g>
     </g>
    </g>
    <g id="xtick_3">
     <g id="line2d_3">
      <g>
       <use style="stroke:#000000;stroke-width:0.8;" x="161.105455" xlink:href="#m4773cd1561" y="307.584"/>
      </g>
     </g>
     <g id="text_3">
      <!-- 100 -->
      <defs>
       <path d="M 12.40625 8.296875 
L 28.515625 8.296875 
L 28.515625 63.921875 
L 10.984375 60.40625 
L 10.984375 69.390625 
L 28.421875 72.90625 
L 38.28125 72.90625 
L 38.28125 8.296875 
L 54.390625 8.296875 
L 54.390625 0 
L 12.40625 0 
z
" id="DejaVuSans-49"/>
      </defs>
      <g transform="translate(151.561705 322.182437)scale(0.1 -0.1)">
       <use xlink:href="#DejaVuSans-49"/>
       <use x="63.623047" xlink:href="#DejaVuSans-48"/>
       <use x="127.246094" xlink:href="#DejaVuSans-48"/>
      </g>
     </g>
    </g>
    <g id="xtick_4">
     <g id="line2d_4">
      <g>
       <use style="stroke:#000000;stroke-width:0.8;" x="204.741818" xlink:href="#m4773cd1561" y="307.584"/>
      </g>
     </g>
     <g id="text_4">
      <!-- 150 -->
      <g transform="translate(195.198068 322.182437)scale(0.1 -0.1)">
       <use xlink:href="#DejaVuSans-49"/>
       <use x="63.623047" xlink:href="#DejaVuSans-53"/>
       <use x="127.246094" xlink:href="#DejaVuSans-48"/>
      </g>
     </g>
    </g>
    <g id="xtick_5">
     <g id="line2d_5">
      <g>
       <use style="stroke:#000000;stroke-width:0.8;" x="248.378182" xlink:href="#m4773cd1561" y="307.584"/>
      </g>
     </g>
     <g id="text_5">
      <!-- 200 -->
      <defs>
       <path d="M 19.1875 8.296875 
L 53.609375 8.296875 
L 53.609375 0 
L 7.328125 0 
L 7.328125 8.296875 
Q 12.9375 14.109375 22.625 23.890625 
Q 32.328125 33.6875 34.8125 36.53125 
Q 39.546875 41.84375 41.421875 45.53125 
Q 43.3125 49.21875 43.3125 52.78125 
Q 43.3125 58.59375 39.234375 62.25 
Q 35.15625 65.921875 28.609375 65.921875 
Q 23.96875 65.921875 18.8125 64.3125 
Q 13.671875 62.703125 7.8125 59.421875 
L 7.8125 69.390625 
Q 13.765625 71.78125 18.9375 73 
Q 24.125 74.21875 28.421875 74.21875 
Q 39.75 74.21875 46.484375 68.546875 
Q 53.21875 62.890625 53.21875 53.421875 
Q 53.21875 48.921875 51.53125 44.890625 
Q 49.859375 40.875 45.40625 35.40625 
Q 44.1875 33.984375 37.640625 27.21875 
Q 31.109375 20.453125 19.1875 8.296875 
z
" id="DejaVuSans-50"/>
      </defs>
      <g transform="translate(238.834432 322.182437)scale(0.1 -0.1)">
       <use xlink:href="#DejaVuSans-50"/>
       <use x="63.623047" xlink:href="#DejaVuSans-48"/>
       <use x="127.246094" xlink:href="#DejaVuSans-48"/>
      </g>
     </g>
    </g>
    <g id="xtick_6">
     <g id="line2d_6">
      <g>
       <use style="stroke:#000000;stroke-width:0.8;" x="292.014545" xlink:href="#m4773cd1561" y="307.584"/>
      </g>
     </g>
     <g id="text_6">
      <!-- 250 -->
      <g transform="translate(282.470795 322.182437)scale(0.1 -0.1)">
       <use xlink:href="#DejaVuSans-50"/>
       <use x="63.623047" xlink:href="#DejaVuSans-53"/>
       <use x="127.246094" xlink:href="#DejaVuSans-48"/>
      </g>
     </g>
    </g>
    <g id="xtick_7">
     <g id="line2d_7">
      <g>
       <use style="stroke:#000000;stroke-width:0.8;" x="335.650909" xlink:href="#m4773cd1561" y="307.584"/>
      </g>
     </g>
     <g id="text_7">
      <!-- 300 -->
      <defs>
       <path d="M 40.578125 39.3125 
Q 47.65625 37.796875 51.625 33 
Q 55.609375 28.21875 55.609375 21.1875 
Q 55.609375 10.40625 48.1875 4.484375 
Q 40.765625 -1.421875 27.09375 -1.421875 
Q 22.515625 -1.421875 17.65625 -0.515625 
Q 12.796875 0.390625 7.625 2.203125 
L 7.625 11.71875 
Q 11.71875 9.328125 16.59375 8.109375 
Q 21.484375 6.890625 26.8125 6.890625 
Q 36.078125 6.890625 40.9375 10.546875 
Q 45.796875 14.203125 45.796875 21.1875 
Q 45.796875 27.640625 41.28125 31.265625 
Q 36.765625 34.90625 28.71875 34.90625 
L 20.21875 34.90625 
L 20.21875 43.015625 
L 29.109375 43.015625 
Q 36.375 43.015625 40.234375 45.921875 
Q 44.09375 48.828125 44.09375 54.296875 
Q 44.09375 59.90625 40.109375 62.90625 
Q 36.140625 65.921875 28.71875 65.921875 
Q 24.65625 65.921875 20.015625 65.03125 
Q 15.375 64.15625 9.8125 62.3125 
L 9.8125 71.09375 
Q 15.4375 72.65625 20.34375 73.4375 
Q 25.25 74.21875 29.59375 74.21875 
Q 40.828125 74.21875 47.359375 69.109375 
Q 53.90625 64.015625 53.90625 55.328125 
Q 53.90625 49.265625 50.4375 45.09375 
Q 46.96875 40.921875 40.578125 39.3125 
z
" id="DejaVuSans-51"/>
      </defs>
      <g transform="translate(326.107159 322.182437)scale(0.1 -0.1)">
       <use xlink:href="#DejaVuSans-51"/>
       <use x="63.623047" xlink:href="#DejaVuSans-48"/>
       <use x="127.246094" xlink:href="#DejaVuSans-48"/>
      </g>
     </g>
    </g>
    <g id="xtick_8">
     <g id="line2d_8">
      <g>
       <use style="stroke:#000000;stroke-width:0.8;" x="379.287273" xlink:href="#m4773cd1561" y="307.584"/>
      </g>
     </g>
     <g id="text_8">
      <!-- 350 -->
      <g transform="translate(369.743523 322.182437)scale(0.1 -0.1)">
       <use xlink:href="#DejaVuSans-51"/>
       <use x="63.623047" xlink:href="#DejaVuSans-53"/>
       <use x="127.246094" xlink:href="#DejaVuSans-48"/>
      </g>
     </g>
    </g>
   </g>
   <g id="matplotlib.axis_2">
    <g id="ytick_1">
     <g id="line2d_9">
      <defs>
       <path d="M 0 0 
L -3.5 0 
" id="m2e312af613" style="stroke:#000000;stroke-width:0.8;"/>
      </defs>
      <g>
       <use style="stroke:#000000;stroke-width:0.8;" x="57.6" xlink:href="#m2e312af613" y="280.86418"/>
      </g>
     </g>
     <g id="text_9">
      <!-- 7000 -->
      <defs>
       <path d="M 8.203125 72.90625 
L 55.078125 72.90625 
L 55.078125 68.703125 
L 28.609375 0 
L 18.3125 0 
L 43.21875 64.59375 
L 8.203125 64.59375 
z
" id="DejaVuSans-55"/>
      </defs>
      <g transform="translate(25.15 284.663398)scale(0.1 -0.1)">
       <use xlink:href="#DejaVuSans-55"/>
       <use x="63.623047" xlink:href="#DejaVuSans-48"/>
       <use x="127.246094" xlink:href="#DejaVuSans-48"/>
       <use x="190.869141" xlink:href="#DejaVuSans-48"/>
      </g>
     </g>
    </g>
    <g id="ytick_2">
     <g id="line2d_10">
      <g>
       <use style="stroke:#000000;stroke-width:0.8;" x="57.6" xlink:href="#m2e312af613" y="248.794398"/>
      </g>
     </g>
     <g id="text_10">
      <!-- 8000 -->
      <defs>
       <path d="M 31.78125 34.625 
Q 24.75 34.625 20.71875 30.859375 
Q 16.703125 27.09375 16.703125 20.515625 
Q 16.703125 13.921875 20.71875 10.15625 
Q 24.75 6.390625 31.78125 6.390625 
Q 38.8125 6.390625 42.859375 10.171875 
Q 46.921875 13.96875 46.921875 20.515625 
Q 46.921875 27.09375 42.890625 30.859375 
Q 38.875 34.625 31.78125 34.625 
z
M 21.921875 38.8125 
Q 15.578125 40.375 12.03125 44.71875 
Q 8.5 49.078125 8.5 55.328125 
Q 8.5 64.0625 14.71875 69.140625 
Q 20.953125 74.21875 31.78125 74.21875 
Q 42.671875 74.21875 48.875 69.140625 
Q 55.078125 64.0625 55.078125 55.328125 
Q 55.078125 49.078125 51.53125 44.71875 
Q 48 40.375 41.703125 38.8125 
Q 48.828125 37.15625 52.796875 32.3125 
Q 56.78125 27.484375 56.78125 20.515625 
Q 56.78125 9.90625 50.3125 4.234375 
Q 43.84375 -1.421875 31.78125 -1.421875 
Q 19.734375 -1.421875 13.25 4.234375 
Q 6.78125 9.90625 6.78125 20.515625 
Q 6.78125 27.484375 10.78125 32.3125 
Q 14.796875 37.15625 21.921875 38.8125 
z
M 18.3125 54.390625 
Q 18.3125 48.734375 21.84375 45.5625 
Q 25.390625 42.390625 31.78125 42.390625 
Q 38.140625 42.390625 41.71875 45.5625 
Q 45.3125 48.734375 45.3125 54.390625 
Q 45.3125 60.0625 41.71875 63.234375 
Q 38.140625 66.40625 31.78125 66.40625 
Q 25.390625 66.40625 21.84375 63.234375 
Q 18.3125 60.0625 18.3125 54.390625 
z
" id="DejaVuSans-56"/>
      </defs>
      <g transform="translate(25.15 252.593617)scale(0.1 -0.1)">
       <use xlink:href="#DejaVuSans-56"/>
       <use x="63.623047" xlink:href="#DejaVuSans-48"/>
       <use x="127.246094" xlink:href="#DejaVuSans-48"/>
       <use x="190.869141" xlink:href="#DejaVuSans-48"/>
      </g>
     </g>
    </g>
    <g id="ytick_3">
     <g id="line2d_11">
      <g>
       <use style="stroke:#000000;stroke-width:0.8;" x="57.6" xlink:href="#m2e312af613" y="216.724617"/>
      </g>
     </g>
     <g id="text_11">
      <!-- 9000 -->
      <defs>
       <path d="M 10.984375 1.515625 
L 10.984375 10.5 
Q 14.703125 8.734375 18.5 7.8125 
Q 22.3125 6.890625 25.984375 6.890625 
Q 35.75 6.890625 40.890625 13.453125 
Q 46.046875 20.015625 46.78125 33.40625 
Q 43.953125 29.203125 39.59375 26.953125 
Q 35.25 24.703125 29.984375 24.703125 
Q 19.046875 24.703125 12.671875 31.3125 
Q 6.296875 37.9375 6.296875 49.421875 
Q 6.296875 60.640625 12.9375 67.421875 
Q 19.578125 74.21875 30.609375 74.21875 
Q 43.265625 74.21875 49.921875 64.515625 
Q 56.59375 54.828125 56.59375 36.375 
Q 56.59375 19.140625 48.40625 8.859375 
Q 40.234375 -1.421875 26.421875 -1.421875 
Q 22.703125 -1.421875 18.890625 -0.6875 
Q 15.09375 0.046875 10.984375 1.515625 
z
M 30.609375 32.421875 
Q 37.25 32.421875 41.125 36.953125 
Q 45.015625 41.5 45.015625 49.421875 
Q 45.015625 57.28125 41.125 61.84375 
Q 37.25 66.40625 30.609375 66.40625 
Q 23.96875 66.40625 20.09375 61.84375 
Q 16.21875 57.28125 16.21875 49.421875 
Q 16.21875 41.5 20.09375 36.953125 
Q 23.96875 32.421875 30.609375 32.421875 
z
" id="DejaVuSans-57"/>
      </defs>
      <g transform="translate(25.15 220.523835)scale(0.1 -0.1)">
       <use xlink:href="#DejaVuSans-57"/>
       <use x="63.623047" xlink:href="#DejaVuSans-48"/>
       <use x="127.246094" xlink:href="#DejaVuSans-48"/>
       <use x="190.869141" xlink:href="#DejaVuSans-48"/>
      </g>
     </g>
    </g>
    <g id="ytick_4">
     <g id="line2d_12">
      <g>
       <use style="stroke:#000000;stroke-width:0.8;" x="57.6" xlink:href="#m2e312af613" y="184.654835"/>
      </g>
     </g>
     <g id="text_12">
      <!-- 10000 -->
      <g transform="translate(18.7875 188.454054)scale(0.1 -0.1)">
       <use xlink:href="#DejaVuSans-49"/>
       <use x="63.623047" xlink:href="#DejaVuSans-48"/>
       <use x="127.246094" xlink:href="#DejaVuSans-48"/>
       <use x="190.869141" xlink:href="#DejaVuSans-48"/>
       <use x="254.492188" xlink:href="#DejaVuSans-48"/>
      </g>
     </g>
    </g>
    <g id="ytick_5">
     <g id="line2d_13">
      <g>
       <use style="stroke:#000000;stroke-width:0.8;" x="57.6" xlink:href="#m2e312af613" y="152.585054"/>
      </g>
     </g>
     <g id="text_13">
      <!-- 11000 -->
      <g transform="translate(18.7875 156.384273)scale(0.1 -0.1)">
       <use xlink:href="#DejaVuSans-49"/>
       <use x="63.623047" xlink:href="#DejaVuSans-49"/>
       <use x="127.246094" xlink:href="#DejaVuSans-48"/>
       <use x="190.869141" xlink:href="#DejaVuSans-48"/>
       <use x="254.492188" xlink:href="#DejaVuSans-48"/>
      </g>
     </g>
    </g>
    <g id="ytick_6">
     <g id="line2d_14">
      <g>
       <use style="stroke:#000000;stroke-width:0.8;" x="57.6" xlink:href="#m2e312af613" y="120.515272"/>
      </g>
     </g>
     <g id="text_14">
      <!-- 12000 -->
      <g transform="translate(18.7875 124.314491)scale(0.1 -0.1)">
       <use xlink:href="#DejaVuSans-49"/>
       <use x="63.623047" xlink:href="#DejaVuSans-50"/>
       <use x="127.246094" xlink:href="#DejaVuSans-48"/>
       <use x="190.869141" xlink:href="#DejaVuSans-48"/>
       <use x="254.492188" xlink:href="#DejaVuSans-48"/>
      </g>
     </g>
    </g>
    <g id="ytick_7">
     <g id="line2d_15">
      <g>
       <use style="stroke:#000000;stroke-width:0.8;" x="57.6" xlink:href="#m2e312af613" y="88.445491"/>
      </g>
     </g>
     <g id="text_15">
      <!-- 13000 -->
      <g transform="translate(18.7875 92.24471)scale(0.1 -0.1)">
       <use xlink:href="#DejaVuSans-49"/>
       <use x="63.623047" xlink:href="#DejaVuSans-51"/>
       <use x="127.246094" xlink:href="#DejaVuSans-48"/>
       <use x="190.869141" xlink:href="#DejaVuSans-48"/>
       <use x="254.492188" xlink:href="#DejaVuSans-48"/>
      </g>
     </g>
    </g>
    <g id="ytick_8">
     <g id="line2d_16">
      <g>
       <use style="stroke:#000000;stroke-width:0.8;" x="57.6" xlink:href="#m2e312af613" y="56.375709"/>
      </g>
     </g>
     <g id="text_16">
      <!-- 14000 -->
      <defs>
       <path d="M 37.796875 64.3125 
L 12.890625 25.390625 
L 37.796875 25.390625 
z
M 35.203125 72.90625 
L 47.609375 72.90625 
L 47.609375 25.390625 
L 58.015625 25.390625 
L 58.015625 17.1875 
L 47.609375 17.1875 
L 47.609375 0 
L 37.796875 0 
L 37.796875 17.1875 
L 4.890625 17.1875 
L 4.890625 26.703125 
z
" id="DejaVuSans-52"/>
      </defs>
      <g transform="translate(18.7875 60.174928)scale(0.1 -0.1)">
       <use xlink:href="#DejaVuSans-49"/>
       <use x="63.623047" xlink:href="#DejaVuSans-52"/>
       <use x="127.246094" xlink:href="#DejaVuSans-48"/>
       <use x="190.869141" xlink:href="#DejaVuSans-48"/>
       <use x="254.492188" xlink:href="#DejaVuSans-48"/>
      </g>
     </g>
    </g>
   </g>
   <g id="line2d_17">
    <path clip-path="url(#p464e17b8d0)" d="M 73.832727 169.095219 
L 74.705455 167.700825 
L 75.578182 162.125493 
L 76.450909 168.646242 
L 77.323636 166.08547 
L 78.196364 161.72879 
L 79.069091 165.104455 
L 79.941818 162.907034 
L 80.814545 167.674527 
L 81.687273 181.355175 
L 82.56 182.578317 
L 83.432727 174.083673 
L 84.305455 166.748031 
L 85.178182 168.120939 
L 86.050909 170.613081 
L 86.923636 170.392441 
L 87.796364 174.584924 
L 88.669091 184.974892 
L 89.541818 187.640211 
L 90.414545 185.987976 
L 91.287273 178.155894 
L 92.16 172.112985 
L 93.032727 173.920117 
L 93.905455 172.741874 
L 94.778182 173.203037 
L 95.650909 177.620649 
L 96.523636 177.015172 
L 98.269091 185.876053 
L 99.141818 178.909213 
L 100.014545 190.598649 
L 100.887273 186.112407 
L 101.76 182.312138 
L 102.632727 180.725646 
L 103.505455 173.661635 
L 104.378182 174.560551 
L 105.250909 178.084058 
L 106.123636 185.022355 
L 106.996364 177.710445 
L 108.741818 186.055643 
L 109.614545 192.672601 
L 111.36 172.105609 
L 112.232727 167.008759 
L 113.105455 168.959243 
L 113.978182 169.392826 
L 114.850909 167.110741 
L 115.723636 164.184052 
L 116.596364 163.437468 
L 117.469091 159.764516 
L 118.341818 161.262175 
L 119.214545 164.738539 
L 120.087273 164.489677 
L 120.96 172.833593 
L 121.832727 168.942567 
L 122.705455 161.700568 
L 123.578182 159.283469 
L 124.450909 165.053785 
L 126.196364 154.60994 
L 127.069091 158.854375 
L 127.941818 166.522901 
L 128.814545 169.080146 
L 129.687273 171.148967 
L 130.56 170.269614 
L 131.432727 182.369863 
L 132.305455 176.878875 
L 133.178182 176.582871 
L 134.050909 172.329135 
L 134.923636 176.56395 
L 135.796364 167.86438 
L 136.669091 169.662854 
L 137.541818 169.677285 
L 138.414545 167.89645 
L 139.287273 165.120811 
L 140.16 175.329584 
L 141.032727 172.73129 
L 141.905455 167.987528 
L 142.778182 166.215032 
L 143.650909 165.525852 
L 144.523636 164.670551 
L 145.396364 167.435607 
L 146.269091 164.310407 
L 147.141818 166.378587 
L 148.014545 169.804923 
L 148.887273 165.758037 
L 149.76 162.753099 
L 151.505455 170.427718 
L 152.378182 167.482109 
L 153.250909 176.997854 
L 154.123636 173.491344 
L 154.996364 172.307969 
L 155.869091 170.541887 
L 156.741818 165.854567 
L 158.487273 158.348635 
L 159.36 156.089639 
L 160.232727 157.876247 
L 161.105455 160.032619 
L 161.978182 157.827501 
L 162.850909 159.711921 
L 163.723636 157.478582 
L 164.596364 152.203423 
L 165.469091 155.910049 
L 166.341818 162.566132 
L 167.214545 155.794598 
L 168.087273 159.054491 
L 168.96 156.038328 
L 169.832727 150.370315 
L 170.705455 149.456647 
L 171.578182 153.913063 
L 172.450909 150.147109 
L 173.323636 143.780937 
L 174.196364 144.564081 
L 175.069091 147.93686 
L 175.941818 148.052632 
L 176.814545 150.218945 
L 177.687273 141.799345 
L 178.56 141.575818 
L 179.432727 133.838984 
L 180.305455 138.834494 
L 181.178182 148.565748 
L 182.050909 149.556704 
L 182.923636 151.022614 
L 183.796364 159.236968 
L 184.669091 154.441573 
L 185.541818 151.132934 
L 186.414545 145.272502 
L 187.287273 149.264228 
L 188.16 160.687163 
L 189.032727 150.947891 
L 189.905455 146.630337 
L 190.778182 145.549585 
L 191.650909 149.446384 
L 192.523636 141.519376 
L 193.396364 141.29617 
L 194.269091 137.535347 
L 195.141818 139.858482 
L 196.014545 134.786325 
L 196.887273 134.118953 
L 197.76 131.087076 
L 198.632727 125.075275 
L 200.378182 116.765994 
L 201.250909 117.741236 
L 202.123636 117.130307 
L 202.996364 116.28591 
L 203.869091 110.363904 
L 204.741818 116.612059 
L 205.614545 111.412265 
L 206.487273 109.98099 
L 207.36 106.36384 
L 208.232727 107.442667 
L 209.105455 105.29752 
L 209.978182 106.934041 
L 210.850909 101.831738 
L 211.723636 105.212855 
L 212.596364 104.776065 
L 213.469091 99.293415 
L 214.341818 102.795115 
L 215.214545 95.287899 
L 216.087273 100.238832 
L 216.96 118.898635 
L 217.832727 110.297199 
L 218.705455 113.26205 
L 219.578182 105.4723 
L 220.450909 108.254995 
L 221.323636 102.263077 
L 222.196364 97.410278 
L 223.069091 91.030315 
L 223.941818 86.427981 
L 224.814545 78.408611 
L 225.687273 77.324332 
L 226.56 71.035448 
L 227.432727 71.726231 
L 228.305455 66.756056 
L 229.178182 74.817117 
L 230.050909 68.787356 
L 230.923636 77.155324 
L 231.796364 71.274368 
L 232.669091 67.601095 
L 233.541818 57.94777 
L 234.414545 58.190218 
L 235.287273 76.954567 
L 236.16 73.411819 
L 237.032727 80.860025 
L 237.905455 84.553823 
L 238.778182 78.114852 
L 239.650909 74.050649 
L 240.523636 84.345369 
L 241.396364 75.5079 
L 243.141818 53.568 
L 244.014545 54.973298 
L 244.887273 56.86317 
L 245.76 70.262887 
L 246.632727 60.536443 
L 247.505455 71.018772 
L 248.378182 88.84476 
L 249.250909 89.778311 
L 250.123636 96.673314 
L 250.996364 78.3573 
L 251.869091 65.129798 
L 252.741818 83.083423 
L 253.614545 70.805828 
L 254.487273 79.952771 
L 255.36 93.977849 
L 256.232727 95.560172 
L 257.105455 121.439203 
L 257.978182 108.204004 
L 258.850909 100.14583 
L 259.723636 112.818204 
L 260.596364 109.700701 
L 261.469091 102.228442 
L 262.341818 112.212406 
L 263.214545 128.848605 
L 264.087273 121.405209 
L 264.96 102.920507 
L 265.832727 112.084447 
L 266.705455 100.874776 
L 267.578182 110.828274 
L 268.450909 94.057061 
L 269.323636 92.55844 
L 270.196364 89.422336 
L 271.069091 92.412202 
L 271.941818 87.542406 
L 272.814545 102.929808 
L 273.687273 104.357875 
L 274.56 111.525471 
L 275.432727 111.885936 
L 276.305455 125.570753 
L 277.178182 141.36031 
L 278.050909 145.146147 
L 278.923636 150.815123 
L 279.796364 137.597562 
L 280.669091 148.381347 
L 281.541818 143.472425 
L 282.414545 127.49526 
L 283.287273 137.211121 
L 284.16 140.198101 
L 285.032727 136.007542 
L 285.905455 136.205734 
L 286.778182 155.23049 
L 287.650909 152.081879 
L 288.523636 172.934934 
L 289.396364 186.081941 
L 290.269091 204.294049 
L 291.141818 208.212335 
L 292.014545 243.157493 
L 292.887273 206.467739 
L 293.76 220.876371 
L 294.632727 240.020747 
L 295.505455 234.574978 
L 296.378182 244.013114 
L 297.250909 218.83545 
L 298.123636 230.690044 
L 298.996364 232.128053 
L 299.869091 233.274869 
L 300.741818 218.235424 
L 302.487273 250.427071 
L 303.36 245.073341 
L 304.232727 250.822812 
L 305.105455 240.107656 
L 305.978182 263.142418 
L 306.850909 277.18321 
L 307.723636 288.455418 
L 308.596364 295.390187 
L 309.469091 273.905999 
L 310.341818 255.982519 
L 311.214545 264.123112 
L 312.087273 249.568883 
L 312.96 246.940444 
L 313.832727 253.870082 
L 314.705455 247.992654 
L 315.578182 235.10894 
L 316.450909 235.364536 
L 317.323636 232.628663 
L 318.196364 233.609677 
L 319.069091 225.657975 
L 319.941818 224.277371 
L 320.814545 229.163523 
L 321.687273 237.922422 
L 322.56 231.817297 
L 323.432727 238.375888 
L 324.305455 238.157493 
L 325.178182 221.594413 
L 326.050909 213.244725 
L 326.923636 207.5347 
L 327.796364 205.886634 
L 328.669091 212.384292 
L 329.541818 200.392118 
L 330.414545 200.809026 
L 331.287273 200.775032 
L 332.16 196.623278 
L 333.032727 191.746747 
L 333.905455 191.410014 
L 334.778182 197.490765 
L 335.650909 188.317204 
L 336.523636 181.698322 
L 337.396364 188.889329 
L 338.269091 191.407448 
L 339.141818 177.376919 
L 340.014545 171.603717 
L 340.887273 170.192967 
L 341.76 173.595892 
L 342.632727 172.144093 
L 343.505455 168.586271 
L 344.378182 171.373456 
L 345.250909 167.110099 
L 346.123636 165.927366 
L 346.996364 163.360821 
L 347.869091 161.390454 
L 348.741818 178.341578 
L 349.614545 178.704929 
L 350.487273 187.592748 
L 351.36 176.034157 
L 352.232727 172.359922 
L 353.105455 171.705378 
L 353.978182 166.93564 
L 354.850909 164.061225 
L 355.723636 159.451515 
L 356.596364 155.924801 
L 357.469091 153.433299 
L 358.341818 152.393597 
L 359.214545 149.63303 
L 360.087273 146.009786 
L 360.96 147.715899 
L 361.832727 159.475567 
L 362.705455 164.584604 
L 363.578182 182.51995 
L 364.450909 183.884519 
L 365.323636 190.539961 
L 366.196364 178.533035 
L 367.069091 170.466843 
L 367.941818 180.212529 
L 368.814545 192.876886 
L 369.687273 177.719104 
L 370.56 179.702299 
L 371.432727 167.80441 
L 372.305455 163.027616 
L 373.178182 162.246075 
L 374.050909 174.969441 
L 374.923636 179.061545 
L 375.796364 184.342796 
L 376.669091 173.728981 
L 378.414545 160.486407 
L 379.287273 158.61289 
L 380.16 160.561771 
L 381.032727 152.253452 
L 381.905455 147.976947 
L 382.778182 147.324006 
L 383.650909 148.588518 
L 384.523636 139.537784 
L 385.396364 146.10792 
L 386.269091 146.858032 
L 387.141818 150.901711 
L 388.014545 140.9697 
L 388.887273 138.841228 
L 389.76 137.251529 
L 390.632727 134.785363 
L 391.505455 131.074248 
L 392.378182 132.142172 
L 393.250909 125.712822 
L 394.123636 121.139992 
L 394.996364 123.981054 
L 395.869091 115.331834 
L 396.741818 111.914478 
L 397.614545 113.691144 
L 398.487273 113.256598 
L 398.487273 113.256598 
" style="fill:none;stroke:#1f77b4;stroke-linecap:square;stroke-width:1.5;"/>
   </g>
   <g id="line2d_18">
    <path clip-path="url(#p464e17b8d0)" d="M 73.832727 168.074758 
L 74.705455 167.144735 
L 75.578182 161.628732 
L 76.450909 167.657851 
L 77.323636 165.028129 
L 78.196364 160.570429 
L 79.069091 164.675361 
L 79.941818 162.334267 
L 80.814545 168.010619 
L 81.687273 180.004717 
L 82.56 182.345811 
L 83.432727 173.366272 
L 84.305455 166.503339 
L 85.178182 167.625781 
L 86.050909 170.319643 
L 86.923636 168.780293 
L 87.796364 174.071807 
L 88.669091 184.943463 
L 89.541818 186.065906 
L 90.414545 185.103812 
L 91.287273 177.727762 
L 92.16 171.891062 
L 93.032727 173.109714 
L 93.905455 172.436249 
L 94.778182 173.045574 
L 95.650909 177.150506 
L 96.523636 176.412901 
L 97.396364 181.608206 
L 98.269091 185.36037 
L 99.141818 178.433298 
L 100.014545 189.721861 
L 100.887273 185.296231 
L 101.76 181.768555 
L 102.632727 180.132996 
L 103.505455 172.981435 
L 104.378182 173.430412 
L 105.250909 177.759832 
L 106.123636 184.141719 
L 106.996364 177.246716 
L 107.869091 180.99888 
L 108.741818 185.841417 
L 109.614545 192.095025 
L 110.487273 182.377881 
L 111.36 170.896899 
L 112.232727 166.27885 
L 113.105455 169.26134 
L 113.978182 170.319643 
L 114.850909 167.497502 
L 115.723636 163.969826 
L 116.596364 163.42464 
L 117.469091 159.768685 
L 118.341818 161.179755 
L 119.214545 164.771571 
L 120.087273 164.89985 
L 120.96 172.628667 
L 121.832727 169.26134 
L 122.705455 162.173918 
L 123.578182 159.06315 
L 124.450909 165.380897 
L 126.196364 154.733729 
L 127.069091 158.550033 
L 127.941818 167.273014 
L 128.814545 169.389619 
L 129.687273 171.121387 
L 130.56 170.319643 
L 131.432727 182.890997 
L 132.305455 176.958088 
L 133.178182 176.380832 
L 134.050909 172.628667 
L 134.923636 176.188413 
L 135.796364 167.914409 
L 136.669091 169.806526 
L 137.541818 169.806526 
L 139.287273 165.541245 
L 140.16 175.19425 
L 141.032727 173.013505 
L 141.905455 167.85027 
L 142.778182 165.669525 
L 143.650909 164.996059 
L 144.523636 164.803641 
L 145.396364 166.888176 
L 146.269091 163.42464 
L 148.014545 169.774457 
L 148.887273 165.958153 
L 149.76 162.815314 
L 150.632727 166.888176 
L 151.505455 170.415852 
L 152.378182 167.721991 
L 153.250909 177.214646 
L 154.123636 173.430412 
L 154.996364 172.628667 
L 155.869091 172.115551 
L 157.614545 161.564593 
L 159.36 155.663753 
L 161.105455 159.896964 
L 161.978182 158.325545 
L 162.850909 159.800755 
L 163.723636 157.940707 
L 164.596364 152.649193 
L 165.469091 155.759962 
L 166.341818 162.654965 
L 167.214545 156.08066 
L 168.087273 158.934871 
L 168.96 155.631683 
L 169.832727 150.757076 
L 170.705455 149.859122 
L 171.578182 153.771636 
L 172.450909 149.346006 
L 173.323636 143.958283 
L 174.196364 144.727957 
L 175.069091 148.383912 
L 175.941818 147.742517 
L 176.814545 149.859122 
L 177.687273 141.841677 
L 178.56 142.002026 
L 179.432727 134.144929 
L 180.305455 138.730908 
L 181.178182 149.474285 
L 182.923636 150.372239 
L 183.796364 159.159359 
L 185.541818 151.302263 
L 186.414545 145.529702 
L 187.287273 148.897029 
L 188.16 160.53836 
L 189.032727 150.981565 
L 189.905455 146.491795 
L 190.778182 145.080725 
L 191.650909 148.897029 
L 192.523636 141.36063 
L 193.396364 141.553049 
L 194.269091 137.416047 
L 195.141818 139.88542 
L 196.014545 134.882534 
L 196.887273 134.625976 
L 197.76 131.354858 
L 198.632727 124.940902 
L 200.378182 117.725201 
L 201.250909 118.045899 
L 202.123636 117.276224 
L 202.996364 116.185852 
L 203.869091 110.477431 
L 204.741818 116.955527 
L 205.614545 111.535733 
L 206.487273 109.803965 
L 207.36 106.981825 
L 208.232727 107.783569 
L 209.105455 106.18008 
L 209.978182 107.238383 
L 210.850909 102.235497 
L 211.723636 105.282126 
L 212.596364 105.057638 
L 213.469091 99.092658 
L 214.341818 102.588264 
L 215.214545 95.94982 
L 216.087273 100.183031 
L 216.96 119.553179 
L 217.832727 110.413291 
L 218.705455 113.203362 
L 219.578182 106.532848 
L 220.450909 108.809802 
L 221.323636 102.395846 
L 222.196364 97.938146 
L 223.069091 91.107283 
L 223.941818 86.296815 
L 224.814545 78.696277 
L 225.687273 76.515532 
L 226.56 71.769204 
L 227.432727 71.705065 
L 228.305455 67.407714 
L 229.178182 74.847903 
L 230.050909 69.396041 
L 230.923636 76.83623 
L 231.796364 71.544716 
L 232.669091 67.664272 
L 233.541818 58.107478 
L 234.414545 58.909222 
L 235.287273 77.092788 
L 236.16 74.976183 
L 237.032727 81.454278 
L 237.905455 85.366792 
L 238.778182 78.439719 
L 239.650909 74.527206 
L 240.523636 83.859512 
L 241.396364 75.42516 
L 243.141818 54.451522 
L 244.014545 55.541895 
L 244.887273 56.31157 
L 245.76 70.96746 
L 246.632727 60.70513 
L 247.505455 71.737135 
L 248.378182 89.183096 
L 249.250909 89.728282 
L 250.123636 96.591215 
L 250.996364 77.830393 
L 251.869091 64.713853 
L 252.741818 82.256023 
L 253.614545 71.416437 
L 254.487273 80.267697 
L 255.36 94.667028 
L 256.232727 96.430866 
L 257.105455 123.016715 
L 257.978182 109.194639 
L 258.850909 101.177194 
L 259.723636 113.075083 
L 260.596364 108.713593 
L 261.469091 102.652404 
L 262.341818 112.497827 
L 263.214545 126.993368 
L 264.087273 120.226644 
L 264.96 103.390009 
L 265.832727 112.818525 
L 266.705455 101.113055 
L 267.578182 110.349152 
L 268.450909 94.763238 
L 270.196364 89.632073 
L 271.069091 92.422144 
L 271.941818 87.707886 
L 272.814545 103.101381 
L 273.687273 103.967265 
L 274.56 111.022617 
L 275.432727 111.98471 
L 276.305455 125.870926 
L 277.178182 141.617189 
L 278.050909 145.497632 
L 278.923636 150.981565 
L 279.796364 137.672605 
L 280.669091 148.287703 
L 281.541818 143.701724 
L 282.414545 127.314066 
L 283.287273 136.582233 
L 284.16 140.013699 
L 285.032727 135.716349 
L 285.905455 136.037047 
L 286.778182 153.739566 
L 287.650909 151.366402 
L 290.269091 200.689726 
L 291.141818 207.103682 
L 292.014545 247.511607 
L 292.887273 205.339844 
L 293.76 220.156083 
L 294.632727 239.333813 
L 295.505455 236.287183 
L 296.378182 243.470814 
L 297.250909 219.546757 
L 298.123636 229.584599 
L 298.996364 232.887787 
L 299.869091 233.048135 
L 300.741818 217.68671 
L 302.487273 250.686515 
L 303.36 245.362932 
L 304.232727 250.975143 
L 305.105455 239.975208 
L 305.978182 262.424055 
L 306.850909 277.176155 
L 307.723636 287.823322 
L 308.596364 295.488 
L 309.469091 273.45606 
L 310.341818 255.978029 
L 311.214545 264.027544 
L 312.087273 249.564073 
L 312.96 247.03056 
L 313.832727 253.540726 
L 314.705455 247.960584 
L 315.578182 235.194887 
L 316.450909 234.587485 
L 317.323636 232.37467 
L 318.196364 233.240554 
L 319.069091 225.223109 
L 319.941818 223.972387 
L 320.814545 227.98111 
L 321.687273 238.147231 
L 322.56 231.957763 
L 323.432727 238.371719 
L 324.305455 238.179301 
L 325.178182 222.08027 
L 326.050909 213.068662 
L 326.923636 207.552659 
L 327.796364 205.500193 
L 328.669091 211.558175 
L 329.541818 200.272819 
L 330.414545 200.529377 
L 331.287273 200.497307 
L 333.032727 191.902606 
L 333.905455 191.581908 
L 334.778182 197.578957 
L 335.650909 188.054232 
L 336.523636 181.896834 
L 337.396364 188.471139 
L 338.269091 191.549838 
L 339.141818 176.893948 
L 340.014545 170.993108 
L 340.887273 170.351713 
L 341.76 173.173853 
L 342.632727 171.666574 
L 343.505455 167.978549 
L 344.378182 172.21176 
L 345.250909 167.689921 
L 346.123636 166.503339 
L 346.996364 163.681198 
L 347.869091 161.660802 
L 348.741818 178.529507 
L 349.614545 178.753995 
L 350.487273 187.156278 
L 351.36 175.643227 
L 352.232727 172.340039 
L 353.105455 171.762783 
L 353.978182 166.727827 
L 354.850909 163.584989 
L 356.596364 156.04859 
L 357.469091 153.450938 
L 358.341818 152.007798 
L 359.214545 149.891192 
L 360.087273 145.914539 
L 360.96 147.646307 
L 361.832727 158.99901 
L 362.705455 163.745338 
L 363.578182 182.47409 
L 364.450909 183.628602 
L 365.323636 190.209321 
L 366.196364 177.791902 
L 367.069091 170.383782 
L 367.941818 180.036787 
L 368.814545 192.83263 
L 369.687273 177.439134 
L 370.56 179.459531 
L 371.432727 167.78613 
L 372.305455 163.071872 
L 373.178182 161.821151 
L 374.050909 174.135947 
L 375.796364 184.109649 
L 376.669091 173.237993 
L 378.414545 160.53836 
L 379.287273 158.389684 
L 380.16 160.378011 
L 381.032727 151.751239 
L 382.778182 147.101121 
L 383.650909 148.351843 
L 384.523636 139.051606 
L 385.396364 145.369674 
L 386.269091 146.748354 
L 387.141818 150.500518 
L 388.014545 140.590956 
L 388.887273 138.185722 
L 389.76 137.351908 
L 391.505455 132.028324 
L 392.378182 132.701789 
L 393.250909 126.191624 
L 394.123636 121.926343 
L 394.996364 125.005042 
L 395.869091 116.185852 
L 396.741818 112.145059 
L 397.614545 114.454084 
L 398.487273 113.620269 
L 398.487273 113.620269 
" style="fill:none;stroke:#ff7f0e;stroke-linecap:square;stroke-width:1.5;"/>
   </g>
   <g id="patch_3">
    <path d="M 57.6 307.584 
L 57.6 41.472 
" style="fill:none;stroke:#000000;stroke-linecap:square;stroke-linejoin:miter;stroke-width:0.8;"/>
   </g>
   <g id="patch_4">
    <path d="M 414.72 307.584 
L 414.72 41.472 
" style="fill:none;stroke:#000000;stroke-linecap:square;stroke-linejoin:miter;stroke-width:0.8;"/>
   </g>
   <g id="patch_5">
    <path d="M 57.6 307.584 
L 414.72 307.584 
" style="fill:none;stroke:#000000;stroke-linecap:square;stroke-linejoin:miter;stroke-width:0.8;"/>
   </g>
   <g id="patch_6">
    <path d="M 57.6 41.472 
L 414.72 41.472 
" style="fill:none;stroke:#000000;stroke-linecap:square;stroke-linejoin:miter;stroke-width:0.8;"/>
   </g>
   <g id="legend_1">
    <g id="patch_7">
     <path d="M 328.03875 78.82825 
L 407.72 78.82825 
Q 409.72 78.82825 409.72 76.82825 
L 409.72 48.472 
Q 409.72 46.472 407.72 46.472 
L 328.03875 46.472 
Q 326.03875 46.472 326.03875 48.472 
L 326.03875 76.82825 
Q 326.03875 78.82825 328.03875 78.82825 
z
" style="fill:#ffffff;opacity:0.8;stroke:#cccccc;stroke-linejoin:miter;"/>
    </g>
    <g id="line2d_19">
     <path d="M 330.03875 54.570437 
L 350.03875 54.570437 
" style="fill:none;stroke:#1f77b4;stroke-linecap:square;stroke-width:1.5;"/>
    </g>
    <g id="line2d_20"/>
    <g id="text_17">
     <!-- DJIAClose -->
     <defs>
      <path d="M 19.671875 64.796875 
L 19.671875 8.109375 
L 31.59375 8.109375 
Q 46.6875 8.109375 53.6875 14.9375 
Q 60.6875 21.78125 60.6875 36.53125 
Q 60.6875 51.171875 53.6875 57.984375 
Q 46.6875 64.796875 31.59375 64.796875 
z
M 9.8125 72.90625 
L 30.078125 72.90625 
Q 51.265625 72.90625 61.171875 64.09375 
Q 71.09375 55.28125 71.09375 36.53125 
Q 71.09375 17.671875 61.125 8.828125 
Q 51.171875 0 30.078125 0 
L 9.8125 0 
z
" id="DejaVuSans-68"/>
      <path d="M 9.8125 72.90625 
L 19.671875 72.90625 
L 19.671875 5.078125 
Q 19.671875 -8.109375 14.671875 -14.0625 
Q 9.671875 -20.015625 -1.421875 -20.015625 
L -5.171875 -20.015625 
L -5.171875 -11.71875 
L -2.09375 -11.71875 
Q 4.4375 -11.71875 7.125 -8.046875 
Q 9.8125 -4.390625 9.8125 5.078125 
z
" id="DejaVuSans-74"/>
      <path d="M 9.8125 72.90625 
L 19.671875 72.90625 
L 19.671875 0 
L 9.8125 0 
z
" id="DejaVuSans-73"/>
      <path d="M 34.1875 63.1875 
L 20.796875 26.90625 
L 47.609375 26.90625 
z
M 28.609375 72.90625 
L 39.796875 72.90625 
L 67.578125 0 
L 57.328125 0 
L 50.6875 18.703125 
L 17.828125 18.703125 
L 11.1875 0 
L 0.78125 0 
z
" id="DejaVuSans-65"/>
      <path d="M 64.40625 67.28125 
L 64.40625 56.890625 
Q 59.421875 61.53125 53.78125 63.8125 
Q 48.140625 66.109375 41.796875 66.109375 
Q 29.296875 66.109375 22.65625 58.46875 
Q 16.015625 50.828125 16.015625 36.375 
Q 16.015625 21.96875 22.65625 14.328125 
Q 29.296875 6.6875 41.796875 6.6875 
Q 48.140625 6.6875 53.78125 8.984375 
Q 59.421875 11.28125 64.40625 15.921875 
L 64.40625 5.609375 
Q 59.234375 2.09375 53.4375 0.328125 
Q 47.65625 -1.421875 41.21875 -1.421875 
Q 24.65625 -1.421875 15.125 8.703125 
Q 5.609375 18.84375 5.609375 36.375 
Q 5.609375 53.953125 15.125 64.078125 
Q 24.65625 74.21875 41.21875 74.21875 
Q 47.75 74.21875 53.53125 72.484375 
Q 59.328125 70.75 64.40625 67.28125 
z
" id="DejaVuSans-67"/>
      <path d="M 9.421875 75.984375 
L 18.40625 75.984375 
L 18.40625 0 
L 9.421875 0 
z
" id="DejaVuSans-108"/>
      <path d="M 30.609375 48.390625 
Q 23.390625 48.390625 19.1875 42.75 
Q 14.984375 37.109375 14.984375 27.296875 
Q 14.984375 17.484375 19.15625 11.84375 
Q 23.34375 6.203125 30.609375 6.203125 
Q 37.796875 6.203125 41.984375 11.859375 
Q 46.1875 17.53125 46.1875 27.296875 
Q 46.1875 37.015625 41.984375 42.703125 
Q 37.796875 48.390625 30.609375 48.390625 
z
M 30.609375 56 
Q 42.328125 56 49.015625 48.375 
Q 55.71875 40.765625 55.71875 27.296875 
Q 55.71875 13.875 49.015625 6.21875 
Q 42.328125 -1.421875 30.609375 -1.421875 
Q 18.84375 -1.421875 12.171875 6.21875 
Q 5.515625 13.875 5.515625 27.296875 
Q 5.515625 40.765625 12.171875 48.375 
Q 18.84375 56 30.609375 56 
z
" id="DejaVuSans-111"/>
      <path d="M 44.28125 53.078125 
L 44.28125 44.578125 
Q 40.484375 46.53125 36.375 47.5 
Q 32.28125 48.484375 27.875 48.484375 
Q 21.1875 48.484375 17.84375 46.4375 
Q 14.5 44.390625 14.5 40.28125 
Q 14.5 37.15625 16.890625 35.375 
Q 19.28125 33.59375 26.515625 31.984375 
L 29.59375 31.296875 
Q 39.15625 29.25 43.1875 25.515625 
Q 47.21875 21.78125 47.21875 15.09375 
Q 47.21875 7.46875 41.1875 3.015625 
Q 35.15625 -1.421875 24.609375 -1.421875 
Q 20.21875 -1.421875 15.453125 -0.5625 
Q 10.6875 0.296875 5.421875 2 
L 5.421875 11.28125 
Q 10.40625 8.6875 15.234375 7.390625 
Q 20.0625 6.109375 24.8125 6.109375 
Q 31.15625 6.109375 34.5625 8.28125 
Q 37.984375 10.453125 37.984375 14.40625 
Q 37.984375 18.0625 35.515625 20.015625 
Q 33.0625 21.96875 24.703125 23.78125 
L 21.578125 24.515625 
Q 13.234375 26.265625 9.515625 29.90625 
Q 5.8125 33.546875 5.8125 39.890625 
Q 5.8125 47.609375 11.28125 51.796875 
Q 16.75 56 26.8125 56 
Q 31.78125 56 36.171875 55.265625 
Q 40.578125 54.546875 44.28125 53.078125 
z
" id="DejaVuSans-115"/>
      <path d="M 56.203125 29.59375 
L 56.203125 25.203125 
L 14.890625 25.203125 
Q 15.484375 15.921875 20.484375 11.0625 
Q 25.484375 6.203125 34.421875 6.203125 
Q 39.59375 6.203125 44.453125 7.46875 
Q 49.3125 8.734375 54.109375 11.28125 
L 54.109375 2.78125 
Q 49.265625 0.734375 44.1875 -0.34375 
Q 39.109375 -1.421875 33.890625 -1.421875 
Q 20.796875 -1.421875 13.15625 6.1875 
Q 5.515625 13.8125 5.515625 26.8125 
Q 5.515625 40.234375 12.765625 48.109375 
Q 20.015625 56 32.328125 56 
Q 43.359375 56 49.78125 48.890625 
Q 56.203125 41.796875 56.203125 29.59375 
z
M 47.21875 32.234375 
Q 47.125 39.59375 43.09375 43.984375 
Q 39.0625 48.390625 32.421875 48.390625 
Q 24.90625 48.390625 20.390625 44.140625 
Q 15.875 39.890625 15.1875 32.171875 
z
" id="DejaVuSans-101"/>
     </defs>
     <g transform="translate(358.03875 58.070437)scale(0.1 -0.1)">
      <use xlink:href="#DejaVuSans-68"/>
      <use x="77.001953" xlink:href="#DejaVuSans-74"/>
      <use x="106.494141" xlink:href="#DejaVuSans-73"/>
      <use x="135.986328" xlink:href="#DejaVuSans-65"/>
      <use x="204.378906" xlink:href="#DejaVuSans-67"/>
      <use x="274.203125" xlink:href="#DejaVuSans-108"/>
      <use x="301.986328" xlink:href="#DejaVuSans-111"/>
      <use x="363.167969" xlink:href="#DejaVuSans-115"/>
      <use x="415.267578" xlink:href="#DejaVuSans-101"/>
     </g>
    </g>
    <g id="line2d_21">
     <path d="M 330.03875 69.248562 
L 350.03875 69.248562 
" style="fill:none;stroke:#ff7f0e;stroke-linecap:square;stroke-width:1.5;"/>
    </g>
    <g id="line2d_22"/>
    <g id="text_18">
     <!-- close -->
     <defs>
      <path d="M 48.78125 52.59375 
L 48.78125 44.1875 
Q 44.96875 46.296875 41.140625 47.34375 
Q 37.3125 48.390625 33.40625 48.390625 
Q 24.65625 48.390625 19.8125 42.84375 
Q 14.984375 37.3125 14.984375 27.296875 
Q 14.984375 17.28125 19.8125 11.734375 
Q 24.65625 6.203125 33.40625 6.203125 
Q 37.3125 6.203125 41.140625 7.25 
Q 44.96875 8.296875 48.78125 10.40625 
L 48.78125 2.09375 
Q 45.015625 0.34375 40.984375 -0.53125 
Q 36.96875 -1.421875 32.421875 -1.421875 
Q 20.0625 -1.421875 12.78125 6.34375 
Q 5.515625 14.109375 5.515625 27.296875 
Q 5.515625 40.671875 12.859375 48.328125 
Q 20.21875 56 33.015625 56 
Q 37.15625 56 41.109375 55.140625 
Q 45.0625 54.296875 48.78125 52.59375 
z
" id="DejaVuSans-99"/>
     </defs>
     <g transform="translate(358.03875 72.748562)scale(0.1 -0.1)">
      <use xlink:href="#DejaVuSans-99"/>
      <use x="54.980469" xlink:href="#DejaVuSans-108"/>
      <use x="82.763672" xlink:href="#DejaVuSans-111"/>
      <use x="143.945312" xlink:href="#DejaVuSans-115"/>
      <use x="196.044922" xlink:href="#DejaVuSans-101"/>
     </g>
    </g>
   </g>
  </g>
 </g>
 <defs>
  <clipPath id="p464e17b8d0">
   <rect height="266.112" width="357.12" x="57.6" y="41.472"/>
  </clipPath>
 </defs>
</svg>
