<?xml version="1.0" encoding="utf-8" standalone="no"?>
<!DOCTYPE svg PUBLIC "-//W3C//DTD SVG 1.1//EN"
  "http://www.w3.org/Graphics/SVG/1.1/DTD/svg11.dtd">
<!-- Created with matplotlib (https://matplotlib.org/) -->
<svg height="345.6pt" version="1.1" viewBox="0 0 460.8 345.6" width="460.8pt" xmlns="http://www.w3.org/2000/svg" xmlns:xlink="http://www.w3.org/1999/xlink">
 <defs>
  <style type="text/css">
*{stroke-linecap:butt;stroke-linejoin:round;}
  </style>
 </defs>
 <g id="figure_1">
  <g id="patch_1">
   <path d="M 0 345.6 
L 460.8 345.6 
L 460.8 0 
L 0 0 
z
" style="fill:#ffffff;"/>
  </g>
  <g id="axes_1">
   <g id="patch_2">
    <path d="M 57.6 276.48 
L 414.72 276.48 
L 414.72 41.472 
L 57.6 41.472 
z
" style="fill:#ffffff;"/>
   </g>
   <g id="matplotlib.axis_1">
    <g id="xtick_1">
     <g id="line2d_1">
      <defs>
       <path d="M 0 0 
L 0 3.5 
" id="m495274cd0a" style="stroke:#000000;stroke-width:0.8;"/>
      </defs>
      <g>
       <use style="stroke:#000000;stroke-width:0.8;" x="72.930909" xlink:href="#m495274cd0a" y="276.48"/>
      </g>
     </g>
     <g id="text_1">
      <!-- 2018-01 -->
      <defs>
       <path d="M 19.1875 8.296875 
L 53.609375 8.296875 
L 53.609375 0 
L 7.328125 0 
L 7.328125 8.296875 
Q 12.9375 14.109375 22.625 23.890625 
Q 32.328125 33.6875 34.8125 36.53125 
Q 39.546875 41.84375 41.421875 45.53125 
Q 43.3125 49.21875 43.3125 52.78125 
Q 43.3125 58.59375 39.234375 62.25 
Q 35.15625 65.921875 28.609375 65.921875 
Q 23.96875 65.921875 18.8125 64.3125 
Q 13.671875 62.703125 7.8125 59.421875 
L 7.8125 69.390625 
Q 13.765625 71.78125 18.9375 73 
Q 24.125 74.21875 28.421875 74.21875 
Q 39.75 74.21875 46.484375 68.546875 
Q 53.21875 62.890625 53.21875 53.421875 
Q 53.21875 48.921875 51.53125 44.890625 
Q 49.859375 40.875 45.40625 35.40625 
Q 44.1875 33.984375 37.640625 27.21875 
Q 31.109375 20.453125 19.1875 8.296875 
z
" id="DejaVuSans-50"/>
       <path d="M 31.78125 66.40625 
Q 24.171875 66.40625 20.328125 58.90625 
Q 16.5 51.421875 16.5 36.375 
Q 16.5 21.390625 20.328125 13.890625 
Q 24.171875 6.390625 31.78125 6.390625 
Q 39.453125 6.390625 43.28125 13.890625 
Q 47.125 21.390625 47.125 36.375 
Q 47.125 51.421875 43.28125 58.90625 
Q 39.453125 66.40625 31.78125 66.40625 
z
M 31.78125 74.21875 
Q 44.046875 74.21875 50.515625 64.515625 
Q 56.984375 54.828125 56.984375 36.375 
Q 56.984375 17.96875 50.515625 8.265625 
Q 44.046875 -1.421875 31.78125 -1.421875 
Q 19.53125 -1.421875 13.0625 8.265625 
Q 6.59375 17.96875 6.59375 36.375 
Q 6.59375 54.828125 13.0625 64.515625 
Q 19.53125 74.21875 31.78125 74.21875 
z
" id="DejaVuSans-48"/>
       <path d="M 12.40625 8.296875 
L 28.515625 8.296875 
L 28.515625 63.921875 
L 10.984375 60.40625 
L 10.984375 69.390625 
L 28.421875 72.90625 
L 38.28125 72.90625 
L 38.28125 8.296875 
L 54.390625 8.296875 
L 54.390625 0 
L 12.40625 0 
z
" id="DejaVuSans-49"/>
       <path d="M 31.78125 34.625 
Q 24.75 34.625 20.71875 30.859375 
Q 16.703125 27.09375 16.703125 20.515625 
Q 16.703125 13.921875 20.71875 10.15625 
Q 24.75 6.390625 31.78125 6.390625 
Q 38.8125 6.390625 42.859375 10.171875 
Q 46.921875 13.96875 46.921875 20.515625 
Q 46.921875 27.09375 42.890625 30.859375 
Q 38.875 34.625 31.78125 34.625 
z
M 21.921875 38.8125 
Q 15.578125 40.375 12.03125 44.71875 
Q 8.5 49.078125 8.5 55.328125 
Q 8.5 64.0625 14.71875 69.140625 
Q 20.953125 74.21875 31.78125 74.21875 
Q 42.671875 74.21875 48.875 69.140625 
Q 55.078125 64.0625 55.078125 55.328125 
Q 55.078125 49.078125 51.53125 44.71875 
Q 48 40.375 41.703125 38.8125 
Q 48.828125 37.15625 52.796875 32.3125 
Q 56.78125 27.484375 56.78125 20.515625 
Q 56.78125 9.90625 50.3125 4.234375 
Q 43.84375 -1.421875 31.78125 -1.421875 
Q 19.734375 -1.421875 13.25 4.234375 
Q 6.78125 9.90625 6.78125 20.515625 
Q 6.78125 27.484375 10.78125 32.3125 
Q 14.796875 37.15625 21.921875 38.8125 
z
M 18.3125 54.390625 
Q 18.3125 48.734375 21.84375 45.5625 
Q 25.390625 42.390625 31.78125 42.390625 
Q 38.140625 42.390625 41.71875 45.5625 
Q 45.3125 48.734375 45.3125 54.390625 
Q 45.3125 60.0625 41.71875 63.234375 
Q 38.140625 66.40625 31.78125 66.40625 
Q 25.390625 66.40625 21.84375 63.234375 
Q 18.3125 60.0625 18.3125 54.390625 
z
" id="DejaVuSans-56"/>
       <path d="M 4.890625 31.390625 
L 31.203125 31.390625 
L 31.203125 23.390625 
L 4.890625 23.390625 
z
" id="DejaVuSans-45"/>
      </defs>
      <g transform="translate(35.706088 310.951846)rotate(-30)scale(0.1 -0.1)">
       <use xlink:href="#DejaVuSans-50"/>
       <use x="63.623047" xlink:href="#DejaVuSans-48"/>
       <use x="127.246094" xlink:href="#DejaVuSans-49"/>
       <use x="190.869141" xlink:href="#DejaVuSans-56"/>
       <use x="254.492188" xlink:href="#DejaVuSans-45"/>
       <use x="290.576172" xlink:href="#DejaVuSans-48"/>
       <use x="354.199219" xlink:href="#DejaVuSans-49"/>
      </g>
     </g>
    </g>
    <g id="xtick_2">
     <g id="line2d_2">
      <g>
       <use style="stroke:#000000;stroke-width:0.8;" x="126.138182" xlink:href="#m495274cd0a" y="276.48"/>
      </g>
     </g>
     <g id="text_2">
      <!-- 2018-03 -->
      <defs>
       <path d="M 40.578125 39.3125 
Q 47.65625 37.796875 51.625 33 
Q 55.609375 28.21875 55.609375 21.1875 
Q 55.609375 10.40625 48.1875 4.484375 
Q 40.765625 -1.421875 27.09375 -1.421875 
Q 22.515625 -1.421875 17.65625 -0.515625 
Q 12.796875 0.390625 7.625 2.203125 
L 7.625 11.71875 
Q 11.71875 9.328125 16.59375 8.109375 
Q 21.484375 6.890625 26.8125 6.890625 
Q 36.078125 6.890625 40.9375 10.546875 
Q 45.796875 14.203125 45.796875 21.1875 
Q 45.796875 27.640625 41.28125 31.265625 
Q 36.765625 34.90625 28.71875 34.90625 
L 20.21875 34.90625 
L 20.21875 43.015625 
L 29.109375 43.015625 
Q 36.375 43.015625 40.234375 45.921875 
Q 44.09375 48.828125 44.09375 54.296875 
Q 44.09375 59.90625 40.109375 62.90625 
Q 36.140625 65.921875 28.71875 65.921875 
Q 24.65625 65.921875 20.015625 65.03125 
Q 15.375 64.15625 9.8125 62.3125 
L 9.8125 71.09375 
Q 15.4375 72.65625 20.34375 73.4375 
Q 25.25 74.21875 29.59375 74.21875 
Q 40.828125 74.21875 47.359375 69.109375 
Q 53.90625 64.015625 53.90625 55.328125 
Q 53.90625 49.265625 50.4375 45.09375 
Q 46.96875 40.921875 40.578125 39.3125 
z
" id="DejaVuSans-51"/>
      </defs>
      <g transform="translate(88.913361 310.951846)rotate(-30)scale(0.1 -0.1)">
       <use xlink:href="#DejaVuSans-50"/>
       <use x="63.623047" xlink:href="#DejaVuSans-48"/>
       <use x="127.246094" xlink:href="#DejaVuSans-49"/>
       <use x="190.869141" xlink:href="#DejaVuSans-56"/>
       <use x="254.492188" xlink:href="#DejaVuSans-45"/>
       <use x="290.576172" xlink:href="#DejaVuSans-48"/>
       <use x="354.199219" xlink:href="#DejaVuSans-51"/>
      </g>
     </g>
    </g>
    <g id="xtick_3">
     <g id="line2d_3">
      <g>
       <use style="stroke:#000000;stroke-width:0.8;" x="181.149091" xlink:href="#m495274cd0a" y="276.48"/>
      </g>
     </g>
     <g id="text_3">
      <!-- 2018-05 -->
      <defs>
       <path d="M 10.796875 72.90625 
L 49.515625 72.90625 
L 49.515625 64.59375 
L 19.828125 64.59375 
L 19.828125 46.734375 
Q 21.96875 47.46875 24.109375 47.828125 
Q 26.265625 48.1875 28.421875 48.1875 
Q 40.625 48.1875 47.75 41.5 
Q 54.890625 34.8125 54.890625 23.390625 
Q 54.890625 11.625 47.5625 5.09375 
Q 40.234375 -1.421875 26.90625 -1.421875 
Q 22.3125 -1.421875 17.546875 -0.640625 
Q 12.796875 0.140625 7.71875 1.703125 
L 7.71875 11.625 
Q 12.109375 9.234375 16.796875 8.0625 
Q 21.484375 6.890625 26.703125 6.890625 
Q 35.15625 6.890625 40.078125 11.328125 
Q 45.015625 15.765625 45.015625 23.390625 
Q 45.015625 31 40.078125 35.4375 
Q 35.15625 39.890625 26.703125 39.890625 
Q 22.75 39.890625 18.8125 39.015625 
Q 14.890625 38.140625 10.796875 36.28125 
z
" id="DejaVuSans-53"/>
      </defs>
      <g transform="translate(143.92427 310.951846)rotate(-30)scale(0.1 -0.1)">
       <use xlink:href="#DejaVuSans-50"/>
       <use x="63.623047" xlink:href="#DejaVuSans-48"/>
       <use x="127.246094" xlink:href="#DejaVuSans-49"/>
       <use x="190.869141" xlink:href="#DejaVuSans-56"/>
       <use x="254.492188" xlink:href="#DejaVuSans-45"/>
       <use x="290.576172" xlink:href="#DejaVuSans-48"/>
       <use x="354.199219" xlink:href="#DejaVuSans-53"/>
      </g>
     </g>
    </g>
    <g id="xtick_4">
     <g id="line2d_4">
      <g>
       <use style="stroke:#000000;stroke-width:0.8;" x="236.16" xlink:href="#m495274cd0a" y="276.48"/>
      </g>
     </g>
     <g id="text_4">
      <!-- 2018-07 -->
      <defs>
       <path d="M 8.203125 72.90625 
L 55.078125 72.90625 
L 55.078125 68.703125 
L 28.609375 0 
L 18.3125 0 
L 43.21875 64.59375 
L 8.203125 64.59375 
z
" id="DejaVuSans-55"/>
      </defs>
      <g transform="translate(198.935179 310.951846)rotate(-30)scale(0.1 -0.1)">
       <use xlink:href="#DejaVuSans-50"/>
       <use x="63.623047" xlink:href="#DejaVuSans-48"/>
       <use x="127.246094" xlink:href="#DejaVuSans-49"/>
       <use x="190.869141" xlink:href="#DejaVuSans-56"/>
       <use x="254.492188" xlink:href="#DejaVuSans-45"/>
       <use x="290.576172" xlink:href="#DejaVuSans-48"/>
       <use x="354.199219" xlink:href="#DejaVuSans-55"/>
      </g>
     </g>
    </g>
    <g id="xtick_5">
     <g id="line2d_5">
      <g>
       <use style="stroke:#000000;stroke-width:0.8;" x="292.072727" xlink:href="#m495274cd0a" y="276.48"/>
      </g>
     </g>
     <g id="text_5">
      <!-- 2018-09 -->
      <defs>
       <path d="M 10.984375 1.515625 
L 10.984375 10.5 
Q 14.703125 8.734375 18.5 7.8125 
Q 22.3125 6.890625 25.984375 6.890625 
Q 35.75 6.890625 40.890625 13.453125 
Q 46.046875 20.015625 46.78125 33.40625 
Q 43.953125 29.203125 39.59375 26.953125 
Q 35.25 24.703125 29.984375 24.703125 
Q 19.046875 24.703125 12.671875 31.3125 
Q 6.296875 37.9375 6.296875 49.421875 
Q 6.296875 60.640625 12.9375 67.421875 
Q 19.578125 74.21875 30.609375 74.21875 
Q 43.265625 74.21875 49.921875 64.515625 
Q 56.59375 54.828125 56.59375 36.375 
Q 56.59375 19.140625 48.40625 8.859375 
Q 40.234375 -1.421875 26.421875 -1.421875 
Q 22.703125 -1.421875 18.890625 -0.6875 
Q 15.09375 0.046875 10.984375 1.515625 
z
M 30.609375 32.421875 
Q 37.25 32.421875 41.125 36.953125 
Q 45.015625 41.5 45.015625 49.421875 
Q 45.015625 57.28125 41.125 61.84375 
Q 37.25 66.40625 30.609375 66.40625 
Q 23.96875 66.40625 20.09375 61.84375 
Q 16.21875 57.28125 16.21875 49.421875 
Q 16.21875 41.5 20.09375 36.953125 
Q 23.96875 32.421875 30.609375 32.421875 
z
" id="DejaVuSans-57"/>
      </defs>
      <g transform="translate(254.847906 310.951846)rotate(-30)scale(0.1 -0.1)">
       <use xlink:href="#DejaVuSans-50"/>
       <use x="63.623047" xlink:href="#DejaVuSans-48"/>
       <use x="127.246094" xlink:href="#DejaVuSans-49"/>
       <use x="190.869141" xlink:href="#DejaVuSans-56"/>
       <use x="254.492188" xlink:href="#DejaVuSans-45"/>
       <use x="290.576172" xlink:href="#DejaVuSans-48"/>
       <use x="354.199219" xlink:href="#DejaVuSans-57"/>
      </g>
     </g>
    </g>
    <g id="xtick_6">
     <g id="line2d_6">
      <g>
       <use style="stroke:#000000;stroke-width:0.8;" x="347.083636" xlink:href="#m495274cd0a" y="276.48"/>
      </g>
     </g>
     <g id="text_6">
      <!-- 2018-11 -->
      <g transform="translate(309.858816 310.951846)rotate(-30)scale(0.1 -0.1)">
       <use xlink:href="#DejaVuSans-50"/>
       <use x="63.623047" xlink:href="#DejaVuSans-48"/>
       <use x="127.246094" xlink:href="#DejaVuSans-49"/>
       <use x="190.869141" xlink:href="#DejaVuSans-56"/>
       <use x="254.492188" xlink:href="#DejaVuSans-45"/>
       <use x="290.576172" xlink:href="#DejaVuSans-49"/>
       <use x="354.199219" xlink:href="#DejaVuSans-49"/>
      </g>
     </g>
    </g>
    <g id="xtick_7">
     <g id="line2d_7">
      <g>
       <use style="stroke:#000000;stroke-width:0.8;" x="402.094545" xlink:href="#m495274cd0a" y="276.48"/>
      </g>
     </g>
     <g id="text_7">
      <!-- 2019-01 -->
      <g transform="translate(364.869725 310.951846)rotate(-30)scale(0.1 -0.1)">
       <use xlink:href="#DejaVuSans-50"/>
       <use x="63.623047" xlink:href="#DejaVuSans-48"/>
       <use x="127.246094" xlink:href="#DejaVuSans-49"/>
       <use x="190.869141" xlink:href="#DejaVuSans-57"/>
       <use x="254.492188" xlink:href="#DejaVuSans-45"/>
       <use x="290.576172" xlink:href="#DejaVuSans-48"/>
       <use x="354.199219" xlink:href="#DejaVuSans-49"/>
      </g>
     </g>
    </g>
    <g id="text_8">
     <!-- date -->
     <defs>
      <path d="M 45.40625 46.390625 
L 45.40625 75.984375 
L 54.390625 75.984375 
L 54.390625 0 
L 45.40625 0 
L 45.40625 8.203125 
Q 42.578125 3.328125 38.25 0.953125 
Q 33.9375 -1.421875 27.875 -1.421875 
Q 17.96875 -1.421875 11.734375 6.484375 
Q 5.515625 14.40625 5.515625 27.296875 
Q 5.515625 40.1875 11.734375 48.09375 
Q 17.96875 56 27.875 56 
Q 33.9375 56 38.25 53.625 
Q 42.578125 51.265625 45.40625 46.390625 
z
M 14.796875 27.296875 
Q 14.796875 17.390625 18.875 11.75 
Q 22.953125 6.109375 30.078125 6.109375 
Q 37.203125 6.109375 41.296875 11.75 
Q 45.40625 17.390625 45.40625 27.296875 
Q 45.40625 37.203125 41.296875 42.84375 
Q 37.203125 48.484375 30.078125 48.484375 
Q 22.953125 48.484375 18.875 42.84375 
Q 14.796875 37.203125 14.796875 27.296875 
z
" id="DejaVuSans-100"/>
      <path d="M 34.28125 27.484375 
Q 23.390625 27.484375 19.1875 25 
Q 14.984375 22.515625 14.984375 16.5 
Q 14.984375 11.71875 18.140625 8.90625 
Q 21.296875 6.109375 26.703125 6.109375 
Q 34.1875 6.109375 38.703125 11.40625 
Q 43.21875 16.703125 43.21875 25.484375 
L 43.21875 27.484375 
z
M 52.203125 31.203125 
L 52.203125 0 
L 43.21875 0 
L 43.21875 8.296875 
Q 40.140625 3.328125 35.546875 0.953125 
Q 30.953125 -1.421875 24.3125 -1.421875 
Q 15.921875 -1.421875 10.953125 3.296875 
Q 6 8.015625 6 15.921875 
Q 6 25.140625 12.171875 29.828125 
Q 18.359375 34.515625 30.609375 34.515625 
L 43.21875 34.515625 
L 43.21875 35.40625 
Q 43.21875 41.609375 39.140625 45 
Q 35.0625 48.390625 27.6875 48.390625 
Q 23 48.390625 18.546875 47.265625 
Q 14.109375 46.140625 10.015625 43.890625 
L 10.015625 52.203125 
Q 14.9375 54.109375 19.578125 55.046875 
Q 24.21875 56 28.609375 56 
Q 40.484375 56 46.34375 49.84375 
Q 52.203125 43.703125 52.203125 31.203125 
z
" id="DejaVuSans-97"/>
      <path d="M 18.3125 70.21875 
L 18.3125 54.6875 
L 36.8125 54.6875 
L 36.8125 47.703125 
L 18.3125 47.703125 
L 18.3125 18.015625 
Q 18.3125 11.328125 20.140625 9.421875 
Q 21.96875 7.515625 27.59375 7.515625 
L 36.8125 7.515625 
L 36.8125 0 
L 27.59375 0 
Q 17.1875 0 13.234375 3.875 
Q 9.28125 7.765625 9.28125 18.015625 
L 9.28125 47.703125 
L 2.6875 47.703125 
L 2.6875 54.6875 
L 9.28125 54.6875 
L 9.28125 70.21875 
z
" id="DejaVuSans-116"/>
      <path d="M 56.203125 29.59375 
L 56.203125 25.203125 
L 14.890625 25.203125 
Q 15.484375 15.921875 20.484375 11.0625 
Q 25.484375 6.203125 34.421875 6.203125 
Q 39.59375 6.203125 44.453125 7.46875 
Q 49.3125 8.734375 54.109375 11.28125 
L 54.109375 2.78125 
Q 49.265625 0.734375 44.1875 -0.34375 
Q 39.109375 -1.421875 33.890625 -1.421875 
Q 20.796875 -1.421875 13.15625 6.1875 
Q 5.515625 13.8125 5.515625 26.8125 
Q 5.515625 40.234375 12.765625 48.109375 
Q 20.015625 56 32.328125 56 
Q 43.359375 56 49.78125 48.890625 
Q 56.203125 41.796875 56.203125 29.59375 
z
M 47.21875 32.234375 
Q 47.125 39.59375 43.09375 43.984375 
Q 39.0625 48.390625 32.421875 48.390625 
Q 24.90625 48.390625 20.390625 44.140625 
Q 15.875 39.890625 15.1875 32.171875 
z
" id="DejaVuSans-101"/>
     </defs>
     <g transform="translate(224.885 324.351346)scale(0.1 -0.1)">
      <use xlink:href="#DejaVuSans-100"/>
      <use x="63.476562" xlink:href="#DejaVuSans-97"/>
      <use x="124.755859" xlink:href="#DejaVuSans-116"/>
      <use x="163.964844" xlink:href="#DejaVuSans-101"/>
     </g>
    </g>
   </g>
   <g id="matplotlib.axis_2">
    <g id="ytick_1">
     <g id="line2d_8">
      <defs>
       <path d="M 0 0 
L -3.5 0 
" id="m1fb3601e44" style="stroke:#000000;stroke-width:0.8;"/>
      </defs>
      <g>
       <use style="stroke:#000000;stroke-width:0.8;" x="57.6" xlink:href="#m1fb3601e44" y="252.014358"/>
      </g>
     </g>
     <g id="text_9">
      <!-- 9 -->
      <g transform="translate(44.2375 255.813577)scale(0.1 -0.1)">
       <use xlink:href="#DejaVuSans-57"/>
      </g>
     </g>
    </g>
    <g id="ytick_2">
     <g id="line2d_9">
      <g>
       <use style="stroke:#000000;stroke-width:0.8;" x="57.6" xlink:href="#m1fb3601e44" y="217.555707"/>
      </g>
     </g>
     <g id="text_10">
      <!-- 10 -->
      <g transform="translate(37.875 221.354925)scale(0.1 -0.1)">
       <use xlink:href="#DejaVuSans-49"/>
       <use x="63.623047" xlink:href="#DejaVuSans-48"/>
      </g>
     </g>
    </g>
    <g id="ytick_3">
     <g id="line2d_10">
      <g>
       <use style="stroke:#000000;stroke-width:0.8;" x="57.6" xlink:href="#m1fb3601e44" y="183.097056"/>
      </g>
     </g>
     <g id="text_11">
      <!-- 11 -->
      <g transform="translate(37.875 186.896274)scale(0.1 -0.1)">
       <use xlink:href="#DejaVuSans-49"/>
       <use x="63.623047" xlink:href="#DejaVuSans-49"/>
      </g>
     </g>
    </g>
    <g id="ytick_4">
     <g id="line2d_11">
      <g>
       <use style="stroke:#000000;stroke-width:0.8;" x="57.6" xlink:href="#m1fb3601e44" y="148.638405"/>
      </g>
     </g>
     <g id="text_12">
      <!-- 12 -->
      <g transform="translate(37.875 152.437623)scale(0.1 -0.1)">
       <use xlink:href="#DejaVuSans-49"/>
       <use x="63.623047" xlink:href="#DejaVuSans-50"/>
      </g>
     </g>
    </g>
    <g id="ytick_5">
     <g id="line2d_12">
      <g>
       <use style="stroke:#000000;stroke-width:0.8;" x="57.6" xlink:href="#m1fb3601e44" y="114.179754"/>
      </g>
     </g>
     <g id="text_13">
      <!-- 13 -->
      <g transform="translate(37.875 117.978972)scale(0.1 -0.1)">
       <use xlink:href="#DejaVuSans-49"/>
       <use x="63.623047" xlink:href="#DejaVuSans-51"/>
      </g>
     </g>
    </g>
    <g id="ytick_6">
     <g id="line2d_13">
      <g>
       <use style="stroke:#000000;stroke-width:0.8;" x="57.6" xlink:href="#m1fb3601e44" y="79.721103"/>
      </g>
     </g>
     <g id="text_14">
      <!-- 14 -->
      <defs>
       <path d="M 37.796875 64.3125 
L 12.890625 25.390625 
L 37.796875 25.390625 
z
M 35.203125 72.90625 
L 47.609375 72.90625 
L 47.609375 25.390625 
L 58.015625 25.390625 
L 58.015625 17.1875 
L 47.609375 17.1875 
L 47.609375 0 
L 37.796875 0 
L 37.796875 17.1875 
L 4.890625 17.1875 
L 4.890625 26.703125 
z
" id="DejaVuSans-52"/>
      </defs>
      <g transform="translate(37.875 83.520321)scale(0.1 -0.1)">
       <use xlink:href="#DejaVuSans-49"/>
       <use x="63.623047" xlink:href="#DejaVuSans-52"/>
      </g>
     </g>
    </g>
    <g id="ytick_7">
     <g id="line2d_14">
      <g>
       <use style="stroke:#000000;stroke-width:0.8;" x="57.6" xlink:href="#m1fb3601e44" y="45.262452"/>
      </g>
     </g>
     <g id="text_15">
      <!-- 15 -->
      <g transform="translate(37.875 49.06167)scale(0.1 -0.1)">
       <use xlink:href="#DejaVuSans-49"/>
       <use x="63.623047" xlink:href="#DejaVuSans-53"/>
      </g>
     </g>
    </g>
   </g>
   <g id="line2d_15">
    <path clip-path="url(#p83fd08bb0e)" d="M 73.832727 90.058698 
L 74.734545 102.808399 
L 75.636364 105.565091 
L 76.538182 103.842158 
L 79.243636 115.5581 
L 80.145455 111.423062 
L 81.047273 97.984188 
L 81.949091 100.396293 
L 82.850909 95.227496 
L 85.556364 72.829372 
L 86.458182 72.829372 
L 87.36 71.795613 
L 88.261818 54.910874 
L 89.163636 52.154182 
L 91.869091 64.559296 
L 92.770909 57.322979 
L 93.672727 57.667566 
L 94.574545 72.829372 
L 95.476364 77.99817 
L 98.181818 88.680352 
L 99.083636 91.78163 
L 99.985455 77.99817 
L 100.887273 78.687343 
L 101.789091 77.99817 
L 104.494545 60.768845 
L 105.396364 79.721103 
L 106.298182 116.936446 
L 107.2 130.030733 
L 108.101818 159.320587 
L 110.807273 158.286827 
L 111.709091 150.705924 
L 112.610909 148.638405 
L 119.825455 132.787425 
L 120.727273 127.618628 
L 123.432727 126.929455 
L 124.334545 138.989982 
L 125.236364 146.915472 
L 126.138182 147.260059 
L 127.04 150.361337 
L 129.745455 153.462616 
L 130.647273 145.19254 
L 131.549091 146.915472 
L 132.450909 144.847953 
L 136.058182 147.604645 
L 136.96 147.949232 
L 137.861818 151.395097 
L 138.763636 158.631413 
L 139.665455 161.043519 
L 142.370909 154.496375 
L 143.272727 154.840962 
L 144.174545 152.08427 
L 145.076364 160.354346 
L 145.978182 171.381114 
L 148.683636 185.509161 
L 149.585455 185.164575 
L 150.487273 186.887507 
L 151.389091 181.374123 
L 152.290909 186.542921 
L 154.996364 193.090065 
L 155.898182 198.258862 
L 156.8 187.57668 
L 161.309091 182.407883 
L 163.112727 154.496375 
L 164.014545 165.178557 
L 164.916364 163.455625 
L 167.621818 179.651191 
L 168.523636 175.860739 
L 169.425455 165.86773 
L 170.327273 166.90149 
L 171.229091 171.036528 
L 173.934545 163.455625 
L 174.836364 153.462616 
L 175.738182 159.665173 
L 176.64 168.624422 
L 177.541818 188.265853 
L 182.050909 187.232094 
L 182.952727 191.711718 
L 183.854545 194.123824 
L 186.56 189.644199 
L 187.461818 182.752469 
L 188.363636 184.130815 
L 189.265455 182.752469 
L 190.167273 182.752469 
L 192.872727 176.894499 
L 193.774545 178.962018 
L 194.676364 186.542921 
L 195.578182 189.299613 
L 196.48 184.475402 
L 199.185455 184.819988 
L 200.087273 187.921267 
L 200.989091 195.157584 
L 201.890909 196.53593 
L 202.792727 197.225103 
L 205.498182 197.225103 
L 206.4 204.461419 
L 207.301818 214.799015 
L 208.203636 211.35315 
L 209.105455 211.008563 
L 211.810909 208.251871 
L 212.712727 208.596457 
L 213.614545 212.731496 
L 214.516364 204.806006 
L 215.418182 213.420669 
L 218.123636 216.177361 
L 219.025455 215.488188 
L 219.927273 219.278639 
L 220.829091 215.143601 
L 221.730909 211.697736 
L 225.338182 222.035331 
L 226.24 220.656985 
L 227.141818 222.379918 
L 228.043636 222.724504 
L 230.749091 236.163378 
L 231.650909 239.609243 
L 232.552727 248.913079 
L 233.454545 254.77105 
L 234.356364 248.913079 
L 237.061818 265.453232 
L 237.963636 263.385713 
L 238.865455 265.453232 
L 239.767273 265.797818 
L 240.669091 263.730299 
L 243.374545 250.980598 
L 244.276364 252.703531 
L 245.178182 259.595261 
L 246.08 256.149396 
L 246.981818 256.149396 
L 249.687273 261.318194 
L 250.589091 261.66278 
L 251.490909 262.351953 
L 252.392727 261.318194 
L 253.294545 248.223906 
L 256 237.541724 
L 257.803636 238.92007 
L 258.705455 243.399695 
L 259.607273 243.399695 
L 262.312727 238.575484 
L 263.214545 237.541724 
L 264.116364 246.84556 
L 265.018182 254.081877 
L 265.92 255.115636 
L 268.625455 254.081877 
L 269.527273 246.156387 
L 270.429091 250.291425 
L 271.330909 242.021349 
L 274.938182 250.291425 
L 275.84 252.014358 
L 276.741818 259.250674 
L 277.643636 259.595261 
L 278.545455 258.561501 
L 281.250909 252.014358 
L 282.152727 244.088868 
L 283.054545 242.021349 
L 283.956364 239.609243 
L 284.858182 216.521947 
L 287.563636 202.738487 
L 288.465455 207.562698 
L 289.367273 208.251871 
L 290.269091 213.420669 
L 291.170909 213.076082 
L 293.876364 211.008563 
L 294.778182 202.738487 
L 295.68 215.832774 
L 296.581818 218.589466 
L 297.483636 217.21112 
L 300.189091 221.690745 
L 301.090909 220.656985 
L 301.992727 221.690745 
L 302.894545 218.934053 
L 303.796364 223.069091 
L 306.501818 228.237889 
L 307.403636 214.799015 
L 308.305455 209.28563 
L 309.207273 209.630217 
L 310.109091 194.468411 
L 313.716364 198.603449 
L 314.618182 193.090065 
L 315.52 192.056305 
L 316.421818 181.374123 
L 325.44 202.049314 
L 326.341818 198.258862 
L 327.243636 202.049314 
L 328.145455 222.379918 
L 329.047273 207.218111 
L 331.752727 213.765255 
L 332.654545 204.806006 
L 333.556364 206.184352 
L 334.458182 214.454428 
L 335.36 191.367132 
L 338.065455 177.928258 
L 338.967273 188.61044 
L 339.869091 181.71871 
L 340.770909 173.104047 
L 341.672727 176.894499 
L 344.378182 191.711718 
L 345.28 186.542921 
L 346.181818 186.198334 
L 347.083636 188.955026 
L 347.985455 179.995777 
L 350.690909 185.853748 
L 351.592727 188.61044 
L 352.494545 189.644199 
L 353.396364 186.887507 
L 354.298182 198.603449 
L 357.003636 198.258862 
L 357.905455 198.948035 
L 358.807273 202.3939 
L 359.709091 196.191343 
L 360.610909 197.914276 
L 363.316364 188.265853 
L 364.218182 197.914276 
L 365.12 196.53593 
L 366.021818 198.603449 
L 366.923636 206.528938 
L 369.629091 205.839765 
L 370.530909 211.35315 
L 371.432727 207.907284 
L 372.334545 210.663977 
L 373.236364 205.150592 
L 375.941818 197.225103 
L 376.843636 197.225103 
L 377.745455 202.049314 
L 378.647273 208.941044 
L 379.549091 207.907284 
L 382.254545 211.697736 
L 383.156364 209.630217 
L 384.058182 209.28563 
L 384.96 204.116833 
L 385.861818 211.697736 
L 388.567273 207.562698 
L 390.370909 219.623226 
L 391.272727 227.548716 
L 392.174545 236.507965 
L 394.88 237.541724 
L 395.781818 240.298416 
L 396.683636 241.676762 
L 397.585455 242.365935 
L 398.487273 238.92007 
L 398.487273 238.92007 
" style="fill:none;stroke:#1f77b4;stroke-linecap:square;stroke-width:1.5;"/>
   </g>
   <g id="line2d_16">
    <path clip-path="url(#p83fd08bb0e)" d="M 73.832727 90.058698 
L 74.734545 96.433548 
L 75.636364 99.477396 
L 76.538182 100.568587 
L 79.243636 103.566489 
L 80.145455 104.875918 
L 81.047273 103.891385 
L 81.949091 103.454499 
L 82.850909 102.540387 
L 85.556364 99.569286 
L 87.36 95.026487 
L 89.163636 89.098778 
L 91.869091 87.462813 
L 93.672727 83.93722 
L 94.574545 83.320117 
L 95.476364 83.040015 
L 98.181818 83.322032 
L 99.083636 83.72487 
L 104.494545 82.146992 
L 105.396364 82.053688 
L 106.298182 83.345642 
L 107.2 85.012967 
L 108.101818 87.575299 
L 110.807273 89.93235 
L 112.610909 93.666088 
L 119.825455 94.851583 
L 120.727273 95.81532 
L 123.432727 96.704295 
L 125.236364 99.20421 
L 127.04 101.748133 
L 129.745455 103.040995 
L 132.450909 106.013855 
L 133.352727 106.912111 
L 136.058182 107.816389 
L 137.861818 109.597486 
L 139.665455 111.648098 
L 142.370909 112.505063 
L 145.076364 114.953448 
L 145.978182 115.998405 
L 148.683636 117.262237 
L 151.389091 120.73878 
L 152.290909 121.854104 
L 154.996364 123.04137 
L 155.898182 124.274444 
L 156.8 125.295448 
L 161.309091 126.201994 
L 162.210909 126.864845 
L 163.112727 127.289945 
L 164.916364 128.395233 
L 167.621818 129.148997 
L 168.523636 129.825979 
L 171.229091 131.413865 
L 173.934545 131.852793 
L 175.738182 132.511756 
L 176.64 132.986923 
L 177.541818 133.704831 
L 182.050909 134.391078 
L 183.854545 135.854245 
L 186.56 136.518319 
L 190.167273 138.710259 
L 192.872727 139.154262 
L 194.676364 140.14513 
L 196.48 141.18385 
L 199.185455 141.663368 
L 200.989091 142.735971 
L 202.792727 143.875856 
L 205.498182 144.431578 
L 207.301818 145.762162 
L 209.105455 147.070536 
L 211.810909 147.676292 
L 215.418182 150.046287 
L 218.123636 150.670165 
L 221.730909 153.024051 
L 225.338182 153.645774 
L 228.043636 155.442477 
L 230.749091 156.144398 
L 232.552727 157.650667 
L 234.356364 159.233716 
L 237.061818 160.118879 
L 240.669091 163.488972 
L 243.374545 164.188905 
L 246.981818 167.040393 
L 249.687273 167.765607 
L 252.392727 169.886179 
L 253.294545 170.470789 
L 256 170.967611 
L 259.607273 172.982574 
L 262.312727 173.451095 
L 264.116364 174.4193 
L 265.92 175.532903 
L 268.625455 176.07462 
L 272.232727 177.942134 
L 274.938182 178.424463 
L 278.545455 180.474618 
L 281.250909 180.936165 
L 283.956364 182.093829 
L 284.858182 182.310358 
L 287.563636 182.438034 
L 291.170909 183.124371 
L 294.778182 183.410505 
L 297.483636 184.010516 
L 300.189091 184.232164 
L 303.796364 185.079418 
L 307.403636 185.493498 
L 310.109091 185.811396 
L 327.243636 186.170545 
L 329.047273 186.475103 
L 333.556364 186.817147 
L 334.458182 186.961091 
L 335.36 186.98392 
L 351.592727 186.8001 
L 357.905455 186.982679 
L 360.610909 187.149587 
L 365.12 187.248047 
L 372.334545 187.776913 
L 373.236364 187.854822 
L 377.745455 188.000552 
L 379.549091 188.179707 
L 383.156364 188.375222 
L 385.861818 188.632624 
L 389.469091 188.818658 
L 396.683636 189.940172 
L 398.487273 190.357479 
L 398.487273 190.357479 
" style="fill:none;stroke:#ff7f0e;stroke-linecap:square;stroke-width:1.5;"/>
   </g>
   <g id="patch_3">
    <path d="M 57.6 276.48 
L 57.6 41.472 
" style="fill:none;stroke:#000000;stroke-linecap:square;stroke-linejoin:miter;stroke-width:0.8;"/>
   </g>
   <g id="patch_4">
    <path d="M 414.72 276.48 
L 414.72 41.472 
" style="fill:none;stroke:#000000;stroke-linecap:square;stroke-linejoin:miter;stroke-width:0.8;"/>
   </g>
   <g id="patch_5">
    <path d="M 57.6 276.48 
L 414.72 276.48 
" style="fill:none;stroke:#000000;stroke-linecap:square;stroke-linejoin:miter;stroke-width:0.8;"/>
   </g>
   <g id="patch_6">
    <path d="M 57.6 41.472 
L 414.72 41.472 
" style="fill:none;stroke:#000000;stroke-linecap:square;stroke-linejoin:miter;stroke-width:0.8;"/>
   </g>
  </g>
 </g>
 <defs>
  <clipPath id="p83fd08bb0e">
   <rect height="235.008" width="357.12" x="57.6" y="41.472"/>
  </clipPath>
 </defs>
</svg>
