<?xml version="1.0" encoding="utf-8" standalone="no"?>
<!DOCTYPE svg PUBLIC "-//W3C//DTD SVG 1.1//EN"
  "http://www.w3.org/Graphics/SVG/1.1/DTD/svg11.dtd">
<!-- Created with matplotlib (https://matplotlib.org/) -->
<svg height="288pt" version="1.1" viewBox="0 0 432 288" width="432pt" xmlns="http://www.w3.org/2000/svg" xmlns:xlink="http://www.w3.org/1999/xlink">
 <defs>
  <style type="text/css">
*{stroke-linecap:butt;stroke-linejoin:round;}
  </style>
 </defs>
 <g id="figure_1">
  <g id="patch_1">
   <path d="M 0 288 
L 432 288 
L 432 0 
L 0 0 
z
" style="fill:#ffffff;"/>
  </g>
  <g id="axes_1">
   <g id="patch_2">
    <path d="M 54 256.32 
L 388.8 256.32 
L 388.8 34.56 
L 54 34.56 
z
" style="fill:#ffffff;"/>
   </g>
   <g id="matplotlib.axis_1">
    <g id="xtick_1">
     <g id="line2d_1">
      <defs>
       <path d="M 0 0 
L 0 3.5 
" id="m0468fed142" style="stroke:#000000;stroke-width:0.8;"/>
      </defs>
      <g>
       <use style="stroke:#000000;stroke-width:0.8;" x="68.166234" xlink:href="#m0468fed142" y="256.32"/>
      </g>
     </g>
     <g id="text_1">
      <!-- 2004 -->
      <defs>
       <path d="M 19.1875 8.296875 
L 53.609375 8.296875 
L 53.609375 0 
L 7.328125 0 
L 7.328125 8.296875 
Q 12.9375 14.109375 22.625 23.890625 
Q 32.328125 33.6875 34.8125 36.53125 
Q 39.546875 41.84375 41.421875 45.53125 
Q 43.3125 49.21875 43.3125 52.78125 
Q 43.3125 58.59375 39.234375 62.25 
Q 35.15625 65.921875 28.609375 65.921875 
Q 23.96875 65.921875 18.8125 64.3125 
Q 13.671875 62.703125 7.8125 59.421875 
L 7.8125 69.390625 
Q 13.765625 71.78125 18.9375 73 
Q 24.125 74.21875 28.421875 74.21875 
Q 39.75 74.21875 46.484375 68.546875 
Q 53.21875 62.890625 53.21875 53.421875 
Q 53.21875 48.921875 51.53125 44.890625 
Q 49.859375 40.875 45.40625 35.40625 
Q 44.1875 33.984375 37.640625 27.21875 
Q 31.109375 20.453125 19.1875 8.296875 
z
" id="DejaVuSans-50"/>
       <path d="M 31.78125 66.40625 
Q 24.171875 66.40625 20.328125 58.90625 
Q 16.5 51.421875 16.5 36.375 
Q 16.5 21.390625 20.328125 13.890625 
Q 24.171875 6.390625 31.78125 6.390625 
Q 39.453125 6.390625 43.28125 13.890625 
Q 47.125 21.390625 47.125 36.375 
Q 47.125 51.421875 43.28125 58.90625 
Q 39.453125 66.40625 31.78125 66.40625 
z
M 31.78125 74.21875 
Q 44.046875 74.21875 50.515625 64.515625 
Q 56.984375 54.828125 56.984375 36.375 
Q 56.984375 17.96875 50.515625 8.265625 
Q 44.046875 -1.421875 31.78125 -1.421875 
Q 19.53125 -1.421875 13.0625 8.265625 
Q 6.59375 17.96875 6.59375 36.375 
Q 6.59375 54.828125 13.0625 64.515625 
Q 19.53125 74.21875 31.78125 74.21875 
z
" id="DejaVuSans-48"/>
       <path d="M 37.796875 64.3125 
L 12.890625 25.390625 
L 37.796875 25.390625 
z
M 35.203125 72.90625 
L 47.609375 72.90625 
L 47.609375 25.390625 
L 58.015625 25.390625 
L 58.015625 17.1875 
L 47.609375 17.1875 
L 47.609375 0 
L 37.796875 0 
L 37.796875 17.1875 
L 4.890625 17.1875 
L 4.890625 26.703125 
z
" id="DejaVuSans-52"/>
      </defs>
      <g transform="translate(55.441234 270.918437)scale(0.1 -0.1)">
       <use xlink:href="#DejaVuSans-50"/>
       <use x="63.623047" xlink:href="#DejaVuSans-48"/>
       <use x="127.246094" xlink:href="#DejaVuSans-48"/>
       <use x="190.869141" xlink:href="#DejaVuSans-52"/>
      </g>
     </g>
    </g>
    <g id="xtick_2">
     <g id="line2d_2">
      <g>
       <use style="stroke:#000000;stroke-width:0.8;" x="110.945455" xlink:href="#m0468fed142" y="256.32"/>
      </g>
     </g>
     <g id="text_2">
      <!-- 2005 -->
      <defs>
       <path d="M 10.796875 72.90625 
L 49.515625 72.90625 
L 49.515625 64.59375 
L 19.828125 64.59375 
L 19.828125 46.734375 
Q 21.96875 47.46875 24.109375 47.828125 
Q 26.265625 48.1875 28.421875 48.1875 
Q 40.625 48.1875 47.75 41.5 
Q 54.890625 34.8125 54.890625 23.390625 
Q 54.890625 11.625 47.5625 5.09375 
Q 40.234375 -1.421875 26.90625 -1.421875 
Q 22.3125 -1.421875 17.546875 -0.640625 
Q 12.796875 0.140625 7.71875 1.703125 
L 7.71875 11.625 
Q 12.109375 9.234375 16.796875 8.0625 
Q 21.484375 6.890625 26.703125 6.890625 
Q 35.15625 6.890625 40.078125 11.328125 
Q 45.015625 15.765625 45.015625 23.390625 
Q 45.015625 31 40.078125 35.4375 
Q 35.15625 39.890625 26.703125 39.890625 
Q 22.75 39.890625 18.8125 39.015625 
Q 14.890625 38.140625 10.796875 36.28125 
z
" id="DejaVuSans-53"/>
      </defs>
      <g transform="translate(98.220455 270.918437)scale(0.1 -0.1)">
       <use xlink:href="#DejaVuSans-50"/>
       <use x="63.623047" xlink:href="#DejaVuSans-48"/>
       <use x="127.246094" xlink:href="#DejaVuSans-48"/>
       <use x="190.869141" xlink:href="#DejaVuSans-53"/>
      </g>
     </g>
    </g>
    <g id="xtick_3">
     <g id="line2d_3">
      <g>
       <use style="stroke:#000000;stroke-width:0.8;" x="153.607792" xlink:href="#m0468fed142" y="256.32"/>
      </g>
     </g>
     <g id="text_3">
      <!-- 2006 -->
      <defs>
       <path d="M 33.015625 40.375 
Q 26.375 40.375 22.484375 35.828125 
Q 18.609375 31.296875 18.609375 23.390625 
Q 18.609375 15.53125 22.484375 10.953125 
Q 26.375 6.390625 33.015625 6.390625 
Q 39.65625 6.390625 43.53125 10.953125 
Q 47.40625 15.53125 47.40625 23.390625 
Q 47.40625 31.296875 43.53125 35.828125 
Q 39.65625 40.375 33.015625 40.375 
z
M 52.59375 71.296875 
L 52.59375 62.3125 
Q 48.875 64.0625 45.09375 64.984375 
Q 41.3125 65.921875 37.59375 65.921875 
Q 27.828125 65.921875 22.671875 59.328125 
Q 17.53125 52.734375 16.796875 39.40625 
Q 19.671875 43.65625 24.015625 45.921875 
Q 28.375 48.1875 33.59375 48.1875 
Q 44.578125 48.1875 50.953125 41.515625 
Q 57.328125 34.859375 57.328125 23.390625 
Q 57.328125 12.15625 50.6875 5.359375 
Q 44.046875 -1.421875 33.015625 -1.421875 
Q 20.359375 -1.421875 13.671875 8.265625 
Q 6.984375 17.96875 6.984375 36.375 
Q 6.984375 53.65625 15.1875 63.9375 
Q 23.390625 74.21875 37.203125 74.21875 
Q 40.921875 74.21875 44.703125 73.484375 
Q 48.484375 72.75 52.59375 71.296875 
z
" id="DejaVuSans-54"/>
      </defs>
      <g transform="translate(140.882792 270.918437)scale(0.1 -0.1)">
       <use xlink:href="#DejaVuSans-50"/>
       <use x="63.623047" xlink:href="#DejaVuSans-48"/>
       <use x="127.246094" xlink:href="#DejaVuSans-48"/>
       <use x="190.869141" xlink:href="#DejaVuSans-54"/>
      </g>
     </g>
    </g>
    <g id="xtick_4">
     <g id="line2d_4">
      <g>
       <use style="stroke:#000000;stroke-width:0.8;" x="196.27013" xlink:href="#m0468fed142" y="256.32"/>
      </g>
     </g>
     <g id="text_4">
      <!-- 2007 -->
      <defs>
       <path d="M 8.203125 72.90625 
L 55.078125 72.90625 
L 55.078125 68.703125 
L 28.609375 0 
L 18.3125 0 
L 43.21875 64.59375 
L 8.203125 64.59375 
z
" id="DejaVuSans-55"/>
      </defs>
      <g transform="translate(183.54513 270.918437)scale(0.1 -0.1)">
       <use xlink:href="#DejaVuSans-50"/>
       <use x="63.623047" xlink:href="#DejaVuSans-48"/>
       <use x="127.246094" xlink:href="#DejaVuSans-48"/>
       <use x="190.869141" xlink:href="#DejaVuSans-55"/>
      </g>
     </g>
    </g>
    <g id="xtick_5">
     <g id="line2d_5">
      <g>
       <use style="stroke:#000000;stroke-width:0.8;" x="238.932468" xlink:href="#m0468fed142" y="256.32"/>
      </g>
     </g>
     <g id="text_5">
      <!-- 2008 -->
      <defs>
       <path d="M 31.78125 34.625 
Q 24.75 34.625 20.71875 30.859375 
Q 16.703125 27.09375 16.703125 20.515625 
Q 16.703125 13.921875 20.71875 10.15625 
Q 24.75 6.390625 31.78125 6.390625 
Q 38.8125 6.390625 42.859375 10.171875 
Q 46.921875 13.96875 46.921875 20.515625 
Q 46.921875 27.09375 42.890625 30.859375 
Q 38.875 34.625 31.78125 34.625 
z
M 21.921875 38.8125 
Q 15.578125 40.375 12.03125 44.71875 
Q 8.5 49.078125 8.5 55.328125 
Q 8.5 64.0625 14.71875 69.140625 
Q 20.953125 74.21875 31.78125 74.21875 
Q 42.671875 74.21875 48.875 69.140625 
Q 55.078125 64.0625 55.078125 55.328125 
Q 55.078125 49.078125 51.53125 44.71875 
Q 48 40.375 41.703125 38.8125 
Q 48.828125 37.15625 52.796875 32.3125 
Q 56.78125 27.484375 56.78125 20.515625 
Q 56.78125 9.90625 50.3125 4.234375 
Q 43.84375 -1.421875 31.78125 -1.421875 
Q 19.734375 -1.421875 13.25 4.234375 
Q 6.78125 9.90625 6.78125 20.515625 
Q 6.78125 27.484375 10.78125 32.3125 
Q 14.796875 37.15625 21.921875 38.8125 
z
M 18.3125 54.390625 
Q 18.3125 48.734375 21.84375 45.5625 
Q 25.390625 42.390625 31.78125 42.390625 
Q 38.140625 42.390625 41.71875 45.5625 
Q 45.3125 48.734375 45.3125 54.390625 
Q 45.3125 60.0625 41.71875 63.234375 
Q 38.140625 66.40625 31.78125 66.40625 
Q 25.390625 66.40625 21.84375 63.234375 
Q 18.3125 60.0625 18.3125 54.390625 
z
" id="DejaVuSans-56"/>
      </defs>
      <g transform="translate(226.207468 270.918437)scale(0.1 -0.1)">
       <use xlink:href="#DejaVuSans-50"/>
       <use x="63.623047" xlink:href="#DejaVuSans-48"/>
       <use x="127.246094" xlink:href="#DejaVuSans-48"/>
       <use x="190.869141" xlink:href="#DejaVuSans-56"/>
      </g>
     </g>
    </g>
    <g id="xtick_6">
     <g id="line2d_6">
      <g>
       <use style="stroke:#000000;stroke-width:0.8;" x="281.711688" xlink:href="#m0468fed142" y="256.32"/>
      </g>
     </g>
     <g id="text_6">
      <!-- 2009 -->
      <defs>
       <path d="M 10.984375 1.515625 
L 10.984375 10.5 
Q 14.703125 8.734375 18.5 7.8125 
Q 22.3125 6.890625 25.984375 6.890625 
Q 35.75 6.890625 40.890625 13.453125 
Q 46.046875 20.015625 46.78125 33.40625 
Q 43.953125 29.203125 39.59375 26.953125 
Q 35.25 24.703125 29.984375 24.703125 
Q 19.046875 24.703125 12.671875 31.3125 
Q 6.296875 37.9375 6.296875 49.421875 
Q 6.296875 60.640625 12.9375 67.421875 
Q 19.578125 74.21875 30.609375 74.21875 
Q 43.265625 74.21875 49.921875 64.515625 
Q 56.59375 54.828125 56.59375 36.375 
Q 56.59375 19.140625 48.40625 8.859375 
Q 40.234375 -1.421875 26.421875 -1.421875 
Q 22.703125 -1.421875 18.890625 -0.6875 
Q 15.09375 0.046875 10.984375 1.515625 
z
M 30.609375 32.421875 
Q 37.25 32.421875 41.125 36.953125 
Q 45.015625 41.5 45.015625 49.421875 
Q 45.015625 57.28125 41.125 61.84375 
Q 37.25 66.40625 30.609375 66.40625 
Q 23.96875 66.40625 20.09375 61.84375 
Q 16.21875 57.28125 16.21875 49.421875 
Q 16.21875 41.5 20.09375 36.953125 
Q 23.96875 32.421875 30.609375 32.421875 
z
" id="DejaVuSans-57"/>
      </defs>
      <g transform="translate(268.986688 270.918437)scale(0.1 -0.1)">
       <use xlink:href="#DejaVuSans-50"/>
       <use x="63.623047" xlink:href="#DejaVuSans-48"/>
       <use x="127.246094" xlink:href="#DejaVuSans-48"/>
       <use x="190.869141" xlink:href="#DejaVuSans-57"/>
      </g>
     </g>
    </g>
    <g id="xtick_7">
     <g id="line2d_7">
      <g>
       <use style="stroke:#000000;stroke-width:0.8;" x="324.374026" xlink:href="#m0468fed142" y="256.32"/>
      </g>
     </g>
     <g id="text_7">
      <!-- 2010 -->
      <defs>
       <path d="M 12.40625 8.296875 
L 28.515625 8.296875 
L 28.515625 63.921875 
L 10.984375 60.40625 
L 10.984375 69.390625 
L 28.421875 72.90625 
L 38.28125 72.90625 
L 38.28125 8.296875 
L 54.390625 8.296875 
L 54.390625 0 
L 12.40625 0 
z
" id="DejaVuSans-49"/>
      </defs>
      <g transform="translate(311.649026 270.918437)scale(0.1 -0.1)">
       <use xlink:href="#DejaVuSans-50"/>
       <use x="63.623047" xlink:href="#DejaVuSans-48"/>
       <use x="127.246094" xlink:href="#DejaVuSans-49"/>
       <use x="190.869141" xlink:href="#DejaVuSans-48"/>
      </g>
     </g>
    </g>
    <g id="xtick_8">
     <g id="line2d_8">
      <g>
       <use style="stroke:#000000;stroke-width:0.8;" x="367.036364" xlink:href="#m0468fed142" y="256.32"/>
      </g>
     </g>
     <g id="text_8">
      <!-- 2011 -->
      <g transform="translate(354.311364 270.918437)scale(0.1 -0.1)">
       <use xlink:href="#DejaVuSans-50"/>
       <use x="63.623047" xlink:href="#DejaVuSans-48"/>
       <use x="127.246094" xlink:href="#DejaVuSans-49"/>
       <use x="190.869141" xlink:href="#DejaVuSans-49"/>
      </g>
     </g>
    </g>
   </g>
   <g id="matplotlib.axis_2">
    <g id="ytick_1">
     <g id="line2d_9">
      <defs>
       <path d="M 0 0 
L -3.5 0 
" id="m2630d5c86f" style="stroke:#000000;stroke-width:0.8;"/>
      </defs>
      <g>
       <use style="stroke:#000000;stroke-width:0.8;" x="54" xlink:href="#m2630d5c86f" y="241.114585"/>
      </g>
     </g>
     <g id="text_9">
      <!-- 0.125 -->
      <defs>
       <path d="M 10.6875 12.40625 
L 21 12.40625 
L 21 0 
L 10.6875 0 
z
" id="DejaVuSans-46"/>
      </defs>
      <g transform="translate(18.371875 244.913804)scale(0.1 -0.1)">
       <use xlink:href="#DejaVuSans-48"/>
       <use x="63.623047" xlink:href="#DejaVuSans-46"/>
       <use x="95.410156" xlink:href="#DejaVuSans-49"/>
       <use x="159.033203" xlink:href="#DejaVuSans-50"/>
       <use x="222.65625" xlink:href="#DejaVuSans-53"/>
      </g>
     </g>
    </g>
    <g id="ytick_2">
     <g id="line2d_10">
      <g>
       <use style="stroke:#000000;stroke-width:0.8;" x="54" xlink:href="#m2630d5c86f" y="215.48751"/>
      </g>
     </g>
     <g id="text_10">
      <!-- 0.150 -->
      <g transform="translate(18.371875 219.286728)scale(0.1 -0.1)">
       <use xlink:href="#DejaVuSans-48"/>
       <use x="63.623047" xlink:href="#DejaVuSans-46"/>
       <use x="95.410156" xlink:href="#DejaVuSans-49"/>
       <use x="159.033203" xlink:href="#DejaVuSans-53"/>
       <use x="222.65625" xlink:href="#DejaVuSans-48"/>
      </g>
     </g>
    </g>
    <g id="ytick_3">
     <g id="line2d_11">
      <g>
       <use style="stroke:#000000;stroke-width:0.8;" x="54" xlink:href="#m2630d5c86f" y="189.860435"/>
      </g>
     </g>
     <g id="text_11">
      <!-- 0.175 -->
      <g transform="translate(18.371875 193.659653)scale(0.1 -0.1)">
       <use xlink:href="#DejaVuSans-48"/>
       <use x="63.623047" xlink:href="#DejaVuSans-46"/>
       <use x="95.410156" xlink:href="#DejaVuSans-49"/>
       <use x="159.033203" xlink:href="#DejaVuSans-55"/>
       <use x="222.65625" xlink:href="#DejaVuSans-53"/>
      </g>
     </g>
    </g>
    <g id="ytick_4">
     <g id="line2d_12">
      <g>
       <use style="stroke:#000000;stroke-width:0.8;" x="54" xlink:href="#m2630d5c86f" y="164.233359"/>
      </g>
     </g>
     <g id="text_12">
      <!-- 0.200 -->
      <g transform="translate(18.371875 168.032578)scale(0.1 -0.1)">
       <use xlink:href="#DejaVuSans-48"/>
       <use x="63.623047" xlink:href="#DejaVuSans-46"/>
       <use x="95.410156" xlink:href="#DejaVuSans-50"/>
       <use x="159.033203" xlink:href="#DejaVuSans-48"/>
       <use x="222.65625" xlink:href="#DejaVuSans-48"/>
      </g>
     </g>
    </g>
    <g id="ytick_5">
     <g id="line2d_13">
      <g>
       <use style="stroke:#000000;stroke-width:0.8;" x="54" xlink:href="#m2630d5c86f" y="138.606284"/>
      </g>
     </g>
     <g id="text_13">
      <!-- 0.225 -->
      <g transform="translate(18.371875 142.405503)scale(0.1 -0.1)">
       <use xlink:href="#DejaVuSans-48"/>
       <use x="63.623047" xlink:href="#DejaVuSans-46"/>
       <use x="95.410156" xlink:href="#DejaVuSans-50"/>
       <use x="159.033203" xlink:href="#DejaVuSans-50"/>
       <use x="222.65625" xlink:href="#DejaVuSans-53"/>
      </g>
     </g>
    </g>
    <g id="ytick_6">
     <g id="line2d_14">
      <g>
       <use style="stroke:#000000;stroke-width:0.8;" x="54" xlink:href="#m2630d5c86f" y="112.979209"/>
      </g>
     </g>
     <g id="text_14">
      <!-- 0.250 -->
      <g transform="translate(18.371875 116.778428)scale(0.1 -0.1)">
       <use xlink:href="#DejaVuSans-48"/>
       <use x="63.623047" xlink:href="#DejaVuSans-46"/>
       <use x="95.410156" xlink:href="#DejaVuSans-50"/>
       <use x="159.033203" xlink:href="#DejaVuSans-53"/>
       <use x="222.65625" xlink:href="#DejaVuSans-48"/>
      </g>
     </g>
    </g>
    <g id="ytick_7">
     <g id="line2d_15">
      <g>
       <use style="stroke:#000000;stroke-width:0.8;" x="54" xlink:href="#m2630d5c86f" y="87.352134"/>
      </g>
     </g>
     <g id="text_15">
      <!-- 0.275 -->
      <g transform="translate(18.371875 91.151352)scale(0.1 -0.1)">
       <use xlink:href="#DejaVuSans-48"/>
       <use x="63.623047" xlink:href="#DejaVuSans-46"/>
       <use x="95.410156" xlink:href="#DejaVuSans-50"/>
       <use x="159.033203" xlink:href="#DejaVuSans-55"/>
       <use x="222.65625" xlink:href="#DejaVuSans-53"/>
      </g>
     </g>
    </g>
    <g id="ytick_8">
     <g id="line2d_16">
      <g>
       <use style="stroke:#000000;stroke-width:0.8;" x="54" xlink:href="#m2630d5c86f" y="61.725058"/>
      </g>
     </g>
     <g id="text_16">
      <!-- 0.300 -->
      <defs>
       <path d="M 40.578125 39.3125 
Q 47.65625 37.796875 51.625 33 
Q 55.609375 28.21875 55.609375 21.1875 
Q 55.609375 10.40625 48.1875 4.484375 
Q 40.765625 -1.421875 27.09375 -1.421875 
Q 22.515625 -1.421875 17.65625 -0.515625 
Q 12.796875 0.390625 7.625 2.203125 
L 7.625 11.71875 
Q 11.71875 9.328125 16.59375 8.109375 
Q 21.484375 6.890625 26.8125 6.890625 
Q 36.078125 6.890625 40.9375 10.546875 
Q 45.796875 14.203125 45.796875 21.1875 
Q 45.796875 27.640625 41.28125 31.265625 
Q 36.765625 34.90625 28.71875 34.90625 
L 20.21875 34.90625 
L 20.21875 43.015625 
L 29.109375 43.015625 
Q 36.375 43.015625 40.234375 45.921875 
Q 44.09375 48.828125 44.09375 54.296875 
Q 44.09375 59.90625 40.109375 62.90625 
Q 36.140625 65.921875 28.71875 65.921875 
Q 24.65625 65.921875 20.015625 65.03125 
Q 15.375 64.15625 9.8125 62.3125 
L 9.8125 71.09375 
Q 15.4375 72.65625 20.34375 73.4375 
Q 25.25 74.21875 29.59375 74.21875 
Q 40.828125 74.21875 47.359375 69.109375 
Q 53.90625 64.015625 53.90625 55.328125 
Q 53.90625 49.265625 50.4375 45.09375 
Q 46.96875 40.921875 40.578125 39.3125 
z
" id="DejaVuSans-51"/>
      </defs>
      <g transform="translate(18.371875 65.524277)scale(0.1 -0.1)">
       <use xlink:href="#DejaVuSans-48"/>
       <use x="63.623047" xlink:href="#DejaVuSans-46"/>
       <use x="95.410156" xlink:href="#DejaVuSans-51"/>
       <use x="159.033203" xlink:href="#DejaVuSans-48"/>
       <use x="222.65625" xlink:href="#DejaVuSans-48"/>
      </g>
     </g>
    </g>
    <g id="ytick_9">
     <g id="line2d_17">
      <g>
       <use style="stroke:#000000;stroke-width:0.8;" x="54" xlink:href="#m2630d5c86f" y="36.097983"/>
      </g>
     </g>
     <g id="text_17">
      <!-- 0.325 -->
      <g transform="translate(18.371875 39.897202)scale(0.1 -0.1)">
       <use xlink:href="#DejaVuSans-48"/>
       <use x="63.623047" xlink:href="#DejaVuSans-46"/>
       <use x="95.410156" xlink:href="#DejaVuSans-51"/>
       <use x="159.033203" xlink:href="#DejaVuSans-50"/>
       <use x="222.65625" xlink:href="#DejaVuSans-53"/>
      </g>
     </g>
    </g>
   </g>
   <g id="line2d_18">
    <path clip-path="url(#p067abdb3e9)" d="M 69.218182 153.982529 
L 70.854545 153.982529 
L 71.672727 150.565928 
L 72.490909 164.233359 
L 73.309091 160.816758 
L 74.127273 164.233359 
L 74.945455 164.233359 
L 75.763636 167.649961 
L 76.581818 167.649961 
L 77.4 171.067588 
L 78.218182 191.569248 
L 79.036364 171.067588 
L 79.854545 184.735019 
L 80.672727 181.318418 
L 81.490909 167.649961 
L 82.309091 164.233359 
L 83.127273 184.735019 
L 83.945455 184.735019 
L 84.763636 191.569248 
L 85.581818 184.735019 
L 86.4 184.735019 
L 87.218182 167.649961 
L 88.036364 181.318418 
L 88.854545 181.318418 
L 89.672727 171.067588 
L 90.490909 188.151621 
L 91.309091 177.900791 
L 92.127273 174.484189 
L 92.945455 164.233359 
L 93.763636 174.484189 
L 94.581818 191.569248 
L 96.218182 184.735019 
L 97.036364 188.151621 
L 97.854545 177.900791 
L 98.672727 177.900791 
L 99.490909 167.649961 
L 100.309091 153.982529 
L 101.127273 164.233359 
L 102.763636 157.399131 
L 103.581818 164.233359 
L 104.4 136.897471 
L 105.218182 150.565928 
L 106.036364 147.148301 
L 106.854545 181.318418 
L 107.672727 157.399131 
L 108.490909 167.649961 
L 109.309091 194.98585 
L 110.127273 232.572568 
L 111.763636 174.484189 
L 112.581818 171.067588 
L 113.4 177.900791 
L 114.218182 167.649961 
L 115.036364 167.649961 
L 115.854545 174.484189 
L 116.672727 184.735019 
L 117.490909 174.484189 
L 119.127273 174.484189 
L 119.945455 184.735019 
L 121.581818 184.735019 
L 122.4 177.900791 
L 123.218182 164.233359 
L 124.036364 174.484189 
L 124.854545 174.484189 
L 125.672727 177.900791 
L 126.490909 184.735019 
L 127.309091 184.735019 
L 128.127273 201.820078 
L 128.945455 201.820078 
L 129.763636 198.402451 
L 130.581818 181.318418 
L 131.4 194.98585 
L 132.218182 191.569248 
L 133.036364 198.402451 
L 133.854545 191.569248 
L 134.672727 188.151621 
L 135.490909 188.151621 
L 136.309091 194.98585 
L 137.945455 201.820078 
L 138.763636 208.653281 
L 139.581818 198.402451 
L 140.4 208.653281 
L 141.218182 184.735019 
L 142.036364 177.900791 
L 142.854545 177.900791 
L 143.672727 184.735019 
L 144.490909 181.318418 
L 145.309091 194.98585 
L 146.127273 194.98585 
L 146.945455 191.569248 
L 147.763636 201.820078 
L 148.581818 188.151621 
L 149.4 225.73834 
L 150.218182 191.569248 
L 151.036364 194.98585 
L 151.854545 205.23668 
L 152.672727 232.572568 
L 153.490909 218.904111 
L 154.309091 184.735019 
L 158.4 184.735019 
L 159.218182 191.569248 
L 160.036364 184.735019 
L 160.854545 184.735019 
L 161.672727 181.318418 
L 162.490909 167.649961 
L 163.309091 174.484189 
L 167.4 174.484189 
L 168.218182 184.735019 
L 169.036364 188.151621 
L 171.490909 208.653281 
L 173.127273 194.98585 
L 173.945455 208.653281 
L 174.763636 205.23668 
L 175.581818 205.23668 
L 176.4 153.982529 
L 177.218182 171.067588 
L 178.036364 184.735019 
L 178.854545 184.735019 
L 179.672727 194.98585 
L 181.309091 194.98585 
L 182.127273 212.070908 
L 182.945455 205.23668 
L 183.763636 201.820078 
L 184.581818 194.98585 
L 185.4 181.318418 
L 186.218182 184.735019 
L 187.036364 184.735019 
L 187.854545 181.318418 
L 188.672727 184.735019 
L 189.490909 181.318418 
L 190.309091 184.735019 
L 191.127273 184.735019 
L 191.945455 212.070908 
L 192.763636 184.735019 
L 193.581818 191.569248 
L 194.4 194.98585 
L 195.218182 225.73834 
L 196.036364 225.73834 
L 196.854545 198.402451 
L 197.672727 188.151621 
L 198.490909 188.151621 
L 199.309091 164.233359 
L 200.945455 184.735019 
L 201.763636 191.569248 
L 202.581818 181.318418 
L 203.4 184.735019 
L 204.218182 177.900791 
L 205.036364 184.735019 
L 205.854545 184.735019 
L 206.672727 177.900791 
L 208.309091 177.900791 
L 209.127273 181.318418 
L 209.945455 167.649961 
L 210.763636 167.649961 
L 211.581818 181.318418 
L 212.4 181.318418 
L 213.218182 191.569248 
L 214.036364 194.98585 
L 214.854545 184.735019 
L 215.672727 181.318418 
L 216.490909 184.735019 
L 217.309091 184.735019 
L 218.127273 201.820078 
L 218.945455 174.484189 
L 219.763636 181.318418 
L 220.581818 174.484189 
L 221.4 177.900791 
L 222.218182 184.735019 
L 223.036364 184.735019 
L 223.854545 191.569248 
L 224.672727 184.735019 
L 225.490909 201.820078 
L 226.309091 184.735019 
L 227.127273 171.067588 
L 227.945455 164.233359 
L 228.763636 164.233359 
L 229.581818 174.484189 
L 230.4 164.233359 
L 231.218182 164.233359 
L 232.036364 153.982529 
L 232.854545 150.565928 
L 233.672727 153.982529 
L 234.490909 191.569248 
L 235.309091 136.897471 
L 236.127273 136.897471 
L 237.763636 194.98585 
L 238.581818 194.98585 
L 240.218182 136.897471 
L 241.854545 136.897471 
L 242.672727 133.480869 
L 243.490909 143.731699 
L 244.309091 157.399131 
L 245.127273 153.982529 
L 245.945455 136.897471 
L 246.763636 143.731699 
L 247.581818 153.982529 
L 248.4 153.982529 
L 249.218182 150.565928 
L 250.036364 153.982529 
L 251.672727 153.982529 
L 254.127273 164.233359 
L 254.945455 174.484189 
L 255.763636 181.318418 
L 256.581818 184.735019 
L 257.4 171.067588 
L 258.218182 174.484189 
L 259.036364 174.484189 
L 259.854545 164.233359 
L 260.672727 184.735019 
L 261.490909 150.565928 
L 262.309091 153.982529 
L 263.127273 164.233359 
L 263.945455 153.982529 
L 264.763636 167.649961 
L 265.581818 174.484189 
L 266.4 164.233359 
L 267.218182 160.816758 
L 268.036364 160.816758 
L 268.854545 136.897471 
L 269.672727 102.728379 
L 270.490909 58.308457 
L 271.309091 78.810117 
L 272.127273 44.64 
L 273.763636 123.230039 
L 274.581818 112.979209 
L 275.4 119.813437 
L 276.218182 99.311777 
L 277.036364 109.562607 
L 277.854545 143.731699 
L 278.672727 109.562607 
L 279.490909 126.646641 
L 280.309091 147.148301 
L 281.127273 194.98585 
L 281.945455 147.148301 
L 282.763636 106.144981 
L 283.581818 123.230039 
L 284.4 126.646641 
L 285.218182 123.230039 
L 286.036364 106.144981 
L 286.854545 112.979209 
L 287.672727 99.311777 
L 288.490909 92.477549 
L 289.309091 109.562607 
L 290.127273 130.064267 
L 290.945455 126.646641 
L 291.763636 112.979209 
L 292.581818 133.480869 
L 293.4 136.897471 
L 294.218182 119.813437 
L 295.036364 133.480869 
L 296.672727 153.982529 
L 297.490909 157.399131 
L 298.309091 153.982529 
L 299.127273 160.816758 
L 299.945455 147.148301 
L 300.763636 153.982529 
L 301.581818 143.731699 
L 302.4 143.731699 
L 303.218182 133.480869 
L 304.854545 133.480869 
L 305.672727 143.731699 
L 306.490909 150.565928 
L 307.309091 140.315097 
L 308.127273 136.897471 
L 308.945455 153.982529 
L 309.763636 119.813437 
L 310.581818 150.565928 
L 311.4 153.982529 
L 312.218182 143.731699 
L 313.036364 147.148301 
L 313.854545 153.982529 
L 314.672727 153.982529 
L 315.490909 133.480869 
L 317.127273 153.982529 
L 318.763636 153.982529 
L 319.581818 136.897471 
L 320.4 150.565928 
L 321.218182 136.897471 
L 322.036364 153.982529 
L 322.854545 160.816758 
L 323.672727 218.904111 
L 325.309091 147.148301 
L 326.127273 143.731699 
L 326.945455 143.731699 
L 327.763636 109.562607 
L 328.581818 92.477549 
L 329.4 119.813437 
L 330.218182 119.813437 
L 331.854545 126.646641 
L 332.672727 140.315097 
L 333.490909 143.731699 
L 334.309091 119.813437 
L 335.127273 153.982529 
L 335.945455 140.315097 
L 336.763636 133.480869 
L 337.581818 150.565928 
L 338.4 116.395811 
L 340.036364 143.731699 
L 340.854545 164.233359 
L 341.672727 167.649961 
L 342.490909 177.900791 
L 343.309091 164.233359 
L 344.127273 174.484189 
L 344.945455 171.067588 
L 345.763636 174.484189 
L 346.581818 191.569248 
L 348.218182 177.900791 
L 349.854545 191.569248 
L 350.672727 184.735019 
L 351.490909 194.98585 
L 352.309091 194.98585 
L 353.127273 201.820078 
L 353.945455 198.402451 
L 354.763636 191.569248 
L 356.4 184.735019 
L 358.036364 184.735019 
L 358.854545 177.900791 
L 359.672727 174.484189 
L 360.490909 164.233359 
L 361.309091 164.233359 
L 362.127273 171.067588 
L 362.945455 225.73834 
L 363.763636 177.900791 
L 364.581818 184.735019 
L 365.4 205.23668 
L 366.218182 246.24 
L 367.036364 235.98917 
L 367.854545 177.900791 
L 368.672727 194.98585 
L 370.309091 174.484189 
L 371.127273 188.151621 
L 371.945455 191.569248 
L 372.763636 184.735019 
L 373.581818 194.98585 
L 373.581818 194.98585 
" style="fill:none;stroke:#0000ff;stroke-linecap:square;stroke-width:1.5;"/>
   </g>
   <g id="patch_3">
    <path d="M 54 256.32 
L 54 34.56 
" style="fill:none;stroke:#000000;stroke-linecap:square;stroke-linejoin:miter;stroke-width:0.8;"/>
   </g>
   <g id="patch_4">
    <path d="M 388.8 256.32 
L 388.8 34.56 
" style="fill:none;stroke:#000000;stroke-linecap:square;stroke-linejoin:miter;stroke-width:0.8;"/>
   </g>
   <g id="patch_5">
    <path d="M 54 256.32 
L 388.8 256.32 
" style="fill:none;stroke:#000000;stroke-linecap:square;stroke-linejoin:miter;stroke-width:0.8;"/>
   </g>
   <g id="patch_6">
    <path d="M 54 34.56 
L 388.8 34.56 
" style="fill:none;stroke:#000000;stroke-linecap:square;stroke-linejoin:miter;stroke-width:0.8;"/>
   </g>
  </g>
  <g id="axes_2">
   <g id="matplotlib.axis_3">
    <g id="ytick_10">
     <g id="line2d_19">
      <defs>
       <path d="M 0 0 
L 3.5 0 
" id="m3149e6f641" style="stroke:#000000;stroke-width:0.8;"/>
      </defs>
      <g>
       <use style="stroke:#000000;stroke-width:0.8;" x="388.8" xlink:href="#m3149e6f641" y="233.64"/>
      </g>
     </g>
     <g id="text_18">
      <!-- 40 -->
      <g transform="translate(395.8 237.439219)scale(0.1 -0.1)">
       <use xlink:href="#DejaVuSans-52"/>
       <use x="63.623047" xlink:href="#DejaVuSans-48"/>
      </g>
     </g>
    </g>
    <g id="ytick_11">
     <g id="line2d_20">
      <g>
       <use style="stroke:#000000;stroke-width:0.8;" x="388.8" xlink:href="#m3149e6f641" y="202.14"/>
      </g>
     </g>
     <g id="text_19">
      <!-- 50 -->
      <g transform="translate(395.8 205.939219)scale(0.1 -0.1)">
       <use xlink:href="#DejaVuSans-53"/>
       <use x="63.623047" xlink:href="#DejaVuSans-48"/>
      </g>
     </g>
    </g>
    <g id="ytick_12">
     <g id="line2d_21">
      <g>
       <use style="stroke:#000000;stroke-width:0.8;" x="388.8" xlink:href="#m3149e6f641" y="170.64"/>
      </g>
     </g>
     <g id="text_20">
      <!-- 60 -->
      <g transform="translate(395.8 174.439219)scale(0.1 -0.1)">
       <use xlink:href="#DejaVuSans-54"/>
       <use x="63.623047" xlink:href="#DejaVuSans-48"/>
      </g>
     </g>
    </g>
    <g id="ytick_13">
     <g id="line2d_22">
      <g>
       <use style="stroke:#000000;stroke-width:0.8;" x="388.8" xlink:href="#m3149e6f641" y="139.14"/>
      </g>
     </g>
     <g id="text_21">
      <!-- 70 -->
      <g transform="translate(395.8 142.939219)scale(0.1 -0.1)">
       <use xlink:href="#DejaVuSans-55"/>
       <use x="63.623047" xlink:href="#DejaVuSans-48"/>
      </g>
     </g>
    </g>
    <g id="ytick_14">
     <g id="line2d_23">
      <g>
       <use style="stroke:#000000;stroke-width:0.8;" x="388.8" xlink:href="#m3149e6f641" y="107.64"/>
      </g>
     </g>
     <g id="text_22">
      <!-- 80 -->
      <g transform="translate(395.8 111.439219)scale(0.1 -0.1)">
       <use xlink:href="#DejaVuSans-56"/>
       <use x="63.623047" xlink:href="#DejaVuSans-48"/>
      </g>
     </g>
    </g>
    <g id="ytick_15">
     <g id="line2d_24">
      <g>
       <use style="stroke:#000000;stroke-width:0.8;" x="388.8" xlink:href="#m3149e6f641" y="76.14"/>
      </g>
     </g>
     <g id="text_23">
      <!-- 90 -->
      <g transform="translate(395.8 79.939219)scale(0.1 -0.1)">
       <use xlink:href="#DejaVuSans-57"/>
       <use x="63.623047" xlink:href="#DejaVuSans-48"/>
      </g>
     </g>
    </g>
    <g id="ytick_16">
     <g id="line2d_25">
      <g>
       <use style="stroke:#000000;stroke-width:0.8;" x="388.8" xlink:href="#m3149e6f641" y="44.64"/>
      </g>
     </g>
     <g id="text_24">
      <!-- 100 -->
      <g transform="translate(395.8 48.439219)scale(0.1 -0.1)">
       <use xlink:href="#DejaVuSans-49"/>
       <use x="63.623047" xlink:href="#DejaVuSans-48"/>
       <use x="127.246094" xlink:href="#DejaVuSans-48"/>
      </g>
     </g>
    </g>
   </g>
   <g id="line2d_26">
    <path clip-path="url(#p067abdb3e9)" d="M 69.218182 161.19 
L 70.036364 170.64 
L 70.854545 167.49 
L 71.672727 161.19 
L 73.309091 173.79 
L 74.127273 183.24 
L 74.945455 180.09 
L 75.763636 186.39 
L 76.581818 170.64 
L 77.4 198.99 
L 78.218182 164.34 
L 79.036364 176.94 
L 79.854545 186.39 
L 80.672727 189.54 
L 81.490909 170.64 
L 82.309091 186.39 
L 83.127273 192.69 
L 83.945455 186.39 
L 84.763636 198.99 
L 85.581818 192.69 
L 86.4 192.69 
L 87.218182 180.09 
L 88.036364 202.14 
L 88.854545 180.09 
L 89.672727 202.14 
L 92.127273 183.24 
L 92.945455 170.64 
L 93.763636 170.64 
L 94.581818 189.54 
L 95.4 183.24 
L 96.218182 192.69 
L 97.036364 186.39 
L 97.854545 189.54 
L 98.672727 195.84 
L 99.490909 189.54 
L 100.309091 180.09 
L 101.127273 164.34 
L 101.945455 170.64 
L 102.763636 158.04 
L 103.581818 183.24 
L 104.4 145.44 
L 105.218182 170.64 
L 106.036364 176.94 
L 106.854545 202.14 
L 107.672727 170.64 
L 108.490909 173.79 
L 109.309091 205.29 
L 110.127273 221.04 
L 110.945455 214.74 
L 111.763636 176.94 
L 112.581818 173.79 
L 113.4 198.99 
L 114.218182 183.24 
L 115.036364 173.79 
L 115.854545 189.54 
L 116.672727 195.84 
L 117.490909 189.54 
L 119.127273 189.54 
L 119.945455 198.99 
L 120.763636 192.69 
L 121.581818 195.84 
L 122.4 183.24 
L 123.218182 173.79 
L 124.036364 186.39 
L 124.854545 180.09 
L 125.672727 202.14 
L 126.490909 198.99 
L 128.127273 211.59 
L 128.945455 205.29 
L 129.763636 202.14 
L 130.581818 195.84 
L 132.218182 208.44 
L 133.036364 195.84 
L 133.854545 205.29 
L 134.672727 186.39 
L 135.490909 189.54 
L 136.309091 183.24 
L 137.127273 208.44 
L 137.945455 208.44 
L 138.763636 211.59 
L 139.581818 217.89 
L 140.4 217.89 
L 141.218182 202.14 
L 142.036364 180.09 
L 142.854545 176.94 
L 143.672727 205.29 
L 144.490909 176.94 
L 145.309091 195.84 
L 146.127273 205.29 
L 146.945455 195.84 
L 148.581818 202.14 
L 149.4 243.09 
L 150.218182 189.54 
L 151.036364 202.14 
L 151.854545 221.04 
L 152.672727 230.49 
L 153.490909 217.89 
L 154.309091 186.39 
L 155.127273 192.69 
L 155.945455 202.14 
L 156.763636 186.39 
L 157.581818 183.24 
L 158.4 186.39 
L 159.218182 202.14 
L 160.036364 198.99 
L 160.854545 202.14 
L 162.490909 176.94 
L 163.309091 180.09 
L 164.127273 173.79 
L 165.763636 192.69 
L 166.581818 176.94 
L 167.4 186.39 
L 168.218182 186.39 
L 169.036364 198.99 
L 169.854545 205.29 
L 170.672727 214.74 
L 171.490909 211.59 
L 172.309091 202.14 
L 173.127273 202.14 
L 173.945455 205.29 
L 174.763636 217.89 
L 175.581818 217.89 
L 176.4 176.94 
L 177.218182 186.39 
L 178.036364 189.54 
L 179.672727 202.14 
L 180.490909 195.84 
L 181.309091 208.44 
L 182.127273 211.59 
L 182.945455 217.89 
L 183.763636 208.44 
L 184.581818 202.14 
L 185.4 189.54 
L 186.218182 202.14 
L 187.036364 198.99 
L 187.854545 198.99 
L 188.672727 189.54 
L 189.490909 192.69 
L 190.309091 192.69 
L 191.127273 202.14 
L 191.945455 214.74 
L 192.763636 186.39 
L 193.581818 198.99 
L 194.4 205.29 
L 195.218182 230.49 
L 196.036364 230.49 
L 196.854545 202.14 
L 197.672727 195.84 
L 198.490909 198.99 
L 199.309091 170.64 
L 200.127273 192.69 
L 200.945455 189.54 
L 201.763636 195.84 
L 203.4 183.24 
L 204.218182 192.69 
L 205.036364 198.99 
L 205.854545 192.69 
L 206.672727 183.24 
L 208.309091 195.84 
L 209.127273 192.69 
L 209.945455 183.24 
L 210.763636 176.94 
L 211.581818 189.54 
L 213.218182 202.14 
L 214.036364 195.84 
L 214.854545 186.39 
L 215.672727 202.14 
L 216.490909 195.84 
L 217.309091 192.69 
L 218.127273 211.59 
L 218.945455 192.69 
L 219.763636 186.39 
L 220.581818 183.24 
L 221.4 189.54 
L 222.218182 189.54 
L 223.036364 198.99 
L 223.854545 195.84 
L 224.672727 198.99 
L 225.490909 195.84 
L 226.309091 186.39 
L 227.127273 173.79 
L 227.945455 170.64 
L 230.4 170.64 
L 231.218182 176.94 
L 232.036364 164.34 
L 232.854545 167.49 
L 233.672727 161.19 
L 234.490909 195.84 
L 235.309091 173.79 
L 236.127273 167.49 
L 236.945455 186.39 
L 237.763636 192.69 
L 238.581818 195.84 
L 239.4 180.09 
L 240.218182 145.44 
L 241.036364 145.44 
L 241.854545 142.29 
L 242.672727 154.89 
L 243.490909 161.19 
L 244.309091 164.34 
L 245.127273 161.19 
L 245.945455 151.74 
L 247.581818 170.64 
L 249.218182 158.04 
L 250.036364 164.34 
L 250.854545 161.19 
L 251.672727 154.89 
L 252.490909 161.19 
L 253.309091 180.09 
L 254.127273 176.94 
L 256.581818 195.84 
L 257.4 189.54 
L 258.218182 176.94 
L 259.036364 189.54 
L 259.854545 183.24 
L 260.672727 192.69 
L 261.490909 164.34 
L 263.127273 170.64 
L 263.945455 164.34 
L 265.581818 189.54 
L 266.4 180.09 
L 267.218182 164.34 
L 268.854545 158.04 
L 269.672727 107.64 
L 270.490909 82.44 
L 271.309091 91.89 
L 272.127273 44.64 
L 272.945455 101.34 
L 273.763636 126.54 
L 275.4 139.14 
L 276.218182 117.09 
L 277.036364 123.39 
L 277.854545 154.89 
L 278.672727 117.09 
L 279.490909 129.69 
L 280.309091 154.89 
L 281.127273 208.44 
L 281.945455 158.04 
L 282.763636 135.99 
L 283.581818 139.14 
L 284.4 145.44 
L 286.036364 126.54 
L 287.672727 120.24 
L 288.490909 101.34 
L 289.309091 123.39 
L 290.127273 142.29 
L 290.945455 135.99 
L 291.763636 126.54 
L 292.581818 142.29 
L 293.4 151.74 
L 295.036364 139.14 
L 296.672727 158.04 
L 297.490909 164.34 
L 298.309091 167.49 
L 299.127273 176.94 
L 299.945455 164.34 
L 300.763636 161.19 
L 301.581818 164.34 
L 303.218182 145.44 
L 304.036364 148.59 
L 304.854545 142.29 
L 305.672727 154.89 
L 306.490909 164.34 
L 307.309091 161.19 
L 308.127273 145.44 
L 308.945455 167.49 
L 309.763636 123.39 
L 310.581818 167.49 
L 313.036364 158.04 
L 313.854545 164.34 
L 314.672727 161.19 
L 315.490909 142.29 
L 316.309091 148.59 
L 317.127273 158.04 
L 317.945455 161.19 
L 318.763636 154.89 
L 319.581818 154.89 
L 320.4 164.34 
L 321.218182 142.29 
L 322.854545 167.49 
L 323.672727 227.34 
L 325.309091 161.19 
L 326.127273 164.34 
L 326.945455 154.89 
L 327.763636 123.39 
L 328.581818 104.49 
L 329.4 135.99 
L 330.218182 132.84 
L 331.036364 145.44 
L 331.854545 148.59 
L 332.672727 154.89 
L 333.490909 154.89 
L 334.309091 132.84 
L 335.127273 167.49 
L 335.945455 151.74 
L 336.763636 148.59 
L 337.581818 154.89 
L 338.4 129.69 
L 339.218182 142.29 
L 340.036364 158.04 
L 340.854545 167.49 
L 341.672727 180.09 
L 342.490909 183.24 
L 343.309091 167.49 
L 344.127273 180.09 
L 344.945455 176.94 
L 345.763636 180.09 
L 346.581818 195.84 
L 347.4 189.54 
L 349.036364 189.54 
L 349.854545 195.84 
L 350.672727 198.99 
L 351.490909 195.84 
L 352.309091 205.29 
L 353.127273 208.44 
L 353.945455 202.14 
L 354.763636 198.99 
L 355.581818 192.69 
L 356.4 192.69 
L 357.218182 183.24 
L 358.036364 189.54 
L 358.854545 180.09 
L 359.672727 180.09 
L 360.490909 170.64 
L 361.309091 180.09 
L 362.127273 180.09 
L 362.945455 227.34 
L 363.763636 176.94 
L 364.581818 192.69 
L 365.4 214.74 
L 366.218182 246.24 
L 367.036364 239.94 
L 367.854545 164.34 
L 368.672727 192.69 
L 369.490909 170.64 
L 370.309091 154.89 
L 371.127273 180.09 
L 371.945455 176.94 
L 372.763636 158.04 
L 373.581818 176.94 
L 373.581818 176.94 
" style="fill:none;stroke:#ff0000;stroke-linecap:square;stroke-width:1.5;"/>
   </g>
   <g id="patch_7">
    <path d="M 54 256.32 
L 54 34.56 
" style="fill:none;stroke:#000000;stroke-linecap:square;stroke-linejoin:miter;stroke-width:0.8;"/>
   </g>
   <g id="patch_8">
    <path d="M 388.8 256.32 
L 388.8 34.56 
" style="fill:none;stroke:#000000;stroke-linecap:square;stroke-linejoin:miter;stroke-width:0.8;"/>
   </g>
   <g id="patch_9">
    <path d="M 54 256.32 
L 388.8 256.32 
" style="fill:none;stroke:#000000;stroke-linecap:square;stroke-linejoin:miter;stroke-width:0.8;"/>
   </g>
   <g id="patch_10">
    <path d="M 54 34.56 
L 388.8 34.56 
" style="fill:none;stroke:#000000;stroke-linecap:square;stroke-linejoin:miter;stroke-width:0.8;"/>
   </g>
  </g>
 </g>
 <defs>
  <clipPath id="p067abdb3e9">
   <rect height="221.76" width="334.8" x="54" y="34.56"/>
  </clipPath>
 </defs>
</svg>
