<?xml version="1.0" encoding="UTF-8" standalone="no"?>
<!-- This is a Stata 15.1 generated SVG file (http://www.stata.com) -->

<svg version="1.1" width="6.00in" height="4.00in" viewBox="0 0 4320 2880" xmlns="http://www.w3.org/2000/svg" xmlns:xlink="http://www.w3.org/1999/xlink">
	<desc>Stata Graph - Graph</desc>
	<rect x="0" y="0" width="4320" height="2880" style="fill:#FFFFFF;stroke:none"/>
	<rect x="0.00" y="0.00" width="4320.00" height="2880.00" style="fill:#FFFFFF"/>
	<rect x="2.88" y="2.88" width="4314.24" height="2874.24" style="fill:none;stroke:#FFFFFF;stroke-width:5.76"/>
	<rect x="1127.25" y="100.85" width="2422.71" height="2359.30" style="fill:#E0E0E0"/>
	<rect x="1130.13" y="103.73" width="2416.95" height="2353.54" style="fill:none;stroke:#FFFFFF;stroke-width:5.76"/>
	<line x1="1127.25" y1="2460.14" x2="3549.96" y2="2460.14" style="stroke:#FFFFFF;stroke-width:8.64"/>
	<line x1="1127.25" y1="2001.00" x2="3549.96" y2="2001.00" style="stroke:#FFFFFF;stroke-width:8.64"/>
	<line x1="1127.25" y1="1541.72" x2="3549.96" y2="1541.72" style="stroke:#FFFFFF;stroke-width:8.64"/>
	<line x1="1127.25" y1="1082.58" x2="3549.96" y2="1082.58" style="stroke:#FFFFFF;stroke-width:8.64"/>
	<line x1="1127.25" y1="623.30" x2="3549.96" y2="623.30" style="stroke:#FFFFFF;stroke-width:8.64"/>
	<line x1="1127.25" y1="164.16" x2="3549.96" y2="164.16" style="stroke:#FFFFFF;stroke-width:8.64"/>
	<line x1="1404.13" y1="2460.14" x2="1404.13" y2="100.85" style="stroke:#FFFFFF;stroke-width:8.64"/>
	<line x1="1820.61" y1="2460.14" x2="1820.61" y2="100.85" style="stroke:#FFFFFF;stroke-width:8.64"/>
	<line x1="2237.09" y1="2460.14" x2="2237.09" y2="100.85" style="stroke:#FFFFFF;stroke-width:8.64"/>
	<line x1="2653.56" y1="2460.14" x2="2653.56" y2="100.85" style="stroke:#FFFFFF;stroke-width:8.64"/>
	<line x1="3070.03" y1="2460.14" x2="3070.03" y2="100.85" style="stroke:#FFFFFF;stroke-width:8.64"/>
	<line x1="3486.51" y1="2460.14" x2="3486.51" y2="100.85" style="stroke:#FFFFFF;stroke-width:8.64"/>
	<rect x="1320.84" y="2352.14" width="260.28" height="108.00" style="fill:#808080"/>
	<rect x="1323.72" y="2355.02" width="254.52" height="102.24" style="fill:none;stroke:#000000;stroke-width:5.76"/>
	<rect x="1841.40" y="2352.14" width="260.28" height="108.00" style="fill:#808080"/>
	<rect x="1844.28" y="2355.02" width="254.52" height="102.24" style="fill:none;stroke:#000000;stroke-width:5.76"/>
	<rect x="2101.68" y="2136.00" width="260.28" height="324.14" style="fill:#808080"/>
	<rect x="2104.56" y="2138.88" width="254.52" height="318.38" style="fill:none;stroke:#000000;stroke-width:5.76"/>
	<rect x="2361.96" y="947.44" width="260.41" height="1512.70" style="fill:#808080"/>
	<rect x="2364.84" y="950.32" width="254.66" height="1506.94" style="fill:none;stroke:#000000;stroke-width:5.76"/>
	<rect x="2622.38" y="1055.58" width="260.28" height="1404.56" style="fill:#808080"/>
	<rect x="2625.25" y="1058.46" width="254.52" height="1398.80" style="fill:none;stroke:#000000;stroke-width:5.76"/>
	<rect x="2882.66" y="623.30" width="260.28" height="1836.84" style="fill:#808080"/>
	<rect x="2885.53" y="626.18" width="254.52" height="1831.08" style="fill:none;stroke:#000000;stroke-width:5.76"/>
	<rect x="3142.93" y="407.30" width="260.28" height="2052.84" style="fill:#808080"/>
	<rect x="3145.81" y="410.18" width="254.52" height="2047.08" style="fill:none;stroke:#000000;stroke-width:5.76"/>
	<line x1="1320.70" y1="2459.20" x2="1327.72" y2="2459.06" stroke-linecap="round" style="stroke:#A0A0A0;stroke-width:4.32"/>
	<line x1="1327.72" y1="2459.06" x2="1334.61" y2="2458.93" stroke-linecap="round" style="stroke:#A0A0A0;stroke-width:4.32"/>
	<line x1="1334.61" y1="2458.93" x2="1341.63" y2="2458.93" stroke-linecap="round" style="stroke:#A0A0A0;stroke-width:4.32"/>
	<line x1="1341.63" y1="2458.93" x2="1348.52" y2="2458.79" stroke-linecap="round" style="stroke:#A0A0A0;stroke-width:4.32"/>
	<line x1="1348.52" y1="2458.79" x2="1355.54" y2="2458.66" stroke-linecap="round" style="stroke:#A0A0A0;stroke-width:4.32"/>
	<line x1="1355.54" y1="2458.66" x2="1362.56" y2="2458.66" stroke-linecap="round" style="stroke:#A0A0A0;stroke-width:4.32"/>
	<line x1="1362.56" y1="2458.66" x2="1369.44" y2="2458.52" stroke-linecap="round" style="stroke:#A0A0A0;stroke-width:4.32"/>
	<line x1="1369.44" y1="2458.52" x2="1376.46" y2="2458.39" stroke-linecap="round" style="stroke:#A0A0A0;stroke-width:4.32"/>
	<line x1="1376.46" y1="2458.39" x2="1383.35" y2="2458.25" stroke-linecap="round" style="stroke:#A0A0A0;stroke-width:4.32"/>
	<line x1="1383.35" y1="2458.25" x2="1390.37" y2="2458.12" stroke-linecap="round" style="stroke:#A0A0A0;stroke-width:4.32"/>
	<line x1="1390.37" y1="2458.12" x2="1397.38" y2="2457.98" stroke-linecap="round" style="stroke:#A0A0A0;stroke-width:4.32"/>
	<line x1="1397.38" y1="2457.98" x2="1404.27" y2="2457.85" stroke-linecap="round" style="stroke:#A0A0A0;stroke-width:4.32"/>
	<line x1="1404.27" y1="2457.85" x2="1411.29" y2="2457.71" stroke-linecap="round" style="stroke:#A0A0A0;stroke-width:4.32"/>
	<line x1="1411.29" y1="2457.71" x2="1418.17" y2="2457.44" stroke-linecap="round" style="stroke:#A0A0A0;stroke-width:4.32"/>
	<line x1="1418.17" y1="2457.44" x2="1425.19" y2="2457.31" stroke-linecap="round" style="stroke:#A0A0A0;stroke-width:4.32"/>
	<line x1="1425.19" y1="2457.31" x2="1432.08" y2="2457.17" stroke-linecap="round" style="stroke:#A0A0A0;stroke-width:4.32"/>
	<line x1="1432.08" y1="2457.17" x2="1439.10" y2="2456.90" stroke-linecap="round" style="stroke:#A0A0A0;stroke-width:4.32"/>
	<line x1="1439.10" y1="2456.90" x2="1446.12" y2="2456.77" stroke-linecap="round" style="stroke:#A0A0A0;stroke-width:4.32"/>
	<line x1="1446.12" y1="2456.77" x2="1453.01" y2="2456.50" stroke-linecap="round" style="stroke:#A0A0A0;stroke-width:4.32"/>
	<line x1="1453.01" y1="2456.50" x2="1460.03" y2="2456.23" stroke-linecap="round" style="stroke:#A0A0A0;stroke-width:4.32"/>
	<line x1="1460.03" y1="2456.23" x2="1466.91" y2="2455.96" stroke-linecap="round" style="stroke:#A0A0A0;stroke-width:4.32"/>
	<line x1="1466.91" y1="2455.96" x2="1473.93" y2="2455.69" stroke-linecap="round" style="stroke:#A0A0A0;stroke-width:4.32"/>
	<line x1="1473.93" y1="2455.69" x2="1480.95" y2="2455.42" stroke-linecap="round" style="stroke:#A0A0A0;stroke-width:4.32"/>
	<line x1="1480.95" y1="2455.42" x2="1487.84" y2="2455.15" stroke-linecap="round" style="stroke:#A0A0A0;stroke-width:4.32"/>
	<line x1="1487.84" y1="2455.15" x2="1494.86" y2="2454.88" stroke-linecap="round" style="stroke:#A0A0A0;stroke-width:4.32"/>
	<line x1="1494.86" y1="2454.88" x2="1501.74" y2="2454.47" stroke-linecap="round" style="stroke:#A0A0A0;stroke-width:4.32"/>
	<line x1="1501.74" y1="2454.47" x2="1508.76" y2="2454.20" stroke-linecap="round" style="stroke:#A0A0A0;stroke-width:4.32"/>
	<line x1="1508.76" y1="2454.20" x2="1515.78" y2="2453.80" stroke-linecap="round" style="stroke:#A0A0A0;stroke-width:4.32"/>
	<line x1="1515.78" y1="2453.80" x2="1522.66" y2="2453.39" stroke-linecap="round" style="stroke:#A0A0A0;stroke-width:4.32"/>
	<line x1="1522.66" y1="2453.39" x2="1529.68" y2="2452.99" stroke-linecap="round" style="stroke:#A0A0A0;stroke-width:4.32"/>
	<line x1="1529.68" y1="2452.99" x2="1536.57" y2="2452.58" stroke-linecap="round" style="stroke:#A0A0A0;stroke-width:4.32"/>
	<line x1="1536.57" y1="2452.58" x2="1543.59" y2="2452.04" stroke-linecap="round" style="stroke:#A0A0A0;stroke-width:4.32"/>
	<line x1="1543.59" y1="2452.04" x2="1550.61" y2="2451.50" stroke-linecap="round" style="stroke:#A0A0A0;stroke-width:4.32"/>
	<line x1="1550.61" y1="2451.50" x2="1557.49" y2="2451.10" stroke-linecap="round" style="stroke:#A0A0A0;stroke-width:4.32"/>
	<line x1="1557.49" y1="2451.10" x2="1564.52" y2="2450.56" stroke-linecap="round" style="stroke:#A0A0A0;stroke-width:4.32"/>
	<line x1="1564.52" y1="2450.56" x2="1571.40" y2="2449.88" stroke-linecap="round" style="stroke:#A0A0A0;stroke-width:4.32"/>
	<line x1="1571.40" y1="2449.88" x2="1578.42" y2="2449.34" stroke-linecap="round" style="stroke:#A0A0A0;stroke-width:4.32"/>
	<line x1="1578.42" y1="2449.34" x2="1585.31" y2="2448.67" stroke-linecap="round" style="stroke:#A0A0A0;stroke-width:4.32"/>
	<line x1="1585.31" y1="2448.67" x2="1592.33" y2="2447.99" stroke-linecap="round" style="stroke:#A0A0A0;stroke-width:4.32"/>
	<line x1="1592.33" y1="2447.99" x2="1599.35" y2="2447.32" stroke-linecap="round" style="stroke:#A0A0A0;stroke-width:4.32"/>
	<line x1="1599.35" y1="2447.32" x2="1606.23" y2="2446.51" stroke-linecap="round" style="stroke:#A0A0A0;stroke-width:4.32"/>
	<line x1="1606.23" y1="2446.51" x2="1613.25" y2="2445.83" stroke-linecap="round" style="stroke:#A0A0A0;stroke-width:4.32"/>
	<line x1="1613.25" y1="2445.83" x2="1620.13" y2="2445.02" stroke-linecap="round" style="stroke:#A0A0A0;stroke-width:4.32"/>
	<line x1="1620.13" y1="2445.02" x2="1627.15" y2="2444.08" stroke-linecap="round" style="stroke:#A0A0A0;stroke-width:4.32"/>
	<line x1="1627.15" y1="2444.08" x2="1634.17" y2="2443.27" stroke-linecap="round" style="stroke:#A0A0A0;stroke-width:4.32"/>
	<line x1="1634.17" y1="2443.27" x2="1641.06" y2="2442.32" stroke-linecap="round" style="stroke:#A0A0A0;stroke-width:4.32"/>
	<line x1="1641.06" y1="2442.32" x2="1648.08" y2="2441.24" stroke-linecap="round" style="stroke:#A0A0A0;stroke-width:4.32"/>
	<line x1="1648.08" y1="2441.24" x2="1654.96" y2="2440.16" stroke-linecap="round" style="stroke:#A0A0A0;stroke-width:4.32"/>
	<line x1="1654.96" y1="2440.16" x2="1661.98" y2="2439.08" stroke-linecap="round" style="stroke:#A0A0A0;stroke-width:4.32"/>
	<line x1="1661.98" y1="2439.08" x2="1669.01" y2="2438.00" stroke-linecap="round" style="stroke:#A0A0A0;stroke-width:4.32"/>
	<line x1="1669.01" y1="2438.00" x2="1675.89" y2="2436.79" stroke-linecap="round" style="stroke:#A0A0A0;stroke-width:4.32"/>
	<line x1="1675.89" y1="2436.79" x2="1682.91" y2="2435.44" stroke-linecap="round" style="stroke:#A0A0A0;stroke-width:4.32"/>
	<line x1="1682.91" y1="2435.44" x2="1689.80" y2="2434.22" stroke-linecap="round" style="stroke:#A0A0A0;stroke-width:4.32"/>
	<line x1="1689.80" y1="2434.22" x2="1696.82" y2="2432.74" stroke-linecap="round" style="stroke:#A0A0A0;stroke-width:4.32"/>
	<line x1="1696.82" y1="2432.74" x2="1703.84" y2="2431.39" stroke-linecap="round" style="stroke:#A0A0A0;stroke-width:4.32"/>
	<line x1="1703.84" y1="2431.39" x2="1710.72" y2="2429.77" stroke-linecap="round" style="stroke:#A0A0A0;stroke-width:4.32"/>
	<line x1="1710.72" y1="2429.77" x2="1717.74" y2="2428.28" stroke-linecap="round" style="stroke:#A0A0A0;stroke-width:4.32"/>
	<line x1="1717.74" y1="2428.28" x2="1724.62" y2="2426.53" stroke-linecap="round" style="stroke:#A0A0A0;stroke-width:4.32"/>
	<line x1="1724.62" y1="2426.53" x2="1731.64" y2="2424.77" stroke-linecap="round" style="stroke:#A0A0A0;stroke-width:4.32"/>
	<line x1="1731.64" y1="2424.77" x2="1738.53" y2="2423.02" stroke-linecap="round" style="stroke:#A0A0A0;stroke-width:4.32"/>
	<line x1="1738.53" y1="2423.02" x2="1745.55" y2="2421.13" stroke-linecap="round" style="stroke:#A0A0A0;stroke-width:4.32"/>
	<line x1="1745.55" y1="2421.13" x2="1752.57" y2="2419.10" stroke-linecap="round" style="stroke:#A0A0A0;stroke-width:4.32"/>
	<line x1="1752.57" y1="2419.10" x2="1759.45" y2="2417.08" stroke-linecap="round" style="stroke:#A0A0A0;stroke-width:4.32"/>
	<line x1="1759.45" y1="2417.08" x2="1766.47" y2="2414.92" stroke-linecap="round" style="stroke:#A0A0A0;stroke-width:4.32"/>
	<line x1="1766.47" y1="2414.92" x2="1773.36" y2="2412.62" stroke-linecap="round" style="stroke:#A0A0A0;stroke-width:4.32"/>
	<line x1="1773.36" y1="2412.62" x2="1780.38" y2="2410.33" stroke-linecap="round" style="stroke:#A0A0A0;stroke-width:4.32"/>
	<line x1="1780.38" y1="2410.33" x2="1787.40" y2="2407.90" stroke-linecap="round" style="stroke:#A0A0A0;stroke-width:4.32"/>
	<line x1="1787.40" y1="2407.90" x2="1794.29" y2="2405.33" stroke-linecap="round" style="stroke:#A0A0A0;stroke-width:4.32"/>
	<line x1="1794.29" y1="2405.33" x2="1801.31" y2="2402.63" stroke-linecap="round" style="stroke:#A0A0A0;stroke-width:4.32"/>
	<line x1="1801.31" y1="2402.63" x2="1808.19" y2="2399.93" stroke-linecap="round" style="stroke:#A0A0A0;stroke-width:4.32"/>
	<line x1="1808.19" y1="2399.93" x2="1815.21" y2="2397.10" stroke-linecap="round" style="stroke:#A0A0A0;stroke-width:4.32"/>
	<line x1="1815.21" y1="2397.10" x2="1822.23" y2="2393.99" stroke-linecap="round" style="stroke:#A0A0A0;stroke-width:4.32"/>
	<line x1="1822.23" y1="2393.99" x2="1829.12" y2="2390.89" stroke-linecap="round" style="stroke:#A0A0A0;stroke-width:4.32"/>
	<line x1="1829.12" y1="2390.89" x2="1836.13" y2="2387.65" stroke-linecap="round" style="stroke:#A0A0A0;stroke-width:4.32"/>
	<line x1="1836.13" y1="2387.65" x2="1843.02" y2="2384.27" stroke-linecap="round" style="stroke:#A0A0A0;stroke-width:4.32"/>
	<line x1="1843.02" y1="2384.27" x2="1850.04" y2="2380.90" stroke-linecap="round" style="stroke:#A0A0A0;stroke-width:4.32"/>
	<line x1="1850.04" y1="2380.90" x2="1857.06" y2="2377.25" stroke-linecap="round" style="stroke:#A0A0A0;stroke-width:4.32"/>
	<line x1="1857.06" y1="2377.25" x2="1863.94" y2="2373.47" stroke-linecap="round" style="stroke:#A0A0A0;stroke-width:4.32"/>
	<line x1="1863.94" y1="2373.47" x2="1870.96" y2="2369.56" stroke-linecap="round" style="stroke:#A0A0A0;stroke-width:4.32"/>
	<line x1="1870.96" y1="2369.56" x2="1877.85" y2="2365.51" stroke-linecap="round" style="stroke:#A0A0A0;stroke-width:4.32"/>
	<line x1="1877.85" y1="2365.51" x2="1884.87" y2="2361.32" stroke-linecap="round" style="stroke:#A0A0A0;stroke-width:4.32"/>
	<line x1="1884.87" y1="2361.32" x2="1891.76" y2="2356.87" stroke-linecap="round" style="stroke:#A0A0A0;stroke-width:4.32"/>
	<line x1="1891.76" y1="2356.87" x2="1898.78" y2="2352.41" stroke-linecap="round" style="stroke:#A0A0A0;stroke-width:4.32"/>
	<line x1="1898.78" y1="2352.41" x2="1905.80" y2="2347.69" stroke-linecap="round" style="stroke:#A0A0A0;stroke-width:4.32"/>
	<line x1="1905.80" y1="2347.69" x2="1912.68" y2="2342.96" stroke-linecap="round" style="stroke:#A0A0A0;stroke-width:4.32"/>
	<line x1="1912.68" y1="2342.96" x2="1919.70" y2="2337.83" stroke-linecap="round" style="stroke:#A0A0A0;stroke-width:4.32"/>
	<line x1="1919.70" y1="2337.83" x2="1926.59" y2="2332.70" stroke-linecap="round" style="stroke:#A0A0A0;stroke-width:4.32"/>
	<line x1="1926.59" y1="2332.70" x2="1933.61" y2="2327.30" stroke-linecap="round" style="stroke:#A0A0A0;stroke-width:4.32"/>
	<line x1="1933.61" y1="2327.30" x2="1940.62" y2="2321.77" stroke-linecap="round" style="stroke:#A0A0A0;stroke-width:4.32"/>
	<line x1="1940.62" y1="2321.77" x2="1947.51" y2="2316.10" stroke-linecap="round" style="stroke:#A0A0A0;stroke-width:4.32"/>
	<line x1="1947.51" y1="2316.10" x2="1954.53" y2="2310.16" stroke-linecap="round" style="stroke:#A0A0A0;stroke-width:4.32"/>
	<line x1="1954.53" y1="2310.16" x2="1961.41" y2="2303.95" stroke-linecap="round" style="stroke:#A0A0A0;stroke-width:4.32"/>
	<line x1="1961.41" y1="2303.95" x2="1968.43" y2="2297.74" stroke-linecap="round" style="stroke:#A0A0A0;stroke-width:4.32"/>
	<line x1="1968.43" y1="2297.74" x2="1975.45" y2="2291.12" stroke-linecap="round" style="stroke:#A0A0A0;stroke-width:4.32"/>
	<line x1="1975.45" y1="2291.12" x2="1982.34" y2="2284.37" stroke-linecap="round" style="stroke:#A0A0A0;stroke-width:4.32"/>
	<line x1="1982.34" y1="2284.37" x2="1989.36" y2="2277.49" stroke-linecap="round" style="stroke:#A0A0A0;stroke-width:4.32"/>
	<line x1="1989.36" y1="2277.49" x2="1996.24" y2="2270.33" stroke-linecap="round" style="stroke:#A0A0A0;stroke-width:4.32"/>
	<line x1="1996.24" y1="2270.33" x2="2003.27" y2="2262.91" stroke-linecap="round" style="stroke:#A0A0A0;stroke-width:4.32"/>
	<line x1="2003.27" y1="2262.91" x2="2010.29" y2="2255.35" stroke-linecap="round" style="stroke:#A0A0A0;stroke-width:4.32"/>
	<line x1="2010.29" y1="2255.35" x2="2017.17" y2="2247.52" stroke-linecap="round" style="stroke:#A0A0A0;stroke-width:4.32"/>
	<line x1="2017.17" y1="2247.52" x2="2024.19" y2="2239.55" stroke-linecap="round" style="stroke:#A0A0A0;stroke-width:4.32"/>
	<line x1="2024.19" y1="2239.55" x2="2031.08" y2="2231.18" stroke-linecap="round" style="stroke:#A0A0A0;stroke-width:4.32"/>
	<line x1="2031.08" y1="2231.18" x2="2038.10" y2="2222.67" stroke-linecap="round" style="stroke:#A0A0A0;stroke-width:4.32"/>
	<line x1="2038.10" y1="2222.67" x2="2045.12" y2="2214.03" stroke-linecap="round" style="stroke:#A0A0A0;stroke-width:4.32"/>
	<line x1="2045.12" y1="2214.03" x2="2052.00" y2="2204.99" stroke-linecap="round" style="stroke:#A0A0A0;stroke-width:4.32"/>
	<line x1="2052.00" y1="2204.99" x2="2059.02" y2="2195.67" stroke-linecap="round" style="stroke:#A0A0A0;stroke-width:4.32"/>
	<line x1="2059.02" y1="2195.67" x2="2065.91" y2="2186.22" stroke-linecap="round" style="stroke:#A0A0A0;stroke-width:4.32"/>
	<line x1="2065.91" y1="2186.22" x2="2072.93" y2="2176.50" stroke-linecap="round" style="stroke:#A0A0A0;stroke-width:4.32"/>
	<line x1="2072.93" y1="2176.50" x2="2079.81" y2="2166.51" stroke-linecap="round" style="stroke:#A0A0A0;stroke-width:4.32"/>
	<line x1="2079.81" y1="2166.51" x2="2086.83" y2="2156.25" stroke-linecap="round" style="stroke:#A0A0A0;stroke-width:4.32"/>
	<line x1="2086.83" y1="2156.25" x2="2093.85" y2="2145.72" stroke-linecap="round" style="stroke:#A0A0A0;stroke-width:4.32"/>
	<line x1="2093.85" y1="2145.72" x2="2100.74" y2="2134.92" stroke-linecap="round" style="stroke:#A0A0A0;stroke-width:4.32"/>
	<line x1="2100.74" y1="2134.92" x2="2107.76" y2="2123.99" stroke-linecap="round" style="stroke:#A0A0A0;stroke-width:4.32"/>
	<line x1="2107.76" y1="2123.99" x2="2114.64" y2="2112.65" stroke-linecap="round" style="stroke:#A0A0A0;stroke-width:4.32"/>
	<line x1="2114.64" y1="2112.65" x2="2121.66" y2="2101.04" stroke-linecap="round" style="stroke:#A0A0A0;stroke-width:4.32"/>
	<line x1="2121.66" y1="2101.04" x2="2128.68" y2="2089.29" stroke-linecap="round" style="stroke:#A0A0A0;stroke-width:4.32"/>
	<line x1="2128.68" y1="2089.29" x2="2135.57" y2="2077.14" stroke-linecap="round" style="stroke:#A0A0A0;stroke-width:4.32"/>
	<line x1="2135.57" y1="2077.14" x2="2142.59" y2="2064.72" stroke-linecap="round" style="stroke:#A0A0A0;stroke-width:4.32"/>
	<line x1="2142.59" y1="2064.72" x2="2149.47" y2="2052.17" stroke-linecap="round" style="stroke:#A0A0A0;stroke-width:4.32"/>
	<line x1="2149.47" y1="2052.17" x2="2156.49" y2="2039.21" stroke-linecap="round" style="stroke:#A0A0A0;stroke-width:4.32"/>
	<line x1="2156.49" y1="2039.21" x2="2163.51" y2="2025.98" stroke-linecap="round" style="stroke:#A0A0A0;stroke-width:4.32"/>
	<line x1="2163.51" y1="2025.98" x2="2170.39" y2="2012.48" stroke-linecap="round" style="stroke:#A0A0A0;stroke-width:4.32"/>
	<line x1="2170.39" y1="2012.48" x2="2177.41" y2="1998.84" stroke-linecap="round" style="stroke:#A0A0A0;stroke-width:4.32"/>
	<line x1="2177.41" y1="1998.84" x2="2184.30" y2="1984.80" stroke-linecap="round" style="stroke:#A0A0A0;stroke-width:4.32"/>
	<line x1="2184.30" y1="1984.80" x2="2191.32" y2="1970.49" stroke-linecap="round" style="stroke:#A0A0A0;stroke-width:4.32"/>
	<line x1="2191.32" y1="1970.49" x2="2198.34" y2="1955.91" stroke-linecap="round" style="stroke:#A0A0A0;stroke-width:4.32"/>
	<line x1="2198.34" y1="1955.91" x2="2205.22" y2="1941.20" stroke-linecap="round" style="stroke:#A0A0A0;stroke-width:4.32"/>
	<line x1="2205.22" y1="1941.20" x2="2212.24" y2="1926.08" stroke-linecap="round" style="stroke:#A0A0A0;stroke-width:4.32"/>
	<line x1="2212.24" y1="1926.08" x2="2219.13" y2="1910.68" stroke-linecap="round" style="stroke:#A0A0A0;stroke-width:4.32"/>
	<line x1="2219.13" y1="1910.68" x2="2226.15" y2="1895.02" stroke-linecap="round" style="stroke:#A0A0A0;stroke-width:4.32"/>
	<line x1="2226.15" y1="1895.02" x2="2233.03" y2="1879.23" stroke-linecap="round" style="stroke:#A0A0A0;stroke-width:4.32"/>
	<line x1="2233.03" y1="1879.23" x2="2240.05" y2="1863.03" stroke-linecap="round" style="stroke:#A0A0A0;stroke-width:4.32"/>
	<line x1="2240.05" y1="1863.03" x2="2247.07" y2="1846.69" stroke-linecap="round" style="stroke:#A0A0A0;stroke-width:4.32"/>
	<line x1="2247.07" y1="1846.69" x2="2253.96" y2="1830.09" stroke-linecap="round" style="stroke:#A0A0A0;stroke-width:4.32"/>
	<line x1="2253.96" y1="1830.09" x2="2260.98" y2="1813.21" stroke-linecap="round" style="stroke:#A0A0A0;stroke-width:4.32"/>
	<line x1="2260.98" y1="1813.21" x2="2267.86" y2="1796.07" stroke-linecap="round" style="stroke:#A0A0A0;stroke-width:4.32"/>
	<line x1="2267.86" y1="1796.07" x2="2274.89" y2="1778.65" stroke-linecap="round" style="stroke:#A0A0A0;stroke-width:4.32"/>
	<line x1="2274.89" y1="1778.65" x2="2281.91" y2="1761.10" stroke-linecap="round" style="stroke:#A0A0A0;stroke-width:4.32"/>
	<line x1="2281.91" y1="1761.10" x2="2288.79" y2="1743.15" stroke-linecap="round" style="stroke:#A0A0A0;stroke-width:4.32"/>
	<line x1="2288.79" y1="1743.15" x2="2295.81" y2="1725.19" stroke-linecap="round" style="stroke:#A0A0A0;stroke-width:4.32"/>
	<line x1="2295.81" y1="1725.19" x2="2302.70" y2="1706.83" stroke-linecap="round" style="stroke:#A0A0A0;stroke-width:4.32"/>
	<line x1="2302.70" y1="1706.83" x2="2309.72" y2="1688.34" stroke-linecap="round" style="stroke:#A0A0A0;stroke-width:4.32"/>
	<line x1="2309.72" y1="1688.34" x2="2316.74" y2="1669.71" stroke-linecap="round" style="stroke:#A0A0A0;stroke-width:4.32"/>
	<line x1="2316.74" y1="1669.71" x2="2323.62" y2="1650.81" stroke-linecap="round" style="stroke:#A0A0A0;stroke-width:4.32"/>
	<line x1="2323.62" y1="1650.81" x2="2330.64" y2="1631.64" stroke-linecap="round" style="stroke:#A0A0A0;stroke-width:4.32"/>
	<line x1="2330.64" y1="1631.64" x2="2337.53" y2="1612.47" stroke-linecap="round" style="stroke:#A0A0A0;stroke-width:4.32"/>
	<line x1="2337.53" y1="1612.47" x2="2344.55" y2="1593.02" stroke-linecap="round" style="stroke:#A0A0A0;stroke-width:4.32"/>
	<line x1="2344.55" y1="1593.02" x2="2351.57" y2="1573.31" stroke-linecap="round" style="stroke:#A0A0A0;stroke-width:4.32"/>
	<line x1="2351.57" y1="1573.31" x2="2358.45" y2="1553.60" stroke-linecap="round" style="stroke:#A0A0A0;stroke-width:4.32"/>
	<line x1="2358.45" y1="1553.60" x2="2365.47" y2="1533.62" stroke-linecap="round" style="stroke:#A0A0A0;stroke-width:4.32"/>
	<line x1="2365.47" y1="1533.62" x2="2372.36" y2="1513.64" stroke-linecap="round" style="stroke:#A0A0A0;stroke-width:4.32"/>
	<line x1="2372.36" y1="1513.64" x2="2379.38" y2="1493.39" stroke-linecap="round" style="stroke:#A0A0A0;stroke-width:4.32"/>
	<line x1="2379.38" y1="1493.39" x2="2386.26" y2="1473.14" stroke-linecap="round" style="stroke:#A0A0A0;stroke-width:4.32"/>
	<line x1="2386.26" y1="1473.14" x2="2393.28" y2="1452.76" stroke-linecap="round" style="stroke:#A0A0A0;stroke-width:4.32"/>
	<line x1="2393.28" y1="1452.76" x2="2400.30" y2="1432.24" stroke-linecap="round" style="stroke:#A0A0A0;stroke-width:4.32"/>
	<line x1="2400.30" y1="1432.24" x2="2407.18" y2="1411.58" stroke-linecap="round" style="stroke:#A0A0A0;stroke-width:4.32"/>
	<line x1="2407.18" y1="1411.58" x2="2414.20" y2="1390.93" stroke-linecap="round" style="stroke:#A0A0A0;stroke-width:4.32"/>
	<line x1="2414.20" y1="1390.93" x2="2421.09" y2="1370.14" stroke-linecap="round" style="stroke:#A0A0A0;stroke-width:4.32"/>
	<line x1="2421.09" y1="1370.14" x2="2428.11" y2="1349.35" stroke-linecap="round" style="stroke:#A0A0A0;stroke-width:4.32"/>
	<line x1="2428.11" y1="1349.35" x2="2435.13" y2="1328.56" stroke-linecap="round" style="stroke:#A0A0A0;stroke-width:4.32"/>
	<line x1="2435.13" y1="1328.56" x2="2442.01" y2="1307.63" stroke-linecap="round" style="stroke:#A0A0A0;stroke-width:4.32"/>
	<line x1="2442.01" y1="1307.63" x2="2449.03" y2="1286.71" stroke-linecap="round" style="stroke:#A0A0A0;stroke-width:4.32"/>
	<line x1="2449.03" y1="1286.71" x2="2455.92" y2="1265.78" stroke-linecap="round" style="stroke:#A0A0A0;stroke-width:4.32"/>
	<line x1="2455.92" y1="1265.78" x2="2462.94" y2="1244.99" stroke-linecap="round" style="stroke:#A0A0A0;stroke-width:4.32"/>
	<line x1="2462.94" y1="1244.99" x2="2469.96" y2="1224.06" stroke-linecap="round" style="stroke:#A0A0A0;stroke-width:4.32"/>
	<line x1="2469.96" y1="1224.06" x2="2476.84" y2="1203.27" stroke-linecap="round" style="stroke:#A0A0A0;stroke-width:4.32"/>
	<line x1="2476.84" y1="1203.27" x2="2483.86" y2="1182.48" stroke-linecap="round" style="stroke:#A0A0A0;stroke-width:4.32"/>
	<line x1="2483.86" y1="1182.48" x2="2490.75" y2="1161.83" stroke-linecap="round" style="stroke:#A0A0A0;stroke-width:4.32"/>
	<line x1="2490.75" y1="1161.83" x2="2497.77" y2="1141.17" stroke-linecap="round" style="stroke:#A0A0A0;stroke-width:4.32"/>
	<line x1="2497.77" y1="1141.17" x2="2504.79" y2="1120.65" stroke-linecap="round" style="stroke:#A0A0A0;stroke-width:4.32"/>
	<line x1="2504.79" y1="1120.65" x2="2511.68" y2="1100.27" stroke-linecap="round" style="stroke:#A0A0A0;stroke-width:4.32"/>
	<line x1="2511.68" y1="1100.27" x2="2518.70" y2="1079.88" stroke-linecap="round" style="stroke:#A0A0A0;stroke-width:4.32"/>
	<line x1="2518.70" y1="1079.88" x2="2525.58" y2="1059.77" stroke-linecap="round" style="stroke:#A0A0A0;stroke-width:4.32"/>
	<line x1="2525.58" y1="1059.77" x2="2532.60" y2="1039.79" stroke-linecap="round" style="stroke:#A0A0A0;stroke-width:4.32"/>
	<line x1="2532.60" y1="1039.79" x2="2539.49" y2="1019.94" stroke-linecap="round" style="stroke:#A0A0A0;stroke-width:4.32"/>
	<line x1="2539.49" y1="1019.94" x2="2546.51" y2="1000.23" stroke-linecap="round" style="stroke:#A0A0A0;stroke-width:4.32"/>
	<line x1="2546.51" y1="1000.23" x2="2553.53" y2="980.79" stroke-linecap="round" style="stroke:#A0A0A0;stroke-width:4.32"/>
	<line x1="2553.53" y1="980.79" x2="2560.41" y2="961.49" stroke-linecap="round" style="stroke:#A0A0A0;stroke-width:4.32"/>
	<line x1="2560.41" y1="961.49" x2="2567.43" y2="942.58" stroke-linecap="round" style="stroke:#A0A0A0;stroke-width:4.32"/>
	<line x1="2567.43" y1="942.58" x2="2574.32" y2="923.68" stroke-linecap="round" style="stroke:#A0A0A0;stroke-width:4.32"/>
	<line x1="2574.32" y1="923.68" x2="2581.34" y2="905.19" stroke-linecap="round" style="stroke:#A0A0A0;stroke-width:4.32"/>
	<line x1="2581.34" y1="905.19" x2="2588.36" y2="886.96" stroke-linecap="round" style="stroke:#A0A0A0;stroke-width:4.32"/>
	<line x1="2588.36" y1="886.96" x2="2595.24" y2="869.01" stroke-linecap="round" style="stroke:#A0A0A0;stroke-width:4.32"/>
	<line x1="2595.24" y1="869.01" x2="2602.26" y2="851.32" stroke-linecap="round" style="stroke:#A0A0A0;stroke-width:4.32"/>
	<line x1="2602.26" y1="851.32" x2="2609.14" y2="833.91" stroke-linecap="round" style="stroke:#A0A0A0;stroke-width:4.32"/>
	<line x1="2609.14" y1="833.91" x2="2616.16" y2="816.90" stroke-linecap="round" style="stroke:#A0A0A0;stroke-width:4.32"/>
	<line x1="2616.16" y1="816.90" x2="2623.18" y2="800.29" stroke-linecap="round" style="stroke:#A0A0A0;stroke-width:4.32"/>
	<line x1="2623.18" y1="800.29" x2="2630.07" y2="783.96" stroke-linecap="round" style="stroke:#A0A0A0;stroke-width:4.32"/>
	<line x1="2630.07" y1="783.96" x2="2637.09" y2="768.03" stroke-linecap="round" style="stroke:#A0A0A0;stroke-width:4.32"/>
	<line x1="2637.09" y1="768.03" x2="2643.97" y2="752.37" stroke-linecap="round" style="stroke:#A0A0A0;stroke-width:4.32"/>
	<line x1="2643.97" y1="752.37" x2="2650.99" y2="737.25" stroke-linecap="round" style="stroke:#A0A0A0;stroke-width:4.32"/>
	<line x1="2650.99" y1="737.25" x2="2658.01" y2="722.53" stroke-linecap="round" style="stroke:#A0A0A0;stroke-width:4.32"/>
	<line x1="2658.01" y1="722.53" x2="2664.90" y2="708.22" stroke-linecap="round" style="stroke:#A0A0A0;stroke-width:4.32"/>
	<line x1="2664.90" y1="708.22" x2="2671.92" y2="694.32" stroke-linecap="round" style="stroke:#A0A0A0;stroke-width:4.32"/>
	<line x1="2671.92" y1="694.32" x2="2678.80" y2="680.82" stroke-linecap="round" style="stroke:#A0A0A0;stroke-width:4.32"/>
	<line x1="2678.80" y1="680.82" x2="2685.82" y2="667.86" stroke-linecap="round" style="stroke:#A0A0A0;stroke-width:4.32"/>
	<line x1="2685.82" y1="667.86" x2="2692.71" y2="655.30" stroke-linecap="round" style="stroke:#A0A0A0;stroke-width:4.32"/>
	<line x1="2692.71" y1="655.30" x2="2699.73" y2="643.29" stroke-linecap="round" style="stroke:#A0A0A0;stroke-width:4.32"/>
	<line x1="2699.73" y1="643.29" x2="2706.75" y2="631.81" stroke-linecap="round" style="stroke:#A0A0A0;stroke-width:4.32"/>
	<line x1="2706.75" y1="631.81" x2="2713.64" y2="620.74" stroke-linecap="round" style="stroke:#A0A0A0;stroke-width:4.32"/>
	<line x1="2713.64" y1="620.74" x2="2720.66" y2="610.21" stroke-linecap="round" style="stroke:#A0A0A0;stroke-width:4.32"/>
	<line x1="2720.66" y1="610.21" x2="2727.54" y2="600.22" stroke-linecap="round" style="stroke:#A0A0A0;stroke-width:4.32"/>
	<line x1="2727.54" y1="600.22" x2="2734.56" y2="590.77" stroke-linecap="round" style="stroke:#A0A0A0;stroke-width:4.32"/>
	<line x1="2734.56" y1="590.77" x2="2741.58" y2="581.86" stroke-linecap="round" style="stroke:#A0A0A0;stroke-width:4.32"/>
	<line x1="2741.58" y1="581.86" x2="2748.47" y2="573.49" stroke-linecap="round" style="stroke:#A0A0A0;stroke-width:4.32"/>
	<line x1="2748.47" y1="573.49" x2="2755.49" y2="565.66" stroke-linecap="round" style="stroke:#A0A0A0;stroke-width:4.32"/>
	<line x1="2755.49" y1="565.66" x2="2762.37" y2="558.50" stroke-linecap="round" style="stroke:#A0A0A0;stroke-width:4.32"/>
	<line x1="2762.37" y1="558.50" x2="2769.39" y2="551.89" stroke-linecap="round" style="stroke:#A0A0A0;stroke-width:4.32"/>
	<line x1="2769.39" y1="551.89" x2="2776.41" y2="545.68" stroke-linecap="round" style="stroke:#A0A0A0;stroke-width:4.32"/>
	<line x1="2776.41" y1="545.68" x2="2783.30" y2="540.28" stroke-linecap="round" style="stroke:#A0A0A0;stroke-width:4.32"/>
	<line x1="2783.30" y1="540.28" x2="2790.32" y2="535.28" stroke-linecap="round" style="stroke:#A0A0A0;stroke-width:4.32"/>
	<line x1="2790.32" y1="535.28" x2="2797.20" y2="530.96" stroke-linecap="round" style="stroke:#A0A0A0;stroke-width:4.32"/>
	<line x1="2797.20" y1="530.96" x2="2804.22" y2="527.32" stroke-linecap="round" style="stroke:#A0A0A0;stroke-width:4.32"/>
	<line x1="2804.22" y1="527.32" x2="2811.24" y2="524.21" stroke-linecap="round" style="stroke:#A0A0A0;stroke-width:4.32"/>
	<line x1="2811.24" y1="524.21" x2="2818.12" y2="521.65" stroke-linecap="round" style="stroke:#A0A0A0;stroke-width:4.32"/>
	<line x1="2818.12" y1="521.65" x2="2825.14" y2="519.76" stroke-linecap="round" style="stroke:#A0A0A0;stroke-width:4.32"/>
	<line x1="2825.14" y1="519.76" x2="2832.03" y2="518.54" stroke-linecap="round" style="stroke:#A0A0A0;stroke-width:4.32"/>
	<line x1="2832.03" y1="518.54" x2="2839.05" y2="517.73" stroke-linecap="round" style="stroke:#A0A0A0;stroke-width:4.32"/>
	<line x1="2839.05" y1="517.73" x2="2845.93" y2="517.73" stroke-linecap="round" style="stroke:#A0A0A0;stroke-width:4.32"/>
	<line x1="2845.93" y1="517.73" x2="2852.95" y2="518.27" stroke-linecap="round" style="stroke:#A0A0A0;stroke-width:4.32"/>
	<line x1="2852.95" y1="518.27" x2="2859.97" y2="519.35" stroke-linecap="round" style="stroke:#A0A0A0;stroke-width:4.32"/>
	<line x1="2859.97" y1="519.35" x2="2866.86" y2="521.11" stroke-linecap="round" style="stroke:#A0A0A0;stroke-width:4.32"/>
	<line x1="2866.86" y1="521.11" x2="2873.88" y2="523.54" stroke-linecap="round" style="stroke:#A0A0A0;stroke-width:4.32"/>
	<line x1="2873.88" y1="523.54" x2="2880.76" y2="526.51" stroke-linecap="round" style="stroke:#A0A0A0;stroke-width:4.32"/>
	<line x1="2880.76" y1="526.51" x2="2887.78" y2="530.02" stroke-linecap="round" style="stroke:#A0A0A0;stroke-width:4.32"/>
	<line x1="2887.78" y1="530.02" x2="2894.80" y2="534.20" stroke-linecap="round" style="stroke:#A0A0A0;stroke-width:4.32"/>
	<line x1="2894.80" y1="534.20" x2="2901.69" y2="539.06" stroke-linecap="round" style="stroke:#A0A0A0;stroke-width:4.32"/>
	<line x1="2901.69" y1="539.06" x2="2908.71" y2="544.33" stroke-linecap="round" style="stroke:#A0A0A0;stroke-width:4.32"/>
	<line x1="2908.71" y1="544.33" x2="2915.59" y2="550.27" stroke-linecap="round" style="stroke:#A0A0A0;stroke-width:4.32"/>
	<line x1="2915.59" y1="550.27" x2="2922.61" y2="556.75" stroke-linecap="round" style="stroke:#A0A0A0;stroke-width:4.32"/>
	<line x1="2922.61" y1="556.75" x2="2929.64" y2="563.90" stroke-linecap="round" style="stroke:#A0A0A0;stroke-width:4.32"/>
	<line x1="2929.64" y1="563.90" x2="2936.52" y2="571.60" stroke-linecap="round" style="stroke:#A0A0A0;stroke-width:4.32"/>
	<line x1="2936.52" y1="571.60" x2="2943.54" y2="579.83" stroke-linecap="round" style="stroke:#A0A0A0;stroke-width:4.32"/>
	<line x1="2943.54" y1="579.83" x2="2950.43" y2="588.61" stroke-linecap="round" style="stroke:#A0A0A0;stroke-width:4.32"/>
	<line x1="2950.43" y1="588.61" x2="2957.45" y2="597.92" stroke-linecap="round" style="stroke:#A0A0A0;stroke-width:4.32"/>
	<line x1="2957.45" y1="597.92" x2="2964.47" y2="607.78" stroke-linecap="round" style="stroke:#A0A0A0;stroke-width:4.32"/>
	<line x1="2964.47" y1="607.78" x2="2971.35" y2="618.17" stroke-linecap="round" style="stroke:#A0A0A0;stroke-width:4.32"/>
	<line x1="2971.35" y1="618.17" x2="2978.37" y2="628.97" stroke-linecap="round" style="stroke:#A0A0A0;stroke-width:4.32"/>
	<line x1="2978.37" y1="628.97" x2="2985.26" y2="640.45" stroke-linecap="round" style="stroke:#A0A0A0;stroke-width:4.32"/>
	<line x1="2985.26" y1="640.45" x2="2992.28" y2="652.33" stroke-linecap="round" style="stroke:#A0A0A0;stroke-width:4.32"/>
	<line x1="2992.28" y1="652.33" x2="2999.30" y2="664.75" stroke-linecap="round" style="stroke:#A0A0A0;stroke-width:4.32"/>
	<line x1="2999.30" y1="664.75" x2="3006.18" y2="677.58" stroke-linecap="round" style="stroke:#A0A0A0;stroke-width:4.32"/>
	<line x1="3006.18" y1="677.58" x2="3013.20" y2="690.94" stroke-linecap="round" style="stroke:#A0A0A0;stroke-width:4.32"/>
	<line x1="3013.20" y1="690.94" x2="3020.09" y2="704.71" stroke-linecap="round" style="stroke:#A0A0A0;stroke-width:4.32"/>
	<line x1="3020.09" y1="704.71" x2="3027.11" y2="719.02" stroke-linecap="round" style="stroke:#A0A0A0;stroke-width:4.32"/>
	<line x1="3027.11" y1="719.02" x2="3033.99" y2="733.60" stroke-linecap="round" style="stroke:#A0A0A0;stroke-width:4.32"/>
	<line x1="3033.99" y1="733.60" x2="3041.01" y2="748.72" stroke-linecap="round" style="stroke:#A0A0A0;stroke-width:4.32"/>
	<line x1="3041.01" y1="748.72" x2="3048.03" y2="764.11" stroke-linecap="round" style="stroke:#A0A0A0;stroke-width:4.32"/>
	<line x1="3048.03" y1="764.11" x2="3054.91" y2="780.04" stroke-linecap="round" style="stroke:#A0A0A0;stroke-width:4.32"/>
	<line x1="3054.91" y1="780.04" x2="3061.93" y2="796.24" stroke-linecap="round" style="stroke:#A0A0A0;stroke-width:4.32"/>
	<line x1="3061.93" y1="796.24" x2="3068.82" y2="812.85" stroke-linecap="round" style="stroke:#A0A0A0;stroke-width:4.32"/>
	<line x1="3068.82" y1="812.85" x2="3075.84" y2="829.72" stroke-linecap="round" style="stroke:#A0A0A0;stroke-width:4.32"/>
	<line x1="3075.84" y1="829.72" x2="3082.86" y2="847.00" stroke-linecap="round" style="stroke:#A0A0A0;stroke-width:4.32"/>
	<line x1="3082.86" y1="847.00" x2="3089.74" y2="864.69" stroke-linecap="round" style="stroke:#A0A0A0;stroke-width:4.32"/>
	<line x1="3089.74" y1="864.69" x2="3096.76" y2="882.51" stroke-linecap="round" style="stroke:#A0A0A0;stroke-width:4.32"/>
	<line x1="3096.76" y1="882.51" x2="3103.65" y2="900.73" stroke-linecap="round" style="stroke:#A0A0A0;stroke-width:4.32"/>
	<line x1="3103.65" y1="900.73" x2="3110.67" y2="919.23" stroke-linecap="round" style="stroke:#A0A0A0;stroke-width:4.32"/>
	<line x1="3110.67" y1="919.23" x2="3117.69" y2="937.86" stroke-linecap="round" style="stroke:#A0A0A0;stroke-width:4.32"/>
	<line x1="3117.69" y1="937.86" x2="3124.57" y2="956.89" stroke-linecap="round" style="stroke:#A0A0A0;stroke-width:4.32"/>
	<line x1="3124.57" y1="956.89" x2="3131.59" y2="976.07" stroke-linecap="round" style="stroke:#A0A0A0;stroke-width:4.32"/>
	<line x1="3131.59" y1="976.07" x2="3138.48" y2="995.51" stroke-linecap="round" style="stroke:#A0A0A0;stroke-width:4.32"/>
	<line x1="3138.48" y1="995.51" x2="3145.50" y2="1015.08" stroke-linecap="round" style="stroke:#A0A0A0;stroke-width:4.32"/>
	<line x1="3145.50" y1="1015.08" x2="3152.52" y2="1034.93" stroke-linecap="round" style="stroke:#A0A0A0;stroke-width:4.32"/>
	<line x1="3152.52" y1="1034.93" x2="3159.41" y2="1054.91" stroke-linecap="round" style="stroke:#A0A0A0;stroke-width:4.32"/>
	<line x1="3159.41" y1="1054.91" x2="3166.43" y2="1075.02" stroke-linecap="round" style="stroke:#A0A0A0;stroke-width:4.32"/>
	<line x1="3166.43" y1="1075.02" x2="3173.31" y2="1095.27" stroke-linecap="round" style="stroke:#A0A0A0;stroke-width:4.32"/>
	<line x1="3173.31" y1="1095.27" x2="3180.33" y2="1115.66" stroke-linecap="round" style="stroke:#A0A0A0;stroke-width:4.32"/>
	<line x1="3180.33" y1="1115.66" x2="3187.22" y2="1136.18" stroke-linecap="round" style="stroke:#A0A0A0;stroke-width:4.32"/>
	<line x1="3187.22" y1="1136.18" x2="3194.24" y2="1156.83" stroke-linecap="round" style="stroke:#A0A0A0;stroke-width:4.32"/>
	<line x1="3194.24" y1="1156.83" x2="3201.26" y2="1177.49" stroke-linecap="round" style="stroke:#A0A0A0;stroke-width:4.32"/>
	<line x1="3201.26" y1="1177.49" x2="3208.14" y2="1198.28" stroke-linecap="round" style="stroke:#A0A0A0;stroke-width:4.32"/>
	<line x1="3208.14" y1="1198.28" x2="3215.16" y2="1219.07" stroke-linecap="round" style="stroke:#A0A0A0;stroke-width:4.32"/>
	<line x1="3215.16" y1="1219.07" x2="3222.05" y2="1239.86" stroke-linecap="round" style="stroke:#A0A0A0;stroke-width:4.32"/>
	<line x1="3222.05" y1="1239.86" x2="3229.07" y2="1260.78" stroke-linecap="round" style="stroke:#A0A0A0;stroke-width:4.32"/>
	<line x1="3229.07" y1="1260.78" x2="3236.09" y2="1281.71" stroke-linecap="round" style="stroke:#A0A0A0;stroke-width:4.32"/>
	<line x1="3236.09" y1="1281.71" x2="3242.97" y2="1302.50" stroke-linecap="round" style="stroke:#A0A0A0;stroke-width:4.32"/>
	<line x1="3242.97" y1="1302.50" x2="3249.99" y2="1323.43" stroke-linecap="round" style="stroke:#A0A0A0;stroke-width:4.32"/>
	<line x1="3249.99" y1="1323.43" x2="3256.88" y2="1344.22" stroke-linecap="round" style="stroke:#A0A0A0;stroke-width:4.32"/>
	<line x1="3256.88" y1="1344.22" x2="3263.89" y2="1365.14" stroke-linecap="round" style="stroke:#A0A0A0;stroke-width:4.32"/>
	<line x1="3263.89" y1="1365.14" x2="3270.91" y2="1385.80" stroke-linecap="round" style="stroke:#A0A0A0;stroke-width:4.32"/>
	<line x1="3270.91" y1="1385.80" x2="3277.80" y2="1406.59" stroke-linecap="round" style="stroke:#A0A0A0;stroke-width:4.32"/>
	<line x1="3277.80" y1="1406.59" x2="3284.82" y2="1427.11" stroke-linecap="round" style="stroke:#A0A0A0;stroke-width:4.32"/>
	<line x1="3284.82" y1="1427.11" x2="3291.70" y2="1447.76" stroke-linecap="round" style="stroke:#A0A0A0;stroke-width:4.32"/>
	<line x1="3291.70" y1="1447.76" x2="3298.72" y2="1468.15" stroke-linecap="round" style="stroke:#A0A0A0;stroke-width:4.32"/>
	<line x1="3298.72" y1="1468.15" x2="3305.74" y2="1488.53" stroke-linecap="round" style="stroke:#A0A0A0;stroke-width:4.32"/>
	<line x1="3305.74" y1="1488.53" x2="3312.63" y2="1508.65" stroke-linecap="round" style="stroke:#A0A0A0;stroke-width:4.32"/>
	<line x1="3312.63" y1="1508.65" x2="3319.65" y2="1528.76" stroke-linecap="round" style="stroke:#A0A0A0;stroke-width:4.32"/>
	<line x1="3319.65" y1="1528.76" x2="3326.53" y2="1548.74" stroke-linecap="round" style="stroke:#A0A0A0;stroke-width:4.32"/>
	<line x1="3326.53" y1="1548.74" x2="3333.55" y2="1568.59" stroke-linecap="round" style="stroke:#A0A0A0;stroke-width:4.32"/>
	<line x1="3333.55" y1="1568.59" x2="3340.44" y2="1588.16" stroke-linecap="round" style="stroke:#A0A0A0;stroke-width:4.32"/>
	<line x1="3340.44" y1="1588.16" x2="3347.46" y2="1607.74" stroke-linecap="round" style="stroke:#A0A0A0;stroke-width:4.32"/>
	<line x1="3347.46" y1="1607.74" x2="3354.48" y2="1627.05" stroke-linecap="round" style="stroke:#A0A0A0;stroke-width:4.32"/>
	<line x1="3354.48" y1="1627.05" x2="3361.36" y2="1646.08" stroke-linecap="round" style="stroke:#A0A0A0;stroke-width:4.32"/>
	<line x1="3361.36" y1="1646.08" x2="3368.39" y2="1665.12" stroke-linecap="round" style="stroke:#A0A0A0;stroke-width:4.32"/>
	<line x1="3368.39" y1="1665.12" x2="3375.27" y2="1683.88" stroke-linecap="round" style="stroke:#A0A0A0;stroke-width:4.32"/>
	<line x1="3375.27" y1="1683.88" x2="3382.29" y2="1702.38" stroke-linecap="round" style="stroke:#A0A0A0;stroke-width:4.32"/>
	<line x1="3382.29" y1="1702.38" x2="3389.31" y2="1720.74" stroke-linecap="round" style="stroke:#A0A0A0;stroke-width:4.32"/>
	<line x1="3389.31" y1="1720.74" x2="3396.20" y2="1738.83" stroke-linecap="round" style="stroke:#A0A0A0;stroke-width:4.32"/>
	<line x1="3396.20" y1="1738.83" x2="3403.22" y2="1756.65" stroke-linecap="round" style="stroke:#A0A0A0;stroke-width:4.32"/>
	<line x1="1127.25" y1="2460.14" x2="1087.29" y2="2460.14" style="stroke:#606060;stroke-width:5.76"/>
	<text x="1067.31" y="2488.15" style="font-family:'Helvetica';font-size:79.92px;fill:#606060" text-anchor="end">0</text>
	<line x1="1127.25" y1="2001.00" x2="1087.29" y2="2001.00" style="stroke:#606060;stroke-width:5.76"/>
	<text x="1067.31" y="2029.01" style="font-family:'Helvetica';font-size:79.92px;fill:#606060" text-anchor="end">.02</text>
	<line x1="1127.25" y1="1541.72" x2="1087.29" y2="1541.72" style="stroke:#606060;stroke-width:5.76"/>
	<text x="1067.31" y="1569.73" style="font-family:'Helvetica';font-size:79.92px;fill:#606060" text-anchor="end">.04</text>
	<line x1="1127.25" y1="1082.58" x2="1087.29" y2="1082.58" style="stroke:#606060;stroke-width:5.76"/>
	<text x="1067.31" y="1110.59" style="font-family:'Helvetica';font-size:79.92px;fill:#606060" text-anchor="end">.06</text>
	<line x1="1127.25" y1="623.30" x2="1087.29" y2="623.30" style="stroke:#606060;stroke-width:5.76"/>
	<text x="1067.31" y="651.31" style="font-family:'Helvetica';font-size:79.92px;fill:#606060" text-anchor="end">.08</text>
	<line x1="1127.25" y1="164.16" x2="1087.29" y2="164.16" style="stroke:#606060;stroke-width:5.76"/>
	<text x="1067.31" y="192.17" style="font-family:'Helvetica';font-size:79.92px;fill:#606060" text-anchor="end">.1</text>
	<text x="880.46" y="1280.50" style="font-family:'Helvetica';font-size:79.92px;fill:#000000" transform="rotate(-90 880.46,1280.50)" text-anchor="middle">Density</text>
	<line x1="1404.13" y1="2460.14" x2="1404.13" y2="2500.10" style="stroke:#606060;stroke-width:5.76"/>
	<text x="1404.13" y="2575.96" style="font-family:'Helvetica';font-size:79.92px;fill:#606060" text-anchor="middle">55</text>
	<line x1="1820.61" y1="2460.14" x2="1820.61" y2="2500.10" style="stroke:#606060;stroke-width:5.76"/>
	<text x="1820.61" y="2575.96" style="font-family:'Helvetica';font-size:79.92px;fill:#606060" text-anchor="middle">60</text>
	<line x1="2237.09" y1="2460.14" x2="2237.09" y2="2500.10" style="stroke:#606060;stroke-width:5.76"/>
	<text x="2237.09" y="2575.96" style="font-family:'Helvetica';font-size:79.92px;fill:#606060" text-anchor="middle">65</text>
	<line x1="2653.56" y1="2460.14" x2="2653.56" y2="2500.10" style="stroke:#606060;stroke-width:5.76"/>
	<text x="2653.56" y="2575.96" style="font-family:'Helvetica';font-size:79.92px;fill:#606060" text-anchor="middle">70</text>
	<line x1="3070.03" y1="2460.14" x2="3070.03" y2="2500.10" style="stroke:#606060;stroke-width:5.76"/>
	<text x="3070.03" y="2575.96" style="font-family:'Helvetica';font-size:79.92px;fill:#606060" text-anchor="middle">75</text>
	<line x1="3486.51" y1="2460.14" x2="3486.51" y2="2500.10" style="stroke:#606060;stroke-width:5.76"/>
	<text x="3486.51" y="2575.96" style="font-family:'Helvetica';font-size:79.92px;fill:#606060" text-anchor="middle">80</text>
	<text x="2338.61" y="2700.57" style="font-family:'Helvetica';font-size:79.92px;fill:#000000" text-anchor="middle">Life expectancy at birth</text>
</svg>
