<?xml version="1.0" encoding="utf-8" standalone="no"?>
<!DOCTYPE svg PUBLIC "-//W3C//DTD SVG 1.1//EN"
  "http://www.w3.org/Graphics/SVG/1.1/DTD/svg11.dtd">
<!-- Created with matplotlib (https://matplotlib.org/) -->
<svg height="288pt" version="1.1" viewBox="0 0 432 288" width="432pt" xmlns="http://www.w3.org/2000/svg" xmlns:xlink="http://www.w3.org/1999/xlink">
 <defs>
  <style type="text/css">
*{stroke-linecap:butt;stroke-linejoin:round;}
  </style>
 </defs>
 <g id="figure_1">
  <g id="patch_1">
   <path d="M 0 288 
L 432 288 
L 432 0 
L 0 0 
z
" style="fill:#ffffff;"/>
  </g>
  <g id="axes_1">
   <g id="patch_2">
    <path d="M 54 256.32 
L 388.8 256.32 
L 388.8 34.56 
L 54 34.56 
z
" style="fill:#ffffff;"/>
   </g>
   <g id="matplotlib.axis_1">
    <g id="xtick_1">
     <g id="line2d_1">
      <defs>
       <path d="M 0 0 
L 0 3.5 
" id="mf62f1b4e20" style="stroke:#000000;stroke-width:0.8;"/>
      </defs>
      <g>
       <use style="stroke:#000000;stroke-width:0.8;" x="55.517914" xlink:href="#mf62f1b4e20" y="256.32"/>
      </g>
     </g>
     <g id="text_1">
      <!-- -3 -->
      <defs>
       <path d="M 4.890625 31.390625 
L 31.203125 31.390625 
L 31.203125 23.390625 
L 4.890625 23.390625 
z
" id="DejaVuSans-45"/>
       <path d="M 40.578125 39.3125 
Q 47.65625 37.796875 51.625 33 
Q 55.609375 28.21875 55.609375 21.1875 
Q 55.609375 10.40625 48.1875 4.484375 
Q 40.765625 -1.421875 27.09375 -1.421875 
Q 22.515625 -1.421875 17.65625 -0.515625 
Q 12.796875 0.390625 7.625 2.203125 
L 7.625 11.71875 
Q 11.71875 9.328125 16.59375 8.109375 
Q 21.484375 6.890625 26.8125 6.890625 
Q 36.078125 6.890625 40.9375 10.546875 
Q 45.796875 14.203125 45.796875 21.1875 
Q 45.796875 27.640625 41.28125 31.265625 
Q 36.765625 34.90625 28.71875 34.90625 
L 20.21875 34.90625 
L 20.21875 43.015625 
L 29.109375 43.015625 
Q 36.375 43.015625 40.234375 45.921875 
Q 44.09375 48.828125 44.09375 54.296875 
Q 44.09375 59.90625 40.109375 62.90625 
Q 36.140625 65.921875 28.71875 65.921875 
Q 24.65625 65.921875 20.015625 65.03125 
Q 15.375 64.15625 9.8125 62.3125 
L 9.8125 71.09375 
Q 15.4375 72.65625 20.34375 73.4375 
Q 25.25 74.21875 29.59375 74.21875 
Q 40.828125 74.21875 47.359375 69.109375 
Q 53.90625 64.015625 53.90625 55.328125 
Q 53.90625 49.265625 50.4375 45.09375 
Q 46.96875 40.921875 40.578125 39.3125 
z
" id="DejaVuSans-51"/>
      </defs>
      <g transform="translate(50.532757 270.918437)scale(0.1 -0.1)">
       <use xlink:href="#DejaVuSans-45"/>
       <use x="36.083984" xlink:href="#DejaVuSans-51"/>
      </g>
     </g>
    </g>
    <g id="xtick_2">
     <g id="line2d_2">
      <g>
       <use style="stroke:#000000;stroke-width:0.8;" x="113.752951" xlink:href="#mf62f1b4e20" y="256.32"/>
      </g>
     </g>
     <g id="text_2">
      <!-- -2 -->
      <defs>
       <path d="M 19.1875 8.296875 
L 53.609375 8.296875 
L 53.609375 0 
L 7.328125 0 
L 7.328125 8.296875 
Q 12.9375 14.109375 22.625 23.890625 
Q 32.328125 33.6875 34.8125 36.53125 
Q 39.546875 41.84375 41.421875 45.53125 
Q 43.3125 49.21875 43.3125 52.78125 
Q 43.3125 58.59375 39.234375 62.25 
Q 35.15625 65.921875 28.609375 65.921875 
Q 23.96875 65.921875 18.8125 64.3125 
Q 13.671875 62.703125 7.8125 59.421875 
L 7.8125 69.390625 
Q 13.765625 71.78125 18.9375 73 
Q 24.125 74.21875 28.421875 74.21875 
Q 39.75 74.21875 46.484375 68.546875 
Q 53.21875 62.890625 53.21875 53.421875 
Q 53.21875 48.921875 51.53125 44.890625 
Q 49.859375 40.875 45.40625 35.40625 
Q 44.1875 33.984375 37.640625 27.21875 
Q 31.109375 20.453125 19.1875 8.296875 
z
" id="DejaVuSans-50"/>
      </defs>
      <g transform="translate(108.767795 270.918437)scale(0.1 -0.1)">
       <use xlink:href="#DejaVuSans-45"/>
       <use x="36.083984" xlink:href="#DejaVuSans-50"/>
      </g>
     </g>
    </g>
    <g id="xtick_3">
     <g id="line2d_3">
      <g>
       <use style="stroke:#000000;stroke-width:0.8;" x="171.987988" xlink:href="#mf62f1b4e20" y="256.32"/>
      </g>
     </g>
     <g id="text_3">
      <!-- -1 -->
      <defs>
       <path d="M 12.40625 8.296875 
L 28.515625 8.296875 
L 28.515625 63.921875 
L 10.984375 60.40625 
L 10.984375 69.390625 
L 28.421875 72.90625 
L 38.28125 72.90625 
L 38.28125 8.296875 
L 54.390625 8.296875 
L 54.390625 0 
L 12.40625 0 
z
" id="DejaVuSans-49"/>
      </defs>
      <g transform="translate(167.002832 270.918437)scale(0.1 -0.1)">
       <use xlink:href="#DejaVuSans-45"/>
       <use x="36.083984" xlink:href="#DejaVuSans-49"/>
      </g>
     </g>
    </g>
    <g id="xtick_4">
     <g id="line2d_4">
      <g>
       <use style="stroke:#000000;stroke-width:0.8;" x="230.223026" xlink:href="#mf62f1b4e20" y="256.32"/>
      </g>
     </g>
     <g id="text_4">
      <!-- 0 -->
      <defs>
       <path d="M 31.78125 66.40625 
Q 24.171875 66.40625 20.328125 58.90625 
Q 16.5 51.421875 16.5 36.375 
Q 16.5 21.390625 20.328125 13.890625 
Q 24.171875 6.390625 31.78125 6.390625 
Q 39.453125 6.390625 43.28125 13.890625 
Q 47.125 21.390625 47.125 36.375 
Q 47.125 51.421875 43.28125 58.90625 
Q 39.453125 66.40625 31.78125 66.40625 
z
M 31.78125 74.21875 
Q 44.046875 74.21875 50.515625 64.515625 
Q 56.984375 54.828125 56.984375 36.375 
Q 56.984375 17.96875 50.515625 8.265625 
Q 44.046875 -1.421875 31.78125 -1.421875 
Q 19.53125 -1.421875 13.0625 8.265625 
Q 6.59375 17.96875 6.59375 36.375 
Q 6.59375 54.828125 13.0625 64.515625 
Q 19.53125 74.21875 31.78125 74.21875 
z
" id="DejaVuSans-48"/>
      </defs>
      <g transform="translate(227.041776 270.918437)scale(0.1 -0.1)">
       <use xlink:href="#DejaVuSans-48"/>
      </g>
     </g>
    </g>
    <g id="xtick_5">
     <g id="line2d_5">
      <g>
       <use style="stroke:#000000;stroke-width:0.8;" x="288.458063" xlink:href="#mf62f1b4e20" y="256.32"/>
      </g>
     </g>
     <g id="text_5">
      <!-- 1 -->
      <g transform="translate(285.276813 270.918437)scale(0.1 -0.1)">
       <use xlink:href="#DejaVuSans-49"/>
      </g>
     </g>
    </g>
    <g id="xtick_6">
     <g id="line2d_6">
      <g>
       <use style="stroke:#000000;stroke-width:0.8;" x="346.6931" xlink:href="#mf62f1b4e20" y="256.32"/>
      </g>
     </g>
     <g id="text_6">
      <!-- 2 -->
      <g transform="translate(343.51185 270.918437)scale(0.1 -0.1)">
       <use xlink:href="#DejaVuSans-50"/>
      </g>
     </g>
    </g>
    <g id="text_7">
     <!-- Theoretical quantiles -->
     <defs>
      <path d="M -0.296875 72.90625 
L 61.375 72.90625 
L 61.375 64.59375 
L 35.5 64.59375 
L 35.5 0 
L 25.59375 0 
L 25.59375 64.59375 
L -0.296875 64.59375 
z
" id="DejaVuSans-84"/>
      <path d="M 54.890625 33.015625 
L 54.890625 0 
L 45.90625 0 
L 45.90625 32.71875 
Q 45.90625 40.484375 42.875 44.328125 
Q 39.84375 48.1875 33.796875 48.1875 
Q 26.515625 48.1875 22.3125 43.546875 
Q 18.109375 38.921875 18.109375 30.90625 
L 18.109375 0 
L 9.078125 0 
L 9.078125 75.984375 
L 18.109375 75.984375 
L 18.109375 46.1875 
Q 21.34375 51.125 25.703125 53.5625 
Q 30.078125 56 35.796875 56 
Q 45.21875 56 50.046875 50.171875 
Q 54.890625 44.34375 54.890625 33.015625 
z
" id="DejaVuSans-104"/>
      <path d="M 56.203125 29.59375 
L 56.203125 25.203125 
L 14.890625 25.203125 
Q 15.484375 15.921875 20.484375 11.0625 
Q 25.484375 6.203125 34.421875 6.203125 
Q 39.59375 6.203125 44.453125 7.46875 
Q 49.3125 8.734375 54.109375 11.28125 
L 54.109375 2.78125 
Q 49.265625 0.734375 44.1875 -0.34375 
Q 39.109375 -1.421875 33.890625 -1.421875 
Q 20.796875 -1.421875 13.15625 6.1875 
Q 5.515625 13.8125 5.515625 26.8125 
Q 5.515625 40.234375 12.765625 48.109375 
Q 20.015625 56 32.328125 56 
Q 43.359375 56 49.78125 48.890625 
Q 56.203125 41.796875 56.203125 29.59375 
z
M 47.21875 32.234375 
Q 47.125 39.59375 43.09375 43.984375 
Q 39.0625 48.390625 32.421875 48.390625 
Q 24.90625 48.390625 20.390625 44.140625 
Q 15.875 39.890625 15.1875 32.171875 
z
" id="DejaVuSans-101"/>
      <path d="M 30.609375 48.390625 
Q 23.390625 48.390625 19.1875 42.75 
Q 14.984375 37.109375 14.984375 27.296875 
Q 14.984375 17.484375 19.15625 11.84375 
Q 23.34375 6.203125 30.609375 6.203125 
Q 37.796875 6.203125 41.984375 11.859375 
Q 46.1875 17.53125 46.1875 27.296875 
Q 46.1875 37.015625 41.984375 42.703125 
Q 37.796875 48.390625 30.609375 48.390625 
z
M 30.609375 56 
Q 42.328125 56 49.015625 48.375 
Q 55.71875 40.765625 55.71875 27.296875 
Q 55.71875 13.875 49.015625 6.21875 
Q 42.328125 -1.421875 30.609375 -1.421875 
Q 18.84375 -1.421875 12.171875 6.21875 
Q 5.515625 13.875 5.515625 27.296875 
Q 5.515625 40.765625 12.171875 48.375 
Q 18.84375 56 30.609375 56 
z
" id="DejaVuSans-111"/>
      <path d="M 41.109375 46.296875 
Q 39.59375 47.171875 37.8125 47.578125 
Q 36.03125 48 33.890625 48 
Q 26.265625 48 22.1875 43.046875 
Q 18.109375 38.09375 18.109375 28.8125 
L 18.109375 0 
L 9.078125 0 
L 9.078125 54.6875 
L 18.109375 54.6875 
L 18.109375 46.1875 
Q 20.953125 51.171875 25.484375 53.578125 
Q 30.03125 56 36.53125 56 
Q 37.453125 56 38.578125 55.875 
Q 39.703125 55.765625 41.0625 55.515625 
z
" id="DejaVuSans-114"/>
      <path d="M 18.3125 70.21875 
L 18.3125 54.6875 
L 36.8125 54.6875 
L 36.8125 47.703125 
L 18.3125 47.703125 
L 18.3125 18.015625 
Q 18.3125 11.328125 20.140625 9.421875 
Q 21.96875 7.515625 27.59375 7.515625 
L 36.8125 7.515625 
L 36.8125 0 
L 27.59375 0 
Q 17.1875 0 13.234375 3.875 
Q 9.28125 7.765625 9.28125 18.015625 
L 9.28125 47.703125 
L 2.6875 47.703125 
L 2.6875 54.6875 
L 9.28125 54.6875 
L 9.28125 70.21875 
z
" id="DejaVuSans-116"/>
      <path d="M 9.421875 54.6875 
L 18.40625 54.6875 
L 18.40625 0 
L 9.421875 0 
z
M 9.421875 75.984375 
L 18.40625 75.984375 
L 18.40625 64.59375 
L 9.421875 64.59375 
z
" id="DejaVuSans-105"/>
      <path d="M 48.78125 52.59375 
L 48.78125 44.1875 
Q 44.96875 46.296875 41.140625 47.34375 
Q 37.3125 48.390625 33.40625 48.390625 
Q 24.65625 48.390625 19.8125 42.84375 
Q 14.984375 37.3125 14.984375 27.296875 
Q 14.984375 17.28125 19.8125 11.734375 
Q 24.65625 6.203125 33.40625 6.203125 
Q 37.3125 6.203125 41.140625 7.25 
Q 44.96875 8.296875 48.78125 10.40625 
L 48.78125 2.09375 
Q 45.015625 0.34375 40.984375 -0.53125 
Q 36.96875 -1.421875 32.421875 -1.421875 
Q 20.0625 -1.421875 12.78125 6.34375 
Q 5.515625 14.109375 5.515625 27.296875 
Q 5.515625 40.671875 12.859375 48.328125 
Q 20.21875 56 33.015625 56 
Q 37.15625 56 41.109375 55.140625 
Q 45.0625 54.296875 48.78125 52.59375 
z
" id="DejaVuSans-99"/>
      <path d="M 34.28125 27.484375 
Q 23.390625 27.484375 19.1875 25 
Q 14.984375 22.515625 14.984375 16.5 
Q 14.984375 11.71875 18.140625 8.90625 
Q 21.296875 6.109375 26.703125 6.109375 
Q 34.1875 6.109375 38.703125 11.40625 
Q 43.21875 16.703125 43.21875 25.484375 
L 43.21875 27.484375 
z
M 52.203125 31.203125 
L 52.203125 0 
L 43.21875 0 
L 43.21875 8.296875 
Q 40.140625 3.328125 35.546875 0.953125 
Q 30.953125 -1.421875 24.3125 -1.421875 
Q 15.921875 -1.421875 10.953125 3.296875 
Q 6 8.015625 6 15.921875 
Q 6 25.140625 12.171875 29.828125 
Q 18.359375 34.515625 30.609375 34.515625 
L 43.21875 34.515625 
L 43.21875 35.40625 
Q 43.21875 41.609375 39.140625 45 
Q 35.0625 48.390625 27.6875 48.390625 
Q 23 48.390625 18.546875 47.265625 
Q 14.109375 46.140625 10.015625 43.890625 
L 10.015625 52.203125 
Q 14.9375 54.109375 19.578125 55.046875 
Q 24.21875 56 28.609375 56 
Q 40.484375 56 46.34375 49.84375 
Q 52.203125 43.703125 52.203125 31.203125 
z
" id="DejaVuSans-97"/>
      <path d="M 9.421875 75.984375 
L 18.40625 75.984375 
L 18.40625 0 
L 9.421875 0 
z
" id="DejaVuSans-108"/>
      <path id="DejaVuSans-32"/>
      <path d="M 14.796875 27.296875 
Q 14.796875 17.390625 18.875 11.75 
Q 22.953125 6.109375 30.078125 6.109375 
Q 37.203125 6.109375 41.296875 11.75 
Q 45.40625 17.390625 45.40625 27.296875 
Q 45.40625 37.203125 41.296875 42.84375 
Q 37.203125 48.484375 30.078125 48.484375 
Q 22.953125 48.484375 18.875 42.84375 
Q 14.796875 37.203125 14.796875 27.296875 
z
M 45.40625 8.203125 
Q 42.578125 3.328125 38.25 0.953125 
Q 33.9375 -1.421875 27.875 -1.421875 
Q 17.96875 -1.421875 11.734375 6.484375 
Q 5.515625 14.40625 5.515625 27.296875 
Q 5.515625 40.1875 11.734375 48.09375 
Q 17.96875 56 27.875 56 
Q 33.9375 56 38.25 53.625 
Q 42.578125 51.265625 45.40625 46.390625 
L 45.40625 54.6875 
L 54.390625 54.6875 
L 54.390625 -20.796875 
L 45.40625 -20.796875 
z
" id="DejaVuSans-113"/>
      <path d="M 8.5 21.578125 
L 8.5 54.6875 
L 17.484375 54.6875 
L 17.484375 21.921875 
Q 17.484375 14.15625 20.5 10.265625 
Q 23.53125 6.390625 29.59375 6.390625 
Q 36.859375 6.390625 41.078125 11.03125 
Q 45.3125 15.671875 45.3125 23.6875 
L 45.3125 54.6875 
L 54.296875 54.6875 
L 54.296875 0 
L 45.3125 0 
L 45.3125 8.40625 
Q 42.046875 3.421875 37.71875 1 
Q 33.40625 -1.421875 27.6875 -1.421875 
Q 18.265625 -1.421875 13.375 4.4375 
Q 8.5 10.296875 8.5 21.578125 
z
M 31.109375 56 
z
" id="DejaVuSans-117"/>
      <path d="M 54.890625 33.015625 
L 54.890625 0 
L 45.90625 0 
L 45.90625 32.71875 
Q 45.90625 40.484375 42.875 44.328125 
Q 39.84375 48.1875 33.796875 48.1875 
Q 26.515625 48.1875 22.3125 43.546875 
Q 18.109375 38.921875 18.109375 30.90625 
L 18.109375 0 
L 9.078125 0 
L 9.078125 54.6875 
L 18.109375 54.6875 
L 18.109375 46.1875 
Q 21.34375 51.125 25.703125 53.5625 
Q 30.078125 56 35.796875 56 
Q 45.21875 56 50.046875 50.171875 
Q 54.890625 44.34375 54.890625 33.015625 
z
" id="DejaVuSans-110"/>
      <path d="M 44.28125 53.078125 
L 44.28125 44.578125 
Q 40.484375 46.53125 36.375 47.5 
Q 32.28125 48.484375 27.875 48.484375 
Q 21.1875 48.484375 17.84375 46.4375 
Q 14.5 44.390625 14.5 40.28125 
Q 14.5 37.15625 16.890625 35.375 
Q 19.28125 33.59375 26.515625 31.984375 
L 29.59375 31.296875 
Q 39.15625 29.25 43.1875 25.515625 
Q 47.21875 21.78125 47.21875 15.09375 
Q 47.21875 7.46875 41.1875 3.015625 
Q 35.15625 -1.421875 24.609375 -1.421875 
Q 20.21875 -1.421875 15.453125 -0.5625 
Q 10.6875 0.296875 5.421875 2 
L 5.421875 11.28125 
Q 10.40625 8.6875 15.234375 7.390625 
Q 20.0625 6.109375 24.8125 6.109375 
Q 31.15625 6.109375 34.5625 8.28125 
Q 37.984375 10.453125 37.984375 14.40625 
Q 37.984375 18.0625 35.515625 20.015625 
Q 33.0625 21.96875 24.703125 23.78125 
L 21.578125 24.515625 
Q 13.234375 26.265625 9.515625 29.90625 
Q 5.8125 33.546875 5.8125 39.890625 
Q 5.8125 47.609375 11.28125 51.796875 
Q 16.75 56 26.8125 56 
Q 31.78125 56 36.171875 55.265625 
Q 40.578125 54.546875 44.28125 53.078125 
z
" id="DejaVuSans-115"/>
     </defs>
     <g transform="translate(168.775 284.596563)scale(0.1 -0.1)">
      <use xlink:href="#DejaVuSans-84"/>
      <use x="61.083984" xlink:href="#DejaVuSans-104"/>
      <use x="124.462891" xlink:href="#DejaVuSans-101"/>
      <use x="185.986328" xlink:href="#DejaVuSans-111"/>
      <use x="247.167969" xlink:href="#DejaVuSans-114"/>
      <use x="288.25" xlink:href="#DejaVuSans-101"/>
      <use x="349.773438" xlink:href="#DejaVuSans-116"/>
      <use x="388.982422" xlink:href="#DejaVuSans-105"/>
      <use x="416.765625" xlink:href="#DejaVuSans-99"/>
      <use x="471.746094" xlink:href="#DejaVuSans-97"/>
      <use x="533.025391" xlink:href="#DejaVuSans-108"/>
      <use x="560.808594" xlink:href="#DejaVuSans-32"/>
      <use x="592.595703" xlink:href="#DejaVuSans-113"/>
      <use x="656.072266" xlink:href="#DejaVuSans-117"/>
      <use x="719.451172" xlink:href="#DejaVuSans-97"/>
      <use x="780.730469" xlink:href="#DejaVuSans-110"/>
      <use x="844.109375" xlink:href="#DejaVuSans-116"/>
      <use x="883.318359" xlink:href="#DejaVuSans-105"/>
      <use x="911.101562" xlink:href="#DejaVuSans-108"/>
      <use x="938.884766" xlink:href="#DejaVuSans-101"/>
      <use x="1000.408203" xlink:href="#DejaVuSans-115"/>
     </g>
    </g>
   </g>
   <g id="matplotlib.axis_2">
    <g id="ytick_1">
     <g id="line2d_7">
      <defs>
       <path d="M 0 0 
L -3.5 0 
" id="mf4812b871f" style="stroke:#000000;stroke-width:0.8;"/>
      </defs>
      <g>
       <use style="stroke:#000000;stroke-width:0.8;" x="54" xlink:href="#mf4812b871f" y="250.112944"/>
      </g>
     </g>
     <g id="text_8">
      <!-- -0.08 -->
      <defs>
       <path d="M 10.6875 12.40625 
L 21 12.40625 
L 21 0 
L 10.6875 0 
z
" id="DejaVuSans-46"/>
       <path d="M 31.78125 34.625 
Q 24.75 34.625 20.71875 30.859375 
Q 16.703125 27.09375 16.703125 20.515625 
Q 16.703125 13.921875 20.71875 10.15625 
Q 24.75 6.390625 31.78125 6.390625 
Q 38.8125 6.390625 42.859375 10.171875 
Q 46.921875 13.96875 46.921875 20.515625 
Q 46.921875 27.09375 42.890625 30.859375 
Q 38.875 34.625 31.78125 34.625 
z
M 21.921875 38.8125 
Q 15.578125 40.375 12.03125 44.71875 
Q 8.5 49.078125 8.5 55.328125 
Q 8.5 64.0625 14.71875 69.140625 
Q 20.953125 74.21875 31.78125 74.21875 
Q 42.671875 74.21875 48.875 69.140625 
Q 55.078125 64.0625 55.078125 55.328125 
Q 55.078125 49.078125 51.53125 44.71875 
Q 48 40.375 41.703125 38.8125 
Q 48.828125 37.15625 52.796875 32.3125 
Q 56.78125 27.484375 56.78125 20.515625 
Q 56.78125 9.90625 50.3125 4.234375 
Q 43.84375 -1.421875 31.78125 -1.421875 
Q 19.734375 -1.421875 13.25 4.234375 
Q 6.78125 9.90625 6.78125 20.515625 
Q 6.78125 27.484375 10.78125 32.3125 
Q 14.796875 37.15625 21.921875 38.8125 
z
M 18.3125 54.390625 
Q 18.3125 48.734375 21.84375 45.5625 
Q 25.390625 42.390625 31.78125 42.390625 
Q 38.140625 42.390625 41.71875 45.5625 
Q 45.3125 48.734375 45.3125 54.390625 
Q 45.3125 60.0625 41.71875 63.234375 
Q 38.140625 66.40625 31.78125 66.40625 
Q 25.390625 66.40625 21.84375 63.234375 
Q 18.3125 60.0625 18.3125 54.390625 
z
" id="DejaVuSans-56"/>
      </defs>
      <g transform="translate(21.126562 253.912163)scale(0.1 -0.1)">
       <use xlink:href="#DejaVuSans-45"/>
       <use x="36.083984" xlink:href="#DejaVuSans-48"/>
       <use x="99.707031" xlink:href="#DejaVuSans-46"/>
       <use x="131.494141" xlink:href="#DejaVuSans-48"/>
       <use x="195.117188" xlink:href="#DejaVuSans-56"/>
      </g>
     </g>
    </g>
    <g id="ytick_2">
     <g id="line2d_8">
      <g>
       <use style="stroke:#000000;stroke-width:0.8;" x="54" xlink:href="#mf4812b871f" y="223.002333"/>
      </g>
     </g>
     <g id="text_9">
      <!-- -0.06 -->
      <defs>
       <path d="M 33.015625 40.375 
Q 26.375 40.375 22.484375 35.828125 
Q 18.609375 31.296875 18.609375 23.390625 
Q 18.609375 15.53125 22.484375 10.953125 
Q 26.375 6.390625 33.015625 6.390625 
Q 39.65625 6.390625 43.53125 10.953125 
Q 47.40625 15.53125 47.40625 23.390625 
Q 47.40625 31.296875 43.53125 35.828125 
Q 39.65625 40.375 33.015625 40.375 
z
M 52.59375 71.296875 
L 52.59375 62.3125 
Q 48.875 64.0625 45.09375 64.984375 
Q 41.3125 65.921875 37.59375 65.921875 
Q 27.828125 65.921875 22.671875 59.328125 
Q 17.53125 52.734375 16.796875 39.40625 
Q 19.671875 43.65625 24.015625 45.921875 
Q 28.375 48.1875 33.59375 48.1875 
Q 44.578125 48.1875 50.953125 41.515625 
Q 57.328125 34.859375 57.328125 23.390625 
Q 57.328125 12.15625 50.6875 5.359375 
Q 44.046875 -1.421875 33.015625 -1.421875 
Q 20.359375 -1.421875 13.671875 8.265625 
Q 6.984375 17.96875 6.984375 36.375 
Q 6.984375 53.65625 15.1875 63.9375 
Q 23.390625 74.21875 37.203125 74.21875 
Q 40.921875 74.21875 44.703125 73.484375 
Q 48.484375 72.75 52.59375 71.296875 
z
" id="DejaVuSans-54"/>
      </defs>
      <g transform="translate(21.126562 226.801552)scale(0.1 -0.1)">
       <use xlink:href="#DejaVuSans-45"/>
       <use x="36.083984" xlink:href="#DejaVuSans-48"/>
       <use x="99.707031" xlink:href="#DejaVuSans-46"/>
       <use x="131.494141" xlink:href="#DejaVuSans-48"/>
       <use x="195.117188" xlink:href="#DejaVuSans-54"/>
      </g>
     </g>
    </g>
    <g id="ytick_3">
     <g id="line2d_9">
      <g>
       <use style="stroke:#000000;stroke-width:0.8;" x="54" xlink:href="#mf4812b871f" y="195.891722"/>
      </g>
     </g>
     <g id="text_10">
      <!-- -0.04 -->
      <defs>
       <path d="M 37.796875 64.3125 
L 12.890625 25.390625 
L 37.796875 25.390625 
z
M 35.203125 72.90625 
L 47.609375 72.90625 
L 47.609375 25.390625 
L 58.015625 25.390625 
L 58.015625 17.1875 
L 47.609375 17.1875 
L 47.609375 0 
L 37.796875 0 
L 37.796875 17.1875 
L 4.890625 17.1875 
L 4.890625 26.703125 
z
" id="DejaVuSans-52"/>
      </defs>
      <g transform="translate(21.126562 199.690941)scale(0.1 -0.1)">
       <use xlink:href="#DejaVuSans-45"/>
       <use x="36.083984" xlink:href="#DejaVuSans-48"/>
       <use x="99.707031" xlink:href="#DejaVuSans-46"/>
       <use x="131.494141" xlink:href="#DejaVuSans-48"/>
       <use x="195.117188" xlink:href="#DejaVuSans-52"/>
      </g>
     </g>
    </g>
    <g id="ytick_4">
     <g id="line2d_10">
      <g>
       <use style="stroke:#000000;stroke-width:0.8;" x="54" xlink:href="#mf4812b871f" y="168.781111"/>
      </g>
     </g>
     <g id="text_11">
      <!-- -0.02 -->
      <g transform="translate(21.126562 172.58033)scale(0.1 -0.1)">
       <use xlink:href="#DejaVuSans-45"/>
       <use x="36.083984" xlink:href="#DejaVuSans-48"/>
       <use x="99.707031" xlink:href="#DejaVuSans-46"/>
       <use x="131.494141" xlink:href="#DejaVuSans-48"/>
       <use x="195.117188" xlink:href="#DejaVuSans-50"/>
      </g>
     </g>
    </g>
    <g id="ytick_5">
     <g id="line2d_11">
      <g>
       <use style="stroke:#000000;stroke-width:0.8;" x="54" xlink:href="#mf4812b871f" y="141.6705"/>
      </g>
     </g>
     <g id="text_12">
      <!-- 0.00 -->
      <g transform="translate(24.734375 145.469718)scale(0.1 -0.1)">
       <use xlink:href="#DejaVuSans-48"/>
       <use x="63.623047" xlink:href="#DejaVuSans-46"/>
       <use x="95.410156" xlink:href="#DejaVuSans-48"/>
       <use x="159.033203" xlink:href="#DejaVuSans-48"/>
      </g>
     </g>
    </g>
    <g id="ytick_6">
     <g id="line2d_12">
      <g>
       <use style="stroke:#000000;stroke-width:0.8;" x="54" xlink:href="#mf4812b871f" y="114.559888"/>
      </g>
     </g>
     <g id="text_13">
      <!-- 0.02 -->
      <g transform="translate(24.734375 118.359107)scale(0.1 -0.1)">
       <use xlink:href="#DejaVuSans-48"/>
       <use x="63.623047" xlink:href="#DejaVuSans-46"/>
       <use x="95.410156" xlink:href="#DejaVuSans-48"/>
       <use x="159.033203" xlink:href="#DejaVuSans-50"/>
      </g>
     </g>
    </g>
    <g id="ytick_7">
     <g id="line2d_13">
      <g>
       <use style="stroke:#000000;stroke-width:0.8;" x="54" xlink:href="#mf4812b871f" y="87.449277"/>
      </g>
     </g>
     <g id="text_14">
      <!-- 0.04 -->
      <g transform="translate(24.734375 91.248496)scale(0.1 -0.1)">
       <use xlink:href="#DejaVuSans-48"/>
       <use x="63.623047" xlink:href="#DejaVuSans-46"/>
       <use x="95.410156" xlink:href="#DejaVuSans-48"/>
       <use x="159.033203" xlink:href="#DejaVuSans-52"/>
      </g>
     </g>
    </g>
    <g id="ytick_8">
     <g id="line2d_14">
      <g>
       <use style="stroke:#000000;stroke-width:0.8;" x="54" xlink:href="#mf4812b871f" y="60.338666"/>
      </g>
     </g>
     <g id="text_15">
      <!-- 0.06 -->
      <g transform="translate(24.734375 64.137885)scale(0.1 -0.1)">
       <use xlink:href="#DejaVuSans-48"/>
       <use x="63.623047" xlink:href="#DejaVuSans-46"/>
       <use x="95.410156" xlink:href="#DejaVuSans-48"/>
       <use x="159.033203" xlink:href="#DejaVuSans-54"/>
      </g>
     </g>
    </g>
    <g id="text_16">
     <!-- Ordered Values -->
     <defs>
      <path d="M 39.40625 66.21875 
Q 28.65625 66.21875 22.328125 58.203125 
Q 16.015625 50.203125 16.015625 36.375 
Q 16.015625 22.609375 22.328125 14.59375 
Q 28.65625 6.59375 39.40625 6.59375 
Q 50.140625 6.59375 56.421875 14.59375 
Q 62.703125 22.609375 62.703125 36.375 
Q 62.703125 50.203125 56.421875 58.203125 
Q 50.140625 66.21875 39.40625 66.21875 
z
M 39.40625 74.21875 
Q 54.734375 74.21875 63.90625 63.9375 
Q 73.09375 53.65625 73.09375 36.375 
Q 73.09375 19.140625 63.90625 8.859375 
Q 54.734375 -1.421875 39.40625 -1.421875 
Q 24.03125 -1.421875 14.8125 8.828125 
Q 5.609375 19.09375 5.609375 36.375 
Q 5.609375 53.65625 14.8125 63.9375 
Q 24.03125 74.21875 39.40625 74.21875 
z
" id="DejaVuSans-79"/>
      <path d="M 45.40625 46.390625 
L 45.40625 75.984375 
L 54.390625 75.984375 
L 54.390625 0 
L 45.40625 0 
L 45.40625 8.203125 
Q 42.578125 3.328125 38.25 0.953125 
Q 33.9375 -1.421875 27.875 -1.421875 
Q 17.96875 -1.421875 11.734375 6.484375 
Q 5.515625 14.40625 5.515625 27.296875 
Q 5.515625 40.1875 11.734375 48.09375 
Q 17.96875 56 27.875 56 
Q 33.9375 56 38.25 53.625 
Q 42.578125 51.265625 45.40625 46.390625 
z
M 14.796875 27.296875 
Q 14.796875 17.390625 18.875 11.75 
Q 22.953125 6.109375 30.078125 6.109375 
Q 37.203125 6.109375 41.296875 11.75 
Q 45.40625 17.390625 45.40625 27.296875 
Q 45.40625 37.203125 41.296875 42.84375 
Q 37.203125 48.484375 30.078125 48.484375 
Q 22.953125 48.484375 18.875 42.84375 
Q 14.796875 37.203125 14.796875 27.296875 
z
" id="DejaVuSans-100"/>
      <path d="M 28.609375 0 
L 0.78125 72.90625 
L 11.078125 72.90625 
L 34.1875 11.53125 
L 57.328125 72.90625 
L 67.578125 72.90625 
L 39.796875 0 
z
" id="DejaVuSans-86"/>
     </defs>
     <g transform="translate(15.046875 184.293125)rotate(-90)scale(0.1 -0.1)">
      <use xlink:href="#DejaVuSans-79"/>
      <use x="78.710938" xlink:href="#DejaVuSans-114"/>
      <use x="119.808594" xlink:href="#DejaVuSans-100"/>
      <use x="183.285156" xlink:href="#DejaVuSans-101"/>
      <use x="244.808594" xlink:href="#DejaVuSans-114"/>
      <use x="285.890625" xlink:href="#DejaVuSans-101"/>
      <use x="347.414062" xlink:href="#DejaVuSans-100"/>
      <use x="410.890625" xlink:href="#DejaVuSans-32"/>
      <use x="442.677734" xlink:href="#DejaVuSans-86"/>
      <use x="510.976562" xlink:href="#DejaVuSans-97"/>
      <use x="572.255859" xlink:href="#DejaVuSans-108"/>
      <use x="600.039062" xlink:href="#DejaVuSans-117"/>
      <use x="663.417969" xlink:href="#DejaVuSans-101"/>
      <use x="724.941406" xlink:href="#DejaVuSans-115"/>
     </g>
    </g>
   </g>
   <g id="line2d_15">
    <defs>
     <path d="M 0 3 
C 0.795609 3 1.55874 2.683901 2.12132 2.12132 
C 2.683901 1.55874 3 0.795609 3 0 
C 3 -0.795609 2.683901 -1.55874 2.12132 -2.12132 
C 1.55874 -2.683901 0.795609 -3 0 -3 
C -0.795609 -3 -1.55874 -2.683901 -2.12132 -2.12132 
C -2.683901 -1.55874 -3 -0.795609 -3 0 
C -3 0.795609 -2.683901 1.55874 -2.12132 2.12132 
C -1.55874 2.683901 -0.795609 3 0 3 
z
" id="mf1ce8e39bb" style="stroke:#0000ff;"/>
    </defs>
    <g clip-path="url(#pa39ea39e33)">
     <use style="fill:#0000ff;stroke:#0000ff;" x="69.218182" xlink:href="#mf1ce8e39bb" y="246.24"/>
     <use style="fill:#0000ff;stroke:#0000ff;" x="86.864233" xlink:href="#mf1ce8e39bb" y="233.552555"/>
     <use style="fill:#0000ff;stroke:#0000ff;" x="96.888647" xlink:href="#mf1ce8e39bb" y="218.202847"/>
     <use style="fill:#0000ff;stroke:#0000ff;" x="104.049328" xlink:href="#mf1ce8e39bb" y="215.273969"/>
     <use style="fill:#0000ff;stroke:#0000ff;" x="109.694495" xlink:href="#mf1ce8e39bb" y="213.249671"/>
     <use style="fill:#0000ff;stroke:#0000ff;" x="114.392586" xlink:href="#mf1ce8e39bb" y="209.32833"/>
     <use style="fill:#0000ff;stroke:#0000ff;" x="118.439224" xlink:href="#mf1ce8e39bb" y="196.735267"/>
     <use style="fill:#0000ff;stroke:#0000ff;" x="122.008628" xlink:href="#mf1ce8e39bb" y="195.341253"/>
     <use style="fill:#0000ff;stroke:#0000ff;" x="125.212463" xlink:href="#mf1ce8e39bb" y="193.80629"/>
     <use style="fill:#0000ff;stroke:#0000ff;" x="128.126768" xlink:href="#mf1ce8e39bb" y="192.910486"/>
     <use style="fill:#0000ff;stroke:#0000ff;" x="130.805756" xlink:href="#mf1ce8e39bb" y="191.05704"/>
     <use style="fill:#0000ff;stroke:#0000ff;" x="133.289494" xlink:href="#mf1ce8e39bb" y="190.679982"/>
     <use style="fill:#0000ff;stroke:#0000ff;" x="135.608469" xlink:href="#mf1ce8e39bb" y="183.991931"/>
     <use style="fill:#0000ff;stroke:#0000ff;" x="137.786437" xlink:href="#mf1ce8e39bb" y="182.410489"/>
     <use style="fill:#0000ff;stroke:#0000ff;" x="139.842286" xlink:href="#mf1ce8e39bb" y="181.656652"/>
     <use style="fill:#0000ff;stroke:#0000ff;" x="141.791292" xlink:href="#mf1ce8e39bb" y="181.539045"/>
     <use style="fill:#0000ff;stroke:#0000ff;" x="143.645995" xlink:href="#mf1ce8e39bb" y="180.847683"/>
     <use style="fill:#0000ff;stroke:#0000ff;" x="145.416816" xlink:href="#mf1ce8e39bb" y="180.772343"/>
     <use style="fill:#0000ff;stroke:#0000ff;" x="147.112518" xlink:href="#mf1ce8e39bb" y="180.523286"/>
     <use style="fill:#0000ff;stroke:#0000ff;" x="148.740543" xlink:href="#mf1ce8e39bb" y="179.357896"/>
     <use style="fill:#0000ff;stroke:#0000ff;" x="150.307265" xlink:href="#mf1ce8e39bb" y="179.234688"/>
     <use style="fill:#0000ff;stroke:#0000ff;" x="151.818188" xlink:href="#mf1ce8e39bb" y="178.872024"/>
     <use style="fill:#0000ff;stroke:#0000ff;" x="153.278101" xlink:href="#mf1ce8e39bb" y="178.279719"/>
     <use style="fill:#0000ff;stroke:#0000ff;" x="154.691195" xlink:href="#mf1ce8e39bb" y="177.966889"/>
     <use style="fill:#0000ff;stroke:#0000ff;" x="156.061164" xlink:href="#mf1ce8e39bb" y="177.191588"/>
     <use style="fill:#0000ff;stroke:#0000ff;" x="157.391276" xlink:href="#mf1ce8e39bb" y="176.651933"/>
     <use style="fill:#0000ff;stroke:#0000ff;" x="158.684441" xlink:href="#mf1ce8e39bb" y="176.323161"/>
     <use style="fill:#0000ff;stroke:#0000ff;" x="159.943261" xlink:href="#mf1ce8e39bb" y="174.642865"/>
     <use style="fill:#0000ff;stroke:#0000ff;" x="161.170072" xlink:href="#mf1ce8e39bb" y="174.349636"/>
     <use style="fill:#0000ff;stroke:#0000ff;" x="162.366979" xlink:href="#mf1ce8e39bb" y="173.299546"/>
     <use style="fill:#0000ff;stroke:#0000ff;" x="163.535888" xlink:href="#mf1ce8e39bb" y="173.163949"/>
     <use style="fill:#0000ff;stroke:#0000ff;" x="164.67853" xlink:href="#mf1ce8e39bb" y="173.035895"/>
     <use style="fill:#0000ff;stroke:#0000ff;" x="165.796479" xlink:href="#mf1ce8e39bb" y="172.781037"/>
     <use style="fill:#0000ff;stroke:#0000ff;" x="166.891176" xlink:href="#mf1ce8e39bb" y="171.86049"/>
     <use style="fill:#0000ff;stroke:#0000ff;" x="167.963939" xlink:href="#mf1ce8e39bb" y="171.844981"/>
     <use style="fill:#0000ff;stroke:#0000ff;" x="169.015981" xlink:href="#mf1ce8e39bb" y="171.579003"/>
     <use style="fill:#0000ff;stroke:#0000ff;" x="170.048418" xlink:href="#mf1ce8e39bb" y="171.222351"/>
     <use style="fill:#0000ff;stroke:#0000ff;" x="171.06228" xlink:href="#mf1ce8e39bb" y="170.372783"/>
     <use style="fill:#0000ff;stroke:#0000ff;" x="172.058519" xlink:href="#mf1ce8e39bb" y="169.008931"/>
     <use style="fill:#0000ff;stroke:#0000ff;" x="173.038021" xlink:href="#mf1ce8e39bb" y="168.550709"/>
     <use style="fill:#0000ff;stroke:#0000ff;" x="174.001606" xlink:href="#mf1ce8e39bb" y="168.48855"/>
     <use style="fill:#0000ff;stroke:#0000ff;" x="174.95004" xlink:href="#mf1ce8e39bb" y="168.105548"/>
     <use style="fill:#0000ff;stroke:#0000ff;" x="175.884034" xlink:href="#mf1ce8e39bb" y="167.882416"/>
     <use style="fill:#0000ff;stroke:#0000ff;" x="176.804256" xlink:href="#mf1ce8e39bb" y="167.613668"/>
     <use style="fill:#0000ff;stroke:#0000ff;" x="177.711329" xlink:href="#mf1ce8e39bb" y="167.059101"/>
     <use style="fill:#0000ff;stroke:#0000ff;" x="178.605837" xlink:href="#mf1ce8e39bb" y="167.021456"/>
     <use style="fill:#0000ff;stroke:#0000ff;" x="179.48833" xlink:href="#mf1ce8e39bb" y="166.675432"/>
     <use style="fill:#0000ff;stroke:#0000ff;" x="180.359322" xlink:href="#mf1ce8e39bb" y="165.780727"/>
     <use style="fill:#0000ff;stroke:#0000ff;" x="181.219301" xlink:href="#mf1ce8e39bb" y="165.551491"/>
     <use style="fill:#0000ff;stroke:#0000ff;" x="182.068724" xlink:href="#mf1ce8e39bb" y="165.299014"/>
     <use style="fill:#0000ff;stroke:#0000ff;" x="182.908023" xlink:href="#mf1ce8e39bb" y="164.567975"/>
     <use style="fill:#0000ff;stroke:#0000ff;" x="183.737607" xlink:href="#mf1ce8e39bb" y="164.065076"/>
     <use style="fill:#0000ff;stroke:#0000ff;" x="184.557863" xlink:href="#mf1ce8e39bb" y="162.645827"/>
     <use style="fill:#0000ff;stroke:#0000ff;" x="185.369158" xlink:href="#mf1ce8e39bb" y="162.449597"/>
     <use style="fill:#0000ff;stroke:#0000ff;" x="186.171839" xlink:href="#mf1ce8e39bb" y="162.334075"/>
     <use style="fill:#0000ff;stroke:#0000ff;" x="186.966238" xlink:href="#mf1ce8e39bb" y="162.243476"/>
     <use style="fill:#0000ff;stroke:#0000ff;" x="187.752667" xlink:href="#mf1ce8e39bb" y="161.468901"/>
     <use style="fill:#0000ff;stroke:#0000ff;" x="188.531426" xlink:href="#mf1ce8e39bb" y="160.655521"/>
     <use style="fill:#0000ff;stroke:#0000ff;" x="189.3028" xlink:href="#mf1ce8e39bb" y="160.45717"/>
     <use style="fill:#0000ff;stroke:#0000ff;" x="190.06706" xlink:href="#mf1ce8e39bb" y="160.071367"/>
     <use style="fill:#0000ff;stroke:#0000ff;" x="190.824466" xlink:href="#mf1ce8e39bb" y="159.865541"/>
     <use style="fill:#0000ff;stroke:#0000ff;" x="191.575264" xlink:href="#mf1ce8e39bb" y="159.590639"/>
     <use style="fill:#0000ff;stroke:#0000ff;" x="192.319694" xlink:href="#mf1ce8e39bb" y="159.409176"/>
     <use style="fill:#0000ff;stroke:#0000ff;" x="193.05798" xlink:href="#mf1ce8e39bb" y="159.274793"/>
     <use style="fill:#0000ff;stroke:#0000ff;" x="193.79034" xlink:href="#mf1ce8e39bb" y="158.002193"/>
     <use style="fill:#0000ff;stroke:#0000ff;" x="194.516984" xlink:href="#mf1ce8e39bb" y="157.867096"/>
     <use style="fill:#0000ff;stroke:#0000ff;" x="195.23811" xlink:href="#mf1ce8e39bb" y="157.524658"/>
     <use style="fill:#0000ff;stroke:#0000ff;" x="195.953911" xlink:href="#mf1ce8e39bb" y="156.915454"/>
     <use style="fill:#0000ff;stroke:#0000ff;" x="196.664571" xlink:href="#mf1ce8e39bb" y="156.492404"/>
     <use style="fill:#0000ff;stroke:#0000ff;" x="197.370268" xlink:href="#mf1ce8e39bb" y="156.175204"/>
     <use style="fill:#0000ff;stroke:#0000ff;" x="198.071174" xlink:href="#mf1ce8e39bb" y="155.999575"/>
     <use style="fill:#0000ff;stroke:#0000ff;" x="198.767453" xlink:href="#mf1ce8e39bb" y="155.989484"/>
     <use style="fill:#0000ff;stroke:#0000ff;" x="199.459263" xlink:href="#mf1ce8e39bb" y="155.852162"/>
     <use style="fill:#0000ff;stroke:#0000ff;" x="200.14676" xlink:href="#mf1ce8e39bb" y="155.79061"/>
     <use style="fill:#0000ff;stroke:#0000ff;" x="200.830089" xlink:href="#mf1ce8e39bb" y="154.877618"/>
     <use style="fill:#0000ff;stroke:#0000ff;" x="201.509395" xlink:href="#mf1ce8e39bb" y="154.531321"/>
     <use style="fill:#0000ff;stroke:#0000ff;" x="202.184817" xlink:href="#mf1ce8e39bb" y="153.182436"/>
     <use style="fill:#0000ff;stroke:#0000ff;" x="202.856487" xlink:href="#mf1ce8e39bb" y="152.947792"/>
     <use style="fill:#0000ff;stroke:#0000ff;" x="203.524537" xlink:href="#mf1ce8e39bb" y="152.811847"/>
     <use style="fill:#0000ff;stroke:#0000ff;" x="204.189091" xlink:href="#mf1ce8e39bb" y="152.460793"/>
     <use style="fill:#0000ff;stroke:#0000ff;" x="204.850272" xlink:href="#mf1ce8e39bb" y="152.386156"/>
     <use style="fill:#0000ff;stroke:#0000ff;" x="205.508198" xlink:href="#mf1ce8e39bb" y="152.219376"/>
     <use style="fill:#0000ff;stroke:#0000ff;" x="206.162985" xlink:href="#mf1ce8e39bb" y="151.879516"/>
     <use style="fill:#0000ff;stroke:#0000ff;" x="206.814744" xlink:href="#mf1ce8e39bb" y="151.803203"/>
     <use style="fill:#0000ff;stroke:#0000ff;" x="207.463584" xlink:href="#mf1ce8e39bb" y="151.619348"/>
     <use style="fill:#0000ff;stroke:#0000ff;" x="208.109611" xlink:href="#mf1ce8e39bb" y="151.610229"/>
     <use style="fill:#0000ff;stroke:#0000ff;" x="208.752927" xlink:href="#mf1ce8e39bb" y="151.601126"/>
     <use style="fill:#0000ff;stroke:#0000ff;" x="209.393635" xlink:href="#mf1ce8e39bb" y="151.051334"/>
     <use style="fill:#0000ff;stroke:#0000ff;" x="210.03183" xlink:href="#mf1ce8e39bb" y="150.549521"/>
     <use style="fill:#0000ff;stroke:#0000ff;" x="210.66761" xlink:href="#mf1ce8e39bb" y="150.49721"/>
     <use style="fill:#0000ff;stroke:#0000ff;" x="211.301067" xlink:href="#mf1ce8e39bb" y="150.425272"/>
     <use style="fill:#0000ff;stroke:#0000ff;" x="211.932294" xlink:href="#mf1ce8e39bb" y="149.805717"/>
     <use style="fill:#0000ff;stroke:#0000ff;" x="212.561378" xlink:href="#mf1ce8e39bb" y="149.773586"/>
     <use style="fill:#0000ff;stroke:#0000ff;" x="213.188409" xlink:href="#mf1ce8e39bb" y="149.336082"/>
     <use style="fill:#0000ff;stroke:#0000ff;" x="213.81347" xlink:href="#mf1ce8e39bb" y="149.176206"/>
     <use style="fill:#0000ff;stroke:#0000ff;" x="214.436647" xlink:href="#mf1ce8e39bb" y="149.159619"/>
     <use style="fill:#0000ff;stroke:#0000ff;" x="215.058021" xlink:href="#mf1ce8e39bb" y="148.945261"/>
     <use style="fill:#0000ff;stroke:#0000ff;" x="215.677673" xlink:href="#mf1ce8e39bb" y="148.714831"/>
     <use style="fill:#0000ff;stroke:#0000ff;" x="216.295683" xlink:href="#mf1ce8e39bb" y="148.509705"/>
     <use style="fill:#0000ff;stroke:#0000ff;" x="216.912128" xlink:href="#mf1ce8e39bb" y="148.397698"/>
     <use style="fill:#0000ff;stroke:#0000ff;" x="217.527085" xlink:href="#mf1ce8e39bb" y="148.05247"/>
     <use style="fill:#0000ff;stroke:#0000ff;" x="218.14063" xlink:href="#mf1ce8e39bb" y="147.865795"/>
     <use style="fill:#0000ff;stroke:#0000ff;" x="218.752837" xlink:href="#mf1ce8e39bb" y="147.47577"/>
     <use style="fill:#0000ff;stroke:#0000ff;" x="219.363778" xlink:href="#mf1ce8e39bb" y="147.271866"/>
     <use style="fill:#0000ff;stroke:#0000ff;" x="219.973526" xlink:href="#mf1ce8e39bb" y="146.899161"/>
     <use style="fill:#0000ff;stroke:#0000ff;" x="220.582153" xlink:href="#mf1ce8e39bb" y="146.761694"/>
     <use style="fill:#0000ff;stroke:#0000ff;" x="221.189729" xlink:href="#mf1ce8e39bb" y="146.595225"/>
     <use style="fill:#0000ff;stroke:#0000ff;" x="221.796323" xlink:href="#mf1ce8e39bb" y="146.21926"/>
     <use style="fill:#0000ff;stroke:#0000ff;" x="222.402004" xlink:href="#mf1ce8e39bb" y="145.973771"/>
     <use style="fill:#0000ff;stroke:#0000ff;" x="223.00684" xlink:href="#mf1ce8e39bb" y="145.774023"/>
     <use style="fill:#0000ff;stroke:#0000ff;" x="223.610898" xlink:href="#mf1ce8e39bb" y="145.421968"/>
     <use style="fill:#0000ff;stroke:#0000ff;" x="224.214246" xlink:href="#mf1ce8e39bb" y="145.206666"/>
     <use style="fill:#0000ff;stroke:#0000ff;" x="224.81695" xlink:href="#mf1ce8e39bb" y="144.779515"/>
     <use style="fill:#0000ff;stroke:#0000ff;" x="225.419075" xlink:href="#mf1ce8e39bb" y="144.585619"/>
     <use style="fill:#0000ff;stroke:#0000ff;" x="226.020687" xlink:href="#mf1ce8e39bb" y="144.554607"/>
     <use style="fill:#0000ff;stroke:#0000ff;" x="226.621851" xlink:href="#mf1ce8e39bb" y="144.548484"/>
     <use style="fill:#0000ff;stroke:#0000ff;" x="227.222632" xlink:href="#mf1ce8e39bb" y="144.305156"/>
     <use style="fill:#0000ff;stroke:#0000ff;" x="227.823093" xlink:href="#mf1ce8e39bb" y="144.237792"/>
     <use style="fill:#0000ff;stroke:#0000ff;" x="228.423299" xlink:href="#mf1ce8e39bb" y="144.225694"/>
     <use style="fill:#0000ff;stroke:#0000ff;" x="229.023314" xlink:href="#mf1ce8e39bb" y="143.909196"/>
     <use style="fill:#0000ff;stroke:#0000ff;" x="229.623202" xlink:href="#mf1ce8e39bb" y="143.60008"/>
     <use style="fill:#0000ff;stroke:#0000ff;" x="230.223026" xlink:href="#mf1ce8e39bb" y="143.244867"/>
     <use style="fill:#0000ff;stroke:#0000ff;" x="230.82285" xlink:href="#mf1ce8e39bb" y="143.223226"/>
     <use style="fill:#0000ff;stroke:#0000ff;" x="231.422737" xlink:href="#mf1ce8e39bb" y="143.212628"/>
     <use style="fill:#0000ff;stroke:#0000ff;" x="232.022752" xlink:href="#mf1ce8e39bb" y="143.045277"/>
     <use style="fill:#0000ff;stroke:#0000ff;" x="232.622958" xlink:href="#mf1ce8e39bb" y="142.99426"/>
     <use style="fill:#0000ff;stroke:#0000ff;" x="233.22342" xlink:href="#mf1ce8e39bb" y="142.990393"/>
     <use style="fill:#0000ff;stroke:#0000ff;" x="233.8242" xlink:href="#mf1ce8e39bb" y="142.907298"/>
     <use style="fill:#0000ff;stroke:#0000ff;" x="234.425364" xlink:href="#mf1ce8e39bb" y="142.816341"/>
     <use style="fill:#0000ff;stroke:#0000ff;" x="235.026976" xlink:href="#mf1ce8e39bb" y="142.797291"/>
     <use style="fill:#0000ff;stroke:#0000ff;" x="235.629101" xlink:href="#mf1ce8e39bb" y="142.795421"/>
     <use style="fill:#0000ff;stroke:#0000ff;" x="236.231805" xlink:href="#mf1ce8e39bb" y="142.595776"/>
     <use style="fill:#0000ff;stroke:#0000ff;" x="236.835153" xlink:href="#mf1ce8e39bb" y="141.6705"/>
     <use style="fill:#0000ff;stroke:#0000ff;" x="237.439211" xlink:href="#mf1ce8e39bb" y="141.6705"/>
     <use style="fill:#0000ff;stroke:#0000ff;" x="238.044047" xlink:href="#mf1ce8e39bb" y="141.6705"/>
     <use style="fill:#0000ff;stroke:#0000ff;" x="238.649728" xlink:href="#mf1ce8e39bb" y="141.6705"/>
     <use style="fill:#0000ff;stroke:#0000ff;" x="239.256322" xlink:href="#mf1ce8e39bb" y="141.6705"/>
     <use style="fill:#0000ff;stroke:#0000ff;" x="239.863898" xlink:href="#mf1ce8e39bb" y="141.6705"/>
     <use style="fill:#0000ff;stroke:#0000ff;" x="240.472525" xlink:href="#mf1ce8e39bb" y="140.430307"/>
     <use style="fill:#0000ff;stroke:#0000ff;" x="241.082273" xlink:href="#mf1ce8e39bb" y="140.426894"/>
     <use style="fill:#0000ff;stroke:#0000ff;" x="241.693215" xlink:href="#mf1ce8e39bb" y="140.385636"/>
     <use style="fill:#0000ff;stroke:#0000ff;" x="242.305421" xlink:href="#mf1ce8e39bb" y="140.345445"/>
     <use style="fill:#0000ff;stroke:#0000ff;" x="242.918966" xlink:href="#mf1ce8e39bb" y="140.338937"/>
     <use style="fill:#0000ff;stroke:#0000ff;" x="243.533923" xlink:href="#mf1ce8e39bb" y="140.331042"/>
     <use style="fill:#0000ff;stroke:#0000ff;" x="244.150368" xlink:href="#mf1ce8e39bb" y="139.738168"/>
     <use style="fill:#0000ff;stroke:#0000ff;" x="244.768378" xlink:href="#mf1ce8e39bb" y="139.52057"/>
     <use style="fill:#0000ff;stroke:#0000ff;" x="245.38803" xlink:href="#mf1ce8e39bb" y="139.043502"/>
     <use style="fill:#0000ff;stroke:#0000ff;" x="246.009404" xlink:href="#mf1ce8e39bb" y="138.970239"/>
     <use style="fill:#0000ff;stroke:#0000ff;" x="246.632581" xlink:href="#mf1ce8e39bb" y="138.806703"/>
     <use style="fill:#0000ff;stroke:#0000ff;" x="247.257642" xlink:href="#mf1ce8e39bb" y="138.191807"/>
     <use style="fill:#0000ff;stroke:#0000ff;" x="247.884673" xlink:href="#mf1ce8e39bb" y="137.922489"/>
     <use style="fill:#0000ff;stroke:#0000ff;" x="248.513757" xlink:href="#mf1ce8e39bb" y="137.873495"/>
     <use style="fill:#0000ff;stroke:#0000ff;" x="249.144984" xlink:href="#mf1ce8e39bb" y="137.703093"/>
     <use style="fill:#0000ff;stroke:#0000ff;" x="249.778441" xlink:href="#mf1ce8e39bb" y="137.554516"/>
     <use style="fill:#0000ff;stroke:#0000ff;" x="250.414221" xlink:href="#mf1ce8e39bb" y="137.339731"/>
     <use style="fill:#0000ff;stroke:#0000ff;" x="251.052417" xlink:href="#mf1ce8e39bb" y="137.106424"/>
     <use style="fill:#0000ff;stroke:#0000ff;" x="251.693124" xlink:href="#mf1ce8e39bb" y="137.038846"/>
     <use style="fill:#0000ff;stroke:#0000ff;" x="252.33644" xlink:href="#mf1ce8e39bb" y="136.996256"/>
     <use style="fill:#0000ff;stroke:#0000ff;" x="252.982467" xlink:href="#mf1ce8e39bb" y="136.727817"/>
     <use style="fill:#0000ff;stroke:#0000ff;" x="253.631307" xlink:href="#mf1ce8e39bb" y="136.55529"/>
     <use style="fill:#0000ff;stroke:#0000ff;" x="254.283066" xlink:href="#mf1ce8e39bb" y="136.540772"/>
     <use style="fill:#0000ff;stroke:#0000ff;" x="254.937853" xlink:href="#mf1ce8e39bb" y="136.232062"/>
     <use style="fill:#0000ff;stroke:#0000ff;" x="255.595779" xlink:href="#mf1ce8e39bb" y="136.176961"/>
     <use style="fill:#0000ff;stroke:#0000ff;" x="256.25696" xlink:href="#mf1ce8e39bb" y="135.78712"/>
     <use style="fill:#0000ff;stroke:#0000ff;" x="256.921515" xlink:href="#mf1ce8e39bb" y="134.92097"/>
     <use style="fill:#0000ff;stroke:#0000ff;" x="257.589564" xlink:href="#mf1ce8e39bb" y="134.858788"/>
     <use style="fill:#0000ff;stroke:#0000ff;" x="258.261235" xlink:href="#mf1ce8e39bb" y="134.303486"/>
     <use style="fill:#0000ff;stroke:#0000ff;" x="258.936656" xlink:href="#mf1ce8e39bb" y="133.673269"/>
     <use style="fill:#0000ff;stroke:#0000ff;" x="259.615962" xlink:href="#mf1ce8e39bb" y="133.641691"/>
     <use style="fill:#0000ff;stroke:#0000ff;" x="260.299292" xlink:href="#mf1ce8e39bb" y="132.858817"/>
     <use style="fill:#0000ff;stroke:#0000ff;" x="260.986788" xlink:href="#mf1ce8e39bb" y="132.496012"/>
     <use style="fill:#0000ff;stroke:#0000ff;" x="261.678598" xlink:href="#mf1ce8e39bb" y="132.224294"/>
     <use style="fill:#0000ff;stroke:#0000ff;" x="262.374877" xlink:href="#mf1ce8e39bb" y="132.21331"/>
     <use style="fill:#0000ff;stroke:#0000ff;" x="263.075783" xlink:href="#mf1ce8e39bb" y="131.638821"/>
     <use style="fill:#0000ff;stroke:#0000ff;" x="263.78148" xlink:href="#mf1ce8e39bb" y="131.456599"/>
     <use style="fill:#0000ff;stroke:#0000ff;" x="264.492141" xlink:href="#mf1ce8e39bb" y="131.028454"/>
     <use style="fill:#0000ff;stroke:#0000ff;" x="265.207941" xlink:href="#mf1ce8e39bb" y="130.694544"/>
     <use style="fill:#0000ff;stroke:#0000ff;" x="265.929067" xlink:href="#mf1ce8e39bb" y="129.119291"/>
     <use style="fill:#0000ff;stroke:#0000ff;" x="266.655711" xlink:href="#mf1ce8e39bb" y="128.354875"/>
     <use style="fill:#0000ff;stroke:#0000ff;" x="267.388071" xlink:href="#mf1ce8e39bb" y="128.237314"/>
     <use style="fill:#0000ff;stroke:#0000ff;" x="268.126358" xlink:href="#mf1ce8e39bb" y="128.222776"/>
     <use style="fill:#0000ff;stroke:#0000ff;" x="268.870787" xlink:href="#mf1ce8e39bb" y="128.209422"/>
     <use style="fill:#0000ff;stroke:#0000ff;" x="269.621586" xlink:href="#mf1ce8e39bb" y="127.401757"/>
     <use style="fill:#0000ff;stroke:#0000ff;" x="270.378991" xlink:href="#mf1ce8e39bb" y="127.063489"/>
     <use style="fill:#0000ff;stroke:#0000ff;" x="271.143251" xlink:href="#mf1ce8e39bb" y="126.49665"/>
     <use style="fill:#0000ff;stroke:#0000ff;" x="271.914625" xlink:href="#mf1ce8e39bb" y="126.231655"/>
     <use style="fill:#0000ff;stroke:#0000ff;" x="272.693384" xlink:href="#mf1ce8e39bb" y="125.676039"/>
     <use style="fill:#0000ff;stroke:#0000ff;" x="273.479813" xlink:href="#mf1ce8e39bb" y="125.351913"/>
     <use style="fill:#0000ff;stroke:#0000ff;" x="274.274212" xlink:href="#mf1ce8e39bb" y="125.322392"/>
     <use style="fill:#0000ff;stroke:#0000ff;" x="275.076893" xlink:href="#mf1ce8e39bb" y="125.170596"/>
     <use style="fill:#0000ff;stroke:#0000ff;" x="275.888188" xlink:href="#mf1ce8e39bb" y="124.131287"/>
     <use style="fill:#0000ff;stroke:#0000ff;" x="276.708444" xlink:href="#mf1ce8e39bb" y="122.964926"/>
     <use style="fill:#0000ff;stroke:#0000ff;" x="277.538029" xlink:href="#mf1ce8e39bb" y="122.75612"/>
     <use style="fill:#0000ff;stroke:#0000ff;" x="278.377328" xlink:href="#mf1ce8e39bb" y="121.957105"/>
     <use style="fill:#0000ff;stroke:#0000ff;" x="279.22675" xlink:href="#mf1ce8e39bb" y="121.814095"/>
     <use style="fill:#0000ff;stroke:#0000ff;" x="280.086729" xlink:href="#mf1ce8e39bb" y="121.754532"/>
     <use style="fill:#0000ff;stroke:#0000ff;" x="280.957721" xlink:href="#mf1ce8e39bb" y="121.154361"/>
     <use style="fill:#0000ff;stroke:#0000ff;" x="281.840214" xlink:href="#mf1ce8e39bb" y="121.11269"/>
     <use style="fill:#0000ff;stroke:#0000ff;" x="282.734722" xlink:href="#mf1ce8e39bb" y="120.740418"/>
     <use style="fill:#0000ff;stroke:#0000ff;" x="283.641795" xlink:href="#mf1ce8e39bb" y="120.407275"/>
     <use style="fill:#0000ff;stroke:#0000ff;" x="284.562017" xlink:href="#mf1ce8e39bb" y="120.154141"/>
     <use style="fill:#0000ff;stroke:#0000ff;" x="285.496011" xlink:href="#mf1ce8e39bb" y="119.544142"/>
     <use style="fill:#0000ff;stroke:#0000ff;" x="286.444445" xlink:href="#mf1ce8e39bb" y="118.299283"/>
     <use style="fill:#0000ff;stroke:#0000ff;" x="287.40803" xlink:href="#mf1ce8e39bb" y="116.660711"/>
     <use style="fill:#0000ff;stroke:#0000ff;" x="288.387532" xlink:href="#mf1ce8e39bb" y="116.591303"/>
     <use style="fill:#0000ff;stroke:#0000ff;" x="289.383772" xlink:href="#mf1ce8e39bb" y="116.225387"/>
     <use style="fill:#0000ff;stroke:#0000ff;" x="290.397633" xlink:href="#mf1ce8e39bb" y="115.836397"/>
     <use style="fill:#0000ff;stroke:#0000ff;" x="291.43007" xlink:href="#mf1ce8e39bb" y="115.395898"/>
     <use style="fill:#0000ff;stroke:#0000ff;" x="292.482112" xlink:href="#mf1ce8e39bb" y="114.239864"/>
     <use style="fill:#0000ff;stroke:#0000ff;" x="293.554875" xlink:href="#mf1ce8e39bb" y="112.436583"/>
     <use style="fill:#0000ff;stroke:#0000ff;" x="294.649572" xlink:href="#mf1ce8e39bb" y="111.576674"/>
     <use style="fill:#0000ff;stroke:#0000ff;" x="295.767521" xlink:href="#mf1ce8e39bb" y="110.974608"/>
     <use style="fill:#0000ff;stroke:#0000ff;" x="296.910163" xlink:href="#mf1ce8e39bb" y="110.923751"/>
     <use style="fill:#0000ff;stroke:#0000ff;" x="298.079072" xlink:href="#mf1ce8e39bb" y="109.744363"/>
     <use style="fill:#0000ff;stroke:#0000ff;" x="299.275979" xlink:href="#mf1ce8e39bb" y="109.127753"/>
     <use style="fill:#0000ff;stroke:#0000ff;" x="300.50279" xlink:href="#mf1ce8e39bb" y="107.694366"/>
     <use style="fill:#0000ff;stroke:#0000ff;" x="301.76161" xlink:href="#mf1ce8e39bb" y="107.029163"/>
     <use style="fill:#0000ff;stroke:#0000ff;" x="303.054775" xlink:href="#mf1ce8e39bb" y="106.810169"/>
     <use style="fill:#0000ff;stroke:#0000ff;" x="304.384887" xlink:href="#mf1ce8e39bb" y="106.796671"/>
     <use style="fill:#0000ff;stroke:#0000ff;" x="305.754856" xlink:href="#mf1ce8e39bb" y="106.60325"/>
     <use style="fill:#0000ff;stroke:#0000ff;" x="307.167951" xlink:href="#mf1ce8e39bb" y="105.762405"/>
     <use style="fill:#0000ff;stroke:#0000ff;" x="308.627863" xlink:href="#mf1ce8e39bb" y="105.722728"/>
     <use style="fill:#0000ff;stroke:#0000ff;" x="310.138787" xlink:href="#mf1ce8e39bb" y="102.544385"/>
     <use style="fill:#0000ff;stroke:#0000ff;" x="311.705508" xlink:href="#mf1ce8e39bb" y="101.947992"/>
     <use style="fill:#0000ff;stroke:#0000ff;" x="313.333533" xlink:href="#mf1ce8e39bb" y="101.877462"/>
     <use style="fill:#0000ff;stroke:#0000ff;" x="315.029235" xlink:href="#mf1ce8e39bb" y="101.253304"/>
     <use style="fill:#0000ff;stroke:#0000ff;" x="316.800056" xlink:href="#mf1ce8e39bb" y="95.543774"/>
     <use style="fill:#0000ff;stroke:#0000ff;" x="318.654759" xlink:href="#mf1ce8e39bb" y="94.993762"/>
     <use style="fill:#0000ff;stroke:#0000ff;" x="320.603766" xlink:href="#mf1ce8e39bb" y="93.430978"/>
     <use style="fill:#0000ff;stroke:#0000ff;" x="322.659615" xlink:href="#mf1ce8e39bb" y="93.004341"/>
     <use style="fill:#0000ff;stroke:#0000ff;" x="324.837582" xlink:href="#mf1ce8e39bb" y="92.538816"/>
     <use style="fill:#0000ff;stroke:#0000ff;" x="327.156557" xlink:href="#mf1ce8e39bb" y="92.467938"/>
     <use style="fill:#0000ff;stroke:#0000ff;" x="329.640295" xlink:href="#mf1ce8e39bb" y="89.708495"/>
     <use style="fill:#0000ff;stroke:#0000ff;" x="332.319283" xlink:href="#mf1ce8e39bb" y="87.611454"/>
     <use style="fill:#0000ff;stroke:#0000ff;" x="335.233588" xlink:href="#mf1ce8e39bb" y="87.113542"/>
     <use style="fill:#0000ff;stroke:#0000ff;" x="338.437423" xlink:href="#mf1ce8e39bb" y="83.755222"/>
     <use style="fill:#0000ff;stroke:#0000ff;" x="342.006827" xlink:href="#mf1ce8e39bb" y="83.36811"/>
     <use style="fill:#0000ff;stroke:#0000ff;" x="346.053465" xlink:href="#mf1ce8e39bb" y="82.666878"/>
     <use style="fill:#0000ff;stroke:#0000ff;" x="350.751556" xlink:href="#mf1ce8e39bb" y="81.180292"/>
     <use style="fill:#0000ff;stroke:#0000ff;" x="356.396723" xlink:href="#mf1ce8e39bb" y="76.645048"/>
     <use style="fill:#0000ff;stroke:#0000ff;" x="363.557404" xlink:href="#mf1ce8e39bb" y="51.660046"/>
     <use style="fill:#0000ff;stroke:#0000ff;" x="373.581818" xlink:href="#mf1ce8e39bb" y="44.64"/>
    </g>
   </g>
   <g id="line2d_16">
    <path clip-path="url(#pa39ea39e33)" d="M 0 0 
" style="fill:none;stroke:#ff0000;stroke-linecap:square;stroke-width:1.5;"/>
   </g>
   <g id="patch_3">
    <path d="M 54 256.32 
L 54 34.56 
" style="fill:none;stroke:#000000;stroke-linecap:square;stroke-linejoin:miter;stroke-width:0.8;"/>
   </g>
   <g id="patch_4">
    <path d="M 388.8 256.32 
L 388.8 34.56 
" style="fill:none;stroke:#000000;stroke-linecap:square;stroke-linejoin:miter;stroke-width:0.8;"/>
   </g>
   <g id="patch_5">
    <path d="M 54 256.32 
L 388.8 256.32 
" style="fill:none;stroke:#000000;stroke-linecap:square;stroke-linejoin:miter;stroke-width:0.8;"/>
   </g>
   <g id="patch_6">
    <path d="M 54 34.56 
L 388.8 34.56 
" style="fill:none;stroke:#000000;stroke-linecap:square;stroke-linejoin:miter;stroke-width:0.8;"/>
   </g>
   <g id="text_17">
    <!-- Probability Plot -->
    <defs>
     <path d="M 19.671875 64.796875 
L 19.671875 37.40625 
L 32.078125 37.40625 
Q 38.96875 37.40625 42.71875 40.96875 
Q 46.484375 44.53125 46.484375 51.125 
Q 46.484375 57.671875 42.71875 61.234375 
Q 38.96875 64.796875 32.078125 64.796875 
z
M 9.8125 72.90625 
L 32.078125 72.90625 
Q 44.34375 72.90625 50.609375 67.359375 
Q 56.890625 61.8125 56.890625 51.125 
Q 56.890625 40.328125 50.609375 34.8125 
Q 44.34375 29.296875 32.078125 29.296875 
L 19.671875 29.296875 
L 19.671875 0 
L 9.8125 0 
z
" id="DejaVuSans-80"/>
     <path d="M 48.6875 27.296875 
Q 48.6875 37.203125 44.609375 42.84375 
Q 40.53125 48.484375 33.40625 48.484375 
Q 26.265625 48.484375 22.1875 42.84375 
Q 18.109375 37.203125 18.109375 27.296875 
Q 18.109375 17.390625 22.1875 11.75 
Q 26.265625 6.109375 33.40625 6.109375 
Q 40.53125 6.109375 44.609375 11.75 
Q 48.6875 17.390625 48.6875 27.296875 
z
M 18.109375 46.390625 
Q 20.953125 51.265625 25.265625 53.625 
Q 29.59375 56 35.59375 56 
Q 45.5625 56 51.78125 48.09375 
Q 58.015625 40.1875 58.015625 27.296875 
Q 58.015625 14.40625 51.78125 6.484375 
Q 45.5625 -1.421875 35.59375 -1.421875 
Q 29.59375 -1.421875 25.265625 0.953125 
Q 20.953125 3.328125 18.109375 8.203125 
L 18.109375 0 
L 9.078125 0 
L 9.078125 75.984375 
L 18.109375 75.984375 
z
" id="DejaVuSans-98"/>
     <path d="M 32.171875 -5.078125 
Q 28.375 -14.84375 24.75 -17.8125 
Q 21.140625 -20.796875 15.09375 -20.796875 
L 7.90625 -20.796875 
L 7.90625 -13.28125 
L 13.1875 -13.28125 
Q 16.890625 -13.28125 18.9375 -11.515625 
Q 21 -9.765625 23.484375 -3.21875 
L 25.09375 0.875 
L 2.984375 54.6875 
L 12.5 54.6875 
L 29.59375 11.921875 
L 46.6875 54.6875 
L 56.203125 54.6875 
z
" id="DejaVuSans-121"/>
    </defs>
    <g transform="translate(176.233125 28.56)scale(0.12 -0.12)">
     <use xlink:href="#DejaVuSans-80"/>
     <use x="60.287109" xlink:href="#DejaVuSans-114"/>
     <use x="101.369141" xlink:href="#DejaVuSans-111"/>
     <use x="162.550781" xlink:href="#DejaVuSans-98"/>
     <use x="226.027344" xlink:href="#DejaVuSans-97"/>
     <use x="287.306641" xlink:href="#DejaVuSans-98"/>
     <use x="350.783203" xlink:href="#DejaVuSans-105"/>
     <use x="378.566406" xlink:href="#DejaVuSans-108"/>
     <use x="406.349609" xlink:href="#DejaVuSans-105"/>
     <use x="434.132812" xlink:href="#DejaVuSans-116"/>
     <use x="473.341797" xlink:href="#DejaVuSans-121"/>
     <use x="532.521484" xlink:href="#DejaVuSans-32"/>
     <use x="564.308594" xlink:href="#DejaVuSans-80"/>
     <use x="624.611328" xlink:href="#DejaVuSans-108"/>
     <use x="652.394531" xlink:href="#DejaVuSans-111"/>
     <use x="713.576172" xlink:href="#DejaVuSans-116"/>
    </g>
   </g>
  </g>
 </g>
 <defs>
  <clipPath id="pa39ea39e33">
   <rect height="221.76" width="334.8" x="54" y="34.56"/>
  </clipPath>
 </defs>
</svg>
