<?xml version="1.0" encoding="utf-8" standalone="no"?>
<!DOCTYPE svg PUBLIC "-//W3C//DTD SVG 1.1//EN"
  "http://www.w3.org/Graphics/SVG/1.1/DTD/svg11.dtd">
<!-- Created with matplotlib (https://matplotlib.org/) -->
<svg height="345.6pt" version="1.1" viewBox="0 0 460.8 345.6" width="460.8pt" xmlns="http://www.w3.org/2000/svg" xmlns:xlink="http://www.w3.org/1999/xlink">
 <defs>
  <style type="text/css">
*{stroke-linecap:butt;stroke-linejoin:round;}
  </style>
 </defs>
 <g id="figure_1">
  <g id="patch_1">
   <path d="M 0 345.6 
L 460.8 345.6 
L 460.8 0 
L 0 0 
z
" style="fill:#ffffff;"/>
  </g>
  <g id="axes_1">
   <g id="patch_2">
    <path d="M 57.6 307.584 
L 414.72 307.584 
L 414.72 41.472 
L 57.6 41.472 
z
" style="fill:#ffffff;"/>
   </g>
   <g id="patch_3">
    <path clip-path="url(#pfe81666e69)" d="M 397.767418 307.584 
L 398.487273 307.584 
L 398.487273 263.905913 
L 397.767418 263.905913 
z
" style="fill:#1f77b4;"/>
   </g>
   <g id="patch_4">
    <path clip-path="url(#pfe81666e69)" d="M 396.867599 307.584 
L 397.587454 307.584 
L 397.587454 260.270698 
L 396.867599 260.270698 
z
" style="fill:#1f77b4;"/>
   </g>
   <g id="patch_5">
    <path clip-path="url(#pfe81666e69)" d="M 395.967781 307.584 
L 396.687636 307.584 
L 396.687636 275.682355 
L 395.967781 275.682355 
z
" style="fill:#1f77b4;"/>
   </g>
   <g id="patch_6">
    <path clip-path="url(#pfe81666e69)" d="M 395.067962 307.584 
L 395.787817 307.584 
L 395.787817 263.14754 
L 395.067962 263.14754 
z
" style="fill:#1f77b4;"/>
   </g>
   <g id="patch_7">
    <path clip-path="url(#pfe81666e69)" d="M 394.168144 307.584 
L 394.887998 307.584 
L 394.887998 269.018041 
L 394.168144 269.018041 
z
" style="fill:#1f77b4;"/>
   </g>
   <g id="patch_8">
    <path clip-path="url(#pfe81666e69)" d="M 391.468688 307.584 
L 392.188543 307.584 
L 392.188543 231.7867 
L 391.468688 231.7867 
z
" style="fill:#1f77b4;"/>
   </g>
   <g id="patch_9">
    <path clip-path="url(#pfe81666e69)" d="M 390.568869 307.584 
L 391.288724 307.584 
L 391.288724 232.569353 
L 390.568869 232.569353 
z
" style="fill:#1f77b4;"/>
   </g>
   <g id="patch_10">
    <path clip-path="url(#pfe81666e69)" d="M 389.669051 307.584 
L 390.388905 307.584 
L 390.388905 262.284622 
L 389.669051 262.284622 
z
" style="fill:#1f77b4;"/>
   </g>
   <g id="patch_11">
    <path clip-path="url(#pfe81666e69)" d="M 388.769232 307.584 
L 389.489087 307.584 
L 389.489087 266.849558 
L 388.769232 266.849558 
z
" style="fill:#1f77b4;"/>
   </g>
   <g id="patch_12">
    <path clip-path="url(#pfe81666e69)" d="M 387.869413 307.584 
L 388.589268 307.584 
L 388.589268 264.309597 
L 387.869413 264.309597 
z
" style="fill:#1f77b4;"/>
   </g>
   <g id="patch_13">
    <path clip-path="url(#pfe81666e69)" d="M 385.169958 307.584 
L 385.889813 307.584 
L 385.889813 267.688054 
L 385.169958 267.688054 
z
" style="fill:#1f77b4;"/>
   </g>
   <g id="patch_14">
    <path clip-path="url(#pfe81666e69)" d="M 384.270139 307.584 
L 384.989994 307.584 
L 384.989994 247.677017 
L 384.270139 247.677017 
z
" style="fill:#1f77b4;"/>
   </g>
   <g id="patch_15">
    <path clip-path="url(#pfe81666e69)" d="M 383.37032 307.584 
L 384.090175 307.584 
L 384.090175 279.830576 
L 383.37032 279.830576 
z
" style="fill:#1f77b4;"/>
   </g>
   <g id="patch_16">
    <path clip-path="url(#pfe81666e69)" d="M 382.470502 307.584 
L 383.190357 307.584 
L 383.190357 284.927788 
L 382.470502 284.927788 
z
" style="fill:#1f77b4;"/>
   </g>
   <g id="patch_17">
    <path clip-path="url(#pfe81666e69)" d="M 381.570683 307.584 
L 382.290538 307.584 
L 382.290538 270.101184 
L 381.570683 270.101184 
z
" style="fill:#1f77b4;"/>
   </g>
   <g id="patch_18">
    <path clip-path="url(#pfe81666e69)" d="M 378.871228 307.584 
L 379.591082 307.584 
L 379.591082 281.812429 
L 378.871228 281.812429 
z
" style="fill:#1f77b4;"/>
   </g>
   <g id="patch_19">
    <path clip-path="url(#pfe81666e69)" d="M 377.971409 307.584 
L 378.691264 307.584 
L 378.691264 263.734529 
L 377.971409 263.734529 
z
" style="fill:#1f77b4;"/>
   </g>
   <g id="patch_20">
    <path clip-path="url(#pfe81666e69)" d="M 377.07159 307.584 
L 377.791445 307.584 
L 377.791445 263.531609 
L 377.07159 263.531609 
z
" style="fill:#1f77b4;"/>
   </g>
   <g id="patch_21">
    <path clip-path="url(#pfe81666e69)" d="M 376.171772 307.584 
L 376.891627 307.584 
L 376.891627 267.071601 
L 376.171772 267.071601 
z
" style="fill:#1f77b4;"/>
   </g>
   <g id="patch_22">
    <path clip-path="url(#pfe81666e69)" d="M 375.271953 307.584 
L 375.991808 307.584 
L 375.991808 226.978023 
L 375.271953 226.978023 
z
" style="fill:#1f77b4;"/>
   </g>
   <g id="patch_23">
    <path clip-path="url(#pfe81666e69)" d="M 372.572497 307.584 
L 373.292352 307.584 
L 373.292352 262.53397 
L 372.572497 262.53397 
z
" style="fill:#1f77b4;"/>
   </g>
   <g id="patch_24">
    <path clip-path="url(#pfe81666e69)" d="M 371.672679 307.584 
L 372.392534 307.584 
L 372.392534 270.823452 
L 371.672679 270.823452 
z
" style="fill:#1f77b4;"/>
   </g>
   <g id="patch_25">
    <path clip-path="url(#pfe81666e69)" d="M 370.77286 307.584 
L 371.492715 307.584 
L 371.492715 266.849016 
L 370.77286 266.849016 
z
" style="fill:#1f77b4;"/>
   </g>
   <g id="patch_26">
    <path clip-path="url(#pfe81666e69)" d="M 369.873042 307.584 
L 370.592897 307.584 
L 370.592897 252.02486 
L 369.873042 252.02486 
z
" style="fill:#1f77b4;"/>
   </g>
   <g id="patch_27">
    <path clip-path="url(#pfe81666e69)" d="M 368.973223 307.584 
L 369.693078 307.584 
L 369.693078 268.45359 
L 368.973223 268.45359 
z
" style="fill:#1f77b4;"/>
   </g>
   <g id="patch_28">
    <path clip-path="url(#pfe81666e69)" d="M 366.273767 307.584 
L 366.993622 307.584 
L 366.993622 254.531464 
L 366.273767 254.531464 
z
" style="fill:#1f77b4;"/>
   </g>
   <g id="patch_29">
    <path clip-path="url(#pfe81666e69)" d="M 365.373949 307.584 
L 366.093804 307.584 
L 366.093804 269.68842 
L 365.373949 269.68842 
z
" style="fill:#1f77b4;"/>
   </g>
   <g id="patch_30">
    <path clip-path="url(#pfe81666e69)" d="M 364.47413 307.584 
L 365.193985 307.584 
L 365.193985 257.122196 
L 364.47413 257.122196 
z
" style="fill:#1f77b4;"/>
   </g>
   <g id="patch_31">
    <path clip-path="url(#pfe81666e69)" d="M 363.574312 307.584 
L 364.294166 307.584 
L 364.294166 229.267178 
L 363.574312 229.267178 
z
" style="fill:#1f77b4;"/>
   </g>
   <g id="patch_32">
    <path clip-path="url(#pfe81666e69)" d="M 362.674493 307.584 
L 363.394348 307.584 
L 363.394348 204.496014 
L 362.674493 204.496014 
z
" style="fill:#1f77b4;"/>
   </g>
   <g id="patch_33">
    <path clip-path="url(#pfe81666e69)" d="M 359.975037 307.584 
L 360.694892 307.584 
L 360.694892 227.319247 
L 359.975037 227.319247 
z
" style="fill:#1f77b4;"/>
   </g>
   <g id="patch_34">
    <path clip-path="url(#pfe81666e69)" d="M 359.075219 307.584 
L 359.795074 307.584 
L 359.795074 239.297732 
L 359.075219 239.297732 
z
" style="fill:#1f77b4;"/>
   </g>
   <g id="patch_35">
    <path clip-path="url(#pfe81666e69)" d="M 358.1754 307.584 
L 358.895255 307.584 
L 358.895255 248.934883 
L 358.1754 248.934883 
z
" style="fill:#1f77b4;"/>
   </g>
   <g id="patch_36">
    <path clip-path="url(#pfe81666e69)" d="M 357.275582 307.584 
L 357.995436 307.584 
L 357.995436 226.341684 
L 357.275582 226.341684 
z
" style="fill:#1f77b4;"/>
   </g>
   <g id="patch_37">
    <path clip-path="url(#pfe81666e69)" d="M 356.375763 307.584 
L 357.095618 307.584 
L 357.095618 237.868175 
L 356.375763 237.868175 
z
" style="fill:#1f77b4;"/>
   </g>
   <g id="patch_38">
    <path clip-path="url(#pfe81666e69)" d="M 353.676307 307.584 
L 354.396162 307.584 
L 354.396162 184.165916 
L 353.676307 184.165916 
z
" style="fill:#1f77b4;"/>
   </g>
   <g id="patch_39">
    <path clip-path="url(#pfe81666e69)" d="M 352.776489 307.584 
L 353.496343 307.584 
L 353.496343 247.439858 
L 352.776489 247.439858 
z
" style="fill:#1f77b4;"/>
   </g>
   <g id="patch_40">
    <path clip-path="url(#pfe81666e69)" d="M 351.87667 307.584 
L 352.596525 307.584 
L 352.596525 248.074541 
L 351.87667 248.074541 
z
" style="fill:#1f77b4;"/>
   </g>
   <g id="patch_41">
    <path clip-path="url(#pfe81666e69)" d="M 350.976851 307.584 
L 351.696706 307.584 
L 351.696706 251.852349 
L 350.976851 251.852349 
z
" style="fill:#1f77b4;"/>
   </g>
   <g id="patch_42">
    <path clip-path="url(#pfe81666e69)" d="M 350.077033 307.584 
L 350.796888 307.584 
L 350.796888 209.719995 
L 350.077033 209.719995 
z
" style="fill:#1f77b4;"/>
   </g>
   <g id="patch_43">
    <path clip-path="url(#pfe81666e69)" d="M 347.377577 307.584 
L 348.097432 307.584 
L 348.097432 139.95381 
L 347.377577 139.95381 
z
" style="fill:#1f77b4;"/>
   </g>
   <g id="patch_44">
    <path clip-path="url(#pfe81666e69)" d="M 346.477759 307.584 
L 347.197613 307.584 
L 347.197613 190.717799 
L 346.477759 190.717799 
z
" style="fill:#1f77b4;"/>
   </g>
   <g id="patch_45">
    <path clip-path="url(#pfe81666e69)" d="M 345.57794 307.584 
L 346.297795 307.584 
L 346.297795 220.267535 
L 345.57794 220.267535 
z
" style="fill:#1f77b4;"/>
   </g>
   <g id="patch_46">
    <path clip-path="url(#pfe81666e69)" d="M 344.678121 307.584 
L 345.397976 307.584 
L 345.397976 193.819669 
L 344.678121 193.819669 
z
" style="fill:#1f77b4;"/>
   </g>
   <g id="patch_47">
    <path clip-path="url(#pfe81666e69)" d="M 343.778303 307.584 
L 344.498158 307.584 
L 344.498158 187.017197 
L 343.778303 187.017197 
z
" style="fill:#1f77b4;"/>
   </g>
   <g id="patch_48">
    <path clip-path="url(#pfe81666e69)" d="M 341.078847 307.584 
L 341.798702 307.584 
L 341.798702 209.110133 
L 341.078847 209.110133 
z
" style="fill:#1f77b4;"/>
   </g>
   <g id="patch_49">
    <path clip-path="url(#pfe81666e69)" d="M 340.179028 307.584 
L 340.898883 307.584 
L 340.898883 179.943413 
L 340.179028 179.943413 
z
" style="fill:#1f77b4;"/>
   </g>
   <g id="patch_50">
    <path clip-path="url(#pfe81666e69)" d="M 339.27921 307.584 
L 339.999065 307.584 
L 339.999065 169.004023 
L 339.27921 169.004023 
z
" style="fill:#1f77b4;"/>
   </g>
   <g id="patch_51">
    <path clip-path="url(#pfe81666e69)" d="M 338.379391 307.584 
L 339.099246 307.584 
L 339.099246 186.190218 
L 338.379391 186.190218 
z
" style="fill:#1f77b4;"/>
   </g>
   <g id="patch_52">
    <path clip-path="url(#pfe81666e69)" d="M 337.479573 307.584 
L 338.199428 307.584 
L 338.199428 107.182575 
L 337.479573 107.182575 
z
" style="fill:#1f77b4;"/>
   </g>
   <g id="patch_53">
    <path clip-path="url(#pfe81666e69)" d="M 334.780117 307.584 
L 335.499972 307.584 
L 335.499972 149.744993 
L 334.780117 149.744993 
z
" style="fill:#1f77b4;"/>
   </g>
   <g id="patch_54">
    <path clip-path="url(#pfe81666e69)" d="M 333.880298 307.584 
L 334.600153 307.584 
L 334.600153 231.745849 
L 333.880298 231.745849 
z
" style="fill:#1f77b4;"/>
   </g>
   <g id="patch_55">
    <path clip-path="url(#pfe81666e69)" d="M 332.98048 307.584 
L 333.700335 307.584 
L 333.700335 205.253312 
L 332.98048 205.253312 
z
" style="fill:#1f77b4;"/>
   </g>
   <g id="patch_56">
    <path clip-path="url(#pfe81666e69)" d="M 332.080661 307.584 
L 332.800516 307.584 
L 332.800516 201.766421 
L 332.080661 201.766421 
z
" style="fill:#1f77b4;"/>
   </g>
   <g id="patch_57">
    <path clip-path="url(#pfe81666e69)" d="M 331.180843 307.584 
L 331.900697 307.584 
L 331.900697 201.329775 
L 331.180843 201.329775 
z
" style="fill:#1f77b4;"/>
   </g>
   <g id="patch_58">
    <path clip-path="url(#pfe81666e69)" d="M 328.481387 307.584 
L 329.201242 307.584 
L 329.201242 192.684742 
L 328.481387 192.684742 
z
" style="fill:#1f77b4;"/>
   </g>
   <g id="patch_59">
    <path clip-path="url(#pfe81666e69)" d="M 327.581568 307.584 
L 328.301423 307.584 
L 328.301423 156.450698 
L 327.581568 156.450698 
z
" style="fill:#1f77b4;"/>
   </g>
   <g id="patch_60">
    <path clip-path="url(#pfe81666e69)" d="M 326.68175 307.584 
L 327.401605 307.584 
L 327.401605 232.197017 
L 326.68175 232.197017 
z
" style="fill:#1f77b4;"/>
   </g>
   <g id="patch_61">
    <path clip-path="url(#pfe81666e69)" d="M 325.781931 307.584 
L 326.501786 307.584 
L 326.501786 226.979 
L 325.781931 226.979 
z
" style="fill:#1f77b4;"/>
   </g>
   <g id="patch_62">
    <path clip-path="url(#pfe81666e69)" d="M 324.882112 307.584 
L 325.601967 307.584 
L 325.601967 179.841365 
L 324.882112 179.841365 
z
" style="fill:#1f77b4;"/>
   </g>
   <g id="patch_63">
    <path clip-path="url(#pfe81666e69)" d="M 315.883927 307.584 
L 316.603781 307.584 
L 316.603781 147.731894 
L 315.883927 147.731894 
z
" style="fill:#1f77b4;"/>
   </g>
   <g id="patch_64">
    <path clip-path="url(#pfe81666e69)" d="M 314.984108 307.584 
L 315.703963 307.584 
L 315.703963 240.895967 
L 314.984108 240.895967 
z
" style="fill:#1f77b4;"/>
   </g>
   <g id="patch_65">
    <path clip-path="url(#pfe81666e69)" d="M 314.084289 307.584 
L 314.804144 307.584 
L 314.804144 194.676744 
L 314.084289 194.676744 
z
" style="fill:#1f77b4;"/>
   </g>
   <g id="patch_66">
    <path clip-path="url(#pfe81666e69)" d="M 313.184471 307.584 
L 313.904326 307.584 
L 313.904326 233.57457 
L 313.184471 233.57457 
z
" style="fill:#1f77b4;"/>
   </g>
   <g id="patch_67">
    <path clip-path="url(#pfe81666e69)" d="M 309.585197 307.584 
L 310.305051 307.584 
L 310.305051 184.525789 
L 309.585197 184.525789 
z
" style="fill:#1f77b4;"/>
   </g>
   <g id="patch_68">
    <path clip-path="url(#pfe81666e69)" d="M 308.685378 307.584 
L 309.405233 307.584 
L 309.405233 260.592252 
L 308.685378 260.592252 
z
" style="fill:#1f77b4;"/>
   </g>
   <g id="patch_69">
    <path clip-path="url(#pfe81666e69)" d="M 307.785559 307.584 
L 308.505414 307.584 
L 308.505414 214.293467 
L 307.785559 214.293467 
z
" style="fill:#1f77b4;"/>
   </g>
   <g id="patch_70">
    <path clip-path="url(#pfe81666e69)" d="M 306.885741 307.584 
L 307.605596 307.584 
L 307.605596 222.227685 
L 306.885741 222.227685 
z
" style="fill:#1f77b4;"/>
   </g>
   <g id="patch_71">
    <path clip-path="url(#pfe81666e69)" d="M 305.985922 307.584 
L 306.705777 307.584 
L 306.705777 268.414714 
L 305.985922 268.414714 
z
" style="fill:#1f77b4;"/>
   </g>
   <g id="patch_72">
    <path clip-path="url(#pfe81666e69)" d="M 303.286466 307.584 
L 304.006321 307.584 
L 304.006321 260.637564 
L 303.286466 260.637564 
z
" style="fill:#1f77b4;"/>
   </g>
   <g id="patch_73">
    <path clip-path="url(#pfe81666e69)" d="M 302.386648 307.584 
L 303.106503 307.584 
L 303.106503 231.854205 
L 302.386648 231.854205 
z
" style="fill:#1f77b4;"/>
   </g>
   <g id="patch_74">
    <path clip-path="url(#pfe81666e69)" d="M 301.486829 307.584 
L 302.206684 307.584 
L 302.206684 264.797864 
L 301.486829 264.797864 
z
" style="fill:#1f77b4;"/>
   </g>
   <g id="patch_75">
    <path clip-path="url(#pfe81666e69)" d="M 300.587011 307.584 
L 301.306866 307.584 
L 301.306866 253.576298 
L 300.587011 253.576298 
z
" style="fill:#1f77b4;"/>
   </g>
   <g id="patch_76">
    <path clip-path="url(#pfe81666e69)" d="M 299.687192 307.584 
L 300.407047 307.584 
L 300.407047 259.331692 
L 299.687192 259.331692 
z
" style="fill:#1f77b4;"/>
   </g>
   <g id="patch_77">
    <path clip-path="url(#pfe81666e69)" d="M 296.987736 307.584 
L 297.707591 307.584 
L 297.707591 246.299104 
L 296.987736 246.299104 
z
" style="fill:#1f77b4;"/>
   </g>
   <g id="patch_78">
    <path clip-path="url(#pfe81666e69)" d="M 296.087918 307.584 
L 296.807773 307.584 
L 296.807773 253.666438 
L 296.087918 253.666438 
z
" style="fill:#1f77b4;"/>
   </g>
   <g id="patch_79">
    <path clip-path="url(#pfe81666e69)" d="M 295.188099 307.584 
L 295.907954 307.584 
L 295.907954 218.239739 
L 295.188099 218.239739 
z
" style="fill:#1f77b4;"/>
   </g>
   <g id="patch_80">
    <path clip-path="url(#pfe81666e69)" d="M 294.288281 307.584 
L 295.008135 307.584 
L 295.008135 209.385336 
L 294.288281 209.385336 
z
" style="fill:#1f77b4;"/>
   </g>
   <g id="patch_81">
    <path clip-path="url(#pfe81666e69)" d="M 293.388462 307.584 
L 294.108317 307.584 
L 294.108317 253.67264 
L 293.388462 253.67264 
z
" style="fill:#1f77b4;"/>
   </g>
   <g id="patch_82">
    <path clip-path="url(#pfe81666e69)" d="M 290.689006 307.584 
L 291.408861 307.584 
L 291.408861 208.285198 
L 290.689006 208.285198 
z
" style="fill:#1f77b4;"/>
   </g>
   <g id="patch_83">
    <path clip-path="url(#pfe81666e69)" d="M 289.789188 307.584 
L 290.509043 307.584 
L 290.509043 232.218405 
L 289.789188 232.218405 
z
" style="fill:#1f77b4;"/>
   </g>
   <g id="patch_84">
    <path clip-path="url(#pfe81666e69)" d="M 288.889369 307.584 
L 289.609224 307.584 
L 289.609224 239.265803 
L 288.889369 239.265803 
z
" style="fill:#1f77b4;"/>
   </g>
   <g id="patch_85">
    <path clip-path="url(#pfe81666e69)" d="M 287.98955 307.584 
L 288.709405 307.584 
L 288.709405 209.882626 
L 287.98955 209.882626 
z
" style="fill:#1f77b4;"/>
   </g>
   <g id="patch_86">
    <path clip-path="url(#pfe81666e69)" d="M 287.089732 307.584 
L 287.809587 307.584 
L 287.809587 139.537079 
L 287.089732 139.537079 
z
" style="fill:#1f77b4;"/>
   </g>
   <g id="patch_87">
    <path clip-path="url(#pfe81666e69)" d="M 284.390276 307.584 
L 285.110131 307.584 
L 285.110131 77.271302 
L 284.390276 77.271302 
z
" style="fill:#1f77b4;"/>
   </g>
   <g id="patch_88">
    <path clip-path="url(#pfe81666e69)" d="M 283.490458 307.584 
L 284.210312 307.584 
L 284.210312 252.356175 
L 283.490458 252.356175 
z
" style="fill:#1f77b4;"/>
   </g>
   <g id="patch_89">
    <path clip-path="url(#pfe81666e69)" d="M 282.590639 307.584 
L 283.310494 307.584 
L 283.310494 233.164056 
L 282.590639 233.164056 
z
" style="fill:#1f77b4;"/>
   </g>
   <g id="patch_90">
    <path clip-path="url(#pfe81666e69)" d="M 281.69082 307.584 
L 282.410675 307.584 
L 282.410675 211.799326 
L 281.69082 211.799326 
z
" style="fill:#1f77b4;"/>
   </g>
   <g id="patch_91">
    <path clip-path="url(#pfe81666e69)" d="M 280.791002 307.584 
L 281.510857 307.584 
L 281.510857 255.973459 
L 280.791002 255.973459 
z
" style="fill:#1f77b4;"/>
   </g>
   <g id="patch_92">
    <path clip-path="url(#pfe81666e69)" d="M 278.091546 307.584 
L 278.811401 307.584 
L 278.811401 258.385774 
L 278.091546 258.385774 
z
" style="fill:#1f77b4;"/>
   </g>
   <g id="patch_93">
    <path clip-path="url(#pfe81666e69)" d="M 277.191727 307.584 
L 277.911582 307.584 
L 277.911582 259.234484 
L 277.191727 259.234484 
z
" style="fill:#1f77b4;"/>
   </g>
   <g id="patch_94">
    <path clip-path="url(#pfe81666e69)" d="M 276.291909 307.584 
L 277.011764 307.584 
L 277.011764 256.797565 
L 276.291909 256.797565 
z
" style="fill:#1f77b4;"/>
   </g>
   <g id="patch_95">
    <path clip-path="url(#pfe81666e69)" d="M 275.39209 307.584 
L 276.111945 307.584 
L 276.111945 274.993043 
L 275.39209 274.993043 
z
" style="fill:#1f77b4;"/>
   </g>
   <g id="patch_96">
    <path clip-path="url(#pfe81666e69)" d="M 274.492272 307.584 
L 275.212127 307.584 
L 275.212127 245.582823 
L 274.492272 245.582823 
z
" style="fill:#1f77b4;"/>
   </g>
   <g id="patch_97">
    <path clip-path="url(#pfe81666e69)" d="M 271.792816 307.584 
L 272.512671 307.584 
L 272.512671 275.453001 
L 271.792816 275.453001 
z
" style="fill:#1f77b4;"/>
   </g>
   <g id="patch_98">
    <path clip-path="url(#pfe81666e69)" d="M 270.892997 307.584 
L 271.612852 307.584 
L 271.612852 246.469662 
L 270.892997 246.469662 
z
" style="fill:#1f77b4;"/>
   </g>
   <g id="patch_99">
    <path clip-path="url(#pfe81666e69)" d="M 269.993179 307.584 
L 270.713034 307.584 
L 270.713034 263.727963 
L 269.993179 263.727963 
z
" style="fill:#1f77b4;"/>
   </g>
   <g id="patch_100">
    <path clip-path="url(#pfe81666e69)" d="M 269.09336 307.584 
L 269.813215 307.584 
L 269.813215 255.284043 
L 269.09336 255.284043 
z
" style="fill:#1f77b4;"/>
   </g>
   <g id="patch_101">
    <path clip-path="url(#pfe81666e69)" d="M 268.193542 307.584 
L 268.913396 307.584 
L 268.913396 265.617415 
L 268.193542 265.617415 
z
" style="fill:#1f77b4;"/>
   </g>
   <g id="patch_102">
    <path clip-path="url(#pfe81666e69)" d="M 265.494086 307.584 
L 266.213941 307.584 
L 266.213941 271.485317 
L 265.494086 271.485317 
z
" style="fill:#1f77b4;"/>
   </g>
   <g id="patch_103">
    <path clip-path="url(#pfe81666e69)" d="M 264.594267 307.584 
L 265.314122 307.584 
L 265.314122 237.029813 
L 264.594267 237.029813 
z
" style="fill:#1f77b4;"/>
   </g>
   <g id="patch_104">
    <path clip-path="url(#pfe81666e69)" d="M 263.694449 307.584 
L 264.414304 307.584 
L 264.414304 245.916841 
L 263.694449 245.916841 
z
" style="fill:#1f77b4;"/>
   </g>
   <g id="patch_105">
    <path clip-path="url(#pfe81666e69)" d="M 262.79463 307.584 
L 263.514485 307.584 
L 263.514485 253.032159 
L 262.79463 253.032159 
z
" style="fill:#1f77b4;"/>
   </g>
   <g id="patch_106">
    <path clip-path="url(#pfe81666e69)" d="M 261.894812 307.584 
L 262.614666 307.584 
L 262.614666 254.074853 
L 261.894812 254.074853 
z
" style="fill:#1f77b4;"/>
   </g>
   <g id="patch_107">
    <path clip-path="url(#pfe81666e69)" d="M 259.195356 307.584 
L 259.915211 307.584 
L 259.915211 268.562905 
L 259.195356 268.562905 
z
" style="fill:#1f77b4;"/>
   </g>
   <g id="patch_108">
    <path clip-path="url(#pfe81666e69)" d="M 258.295537 307.584 
L 259.015392 307.584 
L 259.015392 244.456637 
L 258.295537 244.456637 
z
" style="fill:#1f77b4;"/>
   </g>
   <g id="patch_109">
    <path clip-path="url(#pfe81666e69)" d="M 257.395719 307.584 
L 258.115573 307.584 
L 258.115573 261.063841 
L 257.395719 261.063841 
z
" style="fill:#1f77b4;"/>
   </g>
   <g id="patch_110">
    <path clip-path="url(#pfe81666e69)" d="M 256.4959 307.584 
L 257.215755 307.584 
L 257.215755 199.571691 
L 256.4959 199.571691 
z
" style="fill:#1f77b4;"/>
   </g>
   <g id="patch_111">
    <path clip-path="url(#pfe81666e69)" d="M 255.596081 307.584 
L 256.315936 307.584 
L 256.315936 172.620081 
L 255.596081 172.620081 
z
" style="fill:#1f77b4;"/>
   </g>
   <g id="patch_112">
    <path clip-path="url(#pfe81666e69)" d="M 252.896626 307.584 
L 253.616481 307.584 
L 253.616481 174.69647 
L 252.896626 174.69647 
z
" style="fill:#1f77b4;"/>
   </g>
   <g id="patch_113">
    <path clip-path="url(#pfe81666e69)" d="M 251.996807 307.584 
L 252.716662 307.584 
L 252.716662 272.634774 
L 251.996807 272.634774 
z
" style="fill:#1f77b4;"/>
   </g>
   <g id="patch_114">
    <path clip-path="url(#pfe81666e69)" d="M 251.096989 307.584 
L 251.816843 307.584 
L 251.816843 267.803373 
L 251.096989 267.803373 
z
" style="fill:#1f77b4;"/>
   </g>
   <g id="patch_115">
    <path clip-path="url(#pfe81666e69)" d="M 250.19717 307.584 
L 250.917025 307.584 
L 250.917025 279.15054 
L 250.19717 279.15054 
z
" style="fill:#1f77b4;"/>
   </g>
   <g id="patch_116">
    <path clip-path="url(#pfe81666e69)" d="M 249.297351 307.584 
L 250.017206 307.584 
L 250.017206 255.327797 
L 249.297351 255.327797 
z
" style="fill:#1f77b4;"/>
   </g>
   <g id="patch_117">
    <path clip-path="url(#pfe81666e69)" d="M 246.597896 307.584 
L 247.31775 307.584 
L 247.31775 261.877751 
L 246.597896 261.877751 
z
" style="fill:#1f77b4;"/>
   </g>
   <g id="patch_118">
    <path clip-path="url(#pfe81666e69)" d="M 245.698077 307.584 
L 246.417932 307.584 
L 246.417932 221.191046 
L 245.698077 221.191046 
z
" style="fill:#1f77b4;"/>
   </g>
   <g id="patch_119">
    <path clip-path="url(#pfe81666e69)" d="M 244.798258 307.584 
L 245.518113 307.584 
L 245.518113 243.097781 
L 244.798258 243.097781 
z
" style="fill:#1f77b4;"/>
   </g>
   <g id="patch_120">
    <path clip-path="url(#pfe81666e69)" d="M 243.89844 307.584 
L 244.618295 307.584 
L 244.618295 239.646182 
L 243.89844 239.646182 
z
" style="fill:#1f77b4;"/>
   </g>
   <g id="patch_121">
    <path clip-path="url(#pfe81666e69)" d="M 242.998621 307.584 
L 243.718476 307.584 
L 243.718476 200.779122 
L 242.998621 200.779122 
z
" style="fill:#1f77b4;"/>
   </g>
   <g id="patch_122">
    <path clip-path="url(#pfe81666e69)" d="M 240.299165 307.584 
L 241.01902 307.584 
L 241.01902 232.721013 
L 240.299165 232.721013 
z
" style="fill:#1f77b4;"/>
   </g>
   <g id="patch_123">
    <path clip-path="url(#pfe81666e69)" d="M 239.399347 307.584 
L 240.119202 307.584 
L 240.119202 244.274031 
L 239.399347 244.274031 
z
" style="fill:#1f77b4;"/>
   </g>
   <g id="patch_124">
    <path clip-path="url(#pfe81666e69)" d="M 238.499528 307.584 
L 239.219383 307.584 
L 239.219383 253.71372 
L 238.499528 253.71372 
z
" style="fill:#1f77b4;"/>
   </g>
   <g id="patch_125">
    <path clip-path="url(#pfe81666e69)" d="M 237.59971 307.584 
L 238.319565 307.584 
L 238.319565 211.014239 
L 237.59971 211.014239 
z
" style="fill:#1f77b4;"/>
   </g>
   <g id="patch_126">
    <path clip-path="url(#pfe81666e69)" d="M 236.699891 307.584 
L 237.419746 307.584 
L 237.419746 207.932588 
L 236.699891 207.932588 
z
" style="fill:#1f77b4;"/>
   </g>
   <g id="patch_127">
    <path clip-path="url(#pfe81666e69)" d="M 234.000435 307.584 
L 234.72029 307.584 
L 234.72029 256.429658 
L 234.000435 256.429658 
z
" style="fill:#1f77b4;"/>
   </g>
   <g id="patch_128">
    <path clip-path="url(#pfe81666e69)" d="M 233.100617 307.584 
L 233.820472 307.584 
L 233.820472 223.442981 
L 233.100617 223.442981 
z
" style="fill:#1f77b4;"/>
   </g>
   <g id="patch_129">
    <path clip-path="url(#pfe81666e69)" d="M 232.200798 307.584 
L 232.920653 307.584 
L 232.920653 228.413836 
L 232.200798 228.413836 
z
" style="fill:#1f77b4;"/>
   </g>
   <g id="patch_130">
    <path clip-path="url(#pfe81666e69)" d="M 231.30098 307.584 
L 232.020835 307.584 
L 232.020835 222.42846 
L 231.30098 222.42846 
z
" style="fill:#1f77b4;"/>
   </g>
   <g id="patch_131">
    <path clip-path="url(#pfe81666e69)" d="M 230.401161 307.584 
L 231.121016 307.584 
L 231.121016 217.045953 
L 230.401161 217.045953 
z
" style="fill:#1f77b4;"/>
   </g>
   <g id="patch_132">
    <path clip-path="url(#pfe81666e69)" d="M 227.701705 307.584 
L 228.42156 307.584 
L 228.42156 257.753867 
L 227.701705 257.753867 
z
" style="fill:#1f77b4;"/>
   </g>
   <g id="patch_133">
    <path clip-path="url(#pfe81666e69)" d="M 226.801887 307.584 
L 227.521742 307.584 
L 227.521742 243.948152 
L 226.801887 243.948152 
z
" style="fill:#1f77b4;"/>
   </g>
   <g id="patch_134">
    <path clip-path="url(#pfe81666e69)" d="M 225.902068 307.584 
L 226.621923 307.584 
L 226.621923 249.738031 
L 225.902068 249.738031 
z
" style="fill:#1f77b4;"/>
   </g>
   <g id="patch_135">
    <path clip-path="url(#pfe81666e69)" d="M 225.00225 307.584 
L 225.722104 307.584 
L 225.722104 188.968101 
L 225.00225 188.968101 
z
" style="fill:#1f77b4;"/>
   </g>
   <g id="patch_136">
    <path clip-path="url(#pfe81666e69)" d="M 221.402975 307.584 
L 222.12283 307.584 
L 222.12283 212.993654 
L 221.402975 212.993654 
z
" style="fill:#1f77b4;"/>
   </g>
   <g id="patch_137">
    <path clip-path="url(#pfe81666e69)" d="M 220.503157 307.584 
L 221.223011 307.584 
L 221.223011 241.954303 
L 220.503157 241.954303 
z
" style="fill:#1f77b4;"/>
   </g>
   <g id="patch_138">
    <path clip-path="url(#pfe81666e69)" d="M 219.603338 307.584 
L 220.323193 307.584 
L 220.323193 267.391931 
L 219.603338 267.391931 
z
" style="fill:#1f77b4;"/>
   </g>
   <g id="patch_139">
    <path clip-path="url(#pfe81666e69)" d="M 218.703519 307.584 
L 219.423374 307.584 
L 219.423374 238.400941 
L 218.703519 238.400941 
z
" style="fill:#1f77b4;"/>
   </g>
   <g id="patch_140">
    <path clip-path="url(#pfe81666e69)" d="M 217.803701 307.584 
L 218.523556 307.584 
L 218.523556 252.939427 
L 217.803701 252.939427 
z
" style="fill:#1f77b4;"/>
   </g>
   <g id="patch_141">
    <path clip-path="url(#pfe81666e69)" d="M 215.104245 307.584 
L 215.8241 307.584 
L 215.8241 224.305341 
L 215.104245 224.305341 
z
" style="fill:#1f77b4;"/>
   </g>
   <g id="patch_142">
    <path clip-path="url(#pfe81666e69)" d="M 214.204427 307.584 
L 214.924281 307.584 
L 214.924281 211.938424 
L 214.204427 211.938424 
z
" style="fill:#1f77b4;"/>
   </g>
   <g id="patch_143">
    <path clip-path="url(#pfe81666e69)" d="M 213.304608 307.584 
L 214.024463 307.584 
L 214.024463 253.593274 
L 213.304608 253.593274 
z
" style="fill:#1f77b4;"/>
   </g>
   <g id="patch_144">
    <path clip-path="url(#pfe81666e69)" d="M 212.404789 307.584 
L 213.124644 307.584 
L 213.124644 257.850658 
L 212.404789 257.850658 
z
" style="fill:#1f77b4;"/>
   </g>
   <g id="patch_145">
    <path clip-path="url(#pfe81666e69)" d="M 211.504971 307.584 
L 212.224826 307.584 
L 212.224826 262.661001 
L 211.504971 262.661001 
z
" style="fill:#1f77b4;"/>
   </g>
   <g id="patch_146">
    <path clip-path="url(#pfe81666e69)" d="M 208.805515 307.584 
L 209.52537 307.584 
L 209.52537 262.344908 
L 208.805515 262.344908 
z
" style="fill:#1f77b4;"/>
   </g>
   <g id="patch_147">
    <path clip-path="url(#pfe81666e69)" d="M 207.905696 307.584 
L 208.625551 307.584 
L 208.625551 232.790879 
L 207.905696 232.790879 
z
" style="fill:#1f77b4;"/>
   </g>
   <g id="patch_148">
    <path clip-path="url(#pfe81666e69)" d="M 207.005878 307.584 
L 207.725733 307.584 
L 207.725733 222.406485 
L 207.005878 222.406485 
z
" style="fill:#1f77b4;"/>
   </g>
   <g id="patch_149">
    <path clip-path="url(#pfe81666e69)" d="M 206.106059 307.584 
L 206.825914 307.584 
L 206.825914 240.20424 
L 206.106059 240.20424 
z
" style="fill:#1f77b4;"/>
   </g>
   <g id="patch_150">
    <path clip-path="url(#pfe81666e69)" d="M 205.206241 307.584 
L 205.926096 307.584 
L 205.926096 264.45155 
L 205.206241 264.45155 
z
" style="fill:#1f77b4;"/>
   </g>
   <g id="patch_151">
    <path clip-path="url(#pfe81666e69)" d="M 202.506785 307.584 
L 203.22664 307.584 
L 203.22664 262.638479 
L 202.506785 262.638479 
z
" style="fill:#1f77b4;"/>
   </g>
   <g id="patch_152">
    <path clip-path="url(#pfe81666e69)" d="M 201.606966 307.584 
L 202.326821 307.584 
L 202.326821 255.456086 
L 201.606966 255.456086 
z
" style="fill:#1f77b4;"/>
   </g>
   <g id="patch_153">
    <path clip-path="url(#pfe81666e69)" d="M 200.707148 307.584 
L 201.427003 307.584 
L 201.427003 232.513942 
L 200.707148 232.513942 
z
" style="fill:#1f77b4;"/>
   </g>
   <g id="patch_154">
    <path clip-path="url(#pfe81666e69)" d="M 199.807329 307.584 
L 200.527184 307.584 
L 200.527184 262.900865 
L 199.807329 262.900865 
z
" style="fill:#1f77b4;"/>
   </g>
   <g id="patch_155">
    <path clip-path="url(#pfe81666e69)" d="M 198.907511 307.584 
L 199.627365 307.584 
L 199.627365 249.745889 
L 198.907511 249.745889 
z
" style="fill:#1f77b4;"/>
   </g>
   <g id="patch_156">
    <path clip-path="url(#pfe81666e69)" d="M 196.208055 307.584 
L 196.92791 307.584 
L 196.92791 263.771018 
L 196.208055 263.771018 
z
" style="fill:#1f77b4;"/>
   </g>
   <g id="patch_157">
    <path clip-path="url(#pfe81666e69)" d="M 195.308236 307.584 
L 196.028091 307.584 
L 196.028091 263.156711 
L 195.308236 263.156711 
z
" style="fill:#1f77b4;"/>
   </g>
   <g id="patch_158">
    <path clip-path="url(#pfe81666e69)" d="M 194.408418 307.584 
L 195.128273 307.584 
L 195.128273 253.470658 
L 194.408418 253.470658 
z
" style="fill:#1f77b4;"/>
   </g>
   <g id="patch_159">
    <path clip-path="url(#pfe81666e69)" d="M 193.508599 307.584 
L 194.228454 307.584 
L 194.228454 256.887058 
L 193.508599 256.887058 
z
" style="fill:#1f77b4;"/>
   </g>
   <g id="patch_160">
    <path clip-path="url(#pfe81666e69)" d="M 192.60878 307.584 
L 193.328635 307.584 
L 193.328635 228.856638 
L 192.60878 228.856638 
z
" style="fill:#1f77b4;"/>
   </g>
   <g id="patch_161">
    <path clip-path="url(#pfe81666e69)" d="M 189.909325 307.584 
L 190.62918 307.584 
L 190.62918 249.076551 
L 189.909325 249.076551 
z
" style="fill:#1f77b4;"/>
   </g>
   <g id="patch_162">
    <path clip-path="url(#pfe81666e69)" d="M 189.009506 307.584 
L 189.729361 307.584 
L 189.729361 265.713937 
L 189.009506 265.713937 
z
" style="fill:#1f77b4;"/>
   </g>
   <g id="patch_163">
    <path clip-path="url(#pfe81666e69)" d="M 188.109688 307.584 
L 188.829542 307.584 
L 188.829542 260.038684 
L 188.109688 260.038684 
z
" style="fill:#1f77b4;"/>
   </g>
   <g id="patch_164">
    <path clip-path="url(#pfe81666e69)" d="M 187.209869 307.584 
L 187.929724 307.584 
L 187.929724 203.555299 
L 187.209869 203.555299 
z
" style="fill:#1f77b4;"/>
   </g>
   <g id="patch_165">
    <path clip-path="url(#pfe81666e69)" d="M 186.31005 307.584 
L 187.029905 307.584 
L 187.029905 233.779478 
L 186.31005 233.779478 
z
" style="fill:#1f77b4;"/>
   </g>
   <g id="patch_166">
    <path clip-path="url(#pfe81666e69)" d="M 183.610595 307.584 
L 184.33045 307.584 
L 184.33045 253.762492 
L 183.610595 253.762492 
z
" style="fill:#1f77b4;"/>
   </g>
   <g id="patch_167">
    <path clip-path="url(#pfe81666e69)" d="M 182.710776 307.584 
L 183.430631 307.584 
L 183.430631 210.520573 
L 182.710776 210.520573 
z
" style="fill:#1f77b4;"/>
   </g>
   <g id="patch_168">
    <path clip-path="url(#pfe81666e69)" d="M 181.810957 307.584 
L 182.530812 307.584 
L 182.530812 217.401179 
L 181.810957 217.401179 
z
" style="fill:#1f77b4;"/>
   </g>
   <g id="patch_169">
    <path clip-path="url(#pfe81666e69)" d="M 177.311865 307.584 
L 178.031719 307.584 
L 178.031719 102.315406 
L 177.311865 102.315406 
z
" style="fill:#1f77b4;"/>
   </g>
   <g id="patch_170">
    <path clip-path="url(#pfe81666e69)" d="M 176.412046 307.584 
L 177.131901 307.584 
L 177.131901 241.360123 
L 176.412046 241.360123 
z
" style="fill:#1f77b4;"/>
   </g>
   <g id="patch_171">
    <path clip-path="url(#pfe81666e69)" d="M 175.512227 307.584 
L 176.232082 307.584 
L 176.232082 252.264376 
L 175.512227 252.264376 
z
" style="fill:#1f77b4;"/>
   </g>
   <g id="patch_172">
    <path clip-path="url(#pfe81666e69)" d="M 174.612409 307.584 
L 175.332264 307.584 
L 175.332264 196.904919 
L 174.612409 196.904919 
z
" style="fill:#1f77b4;"/>
   </g>
   <g id="patch_173">
    <path clip-path="url(#pfe81666e69)" d="M 173.71259 307.584 
L 174.432445 307.584 
L 174.432445 226.508961 
L 173.71259 226.508961 
z
" style="fill:#1f77b4;"/>
   </g>
   <g id="patch_174">
    <path clip-path="url(#pfe81666e69)" d="M 171.013134 307.584 
L 171.732989 307.584 
L 171.732989 234.962627 
L 171.013134 234.962627 
z
" style="fill:#1f77b4;"/>
   </g>
   <g id="patch_175">
    <path clip-path="url(#pfe81666e69)" d="M 170.113316 307.584 
L 170.833171 307.584 
L 170.833171 243.261772 
L 170.113316 243.261772 
z
" style="fill:#1f77b4;"/>
   </g>
   <g id="patch_176">
    <path clip-path="url(#pfe81666e69)" d="M 169.213497 307.584 
L 169.933352 307.584 
L 169.933352 195.787861 
L 169.213497 195.787861 
z
" style="fill:#1f77b4;"/>
   </g>
   <g id="patch_177">
    <path clip-path="url(#pfe81666e69)" d="M 168.313679 307.584 
L 169.033534 307.584 
L 169.033534 208.964947 
L 168.313679 208.964947 
z
" style="fill:#1f77b4;"/>
   </g>
   <g id="patch_178">
    <path clip-path="url(#pfe81666e69)" d="M 167.41386 307.584 
L 168.133715 307.584 
L 168.133715 199.482407 
L 167.41386 199.482407 
z
" style="fill:#1f77b4;"/>
   </g>
   <g id="patch_179">
    <path clip-path="url(#pfe81666e69)" d="M 164.714404 307.584 
L 165.434259 307.584 
L 165.434259 209.088857 
L 164.714404 209.088857 
z
" style="fill:#1f77b4;"/>
   </g>
   <g id="patch_180">
    <path clip-path="url(#pfe81666e69)" d="M 163.814586 307.584 
L 164.534441 307.584 
L 164.534441 218.71886 
L 163.814586 218.71886 
z
" style="fill:#1f77b4;"/>
   </g>
   <g id="patch_181">
    <path clip-path="url(#pfe81666e69)" d="M 162.914767 307.584 
L 163.634622 307.584 
L 163.634622 148.813023 
L 162.914767 148.813023 
z
" style="fill:#1f77b4;"/>
   </g>
   <g id="patch_182">
    <path clip-path="url(#pfe81666e69)" d="M 162.014949 307.584 
L 162.734803 307.584 
L 162.734803 202.218671 
L 162.014949 202.218671 
z
" style="fill:#1f77b4;"/>
   </g>
   <g id="patch_183">
    <path clip-path="url(#pfe81666e69)" d="M 161.11513 307.584 
L 161.834985 307.584 
L 161.834985 226.167598 
L 161.11513 226.167598 
z
" style="fill:#1f77b4;"/>
   </g>
   <g id="patch_184">
    <path clip-path="url(#pfe81666e69)" d="M 156.616037 307.584 
L 157.335892 307.584 
L 157.335892 186.19455 
L 156.616037 186.19455 
z
" style="fill:#1f77b4;"/>
   </g>
   <g id="patch_185">
    <path clip-path="url(#pfe81666e69)" d="M 155.716219 307.584 
L 156.436073 307.584 
L 156.436073 240.109501 
L 155.716219 240.109501 
z
" style="fill:#1f77b4;"/>
   </g>
   <g id="patch_186">
    <path clip-path="url(#pfe81666e69)" d="M 154.8164 307.584 
L 155.536255 307.584 
L 155.536255 223.552637 
L 154.8164 223.552637 
z
" style="fill:#1f77b4;"/>
   </g>
   <g id="patch_187">
    <path clip-path="url(#pfe81666e69)" d="M 152.116944 307.584 
L 152.836799 307.584 
L 152.836799 250.606408 
L 152.116944 250.606408 
z
" style="fill:#1f77b4;"/>
   </g>
   <g id="patch_188">
    <path clip-path="url(#pfe81666e69)" d="M 151.217126 307.584 
L 151.93698 307.584 
L 151.93698 206.790098 
L 151.217126 206.790098 
z
" style="fill:#1f77b4;"/>
   </g>
   <g id="patch_189">
    <path clip-path="url(#pfe81666e69)" d="M 150.317307 307.584 
L 151.037162 307.584 
L 151.037162 224.332341 
L 150.317307 224.332341 
z
" style="fill:#1f77b4;"/>
   </g>
   <g id="patch_190">
    <path clip-path="url(#pfe81666e69)" d="M 149.417488 307.584 
L 150.137343 307.584 
L 150.137343 223.960389 
L 149.417488 223.960389 
z
" style="fill:#1f77b4;"/>
   </g>
   <g id="patch_191">
    <path clip-path="url(#pfe81666e69)" d="M 148.51767 307.584 
L 149.237525 307.584 
L 149.237525 202.775611 
L 148.51767 202.775611 
z
" style="fill:#1f77b4;"/>
   </g>
   <g id="patch_192">
    <path clip-path="url(#pfe81666e69)" d="M 145.818214 307.584 
L 146.538069 307.584 
L 146.538069 169.286867 
L 145.818214 169.286867 
z
" style="fill:#1f77b4;"/>
   </g>
   <g id="patch_193">
    <path clip-path="url(#pfe81666e69)" d="M 144.918395 307.584 
L 145.63825 307.584 
L 145.63825 233.024339 
L 144.918395 233.024339 
z
" style="fill:#1f77b4;"/>
   </g>
   <g id="patch_194">
    <path clip-path="url(#pfe81666e69)" d="M 144.018577 307.584 
L 144.738432 307.584 
L 144.738432 198.116117 
L 144.018577 198.116117 
z
" style="fill:#1f77b4;"/>
   </g>
   <g id="patch_195">
    <path clip-path="url(#pfe81666e69)" d="M 143.118758 307.584 
L 143.838613 307.584 
L 143.838613 248.790186 
L 143.118758 248.790186 
z
" style="fill:#1f77b4;"/>
   </g>
   <g id="patch_196">
    <path clip-path="url(#pfe81666e69)" d="M 142.21894 307.584 
L 142.938795 307.584 
L 142.938795 246.336723 
L 142.21894 246.336723 
z
" style="fill:#1f77b4;"/>
   </g>
   <g id="patch_197">
    <path clip-path="url(#pfe81666e69)" d="M 139.519484 307.584 
L 140.239339 307.584 
L 140.239339 234.637451 
L 139.519484 234.637451 
z
" style="fill:#1f77b4;"/>
   </g>
   <g id="patch_198">
    <path clip-path="url(#pfe81666e69)" d="M 138.619665 307.584 
L 139.33952 307.584 
L 139.33952 220.039454 
L 138.619665 220.039454 
z
" style="fill:#1f77b4;"/>
   </g>
   <g id="patch_199">
    <path clip-path="url(#pfe81666e69)" d="M 137.719847 307.584 
L 138.439702 307.584 
L 138.439702 259.437376 
L 137.719847 259.437376 
z
" style="fill:#1f77b4;"/>
   </g>
   <g id="patch_200">
    <path clip-path="url(#pfe81666e69)" d="M 136.820028 307.584 
L 137.539883 307.584 
L 137.539883 225.601623 
L 136.820028 225.601623 
z
" style="fill:#1f77b4;"/>
   </g>
   <g id="patch_201">
    <path clip-path="url(#pfe81666e69)" d="M 135.92021 307.584 
L 136.640065 307.584 
L 136.640065 211.47914 
L 135.92021 211.47914 
z
" style="fill:#1f77b4;"/>
   </g>
   <g id="patch_202">
    <path clip-path="url(#pfe81666e69)" d="M 133.220754 307.584 
L 133.940609 307.584 
L 133.940609 236.084772 
L 133.220754 236.084772 
z
" style="fill:#1f77b4;"/>
   </g>
   <g id="patch_203">
    <path clip-path="url(#pfe81666e69)" d="M 132.320935 307.584 
L 133.04079 307.584 
L 133.04079 255.334657 
L 132.320935 255.334657 
z
" style="fill:#1f77b4;"/>
   </g>
   <g id="patch_204">
    <path clip-path="url(#pfe81666e69)" d="M 131.421117 307.584 
L 132.140972 307.584 
L 132.140972 199.444721 
L 131.421117 199.444721 
z
" style="fill:#1f77b4;"/>
   </g>
   <g id="patch_205">
    <path clip-path="url(#pfe81666e69)" d="M 130.521298 307.584 
L 131.241153 307.584 
L 131.241153 220.458525 
L 130.521298 220.458525 
z
" style="fill:#1f77b4;"/>
   </g>
   <g id="patch_206">
    <path clip-path="url(#pfe81666e69)" d="M 129.62148 307.584 
L 130.341334 307.584 
L 130.341334 250.454191 
L 129.62148 250.454191 
z
" style="fill:#1f77b4;"/>
   </g>
   <g id="patch_207">
    <path clip-path="url(#pfe81666e69)" d="M 126.922024 307.584 
L 127.641879 307.584 
L 127.641879 257.35196 
L 126.922024 257.35196 
z
" style="fill:#1f77b4;"/>
   </g>
   <g id="patch_208">
    <path clip-path="url(#pfe81666e69)" d="M 126.022205 307.584 
L 126.74206 307.584 
L 126.74206 240.396479 
L 126.022205 240.396479 
z
" style="fill:#1f77b4;"/>
   </g>
   <g id="patch_209">
    <path clip-path="url(#pfe81666e69)" d="M 125.122387 307.584 
L 125.842241 307.584 
L 125.842241 215.611768 
L 125.122387 215.611768 
z
" style="fill:#1f77b4;"/>
   </g>
   <g id="patch_210">
    <path clip-path="url(#pfe81666e69)" d="M 124.222568 307.584 
L 124.942423 307.584 
L 124.942423 210.178673 
L 124.222568 210.178673 
z
" style="fill:#1f77b4;"/>
   </g>
   <g id="patch_211">
    <path clip-path="url(#pfe81666e69)" d="M 123.322749 307.584 
L 124.042604 307.584 
L 124.042604 228.367169 
L 123.322749 228.367169 
z
" style="fill:#1f77b4;"/>
   </g>
   <g id="patch_212">
    <path clip-path="url(#pfe81666e69)" d="M 120.623294 307.584 
L 121.343149 307.584 
L 121.343149 230.798425 
L 120.623294 230.798425 
z
" style="fill:#1f77b4;"/>
   </g>
   <g id="patch_213">
    <path clip-path="url(#pfe81666e69)" d="M 119.723475 307.584 
L 120.44333 307.584 
L 120.44333 211.501505 
L 119.723475 211.501505 
z
" style="fill:#1f77b4;"/>
   </g>
   <g id="patch_214">
    <path clip-path="url(#pfe81666e69)" d="M 112.524926 307.584 
L 113.244781 307.584 
L 113.244781 242.121088 
L 112.524926 242.121088 
z
" style="fill:#1f77b4;"/>
   </g>
   <g id="patch_215">
    <path clip-path="url(#pfe81666e69)" d="M 111.625108 307.584 
L 112.344963 307.584 
L 112.344963 209.246212 
L 111.625108 209.246212 
z
" style="fill:#1f77b4;"/>
   </g>
   <g id="patch_216">
    <path clip-path="url(#pfe81666e69)" d="M 110.725289 307.584 
L 111.445144 307.584 
L 111.445144 214.503018 
L 110.725289 214.503018 
z
" style="fill:#1f77b4;"/>
   </g>
   <g id="patch_217">
    <path clip-path="url(#pfe81666e69)" d="M 108.025834 307.584 
L 108.745688 307.584 
L 108.745688 93.592419 
L 108.025834 93.592419 
z
" style="fill:#1f77b4;"/>
   </g>
   <g id="patch_218">
    <path clip-path="url(#pfe81666e69)" d="M 107.126015 307.584 
L 107.84587 307.584 
L 107.84587 145.64327 
L 107.126015 145.64327 
z
" style="fill:#1f77b4;"/>
   </g>
   <g id="patch_219">
    <path clip-path="url(#pfe81666e69)" d="M 106.226196 307.584 
L 106.946051 307.584 
L 106.946051 54.144 
L 106.226196 54.144 
z
" style="fill:#1f77b4;"/>
   </g>
   <g id="patch_220">
    <path clip-path="url(#pfe81666e69)" d="M 105.326378 307.584 
L 106.046233 307.584 
L 106.046233 111.929946 
L 105.326378 111.929946 
z
" style="fill:#1f77b4;"/>
   </g>
   <g id="patch_221">
    <path clip-path="url(#pfe81666e69)" d="M 104.426559 307.584 
L 105.146414 307.584 
L 105.146414 130.933807 
L 104.426559 130.933807 
z
" style="fill:#1f77b4;"/>
   </g>
   <g id="patch_222">
    <path clip-path="url(#pfe81666e69)" d="M 101.727103 307.584 
L 102.446958 307.584 
L 102.446958 218.46248 
L 101.727103 218.46248 
z
" style="fill:#1f77b4;"/>
   </g>
   <g id="patch_223">
    <path clip-path="url(#pfe81666e69)" d="M 100.827285 307.584 
L 101.54714 307.584 
L 101.54714 155.65752 
L 100.827285 155.65752 
z
" style="fill:#1f77b4;"/>
   </g>
   <g id="patch_224">
    <path clip-path="url(#pfe81666e69)" d="M 99.927466 307.584 
L 100.647321 307.584 
L 100.647321 175.192504 
L 99.927466 175.192504 
z
" style="fill:#1f77b4;"/>
   </g>
   <g id="patch_225">
    <path clip-path="url(#pfe81666e69)" d="M 99.027648 307.584 
L 99.747503 307.584 
L 99.747503 224.656821 
L 99.027648 224.656821 
z
" style="fill:#1f77b4;"/>
   </g>
   <g id="patch_226">
    <path clip-path="url(#pfe81666e69)" d="M 98.127829 307.584 
L 98.847684 307.584 
L 98.847684 149.223877 
L 98.127829 149.223877 
z
" style="fill:#1f77b4;"/>
   </g>
   <g id="patch_227">
    <path clip-path="url(#pfe81666e69)" d="M 95.428373 307.584 
L 96.148228 307.584 
L 96.148228 153.583931 
L 95.428373 153.583931 
z
" style="fill:#1f77b4;"/>
   </g>
   <g id="patch_228">
    <path clip-path="url(#pfe81666e69)" d="M 94.528555 307.584 
L 95.24841 307.584 
L 95.24841 128.056293 
L 94.528555 128.056293 
z
" style="fill:#1f77b4;"/>
   </g>
   <g id="patch_229">
    <path clip-path="url(#pfe81666e69)" d="M 93.628736 307.584 
L 94.348591 307.584 
L 94.348591 111.29212 
L 93.628736 111.29212 
z
" style="fill:#1f77b4;"/>
   </g>
   <g id="patch_230">
    <path clip-path="url(#pfe81666e69)" d="M 92.728918 307.584 
L 93.448772 307.584 
L 93.448772 126.631644 
L 92.728918 126.631644 
z
" style="fill:#1f77b4;"/>
   </g>
   <g id="patch_231">
    <path clip-path="url(#pfe81666e69)" d="M 91.829099 307.584 
L 92.548954 307.584 
L 92.548954 150.487362 
L 91.829099 150.487362 
z
" style="fill:#1f77b4;"/>
   </g>
   <g id="patch_232">
    <path clip-path="url(#pfe81666e69)" d="M 89.129643 307.584 
L 89.849498 307.584 
L 89.849498 112.818148 
L 89.129643 112.818148 
z
" style="fill:#1f77b4;"/>
   </g>
   <g id="patch_233">
    <path clip-path="url(#pfe81666e69)" d="M 88.229825 307.584 
L 88.94968 307.584 
L 88.94968 144.869725 
L 88.229825 144.869725 
z
" style="fill:#1f77b4;"/>
   </g>
   <g id="patch_234">
    <path clip-path="url(#pfe81666e69)" d="M 87.330006 307.584 
L 88.049861 307.584 
L 88.049861 106.368189 
L 87.330006 106.368189 
z
" style="fill:#1f77b4;"/>
   </g>
   <g id="patch_235">
    <path clip-path="url(#pfe81666e69)" d="M 86.430187 307.584 
L 87.150042 307.584 
L 87.150042 122.407996 
L 86.430187 122.407996 
z
" style="fill:#1f77b4;"/>
   </g>
   <g id="patch_236">
    <path clip-path="url(#pfe81666e69)" d="M 85.530369 307.584 
L 86.250224 307.584 
L 86.250224 71.060808 
L 85.530369 71.060808 
z
" style="fill:#1f77b4;"/>
   </g>
   <g id="patch_237">
    <path clip-path="url(#pfe81666e69)" d="M 82.830913 307.584 
L 83.550768 307.584 
L 83.550768 205.018367 
L 82.830913 205.018367 
z
" style="fill:#1f77b4;"/>
   </g>
   <g id="patch_238">
    <path clip-path="url(#pfe81666e69)" d="M 81.931095 307.584 
L 82.650949 307.584 
L 82.650949 198.209419 
L 81.931095 198.209419 
z
" style="fill:#1f77b4;"/>
   </g>
   <g id="patch_239">
    <path clip-path="url(#pfe81666e69)" d="M 81.031276 307.584 
L 81.751131 307.584 
L 81.751131 125.534347 
L 81.031276 125.534347 
z
" style="fill:#1f77b4;"/>
   </g>
   <g id="patch_240">
    <path clip-path="url(#pfe81666e69)" d="M 80.131457 307.584 
L 80.851312 307.584 
L 80.851312 205.74908 
L 80.131457 205.74908 
z
" style="fill:#1f77b4;"/>
   </g>
   <g id="patch_241">
    <path clip-path="url(#pfe81666e69)" d="M 79.231639 307.584 
L 79.951494 307.584 
L 79.951494 144.067222 
L 79.231639 144.067222 
z
" style="fill:#1f77b4;"/>
   </g>
   <g id="patch_242">
    <path clip-path="url(#pfe81666e69)" d="M 76.532183 307.584 
L 77.252038 307.584 
L 77.252038 215.90211 
L 76.532183 215.90211 
z
" style="fill:#1f77b4;"/>
   </g>
   <g id="patch_243">
    <path clip-path="url(#pfe81666e69)" d="M 75.632364 307.584 
L 76.352219 307.584 
L 76.352219 167.103832 
L 75.632364 167.103832 
z
" style="fill:#1f77b4;"/>
   </g>
   <g id="patch_244">
    <path clip-path="url(#pfe81666e69)" d="M 74.732546 307.584 
L 75.452401 307.584 
L 75.452401 83.17303 
L 74.732546 83.17303 
z
" style="fill:#1f77b4;"/>
   </g>
   <g id="patch_245">
    <path clip-path="url(#pfe81666e69)" d="M 73.832727 307.584 
L 74.552582 307.584 
L 74.552582 149.902158 
L 73.832727 149.902158 
z
" style="fill:#1f77b4;"/>
   </g>
   <g id="matplotlib.axis_1">
    <g id="xtick_1">
     <g id="line2d_1">
      <defs>
       <path d="M 0 0 
L 0 3.5 
" id="m2aee768696" style="stroke:#000000;stroke-width:0.8;"/>
      </defs>
      <g>
       <use style="stroke:#000000;stroke-width:0.8;" x="73.292836" xlink:href="#m2aee768696" y="307.584"/>
      </g>
     </g>
     <g id="text_1">
      <!-- 2018-01 -->
      <defs>
       <path d="M 19.1875 8.296875 
L 53.609375 8.296875 
L 53.609375 0 
L 7.328125 0 
L 7.328125 8.296875 
Q 12.9375 14.109375 22.625 23.890625 
Q 32.328125 33.6875 34.8125 36.53125 
Q 39.546875 41.84375 41.421875 45.53125 
Q 43.3125 49.21875 43.3125 52.78125 
Q 43.3125 58.59375 39.234375 62.25 
Q 35.15625 65.921875 28.609375 65.921875 
Q 23.96875 65.921875 18.8125 64.3125 
Q 13.671875 62.703125 7.8125 59.421875 
L 7.8125 69.390625 
Q 13.765625 71.78125 18.9375 73 
Q 24.125 74.21875 28.421875 74.21875 
Q 39.75 74.21875 46.484375 68.546875 
Q 53.21875 62.890625 53.21875 53.421875 
Q 53.21875 48.921875 51.53125 44.890625 
Q 49.859375 40.875 45.40625 35.40625 
Q 44.1875 33.984375 37.640625 27.21875 
Q 31.109375 20.453125 19.1875 8.296875 
z
" id="DejaVuSans-50"/>
       <path d="M 31.78125 66.40625 
Q 24.171875 66.40625 20.328125 58.90625 
Q 16.5 51.421875 16.5 36.375 
Q 16.5 21.390625 20.328125 13.890625 
Q 24.171875 6.390625 31.78125 6.390625 
Q 39.453125 6.390625 43.28125 13.890625 
Q 47.125 21.390625 47.125 36.375 
Q 47.125 51.421875 43.28125 58.90625 
Q 39.453125 66.40625 31.78125 66.40625 
z
M 31.78125 74.21875 
Q 44.046875 74.21875 50.515625 64.515625 
Q 56.984375 54.828125 56.984375 36.375 
Q 56.984375 17.96875 50.515625 8.265625 
Q 44.046875 -1.421875 31.78125 -1.421875 
Q 19.53125 -1.421875 13.0625 8.265625 
Q 6.59375 17.96875 6.59375 36.375 
Q 6.59375 54.828125 13.0625 64.515625 
Q 19.53125 74.21875 31.78125 74.21875 
z
" id="DejaVuSans-48"/>
       <path d="M 12.40625 8.296875 
L 28.515625 8.296875 
L 28.515625 63.921875 
L 10.984375 60.40625 
L 10.984375 69.390625 
L 28.421875 72.90625 
L 38.28125 72.90625 
L 38.28125 8.296875 
L 54.390625 8.296875 
L 54.390625 0 
L 12.40625 0 
z
" id="DejaVuSans-49"/>
       <path d="M 31.78125 34.625 
Q 24.75 34.625 20.71875 30.859375 
Q 16.703125 27.09375 16.703125 20.515625 
Q 16.703125 13.921875 20.71875 10.15625 
Q 24.75 6.390625 31.78125 6.390625 
Q 38.8125 6.390625 42.859375 10.171875 
Q 46.921875 13.96875 46.921875 20.515625 
Q 46.921875 27.09375 42.890625 30.859375 
Q 38.875 34.625 31.78125 34.625 
z
M 21.921875 38.8125 
Q 15.578125 40.375 12.03125 44.71875 
Q 8.5 49.078125 8.5 55.328125 
Q 8.5 64.0625 14.71875 69.140625 
Q 20.953125 74.21875 31.78125 74.21875 
Q 42.671875 74.21875 48.875 69.140625 
Q 55.078125 64.0625 55.078125 55.328125 
Q 55.078125 49.078125 51.53125 44.71875 
Q 48 40.375 41.703125 38.8125 
Q 48.828125 37.15625 52.796875 32.3125 
Q 56.78125 27.484375 56.78125 20.515625 
Q 56.78125 9.90625 50.3125 4.234375 
Q 43.84375 -1.421875 31.78125 -1.421875 
Q 19.734375 -1.421875 13.25 4.234375 
Q 6.78125 9.90625 6.78125 20.515625 
Q 6.78125 27.484375 10.78125 32.3125 
Q 14.796875 37.15625 21.921875 38.8125 
z
M 18.3125 54.390625 
Q 18.3125 48.734375 21.84375 45.5625 
Q 25.390625 42.390625 31.78125 42.390625 
Q 38.140625 42.390625 41.71875 45.5625 
Q 45.3125 48.734375 45.3125 54.390625 
Q 45.3125 60.0625 41.71875 63.234375 
Q 38.140625 66.40625 31.78125 66.40625 
Q 25.390625 66.40625 21.84375 63.234375 
Q 18.3125 60.0625 18.3125 54.390625 
z
" id="DejaVuSans-56"/>
       <path d="M 4.890625 31.390625 
L 31.203125 31.390625 
L 31.203125 23.390625 
L 4.890625 23.390625 
z
" id="DejaVuSans-45"/>
      </defs>
      <g transform="translate(52.40143 322.182437)scale(0.1 -0.1)">
       <use xlink:href="#DejaVuSans-50"/>
       <use x="63.623047" xlink:href="#DejaVuSans-48"/>
       <use x="127.246094" xlink:href="#DejaVuSans-49"/>
       <use x="190.869141" xlink:href="#DejaVuSans-56"/>
       <use x="254.492188" xlink:href="#DejaVuSans-45"/>
       <use x="290.576172" xlink:href="#DejaVuSans-48"/>
       <use x="354.199219" xlink:href="#DejaVuSans-49"/>
      </g>
     </g>
    </g>
    <g id="xtick_2">
     <g id="line2d_2">
      <g>
       <use style="stroke:#000000;stroke-width:0.8;" x="126.382133" xlink:href="#m2aee768696" y="307.584"/>
      </g>
     </g>
     <g id="text_2">
      <!-- 2018-03 -->
      <defs>
       <path d="M 40.578125 39.3125 
Q 47.65625 37.796875 51.625 33 
Q 55.609375 28.21875 55.609375 21.1875 
Q 55.609375 10.40625 48.1875 4.484375 
Q 40.765625 -1.421875 27.09375 -1.421875 
Q 22.515625 -1.421875 17.65625 -0.515625 
Q 12.796875 0.390625 7.625 2.203125 
L 7.625 11.71875 
Q 11.71875 9.328125 16.59375 8.109375 
Q 21.484375 6.890625 26.8125 6.890625 
Q 36.078125 6.890625 40.9375 10.546875 
Q 45.796875 14.203125 45.796875 21.1875 
Q 45.796875 27.640625 41.28125 31.265625 
Q 36.765625 34.90625 28.71875 34.90625 
L 20.21875 34.90625 
L 20.21875 43.015625 
L 29.109375 43.015625 
Q 36.375 43.015625 40.234375 45.921875 
Q 44.09375 48.828125 44.09375 54.296875 
Q 44.09375 59.90625 40.109375 62.90625 
Q 36.140625 65.921875 28.71875 65.921875 
Q 24.65625 65.921875 20.015625 65.03125 
Q 15.375 64.15625 9.8125 62.3125 
L 9.8125 71.09375 
Q 15.4375 72.65625 20.34375 73.4375 
Q 25.25 74.21875 29.59375 74.21875 
Q 40.828125 74.21875 47.359375 69.109375 
Q 53.90625 64.015625 53.90625 55.328125 
Q 53.90625 49.265625 50.4375 45.09375 
Q 46.96875 40.921875 40.578125 39.3125 
z
" id="DejaVuSans-51"/>
      </defs>
      <g transform="translate(105.490726 322.182437)scale(0.1 -0.1)">
       <use xlink:href="#DejaVuSans-50"/>
       <use x="63.623047" xlink:href="#DejaVuSans-48"/>
       <use x="127.246094" xlink:href="#DejaVuSans-49"/>
       <use x="190.869141" xlink:href="#DejaVuSans-56"/>
       <use x="254.492188" xlink:href="#DejaVuSans-45"/>
       <use x="290.576172" xlink:href="#DejaVuSans-48"/>
       <use x="354.199219" xlink:href="#DejaVuSans-51"/>
      </g>
     </g>
    </g>
    <g id="xtick_3">
     <g id="line2d_3">
      <g>
       <use style="stroke:#000000;stroke-width:0.8;" x="181.271066" xlink:href="#m2aee768696" y="307.584"/>
      </g>
     </g>
     <g id="text_3">
      <!-- 2018-05 -->
      <defs>
       <path d="M 10.796875 72.90625 
L 49.515625 72.90625 
L 49.515625 64.59375 
L 19.828125 64.59375 
L 19.828125 46.734375 
Q 21.96875 47.46875 24.109375 47.828125 
Q 26.265625 48.1875 28.421875 48.1875 
Q 40.625 48.1875 47.75 41.5 
Q 54.890625 34.8125 54.890625 23.390625 
Q 54.890625 11.625 47.5625 5.09375 
Q 40.234375 -1.421875 26.90625 -1.421875 
Q 22.3125 -1.421875 17.546875 -0.640625 
Q 12.796875 0.140625 7.71875 1.703125 
L 7.71875 11.625 
Q 12.109375 9.234375 16.796875 8.0625 
Q 21.484375 6.890625 26.703125 6.890625 
Q 35.15625 6.890625 40.078125 11.328125 
Q 45.015625 15.765625 45.015625 23.390625 
Q 45.015625 31 40.078125 35.4375 
Q 35.15625 39.890625 26.703125 39.890625 
Q 22.75 39.890625 18.8125 39.015625 
Q 14.890625 38.140625 10.796875 36.28125 
z
" id="DejaVuSans-53"/>
      </defs>
      <g transform="translate(160.37966 322.182437)scale(0.1 -0.1)">
       <use xlink:href="#DejaVuSans-50"/>
       <use x="63.623047" xlink:href="#DejaVuSans-48"/>
       <use x="127.246094" xlink:href="#DejaVuSans-49"/>
       <use x="190.869141" xlink:href="#DejaVuSans-56"/>
       <use x="254.492188" xlink:href="#DejaVuSans-45"/>
       <use x="290.576172" xlink:href="#DejaVuSans-48"/>
       <use x="354.199219" xlink:href="#DejaVuSans-53"/>
      </g>
     </g>
    </g>
    <g id="xtick_4">
     <g id="line2d_4">
      <g>
       <use style="stroke:#000000;stroke-width:0.8;" x="236.16" xlink:href="#m2aee768696" y="307.584"/>
      </g>
     </g>
     <g id="text_4">
      <!-- 2018-07 -->
      <defs>
       <path d="M 8.203125 72.90625 
L 55.078125 72.90625 
L 55.078125 68.703125 
L 28.609375 0 
L 18.3125 0 
L 43.21875 64.59375 
L 8.203125 64.59375 
z
" id="DejaVuSans-55"/>
      </defs>
      <g transform="translate(215.268594 322.182437)scale(0.1 -0.1)">
       <use xlink:href="#DejaVuSans-50"/>
       <use x="63.623047" xlink:href="#DejaVuSans-48"/>
       <use x="127.246094" xlink:href="#DejaVuSans-49"/>
       <use x="190.869141" xlink:href="#DejaVuSans-56"/>
       <use x="254.492188" xlink:href="#DejaVuSans-45"/>
       <use x="290.576172" xlink:href="#DejaVuSans-48"/>
       <use x="354.199219" xlink:href="#DejaVuSans-55"/>
      </g>
     </g>
    </g>
    <g id="xtick_5">
     <g id="line2d_5">
      <g>
       <use style="stroke:#000000;stroke-width:0.8;" x="291.948752" xlink:href="#m2aee768696" y="307.584"/>
      </g>
     </g>
     <g id="text_5">
      <!-- 2018-09 -->
      <defs>
       <path d="M 10.984375 1.515625 
L 10.984375 10.5 
Q 14.703125 8.734375 18.5 7.8125 
Q 22.3125 6.890625 25.984375 6.890625 
Q 35.75 6.890625 40.890625 13.453125 
Q 46.046875 20.015625 46.78125 33.40625 
Q 43.953125 29.203125 39.59375 26.953125 
Q 35.25 24.703125 29.984375 24.703125 
Q 19.046875 24.703125 12.671875 31.3125 
Q 6.296875 37.9375 6.296875 49.421875 
Q 6.296875 60.640625 12.9375 67.421875 
Q 19.578125 74.21875 30.609375 74.21875 
Q 43.265625 74.21875 49.921875 64.515625 
Q 56.59375 54.828125 56.59375 36.375 
Q 56.59375 19.140625 48.40625 8.859375 
Q 40.234375 -1.421875 26.421875 -1.421875 
Q 22.703125 -1.421875 18.890625 -0.6875 
Q 15.09375 0.046875 10.984375 1.515625 
z
M 30.609375 32.421875 
Q 37.25 32.421875 41.125 36.953125 
Q 45.015625 41.5 45.015625 49.421875 
Q 45.015625 57.28125 41.125 61.84375 
Q 37.25 66.40625 30.609375 66.40625 
Q 23.96875 66.40625 20.09375 61.84375 
Q 16.21875 57.28125 16.21875 49.421875 
Q 16.21875 41.5 20.09375 36.953125 
Q 23.96875 32.421875 30.609375 32.421875 
z
" id="DejaVuSans-57"/>
      </defs>
      <g transform="translate(271.057346 322.182437)scale(0.1 -0.1)">
       <use xlink:href="#DejaVuSans-50"/>
       <use x="63.623047" xlink:href="#DejaVuSans-48"/>
       <use x="127.246094" xlink:href="#DejaVuSans-49"/>
       <use x="190.869141" xlink:href="#DejaVuSans-56"/>
       <use x="254.492188" xlink:href="#DejaVuSans-45"/>
       <use x="290.576172" xlink:href="#DejaVuSans-48"/>
       <use x="354.199219" xlink:href="#DejaVuSans-57"/>
      </g>
     </g>
    </g>
    <g id="xtick_6">
     <g id="line2d_6">
      <g>
       <use style="stroke:#000000;stroke-width:0.8;" x="346.837686" xlink:href="#m2aee768696" y="307.584"/>
      </g>
     </g>
     <g id="text_6">
      <!-- 2018-11 -->
      <g transform="translate(325.94628 322.182437)scale(0.1 -0.1)">
       <use xlink:href="#DejaVuSans-50"/>
       <use x="63.623047" xlink:href="#DejaVuSans-48"/>
       <use x="127.246094" xlink:href="#DejaVuSans-49"/>
       <use x="190.869141" xlink:href="#DejaVuSans-56"/>
       <use x="254.492188" xlink:href="#DejaVuSans-45"/>
       <use x="290.576172" xlink:href="#DejaVuSans-49"/>
       <use x="354.199219" xlink:href="#DejaVuSans-49"/>
      </g>
     </g>
    </g>
    <g id="xtick_7">
     <g id="line2d_7">
      <g>
       <use style="stroke:#000000;stroke-width:0.8;" x="401.72662" xlink:href="#m2aee768696" y="307.584"/>
      </g>
     </g>
     <g id="text_7">
      <!-- 2019-01 -->
      <g transform="translate(380.835213 322.182437)scale(0.1 -0.1)">
       <use xlink:href="#DejaVuSans-50"/>
       <use x="63.623047" xlink:href="#DejaVuSans-48"/>
       <use x="127.246094" xlink:href="#DejaVuSans-49"/>
       <use x="190.869141" xlink:href="#DejaVuSans-57"/>
       <use x="254.492188" xlink:href="#DejaVuSans-45"/>
       <use x="290.576172" xlink:href="#DejaVuSans-48"/>
       <use x="354.199219" xlink:href="#DejaVuSans-49"/>
      </g>
     </g>
    </g>
   </g>
   <g id="matplotlib.axis_2">
    <g id="ytick_1">
     <g id="line2d_8">
      <defs>
       <path d="M 0 0 
L -3.5 0 
" id="m2c442e7e64" style="stroke:#000000;stroke-width:0.8;"/>
      </defs>
      <g>
       <use style="stroke:#000000;stroke-width:0.8;" x="57.6" xlink:href="#m2c442e7e64" y="307.584"/>
      </g>
     </g>
     <g id="text_8">
      <!-- 0 -->
      <g transform="translate(44.2375 311.383219)scale(0.1 -0.1)">
       <use xlink:href="#DejaVuSans-48"/>
      </g>
     </g>
    </g>
    <g id="ytick_2">
     <g id="line2d_9">
      <g>
       <use style="stroke:#000000;stroke-width:0.8;" x="57.6" xlink:href="#m2c442e7e64" y="269.70871"/>
      </g>
     </g>
     <g id="text_9">
      <!-- 500000 -->
      <g transform="translate(12.425 273.507929)scale(0.1 -0.1)">
       <use xlink:href="#DejaVuSans-53"/>
       <use x="63.623047" xlink:href="#DejaVuSans-48"/>
       <use x="127.246094" xlink:href="#DejaVuSans-48"/>
       <use x="190.869141" xlink:href="#DejaVuSans-48"/>
       <use x="254.492188" xlink:href="#DejaVuSans-48"/>
       <use x="318.115234" xlink:href="#DejaVuSans-48"/>
      </g>
     </g>
    </g>
    <g id="ytick_3">
     <g id="line2d_10">
      <g>
       <use style="stroke:#000000;stroke-width:0.8;" x="57.6" xlink:href="#m2c442e7e64" y="231.83342"/>
      </g>
     </g>
     <g id="text_10">
      <!-- 1000000 -->
      <g transform="translate(6.0625 235.632639)scale(0.1 -0.1)">
       <use xlink:href="#DejaVuSans-49"/>
       <use x="63.623047" xlink:href="#DejaVuSans-48"/>
       <use x="127.246094" xlink:href="#DejaVuSans-48"/>
       <use x="190.869141" xlink:href="#DejaVuSans-48"/>
       <use x="254.492188" xlink:href="#DejaVuSans-48"/>
       <use x="318.115234" xlink:href="#DejaVuSans-48"/>
       <use x="381.738281" xlink:href="#DejaVuSans-48"/>
      </g>
     </g>
    </g>
    <g id="ytick_4">
     <g id="line2d_11">
      <g>
       <use style="stroke:#000000;stroke-width:0.8;" x="57.6" xlink:href="#m2c442e7e64" y="193.95813"/>
      </g>
     </g>
     <g id="text_11">
      <!-- 1500000 -->
      <g transform="translate(6.0625 197.757349)scale(0.1 -0.1)">
       <use xlink:href="#DejaVuSans-49"/>
       <use x="63.623047" xlink:href="#DejaVuSans-53"/>
       <use x="127.246094" xlink:href="#DejaVuSans-48"/>
       <use x="190.869141" xlink:href="#DejaVuSans-48"/>
       <use x="254.492188" xlink:href="#DejaVuSans-48"/>
       <use x="318.115234" xlink:href="#DejaVuSans-48"/>
       <use x="381.738281" xlink:href="#DejaVuSans-48"/>
      </g>
     </g>
    </g>
    <g id="ytick_5">
     <g id="line2d_12">
      <g>
       <use style="stroke:#000000;stroke-width:0.8;" x="57.6" xlink:href="#m2c442e7e64" y="156.082841"/>
      </g>
     </g>
     <g id="text_12">
      <!-- 2000000 -->
      <g transform="translate(6.0625 159.882059)scale(0.1 -0.1)">
       <use xlink:href="#DejaVuSans-50"/>
       <use x="63.623047" xlink:href="#DejaVuSans-48"/>
       <use x="127.246094" xlink:href="#DejaVuSans-48"/>
       <use x="190.869141" xlink:href="#DejaVuSans-48"/>
       <use x="254.492188" xlink:href="#DejaVuSans-48"/>
       <use x="318.115234" xlink:href="#DejaVuSans-48"/>
       <use x="381.738281" xlink:href="#DejaVuSans-48"/>
      </g>
     </g>
    </g>
    <g id="ytick_6">
     <g id="line2d_13">
      <g>
       <use style="stroke:#000000;stroke-width:0.8;" x="57.6" xlink:href="#m2c442e7e64" y="118.207551"/>
      </g>
     </g>
     <g id="text_13">
      <!-- 2500000 -->
      <g transform="translate(6.0625 122.006769)scale(0.1 -0.1)">
       <use xlink:href="#DejaVuSans-50"/>
       <use x="63.623047" xlink:href="#DejaVuSans-53"/>
       <use x="127.246094" xlink:href="#DejaVuSans-48"/>
       <use x="190.869141" xlink:href="#DejaVuSans-48"/>
       <use x="254.492188" xlink:href="#DejaVuSans-48"/>
       <use x="318.115234" xlink:href="#DejaVuSans-48"/>
       <use x="381.738281" xlink:href="#DejaVuSans-48"/>
      </g>
     </g>
    </g>
    <g id="ytick_7">
     <g id="line2d_14">
      <g>
       <use style="stroke:#000000;stroke-width:0.8;" x="57.6" xlink:href="#m2c442e7e64" y="80.332261"/>
      </g>
     </g>
     <g id="text_14">
      <!-- 3000000 -->
      <g transform="translate(6.0625 84.13148)scale(0.1 -0.1)">
       <use xlink:href="#DejaVuSans-51"/>
       <use x="63.623047" xlink:href="#DejaVuSans-48"/>
       <use x="127.246094" xlink:href="#DejaVuSans-48"/>
       <use x="190.869141" xlink:href="#DejaVuSans-48"/>
       <use x="254.492188" xlink:href="#DejaVuSans-48"/>
       <use x="318.115234" xlink:href="#DejaVuSans-48"/>
       <use x="381.738281" xlink:href="#DejaVuSans-48"/>
      </g>
     </g>
    </g>
    <g id="ytick_8">
     <g id="line2d_15">
      <g>
       <use style="stroke:#000000;stroke-width:0.8;" x="57.6" xlink:href="#m2c442e7e64" y="42.456971"/>
      </g>
     </g>
     <g id="text_15">
      <!-- 3500000 -->
      <g transform="translate(6.0625 46.25619)scale(0.1 -0.1)">
       <use xlink:href="#DejaVuSans-51"/>
       <use x="63.623047" xlink:href="#DejaVuSans-53"/>
       <use x="127.246094" xlink:href="#DejaVuSans-48"/>
       <use x="190.869141" xlink:href="#DejaVuSans-48"/>
       <use x="254.492188" xlink:href="#DejaVuSans-48"/>
       <use x="318.115234" xlink:href="#DejaVuSans-48"/>
       <use x="381.738281" xlink:href="#DejaVuSans-48"/>
      </g>
     </g>
    </g>
   </g>
   <g id="patch_246">
    <path d="M 57.6 307.584 
L 57.6 41.472 
" style="fill:none;stroke:#000000;stroke-linecap:square;stroke-linejoin:miter;stroke-width:0.8;"/>
   </g>
   <g id="patch_247">
    <path d="M 414.72 307.584 
L 414.72 41.472 
" style="fill:none;stroke:#000000;stroke-linecap:square;stroke-linejoin:miter;stroke-width:0.8;"/>
   </g>
   <g id="patch_248">
    <path d="M 57.6 307.584 
L 414.72 307.584 
" style="fill:none;stroke:#000000;stroke-linecap:square;stroke-linejoin:miter;stroke-width:0.8;"/>
   </g>
   <g id="patch_249">
    <path d="M 57.6 41.472 
L 414.72 41.472 
" style="fill:none;stroke:#000000;stroke-linecap:square;stroke-linejoin:miter;stroke-width:0.8;"/>
   </g>
   <g id="text_16">
    <!-- 2018 -->
    <defs>
     <path d="M 43.90625 70 
L 12.90625 70 
Q 10.90625 70 9.296875 68.90625 
L 6.703125 73.59375 
Q 9.09375 73.296875 11.703125 73.296875 
L 74.796875 73.296875 
Q 77.59375 78.296875 78.59375 79.546875 
Q 79.59375 80.796875 80.203125 80.796875 
Q 81.09375 80.796875 85.046875 78.4375 
Q 89 76.09375 91.09375 74.4375 
Q 93.203125 72.796875 93.203125 71.5 
Q 93.203125 70 91.09375 70 
L 58.09375 70 
Q 57.796875 69.203125 56.703125 68.90625 
L 56.703125 31.90625 
L 57.09375 31.90625 
Q 68.09375 45 73.59375 66.203125 
Q 77.5 64.796875 82.84375 62.34375 
Q 88.203125 59.90625 89.09375 59.15625 
Q 90 58.40625 90 57.5 
Q 90 56.59375 88.34375 56.296875 
Q 86.703125 56 85.5 55.09375 
Q 84.296875 54.203125 81.40625 51.203125 
Q 71.59375 40.90625 59 31.90625 
L 77.40625 31.90625 
Q 79.296875 35.203125 81.140625 38.25 
Q 83 41.296875 83.390625 41.640625 
Q 83.796875 42 84.34375 42 
Q 84.90625 42 87.65625 40.046875 
Q 90.40625 38.09375 93.25 35.75 
Q 96.09375 33.40625 97.140625 32.15625 
Q 98.203125 30.90625 98.203125 30 
Q 98.203125 28.59375 96.203125 28.59375 
L 56.703125 28.59375 
L 56.703125 3.09375 
Q 56.703125 -0.203125 56.90625 -3.90625 
L 57 -7.296875 
Q 57 -8 56.703125 -8.296875 
Q 56.40625 -8.59375 54.5 -9.296875 
Q 52.59375 -10 49.140625 -10.640625 
Q 45.703125 -11.296875 44.296875 -11.296875 
Q 43.59375 -11.296875 43.59375 -9.796875 
L 43.703125 -5.90625 
Q 43.90625 -1.90625 43.90625 3.09375 
L 43.90625 28.59375 
L 9.296875 28.59375 
Q 7.296875 28.59375 5.703125 27.5 
L 3.09375 32.203125 
Q 5.5 31.90625 8.09375 31.90625 
L 43.90625 31.90625 
z
M 12.5 63.09375 
Q 14.296875 63.09375 20.59375 60.890625 
Q 26.90625 58.703125 30.796875 54.390625 
Q 34.703125 50.09375 34.703125 44 
Q 34.703125 40.40625 32.5 38 
Q 30.296875 35.59375 27 35.59375 
Q 25.09375 35.59375 23.140625 37.1875 
Q 21.203125 38.796875 21.203125 43.703125 
Q 21.203125 56.90625 13.09375 61.90625 
Q 12 62.59375 12 62.84375 
Q 12 63.09375 12.5 63.09375 
z
" id="STSongti-SC-Black-24179"/>
     <path d="M 39.59375 81 
Q 48.703125 81 53.453125 78.390625 
Q 58.203125 75.796875 58.203125 71.40625 
Q 58.203125 68.09375 55.796875 66.25 
Q 53.40625 64.40625 49.203125 64.40625 
Q 46.90625 64.40625 45.40625 66 
Q 43.90625 67.59375 43.90625 70.09375 
Q 43.90625 76.796875 38.5 79.09375 
Q 37.203125 79.703125 37.203125 80.34375 
Q 37.203125 81 39.59375 81 
z
M 21.296875 63.703125 
L 76.5 63.703125 
Q 79.296875 69.59375 81.09375 69.59375 
Q 82.09375 69.59375 85.1875 67.5 
Q 88.296875 65.40625 90.9375 63.203125 
Q 93.59375 61 94.75 59.640625 
Q 95.90625 58.296875 95.90625 57.09375 
Q 95.90625 55.90625 94.90625 55.296875 
Q 93.90625 54.703125 91.40625 55.09375 
Q 88.90625 55.5 86.5 55.5 
Q 84.09375 55.5 81.890625 54.453125 
Q 79.703125 53.40625 77.25 50.796875 
Q 74.796875 48.203125 74.5 48.203125 
Q 74.203125 48.203125 74.203125 48.59375 
Q 74.203125 49 74.59375 50.296875 
Q 76 54.296875 77 60.40625 
L 22.203125 60.40625 
Q 22.5 59 22.5 57.59375 
Q 22.5 52.796875 19.703125 50.1875 
Q 16.90625 47.59375 13.296875 47.59375 
Q 9.703125 47.59375 8 49.390625 
Q 6.296875 51.203125 6.296875 53.59375 
Q 6.296875 56.5 9.796875 58.296875 
Q 13.296875 60.09375 14.6875 61.796875 
Q 16.09375 63.5 16.09375 65.34375 
Q 16.09375 67.203125 15.890625 68.34375 
Q 15.703125 69.5 15.703125 70 
Q 15.703125 70.5 16 70.5 
Q 16.59375 70.5 18.390625 68.453125 
Q 20.203125 66.40625 21.296875 63.703125 
z
M 30.5 33 
L 8.90625 33 
Q 6.40625 33 5.09375 32.40625 
L 3.40625 36.796875 
Q 5.40625 36.296875 8 36.296875 
L 32.09375 36.296875 
Q 38.296875 49.703125 41.40625 59.5 
Q 46.5 58.09375 50.390625 56.546875 
Q 54.296875 55 55.296875 54.34375 
Q 56.296875 53.703125 56.296875 53 
Q 56.296875 52.296875 54.640625 51.890625 
Q 53 51.5 52 49.5 
L 44.59375 36.296875 
L 76.09375 36.296875 
Q 78 39.296875 79.703125 41.640625 
Q 81.40625 44 81.90625 44.546875 
Q 82.40625 45.09375 83.09375 45.09375 
Q 84.59375 45.09375 90.59375 40.390625 
Q 96.59375 35.703125 96.59375 34.34375 
Q 96.59375 33 93.796875 33 
L 77.09375 33 
Q 75.703125 31.09375 74.09375 30.296875 
Q 69 18.796875 64.5 13.5 
Q 76 9.09375 80.84375 4.6875 
Q 85.703125 0.296875 85.703125 -3.90625 
Q 85.703125 -6.296875 83.75 -8.34375 
Q 81.796875 -10.40625 79.703125 -10.40625 
Q 76.5 -10.40625 72 -5.296875 
Q 66.203125 1.40625 57 6.296875 
Q 50.296875 1.09375 41.59375 -2.65625 
Q 32.90625 -6.40625 22.40625 -8.40625 
Q 11.90625 -10.40625 7.59375 -10.40625 
Q 6.296875 -10.40625 6.296875 -9.84375 
Q 6.296875 -9.296875 8.296875 -8.703125 
Q 36.296875 -0.90625 48 10.296875 
Q 36.703125 14.703125 21.59375 16.703125 
Q 27.796875 27.5 30.5 33 
z
M 60.5 33 
L 42.703125 33 
L 35 19.90625 
Q 44.296875 19.203125 53.703125 16.90625 
Q 58.5 23.5 60.5 33 
z
" id="STSongti-SC-Black-23433"/>
     <path d="M 23.59375 63.40625 
L 31.703125 63.40625 
Q 33.90625 67.796875 34.796875 69 
Q 35.703125 70.203125 36.40625 70.203125 
Q 38 70.203125 44.796875 63.09375 
L 44.796875 70.796875 
Q 44.796875 75.796875 44.59375 79.703125 
Q 50 78.296875 56.703125 75.296875 
L 72.203125 75.296875 
Q 74.703125 80.296875 75.140625 80.84375 
Q 75.59375 81.40625 76.390625 81.40625 
Q 77.203125 81.40625 81.5 78.796875 
Q 85.796875 76.203125 88.046875 74.34375 
Q 90.296875 72.5 90.296875 71.5 
Q 90.296875 70.203125 86.703125 69 
L 86.703125 48.90625 
Q 86.703125 44.296875 86.796875 42.5 
L 86.90625 39.203125 
Q 86.90625 38.40625 86.046875 37.953125 
Q 85.203125 37.5 82.203125 36.703125 
Q 85.09375 34.90625 88.9375 32.40625 
Q 92.796875 29.90625 93.34375 29.34375 
Q 93.90625 28.796875 93.90625 28.296875 
Q 93.90625 27.203125 91.296875 27.09375 
Q 86.09375 26.90625 72.5 20.40625 
Q 79.5 10.40625 96.296875 5.203125 
Q 97.40625 4.796875 97.40625 4.1875 
Q 97.40625 3.59375 95.046875 2.6875 
Q 92.703125 1.796875 89.84375 -0.796875 
Q 87 -3.40625 85.59375 -6.40625 
Q 84.90625 -7.796875 84 -7.796875 
Q 82.5 -7.796875 76.796875 -2.046875 
Q 71.09375 3.703125 68.203125 10 
Q 62.703125 5 56.75 -0.953125 
Q 50.796875 -6.90625 49.296875 -8.703125 
Q 47.796875 -10.5 47.1875 -10.5 
Q 46.59375 -10.5 45.9375 -9.546875 
Q 45.296875 -8.59375 42.84375 -3.296875 
Q 40.40625 2 40.40625 2.84375 
Q 40.40625 3.703125 41.796875 4.203125 
Q 44.796875 5.203125 44.796875 7 
L 44.796875 28 
Q 44.5 27.296875 42.703125 27.296875 
L 28.203125 27.296875 
L 28.203125 8.59375 
Q 35.796875 11.90625 41.90625 15.59375 
Q 42.796875 16.203125 43.25 16.203125 
Q 43.703125 16.203125 43.703125 15.75 
Q 43.703125 15.296875 42.796875 14.40625 
Q 32.09375 3.40625 21.90625 -9.796875 
Q 21.203125 -10.796875 20.546875 -10.796875 
Q 19.90625 -10.796875 18.796875 -9 
Q 17.703125 -7.203125 15.203125 -2.296875 
Q 12.703125 2.59375 12.703125 3.09375 
Q 12.703125 4 14.203125 4.640625 
Q 15.703125 5.296875 16.296875 6.1875 
Q 16.90625 7.09375 16.90625 9.09375 
L 16.90625 27.296875 
L 8.5 27.296875 
Q 6.5 27.296875 4.90625 26.203125 
L 2.296875 30.90625 
Q 4.703125 30.59375 7.296875 30.59375 
L 16.90625 30.59375 
L 16.90625 45.796875 
L 13 45.796875 
Q 12.203125 44.59375 7.84375 40.046875 
Q 3.5 35.5 2.5 35.5 
Q 2.203125 35.5 2.203125 35.796875 
Q 2.203125 36.40625 3.5 38.203125 
Q 8.5 45.40625 11.390625 55.546875 
Q 14.296875 65.703125 15.703125 82 
Q 19.796875 81.40625 25.34375 80.296875 
Q 30.90625 79.203125 31.75 78.75 
Q 32.59375 78.296875 32.59375 77.640625 
Q 32.59375 77 30.9375 76.34375 
Q 29.296875 75.703125 28.203125 73.296875 
z
M 74.203125 58.796875 
L 74.203125 72 
L 57.5 72 
Q 57.203125 71 55.703125 70.5 
L 55.703125 58.796875 
z
M 44.796875 60.09375 
L 21.90625 60.09375 
Q 18.296875 53.296875 15.5 49.09375 
L 28 49.09375 
Q 31.703125 55.40625 32.203125 55.90625 
Q 32.703125 56.40625 33.09375 56.40625 
Q 34 56.40625 38.75 52.453125 
Q 43.5 48.5 43.5 47.140625 
Q 43.5 45.796875 40.703125 45.796875 
L 30.5 45.796875 
Q 30.203125 44.5 28.203125 43.59375 
L 28.203125 30.59375 
L 29.703125 30.59375 
Q 33.5 36.703125 34 37.140625 
Q 34.5 37.59375 35 37.59375 
Q 36.203125 37.59375 40.390625 33.59375 
Q 44.59375 29.59375 44.796875 28.703125 
z
M 74.203125 41.703125 
L 74.203125 55.5 
L 55.703125 55.5 
L 55.703125 41.703125 
z
M 62.90625 38.40625 
L 55.703125 38.40625 
L 55.703125 7.40625 
L 67.40625 11.796875 
Q 63.5 21.5 62.90625 38.40625 
z
M 78.703125 36 
Q 76.40625 35.796875 75.203125 35.796875 
Q 74 35.796875 74.203125 38.40625 
L 65.5 38.40625 
Q 66.90625 29.703125 70.59375 23.296875 
Q 74.59375 28.59375 78.703125 36 
z
" id="STSongti-SC-Black-38134"/>
     <path d="M 29.296875 82.59375 
Q 34.703125 80 38.640625 77.640625 
Q 42.59375 75.296875 43.1875 74.640625 
Q 43.796875 74 43.796875 73.40625 
Q 43.796875 72.40625 42.203125 72.09375 
Q 39.203125 71.703125 35.09375 68.296875 
Q 29.40625 63.59375 19.046875 57.9375 
Q 8.703125 52.296875 7.203125 52.296875 
Q 6.796875 52.296875 6.796875 52.6875 
Q 6.796875 53.09375 8.09375 54.296875 
Q 17.203125 62.59375 21.546875 68.75 
Q 25.90625 74.90625 29.296875 82.59375 
z
M 74.796875 70.90625 
Q 76.796875 74.703125 78.390625 76.890625 
Q 80 79.09375 80.703125 79.09375 
Q 81.796875 79.09375 87.390625 74.34375 
Q 93 69.59375 93 68.59375 
Q 93 67.59375 91 67.59375 
L 54.90625 67.59375 
Q 52.90625 67.59375 51.296875 66.5 
L 48.703125 71.203125 
Q 51.09375 70.90625 53.703125 70.90625 
z
M 20.5 31.296875 
Q 15.59375 27.796875 10.84375 24.9375 
Q 6.09375 22.09375 5.59375 21.84375 
Q 5.09375 21.59375 4.84375 21.59375 
Q 4.59375 21.59375 4.59375 21.9375 
Q 4.59375 22.296875 5.59375 23.40625 
Q 16 35 21.25 43.25 
Q 26.5 51.5 30.796875 61.90625 
Q 34 60.703125 39.34375 57.203125 
Q 44.703125 53.703125 45 53.34375 
Q 45.296875 53 45.296875 52.390625 
Q 45.296875 51.796875 43.796875 51.296875 
Q 40.09375 50.203125 38.84375 48.390625 
Q 37.59375 46.59375 32.203125 41.09375 
Q 35 40.203125 35 39.25 
Q 35 38.296875 32.90625 37.296875 
L 32.90625 -6.796875 
Q 32.90625 -7.703125 32.40625 -8.25 
Q 31.90625 -8.796875 27.453125 -9.84375 
Q 23 -10.90625 20.796875 -10.90625 
Q 20.09375 -10.90625 20.09375 -9.90625 
L 20.40625 -0.5 
Q 20.5 3.90625 20.5 7.796875 
z
M 66.59375 43.296875 
L 45.59375 43.296875 
Q 43.59375 43.296875 42 42.203125 
L 39.40625 46.90625 
Q 41.796875 46.59375 44.40625 46.59375 
L 81.203125 46.59375 
Q 84.40625 51.796875 85.40625 53.140625 
Q 86.40625 54.5 87.09375 54.5 
Q 88.40625 54.5 93.84375 50 
Q 99.296875 45.5 99.296875 44.390625 
Q 99.296875 43.296875 97.296875 43.296875 
L 81.203125 43.296875 
Q 81.09375 42.40625 80.203125 41.203125 
L 80.203125 0.203125 
Q 80.203125 -4.703125 79.09375 -7 
Q 78 -9.296875 73.890625 -10.390625 
Q 69.796875 -11.5 62.703125 -11.5 
Q 61.203125 -11.5 60.140625 -10.640625 
Q 59.09375 -9.796875 59.09375 -8.59375 
Q 59.09375 -5.09375 57.1875 -3.4375 
Q 55.296875 -1.796875 50.90625 -0.90625 
Q 49.796875 -0.703125 49.796875 -0.203125 
Q 49.796875 0.296875 52.59375 0.296875 
Q 59.90625 0.296875 63.25 1.140625 
Q 66.59375 2 66.59375 4.203125 
z
" id="STSongti-SC-Black-34892"/>
     <path d="M 42.59375 5.703125 
Q 39 5.796875 34.796875 5.890625 
Q 30.59375 6 24.09375 6 
Q 17.5 6 12.140625 5.953125 
Q 6.796875 5.90625 3.296875 5.703125 
Q 3.59375 8.09375 4.09375 10.296875 
Q 4.59375 12.5 5.890625 14.953125 
Q 7.203125 17.40625 9.453125 20.296875 
Q 11.703125 23.203125 15.5 27.09375 
L 19.203125 30.90625 
Q 23.09375 34.796875 25.390625 37.6875 
Q 27.703125 40.59375 28.890625 42.9375 
Q 30.09375 45.296875 30.390625 47.390625 
Q 30.703125 49.5 30.703125 51.90625 
Q 30.703125 56.59375 27.796875 59.390625 
Q 24.90625 62.203125 20 62.203125 
Q 14.90625 62.203125 11.65625 58.890625 
Q 8.40625 55.59375 7.203125 49.40625 
L 4.09375 50.59375 
Q 5.5 59.796875 10.84375 64.640625 
Q 16.203125 69.5 24.203125 69.5 
Q 27.796875 69.5 31 68.5 
Q 34.203125 67.5 36.59375 65.546875 
Q 39 63.59375 40.453125 60.75 
Q 41.90625 57.90625 41.90625 54.203125 
Q 41.90625 50.296875 40.5 47 
Q 39.09375 43.703125 36.6875 40.75 
Q 34.296875 37.796875 31.140625 35.09375 
Q 28 32.40625 24.59375 29.796875 
L 21.59375 27.40625 
Q 19 25.296875 16.09375 22.296875 
Q 13.203125 19.296875 10.703125 15.296875 
L 32.40625 15.296875 
Q 34.90625 15.296875 36.203125 15.796875 
Q 37.5 16.296875 38.25 17.4375 
Q 39 18.59375 39.546875 20.34375 
Q 40.09375 22.09375 41 24.5 
L 44.09375 24.5 
z
" id="STSongti-SC-Black-50"/>
     <path d="M 23.703125 69.5 
Q 28 69.5 31.953125 66.953125 
Q 35.90625 64.40625 38.84375 60 
Q 41.796875 55.59375 43.546875 49.640625 
Q 45.296875 43.703125 45.296875 36.90625 
Q 45.296875 30.203125 43.59375 24.296875 
Q 41.90625 18.40625 38.953125 13.953125 
Q 36 9.5 32.09375 6.953125 
Q 28.203125 4.40625 23.796875 4.40625 
Q 19.5 4.40625 15.546875 6.90625 
Q 11.59375 9.40625 8.59375 13.75 
Q 5.59375 18.09375 3.84375 24.046875 
Q 2.09375 30 2.09375 36.796875 
Q 2.09375 43.703125 3.84375 49.703125 
Q 5.59375 55.703125 8.546875 60.09375 
Q 11.5 64.5 15.390625 67 
Q 19.296875 69.5 23.703125 69.5 
z
M 23.703125 8.09375 
Q 29.203125 8.09375 31.203125 15.09375 
Q 33.203125 22.09375 33.203125 36.90625 
Q 33.203125 51.703125 31.140625 58.75 
Q 29.09375 65.796875 23.703125 65.796875 
Q 18.296875 65.796875 16.25 58.796875 
Q 14.203125 51.796875 14.203125 36.90625 
Q 14.203125 8.09375 23.703125 8.09375 
z
" id="STSongti-SC-Black-48"/>
     <path d="M 38.5 5.703125 
Q 35.90625 5.796875 31.953125 5.890625 
Q 28 6 23.796875 6 
Q 19.59375 6 15.640625 5.890625 
Q 11.703125 5.796875 9.09375 5.703125 
L 9.09375 8.59375 
L 15.296875 9.5 
Q 18.796875 10.296875 18.796875 13.40625 
L 18.796875 60 
L 6.90625 52.296875 
L 5.203125 55.40625 
Q 6.90625 56.5 9.5 58.09375 
Q 12.09375 59.703125 15 61.59375 
Q 17.90625 63.5 20.796875 65.5 
Q 23.703125 67.5 26.09375 69.5 
L 29.40625 69.5 
L 29.40625 13.40625 
Q 29.40625 9.90625 32.90625 9.40625 
L 38.5 8.59375 
z
" id="STSongti-SC-Black-49"/>
     <path d="M 16.703125 37 
Q 4.40625 43.09375 4.40625 53.5 
Q 4.40625 56.59375 5.75 59.4375 
Q 7.09375 62.296875 9.640625 64.546875 
Q 12.203125 66.796875 15.703125 68.140625 
Q 19.203125 69.5 23.59375 69.5 
Q 27.5 69.5 30.75 68.390625 
Q 34 67.296875 36.34375 65.390625 
Q 38.703125 63.5 40 60.953125 
Q 41.296875 58.40625 41.296875 55.5 
Q 41.296875 52.59375 40.4375 50.5 
Q 39.59375 48.40625 38.09375 46.75 
Q 36.59375 45.09375 34.390625 43.640625 
Q 32.203125 42.203125 29.5 40.59375 
Q 34.40625 38.203125 37.203125 35.890625 
Q 40 33.59375 41.34375 31.34375 
Q 42.703125 29.09375 43 26.84375 
Q 43.296875 24.59375 43.296875 22.40625 
Q 43.296875 18.59375 41.640625 15.296875 
Q 40 12 37.25 9.59375 
Q 34.5 7.203125 30.796875 5.796875 
Q 27.09375 4.40625 22.90625 4.40625 
Q 18.5 4.40625 14.84375 5.65625 
Q 11.203125 6.90625 8.59375 9 
Q 6 11.09375 4.59375 13.9375 
Q 3.203125 16.796875 3.203125 20 
Q 3.203125 22.40625 3.84375 24.75 
Q 4.5 27.09375 6.09375 29.296875 
Q 7.703125 31.5 10.296875 33.390625 
Q 12.90625 35.296875 16.703125 37 
z
M 26.296875 42.296875 
Q 30 44.59375 31.59375 47.59375 
Q 33.203125 50.59375 33.203125 55.09375 
Q 33.203125 59.796875 30.75 62.796875 
Q 28.296875 65.796875 23 65.796875 
Q 18.09375 65.796875 15.796875 63.046875 
Q 13.5 60.296875 13.5 56.203125 
Q 13.5 52.09375 16.34375 48.84375 
Q 19.203125 45.59375 26.296875 42.296875 
z
M 19.59375 35.40625 
Q 17.296875 34 15.796875 32.453125 
Q 14.296875 30.90625 13.4375 29.15625 
Q 12.59375 27.40625 12.25 25.34375 
Q 11.90625 23.296875 11.90625 20.796875 
Q 11.90625 14.703125 15.25 11.09375 
Q 18.59375 7.5 23.703125 7.5 
Q 33.796875 7.5 33.796875 19.296875 
Q 33.796875 22.09375 32.9375 24.296875 
Q 32.09375 26.5 30.34375 28.390625 
Q 28.59375 30.296875 25.890625 32 
Q 23.203125 33.703125 19.59375 35.40625 
z
" id="STSongti-SC-Black-56"/>
     <path d="M 33 67.09375 
L 73.90625 67.09375 
Q 77.296875 73.703125 77.9375 74.453125 
Q 78.59375 75.203125 79.34375 75.203125 
Q 80.09375 75.203125 80.75 74.84375 
Q 81.40625 74.5 84.59375 72.09375 
Q 87.796875 69.703125 89.546875 68.140625 
Q 91.296875 66.59375 91.796875 65.890625 
Q 92.296875 65.203125 92.296875 64.796875 
Q 92.296875 63.796875 90 63.796875 
L 63.296875 63.796875 
Q 62.5 62.5 60.5 62.09375 
L 60.5 45.5 
L 70.90625 45.5 
Q 71.796875 47.296875 73.5 50.25 
Q 75.203125 53.203125 75.75 53.34375 
Q 76.296875 53.5 76.5 53.5 
Q 77.90625 53.5 83.25 48.890625 
Q 88.59375 44.296875 88.59375 43.25 
Q 88.59375 42.203125 86.296875 42.203125 
L 60.5 42.203125 
L 60.5 22.296875 
L 77.90625 22.296875 
Q 78.796875 23.796875 80.84375 27.046875 
Q 82.90625 30.296875 83.40625 31 
Q 83.90625 31.703125 84.40625 31.703125 
Q 85.90625 31.703125 92 26.796875 
Q 98.09375 21.90625 98.09375 20.453125 
Q 98.09375 19 95.203125 19 
L 60.5 19 
L 60.5 3 
Q 60.5 -0.296875 60.703125 -3.90625 
L 60.796875 -7.203125 
Q 60.796875 -8.203125 60.09375 -8.890625 
Q 59.40625 -9.59375 56.59375 -10.390625 
Q 53.796875 -11.203125 51.390625 -11.203125 
Q 49 -11.203125 48.34375 -10.703125 
Q 47.703125 -10.203125 47.703125 -8.796875 
L 47.90625 -3 
Q 48 0.5 48 4.5 
L 48 19 
L 9.40625 19 
Q 7.40625 19 5.796875 17.90625 
L 3.203125 22.59375 
Q 5.59375 22.296875 8.203125 22.296875 
L 20.90625 22.296875 
L 20.90625 40.90625 
Q 20.90625 45.90625 20.703125 49.796875 
Q 27.796875 48.5 33.90625 45.5 
L 48 45.5 
L 48 63.796875 
L 30.59375 63.796875 
Q 21.40625 51.203125 13.203125 45.046875 
Q 5 38.90625 3.40625 38.90625 
Q 3.09375 38.90625 3.09375 39.09375 
Q 3.09375 39.59375 4.296875 40.703125 
Q 12.40625 48.5 17.75 59.796875 
Q 23.09375 71.09375 24.59375 83.5 
Q 29.796875 82.296875 34.546875 80.546875 
Q 39.296875 78.796875 40.890625 77.84375 
Q 42.5 76.90625 42.5 76 
Q 42.5 75.09375 40.296875 74.75 
Q 38.09375 74.40625 36.296875 71.90625 
z
M 48 42.203125 
L 34.796875 42.203125 
Q 33.796875 41.5 32.5 41.40625 
L 32.5 22.296875 
L 48 22.296875 
z
" id="STSongti-SC-Black-24180"/>
     <path d="M 54.59375 42.796875 
Q 53.796875 42.40625 50.890625 39.5 
Q 48 36.59375 47.703125 36.59375 
Q 47.40625 36.59375 47.40625 36.9375 
Q 47.40625 37.296875 48 38.40625 
Q 56.703125 54.296875 58.59375 82.296875 
Q 64.40625 81 69.34375 79.390625 
Q 74.296875 77.796875 75.046875 77.25 
Q 75.796875 76.703125 75.796875 75.953125 
Q 75.796875 75.203125 73.84375 74.703125 
Q 71.90625 74.203125 71 72.09375 
L 65.40625 59.796875 
L 80.09375 59.796875 
Q 82.90625 65.796875 84.59375 65.796875 
Q 85.703125 65.796875 89.390625 63.390625 
Q 93.09375 61 95.5 59.203125 
Q 97.90625 57.40625 97.90625 56.046875 
Q 97.90625 54.703125 93.5 53.59375 
Q 93.40625 38.703125 92.75 22.453125 
Q 92.09375 6.203125 91.046875 1.546875 
Q 90 -3.09375 87.203125 -5.546875 
Q 84.40625 -8 80 -8.640625 
Q 75.59375 -9.296875 73.640625 -9.296875 
Q 71.703125 -9.296875 71.09375 -8.75 
Q 70.5 -8.203125 70.25 -5.59375 
Q 70 -3 67.59375 -1 
Q 65.203125 1 60.296875 2.203125 
Q 58.40625 2.703125 58.40625 3.046875 
Q 58.40625 3.40625 59.90625 3.40625 
L 67 3.296875 
Q 73.09375 3.296875 75.6875 4.1875 
Q 78.296875 5.09375 79.25 7.890625 
Q 80.203125 10.703125 80.890625 24.953125 
Q 81.59375 39.203125 81.59375 56.5 
L 63.703125 56.5 
Q 59.5 49 54.796875 43.59375 
Q 63.90625 41.09375 68.5 37.6875 
Q 73.09375 34.296875 73.09375 30.09375 
Q 73.09375 25.90625 71.046875 23.59375 
Q 69 21.296875 65.796875 21.296875 
Q 62.59375 21.296875 61.59375 22.640625 
Q 60.59375 24 60.59375 28.59375 
Q 60.59375 39.296875 54.59375 42.796875 
z
M 21.296875 59.5 
Q 21.90625 65.59375 21.90625 70.75 
Q 21.90625 75.90625 21.5 81.5 
Q 26.59375 81 31.4375 80.203125 
Q 36.296875 79.40625 37.5 78.90625 
Q 38.703125 78.40625 38.703125 77.75 
Q 38.703125 77.09375 37 76.34375 
Q 35.296875 75.59375 33.34375 72.59375 
Q 31.40625 69.59375 26.40625 59.5 
L 35 59.5 
Q 36.296875 62.296875 37.296875 63.59375 
Q 38.296875 64.90625 39.34375 64.90625 
Q 40.40625 64.90625 45.546875 61.59375 
Q 50.703125 58.296875 50.703125 56.9375 
Q 50.703125 55.59375 47 54.703125 
L 47 12 
Q 47 7.296875 47.09375 5.40625 
L 47.203125 2 
Q 47.203125 0.703125 46.34375 0.09375 
Q 45.5 -0.5 43.140625 -1.296875 
Q 40.796875 -2.09375 37.703125 -2.09375 
Q 36 -2.09375 36 0.203125 
L 36 5 
L 20.09375 5 
L 20.09375 -1 
Q 20.09375 -2.09375 19.390625 -2.75 
Q 18.703125 -3.40625 16.203125 -4 
Q 13.703125 -4.59375 11.5 -4.59375 
Q 9.296875 -4.59375 9.046875 -4.296875 
Q 8.796875 -4 8.796875 -3.203125 
L 9 1.5 
Q 9.203125 6.40625 9.203125 10.40625 
L 9.203125 52.796875 
Q 9.203125 58.90625 9 63.203125 
Q 14.5 61.90625 20.703125 59.5 
z
M 20.09375 35.90625 
L 36 35.90625 
L 36 56.203125 
L 22.09375 56.203125 
Q 21.703125 54 20.09375 53.296875 
z
M 36 32.59375 
L 20.09375 32.59375 
L 20.09375 8.296875 
L 36 8.296875 
z
" id="STSongti-SC-Black-30340"/>
     <path d="M 41.296875 82.703125 
Q 50.203125 82.703125 54.390625 79.953125 
Q 58.59375 77.203125 58.59375 72.90625 
Q 58.59375 69.90625 56.25 67.453125 
Q 53.90625 65 50.296875 65 
Q 45.40625 65 44.703125 70.90625 
Q 44.296875 74.203125 42.59375 76.953125 
Q 40.90625 79.703125 38.90625 80.75 
Q 36.90625 81.796875 36.90625 82.25 
Q 36.90625 82.703125 41.296875 82.703125 
z
M 76.59375 63.796875 
Q 78.703125 67.40625 80.34375 70 
Q 82 72.59375 82.5 73.140625 
Q 83 73.703125 83.5 73.703125 
Q 84.703125 73.703125 90.453125 68.59375 
Q 96.203125 63.5 96.203125 62 
Q 96.203125 60.5 93.296875 60.5 
L 11.40625 60.5 
Q 9.40625 60.5 7.796875 59.40625 
L 5.203125 64.09375 
Q 7.59375 63.796875 10.203125 63.796875 
z
M 72 42.296875 
Q 64.90625 53.703125 53.796875 58.59375 
Q 52.796875 59 52.796875 59.390625 
Q 52.796875 59.796875 53.5 59.796875 
Q 55.59375 59.796875 65 57.390625 
Q 74.40625 55 79.703125 51.84375 
Q 85 48.703125 86.890625 45.34375 
Q 88.796875 42 88.796875 38.84375 
Q 88.796875 35.703125 86.4375 33.390625 
Q 84.09375 31.09375 80.40625 31.09375 
Q 79 31.09375 77.703125 32.140625 
Q 76.40625 33.203125 75.65625 35.140625 
Q 74.90625 37.09375 74.09375 38.59375 
Q 72.5 38.203125 70 33.203125 
Q 64.5 22.703125 58.09375 15.703125 
Q 75.296875 6.5 96.59375 5.09375 
Q 98.5 5 98.5 4.59375 
Q 98.5 4.203125 97.296875 3.796875 
Q 93.703125 2.59375 90.84375 -0.65625 
Q 88 -3.90625 86.59375 -8 
Q 86.203125 -9.203125 85.296875 -9.203125 
Q 83.5 -9.203125 72.046875 -4.140625 
Q 60.59375 0.90625 50.796875 9 
Q 39.796875 0.59375 23.75 -3.796875 
Q 7.703125 -8.203125 5 -8.203125 
Q 4.5 -8.203125 4.5 -8.09375 
Q 4.5 -7.796875 5.90625 -7.203125 
Q 30.40625 3.09375 43.703125 16.09375 
Q 34.203125 27.296875 31.90625 39.703125 
Q 25.09375 33.5 19.046875 29.703125 
Q 13 25.90625 11.90625 25.90625 
Q 11.59375 25.90625 11.59375 26.203125 
Q 11.59375 26.5 12.703125 27.59375 
Q 24.90625 40.203125 31.296875 59.40625 
Q 37 57.203125 41.25 55.203125 
Q 45.5 53.203125 46.140625 52.640625 
Q 46.796875 52.09375 46.796875 51.5 
Q 46.796875 50.5 44.75 50.25 
Q 42.703125 50 41.546875 49 
Q 40.40625 48 37.34375 44.890625 
Q 34.296875 41.796875 33.09375 40.796875 
Q 38.203125 30 48.796875 21.703125 
Q 58.203125 33.203125 61 47.59375 
Q 68.40625 44.703125 72 42.296875 
z
" id="STSongti-SC-Black-20132"/>
     <path d="M 35.59375 76.5 
L 65.703125 76.5 
Q 67.59375 80.59375 68.1875 81.5 
Q 68.796875 82.40625 69.5 82.40625 
Q 70.90625 82.40625 77.09375 78.09375 
Q 83.296875 73.796875 83.296875 72.5 
Q 83.296875 71.5 80.203125 70.40625 
L 80.203125 54 
Q 80.203125 49.59375 80.296875 47.796875 
L 80.40625 44.5 
Q 80.40625 43.90625 80.15625 43.546875 
Q 79.90625 43.203125 77.953125 42.296875 
Q 76 41.40625 72.453125 40.84375 
Q 68.90625 40.296875 68.15625 40.296875 
Q 67.40625 40.296875 67.203125 40.796875 
Q 67 41.296875 67 42.59375 
L 67 45.40625 
L 34.5 45.40625 
L 34.5 45.203125 
Q 38.09375 44.296875 41.640625 43.046875 
Q 45.203125 41.796875 45.640625 41.25 
Q 46.09375 40.703125 46.09375 40.203125 
Q 46.09375 39.203125 44.796875 39 
Q 41.90625 38.59375 38.703125 35.90625 
L 78 35.90625 
Q 79.59375 38.796875 80.296875 39.6875 
Q 81 40.59375 81.703125 40.59375 
Q 83 40.59375 88.25 37.25 
Q 93.5 33.90625 94.5 33 
Q 95.5 32.09375 95.5 31.203125 
Q 95.5 29.5 91.296875 28.203125 
Q 89.296875 11.296875 86.390625 2.140625 
Q 83.5 -7 78.796875 -8.796875 
Q 74.09375 -10.59375 70.90625 -10.59375 
Q 69.703125 -10.59375 69.046875 -10.09375 
Q 68.40625 -9.59375 68.203125 -8.09375 
Q 67.703125 -4.296875 65.75 -2.640625 
Q 63.796875 -1 57.90625 0.40625 
Q 56.203125 0.796875 56.203125 1.25 
Q 56.203125 1.703125 58.25 1.640625 
Q 60.296875 1.59375 61 1.59375 
Q 67.40625 1.59375 70.40625 3.046875 
Q 73.40625 4.5 74.65625 7.75 
Q 75.90625 11 77.25 19 
Q 78.59375 27 79 32.59375 
L 74.59375 32.59375 
Q 74.203125 31.90625 72.203125 30.796875 
Q 69.40625 21.703125 64.25 14.703125 
Q 59.09375 7.703125 51.046875 2.390625 
Q 43 -2.90625 30.390625 -6.90625 
Q 17.796875 -10.90625 13 -10.90625 
Q 12.40625 -10.90625 12.40625 -10.453125 
Q 12.40625 -10 13 -9.796875 
Q 34.5 -2 45.390625 8.140625 
Q 56.296875 18.296875 59.5 32.59375 
L 53.5 32.59375 
Q 53 32.09375 51.796875 31.796875 
Q 45.59375 20.40625 38.6875 14.40625 
Q 31.796875 8.40625 21.25 4.203125 
Q 10.703125 0 8.90625 0 
Q 8.203125 0 8.203125 0.453125 
Q 8.203125 0.90625 9.40625 1.5 
Q 32.203125 12.59375 38.703125 32.59375 
L 34.796875 32.59375 
Q 27 26 18.09375 22.09375 
Q 9.203125 18.203125 8 18.203125 
Q 7.5 18.203125 7.5 18.546875 
Q 7.5 18.90625 8.296875 19.40625 
Q 21.90625 28.703125 28.90625 40.59375 
Q 27.40625 40.296875 25.25 40.046875 
Q 23.09375 39.796875 22.546875 39.796875 
Q 22 39.796875 22 40.59375 
L 22.203125 45 
Q 22.40625 48 22.40625 50.5 
L 22.40625 72.703125 
Q 22.40625 77.09375 22.09375 81.40625 
Q 29.296875 79.59375 35.59375 76.5 
z
M 67 62.90625 
L 67 73.203125 
L 36.09375 73.203125 
Q 35.703125 72.40625 34.5 72 
L 34.5 62.90625 
z
M 67 48.703125 
L 67 59.59375 
L 34.5 59.59375 
L 34.5 48.703125 
z
" id="STSongti-SC-Black-26131"/>
     <path d="M 31 78.09375 
L 67.796875 78.09375 
Q 69.5 80.796875 70.640625 82.140625 
Q 71.796875 83.5 72.59375 83.5 
Q 73.90625 83.5 79.203125 79.796875 
Q 84.5 76.09375 84.5 74.796875 
Q 84.5 73.5 80.796875 71.90625 
L 80.796875 65.09375 
L 81 55.90625 
Q 81 54.40625 80.140625 53.5 
Q 79.296875 52.59375 76.75 51.75 
Q 74.203125 50.90625 70.703125 50.90625 
Q 68.796875 50.90625 68.703125 53.09375 
L 30.796875 53.09375 
Q 30.796875 52.296875 28.140625 51.1875 
Q 25.5 50.09375 20.796875 50.09375 
Q 19.40625 50.09375 19.40625 51.203125 
L 19.59375 55.703125 
Q 19.796875 58.703125 19.796875 61.203125 
L 19.796875 73.203125 
Q 19.796875 77.59375 19.5 81.90625 
Q 26.203125 80.09375 31 78.09375 
z
M 68.703125 67.703125 
L 68.703125 74.796875 
L 32.796875 74.796875 
Q 32.40625 73.703125 30.90625 73 
L 30.90625 67.703125 
z
M 68.703125 56.40625 
L 68.703125 64.40625 
L 30.90625 64.40625 
L 30.90625 56.40625 
z
M 74 45.40625 
L 9.90625 45.40625 
Q 7.90625 45.40625 6.296875 44.296875 
L 3.703125 49 
Q 6.09375 48.703125 8.703125 48.703125 
L 79.703125 48.703125 
Q 81.09375 51.296875 82.546875 53.59375 
Q 84 55.90625 84.5 56.5 
Q 85 57.09375 85.796875 57.09375 
Q 86.59375 57.09375 89.703125 54.5 
L 95.40625 49.90625 
Q 97.796875 47.796875 97.796875 46.59375 
Q 97.796875 45.40625 94.90625 45.40625 
L 77.796875 45.40625 
Q 86.90625 39.59375 86.90625 38 
Q 86.90625 36.40625 83.703125 35.296875 
L 83.703125 25.296875 
Q 83.703125 22.40625 83.84375 20.203125 
Q 84 18 84 17.5 
Q 84 17 83.5 16.453125 
Q 83 15.90625 79.796875 14.59375 
Q 88.296875 7.796875 88.296875 5.90625 
Q 88.296875 4.90625 86.09375 4.90625 
L 55.5 4.90625 
L 55.5 -2.90625 
L 79.59375 -2.90625 
Q 82.09375 1.296875 83.296875 2.640625 
Q 84.5 4 85.203125 4 
Q 85.90625 4 89.203125 1.796875 
Q 92.5 -0.40625 94.703125 -2.25 
Q 96.90625 -4.09375 96.90625 -5.140625 
Q 96.90625 -6.203125 94.5 -6.203125 
L 13.40625 -6.203125 
Q 11.40625 -6.203125 9.796875 -7.296875 
L 7.203125 -2.59375 
Q 9.59375 -2.90625 12.203125 -2.90625 
L 44.296875 -2.90625 
L 44.296875 4.90625 
L 20.90625 4.90625 
Q 18.90625 4.90625 17.296875 3.796875 
L 14.703125 8.5 
Q 17.09375 8.203125 19.703125 8.203125 
L 44.296875 8.203125 
L 44.296875 15 
L 28 15 
Q 28 13.796875 27.453125 13.1875 
Q 26.90625 12.59375 24.296875 11.9375 
Q 21.703125 11.296875 18.203125 11.296875 
Q 16.703125 11.296875 16.84375 13.25 
Q 17 15.203125 17 21.296875 
L 17 35.796875 
Q 17 40 16.703125 44.296875 
Q 22.203125 43 27.296875 41.09375 
L 71.40625 41.09375 
Q 72.796875 43.796875 74 45.40625 
z
M 44.296875 37.796875 
L 30.296875 37.796875 
Q 29.796875 36.09375 28 35.40625 
L 28 29.59375 
L 44.296875 29.59375 
z
M 71.796875 29.59375 
L 71.796875 37.796875 
L 57.40625 37.796875 
Q 56.90625 36.40625 55.5 35.703125 
L 55.5 29.59375 
z
M 44.296875 26.296875 
L 28 26.296875 
L 28 18.296875 
L 44.296875 18.296875 
z
M 71.796875 18.296875 
L 71.796875 26.296875 
L 55.5 26.296875 
L 55.5 18.296875 
z
M 77 13.90625 
Q 74.90625 13.703125 73.453125 13.703125 
Q 72 13.703125 71.796875 15 
L 55.5 15 
L 55.5 8.203125 
L 73.5 8.203125 
Q 74.796875 10.703125 77 13.90625 
z
" id="STSongti-SC-Black-37327"/>
    </defs>
    <g transform="translate(138.27375 35.472)scale(0.18 -0.18)">
     <use xlink:href="#STSongti-SC-Black-24179"/>
     <use x="99.999985" xlink:href="#STSongti-SC-Black-23433"/>
     <use x="199.999969" xlink:href="#STSongti-SC-Black-38134"/>
     <use x="299.999954" xlink:href="#STSongti-SC-Black-34892"/>
     <use x="399.999939" xlink:href="#STSongti-SC-Black-50"/>
     <use x="446.899933" xlink:href="#STSongti-SC-Black-48"/>
     <use x="493.799927" xlink:href="#STSongti-SC-Black-49"/>
     <use x="540.699921" xlink:href="#STSongti-SC-Black-56"/>
     <use x="587.599915" xlink:href="#STSongti-SC-Black-24180"/>
     <use x="687.599899" xlink:href="#STSongti-SC-Black-30340"/>
     <use x="787.599884" xlink:href="#STSongti-SC-Black-20132"/>
     <use x="887.599869" xlink:href="#STSongti-SC-Black-26131"/>
     <use x="987.599854" xlink:href="#STSongti-SC-Black-37327"/>
    </g>
   </g>
  </g>
 </g>
 <defs>
  <clipPath id="pfe81666e69">
   <rect height="266.112" width="357.12" x="57.6" y="41.472"/>
  </clipPath>
 </defs>
</svg>
