<?xml version="1.0" encoding="utf-8" standalone="no"?>
<!DOCTYPE svg PUBLIC "-//W3C//DTD SVG 1.1//EN"
  "http://www.w3.org/Graphics/SVG/1.1/DTD/svg11.dtd">
<!-- Created with matplotlib (https://matplotlib.org/) -->
<svg height="576pt" version="1.1" viewBox="0 0 864 576" width="864pt" xmlns="http://www.w3.org/2000/svg" xmlns:xlink="http://www.w3.org/1999/xlink">
 <defs>
  <style type="text/css">
*{stroke-linecap:butt;stroke-linejoin:round;}
  </style>
 </defs>
 <g id="figure_1">
  <g id="patch_1">
   <path d="M 0 576 
L 864 576 
L 864 0 
L 0 0 
z
" style="fill:#ffffff;"/>
  </g>
  <g id="axes_1">
   <g id="patch_2">
    <path d="M 108 512.64 
L 777.6 512.64 
L 777.6 69.12 
L 108 69.12 
z
" style="fill:#ffffff;"/>
   </g>
   <g id="PathCollection_1">
    <defs>
     <path d="M 0 3 
C 0.795609 3 1.55874 2.683901 2.12132 2.12132 
C 2.683901 1.55874 3 0.795609 3 0 
C 3 -0.795609 2.683901 -1.55874 2.12132 -2.12132 
C 1.55874 -2.683901 0.795609 -3 0 -3 
C -0.795609 -3 -1.55874 -2.683901 -2.12132 -2.12132 
C -2.683901 -1.55874 -3 -0.795609 -3 0 
C -3 0.795609 -2.683901 1.55874 -2.12132 2.12132 
C -1.55874 2.683901 -0.795609 3 0 3 
z
" id="m0794a9c433" style="stroke:#1f77b4;"/>
    </defs>
    <g clip-path="url(#pf419c0f2ef)">
     <use style="fill:#1f77b4;stroke:#1f77b4;" x="382.519708" xlink:href="#m0794a9c433" y="303.727358"/>
     <use style="fill:#1f77b4;stroke:#1f77b4;" x="429.404651" xlink:href="#m0794a9c433" y="235.506464"/>
     <use style="fill:#1f77b4;stroke:#1f77b4;" x="451.222642" xlink:href="#m0794a9c433" y="181.185558"/>
     <use style="fill:#1f77b4;stroke:#1f77b4;" x="385.741353" xlink:href="#m0794a9c433" y="211.791142"/>
     <use style="fill:#1f77b4;stroke:#1f77b4;" x="463.466667" xlink:href="#m0794a9c433" y="297.455121"/>
     <use style="fill:#1f77b4;stroke:#1f77b4;" x="509.350459" xlink:href="#m0794a9c433" y="298.701485"/>
     <use style="fill:#1f77b4;stroke:#1f77b4;" x="431.200891" xlink:href="#m0794a9c433" y="320.001485"/>
     <use style="fill:#1f77b4;stroke:#1f77b4;" x="467.785075" xlink:href="#m0794a9c433" y="263.782315"/>
     <use style="fill:#1f77b4;stroke:#1f77b4;" x="549.870111" xlink:href="#m0794a9c433" y="194.60831"/>
     <use style="fill:#1f77b4;stroke:#1f77b4;" x="442.8" xlink:href="#m0794a9c433" y="106.827274"/>
     <use style="fill:#1f77b4;stroke:#1f77b4;" x="447.515493" xlink:href="#m0794a9c433" y="311.594863"/>
     <use style="fill:#1f77b4;stroke:#1f77b4;" x="519.657344" xlink:href="#m0794a9c433" y="288.973089"/>
     <use style="fill:#1f77b4;stroke:#1f77b4;" x="454.930435" xlink:href="#m0794a9c433" y="306.948802"/>
     <use style="fill:#1f77b4;stroke:#1f77b4;" x="388.508108" xlink:href="#m0794a9c433" y="282.384973"/>
     <use style="fill:#1f77b4;stroke:#1f77b4;" x="475.259834" xlink:href="#m0794a9c433" y="208.985365"/>
     <use style="fill:#1f77b4;stroke:#1f77b4;" x="441.276451" xlink:href="#m0794a9c433" y="280.501042"/>
     <use style="fill:#1f77b4;stroke:#1f77b4;" x="375.718033" xlink:href="#m0794a9c433" y="337.399569"/>
     <use style="fill:#1f77b4;stroke:#1f77b4;" x="419.222535" xlink:href="#m0794a9c433" y="297.048549"/>
     <use style="fill:#1f77b4;stroke:#1f77b4;" x="393.553025" xlink:href="#m0794a9c433" y="367.94158"/>
     <use style="fill:#1f77b4;stroke:#1f77b4;" x="428.179913" xlink:href="#m0794a9c433" y="412.52454"/>
     <use style="fill:#1f77b4;stroke:#1f77b4;" x="508.206593" xlink:href="#m0794a9c433" y="216.950474"/>
     <use style="fill:#1f77b4;stroke:#1f77b4;" x="439.622776" xlink:href="#m0794a9c433" y="291.888231"/>
     <use style="fill:#1f77b4;stroke:#1f77b4;" x="445.981753" xlink:href="#m0794a9c433" y="295.359022"/>
     <use style="fill:#1f77b4;stroke:#1f77b4;" x="522.230605" xlink:href="#m0794a9c433" y="311.024979"/>
     <use style="fill:#1f77b4;stroke:#1f77b4;" x="358.428866" xlink:href="#m0794a9c433" y="356.932645"/>
     <use style="fill:#1f77b4;stroke:#1f77b4;" x="270.617143" xlink:href="#m0794a9c433" y="460.143421"/>
     <use style="fill:#1f77b4;stroke:#1f77b4;" x="377.152941" xlink:href="#m0794a9c433" y="303.532527"/>
     <use style="fill:#1f77b4;stroke:#1f77b4;" x="291.508134" xlink:href="#m0794a9c433" y="386.302133"/>
     <use style="fill:#1f77b4;stroke:#1f77b4;" x="448.527973" xlink:href="#m0794a9c433" y="244.794221"/>
     <use style="fill:#1f77b4;stroke:#1f77b4;" x="484.697611" xlink:href="#m0794a9c433" y="232.077378"/>
     <use style="fill:#1f77b4;stroke:#1f77b4;" x="454.01608" xlink:href="#m0794a9c433" y="259.313168"/>
     <use style="fill:#1f77b4;stroke:#1f77b4;" x="528.36" xlink:href="#m0794a9c433" y="253.82297"/>
     <use style="fill:#1f77b4;stroke:#1f77b4;" x="469.669984" xlink:href="#m0794a9c433" y="222.876576"/>
     <use style="fill:#1f77b4;stroke:#1f77b4;" x="446.340048" xlink:href="#m0794a9c433" y="322.112948"/>
     <use style="fill:#1f77b4;stroke:#1f77b4;" x="380.947268" xlink:href="#m0794a9c433" y="369.534544"/>
     <use style="fill:#1f77b4;stroke:#1f77b4;" x="400.99544" xlink:href="#m0794a9c433" y="301.594375"/>
     <use style="fill:#1f77b4;stroke:#1f77b4;" x="440.947718" xlink:href="#m0794a9c433" y="307.635775"/>
     <use style="fill:#1f77b4;stroke:#1f77b4;" x="426.115615" xlink:href="#m0794a9c433" y="297.115706"/>
     <use style="fill:#1f77b4;stroke:#1f77b4;" x="425.989958" xlink:href="#m0794a9c433" y="295.137881"/>
     <use style="fill:#1f77b4;stroke:#1f77b4;" x="487.966948" xlink:href="#m0794a9c433" y="188.148246"/>
     <use style="fill:#1f77b4;stroke:#1f77b4;" x="433.57686" xlink:href="#m0794a9c433" y="337.957887"/>
     <use style="fill:#1f77b4;stroke:#1f77b4;" x="453.913693" xlink:href="#m0794a9c433" y="239.714817"/>
     <use style="fill:#1f77b4;stroke:#1f77b4;" x="439.11379" xlink:href="#m0794a9c433" y="300.017133"/>
     <use style="fill:#1f77b4;stroke:#1f77b4;" x="431.723077" xlink:href="#m0794a9c433" y="342.799671"/>
     <use style="fill:#1f77b4;stroke:#1f77b4;" x="440.944638" xlink:href="#m0794a9c433" y="297.723724"/>
     <use style="fill:#1f77b4;stroke:#1f77b4;" x="424.230948" xlink:href="#m0794a9c433" y="273.758789"/>
     <use style="fill:#1f77b4;stroke:#1f77b4;" x="403.477852" xlink:href="#m0794a9c433" y="291.077789"/>
     <use style="fill:#1f77b4;stroke:#1f77b4;" x="429.457558" xlink:href="#m0794a9c433" y="290.417903"/>
     <use style="fill:#1f77b4;stroke:#1f77b4;" x="479.23299" xlink:href="#m0794a9c433" y="358.121241"/>
     <use style="fill:#1f77b4;stroke:#1f77b4;" x="440.913271" xlink:href="#m0794a9c433" y="304.887925"/>
     <use style="fill:#1f77b4;stroke:#1f77b4;" x="457.906599" xlink:href="#m0794a9c433" y="266.314566"/>
     <use style="fill:#1f77b4;stroke:#1f77b4;" x="397.784874" xlink:href="#m0794a9c433" y="321.264158"/>
     <use style="fill:#1f77b4;stroke:#1f77b4;" x="381.544425" xlink:href="#m0794a9c433" y="296.069188"/>
     <use style="fill:#1f77b4;stroke:#1f77b4;" x="362.101587" xlink:href="#m0794a9c433" y="340.011407"/>
     <use style="fill:#1f77b4;stroke:#1f77b4;" x="444.842086" xlink:href="#m0794a9c433" y="239.157449"/>
     <use style="fill:#1f77b4;stroke:#1f77b4;" x="432.598903" xlink:href="#m0794a9c433" y="266.78463"/>
     <use style="fill:#1f77b4;stroke:#1f77b4;" x="475.593388" xlink:href="#m0794a9c433" y="92.795884"/>
     <use style="fill:#1f77b4;stroke:#1f77b4;" x="412.501357" xlink:href="#m0794a9c433" y="343.587544"/>
     <use style="fill:#1f77b4;stroke:#1f77b4;" x="403.893578" xlink:href="#m0794a9c433" y="275.416889"/>
     <use style="fill:#1f77b4;stroke:#1f77b4;" x="411.539496" xlink:href="#m0794a9c433" y="278.728073"/>
     <use style="fill:#1f77b4;stroke:#1f77b4;" x="508.322727" xlink:href="#m0794a9c433" y="342.508743"/>
     <use style="fill:#1f77b4;stroke:#1f77b4;" x="473.600368" xlink:href="#m0794a9c433" y="366.34393"/>
     <use style="fill:#1f77b4;stroke:#1f77b4;" x="523.816334" xlink:href="#m0794a9c433" y="250.071796"/>
     <use style="fill:#1f77b4;stroke:#1f77b4;" x="522.9331" xlink:href="#m0794a9c433" y="259.488569"/>
     <use style="fill:#1f77b4;stroke:#1f77b4;" x="384.311412" xlink:href="#m0794a9c433" y="338.903711"/>
     <use style="fill:#1f77b4;stroke:#1f77b4;" x="452.4875" xlink:href="#m0794a9c433" y="329.22822"/>
     <use style="fill:#1f77b4;stroke:#1f77b4;" x="352.131029" xlink:href="#m0794a9c433" y="372.980739"/>
     <use style="fill:#1f77b4;stroke:#1f77b4;" x="464.918919" xlink:href="#m0794a9c433" y="296.361788"/>
     <use style="fill:#1f77b4;stroke:#1f77b4;" x="500.541302" xlink:href="#m0794a9c433" y="279.74221"/>
     <use style="fill:#1f77b4;stroke:#1f77b4;" x="436.977391" xlink:href="#m0794a9c433" y="274.730141"/>
     <use style="fill:#1f77b4;stroke:#1f77b4;" x="419.448649" xlink:href="#m0794a9c433" y="294.159995"/>
     <use style="fill:#1f77b4;stroke:#1f77b4;" x="486.063436" xlink:href="#m0794a9c433" y="305.668587"/>
     <use style="fill:#1f77b4;stroke:#1f77b4;" x="498.744685" xlink:href="#m0794a9c433" y="214.570263"/>
     <use style="fill:#1f77b4;stroke:#1f77b4;" x="408.924789" xlink:href="#m0794a9c433" y="345.146438"/>
     <use style="fill:#1f77b4;stroke:#1f77b4;" x="393.115068" xlink:href="#m0794a9c433" y="404.91493"/>
     <use style="fill:#1f77b4;stroke:#1f77b4;" x="331.395447" xlink:href="#m0794a9c433" y="296.027755"/>
     <use style="fill:#1f77b4;stroke:#1f77b4;" x="448.971429" xlink:href="#m0794a9c433" y="343.335725"/>
     <use style="fill:#1f77b4;stroke:#1f77b4;" x="416.130882" xlink:href="#m0794a9c433" y="315.813793"/>
     <use style="fill:#1f77b4;stroke:#1f77b4;" x="428.266047" xlink:href="#m0794a9c433" y="321.711699"/>
     <use style="fill:#1f77b4;stroke:#1f77b4;" x="469.968539" xlink:href="#m0794a9c433" y="250.601729"/>
     <use style="fill:#1f77b4;stroke:#1f77b4;" x="484.095097" xlink:href="#m0794a9c433" y="184.806242"/>
     <use style="fill:#1f77b4;stroke:#1f77b4;" x="434.691008" xlink:href="#m0794a9c433" y="325.418209"/>
     <use style="fill:#1f77b4;stroke:#1f77b4;" x="450.93856" xlink:href="#m0794a9c433" y="298.412625"/>
     <use style="fill:#1f77b4;stroke:#1f77b4;" x="442.8" xlink:href="#m0794a9c433" y="298.458864"/>
     <use style="fill:#1f77b4;stroke:#1f77b4;" x="477.263215" xlink:href="#m0794a9c433" y="288.428511"/>
     <use style="fill:#1f77b4;stroke:#1f77b4;" x="430.821467" xlink:href="#m0794a9c433" y="303.156466"/>
     <use style="fill:#1f77b4;stroke:#1f77b4;" x="398.641727" xlink:href="#m0794a9c433" y="329.012582"/>
     <use style="fill:#1f77b4;stroke:#1f77b4;" x="426.418349" xlink:href="#m0794a9c433" y="323.424662"/>
     <use style="fill:#1f77b4;stroke:#1f77b4;" x="471.679852" xlink:href="#m0794a9c433" y="259.325024"/>
     <use style="fill:#1f77b4;stroke:#1f77b4;" x="440.763504" xlink:href="#m0794a9c433" y="294.810197"/>
     <use style="fill:#1f77b4;stroke:#1f77b4;" x="424.454795" xlink:href="#m0794a9c433" y="316.430897"/>
     <use style="fill:#1f77b4;stroke:#1f77b4;" x="399.639779" xlink:href="#m0794a9c433" y="281.944127"/>
     <use style="fill:#1f77b4;stroke:#1f77b4;" x="434.416901" xlink:href="#m0794a9c433" y="300.55044"/>
     <use style="fill:#1f77b4;stroke:#1f77b4;" x="438.592648" xlink:href="#m0794a9c433" y="309.558117"/>
     <use style="fill:#1f77b4;stroke:#1f77b4;" x="442.8" xlink:href="#m0794a9c433" y="279.40099"/>
     <use style="fill:#1f77b4;stroke:#1f77b4;" x="398.539377" xlink:href="#m0794a9c433" y="361.983458"/>
     <use style="fill:#1f77b4;stroke:#1f77b4;" x="378.291329" xlink:href="#m0794a9c433" y="369.645431"/>
     <use style="fill:#1f77b4;stroke:#1f77b4;" x="464.942857" xlink:href="#m0794a9c433" y="204.926267"/>
     <use style="fill:#1f77b4;stroke:#1f77b4;" x="444.992534" xlink:href="#m0794a9c433" y="253.728564"/>
     <use style="fill:#1f77b4;stroke:#1f77b4;" x="460.323062" xlink:href="#m0794a9c433" y="180.139285"/>
     <use style="fill:#1f77b4;stroke:#1f77b4;" x="440.62668" xlink:href="#m0794a9c433" y="273.355286"/>
     <use style="fill:#1f77b4;stroke:#1f77b4;" x="416.694737" xlink:href="#m0794a9c433" y="327.820736"/>
     <use style="fill:#1f77b4;stroke:#1f77b4;" x="493.427219" xlink:href="#m0794a9c433" y="256.330927"/>
     <use style="fill:#1f77b4;stroke:#1f77b4;" x="388.990935" xlink:href="#m0794a9c433" y="342.197532"/>
     <use style="fill:#1f77b4;stroke:#1f77b4;" x="425.155731" xlink:href="#m0794a9c433" y="239.777418"/>
     <use style="fill:#1f77b4;stroke:#1f77b4;" x="447.246215" xlink:href="#m0794a9c433" y="256.707024"/>
     <use style="fill:#1f77b4;stroke:#1f77b4;" x="418.394433" xlink:href="#m0794a9c433" y="293.899638"/>
     <use style="fill:#1f77b4;stroke:#1f77b4;" x="469.718593" xlink:href="#m0794a9c433" y="309.584873"/>
     <use style="fill:#1f77b4;stroke:#1f77b4;" x="464.964846" xlink:href="#m0794a9c433" y="239.367992"/>
     <use style="fill:#1f77b4;stroke:#1f77b4;" x="376.959292" xlink:href="#m0794a9c433" y="357.294115"/>
     <use style="fill:#1f77b4;stroke:#1f77b4;" x="451.845593" xlink:href="#m0794a9c433" y="299.617066"/>
     <use style="fill:#1f77b4;stroke:#1f77b4;" x="431.538648" xlink:href="#m0794a9c433" y="226.571906"/>
     <use style="fill:#1f77b4;stroke:#1f77b4;" x="440.536308" xlink:href="#m0794a9c433" y="259.530557"/>
     <use style="fill:#1f77b4;stroke:#1f77b4;" x="354.426396" xlink:href="#m0794a9c433" y="412.517945"/>
     <use style="fill:#1f77b4;stroke:#1f77b4;" x="419.20592" xlink:href="#m0794a9c433" y="366.099153"/>
     <use style="fill:#1f77b4;stroke:#1f77b4;" x="378.415385" xlink:href="#m0794a9c433" y="400.364125"/>
     <use style="fill:#1f77b4;stroke:#1f77b4;" x="401.057426" xlink:href="#m0794a9c433" y="318.831762"/>
     <use style="fill:#1f77b4;stroke:#1f77b4;" x="485.338117" xlink:href="#m0794a9c433" y="223.128475"/>
     <use style="fill:#1f77b4;stroke:#1f77b4;" x="324.938614" xlink:href="#m0794a9c433" y="446.90055"/>
     <use style="fill:#1f77b4;stroke:#1f77b4;" x="458.354007" xlink:href="#m0794a9c433" y="229.534371"/>
     <use style="fill:#1f77b4;stroke:#1f77b4;" x="427.353633" xlink:href="#m0794a9c433" y="327.268371"/>
     <use style="fill:#1f77b4;stroke:#1f77b4;" x="440.207666" xlink:href="#m0794a9c433" y="283.720284"/>
     <use style="fill:#1f77b4;stroke:#1f77b4;" x="458.372093" xlink:href="#m0794a9c433" y="273.394866"/>
     <use style="fill:#1f77b4;stroke:#1f77b4;" x="538.162587" xlink:href="#m0794a9c433" y="213.778463"/>
     <use style="fill:#1f77b4;stroke:#1f77b4;" x="430.441196" xlink:href="#m0794a9c433" y="275.80003"/>
     <use style="fill:#1f77b4;stroke:#1f77b4;" x="393.089532" xlink:href="#m0794a9c433" y="350.308069"/>
     <use style="fill:#1f77b4;stroke:#1f77b4;" x="468.221412" xlink:href="#m0794a9c433" y="252.424421"/>
     <use style="fill:#1f77b4;stroke:#1f77b4;" x="442.8" xlink:href="#m0794a9c433" y="300.233626"/>
     <use style="fill:#1f77b4;stroke:#1f77b4;" x="405.097297" xlink:href="#m0794a9c433" y="340.473081"/>
     <use style="fill:#1f77b4;stroke:#1f77b4;" x="440.243299" xlink:href="#m0794a9c433" y="304.332761"/>
     <use style="fill:#1f77b4;stroke:#1f77b4;" x="437.680734" xlink:href="#m0794a9c433" y="336.494226"/>
     <use style="fill:#1f77b4;stroke:#1f77b4;" x="450.496552" xlink:href="#m0794a9c433" y="268.187535"/>
     <use style="fill:#1f77b4;stroke:#1f77b4;" x="539.954639" xlink:href="#m0794a9c433" y="244.501665"/>
     <use style="fill:#1f77b4;stroke:#1f77b4;" x="518.751701" xlink:href="#m0794a9c433" y="231.335661"/>
     <use style="fill:#1f77b4;stroke:#1f77b4;" x="438.061146" xlink:href="#m0794a9c433" y="230.978227"/>
     <use style="fill:#1f77b4;stroke:#1f77b4;" x="438.051064" xlink:href="#m0794a9c433" y="306.195407"/>
     <use style="fill:#1f77b4;stroke:#1f77b4;" x="411.866098" xlink:href="#m0794a9c433" y="330.52606"/>
     <use style="fill:#1f77b4;stroke:#1f77b4;" x="442.8" xlink:href="#m0794a9c433" y="324.052972"/>
     <use style="fill:#1f77b4;stroke:#1f77b4;" x="476.581622" xlink:href="#m0794a9c433" y="301.430648"/>
     <use style="fill:#1f77b4;stroke:#1f77b4;" x="449.93099" xlink:href="#m0794a9c433" y="275.347846"/>
     <use style="fill:#1f77b4;stroke:#1f77b4;" x="378.825478" xlink:href="#m0794a9c433" y="378.514746"/>
     <use style="fill:#1f77b4;stroke:#1f77b4;" x="391.57377" xlink:href="#m0794a9c433" y="382.424529"/>
     <use style="fill:#1f77b4;stroke:#1f77b4;" x="435.310067" xlink:href="#m0794a9c433" y="318.818379"/>
     <use style="fill:#1f77b4;stroke:#1f77b4;" x="450.315152" xlink:href="#m0794a9c433" y="311.031576"/>
     <use style="fill:#1f77b4;stroke:#1f77b4;" x="500.222819" xlink:href="#m0794a9c433" y="184.60375"/>
     <use style="fill:#1f77b4;stroke:#1f77b4;" x="413.591712" xlink:href="#m0794a9c433" y="324.095594"/>
     <use style="fill:#1f77b4;stroke:#1f77b4;" x="501.99116" xlink:href="#m0794a9c433" y="189.709031"/>
     <use style="fill:#1f77b4;stroke:#1f77b4;" x="428.384499" xlink:href="#m0794a9c433" y="220.988602"/>
     <use style="fill:#1f77b4;stroke:#1f77b4;" x="399.272373" xlink:href="#m0794a9c433" y="301.509177"/>
     <use style="fill:#1f77b4;stroke:#1f77b4;" x="430.468508" xlink:href="#m0794a9c433" y="356.109278"/>
     <use style="fill:#1f77b4;stroke:#1f77b4;" x="390.72" xlink:href="#m0794a9c433" y="290.369179"/>
     <use style="fill:#1f77b4;stroke:#1f77b4;" x="440.260751" xlink:href="#m0794a9c433" y="247.637951"/>
     <use style="fill:#1f77b4;stroke:#1f77b4;" x="450.426424" xlink:href="#m0794a9c433" y="291.288262"/>
     <use style="fill:#1f77b4;stroke:#1f77b4;" x="490.936209" xlink:href="#m0794a9c433" y="225.430812"/>
     <use style="fill:#1f77b4;stroke:#1f77b4;" x="499.84" xlink:href="#m0794a9c433" y="236.486784"/>
     <use style="fill:#1f77b4;stroke:#1f77b4;" x="457.309209" xlink:href="#m0794a9c433" y="287.522704"/>
     <use style="fill:#1f77b4;stroke:#1f77b4;" x="459.618084" xlink:href="#m0794a9c433" y="388.025626"/>
     <use style="fill:#1f77b4;stroke:#1f77b4;" x="602.569231" xlink:href="#m0794a9c433" y="292.224803"/>
     <use style="fill:#1f77b4;stroke:#1f77b4;" x="531.812961" xlink:href="#m0794a9c433" y="180.99495"/>
     <use style="fill:#1f77b4;stroke:#1f77b4;" x="412.840268" xlink:href="#m0794a9c433" y="291.145932"/>
     <use style="fill:#1f77b4;stroke:#1f77b4;" x="438.461808" xlink:href="#m0794a9c433" y="285.707677"/>
     <use style="fill:#1f77b4;stroke:#1f77b4;" x="410.200195" xlink:href="#m0794a9c433" y="325.566598"/>
     <use style="fill:#1f77b4;stroke:#1f77b4;" x="445.005534" xlink:href="#m0794a9c433" y="237.739937"/>
     <use style="fill:#1f77b4;stroke:#1f77b4;" x="456.020138" xlink:href="#m0794a9c433" y="333.455217"/>
     <use style="fill:#1f77b4;stroke:#1f77b4;" x="495.369185" xlink:href="#m0794a9c433" y="207.498983"/>
     <use style="fill:#1f77b4;stroke:#1f77b4;" x="361.480729" xlink:href="#m0794a9c433" y="378.854227"/>
     <use style="fill:#1f77b4;stroke:#1f77b4;" x="425.032836" xlink:href="#m0794a9c433" y="343.937726"/>
     <use style="fill:#1f77b4;stroke:#1f77b4;" x="451.754865" xlink:href="#m0794a9c433" y="250.448949"/>
     <use style="fill:#1f77b4;stroke:#1f77b4;" x="413.812987" xlink:href="#m0794a9c433" y="265.100371"/>
     <use style="fill:#1f77b4;stroke:#1f77b4;" x="449.577328" xlink:href="#m0794a9c433" y="299.506693"/>
     <use style="fill:#1f77b4;stroke:#1f77b4;" x="436.043189" xlink:href="#m0794a9c433" y="331.113211"/>
     <use style="fill:#1f77b4;stroke:#1f77b4;" x="460.872874" xlink:href="#m0794a9c433" y="267.60366"/>
     <use style="fill:#1f77b4;stroke:#1f77b4;" x="415.908434" xlink:href="#m0794a9c433" y="267.801992"/>
     <use style="fill:#1f77b4;stroke:#1f77b4;" x="408.77561" xlink:href="#m0794a9c433" y="333.935991"/>
     <use style="fill:#1f77b4;stroke:#1f77b4;" x="532.632817" xlink:href="#m0794a9c433" y="272.301338"/>
     <use style="fill:#1f77b4;stroke:#1f77b4;" x="478.228571" xlink:href="#m0794a9c433" y="178.255994"/>
     <use style="fill:#1f77b4;stroke:#1f77b4;" x="440.620313" xlink:href="#m0794a9c433" y="302.765521"/>
     <use style="fill:#1f77b4;stroke:#1f77b4;" x="538.8" xlink:href="#m0794a9c433" y="126.964359"/>
     <use style="fill:#1f77b4;stroke:#1f77b4;" x="417.697844" xlink:href="#m0794a9c433" y="385.80487"/>
     <use style="fill:#1f77b4;stroke:#1f77b4;" x="476.650237" xlink:href="#m0794a9c433" y="285.791598"/>
     <use style="fill:#1f77b4;stroke:#1f77b4;" x="449.052101" xlink:href="#m0794a9c433" y="307.742358"/>
     <use style="fill:#1f77b4;stroke:#1f77b4;" x="507.224581" xlink:href="#m0794a9c433" y="301.715533"/>
     <use style="fill:#1f77b4;stroke:#1f77b4;" x="321.60543" xlink:href="#m0794a9c433" y="488.964116"/>
     <use style="fill:#1f77b4;stroke:#1f77b4;" x="466.294737" xlink:href="#m0794a9c433" y="311.019461"/>
     <use style="fill:#1f77b4;stroke:#1f77b4;" x="419.55" xlink:href="#m0794a9c433" y="295.376491"/>
     <use style="fill:#1f77b4;stroke:#1f77b4;" x="316.782775" xlink:href="#m0794a9c433" y="370.081078"/>
     <use style="fill:#1f77b4;stroke:#1f77b4;" x="542.402434" xlink:href="#m0794a9c433" y="198.403068"/>
     <use style="fill:#1f77b4;stroke:#1f77b4;" x="401.627184" xlink:href="#m0794a9c433" y="321.213323"/>
     <use style="fill:#1f77b4;stroke:#1f77b4;" x="500.200593" xlink:href="#m0794a9c433" y="334.830975"/>
     <use style="fill:#1f77b4;stroke:#1f77b4;" x="434.19055" xlink:href="#m0794a9c433" y="266.780974"/>
     <use style="fill:#1f77b4;stroke:#1f77b4;" x="390.943272" xlink:href="#m0794a9c433" y="352.728429"/>
     <use style="fill:#1f77b4;stroke:#1f77b4;" x="591.010109" xlink:href="#m0794a9c433" y="186.397866"/>
     <use style="fill:#1f77b4;stroke:#1f77b4;" x="523.699628" xlink:href="#m0794a9c433" y="161.856688"/>
     <use style="fill:#1f77b4;stroke:#1f77b4;" x="380.744395" xlink:href="#m0794a9c433" y="352.965474"/>
     <use style="fill:#1f77b4;stroke:#1f77b4;" x="483.980812" xlink:href="#m0794a9c433" y="245.386723"/>
     <use style="fill:#1f77b4;stroke:#1f77b4;" x="493.343478" xlink:href="#m0794a9c433" y="201.144901"/>
     <use style="fill:#1f77b4;stroke:#1f77b4;" x="421.053322" xlink:href="#m0794a9c433" y="258.924422"/>
     <use style="fill:#1f77b4;stroke:#1f77b4;" x="356.953846" xlink:href="#m0794a9c433" y="380.299254"/>
     <use style="fill:#1f77b4;stroke:#1f77b4;" x="473.944186" xlink:href="#m0794a9c433" y="203.886922"/>
     <use style="fill:#1f77b4;stroke:#1f77b4;" x="444.847706" xlink:href="#m0794a9c433" y="239.060692"/>
     <use style="fill:#1f77b4;stroke:#1f77b4;" x="426.433364" xlink:href="#m0794a9c433" y="271.445471"/>
     <use style="fill:#1f77b4;stroke:#1f77b4;" x="496.384488" xlink:href="#m0794a9c433" y="270.690718"/>
     <use style="fill:#1f77b4;stroke:#1f77b4;" x="408.585392" xlink:href="#m0794a9c433" y="339.450243"/>
     <use style="fill:#1f77b4;stroke:#1f77b4;" x="426.448352" xlink:href="#m0794a9c433" y="279.419424"/>
     <use style="fill:#1f77b4;stroke:#1f77b4;" x="436.622878" xlink:href="#m0794a9c433" y="314.446635"/>
     <use style="fill:#1f77b4;stroke:#1f77b4;" x="459.318039" xlink:href="#m0794a9c433" y="275.715311"/>
     <use style="fill:#1f77b4;stroke:#1f77b4;" x="373.11405" xlink:href="#m0794a9c433" y="328.151112"/>
     <use style="fill:#1f77b4;stroke:#1f77b4;" x="444.91564" xlink:href="#m0794a9c433" y="258.079938"/>
     <use style="fill:#1f77b4;stroke:#1f77b4;" x="438.572727" xlink:href="#m0794a9c433" y="282.986842"/>
     <use style="fill:#1f77b4;stroke:#1f77b4;" x="421.623529" xlink:href="#m0794a9c433" y="269.430402"/>
     <use style="fill:#1f77b4;stroke:#1f77b4;" x="481.282759" xlink:href="#m0794a9c433" y="267.801992"/>
     <use style="fill:#1f77b4;stroke:#1f77b4;" x="432.291525" xlink:href="#m0794a9c433" y="252.894721"/>
     <use style="fill:#1f77b4;stroke:#1f77b4;" x="501.925828" xlink:href="#m0794a9c433" y="184.42191"/>
     <use style="fill:#1f77b4;stroke:#1f77b4;" x="385.2" xlink:href="#m0794a9c433" y="315.115113"/>
     <use style="fill:#1f77b4;stroke:#1f77b4;" x="451.246547" xlink:href="#m0794a9c433" y="256.342815"/>
     <use style="fill:#1f77b4;stroke:#1f77b4;" x="430.177945" xlink:href="#m0794a9c433" y="321.709872"/>
     <use style="fill:#1f77b4;stroke:#1f77b4;" x="394.140284" xlink:href="#m0794a9c433" y="350.114922"/>
     <use style="fill:#1f77b4;stroke:#1f77b4;" x="447.125581" xlink:href="#m0794a9c433" y="263.204515"/>
     <use style="fill:#1f77b4;stroke:#1f77b4;" x="408.262282" xlink:href="#m0794a9c433" y="309.063219"/>
     <use style="fill:#1f77b4;stroke:#1f77b4;" x="464.725344" xlink:href="#m0794a9c433" y="207.69987"/>
     <use style="fill:#1f77b4;stroke:#1f77b4;" x="425.43035" xlink:href="#m0794a9c433" y="337.803043"/>
     <use style="fill:#1f77b4;stroke:#1f77b4;" x="477.811765" xlink:href="#m0794a9c433" y="275.582814"/>
     <use style="fill:#1f77b4;stroke:#1f77b4;" x="492.352124" xlink:href="#m0794a9c433" y="263.73993"/>
     <use style="fill:#1f77b4;stroke:#1f77b4;" x="442.8" xlink:href="#m0794a9c433" y="338.93262"/>
     <use style="fill:#1f77b4;stroke:#1f77b4;" x="413.292918" xlink:href="#m0794a9c433" y="273.777363"/>
     <use style="fill:#1f77b4;stroke:#1f77b4;" x="400.082297" xlink:href="#m0794a9c433" y="305.549338"/>
     <use style="fill:#1f77b4;stroke:#1f77b4;" x="449.332683" xlink:href="#m0794a9c433" y="267.719815"/>
     <use style="fill:#1f77b4;stroke:#1f77b4;" x="418.916732" xlink:href="#m0794a9c433" y="317.487972"/>
     <use style="fill:#1f77b4;stroke:#1f77b4;" x="455.968142" xlink:href="#m0794a9c433" y="204.396072"/>
     <use style="fill:#1f77b4;stroke:#1f77b4;" x="444.981818" xlink:href="#m0794a9c433" y="256.738172"/>
     <use style="fill:#1f77b4;stroke:#1f77b4;" x="475.495313" xlink:href="#m0794a9c433" y="226.78379"/>
     <use style="fill:#1f77b4;stroke:#1f77b4;" x="395.539172" xlink:href="#m0794a9c433" y="339.57619"/>
     <use style="fill:#1f77b4;stroke:#1f77b4;" x="469.136283" xlink:href="#m0794a9c433" y="283.517435"/>
     <use style="fill:#1f77b4;stroke:#1f77b4;" x="405.925364" xlink:href="#m0794a9c433" y="371.727916"/>
     <use style="fill:#1f77b4;stroke:#1f77b4;" x="403.100395" xlink:href="#m0794a9c433" y="298.620439"/>
     <use style="fill:#1f77b4;stroke:#1f77b4;" x="391.154125" xlink:href="#m0794a9c433" y="295.255255"/>
     <use style="fill:#1f77b4;stroke:#1f77b4;" x="383.034809" xlink:href="#m0794a9c433" y="378.31285"/>
     <use style="fill:#1f77b4;stroke:#1f77b4;" x="435.714286" xlink:href="#m0794a9c433" y="321.473471"/>
     <use style="fill:#1f77b4;stroke:#1f77b4;" x="423.844586" xlink:href="#m0794a9c433" y="280.266007"/>
     <use style="fill:#1f77b4;stroke:#1f77b4;" x="433.241113" xlink:href="#m0794a9c433" y="303.788685"/>
     <use style="fill:#1f77b4;stroke:#1f77b4;" x="438" xlink:href="#m0794a9c433" y="321.188277"/>
     <use style="fill:#1f77b4;stroke:#1f77b4;" x="466.851724" xlink:href="#m0794a9c433" y="253.31767"/>
    </g>
   </g>
   <g id="matplotlib.axis_1">
    <g id="xtick_1">
     <g id="line2d_1">
      <defs>
       <path d="M 0 0 
L 0 3.5 
" id="meaa5a1e7a5" style="stroke:#000000;stroke-width:0.8;"/>
      </defs>
      <g>
       <use style="stroke:#000000;stroke-width:0.8;" x="108" xlink:href="#meaa5a1e7a5" y="512.64"/>
      </g>
     </g>
     <g id="text_1">
      <!-- -0.15 -->
      <defs>
       <path d="M 4.890625 31.390625 
L 31.203125 31.390625 
L 31.203125 23.390625 
L 4.890625 23.390625 
z
" id="DejaVuSans-45"/>
       <path d="M 31.78125 66.40625 
Q 24.171875 66.40625 20.328125 58.90625 
Q 16.5 51.421875 16.5 36.375 
Q 16.5 21.390625 20.328125 13.890625 
Q 24.171875 6.390625 31.78125 6.390625 
Q 39.453125 6.390625 43.28125 13.890625 
Q 47.125 21.390625 47.125 36.375 
Q 47.125 51.421875 43.28125 58.90625 
Q 39.453125 66.40625 31.78125 66.40625 
z
M 31.78125 74.21875 
Q 44.046875 74.21875 50.515625 64.515625 
Q 56.984375 54.828125 56.984375 36.375 
Q 56.984375 17.96875 50.515625 8.265625 
Q 44.046875 -1.421875 31.78125 -1.421875 
Q 19.53125 -1.421875 13.0625 8.265625 
Q 6.59375 17.96875 6.59375 36.375 
Q 6.59375 54.828125 13.0625 64.515625 
Q 19.53125 74.21875 31.78125 74.21875 
z
" id="DejaVuSans-48"/>
       <path d="M 10.6875 12.40625 
L 21 12.40625 
L 21 0 
L 10.6875 0 
z
" id="DejaVuSans-46"/>
       <path d="M 12.40625 8.296875 
L 28.515625 8.296875 
L 28.515625 63.921875 
L 10.984375 60.40625 
L 10.984375 69.390625 
L 28.421875 72.90625 
L 38.28125 72.90625 
L 38.28125 8.296875 
L 54.390625 8.296875 
L 54.390625 0 
L 12.40625 0 
z
" id="DejaVuSans-49"/>
       <path d="M 10.796875 72.90625 
L 49.515625 72.90625 
L 49.515625 64.59375 
L 19.828125 64.59375 
L 19.828125 46.734375 
Q 21.96875 47.46875 24.109375 47.828125 
Q 26.265625 48.1875 28.421875 48.1875 
Q 40.625 48.1875 47.75 41.5 
Q 54.890625 34.8125 54.890625 23.390625 
Q 54.890625 11.625 47.5625 5.09375 
Q 40.234375 -1.421875 26.90625 -1.421875 
Q 22.3125 -1.421875 17.546875 -0.640625 
Q 12.796875 0.140625 7.71875 1.703125 
L 7.71875 11.625 
Q 12.109375 9.234375 16.796875 8.0625 
Q 21.484375 6.890625 26.703125 6.890625 
Q 35.15625 6.890625 40.078125 11.328125 
Q 45.015625 15.765625 45.015625 23.390625 
Q 45.015625 31 40.078125 35.4375 
Q 35.15625 39.890625 26.703125 39.890625 
Q 22.75 39.890625 18.8125 39.015625 
Q 14.890625 38.140625 10.796875 36.28125 
z
" id="DejaVuSans-53"/>
      </defs>
      <g transform="translate(95.063281 527.238438)scale(0.1 -0.1)">
       <use xlink:href="#DejaVuSans-45"/>
       <use x="36.083984" xlink:href="#DejaVuSans-48"/>
       <use x="99.707031" xlink:href="#DejaVuSans-46"/>
       <use x="131.494141" xlink:href="#DejaVuSans-49"/>
       <use x="195.117188" xlink:href="#DejaVuSans-53"/>
      </g>
     </g>
    </g>
    <g id="xtick_2">
     <g id="line2d_2">
      <g>
       <use style="stroke:#000000;stroke-width:0.8;" x="219.6" xlink:href="#meaa5a1e7a5" y="512.64"/>
      </g>
     </g>
     <g id="text_2">
      <!-- -0.10 -->
      <g transform="translate(206.663281 527.238438)scale(0.1 -0.1)">
       <use xlink:href="#DejaVuSans-45"/>
       <use x="36.083984" xlink:href="#DejaVuSans-48"/>
       <use x="99.707031" xlink:href="#DejaVuSans-46"/>
       <use x="131.494141" xlink:href="#DejaVuSans-49"/>
       <use x="195.117188" xlink:href="#DejaVuSans-48"/>
      </g>
     </g>
    </g>
    <g id="xtick_3">
     <g id="line2d_3">
      <g>
       <use style="stroke:#000000;stroke-width:0.8;" x="331.2" xlink:href="#meaa5a1e7a5" y="512.64"/>
      </g>
     </g>
     <g id="text_3">
      <!-- -0.05 -->
      <g transform="translate(318.263281 527.238438)scale(0.1 -0.1)">
       <use xlink:href="#DejaVuSans-45"/>
       <use x="36.083984" xlink:href="#DejaVuSans-48"/>
       <use x="99.707031" xlink:href="#DejaVuSans-46"/>
       <use x="131.494141" xlink:href="#DejaVuSans-48"/>
       <use x="195.117188" xlink:href="#DejaVuSans-53"/>
      </g>
     </g>
    </g>
    <g id="xtick_4">
     <g id="line2d_4">
      <g>
       <use style="stroke:#000000;stroke-width:0.8;" x="442.8" xlink:href="#meaa5a1e7a5" y="512.64"/>
      </g>
     </g>
     <g id="text_4">
      <!-- 0.00 -->
      <g transform="translate(431.667188 527.238438)scale(0.1 -0.1)">
       <use xlink:href="#DejaVuSans-48"/>
       <use x="63.623047" xlink:href="#DejaVuSans-46"/>
       <use x="95.410156" xlink:href="#DejaVuSans-48"/>
       <use x="159.033203" xlink:href="#DejaVuSans-48"/>
      </g>
     </g>
    </g>
    <g id="xtick_5">
     <g id="line2d_5">
      <g>
       <use style="stroke:#000000;stroke-width:0.8;" x="554.4" xlink:href="#meaa5a1e7a5" y="512.64"/>
      </g>
     </g>
     <g id="text_5">
      <!-- 0.05 -->
      <g transform="translate(543.267187 527.238438)scale(0.1 -0.1)">
       <use xlink:href="#DejaVuSans-48"/>
       <use x="63.623047" xlink:href="#DejaVuSans-46"/>
       <use x="95.410156" xlink:href="#DejaVuSans-48"/>
       <use x="159.033203" xlink:href="#DejaVuSans-53"/>
      </g>
     </g>
    </g>
    <g id="xtick_6">
     <g id="line2d_6">
      <g>
       <use style="stroke:#000000;stroke-width:0.8;" x="666" xlink:href="#meaa5a1e7a5" y="512.64"/>
      </g>
     </g>
     <g id="text_6">
      <!-- 0.10 -->
      <g transform="translate(654.867188 527.238438)scale(0.1 -0.1)">
       <use xlink:href="#DejaVuSans-48"/>
       <use x="63.623047" xlink:href="#DejaVuSans-46"/>
       <use x="95.410156" xlink:href="#DejaVuSans-49"/>
       <use x="159.033203" xlink:href="#DejaVuSans-48"/>
      </g>
     </g>
    </g>
    <g id="xtick_7">
     <g id="line2d_7">
      <g>
       <use style="stroke:#000000;stroke-width:0.8;" x="777.6" xlink:href="#meaa5a1e7a5" y="512.64"/>
      </g>
     </g>
     <g id="text_7">
      <!-- 0.15 -->
      <g transform="translate(766.467188 527.238438)scale(0.1 -0.1)">
       <use xlink:href="#DejaVuSans-48"/>
       <use x="63.623047" xlink:href="#DejaVuSans-46"/>
       <use x="95.410156" xlink:href="#DejaVuSans-49"/>
       <use x="159.033203" xlink:href="#DejaVuSans-53"/>
      </g>
     </g>
    </g>
    <g id="text_8">
     <!-- 000001.SZ -->
     <defs>
      <path d="M 53.515625 70.515625 
L 53.515625 60.890625 
Q 47.90625 63.578125 42.921875 64.890625 
Q 37.9375 66.21875 33.296875 66.21875 
Q 25.25 66.21875 20.875 63.09375 
Q 16.5 59.96875 16.5 54.203125 
Q 16.5 49.359375 19.40625 46.890625 
Q 22.3125 44.4375 30.421875 42.921875 
L 36.375 41.703125 
Q 47.40625 39.59375 52.65625 34.296875 
Q 57.90625 29 57.90625 20.125 
Q 57.90625 9.515625 50.796875 4.046875 
Q 43.703125 -1.421875 29.984375 -1.421875 
Q 24.8125 -1.421875 18.96875 -0.25 
Q 13.140625 0.921875 6.890625 3.21875 
L 6.890625 13.375 
Q 12.890625 10.015625 18.65625 8.296875 
Q 24.421875 6.59375 29.984375 6.59375 
Q 38.421875 6.59375 43.015625 9.90625 
Q 47.609375 13.234375 47.609375 19.390625 
Q 47.609375 24.75 44.3125 27.78125 
Q 41.015625 30.8125 33.5 32.328125 
L 27.484375 33.5 
Q 16.453125 35.6875 11.515625 40.375 
Q 6.59375 45.0625 6.59375 53.421875 
Q 6.59375 63.09375 13.40625 68.65625 
Q 20.21875 74.21875 32.171875 74.21875 
Q 37.3125 74.21875 42.625 73.28125 
Q 47.953125 72.359375 53.515625 70.515625 
z
" id="DejaVuSans-83"/>
      <path d="M 5.609375 72.90625 
L 62.890625 72.90625 
L 62.890625 65.375 
L 16.796875 8.296875 
L 64.015625 8.296875 
L 64.015625 0 
L 4.5 0 
L 4.5 7.515625 
L 50.59375 64.59375 
L 5.609375 64.59375 
z
" id="DejaVuSans-90"/>
     </defs>
     <g transform="translate(415.524219 540.916563)scale(0.1 -0.1)">
      <use xlink:href="#DejaVuSans-48"/>
      <use x="63.623047" xlink:href="#DejaVuSans-48"/>
      <use x="127.246094" xlink:href="#DejaVuSans-48"/>
      <use x="190.869141" xlink:href="#DejaVuSans-48"/>
      <use x="254.492188" xlink:href="#DejaVuSans-48"/>
      <use x="318.115234" xlink:href="#DejaVuSans-49"/>
      <use x="381.738281" xlink:href="#DejaVuSans-46"/>
      <use x="413.525391" xlink:href="#DejaVuSans-83"/>
      <use x="477.001953" xlink:href="#DejaVuSans-90"/>
     </g>
    </g>
   </g>
   <g id="matplotlib.axis_2">
    <g id="ytick_1">
     <g id="line2d_8">
      <defs>
       <path d="M 0 0 
L -3.5 0 
" id="m4dc361ccbd" style="stroke:#000000;stroke-width:0.8;"/>
      </defs>
      <g>
       <use style="stroke:#000000;stroke-width:0.8;" x="108" xlink:href="#m4dc361ccbd" y="505.006964"/>
      </g>
     </g>
     <g id="text_9">
      <!-- -0.100 -->
      <g transform="translate(68.764062 508.806183)scale(0.1 -0.1)">
       <use xlink:href="#DejaVuSans-45"/>
       <use x="36.083984" xlink:href="#DejaVuSans-48"/>
       <use x="99.707031" xlink:href="#DejaVuSans-46"/>
       <use x="131.494141" xlink:href="#DejaVuSans-49"/>
       <use x="195.117188" xlink:href="#DejaVuSans-48"/>
       <use x="258.740234" xlink:href="#DejaVuSans-48"/>
      </g>
     </g>
    </g>
    <g id="ytick_2">
     <g id="line2d_9">
      <g>
       <use style="stroke:#000000;stroke-width:0.8;" x="108" xlink:href="#m4dc361ccbd" y="450.862351"/>
      </g>
     </g>
     <g id="text_10">
      <!-- -0.075 -->
      <defs>
       <path d="M 8.203125 72.90625 
L 55.078125 72.90625 
L 55.078125 68.703125 
L 28.609375 0 
L 18.3125 0 
L 43.21875 64.59375 
L 8.203125 64.59375 
z
" id="DejaVuSans-55"/>
      </defs>
      <g transform="translate(68.764062 454.66157)scale(0.1 -0.1)">
       <use xlink:href="#DejaVuSans-45"/>
       <use x="36.083984" xlink:href="#DejaVuSans-48"/>
       <use x="99.707031" xlink:href="#DejaVuSans-46"/>
       <use x="131.494141" xlink:href="#DejaVuSans-48"/>
       <use x="195.117188" xlink:href="#DejaVuSans-55"/>
       <use x="258.740234" xlink:href="#DejaVuSans-53"/>
      </g>
     </g>
    </g>
    <g id="ytick_3">
     <g id="line2d_10">
      <g>
       <use style="stroke:#000000;stroke-width:0.8;" x="108" xlink:href="#m4dc361ccbd" y="396.717738"/>
      </g>
     </g>
     <g id="text_11">
      <!-- -0.050 -->
      <g transform="translate(68.764062 400.516957)scale(0.1 -0.1)">
       <use xlink:href="#DejaVuSans-45"/>
       <use x="36.083984" xlink:href="#DejaVuSans-48"/>
       <use x="99.707031" xlink:href="#DejaVuSans-46"/>
       <use x="131.494141" xlink:href="#DejaVuSans-48"/>
       <use x="195.117188" xlink:href="#DejaVuSans-53"/>
       <use x="258.740234" xlink:href="#DejaVuSans-48"/>
      </g>
     </g>
    </g>
    <g id="ytick_4">
     <g id="line2d_11">
      <g>
       <use style="stroke:#000000;stroke-width:0.8;" x="108" xlink:href="#m4dc361ccbd" y="342.573125"/>
      </g>
     </g>
     <g id="text_12">
      <!-- -0.025 -->
      <defs>
       <path d="M 19.1875 8.296875 
L 53.609375 8.296875 
L 53.609375 0 
L 7.328125 0 
L 7.328125 8.296875 
Q 12.9375 14.109375 22.625 23.890625 
Q 32.328125 33.6875 34.8125 36.53125 
Q 39.546875 41.84375 41.421875 45.53125 
Q 43.3125 49.21875 43.3125 52.78125 
Q 43.3125 58.59375 39.234375 62.25 
Q 35.15625 65.921875 28.609375 65.921875 
Q 23.96875 65.921875 18.8125 64.3125 
Q 13.671875 62.703125 7.8125 59.421875 
L 7.8125 69.390625 
Q 13.765625 71.78125 18.9375 73 
Q 24.125 74.21875 28.421875 74.21875 
Q 39.75 74.21875 46.484375 68.546875 
Q 53.21875 62.890625 53.21875 53.421875 
Q 53.21875 48.921875 51.53125 44.890625 
Q 49.859375 40.875 45.40625 35.40625 
Q 44.1875 33.984375 37.640625 27.21875 
Q 31.109375 20.453125 19.1875 8.296875 
z
" id="DejaVuSans-50"/>
      </defs>
      <g transform="translate(68.764062 346.372343)scale(0.1 -0.1)">
       <use xlink:href="#DejaVuSans-45"/>
       <use x="36.083984" xlink:href="#DejaVuSans-48"/>
       <use x="99.707031" xlink:href="#DejaVuSans-46"/>
       <use x="131.494141" xlink:href="#DejaVuSans-48"/>
       <use x="195.117188" xlink:href="#DejaVuSans-50"/>
       <use x="258.740234" xlink:href="#DejaVuSans-53"/>
      </g>
     </g>
    </g>
    <g id="ytick_5">
     <g id="line2d_12">
      <g>
       <use style="stroke:#000000;stroke-width:0.8;" x="108" xlink:href="#m4dc361ccbd" y="288.428511"/>
      </g>
     </g>
     <g id="text_13">
      <!-- 0.000 -->
      <g transform="translate(72.371875 292.22773)scale(0.1 -0.1)">
       <use xlink:href="#DejaVuSans-48"/>
       <use x="63.623047" xlink:href="#DejaVuSans-46"/>
       <use x="95.410156" xlink:href="#DejaVuSans-48"/>
       <use x="159.033203" xlink:href="#DejaVuSans-48"/>
       <use x="222.65625" xlink:href="#DejaVuSans-48"/>
      </g>
     </g>
    </g>
    <g id="ytick_6">
     <g id="line2d_13">
      <g>
       <use style="stroke:#000000;stroke-width:0.8;" x="108" xlink:href="#m4dc361ccbd" y="234.283898"/>
      </g>
     </g>
     <g id="text_14">
      <!-- 0.025 -->
      <g transform="translate(72.371875 238.083117)scale(0.1 -0.1)">
       <use xlink:href="#DejaVuSans-48"/>
       <use x="63.623047" xlink:href="#DejaVuSans-46"/>
       <use x="95.410156" xlink:href="#DejaVuSans-48"/>
       <use x="159.033203" xlink:href="#DejaVuSans-50"/>
       <use x="222.65625" xlink:href="#DejaVuSans-53"/>
      </g>
     </g>
    </g>
    <g id="ytick_7">
     <g id="line2d_14">
      <g>
       <use style="stroke:#000000;stroke-width:0.8;" x="108" xlink:href="#m4dc361ccbd" y="180.139285"/>
      </g>
     </g>
     <g id="text_15">
      <!-- 0.050 -->
      <g transform="translate(72.371875 183.938504)scale(0.1 -0.1)">
       <use xlink:href="#DejaVuSans-48"/>
       <use x="63.623047" xlink:href="#DejaVuSans-46"/>
       <use x="95.410156" xlink:href="#DejaVuSans-48"/>
       <use x="159.033203" xlink:href="#DejaVuSans-53"/>
       <use x="222.65625" xlink:href="#DejaVuSans-48"/>
      </g>
     </g>
    </g>
    <g id="ytick_8">
     <g id="line2d_15">
      <g>
       <use style="stroke:#000000;stroke-width:0.8;" x="108" xlink:href="#m4dc361ccbd" y="125.994672"/>
      </g>
     </g>
     <g id="text_16">
      <!-- 0.075 -->
      <g transform="translate(72.371875 129.79389)scale(0.1 -0.1)">
       <use xlink:href="#DejaVuSans-48"/>
       <use x="63.623047" xlink:href="#DejaVuSans-46"/>
       <use x="95.410156" xlink:href="#DejaVuSans-48"/>
       <use x="159.033203" xlink:href="#DejaVuSans-55"/>
       <use x="222.65625" xlink:href="#DejaVuSans-53"/>
      </g>
     </g>
    </g>
    <g id="ytick_9">
     <g id="line2d_16">
      <g>
       <use style="stroke:#000000;stroke-width:0.8;" x="108" xlink:href="#m4dc361ccbd" y="71.850058"/>
      </g>
     </g>
     <g id="text_17">
      <!-- 0.100 -->
      <g transform="translate(72.371875 75.649277)scale(0.1 -0.1)">
       <use xlink:href="#DejaVuSans-48"/>
       <use x="63.623047" xlink:href="#DejaVuSans-46"/>
       <use x="95.410156" xlink:href="#DejaVuSans-49"/>
       <use x="159.033203" xlink:href="#DejaVuSans-48"/>
       <use x="222.65625" xlink:href="#DejaVuSans-48"/>
      </g>
     </g>
    </g>
    <g id="text_18">
     <!-- 000002.SZ -->
     <g transform="translate(62.684375 318.155781)rotate(-90)scale(0.1 -0.1)">
      <use xlink:href="#DejaVuSans-48"/>
      <use x="63.623047" xlink:href="#DejaVuSans-48"/>
      <use x="127.246094" xlink:href="#DejaVuSans-48"/>
      <use x="190.869141" xlink:href="#DejaVuSans-48"/>
      <use x="254.492188" xlink:href="#DejaVuSans-48"/>
      <use x="318.115234" xlink:href="#DejaVuSans-50"/>
      <use x="381.738281" xlink:href="#DejaVuSans-46"/>
      <use x="413.525391" xlink:href="#DejaVuSans-83"/>
      <use x="477.001953" xlink:href="#DejaVuSans-90"/>
     </g>
    </g>
   </g>
   <g id="LineCollection_1">
    <path clip-path="url(#pf419c0f2ef)" d="M 442.8 577 
L 442.8 -1 
" style="fill:none;stroke:#000000;stroke-width:1.5;"/>
   </g>
   <g id="LineCollection_2">
    <path clip-path="url(#pf419c0f2ef)" d="M -1 288.428511 
L 865 288.428511 
" style="fill:none;stroke:#000000;stroke-width:1.5;"/>
   </g>
   <g id="line2d_17">
    <path clip-path="url(#pf419c0f2ef)" d="M 145.40589 577 
L 741.077335 -1 
" style="fill:none;stroke:#1f77b4;stroke-linecap:square;stroke-width:1.5;"/>
   </g>
   <g id="patch_3">
    <path d="M 108 512.64 
L 108 69.12 
" style="fill:none;stroke:#000000;stroke-linecap:square;stroke-linejoin:miter;stroke-width:0.8;"/>
   </g>
   <g id="patch_4">
    <path d="M 777.6 512.64 
L 777.6 69.12 
" style="fill:none;stroke:#000000;stroke-linecap:square;stroke-linejoin:miter;stroke-width:0.8;"/>
   </g>
   <g id="patch_5">
    <path d="M 108 512.64 
L 777.6 512.64 
" style="fill:none;stroke:#000000;stroke-linecap:square;stroke-linejoin:miter;stroke-width:0.8;"/>
   </g>
   <g id="patch_6">
    <path d="M 108 69.12 
L 777.6 69.12 
" style="fill:none;stroke:#000000;stroke-linecap:square;stroke-linejoin:miter;stroke-width:0.8;"/>
   </g>
  </g>
 </g>
 <defs>
  <clipPath id="pf419c0f2ef">
   <rect height="443.52" width="669.6" x="108" y="69.12"/>
  </clipPath>
 </defs>
</svg>
