<?xml version="1.0" encoding="utf-8" standalone="no"?>
<!DOCTYPE svg PUBLIC "-//W3C//DTD SVG 1.1//EN"
  "http://www.w3.org/Graphics/SVG/1.1/DTD/svg11.dtd">
<!-- Created with matplotlib (https://matplotlib.org/) -->
<svg height="345.6pt" version="1.1" viewBox="0 0 460.8 345.6" width="460.8pt" xmlns="http://www.w3.org/2000/svg" xmlns:xlink="http://www.w3.org/1999/xlink">
 <defs>
  <style type="text/css">
*{stroke-linecap:butt;stroke-linejoin:round;}
  </style>
 </defs>
 <g id="figure_1">
  <g id="patch_1">
   <path d="M 0 345.6 
L 460.8 345.6 
L 460.8 0 
L 0 0 
z
" style="fill:#ffffff;"/>
  </g>
  <g id="axes_1">
   <g id="patch_2">
    <path d="M 57.6 307.584 
L 414.72 307.584 
L 414.72 41.472 
L 57.6 41.472 
z
" style="fill:#ffffff;"/>
   </g>
   <g id="matplotlib.axis_1">
    <g id="xtick_1">
     <g id="line2d_1">
      <path clip-path="url(#p728a68a425)" d="M 72.930909 307.584 
L 72.930909 41.472 
" style="fill:none;stroke:#b0b0b0;stroke-linecap:square;stroke-width:0.2;"/>
     </g>
     <g id="line2d_2">
      <defs>
       <path d="M 0 0 
L 0 3.5 
" id="m96200aa43e" style="stroke:#000000;stroke-width:0.8;"/>
      </defs>
      <g>
       <use style="stroke:#000000;stroke-width:0.8;" x="72.930909" xlink:href="#m96200aa43e" y="307.584"/>
      </g>
     </g>
     <g id="text_1">
      <!-- 2018-01 -->
      <defs>
       <path d="M 19.1875 8.296875 
L 53.609375 8.296875 
L 53.609375 0 
L 7.328125 0 
L 7.328125 8.296875 
Q 12.9375 14.109375 22.625 23.890625 
Q 32.328125 33.6875 34.8125 36.53125 
Q 39.546875 41.84375 41.421875 45.53125 
Q 43.3125 49.21875 43.3125 52.78125 
Q 43.3125 58.59375 39.234375 62.25 
Q 35.15625 65.921875 28.609375 65.921875 
Q 23.96875 65.921875 18.8125 64.3125 
Q 13.671875 62.703125 7.8125 59.421875 
L 7.8125 69.390625 
Q 13.765625 71.78125 18.9375 73 
Q 24.125 74.21875 28.421875 74.21875 
Q 39.75 74.21875 46.484375 68.546875 
Q 53.21875 62.890625 53.21875 53.421875 
Q 53.21875 48.921875 51.53125 44.890625 
Q 49.859375 40.875 45.40625 35.40625 
Q 44.1875 33.984375 37.640625 27.21875 
Q 31.109375 20.453125 19.1875 8.296875 
z
" id="DejaVuSans-50"/>
       <path d="M 31.78125 66.40625 
Q 24.171875 66.40625 20.328125 58.90625 
Q 16.5 51.421875 16.5 36.375 
Q 16.5 21.390625 20.328125 13.890625 
Q 24.171875 6.390625 31.78125 6.390625 
Q 39.453125 6.390625 43.28125 13.890625 
Q 47.125 21.390625 47.125 36.375 
Q 47.125 51.421875 43.28125 58.90625 
Q 39.453125 66.40625 31.78125 66.40625 
z
M 31.78125 74.21875 
Q 44.046875 74.21875 50.515625 64.515625 
Q 56.984375 54.828125 56.984375 36.375 
Q 56.984375 17.96875 50.515625 8.265625 
Q 44.046875 -1.421875 31.78125 -1.421875 
Q 19.53125 -1.421875 13.0625 8.265625 
Q 6.59375 17.96875 6.59375 36.375 
Q 6.59375 54.828125 13.0625 64.515625 
Q 19.53125 74.21875 31.78125 74.21875 
z
" id="DejaVuSans-48"/>
       <path d="M 12.40625 8.296875 
L 28.515625 8.296875 
L 28.515625 63.921875 
L 10.984375 60.40625 
L 10.984375 69.390625 
L 28.421875 72.90625 
L 38.28125 72.90625 
L 38.28125 8.296875 
L 54.390625 8.296875 
L 54.390625 0 
L 12.40625 0 
z
" id="DejaVuSans-49"/>
       <path d="M 31.78125 34.625 
Q 24.75 34.625 20.71875 30.859375 
Q 16.703125 27.09375 16.703125 20.515625 
Q 16.703125 13.921875 20.71875 10.15625 
Q 24.75 6.390625 31.78125 6.390625 
Q 38.8125 6.390625 42.859375 10.171875 
Q 46.921875 13.96875 46.921875 20.515625 
Q 46.921875 27.09375 42.890625 30.859375 
Q 38.875 34.625 31.78125 34.625 
z
M 21.921875 38.8125 
Q 15.578125 40.375 12.03125 44.71875 
Q 8.5 49.078125 8.5 55.328125 
Q 8.5 64.0625 14.71875 69.140625 
Q 20.953125 74.21875 31.78125 74.21875 
Q 42.671875 74.21875 48.875 69.140625 
Q 55.078125 64.0625 55.078125 55.328125 
Q 55.078125 49.078125 51.53125 44.71875 
Q 48 40.375 41.703125 38.8125 
Q 48.828125 37.15625 52.796875 32.3125 
Q 56.78125 27.484375 56.78125 20.515625 
Q 56.78125 9.90625 50.3125 4.234375 
Q 43.84375 -1.421875 31.78125 -1.421875 
Q 19.734375 -1.421875 13.25 4.234375 
Q 6.78125 9.90625 6.78125 20.515625 
Q 6.78125 27.484375 10.78125 32.3125 
Q 14.796875 37.15625 21.921875 38.8125 
z
M 18.3125 54.390625 
Q 18.3125 48.734375 21.84375 45.5625 
Q 25.390625 42.390625 31.78125 42.390625 
Q 38.140625 42.390625 41.71875 45.5625 
Q 45.3125 48.734375 45.3125 54.390625 
Q 45.3125 60.0625 41.71875 63.234375 
Q 38.140625 66.40625 31.78125 66.40625 
Q 25.390625 66.40625 21.84375 63.234375 
Q 18.3125 60.0625 18.3125 54.390625 
z
" id="DejaVuSans-56"/>
       <path d="M 4.890625 31.390625 
L 31.203125 31.390625 
L 31.203125 23.390625 
L 4.890625 23.390625 
z
" id="DejaVuSans-45"/>
      </defs>
      <g transform="translate(52.039503 322.182437)scale(0.1 -0.1)">
       <use xlink:href="#DejaVuSans-50"/>
       <use x="63.623047" xlink:href="#DejaVuSans-48"/>
       <use x="127.246094" xlink:href="#DejaVuSans-49"/>
       <use x="190.869141" xlink:href="#DejaVuSans-56"/>
       <use x="254.492188" xlink:href="#DejaVuSans-45"/>
       <use x="290.576172" xlink:href="#DejaVuSans-48"/>
       <use x="354.199219" xlink:href="#DejaVuSans-49"/>
      </g>
     </g>
    </g>
    <g id="xtick_2">
     <g id="line2d_3">
      <path clip-path="url(#p728a68a425)" d="M 126.138182 307.584 
L 126.138182 41.472 
" style="fill:none;stroke:#b0b0b0;stroke-linecap:square;stroke-width:0.2;"/>
     </g>
     <g id="line2d_4">
      <g>
       <use style="stroke:#000000;stroke-width:0.8;" x="126.138182" xlink:href="#m96200aa43e" y="307.584"/>
      </g>
     </g>
     <g id="text_2">
      <!-- 2018-03 -->
      <defs>
       <path d="M 40.578125 39.3125 
Q 47.65625 37.796875 51.625 33 
Q 55.609375 28.21875 55.609375 21.1875 
Q 55.609375 10.40625 48.1875 4.484375 
Q 40.765625 -1.421875 27.09375 -1.421875 
Q 22.515625 -1.421875 17.65625 -0.515625 
Q 12.796875 0.390625 7.625 2.203125 
L 7.625 11.71875 
Q 11.71875 9.328125 16.59375 8.109375 
Q 21.484375 6.890625 26.8125 6.890625 
Q 36.078125 6.890625 40.9375 10.546875 
Q 45.796875 14.203125 45.796875 21.1875 
Q 45.796875 27.640625 41.28125 31.265625 
Q 36.765625 34.90625 28.71875 34.90625 
L 20.21875 34.90625 
L 20.21875 43.015625 
L 29.109375 43.015625 
Q 36.375 43.015625 40.234375 45.921875 
Q 44.09375 48.828125 44.09375 54.296875 
Q 44.09375 59.90625 40.109375 62.90625 
Q 36.140625 65.921875 28.71875 65.921875 
Q 24.65625 65.921875 20.015625 65.03125 
Q 15.375 64.15625 9.8125 62.3125 
L 9.8125 71.09375 
Q 15.4375 72.65625 20.34375 73.4375 
Q 25.25 74.21875 29.59375 74.21875 
Q 40.828125 74.21875 47.359375 69.109375 
Q 53.90625 64.015625 53.90625 55.328125 
Q 53.90625 49.265625 50.4375 45.09375 
Q 46.96875 40.921875 40.578125 39.3125 
z
" id="DejaVuSans-51"/>
      </defs>
      <g transform="translate(105.246776 322.182437)scale(0.1 -0.1)">
       <use xlink:href="#DejaVuSans-50"/>
       <use x="63.623047" xlink:href="#DejaVuSans-48"/>
       <use x="127.246094" xlink:href="#DejaVuSans-49"/>
       <use x="190.869141" xlink:href="#DejaVuSans-56"/>
       <use x="254.492188" xlink:href="#DejaVuSans-45"/>
       <use x="290.576172" xlink:href="#DejaVuSans-48"/>
       <use x="354.199219" xlink:href="#DejaVuSans-51"/>
      </g>
     </g>
    </g>
    <g id="xtick_3">
     <g id="line2d_5">
      <path clip-path="url(#p728a68a425)" d="M 181.149091 307.584 
L 181.149091 41.472 
" style="fill:none;stroke:#b0b0b0;stroke-linecap:square;stroke-width:0.2;"/>
     </g>
     <g id="line2d_6">
      <g>
       <use style="stroke:#000000;stroke-width:0.8;" x="181.149091" xlink:href="#m96200aa43e" y="307.584"/>
      </g>
     </g>
     <g id="text_3">
      <!-- 2018-05 -->
      <defs>
       <path d="M 10.796875 72.90625 
L 49.515625 72.90625 
L 49.515625 64.59375 
L 19.828125 64.59375 
L 19.828125 46.734375 
Q 21.96875 47.46875 24.109375 47.828125 
Q 26.265625 48.1875 28.421875 48.1875 
Q 40.625 48.1875 47.75 41.5 
Q 54.890625 34.8125 54.890625 23.390625 
Q 54.890625 11.625 47.5625 5.09375 
Q 40.234375 -1.421875 26.90625 -1.421875 
Q 22.3125 -1.421875 17.546875 -0.640625 
Q 12.796875 0.140625 7.71875 1.703125 
L 7.71875 11.625 
Q 12.109375 9.234375 16.796875 8.0625 
Q 21.484375 6.890625 26.703125 6.890625 
Q 35.15625 6.890625 40.078125 11.328125 
Q 45.015625 15.765625 45.015625 23.390625 
Q 45.015625 31 40.078125 35.4375 
Q 35.15625 39.890625 26.703125 39.890625 
Q 22.75 39.890625 18.8125 39.015625 
Q 14.890625 38.140625 10.796875 36.28125 
z
" id="DejaVuSans-53"/>
      </defs>
      <g transform="translate(160.257685 322.182437)scale(0.1 -0.1)">
       <use xlink:href="#DejaVuSans-50"/>
       <use x="63.623047" xlink:href="#DejaVuSans-48"/>
       <use x="127.246094" xlink:href="#DejaVuSans-49"/>
       <use x="190.869141" xlink:href="#DejaVuSans-56"/>
       <use x="254.492188" xlink:href="#DejaVuSans-45"/>
       <use x="290.576172" xlink:href="#DejaVuSans-48"/>
       <use x="354.199219" xlink:href="#DejaVuSans-53"/>
      </g>
     </g>
    </g>
    <g id="xtick_4">
     <g id="line2d_7">
      <path clip-path="url(#p728a68a425)" d="M 236.16 307.584 
L 236.16 41.472 
" style="fill:none;stroke:#b0b0b0;stroke-linecap:square;stroke-width:0.2;"/>
     </g>
     <g id="line2d_8">
      <g>
       <use style="stroke:#000000;stroke-width:0.8;" x="236.16" xlink:href="#m96200aa43e" y="307.584"/>
      </g>
     </g>
     <g id="text_4">
      <!-- 2018-07 -->
      <defs>
       <path d="M 8.203125 72.90625 
L 55.078125 72.90625 
L 55.078125 68.703125 
L 28.609375 0 
L 18.3125 0 
L 43.21875 64.59375 
L 8.203125 64.59375 
z
" id="DejaVuSans-55"/>
      </defs>
      <g transform="translate(215.268594 322.182437)scale(0.1 -0.1)">
       <use xlink:href="#DejaVuSans-50"/>
       <use x="63.623047" xlink:href="#DejaVuSans-48"/>
       <use x="127.246094" xlink:href="#DejaVuSans-49"/>
       <use x="190.869141" xlink:href="#DejaVuSans-56"/>
       <use x="254.492188" xlink:href="#DejaVuSans-45"/>
       <use x="290.576172" xlink:href="#DejaVuSans-48"/>
       <use x="354.199219" xlink:href="#DejaVuSans-55"/>
      </g>
     </g>
    </g>
    <g id="xtick_5">
     <g id="line2d_9">
      <path clip-path="url(#p728a68a425)" d="M 292.072727 307.584 
L 292.072727 41.472 
" style="fill:none;stroke:#b0b0b0;stroke-linecap:square;stroke-width:0.2;"/>
     </g>
     <g id="line2d_10">
      <g>
       <use style="stroke:#000000;stroke-width:0.8;" x="292.072727" xlink:href="#m96200aa43e" y="307.584"/>
      </g>
     </g>
     <g id="text_5">
      <!-- 2018-09 -->
      <defs>
       <path d="M 10.984375 1.515625 
L 10.984375 10.5 
Q 14.703125 8.734375 18.5 7.8125 
Q 22.3125 6.890625 25.984375 6.890625 
Q 35.75 6.890625 40.890625 13.453125 
Q 46.046875 20.015625 46.78125 33.40625 
Q 43.953125 29.203125 39.59375 26.953125 
Q 35.25 24.703125 29.984375 24.703125 
Q 19.046875 24.703125 12.671875 31.3125 
Q 6.296875 37.9375 6.296875 49.421875 
Q 6.296875 60.640625 12.9375 67.421875 
Q 19.578125 74.21875 30.609375 74.21875 
Q 43.265625 74.21875 49.921875 64.515625 
Q 56.59375 54.828125 56.59375 36.375 
Q 56.59375 19.140625 48.40625 8.859375 
Q 40.234375 -1.421875 26.421875 -1.421875 
Q 22.703125 -1.421875 18.890625 -0.6875 
Q 15.09375 0.046875 10.984375 1.515625 
z
M 30.609375 32.421875 
Q 37.25 32.421875 41.125 36.953125 
Q 45.015625 41.5 45.015625 49.421875 
Q 45.015625 57.28125 41.125 61.84375 
Q 37.25 66.40625 30.609375 66.40625 
Q 23.96875 66.40625 20.09375 61.84375 
Q 16.21875 57.28125 16.21875 49.421875 
Q 16.21875 41.5 20.09375 36.953125 
Q 23.96875 32.421875 30.609375 32.421875 
z
" id="DejaVuSans-57"/>
      </defs>
      <g transform="translate(271.181321 322.182437)scale(0.1 -0.1)">
       <use xlink:href="#DejaVuSans-50"/>
       <use x="63.623047" xlink:href="#DejaVuSans-48"/>
       <use x="127.246094" xlink:href="#DejaVuSans-49"/>
       <use x="190.869141" xlink:href="#DejaVuSans-56"/>
       <use x="254.492188" xlink:href="#DejaVuSans-45"/>
       <use x="290.576172" xlink:href="#DejaVuSans-48"/>
       <use x="354.199219" xlink:href="#DejaVuSans-57"/>
      </g>
     </g>
    </g>
    <g id="xtick_6">
     <g id="line2d_11">
      <path clip-path="url(#p728a68a425)" d="M 347.083636 307.584 
L 347.083636 41.472 
" style="fill:none;stroke:#b0b0b0;stroke-linecap:square;stroke-width:0.2;"/>
     </g>
     <g id="line2d_12">
      <g>
       <use style="stroke:#000000;stroke-width:0.8;" x="347.083636" xlink:href="#m96200aa43e" y="307.584"/>
      </g>
     </g>
     <g id="text_6">
      <!-- 2018-11 -->
      <g transform="translate(326.19223 322.182437)scale(0.1 -0.1)">
       <use xlink:href="#DejaVuSans-50"/>
       <use x="63.623047" xlink:href="#DejaVuSans-48"/>
       <use x="127.246094" xlink:href="#DejaVuSans-49"/>
       <use x="190.869141" xlink:href="#DejaVuSans-56"/>
       <use x="254.492188" xlink:href="#DejaVuSans-45"/>
       <use x="290.576172" xlink:href="#DejaVuSans-49"/>
       <use x="354.199219" xlink:href="#DejaVuSans-49"/>
      </g>
     </g>
    </g>
    <g id="xtick_7">
     <g id="line2d_13">
      <path clip-path="url(#p728a68a425)" d="M 402.094545 307.584 
L 402.094545 41.472 
" style="fill:none;stroke:#b0b0b0;stroke-linecap:square;stroke-width:0.2;"/>
     </g>
     <g id="line2d_14">
      <g>
       <use style="stroke:#000000;stroke-width:0.8;" x="402.094545" xlink:href="#m96200aa43e" y="307.584"/>
      </g>
     </g>
     <g id="text_7">
      <!-- 2019-01 -->
      <g transform="translate(381.203139 322.182437)scale(0.1 -0.1)">
       <use xlink:href="#DejaVuSans-50"/>
       <use x="63.623047" xlink:href="#DejaVuSans-48"/>
       <use x="127.246094" xlink:href="#DejaVuSans-49"/>
       <use x="190.869141" xlink:href="#DejaVuSans-57"/>
       <use x="254.492188" xlink:href="#DejaVuSans-45"/>
       <use x="290.576172" xlink:href="#DejaVuSans-48"/>
       <use x="354.199219" xlink:href="#DejaVuSans-49"/>
      </g>
     </g>
    </g>
    <g id="text_8">
     <!-- date -->
     <defs>
      <path d="M 39.9375 6.296875 
Q 37.359375 2.6875 33.625 0.828125 
Q 29.890625 -1.03125 24.953125 -1.03125 
Q 15.28125 -1.03125 9.828125 5.96875 
Q 4.390625 12.984375 4.390625 24.421875 
L 4.390625 25.4375 
Q 4.390625 38.1875 9.828125 46 
Q 15.28125 53.8125 25.046875 53.8125 
Q 29.734375 53.8125 33.328125 52.078125 
Q 36.921875 50.34375 39.453125 47.078125 
L 39.453125 68.609375 
L 31.5 69.96875 
L 31.5 76.171875 
L 39.453125 76.171875 
L 49.078125 76.171875 
L 49.078125 7.515625 
L 57.03125 6.15625 
L 57.03125 0 
L 40.71875 0 
z
M 14.015625 24.421875 
Q 14.015625 16.453125 17.28125 11.609375 
Q 20.5625 6.78125 27.390625 6.78125 
Q 31.6875 6.78125 34.609375 8.734375 
Q 37.546875 10.6875 39.453125 14.265625 
L 39.453125 38.765625 
Q 37.59375 42.09375 34.609375 44.046875 
Q 31.640625 46 27.484375 46 
Q 20.609375 46 17.3125 40.28125 
Q 14.015625 34.578125 14.015625 25.4375 
z
" id="RobotoSlab-Regular-100"/>
      <path d="M 38.8125 0 
Q 38.375 2.15625 38.125 3.859375 
Q 37.890625 5.5625 37.796875 7.28125 
Q 35.015625 3.71875 30.828125 1.34375 
Q 26.65625 -1.03125 21.921875 -1.03125 
Q 13.671875 -1.03125 9.375 3 
Q 5.078125 7.03125 5.078125 14.359375 
Q 5.078125 21.875 11.15625 25.953125 
Q 17.234375 30.03125 27.828125 30.03125 
L 37.75 30.03125 
L 37.75 36.1875 
Q 37.75 40.828125 34.8125 43.53125 
Q 31.890625 46.234375 26.65625 46.234375 
Q 23.046875 46.234375 20.28125 45.3125 
Q 17.53125 44.390625 15.828125 42.78125 
L 14.796875 37.203125 
L 7.375 37.203125 
L 7.375 47.46875 
Q 10.984375 50.34375 16.109375 52.078125 
Q 21.234375 53.8125 27.25 53.8125 
Q 36.234375 53.8125 41.796875 49.21875 
Q 47.359375 44.625 47.359375 36.078125 
L 47.359375 10.640625 
Q 47.359375 9.625 47.375 8.640625 
Q 47.40625 7.671875 47.515625 6.6875 
L 51.421875 6.15625 
L 51.421875 0 
z
M 23.34375 7.03125 
Q 28.125 7.03125 32.078125 9.328125 
Q 36.03125 11.625 37.75 14.84375 
L 37.75 23.53125 
L 27.484375 23.53125 
Q 21.578125 23.53125 18.140625 20.796875 
Q 14.703125 18.0625 14.703125 14.15625 
Q 14.703125 10.6875 16.84375 8.859375 
Q 19 7.03125 23.34375 7.03125 
z
" id="RobotoSlab-Regular-97"/>
      <path d="M 21.140625 65.578125 
L 21.140625 52.828125 
L 31.15625 52.828125 
L 31.15625 45.703125 
L 21.140625 45.703125 
L 21.140625 13.625 
Q 21.140625 9.90625 22.671875 8.390625 
Q 24.21875 6.890625 26.765625 6.890625 
Q 28.03125 6.890625 29.609375 7.109375 
Q 31.203125 7.328125 32.28125 7.5625 
L 33.59375 0.984375 
Q 32.234375 0.09375 29.59375 -0.46875 
Q 26.953125 -1.03125 24.3125 -1.03125 
Q 18.453125 -1.03125 14.984375 2.515625 
Q 11.53125 6.0625 11.53125 13.625 
L 11.53125 45.703125 
L 3.171875 45.703125 
L 3.171875 52.828125 
L 11.53125 52.828125 
L 11.53125 65.578125 
z
" id="RobotoSlab-Regular-116"/>
      <path d="M 28.46875 -1.03125 
Q 17.4375 -1.03125 10.90625 6.3125 
Q 4.390625 13.671875 4.390625 25.390625 
L 4.390625 27.546875 
Q 4.390625 38.8125 11.109375 46.3125 
Q 17.828125 53.8125 27 53.8125 
Q 37.640625 53.8125 43.140625 47.359375 
Q 48.640625 40.921875 48.640625 30.171875 
L 48.640625 24.171875 
L 14.359375 24.171875 
L 14.203125 23.921875 
Q 14.359375 16.3125 18.0625 11.40625 
Q 21.78125 6.5 28.46875 6.5 
Q 33.34375 6.5 37.03125 7.890625 
Q 40.71875 9.28125 43.40625 11.71875 
L 47.171875 5.46875 
Q 44.34375 2.734375 39.671875 0.84375 
Q 35.015625 -1.03125 28.46875 -1.03125 
z
M 27 46.234375 
Q 22.171875 46.234375 18.75 42.15625 
Q 15.328125 38.09375 14.546875 31.9375 
L 14.65625 31.6875 
L 39.015625 31.6875 
L 39.015625 32.953125 
Q 39.015625 38.625 35.984375 42.421875 
Q 32.953125 46.234375 27 46.234375 
z
" id="RobotoSlab-Regular-101"/>
     </defs>
     <g transform="translate(221.776094 338.926187)scale(0.14 -0.14)">
      <use xlink:href="#RobotoSlab-Regular-100"/>
      <use x="60.009766" xlink:href="#RobotoSlab-Regular-97"/>
      <use x="115.087891" xlink:href="#RobotoSlab-Regular-116"/>
      <use x="151.708984" xlink:href="#RobotoSlab-Regular-101"/>
     </g>
    </g>
   </g>
   <g id="matplotlib.axis_2">
    <g id="ytick_1">
     <g id="line2d_15">
      <path clip-path="url(#p728a68a425)" d="M 57.6 279.880258 
L 414.72 279.880258 
" style="fill:none;stroke:#b0b0b0;stroke-linecap:square;stroke-width:0.2;"/>
     </g>
     <g id="line2d_16">
      <defs>
       <path d="M 0 0 
L -3.5 0 
" id="m6608526c89" style="stroke:#000000;stroke-width:0.8;"/>
      </defs>
      <g>
       <use style="stroke:#000000;stroke-width:0.8;" x="57.6" xlink:href="#m6608526c89" y="279.880258"/>
      </g>
     </g>
     <g id="text_9">
      <!-- 9 -->
      <g transform="translate(44.2375 283.679477)scale(0.1 -0.1)">
       <use xlink:href="#DejaVuSans-57"/>
      </g>
     </g>
    </g>
    <g id="ytick_2">
     <g id="line2d_17">
      <path clip-path="url(#p728a68a425)" d="M 57.6 240.860903 
L 414.72 240.860903 
" style="fill:none;stroke:#b0b0b0;stroke-linecap:square;stroke-width:0.2;"/>
     </g>
     <g id="line2d_18">
      <g>
       <use style="stroke:#000000;stroke-width:0.8;" x="57.6" xlink:href="#m6608526c89" y="240.860903"/>
      </g>
     </g>
     <g id="text_10">
      <!-- 10 -->
      <g transform="translate(37.875 244.660122)scale(0.1 -0.1)">
       <use xlink:href="#DejaVuSans-49"/>
       <use x="63.623047" xlink:href="#DejaVuSans-48"/>
      </g>
     </g>
    </g>
    <g id="ytick_3">
     <g id="line2d_19">
      <path clip-path="url(#p728a68a425)" d="M 57.6 201.841548 
L 414.72 201.841548 
" style="fill:none;stroke:#b0b0b0;stroke-linecap:square;stroke-width:0.2;"/>
     </g>
     <g id="line2d_20">
      <g>
       <use style="stroke:#000000;stroke-width:0.8;" x="57.6" xlink:href="#m6608526c89" y="201.841548"/>
      </g>
     </g>
     <g id="text_11">
      <!-- 11 -->
      <g transform="translate(37.875 205.640767)scale(0.1 -0.1)">
       <use xlink:href="#DejaVuSans-49"/>
       <use x="63.623047" xlink:href="#DejaVuSans-49"/>
      </g>
     </g>
    </g>
    <g id="ytick_4">
     <g id="line2d_21">
      <path clip-path="url(#p728a68a425)" d="M 57.6 162.822194 
L 414.72 162.822194 
" style="fill:none;stroke:#b0b0b0;stroke-linecap:square;stroke-width:0.2;"/>
     </g>
     <g id="line2d_22">
      <g>
       <use style="stroke:#000000;stroke-width:0.8;" x="57.6" xlink:href="#m6608526c89" y="162.822194"/>
      </g>
     </g>
     <g id="text_12">
      <!-- 12 -->
      <g transform="translate(37.875 166.621412)scale(0.1 -0.1)">
       <use xlink:href="#DejaVuSans-49"/>
       <use x="63.623047" xlink:href="#DejaVuSans-50"/>
      </g>
     </g>
    </g>
    <g id="ytick_5">
     <g id="line2d_23">
      <path clip-path="url(#p728a68a425)" d="M 57.6 123.802839 
L 414.72 123.802839 
" style="fill:none;stroke:#b0b0b0;stroke-linecap:square;stroke-width:0.2;"/>
     </g>
     <g id="line2d_24">
      <g>
       <use style="stroke:#000000;stroke-width:0.8;" x="57.6" xlink:href="#m6608526c89" y="123.802839"/>
      </g>
     </g>
     <g id="text_13">
      <!-- 13 -->
      <g transform="translate(37.875 127.602057)scale(0.1 -0.1)">
       <use xlink:href="#DejaVuSans-49"/>
       <use x="63.623047" xlink:href="#DejaVuSans-51"/>
      </g>
     </g>
    </g>
    <g id="ytick_6">
     <g id="line2d_25">
      <path clip-path="url(#p728a68a425)" d="M 57.6 84.783484 
L 414.72 84.783484 
" style="fill:none;stroke:#b0b0b0;stroke-linecap:square;stroke-width:0.2;"/>
     </g>
     <g id="line2d_26">
      <g>
       <use style="stroke:#000000;stroke-width:0.8;" x="57.6" xlink:href="#m6608526c89" y="84.783484"/>
      </g>
     </g>
     <g id="text_14">
      <!-- 14 -->
      <defs>
       <path d="M 37.796875 64.3125 
L 12.890625 25.390625 
L 37.796875 25.390625 
z
M 35.203125 72.90625 
L 47.609375 72.90625 
L 47.609375 25.390625 
L 58.015625 25.390625 
L 58.015625 17.1875 
L 47.609375 17.1875 
L 47.609375 0 
L 37.796875 0 
L 37.796875 17.1875 
L 4.890625 17.1875 
L 4.890625 26.703125 
z
" id="DejaVuSans-52"/>
      </defs>
      <g transform="translate(37.875 88.582703)scale(0.1 -0.1)">
       <use xlink:href="#DejaVuSans-49"/>
       <use x="63.623047" xlink:href="#DejaVuSans-52"/>
      </g>
     </g>
    </g>
    <g id="ytick_7">
     <g id="line2d_27">
      <path clip-path="url(#p728a68a425)" d="M 57.6 45.764129 
L 414.72 45.764129 
" style="fill:none;stroke:#b0b0b0;stroke-linecap:square;stroke-width:0.2;"/>
     </g>
     <g id="line2d_28">
      <g>
       <use style="stroke:#000000;stroke-width:0.8;" x="57.6" xlink:href="#m6608526c89" y="45.764129"/>
      </g>
     </g>
     <g id="text_15">
      <!-- 15 -->
      <g transform="translate(37.875 49.563348)scale(0.1 -0.1)">
       <use xlink:href="#DejaVuSans-49"/>
       <use x="63.623047" xlink:href="#DejaVuSans-53"/>
      </g>
     </g>
    </g>
    <g id="text_16">
     <!-- Closing prices -->
     <defs>
      <path d="M 58.59375 49.265625 
L 51.8125 49.265625 
L 50 59.328125 
Q 47.65625 61.625 44.234375 63.078125 
Q 40.828125 64.546875 36.078125 64.546875 
Q 25 64.546875 19.046875 56.515625 
Q 13.09375 48.484375 13.09375 36.140625 
L 13.09375 35.015625 
Q 13.09375 22.65625 18.921875 14.578125 
Q 24.75 6.5 35.109375 6.5 
Q 39.9375 6.5 43.890625 8 
Q 47.859375 9.515625 50 11.71875 
L 51.8125 21.78125 
L 58.59375 21.78125 
L 58.59375 9.125 
Q 55.515625 5.171875 49.359375 2.0625 
Q 43.21875 -1.03125 35.109375 -1.03125 
Q 21.234375 -1.03125 12.34375 9.21875 
Q 3.46875 19.484375 3.46875 35.015625 
L 3.46875 36.03125 
Q 3.46875 51.65625 12.203125 61.890625 
Q 20.953125 72.125 35.109375 72.125 
Q 43.21875 72.125 49.359375 68.96875 
Q 55.515625 65.828125 58.59375 61.921875 
z
" id="RobotoSlab-Regular-67"/>
      <path d="M 3.03125 69.96875 
L 3.03125 76.171875 
L 20.609375 76.171875 
L 20.609375 7.515625 
L 28.5625 6.15625 
L 28.5625 0 
L 3.03125 0 
L 3.03125 6.15625 
L 10.984375 7.515625 
L 10.984375 68.609375 
z
" id="RobotoSlab-Regular-108"/>
      <path d="M 4.390625 26.90625 
Q 4.390625 38.625 10.734375 46.21875 
Q 17.09375 53.8125 27.984375 53.8125 
Q 38.921875 53.8125 45.28125 46.234375 
Q 51.65625 38.671875 51.65625 26.90625 
L 51.65625 25.828125 
Q 51.65625 14.015625 45.3125 6.484375 
Q 38.96875 -1.03125 28.078125 -1.03125 
Q 17.09375 -1.03125 10.734375 6.515625 
Q 4.390625 14.0625 4.390625 25.828125 
z
M 14.015625 25.828125 
Q 14.015625 17.4375 17.546875 11.96875 
Q 21.09375 6.5 28.078125 6.5 
Q 34.90625 6.5 38.46875 11.96875 
Q 42.046875 17.4375 42.046875 25.828125 
L 42.046875 26.90625 
Q 42.046875 35.203125 38.46875 40.71875 
Q 34.90625 46.234375 27.984375 46.234375 
Q 21.046875 46.234375 17.53125 40.71875 
Q 14.015625 35.203125 14.015625 26.90625 
z
" id="RobotoSlab-Regular-111"/>
      <path d="M 44.78125 36.234375 
L 37.546875 36.234375 
L 35.984375 42.578125 
Q 34.234375 44.234375 31.5625 45.234375 
Q 28.90625 46.234375 25.53125 46.234375 
Q 20.40625 46.234375 17.921875 43.984375 
Q 15.4375 41.75 15.4375 38.578125 
Q 15.4375 35.453125 17.625 33.640625 
Q 19.828125 31.84375 26.5625 30.421875 
Q 36.578125 28.265625 41.453125 24.578125 
Q 46.34375 20.90625 46.34375 14.703125 
Q 46.34375 7.671875 40.65625 3.3125 
Q 34.96875 -1.03125 25.78125 -1.03125 
Q 19.78125 -1.03125 14.984375 0.359375 
Q 10.203125 1.765625 6.453125 4.390625 
L 6.390625 16.453125 
L 13.625 16.453125 
L 15.4375 9.375 
Q 17.09375 7.859375 19.9375 7.171875 
Q 22.796875 6.5 25.78125 6.5 
Q 30.90625 6.5 33.8125 8.5625 
Q 36.71875 10.640625 36.71875 14.015625 
Q 36.71875 17.1875 34.296875 19.234375 
Q 31.890625 21.296875 25.140625 22.796875 
Q 15.53125 24.90625 10.640625 28.515625 
Q 5.765625 32.125 5.765625 38.28125 
Q 5.765625 44.734375 11.25 49.265625 
Q 16.75 53.8125 25.53125 53.8125 
Q 31.546875 53.8125 36.328125 52.25 
Q 41.109375 50.6875 44.28125 47.90625 
z
" id="RobotoSlab-Regular-115"/>
      <path d="M 4.34375 6.15625 
L 12.3125 7.515625 
L 12.3125 45.265625 
L 4.34375 46.625 
L 4.34375 52.828125 
L 21.921875 52.828125 
L 21.921875 7.515625 
L 29.890625 6.15625 
L 29.890625 0 
L 4.34375 0 
z
M 21.921875 66.359375 
L 12.3125 66.359375 
L 12.3125 76.171875 
L 21.921875 76.171875 
z
" id="RobotoSlab-Regular-105"/>
      <path d="M 2.9375 6.15625 
L 10.890625 7.515625 
L 10.890625 45.265625 
L 2.9375 46.625 
L 2.9375 52.828125 
L 19.484375 52.828125 
L 20.171875 44.96875 
Q 22.796875 49.171875 26.78125 51.484375 
Q 30.765625 53.8125 35.84375 53.8125 
Q 44.390625 53.8125 49.078125 48.796875 
Q 53.765625 43.796875 53.765625 33.34375 
L 53.765625 7.515625 
L 61.71875 6.15625 
L 61.71875 0 
L 36.1875 0 
L 36.1875 6.15625 
L 44.140625 7.515625 
L 44.140625 33.15625 
Q 44.140625 40.140625 41.375 43.0625 
Q 38.625 46 32.953125 46 
Q 28.8125 46 25.609375 44 
Q 22.40625 42 20.515625 38.53125 
L 20.515625 7.515625 
L 28.46875 6.15625 
L 28.46875 0 
L 2.9375 0 
z
" id="RobotoSlab-Regular-110"/>
      <path d="M 4.390625 25.4375 
Q 4.390625 38.1875 9.953125 46 
Q 15.53125 53.8125 25.34375 53.8125 
Q 30.328125 53.8125 34.078125 51.859375 
Q 37.84375 49.90625 40.375 46.1875 
L 41.265625 52.828125 
L 49.359375 52.828125 
L 49.359375 0.6875 
Q 49.359375 -9.578125 43.640625 -15.453125 
Q 37.9375 -21.34375 27.390625 -21.34375 
Q 23.578125 -21.34375 19.140625 -20.28125 
Q 14.703125 -19.234375 11.328125 -17.4375 
L 13.8125 -9.96875 
Q 16.5 -11.375 20.15625 -12.296875 
Q 23.828125 -13.234375 27.296875 -13.234375 
Q 33.734375 -13.234375 36.734375 -9.609375 
Q 39.75 -6 39.75 0.6875 
L 39.75 5.71875 
Q 37.15625 2.390625 33.546875 0.671875 
Q 29.9375 -1.03125 25.25 -1.03125 
Q 15.53125 -1.03125 9.953125 6 
Q 4.390625 13.03125 4.390625 24.421875 
z
M 14.015625 24.421875 
Q 14.015625 16.453125 17.375 11.609375 
Q 20.75 6.78125 27.640625 6.78125 
Q 31.984375 6.78125 34.90625 8.765625 
Q 37.84375 10.75 39.75 14.359375 
L 39.75 38.671875 
Q 37.890625 42.046875 34.90625 44.015625 
Q 31.9375 46 27.734375 46 
Q 20.84375 46 17.421875 40.234375 
Q 14.015625 34.46875 14.015625 25.4375 
z
" id="RobotoSlab-Regular-103"/>
      <path id="RobotoSlab-Regular-32"/>
      <path d="M 3.171875 -14.109375 
L 11.140625 -12.75 
L 11.140625 45.265625 
L 3.171875 46.625 
L 3.171875 52.828125 
L 19.390625 52.828125 
L 20.265625 46.390625 
Q 22.90625 50 26.6875 51.90625 
Q 30.46875 53.8125 35.453125 53.8125 
Q 45.265625 53.8125 50.703125 46.015625 
Q 56.15625 38.234375 56.15625 25.4375 
L 56.15625 24.421875 
Q 56.15625 12.984375 50.6875 5.96875 
Q 45.21875 -1.03125 35.59375 -1.03125 
Q 30.71875 -1.03125 27.03125 0.609375 
Q 23.34375 2.25 20.75 5.46875 
L 20.75 -12.75 
L 28.71875 -14.109375 
L 28.71875 -20.3125 
L 3.171875 -20.3125 
z
M 46.484375 25.4375 
Q 46.484375 34.46875 42.96875 40.234375 
Q 39.453125 46 32.515625 46 
Q 28.421875 46 25.484375 44.140625 
Q 22.5625 42.28125 20.75 39.0625 
L 20.75 13.328125 
Q 22.5625 10.0625 25.46875 8.28125 
Q 28.375 6.5 32.625 6.5 
Q 39.453125 6.5 42.96875 11.46875 
Q 46.484375 16.453125 46.484375 24.421875 
z
" id="RobotoSlab-Regular-112"/>
      <path d="M 4.34375 46.625 
L 4.34375 52.828125 
L 20.90625 52.828125 
L 21.828125 45.171875 
Q 24.078125 49.21875 27.375 51.515625 
Q 30.671875 53.8125 34.90625 53.8125 
Q 36.03125 53.8125 37.21875 53.640625 
Q 38.421875 53.46875 39.0625 53.265625 
L 37.796875 44.34375 
L 32.328125 44.625 
Q 28.515625 44.625 25.921875 42.84375 
Q 23.34375 41.0625 21.921875 37.84375 
L 21.921875 7.515625 
L 29.890625 6.15625 
L 29.890625 0 
L 4.34375 0 
L 4.34375 6.15625 
L 12.3125 7.515625 
L 12.3125 45.265625 
z
" id="RobotoSlab-Regular-114"/>
      <path d="M 28.078125 6.5 
Q 32.859375 6.5 36.5 9.453125 
Q 40.140625 12.40625 40.140625 16.703125 
L 48.78125 16.703125 
L 48.875 16.40625 
Q 49.125 9.578125 42.796875 4.265625 
Q 36.46875 -1.03125 28.078125 -1.03125 
Q 16.546875 -1.03125 10.46875 6.484375 
Q 4.390625 14.015625 4.390625 25.390625 
L 4.390625 27.4375 
Q 4.390625 38.71875 10.5 46.265625 
Q 16.609375 53.8125 28.078125 53.8125 
Q 34.421875 53.8125 39.46875 51.703125 
Q 44.53125 49.609375 47.859375 45.953125 
L 48.296875 34.234375 
L 40.625 34.234375 
L 38.53125 42.53125 
Q 36.8125 44.1875 34.125 45.203125 
Q 31.453125 46.234375 28.078125 46.234375 
Q 20.515625 46.234375 17.265625 40.796875 
Q 14.015625 35.359375 14.015625 27.4375 
L 14.015625 25.390625 
Q 14.015625 17.28125 17.234375 11.890625 
Q 20.453125 6.5 28.078125 6.5 
z
" id="RobotoSlab-Regular-99"/>
     </defs>
     <g transform="translate(30.886875 221.791125)rotate(-90)scale(0.14 -0.14)">
      <use xlink:href="#RobotoSlab-Regular-67"/>
      <use x="64.501953" xlink:href="#RobotoSlab-Regular-108"/>
      <use x="95.996094" xlink:href="#RobotoSlab-Regular-111"/>
      <use x="152.099609" xlink:href="#RobotoSlab-Regular-115"/>
      <use x="203.076172" xlink:href="#RobotoSlab-Regular-105"/>
      <use x="235.9375" xlink:href="#RobotoSlab-Regular-110"/>
      <use x="300.292969" xlink:href="#RobotoSlab-Regular-103"/>
      <use x="356.884766" xlink:href="#RobotoSlab-Regular-32"/>
      <use x="381.738281" xlink:href="#RobotoSlab-Regular-112"/>
      <use x="442.285156" xlink:href="#RobotoSlab-Regular-114"/>
      <use x="483.642578" xlink:href="#RobotoSlab-Regular-105"/>
      <use x="516.503906" xlink:href="#RobotoSlab-Regular-99"/>
      <use x="570.410156" xlink:href="#RobotoSlab-Regular-101"/>
      <use x="624.169922" xlink:href="#RobotoSlab-Regular-115"/>
     </g>
    </g>
   </g>
   <g id="line2d_29">
    <path clip-path="url(#p728a68a425)" d="M 73.832727 96.48929 
L 74.734545 110.926452 
L 75.636364 114.048 
L 76.538182 112.097032 
L 79.243636 125.363613 
L 80.145455 120.68129 
L 81.047273 105.463742 
L 81.949091 108.195097 
L 82.850909 102.342194 
L 85.556364 76.979613 
L 86.458182 76.979613 
L 87.36 75.809032 
L 88.261818 56.689548 
L 89.163636 53.568 
L 91.869091 67.614968 
L 92.770909 59.420903 
L 93.672727 59.811097 
L 94.574545 76.979613 
L 95.476364 82.832516 
L 98.181818 94.928516 
L 99.083636 98.440258 
L 99.985455 82.832516 
L 100.887273 83.612903 
L 101.789091 82.832516 
L 104.494545 63.322839 
L 105.396364 84.783484 
L 106.298182 126.924387 
L 107.2 141.751742 
L 108.101818 174.918194 
L 110.807273 173.747613 
L 111.709091 165.163355 
L 112.610909 162.822194 
L 119.825455 144.87329 
L 120.727273 139.020387 
L 123.432727 138.24 
L 124.334545 151.896774 
L 125.236364 160.871226 
L 126.138182 161.261419 
L 127.04 164.773161 
L 129.745455 168.284903 
L 130.647273 158.920258 
L 131.549091 160.871226 
L 132.450909 158.530065 
L 136.058182 161.651613 
L 136.96 162.041806 
L 137.861818 165.943742 
L 138.763636 174.137806 
L 139.665455 176.869161 
L 142.370909 169.455484 
L 143.272727 169.845677 
L 144.174545 166.724129 
L 145.076364 176.088774 
L 145.978182 188.574968 
L 148.683636 204.572903 
L 149.585455 204.18271 
L 150.487273 206.133677 
L 151.389091 199.890581 
L 152.290909 205.743484 
L 154.996364 213.157161 
L 155.898182 219.010065 
L 156.8 206.914065 
L 161.309091 201.061161 
L 163.112727 169.455484 
L 164.014545 181.551484 
L 164.916364 179.600516 
L 167.621818 197.939613 
L 168.523636 193.647484 
L 169.425455 182.331871 
L 170.327273 183.502452 
L 171.229091 188.184774 
L 173.934545 179.600516 
L 174.836364 168.284903 
L 175.738182 175.308387 
L 176.64 185.453419 
L 177.541818 207.694452 
L 182.050909 206.523871 
L 182.952727 211.596387 
L 183.854545 214.327742 
L 186.56 209.255226 
L 187.461818 201.451355 
L 188.363636 203.012129 
L 189.265455 201.451355 
L 190.167273 201.451355 
L 192.872727 194.818065 
L 193.774545 197.159226 
L 194.676364 205.743484 
L 195.578182 208.865032 
L 196.48 203.402323 
L 199.185455 203.792516 
L 200.087273 207.304258 
L 200.989091 215.498323 
L 201.890909 217.059097 
L 202.792727 217.839484 
L 205.498182 217.839484 
L 206.4 226.033548 
L 207.301818 237.739355 
L 208.203636 233.837419 
L 209.105455 233.447226 
L 211.810909 230.325677 
L 212.712727 230.715871 
L 213.614545 235.398194 
L 214.516364 226.423742 
L 215.418182 236.178581 
L 218.123636 239.300129 
L 219.025455 238.519742 
L 219.927273 242.811871 
L 220.829091 238.129548 
L 221.730909 234.227613 
L 225.338182 245.933419 
L 226.24 244.372645 
L 227.141818 246.323613 
L 228.043636 246.713806 
L 230.749091 261.931355 
L 231.650909 265.83329 
L 232.552727 276.368516 
L 233.454545 283.001806 
L 234.356364 276.368516 
L 237.061818 295.097806 
L 237.963636 292.756645 
L 238.865455 295.097806 
L 239.767273 295.488 
L 240.669091 293.146839 
L 243.374545 278.709677 
L 244.276364 280.660645 
L 245.178182 288.464516 
L 246.08 284.562581 
L 246.981818 284.562581 
L 249.687273 290.415484 
L 250.589091 290.805677 
L 251.490909 291.586065 
L 252.392727 290.415484 
L 253.294545 275.588129 
L 256 263.492129 
L 257.803636 265.052903 
L 258.705455 270.125419 
L 259.607273 270.125419 
L 262.312727 264.66271 
L 263.214545 263.492129 
L 264.116364 274.027355 
L 265.018182 282.221419 
L 265.92 283.392 
L 268.625455 282.221419 
L 269.527273 273.246968 
L 270.429091 277.92929 
L 271.330909 268.564645 
L 274.938182 277.92929 
L 275.84 279.880258 
L 276.741818 288.074323 
L 277.643636 288.464516 
L 278.545455 287.293935 
L 281.250909 279.880258 
L 282.152727 270.905806 
L 283.054545 268.564645 
L 283.956364 265.83329 
L 284.858182 239.690323 
L 287.563636 224.082581 
L 288.465455 229.54529 
L 289.367273 230.325677 
L 290.269091 236.178581 
L 291.170909 235.788387 
L 293.876364 233.447226 
L 294.778182 224.082581 
L 295.68 238.909935 
L 296.581818 242.031484 
L 297.483636 240.47071 
L 300.189091 245.543226 
L 301.090909 244.372645 
L 301.992727 245.543226 
L 302.894545 242.421677 
L 303.796364 247.104 
L 306.501818 252.956903 
L 307.403636 237.739355 
L 308.305455 231.496258 
L 309.207273 231.886452 
L 310.109091 214.717935 
L 313.716364 219.400258 
L 314.618182 213.157161 
L 315.52 211.986581 
L 316.421818 199.890581 
L 325.44 223.302194 
L 326.341818 219.010065 
L 327.243636 223.302194 
L 328.145455 246.323613 
L 329.047273 229.155097 
L 331.752727 236.568774 
L 332.654545 226.423742 
L 333.556364 227.984516 
L 334.458182 237.349161 
L 335.36 211.206194 
L 338.065455 195.988645 
L 338.967273 208.084645 
L 339.869091 200.280774 
L 340.770909 190.525935 
L 341.672727 194.818065 
L 344.378182 211.596387 
L 345.28 205.743484 
L 346.181818 205.35329 
L 347.083636 208.474839 
L 347.985455 198.329806 
L 350.690909 204.963097 
L 351.592727 208.084645 
L 352.494545 209.255226 
L 353.396364 206.133677 
L 354.298182 219.400258 
L 357.003636 219.010065 
L 357.905455 219.790452 
L 358.807273 223.692387 
L 359.709091 216.668903 
L 360.610909 218.619871 
L 363.316364 207.694452 
L 364.218182 218.619871 
L 365.12 217.059097 
L 366.021818 219.400258 
L 366.923636 228.37471 
L 369.629091 227.594323 
L 370.530909 233.837419 
L 371.432727 229.935484 
L 372.334545 233.057032 
L 373.236364 226.813935 
L 375.941818 217.839484 
L 376.843636 217.839484 
L 377.745455 223.302194 
L 378.647273 231.106065 
L 379.549091 229.935484 
L 382.254545 234.227613 
L 383.156364 231.886452 
L 384.058182 231.496258 
L 384.96 225.643355 
L 385.861818 234.227613 
L 388.567273 229.54529 
L 390.370909 243.202065 
L 391.272727 252.176516 
L 392.174545 262.321548 
L 394.88 263.492129 
L 395.781818 266.613677 
L 396.683636 268.174452 
L 397.585455 268.954839 
L 398.487273 265.052903 
L 398.487273 265.052903 
" style="fill:none;stroke:#1f77b4;stroke-linecap:square;stroke-width:1.5;"/>
   </g>
   <g id="patch_3">
    <path d="M 57.6 307.584 
L 57.6 41.472 
" style="fill:none;stroke:#000000;stroke-linecap:square;stroke-linejoin:miter;stroke-width:0.8;"/>
   </g>
   <g id="patch_4">
    <path d="M 414.72 307.584 
L 414.72 41.472 
" style="fill:none;stroke:#000000;stroke-linecap:square;stroke-linejoin:miter;stroke-width:0.8;"/>
   </g>
   <g id="patch_5">
    <path d="M 57.6 307.584 
L 414.72 307.584 
" style="fill:none;stroke:#000000;stroke-linecap:square;stroke-linejoin:miter;stroke-width:0.8;"/>
   </g>
   <g id="patch_6">
    <path d="M 57.6 41.472 
L 414.72 41.472 
" style="fill:none;stroke:#000000;stroke-linecap:square;stroke-linejoin:miter;stroke-width:0.8;"/>
   </g>
   <g id="text_17">
    <!-- 平安银行收盘价走势图 -->
    <defs>
     <path d="M 43.90625 70 
L 12.90625 70 
Q 10.90625 70 9.296875 68.90625 
L 6.703125 73.59375 
Q 9.09375 73.296875 11.703125 73.296875 
L 74.796875 73.296875 
Q 77.59375 78.296875 78.59375 79.546875 
Q 79.59375 80.796875 80.203125 80.796875 
Q 81.09375 80.796875 85.046875 78.4375 
Q 89 76.09375 91.09375 74.4375 
Q 93.203125 72.796875 93.203125 71.5 
Q 93.203125 70 91.09375 70 
L 58.09375 70 
Q 57.796875 69.203125 56.703125 68.90625 
L 56.703125 31.90625 
L 57.09375 31.90625 
Q 68.09375 45 73.59375 66.203125 
Q 77.5 64.796875 82.84375 62.34375 
Q 88.203125 59.90625 89.09375 59.15625 
Q 90 58.40625 90 57.5 
Q 90 56.59375 88.34375 56.296875 
Q 86.703125 56 85.5 55.09375 
Q 84.296875 54.203125 81.40625 51.203125 
Q 71.59375 40.90625 59 31.90625 
L 77.40625 31.90625 
Q 79.296875 35.203125 81.140625 38.25 
Q 83 41.296875 83.390625 41.640625 
Q 83.796875 42 84.34375 42 
Q 84.90625 42 87.65625 40.046875 
Q 90.40625 38.09375 93.25 35.75 
Q 96.09375 33.40625 97.140625 32.15625 
Q 98.203125 30.90625 98.203125 30 
Q 98.203125 28.59375 96.203125 28.59375 
L 56.703125 28.59375 
L 56.703125 3.09375 
Q 56.703125 -0.203125 56.90625 -3.90625 
L 57 -7.296875 
Q 57 -8 56.703125 -8.296875 
Q 56.40625 -8.59375 54.5 -9.296875 
Q 52.59375 -10 49.140625 -10.640625 
Q 45.703125 -11.296875 44.296875 -11.296875 
Q 43.59375 -11.296875 43.59375 -9.796875 
L 43.703125 -5.90625 
Q 43.90625 -1.90625 43.90625 3.09375 
L 43.90625 28.59375 
L 9.296875 28.59375 
Q 7.296875 28.59375 5.703125 27.5 
L 3.09375 32.203125 
Q 5.5 31.90625 8.09375 31.90625 
L 43.90625 31.90625 
z
M 12.5 63.09375 
Q 14.296875 63.09375 20.59375 60.890625 
Q 26.90625 58.703125 30.796875 54.390625 
Q 34.703125 50.09375 34.703125 44 
Q 34.703125 40.40625 32.5 38 
Q 30.296875 35.59375 27 35.59375 
Q 25.09375 35.59375 23.140625 37.1875 
Q 21.203125 38.796875 21.203125 43.703125 
Q 21.203125 56.90625 13.09375 61.90625 
Q 12 62.59375 12 62.84375 
Q 12 63.09375 12.5 63.09375 
z
" id="STSongti-SC-Black-24179"/>
     <path d="M 39.59375 81 
Q 48.703125 81 53.453125 78.390625 
Q 58.203125 75.796875 58.203125 71.40625 
Q 58.203125 68.09375 55.796875 66.25 
Q 53.40625 64.40625 49.203125 64.40625 
Q 46.90625 64.40625 45.40625 66 
Q 43.90625 67.59375 43.90625 70.09375 
Q 43.90625 76.796875 38.5 79.09375 
Q 37.203125 79.703125 37.203125 80.34375 
Q 37.203125 81 39.59375 81 
z
M 21.296875 63.703125 
L 76.5 63.703125 
Q 79.296875 69.59375 81.09375 69.59375 
Q 82.09375 69.59375 85.1875 67.5 
Q 88.296875 65.40625 90.9375 63.203125 
Q 93.59375 61 94.75 59.640625 
Q 95.90625 58.296875 95.90625 57.09375 
Q 95.90625 55.90625 94.90625 55.296875 
Q 93.90625 54.703125 91.40625 55.09375 
Q 88.90625 55.5 86.5 55.5 
Q 84.09375 55.5 81.890625 54.453125 
Q 79.703125 53.40625 77.25 50.796875 
Q 74.796875 48.203125 74.5 48.203125 
Q 74.203125 48.203125 74.203125 48.59375 
Q 74.203125 49 74.59375 50.296875 
Q 76 54.296875 77 60.40625 
L 22.203125 60.40625 
Q 22.5 59 22.5 57.59375 
Q 22.5 52.796875 19.703125 50.1875 
Q 16.90625 47.59375 13.296875 47.59375 
Q 9.703125 47.59375 8 49.390625 
Q 6.296875 51.203125 6.296875 53.59375 
Q 6.296875 56.5 9.796875 58.296875 
Q 13.296875 60.09375 14.6875 61.796875 
Q 16.09375 63.5 16.09375 65.34375 
Q 16.09375 67.203125 15.890625 68.34375 
Q 15.703125 69.5 15.703125 70 
Q 15.703125 70.5 16 70.5 
Q 16.59375 70.5 18.390625 68.453125 
Q 20.203125 66.40625 21.296875 63.703125 
z
M 30.5 33 
L 8.90625 33 
Q 6.40625 33 5.09375 32.40625 
L 3.40625 36.796875 
Q 5.40625 36.296875 8 36.296875 
L 32.09375 36.296875 
Q 38.296875 49.703125 41.40625 59.5 
Q 46.5 58.09375 50.390625 56.546875 
Q 54.296875 55 55.296875 54.34375 
Q 56.296875 53.703125 56.296875 53 
Q 56.296875 52.296875 54.640625 51.890625 
Q 53 51.5 52 49.5 
L 44.59375 36.296875 
L 76.09375 36.296875 
Q 78 39.296875 79.703125 41.640625 
Q 81.40625 44 81.90625 44.546875 
Q 82.40625 45.09375 83.09375 45.09375 
Q 84.59375 45.09375 90.59375 40.390625 
Q 96.59375 35.703125 96.59375 34.34375 
Q 96.59375 33 93.796875 33 
L 77.09375 33 
Q 75.703125 31.09375 74.09375 30.296875 
Q 69 18.796875 64.5 13.5 
Q 76 9.09375 80.84375 4.6875 
Q 85.703125 0.296875 85.703125 -3.90625 
Q 85.703125 -6.296875 83.75 -8.34375 
Q 81.796875 -10.40625 79.703125 -10.40625 
Q 76.5 -10.40625 72 -5.296875 
Q 66.203125 1.40625 57 6.296875 
Q 50.296875 1.09375 41.59375 -2.65625 
Q 32.90625 -6.40625 22.40625 -8.40625 
Q 11.90625 -10.40625 7.59375 -10.40625 
Q 6.296875 -10.40625 6.296875 -9.84375 
Q 6.296875 -9.296875 8.296875 -8.703125 
Q 36.296875 -0.90625 48 10.296875 
Q 36.703125 14.703125 21.59375 16.703125 
Q 27.796875 27.5 30.5 33 
z
M 60.5 33 
L 42.703125 33 
L 35 19.90625 
Q 44.296875 19.203125 53.703125 16.90625 
Q 58.5 23.5 60.5 33 
z
" id="STSongti-SC-Black-23433"/>
     <path d="M 23.59375 63.40625 
L 31.703125 63.40625 
Q 33.90625 67.796875 34.796875 69 
Q 35.703125 70.203125 36.40625 70.203125 
Q 38 70.203125 44.796875 63.09375 
L 44.796875 70.796875 
Q 44.796875 75.796875 44.59375 79.703125 
Q 50 78.296875 56.703125 75.296875 
L 72.203125 75.296875 
Q 74.703125 80.296875 75.140625 80.84375 
Q 75.59375 81.40625 76.390625 81.40625 
Q 77.203125 81.40625 81.5 78.796875 
Q 85.796875 76.203125 88.046875 74.34375 
Q 90.296875 72.5 90.296875 71.5 
Q 90.296875 70.203125 86.703125 69 
L 86.703125 48.90625 
Q 86.703125 44.296875 86.796875 42.5 
L 86.90625 39.203125 
Q 86.90625 38.40625 86.046875 37.953125 
Q 85.203125 37.5 82.203125 36.703125 
Q 85.09375 34.90625 88.9375 32.40625 
Q 92.796875 29.90625 93.34375 29.34375 
Q 93.90625 28.796875 93.90625 28.296875 
Q 93.90625 27.203125 91.296875 27.09375 
Q 86.09375 26.90625 72.5 20.40625 
Q 79.5 10.40625 96.296875 5.203125 
Q 97.40625 4.796875 97.40625 4.1875 
Q 97.40625 3.59375 95.046875 2.6875 
Q 92.703125 1.796875 89.84375 -0.796875 
Q 87 -3.40625 85.59375 -6.40625 
Q 84.90625 -7.796875 84 -7.796875 
Q 82.5 -7.796875 76.796875 -2.046875 
Q 71.09375 3.703125 68.203125 10 
Q 62.703125 5 56.75 -0.953125 
Q 50.796875 -6.90625 49.296875 -8.703125 
Q 47.796875 -10.5 47.1875 -10.5 
Q 46.59375 -10.5 45.9375 -9.546875 
Q 45.296875 -8.59375 42.84375 -3.296875 
Q 40.40625 2 40.40625 2.84375 
Q 40.40625 3.703125 41.796875 4.203125 
Q 44.796875 5.203125 44.796875 7 
L 44.796875 28 
Q 44.5 27.296875 42.703125 27.296875 
L 28.203125 27.296875 
L 28.203125 8.59375 
Q 35.796875 11.90625 41.90625 15.59375 
Q 42.796875 16.203125 43.25 16.203125 
Q 43.703125 16.203125 43.703125 15.75 
Q 43.703125 15.296875 42.796875 14.40625 
Q 32.09375 3.40625 21.90625 -9.796875 
Q 21.203125 -10.796875 20.546875 -10.796875 
Q 19.90625 -10.796875 18.796875 -9 
Q 17.703125 -7.203125 15.203125 -2.296875 
Q 12.703125 2.59375 12.703125 3.09375 
Q 12.703125 4 14.203125 4.640625 
Q 15.703125 5.296875 16.296875 6.1875 
Q 16.90625 7.09375 16.90625 9.09375 
L 16.90625 27.296875 
L 8.5 27.296875 
Q 6.5 27.296875 4.90625 26.203125 
L 2.296875 30.90625 
Q 4.703125 30.59375 7.296875 30.59375 
L 16.90625 30.59375 
L 16.90625 45.796875 
L 13 45.796875 
Q 12.203125 44.59375 7.84375 40.046875 
Q 3.5 35.5 2.5 35.5 
Q 2.203125 35.5 2.203125 35.796875 
Q 2.203125 36.40625 3.5 38.203125 
Q 8.5 45.40625 11.390625 55.546875 
Q 14.296875 65.703125 15.703125 82 
Q 19.796875 81.40625 25.34375 80.296875 
Q 30.90625 79.203125 31.75 78.75 
Q 32.59375 78.296875 32.59375 77.640625 
Q 32.59375 77 30.9375 76.34375 
Q 29.296875 75.703125 28.203125 73.296875 
z
M 74.203125 58.796875 
L 74.203125 72 
L 57.5 72 
Q 57.203125 71 55.703125 70.5 
L 55.703125 58.796875 
z
M 44.796875 60.09375 
L 21.90625 60.09375 
Q 18.296875 53.296875 15.5 49.09375 
L 28 49.09375 
Q 31.703125 55.40625 32.203125 55.90625 
Q 32.703125 56.40625 33.09375 56.40625 
Q 34 56.40625 38.75 52.453125 
Q 43.5 48.5 43.5 47.140625 
Q 43.5 45.796875 40.703125 45.796875 
L 30.5 45.796875 
Q 30.203125 44.5 28.203125 43.59375 
L 28.203125 30.59375 
L 29.703125 30.59375 
Q 33.5 36.703125 34 37.140625 
Q 34.5 37.59375 35 37.59375 
Q 36.203125 37.59375 40.390625 33.59375 
Q 44.59375 29.59375 44.796875 28.703125 
z
M 74.203125 41.703125 
L 74.203125 55.5 
L 55.703125 55.5 
L 55.703125 41.703125 
z
M 62.90625 38.40625 
L 55.703125 38.40625 
L 55.703125 7.40625 
L 67.40625 11.796875 
Q 63.5 21.5 62.90625 38.40625 
z
M 78.703125 36 
Q 76.40625 35.796875 75.203125 35.796875 
Q 74 35.796875 74.203125 38.40625 
L 65.5 38.40625 
Q 66.90625 29.703125 70.59375 23.296875 
Q 74.59375 28.59375 78.703125 36 
z
" id="STSongti-SC-Black-38134"/>
     <path d="M 29.296875 82.59375 
Q 34.703125 80 38.640625 77.640625 
Q 42.59375 75.296875 43.1875 74.640625 
Q 43.796875 74 43.796875 73.40625 
Q 43.796875 72.40625 42.203125 72.09375 
Q 39.203125 71.703125 35.09375 68.296875 
Q 29.40625 63.59375 19.046875 57.9375 
Q 8.703125 52.296875 7.203125 52.296875 
Q 6.796875 52.296875 6.796875 52.6875 
Q 6.796875 53.09375 8.09375 54.296875 
Q 17.203125 62.59375 21.546875 68.75 
Q 25.90625 74.90625 29.296875 82.59375 
z
M 74.796875 70.90625 
Q 76.796875 74.703125 78.390625 76.890625 
Q 80 79.09375 80.703125 79.09375 
Q 81.796875 79.09375 87.390625 74.34375 
Q 93 69.59375 93 68.59375 
Q 93 67.59375 91 67.59375 
L 54.90625 67.59375 
Q 52.90625 67.59375 51.296875 66.5 
L 48.703125 71.203125 
Q 51.09375 70.90625 53.703125 70.90625 
z
M 20.5 31.296875 
Q 15.59375 27.796875 10.84375 24.9375 
Q 6.09375 22.09375 5.59375 21.84375 
Q 5.09375 21.59375 4.84375 21.59375 
Q 4.59375 21.59375 4.59375 21.9375 
Q 4.59375 22.296875 5.59375 23.40625 
Q 16 35 21.25 43.25 
Q 26.5 51.5 30.796875 61.90625 
Q 34 60.703125 39.34375 57.203125 
Q 44.703125 53.703125 45 53.34375 
Q 45.296875 53 45.296875 52.390625 
Q 45.296875 51.796875 43.796875 51.296875 
Q 40.09375 50.203125 38.84375 48.390625 
Q 37.59375 46.59375 32.203125 41.09375 
Q 35 40.203125 35 39.25 
Q 35 38.296875 32.90625 37.296875 
L 32.90625 -6.796875 
Q 32.90625 -7.703125 32.40625 -8.25 
Q 31.90625 -8.796875 27.453125 -9.84375 
Q 23 -10.90625 20.796875 -10.90625 
Q 20.09375 -10.90625 20.09375 -9.90625 
L 20.40625 -0.5 
Q 20.5 3.90625 20.5 7.796875 
z
M 66.59375 43.296875 
L 45.59375 43.296875 
Q 43.59375 43.296875 42 42.203125 
L 39.40625 46.90625 
Q 41.796875 46.59375 44.40625 46.59375 
L 81.203125 46.59375 
Q 84.40625 51.796875 85.40625 53.140625 
Q 86.40625 54.5 87.09375 54.5 
Q 88.40625 54.5 93.84375 50 
Q 99.296875 45.5 99.296875 44.390625 
Q 99.296875 43.296875 97.296875 43.296875 
L 81.203125 43.296875 
Q 81.09375 42.40625 80.203125 41.203125 
L 80.203125 0.203125 
Q 80.203125 -4.703125 79.09375 -7 
Q 78 -9.296875 73.890625 -10.390625 
Q 69.796875 -11.5 62.703125 -11.5 
Q 61.203125 -11.5 60.140625 -10.640625 
Q 59.09375 -9.796875 59.09375 -8.59375 
Q 59.09375 -5.09375 57.1875 -3.4375 
Q 55.296875 -1.796875 50.90625 -0.90625 
Q 49.796875 -0.703125 49.796875 -0.203125 
Q 49.796875 0.296875 52.59375 0.296875 
Q 59.90625 0.296875 63.25 1.140625 
Q 66.59375 2 66.59375 4.203125 
z
" id="STSongti-SC-Black-34892"/>
     <path d="M 62.296875 58.203125 
L 78.703125 58.203125 
Q 80.09375 60.90625 81.84375 63.703125 
Q 83.59375 66.5 84 66.890625 
Q 84.40625 67.296875 84.796875 67.296875 
Q 85.90625 67.296875 91.203125 62.546875 
Q 96.5 57.796875 96.5 56.34375 
Q 96.5 54.90625 93.40625 54.90625 
L 78.703125 54.90625 
Q 86.90625 52.59375 88.15625 52 
Q 89.40625 51.40625 89.40625 50.5 
Q 89.40625 49.296875 87.5 49.09375 
Q 86.59375 49 86 47.796875 
Q 85.40625 46.59375 84.703125 44.09375 
Q 79.90625 27 73.203125 16.203125 
Q 82.703125 7.90625 97.5 2.296875 
Q 98.796875 1.796875 98.796875 1.4375 
Q 98.796875 1.09375 97.5 0.703125 
Q 91.5 -0.90625 85.40625 -8.90625 
Q 84.59375 -9.796875 84 -9.796875 
Q 83.40625 -9.796875 82.796875 -9.4375 
Q 82.203125 -9.09375 78.5 -5.84375 
Q 74.796875 -2.59375 71.640625 0.703125 
Q 68.5 4 65.90625 7.40625 
Q 57.703125 -1.203125 48 -6.296875 
Q 38.296875 -11.40625 36.5 -11.40625 
Q 35.703125 -11.40625 35.703125 -10.796875 
Q 35.703125 -10.203125 37.40625 -9.40625 
Q 44.5 -5.796875 50.796875 0.296875 
Q 57.09375 6.40625 61.40625 14.09375 
Q 54.296875 26.5 53.203125 43.59375 
Q 47.09375 35.703125 40 29.703125 
L 40 5 
Q 40 0.09375 40.09375 -1.796875 
L 40.203125 -5.40625 
Q 40.203125 -6.09375 39.75 -6.5 
Q 39.296875 -6.90625 37.4375 -7.703125 
Q 35.59375 -8.5 33.390625 -8.890625 
Q 31.203125 -9.296875 29.5 -9.296875 
Q 28.703125 -9.296875 28.703125 -7.796875 
L 28.703125 24.59375 
Q 16.796875 12.796875 14.34375 10.046875 
Q 11.90625 7.296875 11 7.296875 
Q 10.59375 7.296875 9.84375 8.84375 
Q 9.09375 10.40625 7.1875 15.15625 
Q 5.296875 19.90625 5.296875 20.40625 
Q 5.296875 20.90625 5.90625 21.296875 
Q 8 22.296875 8.59375 23 
Q 9.203125 23.703125 9.203125 25.09375 
L 9.203125 58.796875 
Q 9.203125 63.90625 8.90625 68.203125 
Q 17.40625 67.296875 20.203125 66.390625 
Q 23 65.5 23 64.546875 
Q 23 63.59375 20 62.40625 
L 20 24.296875 
Q 23.09375 25.296875 28.703125 27.296875 
L 28.703125 73.203125 
Q 28.703125 78.203125 28.5 82.09375 
Q 34.90625 81.59375 38.703125 80.84375 
Q 42.5 80.09375 42.5 78.9375 
Q 42.5 77.796875 40 76.90625 
L 40 32.203125 
Q 46.09375 41.796875 49.4375 53.390625 
Q 52.796875 65 54.703125 82.40625 
Q 59.703125 81.703125 64.953125 80.5 
Q 70.203125 79.296875 71.203125 78.796875 
Q 72.203125 78.296875 72.203125 77.703125 
Q 72.203125 76.796875 70.890625 76.140625 
Q 69.59375 75.5 68.890625 74.046875 
Q 68.203125 72.59375 66.703125 68.140625 
Q 65.203125 63.703125 62.296875 58.203125 
z
M 72.796875 54.90625 
L 60.5 54.90625 
Q 58.40625 50.90625 55 46.203125 
Q 58.09375 33.296875 65.90625 23.59375 
Q 71.5 37.796875 72.796875 54.90625 
z
" id="STSongti-SC-Black-25910"/>
     <path d="M 41.203125 69.59375 
Q 41.40625 73.59375 41.40625 75.890625 
Q 41.40625 78.203125 41.203125 81.09375 
Q 52.40625 80 54.59375 79.34375 
Q 56.796875 78.703125 56.796875 77.796875 
Q 56.796875 76.90625 54.640625 76.203125 
Q 52.5 75.5 47.703125 69.59375 
L 66.203125 69.59375 
Q 68.5 73.90625 69.296875 74.75 
Q 70.09375 75.59375 71.5 75.59375 
Q 72.90625 75.59375 78.40625 72 
Q 83.90625 68.40625 83.90625 66.5 
Q 83.90625 64.5 80 63.296875 
L 80 49.09375 
L 81 49.09375 
Q 84.703125 54.90625 85.390625 55.796875 
Q 86.09375 56.703125 86.796875 56.703125 
Q 88.296875 56.703125 93.1875 52.296875 
Q 98.09375 47.90625 98.09375 46.84375 
Q 98.09375 45.796875 96 45.796875 
L 80 45.796875 
L 80 33.296875 
Q 80 29.5 78.59375 27.546875 
Q 77.203125 25.59375 74.40625 24.5 
Q 77.5 23.203125 81 20.890625 
Q 84.5 18.59375 85.25 17.890625 
Q 86 17.203125 86 16.34375 
Q 86 15.5 82.5 13.796875 
L 82.5 -3.40625 
Q 86 2.59375 87.203125 2.59375 
Q 88.203125 2.59375 92.796875 -1.65625 
Q 97.40625 -5.90625 97.40625 -6.953125 
Q 97.40625 -8 95.296875 -8 
L 10 -8 
Q 8 -8 6.40625 -9.09375 
L 3.796875 -4.40625 
Q 6.203125 -4.703125 8.796875 -4.703125 
L 17.40625 -4.703125 
L 17.40625 14.40625 
Q 17.40625 20.296875 17.296875 22 
Q 14 20.59375 9.34375 19.5 
Q 4.703125 18.40625 4 18.40625 
Q 3.296875 18.40625 3.296875 18.703125 
Q 3.296875 19 4 19.40625 
Q 14.90625 25.796875 18.09375 31.84375 
Q 21.296875 37.90625 22 45.796875 
L 11.296875 45.796875 
Q 9.296875 45.796875 7.703125 44.703125 
L 5.09375 49.40625 
Q 7.5 49.09375 10.09375 49.09375 
L 22.296875 49.09375 
Q 22.59375 53.296875 22.59375 59 
Q 22.59375 64.703125 22.296875 73.59375 
Q 32.203125 71 35.59375 69.59375 
z
M 33.5 49.09375 
L 67.59375 49.09375 
L 67.59375 66.296875 
L 36.296875 66.296875 
Q 35.40625 65.90625 34.953125 65.25 
Q 34.5 64.59375 34.390625 61.59375 
Q 34.296875 58.59375 33.5 49.09375 
z
M 41.296875 64.703125 
Q 45.40625 64.703125 51.84375 63 
Q 58.296875 61.296875 58.296875 55.703125 
Q 58.296875 52.796875 56.4375 51.34375 
Q 54.59375 49.90625 51.59375 49.90625 
Q 48.59375 49.90625 48.203125 54 
Q 48 56.5 45.953125 59.203125 
Q 43.90625 61.90625 40.90625 63.40625 
Q 40.09375 63.90625 40.09375 64.296875 
Q 40.09375 64.703125 41.296875 64.703125 
z
M 67.59375 45.796875 
L 33 45.796875 
Q 31.5 36.203125 28.890625 31.390625 
Q 26.296875 26.59375 21.296875 23.796875 
Q 25.203125 22.90625 29 21.09375 
L 70.09375 21.09375 
L 71.796875 23.703125 
Q 70 23 68.09375 23 
Q 66.203125 23 64.890625 23.796875 
Q 63.59375 24.59375 63.59375 26.296875 
Q 63.59375 28 61.9375 29.796875 
Q 60.296875 31.59375 58.296875 32.140625 
Q 56.296875 32.703125 56.296875 32.890625 
Q 56.296875 33.09375 59.4375 33.09375 
Q 62.59375 33.09375 64.546875 33.4375 
Q 66.5 33.796875 67.046875 34.640625 
Q 67.59375 35.5 67.59375 37.59375 
z
M 38.59375 45.203125 
Q 45.5 45.203125 50.59375 42.75 
Q 55.703125 40.296875 55.703125 36.40625 
Q 55.703125 33.796875 53.703125 31.75 
Q 51.703125 29.703125 49.34375 29.703125 
Q 47 29.703125 45.953125 30.890625 
Q 44.90625 32.09375 44.453125 35.25 
Q 44 38.40625 42.59375 40.453125 
Q 41.203125 42.5 38.296875 44 
Q 37.40625 44.5 37.40625 44.84375 
Q 37.40625 45.203125 38.59375 45.203125 
z
M 53.40625 17.796875 
L 47.09375 17.796875 
Q 47 17.203125 45.90625 16.703125 
L 45.90625 -4.703125 
L 53.40625 -4.703125 
z
M 70.796875 -4.703125 
L 70.796875 17.796875 
L 64.59375 17.796875 
Q 64.5 17.09375 63.296875 16.40625 
L 63.296875 -4.703125 
z
M 29.296875 17.796875 
Q 29.09375 17.09375 28 16.40625 
L 28 -4.703125 
L 36 -4.703125 
L 36 17.796875 
z
" id="STSongti-SC-Black-30424"/>
     <path d="M 30 39.40625 
Q 39.796875 47 46.59375 58.59375 
Q 53.40625 70.203125 55.5 83 
Q 63.5 81.09375 67.5 79.890625 
Q 71.5 78.703125 72.046875 78.25 
Q 72.59375 77.796875 72.59375 77.296875 
Q 72.59375 76.296875 71.25 76 
Q 69.90625 75.703125 68.703125 74.203125 
Q 77 56 99.203125 48.203125 
Q 100.296875 47.796875 100.296875 47.390625 
Q 100.296875 47 99.40625 46.59375 
Q 97.09375 45.703125 94.640625 42.640625 
Q 92.203125 39.59375 91.5 36.796875 
Q 91.203125 35.296875 90.09375 35.296875 
Q 89.296875 35.296875 87.4375 37 
Q 85.59375 38.703125 81.796875 42.5 
Q 81.5 42.09375 80.09375 41.203125 
L 80.09375 3.796875 
Q 80.09375 -1 80.203125 -3 
L 80.296875 -6.59375 
Q 80.296875 -8 77.5 -9.09375 
Q 74.703125 -10.203125 70 -10.203125 
Q 67.59375 -10.203125 67.59375 -8.40625 
L 67.59375 37.5 
Q 67.59375 42.5 67.40625 46.40625 
Q 76.90625 45.5 79.703125 44.59375 
Q 74 50.90625 71.25 56.953125 
Q 68.5 63 67.296875 71.796875 
Q 59.09375 55.40625 47.703125 46.796875 
Q 57.296875 45.40625 59.1875 44.75 
Q 61.09375 44.09375 61.09375 43.25 
Q 61.09375 42.40625 60 41.84375 
Q 58.90625 41.296875 58.59375 40.296875 
Q 58.296875 39.296875 58.296875 37 
Q 58.09375 16.09375 53.4375 6.59375 
Q 48.796875 -2.90625 40.390625 -7.15625 
Q 32 -11.40625 29.90625 -11.40625 
Q 29.203125 -11.40625 29.203125 -10.90625 
Q 29.203125 -10.40625 31.09375 -9.296875 
Q 37.59375 -5.703125 40.6875 -0.890625 
Q 43.796875 3.90625 45.09375 13.25 
Q 46.40625 22.59375 46.40625 29.296875 
Q 46.40625 36 46.09375 45.5 
Q 39.09375 40.5 30 36.796875 
L 30 -5.703125 
Q 30 -6.90625 29.390625 -7.703125 
Q 28.796875 -8.5 26.1875 -9.296875 
Q 23.59375 -10.09375 20.890625 -10.09375 
Q 18.203125 -10.09375 18.203125 -8.5 
L 18.40625 -3.296875 
Q 18.703125 2 18.703125 8.09375 
L 18.703125 40.703125 
Q 13.90625 34.59375 9.703125 30.84375 
Q 5.5 27.09375 4.5 27.09375 
Q 4.203125 27.09375 4.203125 27.5 
Q 4.203125 27.90625 5.09375 29.09375 
Q 19.796875 48.296875 23.796875 82.5 
Q 29.5 81.40625 33.84375 80.046875 
Q 38.203125 78.703125 39.59375 78 
Q 41 77.296875 41 76.296875 
Q 41 75.296875 39.546875 74.9375 
Q 38.09375 74.59375 37.5 73.890625 
Q 36.90625 73.203125 36.203125 71.5 
Q 33.203125 63.40625 27.59375 54 
Q 32.5 53.203125 32.5 51.640625 
Q 32.5 50.09375 30 49.296875 
z
" id="STSongti-SC-Black-20215"/>
     <path d="M 43.703125 60.90625 
L 17.90625 60.90625 
Q 15.90625 60.90625 14.296875 59.796875 
L 11.703125 64.5 
Q 14.09375 64.203125 16.703125 64.203125 
L 43.703125 64.203125 
L 43.703125 72.703125 
Q 43.703125 77.703125 43.5 81.59375 
Q 54.59375 81.296875 56.9375 80.6875 
Q 59.296875 80.09375 59.296875 79.046875 
Q 59.296875 78 57 76.796875 
L 57 64.203125 
L 70.09375 64.203125 
Q 74.703125 72.796875 76.09375 72.796875 
Q 77.296875 72.796875 83.25 68.046875 
Q 89.203125 63.296875 89.203125 62.09375 
Q 89.203125 60.90625 87.5 60.90625 
L 57 60.90625 
L 57 44.59375 
L 79.5 44.59375 
Q 80.40625 46.40625 82.34375 49.40625 
Q 84.296875 52.40625 84.6875 52.703125 
Q 85.09375 53 85.5 53 
Q 86.703125 53 92.203125 48.25 
Q 97.703125 43.5 97.703125 42.390625 
Q 97.703125 41.296875 96 41.296875 
L 52.59375 41.296875 
Q 57.40625 40.40625 58.59375 39.84375 
Q 59.796875 39.296875 59.796875 38.546875 
Q 59.796875 37.796875 57.296875 36.40625 
L 57.296875 26.796875 
L 68.90625 26.796875 
Q 72.796875 33.296875 73.5 34.09375 
Q 74.203125 34.90625 74.796875 34.90625 
Q 75.90625 34.90625 81.34375 30.25 
Q 86.796875 25.59375 86.796875 24.546875 
Q 86.796875 23.5 84.90625 23.5 
L 57.296875 23.5 
L 57.296875 3.40625 
Q 61.703125 3 68.203125 3 
Q 74.703125 3 82.90625 3.296875 
L 96.90625 4 
Q 98 4 98 3.703125 
Q 98 3.296875 95.59375 2.1875 
Q 93.203125 1.09375 91.75 -0.40625 
Q 90.296875 -1.90625 88.90625 -7.59375 
Q 88.59375 -9.09375 85.59375 -9.09375 
Q 71.09375 -9.09375 61.796875 -8.4375 
Q 52.5 -7.796875 49 -6.796875 
Q 45.5 -5.796875 41.09375 -2.890625 
Q 36.703125 0 34.046875 3.953125 
Q 31.40625 7.90625 29.90625 14.296875 
Q 26.40625 6.703125 21.796875 1.75 
Q 17.203125 -3.203125 11.203125 -6.75 
Q 5.203125 -10.296875 4.296875 -10.296875 
Q 4.09375 -10.296875 4.09375 -10 
Q 4.09375 -9.703125 5.09375 -8.90625 
Q 13.40625 -1.796875 17.25 8.5 
Q 21.09375 18.796875 21.90625 35 
Q 28.203125 33.796875 32.640625 32.640625 
Q 37.09375 31.5 37.6875 31.140625 
Q 38.296875 30.796875 38.296875 30.140625 
Q 38.296875 29.5 36.90625 28.90625 
Q 34.90625 28.09375 34.296875 25.9375 
Q 33.703125 23.796875 31.5 18 
Q 36.703125 8.796875 44.203125 6 
L 44.203125 33.59375 
L 44.09375 41.296875 
L 10.5 41.296875 
Q 8.5 41.296875 6.90625 40.203125 
L 4.296875 44.90625 
Q 6.703125 44.59375 9.296875 44.59375 
L 43.703125 44.59375 
z
" id="STSongti-SC-Black-36208"/>
     <path d="M 22.5 63.09375 
L 11.09375 63.09375 
Q 8.703125 63.09375 6.796875 62.5 
L 5.09375 66.796875 
Q 7.40625 66.40625 10.09375 66.40625 
L 22.5 66.40625 
Q 22.5 76.796875 22.09375 82.203125 
Q 29 81.796875 32.203125 81.09375 
Q 35.40625 80.40625 35.40625 79.5 
Q 35.40625 78.59375 33.703125 77.59375 
L 33.703125 66.40625 
L 34.90625 66.40625 
Q 37.90625 71.203125 38.453125 71.796875 
Q 39 72.40625 39.5 72.40625 
Q 40.796875 72.40625 47.59375 65.90625 
L 52.796875 66.203125 
Q 53 69.703125 52.953125 73.640625 
Q 52.90625 77.59375 52.796875 82 
Q 64.40625 80.90625 66.25 80.34375 
Q 68.09375 79.796875 68.09375 78.75 
Q 68.09375 77.703125 66.5 77.09375 
Q 66 76.90625 65.59375 75.796875 
Q 65.203125 74.703125 64.90625 72.296875 
L 64.296875 67 
L 70.59375 67.40625 
Q 72.5 70.796875 73.296875 71.796875 
Q 74.09375 72.796875 75.296875 72.796875 
Q 76.5 72.796875 79.703125 70.5 
L 85.203125 66.796875 
Q 87.40625 65.296875 87.40625 64.09375 
Q 87.40625 62.296875 83.09375 61.40625 
Q 82.296875 56 82.296875 50.640625 
Q 82.296875 45.296875 83.796875 41.75 
Q 85.296875 38.203125 87.046875 38.203125 
Q 88.796875 38.203125 90.546875 41.5 
Q 92.296875 44.796875 94.59375 50.703125 
Q 95.09375 52.09375 95.5 52.09375 
Q 95.90625 52.09375 95.703125 50.5 
Q 94.796875 44.59375 94.796875 40.09375 
Q 94.796875 35.59375 97.09375 32.59375 
Q 98.40625 30.90625 98.40625 29.046875 
Q 98.40625 27.203125 96.5 25.890625 
Q 94.59375 24.59375 91.5 24.59375 
Q 83.703125 24.59375 77.25 31.546875 
Q 70.796875 38.5 70.796875 54.203125 
Q 70.796875 58.203125 71.40625 64.09375 
L 63.796875 63.59375 
Q 62.59375 55.59375 60.40625 50.09375 
Q 65.296875 48.09375 67.546875 44.9375 
Q 69.796875 41.796875 69.796875 38.9375 
Q 69.796875 36.09375 68.140625 34.34375 
Q 66.5 32.59375 64 32.59375 
Q 61.5 32.59375 60.453125 33.640625 
Q 59.40625 34.703125 58.40625 37.09375 
Q 57.40625 39.5 55.703125 41.703125 
Q 50.703125 35.5 40.90625 30.796875 
Q 48.09375 29.796875 49.796875 29.390625 
Q 51.5 29 51.5 28.046875 
Q 51.5 27.09375 50.296875 26.5 
Q 49.703125 26.09375 48.5 22.5 
L 64.703125 22.5 
Q 67 26.40625 67.546875 27.15625 
Q 68.09375 27.90625 68.703125 27.90625 
Q 69.796875 27.90625 74.390625 25.40625 
Q 79 22.90625 80.84375 21.84375 
Q 82.703125 20.796875 82.703125 19.640625 
Q 82.703125 18.5 79.203125 17.40625 
Q 78.5 8.5 77.703125 3.75 
Q 76.90625 -1 75.953125 -3.046875 
Q 75 -5.09375 73.203125 -6.59375 
Q 71.40625 -8.09375 68.34375 -8.9375 
Q 65.296875 -9.796875 63.09375 -9.796875 
Q 60.90625 -9.796875 60.296875 -9.25 
Q 59.703125 -8.703125 59.40625 -7 
Q 58.703125 -3.59375 56.640625 -2.09375 
Q 54.59375 -0.59375 51.84375 0.046875 
Q 49.09375 0.703125 49.09375 1.140625 
Q 49.09375 1.59375 52.203125 1.59375 
Q 61.90625 1.59375 63.84375 3.34375 
Q 65.796875 5.09375 66.59375 19.203125 
L 47.5 19.203125 
Q 45.296875 11.703125 43.09375 7.953125 
Q 40.90625 4.203125 37.40625 0.953125 
Q 33.90625 -2.296875 28.90625 -4.890625 
Q 23.90625 -7.5 16.90625 -9.390625 
Q 9.90625 -11.296875 6.203125 -11.296875 
Q 5.296875 -11.296875 5.296875 -10.890625 
Q 5.296875 -10.5 6.703125 -10.09375 
Q 16.796875 -7.203125 22.25 -2.34375 
Q 27.703125 2.5 30.546875 6.390625 
Q 33.40625 10.296875 34.796875 19.203125 
L 17.40625 19.203125 
Q 15.40625 19.203125 13.796875 18.09375 
L 11.203125 22.796875 
Q 13.59375 22.5 16.203125 22.5 
L 35.296875 22.5 
Q 35.703125 26.203125 35.796875 28.5 
Q 28.59375 25.703125 28.140625 25.703125 
Q 27.703125 25.703125 27.703125 26.046875 
Q 27.703125 26.40625 28.203125 26.703125 
Q 37.203125 31.09375 42.34375 36.09375 
Q 47.5 41.09375 49.796875 47.59375 
Q 46.09375 50.40625 40.703125 52.5 
Q 39.5 52.90625 39.09375 53.59375 
L 33.703125 51.296875 
L 33.703125 37.296875 
Q 33.703125 34.296875 33 32.390625 
Q 32.296875 30.5 30.5 29.25 
Q 28.703125 28 25.34375 27.140625 
Q 22 26.296875 20.390625 26.296875 
Q 18.796875 26.296875 18.5 28.59375 
Q 18.09375 31.09375 16.4375 32.296875 
Q 14.796875 33.5 10 34.59375 
Q 8.90625 34.796875 8.90625 35.1875 
Q 8.90625 35.59375 10.203125 35.703125 
Q 16.296875 35.90625 18.75 36.34375 
Q 21.203125 36.796875 21.84375 37.6875 
Q 22.5 38.59375 22.5 40.90625 
L 22.5 46.5 
Q 10 40.796875 9.390625 40.796875 
Q 8.796875 40.796875 8.4375 41.390625 
Q 8.09375 42 7 44.546875 
Q 5.90625 47.09375 4.296875 52 
Q 13.90625 52.90625 22.5 54.09375 
z
M 45.203125 63.09375 
L 33.703125 63.09375 
L 33.703125 55.703125 
L 46.59375 57.59375 
Q 47.296875 57.59375 47.296875 57.296875 
Q 47.296875 57 45.84375 56.453125 
Q 44.40625 55.90625 41.296875 54.5 
Q 46.90625 53.703125 51.296875 52.796875 
Q 52.296875 58 52.59375 62.796875 
L 49.703125 62.59375 
Q 47.40625 62.40625 46.09375 61.5 
z
" id="STSongti-SC-Black-21183"/>
     <path d="M 22.09375 77 
L 76.203125 77 
Q 76.90625 78.203125 78.796875 80.796875 
Q 80.703125 83.40625 81.09375 83.65625 
Q 81.5 83.90625 81.90625 83.90625 
Q 83.09375 83.90625 89.4375 79.046875 
Q 95.796875 74.203125 95.796875 73.296875 
Q 95.796875 72.40625 94.75 71.84375 
Q 93.703125 71.296875 91.203125 70.40625 
L 91.203125 4.703125 
Q 91.203125 0 91.296875 -1.90625 
L 91.40625 -5.40625 
Q 91.40625 -6.59375 90.40625 -7.34375 
Q 89.40625 -8.09375 86.5 -8.796875 
Q 83.59375 -9.5 81.296875 -9.5 
Q 79 -9.5 78.546875 -8.953125 
Q 78.09375 -8.40625 78.09375 -6.796875 
L 78.09375 -3.296875 
L 22.703125 -3.296875 
L 22.703125 -5.90625 
Q 22.703125 -6.796875 21.890625 -7.75 
Q 21.09375 -8.703125 17.796875 -9.453125 
Q 14.5 -10.203125 12.390625 -10.203125 
Q 10.296875 -10.203125 10.046875 -9.890625 
Q 9.796875 -9.59375 9.796875 -8.890625 
Q 9.796875 -8.203125 10 -4.09375 
Q 10.203125 0 10.203125 5.40625 
L 10.203125 72.09375 
Q 10.203125 77.09375 10 81 
Q 16.296875 79.703125 22.09375 77 
z
M 39.296875 56.796875 
Q 35.796875 53.40625 30.296875 49.203125 
Q 24.796875 45 23.90625 45 
Q 23.59375 45 23.59375 45.296875 
Q 23.59375 45.703125 24.703125 47.09375 
Q 29.703125 53.703125 32.296875 59.59375 
Q 34.90625 65.5 36.703125 73.703125 
L 24.296875 73.703125 
Q 24.296875 72.5 22.703125 71.90625 
L 22.703125 29.59375 
Q 37 36 45.796875 43.90625 
Q 40.796875 49.40625 39.296875 56.796875 
z
M 45.203125 73.703125 
Q 51.09375 72.09375 51.796875 71.640625 
Q 52.5 71.203125 52.5 70.546875 
Q 52.5 69.90625 50.953125 69.40625 
Q 49.40625 68.90625 45.40625 63.796875 
L 58.296875 63.796875 
Q 61.90625 69.203125 63.09375 69.203125 
Q 63.796875 69.203125 69.09375 66.25 
Q 74.40625 63.296875 75.59375 62.34375 
Q 76.796875 61.40625 76.796875 60.5 
Q 76.796875 59.59375 74.59375 59.40625 
Q 73.5 59.296875 71.640625 57.59375 
Q 69.796875 55.90625 66 51.796875 
Q 62.203125 47.703125 59.296875 45.296875 
Q 67 42.703125 78.09375 41.09375 
L 78.09375 73.703125 
z
M 42.796875 60.5 
Q 42.296875 59.90625 41.203125 58.796875 
Q 45.40625 52.59375 51 49.09375 
Q 55.703125 54.5 58.296875 60.5 
z
M 51 39.296875 
Q 46.703125 36.796875 43.40625 35.203125 
Q 54.296875 34.796875 57.6875 32.140625 
Q 61.09375 29.5 61.09375 25.796875 
Q 61.09375 23.40625 58.9375 21.5 
Q 56.796875 19.59375 54.140625 19.59375 
Q 51.5 19.59375 49.953125 21.140625 
Q 48.40625 22.703125 48.40625 25.140625 
Q 48.40625 27.59375 47.296875 30.046875 
Q 46.203125 32.5 44.203125 33.203125 
Q 42.203125 33.90625 41.59375 34.296875 
Q 32.90625 30.40625 22.703125 27.90625 
L 22.703125 0 
L 78.09375 0 
L 78.09375 38.796875 
Q 74.296875 36.5 72 30 
Q 71.59375 28.796875 70.40625 28.796875 
Q 69 28.796875 60.75 33.34375 
Q 52.5 37.90625 51 39.296875 
z
M 45.90625 17.5 
Q 67.90625 17.5 67.90625 6.296875 
Q 67.90625 3.5 65.84375 1.953125 
Q 63.796875 0.40625 61.34375 0.40625 
Q 58.90625 0.40625 53.796875 5.90625 
Q 46 14.296875 32.203125 15.296875 
Q 30.296875 15.40625 30.296875 15.796875 
Q 30.296875 16.5 36.046875 17 
Q 41.796875 17.5 45.90625 17.5 
z
" id="STSongti-SC-Black-22270"/>
    </defs>
    <g transform="translate(136.16 35.472)scale(0.2 -0.2)">
     <use xlink:href="#STSongti-SC-Black-24179"/>
     <use x="99.999985" xlink:href="#STSongti-SC-Black-23433"/>
     <use x="199.999969" xlink:href="#STSongti-SC-Black-38134"/>
     <use x="299.999954" xlink:href="#STSongti-SC-Black-34892"/>
     <use x="399.999939" xlink:href="#STSongti-SC-Black-25910"/>
     <use x="499.999924" xlink:href="#STSongti-SC-Black-30424"/>
     <use x="599.999908" xlink:href="#STSongti-SC-Black-20215"/>
     <use x="699.999893" xlink:href="#STSongti-SC-Black-36208"/>
     <use x="799.999878" xlink:href="#STSongti-SC-Black-21183"/>
     <use x="899.999863" xlink:href="#STSongti-SC-Black-22270"/>
    </g>
   </g>
  </g>
 </g>
 <defs>
  <clipPath id="p728a68a425">
   <rect height="266.112" width="357.12" x="57.6" y="41.472"/>
  </clipPath>
 </defs>
</svg>
