<?xml version="1.0" encoding="utf-8" standalone="no"?>
<!DOCTYPE svg PUBLIC "-//W3C//DTD SVG 1.1//EN"
  "http://www.w3.org/Graphics/SVG/1.1/DTD/svg11.dtd">
<!-- Created with matplotlib (https://matplotlib.org/) -->
<svg height="345.6pt" version="1.1" viewBox="0 0 460.8 345.6" width="460.8pt" xmlns="http://www.w3.org/2000/svg" xmlns:xlink="http://www.w3.org/1999/xlink">
 <defs>
  <style type="text/css">
*{stroke-linecap:butt;stroke-linejoin:round;}
  </style>
 </defs>
 <g id="figure_1">
  <g id="patch_1">
   <path d="M 0 345.6 
L 460.8 345.6 
L 460.8 0 
L 0 0 
z
" style="fill:#ffffff;"/>
  </g>
  <g id="axes_1">
   <g id="patch_2">
    <path d="M 57.6 307.584 
L 414.72 307.584 
L 414.72 41.472 
L 57.6 41.472 
z
" style="fill:#ffffff;"/>
   </g>
   <g id="patch_3">
    <path clip-path="url(#p6671efaba7)" d="M 150.503613 307.584 
L 156.206875 307.584 
L 156.206875 295.796093 
L 150.503613 295.796093 
z
" style="fill:#1f77b4;"/>
   </g>
   <g id="patch_4">
    <path clip-path="url(#p6671efaba7)" d="M 156.206875 307.584 
L 161.910138 307.584 
L 161.910138 305.226419 
L 156.206875 305.226419 
z
" style="fill:#1f77b4;"/>
   </g>
   <g id="patch_5">
    <path clip-path="url(#p6671efaba7)" d="M 161.910138 307.584 
L 167.6134 307.584 
L 167.6134 304.047628 
L 161.910138 304.047628 
z
" style="fill:#1f77b4;"/>
   </g>
   <g id="patch_6">
    <path clip-path="url(#p6671efaba7)" d="M 167.6134 307.584 
L 173.316663 307.584 
L 173.316663 303.261767 
L 167.6134 303.261767 
z
" style="fill:#1f77b4;"/>
   </g>
   <g id="patch_7">
    <path clip-path="url(#p6671efaba7)" d="M 173.316663 307.584 
L 179.019925 307.584 
L 179.019925 301.297116 
L 173.316663 301.297116 
z
" style="fill:#1f77b4;"/>
   </g>
   <g id="patch_8">
    <path clip-path="url(#p6671efaba7)" d="M 179.019925 307.584 
L 184.723187 307.584 
L 184.723187 298.153674 
L 179.019925 298.153674 
z
" style="fill:#1f77b4;"/>
   </g>
   <g id="patch_9">
    <path clip-path="url(#p6671efaba7)" d="M 184.723187 307.584 
L 190.42645 307.584 
L 190.42645 293.438512 
L 184.723187 293.438512 
z
" style="fill:#1f77b4;"/>
   </g>
   <g id="patch_10">
    <path clip-path="url(#p6671efaba7)" d="M 190.42645 307.584 
L 196.129712 307.584 
L 196.129712 286.758698 
L 190.42645 286.758698 
z
" style="fill:#1f77b4;"/>
   </g>
   <g id="patch_11">
    <path clip-path="url(#p6671efaba7)" d="M 196.129712 307.584 
L 201.832974 307.584 
L 201.832974 281.650605 
L 196.129712 281.650605 
z
" style="fill:#1f77b4;"/>
   </g>
   <g id="patch_12">
    <path clip-path="url(#p6671efaba7)" d="M 201.832974 307.584 
L 207.536237 307.584 
L 207.536237 276.935442 
L 201.832974 276.935442 
z
" style="fill:#1f77b4;"/>
   </g>
   <g id="patch_13">
    <path clip-path="url(#p6671efaba7)" d="M 207.536237 307.584 
L 213.239499 307.584 
L 213.239499 255.324279 
L 207.536237 255.324279 
z
" style="fill:#1f77b4;"/>
   </g>
   <g id="patch_14">
    <path clip-path="url(#p6671efaba7)" d="M 213.239499 307.584 
L 218.942762 307.584 
L 218.942762 244.715163 
L 213.239499 244.715163 
z
" style="fill:#1f77b4;"/>
   </g>
   <g id="patch_15">
    <path clip-path="url(#p6671efaba7)" d="M 218.942762 307.584 
L 224.646024 307.584 
L 224.646024 198.742326 
L 218.942762 198.742326 
z
" style="fill:#1f77b4;"/>
   </g>
   <g id="patch_16">
    <path clip-path="url(#p6671efaba7)" d="M 224.646024 307.584 
L 230.349286 307.584 
L 230.349286 141.767442 
L 224.646024 141.767442 
z
" style="fill:#1f77b4;"/>
   </g>
   <g id="patch_17">
    <path clip-path="url(#p6671efaba7)" d="M 230.349286 307.584 
L 236.052549 307.584 
L 236.052549 67.110698 
L 230.349286 67.110698 
z
" style="fill:#1f77b4;"/>
   </g>
   <g id="patch_18">
    <path clip-path="url(#p6671efaba7)" d="M 236.052549 307.584 
L 241.755811 307.584 
L 241.755811 54.144 
L 236.052549 54.144 
z
" style="fill:#1f77b4;"/>
   </g>
   <g id="patch_19">
    <path clip-path="url(#p6671efaba7)" d="M 241.755811 307.584 
L 247.459074 307.584 
L 247.459074 127.621953 
L 241.755811 127.621953 
z
" style="fill:#1f77b4;"/>
   </g>
   <g id="patch_20">
    <path clip-path="url(#p6671efaba7)" d="M 247.459074 307.584 
L 253.162336 307.584 
L 253.162336 183.418047 
L 247.459074 183.418047 
z
" style="fill:#1f77b4;"/>
   </g>
   <g id="patch_21">
    <path clip-path="url(#p6671efaba7)" d="M 253.162336 307.584 
L 258.865598 307.584 
L 258.865598 211.316093 
L 253.162336 211.316093 
z
" style="fill:#1f77b4;"/>
   </g>
   <g id="patch_22">
    <path clip-path="url(#p6671efaba7)" d="M 258.865598 307.584 
L 264.568861 307.584 
L 264.568861 251.787907 
L 258.865598 251.787907 
z
" style="fill:#1f77b4;"/>
   </g>
   <g id="patch_23">
    <path clip-path="url(#p6671efaba7)" d="M 264.568861 307.584 
L 270.272123 307.584 
L 270.272123 279.293023 
L 264.568861 279.293023 
z
" style="fill:#1f77b4;"/>
   </g>
   <g id="patch_24">
    <path clip-path="url(#p6671efaba7)" d="M 270.272123 307.584 
L 275.975386 307.584 
L 275.975386 286.758698 
L 270.272123 286.758698 
z
" style="fill:#1f77b4;"/>
   </g>
   <g id="patch_25">
    <path clip-path="url(#p6671efaba7)" d="M 275.975386 307.584 
L 281.678648 307.584 
L 281.678648 292.652651 
L 275.975386 292.652651 
z
" style="fill:#1f77b4;"/>
   </g>
   <g id="patch_26">
    <path clip-path="url(#p6671efaba7)" d="M 281.678648 307.584 
L 287.38191 307.584 
L 287.38191 296.189023 
L 281.678648 296.189023 
z
" style="fill:#1f77b4;"/>
   </g>
   <g id="patch_27">
    <path clip-path="url(#p6671efaba7)" d="M 287.38191 307.584 
L 293.085173 307.584 
L 293.085173 303.261767 
L 287.38191 303.261767 
z
" style="fill:#1f77b4;"/>
   </g>
   <g id="patch_28">
    <path clip-path="url(#p6671efaba7)" d="M 293.085173 307.584 
L 298.788435 307.584 
L 298.788435 302.475907 
L 293.085173 302.475907 
z
" style="fill:#1f77b4;"/>
   </g>
   <g id="patch_29">
    <path clip-path="url(#p6671efaba7)" d="M 298.788435 307.584 
L 304.491697 307.584 
L 304.491697 304.440558 
L 298.788435 304.440558 
z
" style="fill:#1f77b4;"/>
   </g>
   <g id="patch_30">
    <path clip-path="url(#p6671efaba7)" d="M 304.491697 307.584 
L 310.19496 307.584 
L 310.19496 305.226419 
L 304.491697 305.226419 
z
" style="fill:#1f77b4;"/>
   </g>
   <g id="patch_31">
    <path clip-path="url(#p6671efaba7)" d="M 310.19496 307.584 
L 315.898222 307.584 
L 315.898222 305.619349 
L 310.19496 305.619349 
z
" style="fill:#1f77b4;"/>
   </g>
   <g id="patch_32">
    <path clip-path="url(#p6671efaba7)" d="M 315.898222 307.584 
L 321.601485 307.584 
L 321.601485 306.012279 
L 315.898222 306.012279 
z
" style="fill:#1f77b4;"/>
   </g>
   <g id="patch_33">
    <path clip-path="url(#p6671efaba7)" d="M 321.601485 307.584 
L 327.304747 307.584 
L 327.304747 306.79814 
L 321.601485 306.79814 
z
" style="fill:#1f77b4;"/>
   </g>
   <g id="patch_34">
    <path clip-path="url(#p6671efaba7)" d="M 327.304747 307.584 
L 333.008009 307.584 
L 333.008009 302.082977 
L 327.304747 302.082977 
z
" style="fill:#1f77b4;"/>
   </g>
   <g id="patch_35">
    <path clip-path="url(#p6671efaba7)" d="M 333.008009 307.584 
L 338.711272 307.584 
L 338.711272 307.584 
L 333.008009 307.584 
z
" style="fill:#1f77b4;"/>
   </g>
   <g id="patch_36">
    <path clip-path="url(#p6671efaba7)" d="M 338.711272 307.584 
L 344.414534 307.584 
L 344.414534 307.584 
L 338.711272 307.584 
z
" style="fill:#1f77b4;"/>
   </g>
   <g id="patch_37">
    <path clip-path="url(#p6671efaba7)" d="M 344.414534 307.584 
L 350.117797 307.584 
L 350.117797 307.584 
L 344.414534 307.584 
z
" style="fill:#1f77b4;"/>
   </g>
   <g id="patch_38">
    <path clip-path="url(#p6671efaba7)" d="M 350.117797 307.584 
L 355.821059 307.584 
L 355.821059 307.584 
L 350.117797 307.584 
z
" style="fill:#1f77b4;"/>
   </g>
   <g id="patch_39">
    <path clip-path="url(#p6671efaba7)" d="M 355.821059 307.584 
L 361.524321 307.584 
L 361.524321 307.584 
L 355.821059 307.584 
z
" style="fill:#1f77b4;"/>
   </g>
   <g id="patch_40">
    <path clip-path="url(#p6671efaba7)" d="M 361.524321 307.584 
L 367.227584 307.584 
L 367.227584 307.584 
L 361.524321 307.584 
z
" style="fill:#1f77b4;"/>
   </g>
   <g id="patch_41">
    <path clip-path="url(#p6671efaba7)" d="M 367.227584 307.584 
L 372.930846 307.584 
L 372.930846 307.584 
L 367.227584 307.584 
z
" style="fill:#1f77b4;"/>
   </g>
   <g id="patch_42">
    <path clip-path="url(#p6671efaba7)" d="M 372.930846 307.584 
L 378.634109 307.584 
L 378.634109 307.584 
L 372.930846 307.584 
z
" style="fill:#1f77b4;"/>
   </g>
   <g id="patch_43">
    <path clip-path="url(#p6671efaba7)" d="M 378.634109 307.584 
L 384.337371 307.584 
L 384.337371 307.584 
L 378.634109 307.584 
z
" style="fill:#1f77b4;"/>
   </g>
   <g id="patch_44">
    <path clip-path="url(#p6671efaba7)" d="M 384.337371 307.584 
L 390.040633 307.584 
L 390.040633 307.584 
L 384.337371 307.584 
z
" style="fill:#1f77b4;"/>
   </g>
   <g id="patch_45">
    <path clip-path="url(#p6671efaba7)" d="M 390.040633 307.584 
L 395.743896 307.584 
L 395.743896 307.584 
L 390.040633 307.584 
z
" style="fill:#1f77b4;"/>
   </g>
   <g id="patch_46">
    <path clip-path="url(#p6671efaba7)" d="M 395.743896 307.584 
L 401.447158 307.584 
L 401.447158 307.19107 
L 395.743896 307.19107 
z
" style="fill:#1f77b4;"/>
   </g>
   <g id="patch_47">
    <path clip-path="url(#p6671efaba7)" d="M 401.447158 307.584 
L 407.15042 307.584 
L 407.15042 307.584 
L 401.447158 307.584 
z
" style="fill:#1f77b4;"/>
   </g>
   <g id="patch_48">
    <path clip-path="url(#p6671efaba7)" d="M 407.15042 307.584 
L 412.853683 307.584 
L 412.853683 306.79814 
L 407.15042 306.79814 
z
" style="fill:#1f77b4;"/>
   </g>
   <g id="patch_49">
    <path clip-path="url(#p6671efaba7)" d="M 412.853683 307.584 
L 418.556945 307.584 
L 418.556945 307.584 
L 412.853683 307.584 
z
" style="fill:#1f77b4;"/>
   </g>
   <g id="patch_50">
    <path clip-path="url(#p6671efaba7)" d="M 418.556945 307.584 
L 424.260208 307.584 
L 424.260208 307.584 
L 418.556945 307.584 
z
" style="fill:#1f77b4;"/>
   </g>
   <g id="patch_51">
    <path clip-path="url(#p6671efaba7)" d="M 424.260208 307.584 
L 429.96347 307.584 
L 429.96347 307.584 
L 424.260208 307.584 
z
" style="fill:#1f77b4;"/>
   </g>
   <g id="patch_52">
    <path clip-path="url(#p6671efaba7)" d="M 429.96347 307.584 
L 435.666732 307.584 
L 435.666732 307.584 
L 429.96347 307.584 
z
" style="fill:#1f77b4;"/>
   </g>
   <g id="patch_53">
    <path clip-path="url(#p6671efaba7)" d="M 435.666732 307.584 
L 441.369995 307.584 
L 441.369995 307.584 
L 435.666732 307.584 
z
" style="fill:#1f77b4;"/>
   </g>
   <g id="patch_54">
    <path clip-path="url(#p6671efaba7)" d="M 441.369995 307.584 
L 447.073257 307.584 
L 447.073257 307.584 
L 441.369995 307.584 
z
" style="fill:#1f77b4;"/>
   </g>
   <g id="patch_55">
    <path clip-path="url(#p6671efaba7)" d="M 447.073257 307.584 
L 452.77652 307.584 
L 452.77652 307.584 
L 447.073257 307.584 
z
" style="fill:#1f77b4;"/>
   </g>
   <g id="patch_56">
    <path clip-path="url(#p6671efaba7)" d="M 452.77652 307.584 
L 458.479782 307.584 
L 458.479782 307.584 
L 452.77652 307.584 
z
" style="fill:#1f77b4;"/>
   </g>
   <g id="patch_57">
    <path clip-path="url(#p6671efaba7)" d="M 458.479782 307.584 
L 464.183044 307.584 
L 464.183044 307.584 
L 458.479782 307.584 
z
" style="fill:#1f77b4;"/>
   </g>
   <g id="patch_58">
    <path clip-path="url(#p6671efaba7)" d="M 464.183044 307.584 
L 469.886307 307.584 
L 469.886307 307.584 
L 464.183044 307.584 
z
" style="fill:#1f77b4;"/>
   </g>
   <g id="patch_59">
    <path clip-path="url(#p6671efaba7)" d="M 469.886307 307.584 
L 475.589569 307.584 
L 475.589569 307.584 
L 469.886307 307.584 
z
" style="fill:#1f77b4;"/>
   </g>
   <g id="patch_60">
    <path clip-path="url(#p6671efaba7)" d="M 475.589569 307.584 
L 481.292832 307.584 
L 481.292832 307.584 
L 475.589569 307.584 
z
" style="fill:#1f77b4;"/>
   </g>
   <g id="patch_61">
    <path clip-path="url(#p6671efaba7)" d="M 481.292832 307.584 
L 486.996094 307.584 
L 486.996094 307.584 
L 481.292832 307.584 
z
" style="fill:#1f77b4;"/>
   </g>
   <g id="patch_62">
    <path clip-path="url(#p6671efaba7)" d="M 486.996094 307.584 
L 492.699356 307.584 
L 492.699356 307.584 
L 486.996094 307.584 
z
" style="fill:#1f77b4;"/>
   </g>
   <g id="patch_63">
    <path clip-path="url(#p6671efaba7)" d="M 492.699356 307.584 
L 498.402619 307.584 
L 498.402619 307.584 
L 492.699356 307.584 
z
" style="fill:#1f77b4;"/>
   </g>
   <g id="patch_64">
    <path clip-path="url(#p6671efaba7)" d="M 498.402619 307.584 
L 504.105881 307.584 
L 504.105881 307.584 
L 498.402619 307.584 
z
" style="fill:#1f77b4;"/>
   </g>
   <g id="patch_65">
    <path clip-path="url(#p6671efaba7)" d="M 504.105881 307.584 
L 509.809144 307.584 
L 509.809144 307.19107 
L 504.105881 307.19107 
z
" style="fill:#1f77b4;"/>
   </g>
   <g id="patch_66">
    <path clip-path="url(#p6671efaba7)" d="M 509.809144 307.584 
L 515.512406 307.584 
L 515.512406 307.584 
L 509.809144 307.584 
z
" style="fill:#1f77b4;"/>
   </g>
   <g id="patch_67">
    <path clip-path="url(#p6671efaba7)" d="M 515.512406 307.584 
L 521.215668 307.584 
L 521.215668 307.584 
L 515.512406 307.584 
z
" style="fill:#1f77b4;"/>
   </g>
   <g id="patch_68">
    <path clip-path="url(#p6671efaba7)" d="M 521.215668 307.584 
L 526.918931 307.584 
L 526.918931 307.584 
L 521.215668 307.584 
z
" style="fill:#1f77b4;"/>
   </g>
   <g id="patch_69">
    <path clip-path="url(#p6671efaba7)" d="M 526.918931 307.584 
L 532.622193 307.584 
L 532.622193 307.584 
L 526.918931 307.584 
z
" style="fill:#1f77b4;"/>
   </g>
   <g id="patch_70">
    <path clip-path="url(#p6671efaba7)" d="M 532.622193 307.584 
L 538.325455 307.584 
L 538.325455 307.584 
L 532.622193 307.584 
z
" style="fill:#1f77b4;"/>
   </g>
   <g id="patch_71">
    <path clip-path="url(#p6671efaba7)" d="M 538.325455 307.584 
L 544.028718 307.584 
L 544.028718 307.584 
L 538.325455 307.584 
z
" style="fill:#1f77b4;"/>
   </g>
   <g id="patch_72">
    <path clip-path="url(#p6671efaba7)" d="M 544.028718 307.584 
L 549.73198 307.584 
L 549.73198 307.584 
L 544.028718 307.584 
z
" style="fill:#1f77b4;"/>
   </g>
   <g id="patch_73">
    <path clip-path="url(#p6671efaba7)" d="M 549.73198 307.584 
L 555.435243 307.584 
L 555.435243 307.584 
L 549.73198 307.584 
z
" style="fill:#1f77b4;"/>
   </g>
   <g id="patch_74">
    <path clip-path="url(#p6671efaba7)" d="M 555.435243 307.584 
L 561.138505 307.584 
L 561.138505 307.584 
L 555.435243 307.584 
z
" style="fill:#1f77b4;"/>
   </g>
   <g id="patch_75">
    <path clip-path="url(#p6671efaba7)" d="M 561.138505 307.584 
L 566.841767 307.584 
L 566.841767 307.584 
L 561.138505 307.584 
z
" style="fill:#1f77b4;"/>
   </g>
   <g id="patch_76">
    <path clip-path="url(#p6671efaba7)" d="M 566.841767 307.584 
L 572.54503 307.584 
L 572.54503 307.584 
L 566.841767 307.584 
z
" style="fill:#1f77b4;"/>
   </g>
   <g id="patch_77">
    <path clip-path="url(#p6671efaba7)" d="M 572.54503 307.584 
L 578.248292 307.584 
L 578.248292 307.584 
L 572.54503 307.584 
z
" style="fill:#1f77b4;"/>
   </g>
   <g id="patch_78">
    <path clip-path="url(#p6671efaba7)" d="M 578.248292 307.584 
L 583.951555 307.584 
L 583.951555 307.584 
L 578.248292 307.584 
z
" style="fill:#1f77b4;"/>
   </g>
   <g id="patch_79">
    <path clip-path="url(#p6671efaba7)" d="M 583.951555 307.584 
L 589.654817 307.584 
L 589.654817 307.584 
L 583.951555 307.584 
z
" style="fill:#1f77b4;"/>
   </g>
   <g id="patch_80">
    <path clip-path="url(#p6671efaba7)" d="M 589.654817 307.584 
L 595.358079 307.584 
L 595.358079 307.584 
L 589.654817 307.584 
z
" style="fill:#1f77b4;"/>
   </g>
   <g id="patch_81">
    <path clip-path="url(#p6671efaba7)" d="M 595.358079 307.584 
L 601.061342 307.584 
L 601.061342 307.584 
L 595.358079 307.584 
z
" style="fill:#1f77b4;"/>
   </g>
   <g id="patch_82">
    <path clip-path="url(#p6671efaba7)" d="M 601.061342 307.584 
L 606.764604 307.584 
L 606.764604 307.584 
L 601.061342 307.584 
z
" style="fill:#1f77b4;"/>
   </g>
   <g id="patch_83">
    <path clip-path="url(#p6671efaba7)" d="M 606.764604 307.584 
L 612.467867 307.584 
L 612.467867 307.584 
L 606.764604 307.584 
z
" style="fill:#1f77b4;"/>
   </g>
   <g id="patch_84">
    <path clip-path="url(#p6671efaba7)" d="M 612.467867 307.584 
L 618.171129 307.584 
L 618.171129 307.584 
L 612.467867 307.584 
z
" style="fill:#1f77b4;"/>
   </g>
   <g id="patch_85">
    <path clip-path="url(#p6671efaba7)" d="M 618.171129 307.584 
L 623.874391 307.584 
L 623.874391 307.584 
L 618.171129 307.584 
z
" style="fill:#1f77b4;"/>
   </g>
   <g id="patch_86">
    <path clip-path="url(#p6671efaba7)" d="M 623.874391 307.584 
L 629.577654 307.584 
L 629.577654 307.584 
L 623.874391 307.584 
z
" style="fill:#1f77b4;"/>
   </g>
   <g id="patch_87">
    <path clip-path="url(#p6671efaba7)" d="M 629.577654 307.584 
L 635.280916 307.584 
L 635.280916 307.584 
L 629.577654 307.584 
z
" style="fill:#1f77b4;"/>
   </g>
   <g id="patch_88">
    <path clip-path="url(#p6671efaba7)" d="M 635.280916 307.584 
L 640.984178 307.584 
L 640.984178 307.584 
L 635.280916 307.584 
z
" style="fill:#1f77b4;"/>
   </g>
   <g id="patch_89">
    <path clip-path="url(#p6671efaba7)" d="M 640.984178 307.584 
L 646.687441 307.584 
L 646.687441 307.584 
L 640.984178 307.584 
z
" style="fill:#1f77b4;"/>
   </g>
   <g id="patch_90">
    <path clip-path="url(#p6671efaba7)" d="M 646.687441 307.584 
L 652.390703 307.584 
L 652.390703 307.584 
L 646.687441 307.584 
z
" style="fill:#1f77b4;"/>
   </g>
   <g id="patch_91">
    <path clip-path="url(#p6671efaba7)" d="M 652.390703 307.584 
L 658.093966 307.584 
L 658.093966 307.584 
L 652.390703 307.584 
z
" style="fill:#1f77b4;"/>
   </g>
   <g id="patch_92">
    <path clip-path="url(#p6671efaba7)" d="M 658.093966 307.584 
L 663.797228 307.584 
L 663.797228 307.584 
L 658.093966 307.584 
z
" style="fill:#1f77b4;"/>
   </g>
   <g id="patch_93">
    <path clip-path="url(#p6671efaba7)" d="M 663.797228 307.584 
L 669.50049 307.584 
L 669.50049 307.584 
L 663.797228 307.584 
z
" style="fill:#1f77b4;"/>
   </g>
   <g id="patch_94">
    <path clip-path="url(#p6671efaba7)" d="M 669.50049 307.584 
L 675.203753 307.584 
L 675.203753 307.584 
L 669.50049 307.584 
z
" style="fill:#1f77b4;"/>
   </g>
   <g id="patch_95">
    <path clip-path="url(#p6671efaba7)" d="M 675.203753 307.584 
L 680.907015 307.584 
L 680.907015 307.584 
L 675.203753 307.584 
z
" style="fill:#1f77b4;"/>
   </g>
   <g id="patch_96">
    <path clip-path="url(#p6671efaba7)" d="M 680.907015 307.584 
L 686.610278 307.584 
L 686.610278 307.584 
L 680.907015 307.584 
z
" style="fill:#1f77b4;"/>
   </g>
   <g id="patch_97">
    <path clip-path="url(#p6671efaba7)" d="M 686.610278 307.584 
L 692.31354 307.584 
L 692.31354 307.584 
L 686.610278 307.584 
z
" style="fill:#1f77b4;"/>
   </g>
   <g id="patch_98">
    <path clip-path="url(#p6671efaba7)" d="M 692.31354 307.584 
L 698.016802 307.584 
L 698.016802 307.584 
L 692.31354 307.584 
z
" style="fill:#1f77b4;"/>
   </g>
   <g id="patch_99">
    <path clip-path="url(#p6671efaba7)" d="M 698.016802 307.584 
L 703.720065 307.584 
L 703.720065 307.584 
L 698.016802 307.584 
z
" style="fill:#1f77b4;"/>
   </g>
   <g id="patch_100">
    <path clip-path="url(#p6671efaba7)" d="M 703.720065 307.584 
L 709.423327 307.584 
L 709.423327 307.584 
L 703.720065 307.584 
z
" style="fill:#1f77b4;"/>
   </g>
   <g id="patch_101">
    <path clip-path="url(#p6671efaba7)" d="M 709.423327 307.584 
L 715.12659 307.584 
L 715.12659 307.584 
L 709.423327 307.584 
z
" style="fill:#1f77b4;"/>
   </g>
   <g id="patch_102">
    <path clip-path="url(#p6671efaba7)" d="M 715.12659 307.584 
L 720.829852 307.584 
L 720.829852 307.19107 
L 715.12659 307.19107 
z
" style="fill:#1f77b4;"/>
   </g>
   <g id="matplotlib.axis_1">
    <g id="xtick_1">
     <g id="line2d_1">
      <defs>
       <path d="M 0 0 
L 0 3.5 
" id="md79c584a19" style="stroke:#000000;stroke-width:0.8;"/>
      </defs>
      <g>
       <use style="stroke:#000000;stroke-width:0.8;" x="57.6" xlink:href="#md79c584a19" y="307.584"/>
      </g>
     </g>
     <g id="text_1">
      <!-- -0.20 -->
      <defs>
       <path d="M 4.890625 31.390625 
L 31.203125 31.390625 
L 31.203125 23.390625 
L 4.890625 23.390625 
z
" id="DejaVuSans-45"/>
       <path d="M 31.78125 66.40625 
Q 24.171875 66.40625 20.328125 58.90625 
Q 16.5 51.421875 16.5 36.375 
Q 16.5 21.390625 20.328125 13.890625 
Q 24.171875 6.390625 31.78125 6.390625 
Q 39.453125 6.390625 43.28125 13.890625 
Q 47.125 21.390625 47.125 36.375 
Q 47.125 51.421875 43.28125 58.90625 
Q 39.453125 66.40625 31.78125 66.40625 
z
M 31.78125 74.21875 
Q 44.046875 74.21875 50.515625 64.515625 
Q 56.984375 54.828125 56.984375 36.375 
Q 56.984375 17.96875 50.515625 8.265625 
Q 44.046875 -1.421875 31.78125 -1.421875 
Q 19.53125 -1.421875 13.0625 8.265625 
Q 6.59375 17.96875 6.59375 36.375 
Q 6.59375 54.828125 13.0625 64.515625 
Q 19.53125 74.21875 31.78125 74.21875 
z
" id="DejaVuSans-48"/>
       <path d="M 10.6875 12.40625 
L 21 12.40625 
L 21 0 
L 10.6875 0 
z
" id="DejaVuSans-46"/>
       <path d="M 19.1875 8.296875 
L 53.609375 8.296875 
L 53.609375 0 
L 7.328125 0 
L 7.328125 8.296875 
Q 12.9375 14.109375 22.625 23.890625 
Q 32.328125 33.6875 34.8125 36.53125 
Q 39.546875 41.84375 41.421875 45.53125 
Q 43.3125 49.21875 43.3125 52.78125 
Q 43.3125 58.59375 39.234375 62.25 
Q 35.15625 65.921875 28.609375 65.921875 
Q 23.96875 65.921875 18.8125 64.3125 
Q 13.671875 62.703125 7.8125 59.421875 
L 7.8125 69.390625 
Q 13.765625 71.78125 18.9375 73 
Q 24.125 74.21875 28.421875 74.21875 
Q 39.75 74.21875 46.484375 68.546875 
Q 53.21875 62.890625 53.21875 53.421875 
Q 53.21875 48.921875 51.53125 44.890625 
Q 49.859375 40.875 45.40625 35.40625 
Q 44.1875 33.984375 37.640625 27.21875 
Q 31.109375 20.453125 19.1875 8.296875 
z
" id="DejaVuSans-50"/>
      </defs>
      <g transform="translate(44.663281 322.182437)scale(0.1 -0.1)">
       <use xlink:href="#DejaVuSans-45"/>
       <use x="36.083984" xlink:href="#DejaVuSans-48"/>
       <use x="99.707031" xlink:href="#DejaVuSans-46"/>
       <use x="131.494141" xlink:href="#DejaVuSans-50"/>
       <use x="195.117188" xlink:href="#DejaVuSans-48"/>
      </g>
     </g>
    </g>
    <g id="xtick_2">
     <g id="line2d_2">
      <g>
       <use style="stroke:#000000;stroke-width:0.8;" x="102.24" xlink:href="#md79c584a19" y="307.584"/>
      </g>
     </g>
     <g id="text_2">
      <!-- -0.15 -->
      <defs>
       <path d="M 12.40625 8.296875 
L 28.515625 8.296875 
L 28.515625 63.921875 
L 10.984375 60.40625 
L 10.984375 69.390625 
L 28.421875 72.90625 
L 38.28125 72.90625 
L 38.28125 8.296875 
L 54.390625 8.296875 
L 54.390625 0 
L 12.40625 0 
z
" id="DejaVuSans-49"/>
       <path d="M 10.796875 72.90625 
L 49.515625 72.90625 
L 49.515625 64.59375 
L 19.828125 64.59375 
L 19.828125 46.734375 
Q 21.96875 47.46875 24.109375 47.828125 
Q 26.265625 48.1875 28.421875 48.1875 
Q 40.625 48.1875 47.75 41.5 
Q 54.890625 34.8125 54.890625 23.390625 
Q 54.890625 11.625 47.5625 5.09375 
Q 40.234375 -1.421875 26.90625 -1.421875 
Q 22.3125 -1.421875 17.546875 -0.640625 
Q 12.796875 0.140625 7.71875 1.703125 
L 7.71875 11.625 
Q 12.109375 9.234375 16.796875 8.0625 
Q 21.484375 6.890625 26.703125 6.890625 
Q 35.15625 6.890625 40.078125 11.328125 
Q 45.015625 15.765625 45.015625 23.390625 
Q 45.015625 31 40.078125 35.4375 
Q 35.15625 39.890625 26.703125 39.890625 
Q 22.75 39.890625 18.8125 39.015625 
Q 14.890625 38.140625 10.796875 36.28125 
z
" id="DejaVuSans-53"/>
      </defs>
      <g transform="translate(89.303281 322.182437)scale(0.1 -0.1)">
       <use xlink:href="#DejaVuSans-45"/>
       <use x="36.083984" xlink:href="#DejaVuSans-48"/>
       <use x="99.707031" xlink:href="#DejaVuSans-46"/>
       <use x="131.494141" xlink:href="#DejaVuSans-49"/>
       <use x="195.117188" xlink:href="#DejaVuSans-53"/>
      </g>
     </g>
    </g>
    <g id="xtick_3">
     <g id="line2d_3">
      <g>
       <use style="stroke:#000000;stroke-width:0.8;" x="146.88" xlink:href="#md79c584a19" y="307.584"/>
      </g>
     </g>
     <g id="text_3">
      <!-- -0.10 -->
      <g transform="translate(133.943281 322.182437)scale(0.1 -0.1)">
       <use xlink:href="#DejaVuSans-45"/>
       <use x="36.083984" xlink:href="#DejaVuSans-48"/>
       <use x="99.707031" xlink:href="#DejaVuSans-46"/>
       <use x="131.494141" xlink:href="#DejaVuSans-49"/>
       <use x="195.117188" xlink:href="#DejaVuSans-48"/>
      </g>
     </g>
    </g>
    <g id="xtick_4">
     <g id="line2d_4">
      <g>
       <use style="stroke:#000000;stroke-width:0.8;" x="191.52" xlink:href="#md79c584a19" y="307.584"/>
      </g>
     </g>
     <g id="text_4">
      <!-- -0.05 -->
      <g transform="translate(178.583281 322.182437)scale(0.1 -0.1)">
       <use xlink:href="#DejaVuSans-45"/>
       <use x="36.083984" xlink:href="#DejaVuSans-48"/>
       <use x="99.707031" xlink:href="#DejaVuSans-46"/>
       <use x="131.494141" xlink:href="#DejaVuSans-48"/>
       <use x="195.117188" xlink:href="#DejaVuSans-53"/>
      </g>
     </g>
    </g>
    <g id="xtick_5">
     <g id="line2d_5">
      <g>
       <use style="stroke:#000000;stroke-width:0.8;" x="236.16" xlink:href="#md79c584a19" y="307.584"/>
      </g>
     </g>
     <g id="text_5">
      <!-- 0.00 -->
      <g transform="translate(225.027187 322.182437)scale(0.1 -0.1)">
       <use xlink:href="#DejaVuSans-48"/>
       <use x="63.623047" xlink:href="#DejaVuSans-46"/>
       <use x="95.410156" xlink:href="#DejaVuSans-48"/>
       <use x="159.033203" xlink:href="#DejaVuSans-48"/>
      </g>
     </g>
    </g>
    <g id="xtick_6">
     <g id="line2d_6">
      <g>
       <use style="stroke:#000000;stroke-width:0.8;" x="280.8" xlink:href="#md79c584a19" y="307.584"/>
      </g>
     </g>
     <g id="text_6">
      <!-- 0.05 -->
      <g transform="translate(269.667187 322.182437)scale(0.1 -0.1)">
       <use xlink:href="#DejaVuSans-48"/>
       <use x="63.623047" xlink:href="#DejaVuSans-46"/>
       <use x="95.410156" xlink:href="#DejaVuSans-48"/>
       <use x="159.033203" xlink:href="#DejaVuSans-53"/>
      </g>
     </g>
    </g>
    <g id="xtick_7">
     <g id="line2d_7">
      <g>
       <use style="stroke:#000000;stroke-width:0.8;" x="325.44" xlink:href="#md79c584a19" y="307.584"/>
      </g>
     </g>
     <g id="text_7">
      <!-- 0.10 -->
      <g transform="translate(314.307188 322.182437)scale(0.1 -0.1)">
       <use xlink:href="#DejaVuSans-48"/>
       <use x="63.623047" xlink:href="#DejaVuSans-46"/>
       <use x="95.410156" xlink:href="#DejaVuSans-49"/>
       <use x="159.033203" xlink:href="#DejaVuSans-48"/>
      </g>
     </g>
    </g>
    <g id="xtick_8">
     <g id="line2d_8">
      <g>
       <use style="stroke:#000000;stroke-width:0.8;" x="370.08" xlink:href="#md79c584a19" y="307.584"/>
      </g>
     </g>
     <g id="text_8">
      <!-- 0.15 -->
      <g transform="translate(358.947188 322.182437)scale(0.1 -0.1)">
       <use xlink:href="#DejaVuSans-48"/>
       <use x="63.623047" xlink:href="#DejaVuSans-46"/>
       <use x="95.410156" xlink:href="#DejaVuSans-49"/>
       <use x="159.033203" xlink:href="#DejaVuSans-53"/>
      </g>
     </g>
    </g>
    <g id="xtick_9">
     <g id="line2d_9">
      <g>
       <use style="stroke:#000000;stroke-width:0.8;" x="414.72" xlink:href="#md79c584a19" y="307.584"/>
      </g>
     </g>
     <g id="text_9">
      <!-- 0.20 -->
      <g transform="translate(403.587188 322.182437)scale(0.1 -0.1)">
       <use xlink:href="#DejaVuSans-48"/>
       <use x="63.623047" xlink:href="#DejaVuSans-46"/>
       <use x="95.410156" xlink:href="#DejaVuSans-50"/>
       <use x="159.033203" xlink:href="#DejaVuSans-48"/>
      </g>
     </g>
    </g>
   </g>
   <g id="matplotlib.axis_2">
    <g id="ytick_1">
     <g id="line2d_10">
      <defs>
       <path d="M 0 0 
L -3.5 0 
" id="m0414f55fae" style="stroke:#000000;stroke-width:0.8;"/>
      </defs>
      <g>
       <use style="stroke:#000000;stroke-width:0.8;" x="57.6" xlink:href="#m0414f55fae" y="307.584"/>
      </g>
     </g>
     <g id="text_10">
      <!-- 0 -->
      <g transform="translate(44.2375 311.383219)scale(0.1 -0.1)">
       <use xlink:href="#DejaVuSans-48"/>
      </g>
     </g>
    </g>
    <g id="ytick_2">
     <g id="line2d_11">
      <g>
       <use style="stroke:#000000;stroke-width:0.8;" x="57.6" xlink:href="#m0414f55fae" y="268.290977"/>
      </g>
     </g>
     <g id="text_11">
      <!-- 100 -->
      <g transform="translate(31.5125 272.090195)scale(0.1 -0.1)">
       <use xlink:href="#DejaVuSans-49"/>
       <use x="63.623047" xlink:href="#DejaVuSans-48"/>
       <use x="127.246094" xlink:href="#DejaVuSans-48"/>
      </g>
     </g>
    </g>
    <g id="ytick_3">
     <g id="line2d_12">
      <g>
       <use style="stroke:#000000;stroke-width:0.8;" x="57.6" xlink:href="#m0414f55fae" y="228.997953"/>
      </g>
     </g>
     <g id="text_12">
      <!-- 200 -->
      <g transform="translate(31.5125 232.797172)scale(0.1 -0.1)">
       <use xlink:href="#DejaVuSans-50"/>
       <use x="63.623047" xlink:href="#DejaVuSans-48"/>
       <use x="127.246094" xlink:href="#DejaVuSans-48"/>
      </g>
     </g>
    </g>
    <g id="ytick_4">
     <g id="line2d_13">
      <g>
       <use style="stroke:#000000;stroke-width:0.8;" x="57.6" xlink:href="#m0414f55fae" y="189.70493"/>
      </g>
     </g>
     <g id="text_13">
      <!-- 300 -->
      <defs>
       <path d="M 40.578125 39.3125 
Q 47.65625 37.796875 51.625 33 
Q 55.609375 28.21875 55.609375 21.1875 
Q 55.609375 10.40625 48.1875 4.484375 
Q 40.765625 -1.421875 27.09375 -1.421875 
Q 22.515625 -1.421875 17.65625 -0.515625 
Q 12.796875 0.390625 7.625 2.203125 
L 7.625 11.71875 
Q 11.71875 9.328125 16.59375 8.109375 
Q 21.484375 6.890625 26.8125 6.890625 
Q 36.078125 6.890625 40.9375 10.546875 
Q 45.796875 14.203125 45.796875 21.1875 
Q 45.796875 27.640625 41.28125 31.265625 
Q 36.765625 34.90625 28.71875 34.90625 
L 20.21875 34.90625 
L 20.21875 43.015625 
L 29.109375 43.015625 
Q 36.375 43.015625 40.234375 45.921875 
Q 44.09375 48.828125 44.09375 54.296875 
Q 44.09375 59.90625 40.109375 62.90625 
Q 36.140625 65.921875 28.71875 65.921875 
Q 24.65625 65.921875 20.015625 65.03125 
Q 15.375 64.15625 9.8125 62.3125 
L 9.8125 71.09375 
Q 15.4375 72.65625 20.34375 73.4375 
Q 25.25 74.21875 29.59375 74.21875 
Q 40.828125 74.21875 47.359375 69.109375 
Q 53.90625 64.015625 53.90625 55.328125 
Q 53.90625 49.265625 50.4375 45.09375 
Q 46.96875 40.921875 40.578125 39.3125 
z
" id="DejaVuSans-51"/>
      </defs>
      <g transform="translate(31.5125 193.504149)scale(0.1 -0.1)">
       <use xlink:href="#DejaVuSans-51"/>
       <use x="63.623047" xlink:href="#DejaVuSans-48"/>
       <use x="127.246094" xlink:href="#DejaVuSans-48"/>
      </g>
     </g>
    </g>
    <g id="ytick_5">
     <g id="line2d_14">
      <g>
       <use style="stroke:#000000;stroke-width:0.8;" x="57.6" xlink:href="#m0414f55fae" y="150.411907"/>
      </g>
     </g>
     <g id="text_14">
      <!-- 400 -->
      <defs>
       <path d="M 37.796875 64.3125 
L 12.890625 25.390625 
L 37.796875 25.390625 
z
M 35.203125 72.90625 
L 47.609375 72.90625 
L 47.609375 25.390625 
L 58.015625 25.390625 
L 58.015625 17.1875 
L 47.609375 17.1875 
L 47.609375 0 
L 37.796875 0 
L 37.796875 17.1875 
L 4.890625 17.1875 
L 4.890625 26.703125 
z
" id="DejaVuSans-52"/>
      </defs>
      <g transform="translate(31.5125 154.211126)scale(0.1 -0.1)">
       <use xlink:href="#DejaVuSans-52"/>
       <use x="63.623047" xlink:href="#DejaVuSans-48"/>
       <use x="127.246094" xlink:href="#DejaVuSans-48"/>
      </g>
     </g>
    </g>
    <g id="ytick_6">
     <g id="line2d_15">
      <g>
       <use style="stroke:#000000;stroke-width:0.8;" x="57.6" xlink:href="#m0414f55fae" y="111.118884"/>
      </g>
     </g>
     <g id="text_15">
      <!-- 500 -->
      <g transform="translate(31.5125 114.918102)scale(0.1 -0.1)">
       <use xlink:href="#DejaVuSans-53"/>
       <use x="63.623047" xlink:href="#DejaVuSans-48"/>
       <use x="127.246094" xlink:href="#DejaVuSans-48"/>
      </g>
     </g>
    </g>
    <g id="ytick_7">
     <g id="line2d_16">
      <g>
       <use style="stroke:#000000;stroke-width:0.8;" x="57.6" xlink:href="#m0414f55fae" y="71.82586"/>
      </g>
     </g>
     <g id="text_16">
      <!-- 600 -->
      <defs>
       <path d="M 33.015625 40.375 
Q 26.375 40.375 22.484375 35.828125 
Q 18.609375 31.296875 18.609375 23.390625 
Q 18.609375 15.53125 22.484375 10.953125 
Q 26.375 6.390625 33.015625 6.390625 
Q 39.65625 6.390625 43.53125 10.953125 
Q 47.40625 15.53125 47.40625 23.390625 
Q 47.40625 31.296875 43.53125 35.828125 
Q 39.65625 40.375 33.015625 40.375 
z
M 52.59375 71.296875 
L 52.59375 62.3125 
Q 48.875 64.0625 45.09375 64.984375 
Q 41.3125 65.921875 37.59375 65.921875 
Q 27.828125 65.921875 22.671875 59.328125 
Q 17.53125 52.734375 16.796875 39.40625 
Q 19.671875 43.65625 24.015625 45.921875 
Q 28.375 48.1875 33.59375 48.1875 
Q 44.578125 48.1875 50.953125 41.515625 
Q 57.328125 34.859375 57.328125 23.390625 
Q 57.328125 12.15625 50.6875 5.359375 
Q 44.046875 -1.421875 33.015625 -1.421875 
Q 20.359375 -1.421875 13.671875 8.265625 
Q 6.984375 17.96875 6.984375 36.375 
Q 6.984375 53.65625 15.1875 63.9375 
Q 23.390625 74.21875 37.203125 74.21875 
Q 40.921875 74.21875 44.703125 73.484375 
Q 48.484375 72.75 52.59375 71.296875 
z
" id="DejaVuSans-54"/>
      </defs>
      <g transform="translate(31.5125 75.625079)scale(0.1 -0.1)">
       <use xlink:href="#DejaVuSans-54"/>
       <use x="63.623047" xlink:href="#DejaVuSans-48"/>
       <use x="127.246094" xlink:href="#DejaVuSans-48"/>
      </g>
     </g>
    </g>
   </g>
   <g id="patch_103">
    <path d="M 57.6 307.584 
L 57.6 41.472 
" style="fill:none;stroke:#000000;stroke-linecap:square;stroke-linejoin:miter;stroke-width:0.8;"/>
   </g>
   <g id="patch_104">
    <path d="M 414.72 307.584 
L 414.72 41.472 
" style="fill:none;stroke:#000000;stroke-linecap:square;stroke-linejoin:miter;stroke-width:0.8;"/>
   </g>
   <g id="patch_105">
    <path d="M 57.6 307.584 
L 414.72 307.584 
" style="fill:none;stroke:#000000;stroke-linecap:square;stroke-linejoin:miter;stroke-width:0.8;"/>
   </g>
   <g id="patch_106">
    <path d="M 57.6 41.472 
L 414.72 41.472 
" style="fill:none;stroke:#000000;stroke-linecap:square;stroke-linejoin:miter;stroke-width:0.8;"/>
   </g>
   <g id="text_17">
    <!-- 平安银行日收益率分布 -->
    <defs>
     <path d="M 43.90625 70 
L 12.90625 70 
Q 10.90625 70 9.296875 68.90625 
L 6.703125 73.59375 
Q 9.09375 73.296875 11.703125 73.296875 
L 74.796875 73.296875 
Q 77.59375 78.296875 78.59375 79.546875 
Q 79.59375 80.796875 80.203125 80.796875 
Q 81.09375 80.796875 85.046875 78.4375 
Q 89 76.09375 91.09375 74.4375 
Q 93.203125 72.796875 93.203125 71.5 
Q 93.203125 70 91.09375 70 
L 58.09375 70 
Q 57.796875 69.203125 56.703125 68.90625 
L 56.703125 31.90625 
L 57.09375 31.90625 
Q 68.09375 45 73.59375 66.203125 
Q 77.5 64.796875 82.84375 62.34375 
Q 88.203125 59.90625 89.09375 59.15625 
Q 90 58.40625 90 57.5 
Q 90 56.59375 88.34375 56.296875 
Q 86.703125 56 85.5 55.09375 
Q 84.296875 54.203125 81.40625 51.203125 
Q 71.59375 40.90625 59 31.90625 
L 77.40625 31.90625 
Q 79.296875 35.203125 81.140625 38.25 
Q 83 41.296875 83.390625 41.640625 
Q 83.796875 42 84.34375 42 
Q 84.90625 42 87.65625 40.046875 
Q 90.40625 38.09375 93.25 35.75 
Q 96.09375 33.40625 97.140625 32.15625 
Q 98.203125 30.90625 98.203125 30 
Q 98.203125 28.59375 96.203125 28.59375 
L 56.703125 28.59375 
L 56.703125 3.09375 
Q 56.703125 -0.203125 56.90625 -3.90625 
L 57 -7.296875 
Q 57 -8 56.703125 -8.296875 
Q 56.40625 -8.59375 54.5 -9.296875 
Q 52.59375 -10 49.140625 -10.640625 
Q 45.703125 -11.296875 44.296875 -11.296875 
Q 43.59375 -11.296875 43.59375 -9.796875 
L 43.703125 -5.90625 
Q 43.90625 -1.90625 43.90625 3.09375 
L 43.90625 28.59375 
L 9.296875 28.59375 
Q 7.296875 28.59375 5.703125 27.5 
L 3.09375 32.203125 
Q 5.5 31.90625 8.09375 31.90625 
L 43.90625 31.90625 
z
M 12.5 63.09375 
Q 14.296875 63.09375 20.59375 60.890625 
Q 26.90625 58.703125 30.796875 54.390625 
Q 34.703125 50.09375 34.703125 44 
Q 34.703125 40.40625 32.5 38 
Q 30.296875 35.59375 27 35.59375 
Q 25.09375 35.59375 23.140625 37.1875 
Q 21.203125 38.796875 21.203125 43.703125 
Q 21.203125 56.90625 13.09375 61.90625 
Q 12 62.59375 12 62.84375 
Q 12 63.09375 12.5 63.09375 
z
" id="STSongti-SC-Black-24179"/>
     <path d="M 39.59375 81 
Q 48.703125 81 53.453125 78.390625 
Q 58.203125 75.796875 58.203125 71.40625 
Q 58.203125 68.09375 55.796875 66.25 
Q 53.40625 64.40625 49.203125 64.40625 
Q 46.90625 64.40625 45.40625 66 
Q 43.90625 67.59375 43.90625 70.09375 
Q 43.90625 76.796875 38.5 79.09375 
Q 37.203125 79.703125 37.203125 80.34375 
Q 37.203125 81 39.59375 81 
z
M 21.296875 63.703125 
L 76.5 63.703125 
Q 79.296875 69.59375 81.09375 69.59375 
Q 82.09375 69.59375 85.1875 67.5 
Q 88.296875 65.40625 90.9375 63.203125 
Q 93.59375 61 94.75 59.640625 
Q 95.90625 58.296875 95.90625 57.09375 
Q 95.90625 55.90625 94.90625 55.296875 
Q 93.90625 54.703125 91.40625 55.09375 
Q 88.90625 55.5 86.5 55.5 
Q 84.09375 55.5 81.890625 54.453125 
Q 79.703125 53.40625 77.25 50.796875 
Q 74.796875 48.203125 74.5 48.203125 
Q 74.203125 48.203125 74.203125 48.59375 
Q 74.203125 49 74.59375 50.296875 
Q 76 54.296875 77 60.40625 
L 22.203125 60.40625 
Q 22.5 59 22.5 57.59375 
Q 22.5 52.796875 19.703125 50.1875 
Q 16.90625 47.59375 13.296875 47.59375 
Q 9.703125 47.59375 8 49.390625 
Q 6.296875 51.203125 6.296875 53.59375 
Q 6.296875 56.5 9.796875 58.296875 
Q 13.296875 60.09375 14.6875 61.796875 
Q 16.09375 63.5 16.09375 65.34375 
Q 16.09375 67.203125 15.890625 68.34375 
Q 15.703125 69.5 15.703125 70 
Q 15.703125 70.5 16 70.5 
Q 16.59375 70.5 18.390625 68.453125 
Q 20.203125 66.40625 21.296875 63.703125 
z
M 30.5 33 
L 8.90625 33 
Q 6.40625 33 5.09375 32.40625 
L 3.40625 36.796875 
Q 5.40625 36.296875 8 36.296875 
L 32.09375 36.296875 
Q 38.296875 49.703125 41.40625 59.5 
Q 46.5 58.09375 50.390625 56.546875 
Q 54.296875 55 55.296875 54.34375 
Q 56.296875 53.703125 56.296875 53 
Q 56.296875 52.296875 54.640625 51.890625 
Q 53 51.5 52 49.5 
L 44.59375 36.296875 
L 76.09375 36.296875 
Q 78 39.296875 79.703125 41.640625 
Q 81.40625 44 81.90625 44.546875 
Q 82.40625 45.09375 83.09375 45.09375 
Q 84.59375 45.09375 90.59375 40.390625 
Q 96.59375 35.703125 96.59375 34.34375 
Q 96.59375 33 93.796875 33 
L 77.09375 33 
Q 75.703125 31.09375 74.09375 30.296875 
Q 69 18.796875 64.5 13.5 
Q 76 9.09375 80.84375 4.6875 
Q 85.703125 0.296875 85.703125 -3.90625 
Q 85.703125 -6.296875 83.75 -8.34375 
Q 81.796875 -10.40625 79.703125 -10.40625 
Q 76.5 -10.40625 72 -5.296875 
Q 66.203125 1.40625 57 6.296875 
Q 50.296875 1.09375 41.59375 -2.65625 
Q 32.90625 -6.40625 22.40625 -8.40625 
Q 11.90625 -10.40625 7.59375 -10.40625 
Q 6.296875 -10.40625 6.296875 -9.84375 
Q 6.296875 -9.296875 8.296875 -8.703125 
Q 36.296875 -0.90625 48 10.296875 
Q 36.703125 14.703125 21.59375 16.703125 
Q 27.796875 27.5 30.5 33 
z
M 60.5 33 
L 42.703125 33 
L 35 19.90625 
Q 44.296875 19.203125 53.703125 16.90625 
Q 58.5 23.5 60.5 33 
z
" id="STSongti-SC-Black-23433"/>
     <path d="M 23.59375 63.40625 
L 31.703125 63.40625 
Q 33.90625 67.796875 34.796875 69 
Q 35.703125 70.203125 36.40625 70.203125 
Q 38 70.203125 44.796875 63.09375 
L 44.796875 70.796875 
Q 44.796875 75.796875 44.59375 79.703125 
Q 50 78.296875 56.703125 75.296875 
L 72.203125 75.296875 
Q 74.703125 80.296875 75.140625 80.84375 
Q 75.59375 81.40625 76.390625 81.40625 
Q 77.203125 81.40625 81.5 78.796875 
Q 85.796875 76.203125 88.046875 74.34375 
Q 90.296875 72.5 90.296875 71.5 
Q 90.296875 70.203125 86.703125 69 
L 86.703125 48.90625 
Q 86.703125 44.296875 86.796875 42.5 
L 86.90625 39.203125 
Q 86.90625 38.40625 86.046875 37.953125 
Q 85.203125 37.5 82.203125 36.703125 
Q 85.09375 34.90625 88.9375 32.40625 
Q 92.796875 29.90625 93.34375 29.34375 
Q 93.90625 28.796875 93.90625 28.296875 
Q 93.90625 27.203125 91.296875 27.09375 
Q 86.09375 26.90625 72.5 20.40625 
Q 79.5 10.40625 96.296875 5.203125 
Q 97.40625 4.796875 97.40625 4.1875 
Q 97.40625 3.59375 95.046875 2.6875 
Q 92.703125 1.796875 89.84375 -0.796875 
Q 87 -3.40625 85.59375 -6.40625 
Q 84.90625 -7.796875 84 -7.796875 
Q 82.5 -7.796875 76.796875 -2.046875 
Q 71.09375 3.703125 68.203125 10 
Q 62.703125 5 56.75 -0.953125 
Q 50.796875 -6.90625 49.296875 -8.703125 
Q 47.796875 -10.5 47.1875 -10.5 
Q 46.59375 -10.5 45.9375 -9.546875 
Q 45.296875 -8.59375 42.84375 -3.296875 
Q 40.40625 2 40.40625 2.84375 
Q 40.40625 3.703125 41.796875 4.203125 
Q 44.796875 5.203125 44.796875 7 
L 44.796875 28 
Q 44.5 27.296875 42.703125 27.296875 
L 28.203125 27.296875 
L 28.203125 8.59375 
Q 35.796875 11.90625 41.90625 15.59375 
Q 42.796875 16.203125 43.25 16.203125 
Q 43.703125 16.203125 43.703125 15.75 
Q 43.703125 15.296875 42.796875 14.40625 
Q 32.09375 3.40625 21.90625 -9.796875 
Q 21.203125 -10.796875 20.546875 -10.796875 
Q 19.90625 -10.796875 18.796875 -9 
Q 17.703125 -7.203125 15.203125 -2.296875 
Q 12.703125 2.59375 12.703125 3.09375 
Q 12.703125 4 14.203125 4.640625 
Q 15.703125 5.296875 16.296875 6.1875 
Q 16.90625 7.09375 16.90625 9.09375 
L 16.90625 27.296875 
L 8.5 27.296875 
Q 6.5 27.296875 4.90625 26.203125 
L 2.296875 30.90625 
Q 4.703125 30.59375 7.296875 30.59375 
L 16.90625 30.59375 
L 16.90625 45.796875 
L 13 45.796875 
Q 12.203125 44.59375 7.84375 40.046875 
Q 3.5 35.5 2.5 35.5 
Q 2.203125 35.5 2.203125 35.796875 
Q 2.203125 36.40625 3.5 38.203125 
Q 8.5 45.40625 11.390625 55.546875 
Q 14.296875 65.703125 15.703125 82 
Q 19.796875 81.40625 25.34375 80.296875 
Q 30.90625 79.203125 31.75 78.75 
Q 32.59375 78.296875 32.59375 77.640625 
Q 32.59375 77 30.9375 76.34375 
Q 29.296875 75.703125 28.203125 73.296875 
z
M 74.203125 58.796875 
L 74.203125 72 
L 57.5 72 
Q 57.203125 71 55.703125 70.5 
L 55.703125 58.796875 
z
M 44.796875 60.09375 
L 21.90625 60.09375 
Q 18.296875 53.296875 15.5 49.09375 
L 28 49.09375 
Q 31.703125 55.40625 32.203125 55.90625 
Q 32.703125 56.40625 33.09375 56.40625 
Q 34 56.40625 38.75 52.453125 
Q 43.5 48.5 43.5 47.140625 
Q 43.5 45.796875 40.703125 45.796875 
L 30.5 45.796875 
Q 30.203125 44.5 28.203125 43.59375 
L 28.203125 30.59375 
L 29.703125 30.59375 
Q 33.5 36.703125 34 37.140625 
Q 34.5 37.59375 35 37.59375 
Q 36.203125 37.59375 40.390625 33.59375 
Q 44.59375 29.59375 44.796875 28.703125 
z
M 74.203125 41.703125 
L 74.203125 55.5 
L 55.703125 55.5 
L 55.703125 41.703125 
z
M 62.90625 38.40625 
L 55.703125 38.40625 
L 55.703125 7.40625 
L 67.40625 11.796875 
Q 63.5 21.5 62.90625 38.40625 
z
M 78.703125 36 
Q 76.40625 35.796875 75.203125 35.796875 
Q 74 35.796875 74.203125 38.40625 
L 65.5 38.40625 
Q 66.90625 29.703125 70.59375 23.296875 
Q 74.59375 28.59375 78.703125 36 
z
" id="STSongti-SC-Black-38134"/>
     <path d="M 29.296875 82.59375 
Q 34.703125 80 38.640625 77.640625 
Q 42.59375 75.296875 43.1875 74.640625 
Q 43.796875 74 43.796875 73.40625 
Q 43.796875 72.40625 42.203125 72.09375 
Q 39.203125 71.703125 35.09375 68.296875 
Q 29.40625 63.59375 19.046875 57.9375 
Q 8.703125 52.296875 7.203125 52.296875 
Q 6.796875 52.296875 6.796875 52.6875 
Q 6.796875 53.09375 8.09375 54.296875 
Q 17.203125 62.59375 21.546875 68.75 
Q 25.90625 74.90625 29.296875 82.59375 
z
M 74.796875 70.90625 
Q 76.796875 74.703125 78.390625 76.890625 
Q 80 79.09375 80.703125 79.09375 
Q 81.796875 79.09375 87.390625 74.34375 
Q 93 69.59375 93 68.59375 
Q 93 67.59375 91 67.59375 
L 54.90625 67.59375 
Q 52.90625 67.59375 51.296875 66.5 
L 48.703125 71.203125 
Q 51.09375 70.90625 53.703125 70.90625 
z
M 20.5 31.296875 
Q 15.59375 27.796875 10.84375 24.9375 
Q 6.09375 22.09375 5.59375 21.84375 
Q 5.09375 21.59375 4.84375 21.59375 
Q 4.59375 21.59375 4.59375 21.9375 
Q 4.59375 22.296875 5.59375 23.40625 
Q 16 35 21.25 43.25 
Q 26.5 51.5 30.796875 61.90625 
Q 34 60.703125 39.34375 57.203125 
Q 44.703125 53.703125 45 53.34375 
Q 45.296875 53 45.296875 52.390625 
Q 45.296875 51.796875 43.796875 51.296875 
Q 40.09375 50.203125 38.84375 48.390625 
Q 37.59375 46.59375 32.203125 41.09375 
Q 35 40.203125 35 39.25 
Q 35 38.296875 32.90625 37.296875 
L 32.90625 -6.796875 
Q 32.90625 -7.703125 32.40625 -8.25 
Q 31.90625 -8.796875 27.453125 -9.84375 
Q 23 -10.90625 20.796875 -10.90625 
Q 20.09375 -10.90625 20.09375 -9.90625 
L 20.40625 -0.5 
Q 20.5 3.90625 20.5 7.796875 
z
M 66.59375 43.296875 
L 45.59375 43.296875 
Q 43.59375 43.296875 42 42.203125 
L 39.40625 46.90625 
Q 41.796875 46.59375 44.40625 46.59375 
L 81.203125 46.59375 
Q 84.40625 51.796875 85.40625 53.140625 
Q 86.40625 54.5 87.09375 54.5 
Q 88.40625 54.5 93.84375 50 
Q 99.296875 45.5 99.296875 44.390625 
Q 99.296875 43.296875 97.296875 43.296875 
L 81.203125 43.296875 
Q 81.09375 42.40625 80.203125 41.203125 
L 80.203125 0.203125 
Q 80.203125 -4.703125 79.09375 -7 
Q 78 -9.296875 73.890625 -10.390625 
Q 69.796875 -11.5 62.703125 -11.5 
Q 61.203125 -11.5 60.140625 -10.640625 
Q 59.09375 -9.796875 59.09375 -8.59375 
Q 59.09375 -5.09375 57.1875 -3.4375 
Q 55.296875 -1.796875 50.90625 -0.90625 
Q 49.796875 -0.703125 49.796875 -0.203125 
Q 49.796875 0.296875 52.59375 0.296875 
Q 59.90625 0.296875 63.25 1.140625 
Q 66.59375 2 66.59375 4.203125 
z
" id="STSongti-SC-Black-34892"/>
     <path d="M 32.5 71.90625 
L 65.40625 71.90625 
Q 66.296875 73.5 67.6875 75.453125 
Q 69.09375 77.40625 69.4375 77.703125 
Q 69.796875 78 70.34375 78 
Q 70.90625 78 73.59375 76.546875 
Q 76.296875 75.09375 79.84375 72.6875 
Q 83.40625 70.296875 84.09375 69.640625 
Q 84.796875 69 84.796875 68.296875 
Q 84.796875 66.796875 80.90625 65.203125 
L 80.90625 7.90625 
Q 80.90625 3.296875 81 1.5 
L 81.09375 -1.90625 
Q 81.09375 -2.90625 80.4375 -3.453125 
Q 79.796875 -4 76.5 -5.09375 
Q 73.203125 -6.203125 69 -6.203125 
Q 68.296875 -6.203125 68.046875 -5.890625 
Q 67.796875 -5.59375 67.796875 -4.5 
L 67.796875 3.703125 
L 31.59375 3.703125 
L 31.59375 -3.296875 
Q 31.59375 -4.40625 30.84375 -4.84375 
Q 30.09375 -5.296875 27.34375 -6.296875 
Q 24.59375 -7.296875 19.40625 -7.296875 
Q 18.5 -7.296875 18.5 -6.5 
L 18.703125 -1.796875 
Q 18.90625 3.09375 18.90625 7.09375 
L 18.90625 66.59375 
Q 18.90625 72.703125 18.703125 77 
Q 25.703125 75 32.5 71.90625 
z
M 31.59375 41 
L 67.796875 41 
L 67.796875 68.59375 
L 33 68.59375 
Q 32.703125 68 31.59375 67.703125 
z
M 67.796875 37.703125 
L 31.59375 37.703125 
L 31.59375 7 
L 67.796875 7 
z
" id="STSongti-SC-Black-26085"/>
     <path d="M 62.296875 58.203125 
L 78.703125 58.203125 
Q 80.09375 60.90625 81.84375 63.703125 
Q 83.59375 66.5 84 66.890625 
Q 84.40625 67.296875 84.796875 67.296875 
Q 85.90625 67.296875 91.203125 62.546875 
Q 96.5 57.796875 96.5 56.34375 
Q 96.5 54.90625 93.40625 54.90625 
L 78.703125 54.90625 
Q 86.90625 52.59375 88.15625 52 
Q 89.40625 51.40625 89.40625 50.5 
Q 89.40625 49.296875 87.5 49.09375 
Q 86.59375 49 86 47.796875 
Q 85.40625 46.59375 84.703125 44.09375 
Q 79.90625 27 73.203125 16.203125 
Q 82.703125 7.90625 97.5 2.296875 
Q 98.796875 1.796875 98.796875 1.4375 
Q 98.796875 1.09375 97.5 0.703125 
Q 91.5 -0.90625 85.40625 -8.90625 
Q 84.59375 -9.796875 84 -9.796875 
Q 83.40625 -9.796875 82.796875 -9.4375 
Q 82.203125 -9.09375 78.5 -5.84375 
Q 74.796875 -2.59375 71.640625 0.703125 
Q 68.5 4 65.90625 7.40625 
Q 57.703125 -1.203125 48 -6.296875 
Q 38.296875 -11.40625 36.5 -11.40625 
Q 35.703125 -11.40625 35.703125 -10.796875 
Q 35.703125 -10.203125 37.40625 -9.40625 
Q 44.5 -5.796875 50.796875 0.296875 
Q 57.09375 6.40625 61.40625 14.09375 
Q 54.296875 26.5 53.203125 43.59375 
Q 47.09375 35.703125 40 29.703125 
L 40 5 
Q 40 0.09375 40.09375 -1.796875 
L 40.203125 -5.40625 
Q 40.203125 -6.09375 39.75 -6.5 
Q 39.296875 -6.90625 37.4375 -7.703125 
Q 35.59375 -8.5 33.390625 -8.890625 
Q 31.203125 -9.296875 29.5 -9.296875 
Q 28.703125 -9.296875 28.703125 -7.796875 
L 28.703125 24.59375 
Q 16.796875 12.796875 14.34375 10.046875 
Q 11.90625 7.296875 11 7.296875 
Q 10.59375 7.296875 9.84375 8.84375 
Q 9.09375 10.40625 7.1875 15.15625 
Q 5.296875 19.90625 5.296875 20.40625 
Q 5.296875 20.90625 5.90625 21.296875 
Q 8 22.296875 8.59375 23 
Q 9.203125 23.703125 9.203125 25.09375 
L 9.203125 58.796875 
Q 9.203125 63.90625 8.90625 68.203125 
Q 17.40625 67.296875 20.203125 66.390625 
Q 23 65.5 23 64.546875 
Q 23 63.59375 20 62.40625 
L 20 24.296875 
Q 23.09375 25.296875 28.703125 27.296875 
L 28.703125 73.203125 
Q 28.703125 78.203125 28.5 82.09375 
Q 34.90625 81.59375 38.703125 80.84375 
Q 42.5 80.09375 42.5 78.9375 
Q 42.5 77.796875 40 76.90625 
L 40 32.203125 
Q 46.09375 41.796875 49.4375 53.390625 
Q 52.796875 65 54.703125 82.40625 
Q 59.703125 81.703125 64.953125 80.5 
Q 70.203125 79.296875 71.203125 78.796875 
Q 72.203125 78.296875 72.203125 77.703125 
Q 72.203125 76.796875 70.890625 76.140625 
Q 69.59375 75.5 68.890625 74.046875 
Q 68.203125 72.59375 66.703125 68.140625 
Q 65.203125 63.703125 62.296875 58.203125 
z
M 72.796875 54.90625 
L 60.5 54.90625 
Q 58.40625 50.90625 55 46.203125 
Q 58.09375 33.296875 65.90625 23.59375 
Q 71.5 37.796875 72.796875 54.90625 
z
" id="STSongti-SC-Black-25910"/>
     <path d="M 57.09375 59.5 
Q 61.203125 70.796875 62.296875 81.40625 
Q 68 80.09375 72.84375 78.34375 
Q 77.703125 76.59375 78.640625 75.9375 
Q 79.59375 75.296875 79.59375 74.546875 
Q 79.59375 73.796875 77.84375 73.640625 
Q 76.09375 73.5 72.75 70.75 
Q 69.40625 68 60.59375 59.5 
L 77.90625 59.5 
Q 81.203125 65 82.453125 66.640625 
Q 83.703125 68.296875 84.296875 68.296875 
Q 85.5 68.296875 91.34375 63.296875 
Q 97.203125 58.296875 97.203125 57.25 
Q 97.203125 56.203125 95.09375 56.203125 
L 17.203125 56.203125 
Q 15.203125 56.203125 13.59375 55.09375 
L 11 59.796875 
Q 13.40625 59.5 16 59.5 
z
M 26.296875 78.40625 
Q 34.5 78.40625 40.09375 75.34375 
Q 45.703125 72.296875 45.703125 67.59375 
Q 45.703125 64.09375 43.84375 61.890625 
Q 42 59.703125 39.296875 59.703125 
Q 36.59375 59.703125 34.9375 61.046875 
Q 33.296875 62.40625 33.203125 64.40625 
Q 33.09375 69.59375 31.5 72.34375 
Q 29.90625 75.09375 26.09375 77 
Q 24.703125 77.703125 24.703125 78.046875 
Q 24.703125 78.40625 26.296875 78.40625 
z
M 56.40625 53.796875 
Q 61.09375 53.796875 71.9375 51.1875 
Q 82.796875 48.59375 87.640625 44.6875 
Q 92.5 40.796875 92.5 36 
Q 92.5 33.296875 90.546875 31 
Q 88.59375 28.703125 86.4375 28.703125 
Q 84.296875 28.703125 82.390625 30.046875 
Q 80.5 31.40625 79.59375 33.40625 
Q 73.90625 46 56.796875 52.703125 
Q 55.5 53.203125 55.5 53.5 
Q 55.5 53.796875 56.40625 53.796875 
z
M 20.703125 30.90625 
Q 15.703125 28.703125 10.453125 27.046875 
Q 5.203125 25.40625 4.5 25.40625 
Q 3.796875 25.40625 3.796875 25.796875 
Q 3.796875 26.203125 5.703125 27 
Q 13.40625 30.296875 21.40625 37.796875 
Q 29.40625 45.296875 34.09375 53.5 
Q 39.90625 51.40625 43.84375 49.65625 
Q 47.796875 47.90625 48.4375 47.40625 
Q 49.09375 46.90625 49.09375 46.203125 
Q 49.09375 45.5 47.046875 45.296875 
Q 45 45.09375 40.796875 42.40625 
Q 28.59375 34.296875 20.90625 31 
Q 27.09375 29.703125 32.203125 26.90625 
L 68 26.90625 
Q 70 30.796875 70.640625 31.796875 
Q 71.296875 32.796875 72 32.796875 
Q 72.703125 32.796875 74.953125 31.390625 
Q 77.203125 30 80.5 27.546875 
Q 83.796875 25.09375 84.4375 24.390625 
Q 85.09375 23.703125 85.09375 23.09375 
Q 85.09375 21.796875 81.5 20.40625 
L 81.5 -3.40625 
L 82.203125 -3.40625 
Q 84.59375 1.09375 85.796875 2.890625 
Q 87 4.703125 87.703125 4.703125 
Q 88.703125 4.703125 93.890625 0.140625 
Q 99.09375 -4.40625 99.09375 -5.546875 
Q 99.09375 -6.703125 97 -6.703125 
L 10.59375 -6.703125 
Q 8.59375 -6.703125 7 -7.796875 
L 4.40625 -3.09375 
Q 6.796875 -3.40625 9.40625 -3.40625 
L 20.90625 -3.40625 
L 20.90625 20.703125 
Q 20.90625 26.59375 20.703125 30.90625 
z
M 37.796875 23.59375 
L 33.203125 23.59375 
Q 32.90625 23.09375 32.09375 22.5 
L 32.09375 -3.40625 
L 37.796875 -3.40625 
z
M 53.703125 23.59375 
L 48.796875 23.59375 
Q 48.703125 23 47.59375 22.5 
L 47.59375 -3.40625 
L 53.703125 -3.40625 
z
M 69.59375 -3.40625 
L 69.59375 23.59375 
L 64.796875 23.59375 
Q 64.5 23.09375 63.59375 22.59375 
L 63.59375 -3.40625 
z
" id="STSongti-SC-Black-30410"/>
     <path d="M 46.5 70.90625 
Q 45.90625 71.5 45.546875 72.296875 
Q 45.203125 73.09375 45.203125 74 
L 45.296875 75.5 
Q 45.296875 79.90625 41.40625 82.09375 
Q 40.09375 82.796875 40.09375 83.203125 
Q 40.09375 83.796875 46.09375 83.796875 
Q 58.59375 83.796875 58.59375 76.90625 
Q 58.59375 73 54.296875 70.90625 
L 76.40625 70.90625 
Q 80.296875 77.5 80.9375 78.203125 
Q 81.59375 78.90625 82.203125 78.90625 
Q 83.703125 78.90625 89.046875 74.40625 
Q 94.40625 69.90625 94.40625 68.75 
Q 94.40625 67.59375 92.40625 67.59375 
L 51.59375 67.59375 
Q 55.203125 66.09375 56.453125 65.1875 
Q 57.703125 64.296875 57.703125 63.34375 
Q 57.703125 62.40625 56.453125 62.40625 
Q 55.203125 62.40625 53.890625 61.84375 
Q 52.59375 61.296875 48.25 58.1875 
Q 43.90625 55.09375 40.703125 52.203125 
L 53.59375 52.09375 
Q 57.203125 56.90625 58.5 59.59375 
Q 60.5 58.40625 64.09375 55.59375 
Q 67.703125 52.796875 68.09375 52.34375 
Q 68.5 51.90625 68.5 51.5 
Q 68.5 50.703125 67.296875 50.640625 
Q 66.09375 50.59375 61.4375 47.140625 
Q 56.796875 43.703125 53.796875 41.703125 
Q 61.296875 40.5 66.34375 37.390625 
Q 71.40625 34.296875 71.40625 29.5 
Q 71.40625 26.703125 69.046875 24.796875 
Q 66.703125 22.90625 65 22.90625 
Q 63.296875 22.90625 62.25 23.65625 
Q 61.203125 24.40625 60.890625 25.296875 
Q 60.59375 26.203125 60.59375 27.75 
Q 60.59375 29.296875 60.09375 31.09375 
L 46.703125 27.09375 
Q 48.296875 27 52.59375 26.34375 
Q 56.90625 25.703125 57.5 25.25 
Q 58.09375 24.796875 58.09375 23.9375 
Q 58.09375 23.09375 56.5 22.203125 
L 56.5 14.703125 
L 79.09375 14.703125 
Q 82.90625 21.09375 83.703125 22.203125 
Q 80.40625 22 79 23.796875 
Q 77.59375 25.59375 76.59375 30.09375 
Q 76 32.5 73 36.25 
Q 70 40 66.5 42.40625 
Q 73.09375 54.59375 74.703125 65 
Q 77.40625 64.203125 81.953125 62.140625 
Q 86.5 60.09375 88 59.1875 
Q 89.5 58.296875 89.5 57.5 
Q 89.5 56.203125 87.09375 56 
Q 85.40625 55.796875 83.953125 54.9375 
Q 82.5 54.09375 77.203125 49.84375 
Q 71.90625 45.59375 68.40625 42.40625 
Q 79.703125 40.40625 84.546875 37.203125 
Q 89.40625 34 89.40625 29.59375 
Q 89.40625 25.203125 86.09375 23.09375 
Q 88.40625 22.09375 93.296875 17.84375 
Q 98.203125 13.59375 98.203125 12.5 
Q 98.203125 11.40625 96.203125 11.40625 
L 56.5 11.40625 
L 56.5 3.296875 
Q 56.5 -1.703125 56.59375 -3.59375 
L 56.703125 -7.09375 
Q 56.703125 -8.796875 53.046875 -9.796875 
Q 49.40625 -10.796875 47.25 -10.796875 
Q 45.09375 -10.796875 44.4375 -10.390625 
Q 43.796875 -10 43.796875 -8.703125 
L 44 -4.796875 
Q 44.09375 -0.90625 44.09375 3.796875 
L 44.09375 11.40625 
L 9.90625 11.40625 
Q 7.90625 11.40625 6.296875 10.296875 
L 3.703125 15 
Q 6.09375 14.703125 8.703125 14.703125 
L 44.09375 14.703125 
L 44.09375 18.59375 
L 44 26.09375 
Q 38.09375 24.296875 36.75 23.59375 
Q 35.40625 22.90625 35.203125 22.90625 
Q 34.796875 22.90625 34.640625 23.546875 
Q 34.5 24.203125 33.203125 28.09375 
Q 31.90625 32 31.90625 32.59375 
Q 31.90625 33.703125 32.84375 33.5 
Q 33.796875 33.296875 34.296875 33.296875 
Q 36.5 33.296875 41.34375 37.9375 
Q 46.203125 42.59375 50.09375 47.5 
Q 40.40625 45 36.90625 43.296875 
Q 36.5 43.09375 36.046875 43.09375 
Q 35.59375 43.09375 35.390625 43.4375 
Q 35.203125 43.796875 33.890625 47.640625 
Q 32.59375 51.5 32.59375 52.09375 
Q 32.59375 52.703125 33.203125 52.796875 
Q 36.703125 53.296875 39.09375 57 
Q 41.5 60.703125 43.796875 67.59375 
L 13.796875 67.59375 
Q 11.796875 67.59375 10.203125 66.5 
L 7.59375 71.203125 
Q 10 70.90625 12.59375 70.90625 
z
M 52.796875 41 
Q 44.40625 35.5 41.09375 33.203125 
L 59.203125 33.40625 
Q 57.09375 37.90625 52.796875 41 
z
M 12.296875 63.59375 
Q 13.796875 63.59375 18.4375 61.890625 
Q 23.09375 60.203125 26.09375 57.296875 
Q 29.09375 54.40625 29.09375 51.203125 
Q 29.09375 48 27.1875 45.890625 
Q 25.296875 43.796875 21.90625 43.796875 
Q 19.90625 43.796875 18.453125 45.5 
Q 17 47.203125 17 49.40625 
L 17.09375 51.5 
Q 17.09375 54.703125 15.84375 57.75 
Q 14.59375 60.796875 12.5 62.40625 
Q 11.703125 63 11.703125 63.296875 
Q 11.703125 63.59375 12.296875 63.59375 
z
M 6.40625 34.5 
Q 12.296875 35.90625 20.1875 38.59375 
Q 28.09375 41.296875 30.890625 42.75 
Q 33.703125 44.203125 34.140625 44.203125 
Q 34.59375 44.203125 34.59375 44 
Q 34.59375 43.5 31.4375 40.640625 
Q 28.296875 37.796875 22.59375 31.796875 
Q 16.90625 25.796875 15.703125 24 
Q 14.5 22.203125 14.140625 22.203125 
Q 13.796875 22.203125 13.5 22.5 
Q 13.203125 22.796875 10.59375 26.75 
Q 8 30.703125 6.40625 34.5 
z
" id="STSongti-SC-Black-29575"/>
     <path d="M 99.296875 43.90625 
Q 99.296875 43.40625 96.9375 42.34375 
Q 94.59375 41.296875 92.75 39.4375 
Q 90.90625 37.59375 88.796875 33.203125 
Q 88.296875 31.90625 87.140625 31.90625 
Q 86 31.90625 84.140625 33 
Q 82.296875 34.09375 76.796875 38.5 
Q 71.296875 42.90625 66.6875 49.34375 
Q 62.09375 55.796875 59.296875 63.140625 
Q 56.5 70.5 55.5 75.59375 
Q 54.5 80.703125 54.5 81.75 
Q 54.5 82.796875 55.40625 82.796875 
Q 56.796875 82.796875 60.796875 81.640625 
Q 64.796875 80.5 64.796875 79.296875 
Q 64.796875 78.59375 63.59375 78 
Q 60.40625 76.296875 60.40625 75.09375 
Q 60.40625 72.796875 63.5 67.140625 
Q 66.59375 61.5 72 56.84375 
Q 77.40625 52.203125 83.953125 49.140625 
Q 90.5 46.09375 97.40625 44.703125 
Q 99.296875 44.296875 99.296875 43.90625 
z
M 19 39.5 
Q 15.40625 36.703125 10.796875 34 
Q 6.203125 31.296875 5.09375 31.296875 
Q 4.59375 31.296875 4.59375 31.796875 
Q 4.59375 32.296875 6 33.40625 
Q 14.796875 40.40625 22.140625 52.796875 
Q 29.5 65.203125 32.796875 79 
Q 38.703125 77.09375 42.953125 75 
Q 47.203125 72.90625 48.09375 72.15625 
Q 49 71.40625 49 70.703125 
Q 49 70 47.140625 69.796875 
Q 45.296875 69.59375 44.296875 68.6875 
Q 43.296875 67.796875 42 65.59375 
Q 34.09375 51.40625 20.296875 40.40625 
L 60.09375 40.40625 
Q 63.203125 45.90625 64.59375 45.90625 
Q 65.296875 45.90625 68.84375 43.34375 
Q 72.40625 40.796875 75.046875 38.5 
Q 77.703125 36.203125 77.703125 35.40625 
Q 77.703125 34.296875 74.296875 33.296875 
Q 74.296875 22.796875 72.59375 11.84375 
Q 70.90625 0.90625 69.046875 -2.546875 
Q 67.203125 -6 63.25 -8.09375 
Q 59.296875 -10.203125 54.09375 -10.203125 
Q 52.203125 -10.203125 51.453125 -9.546875 
Q 50.703125 -8.90625 50.59375 -7.296875 
Q 50.296875 -0.90625 41.5 0.90625 
Q 39.796875 1.296875 39.796875 1.84375 
Q 39.796875 2.40625 43 2.15625 
Q 46.203125 1.90625 49.796875 1.90625 
Q 53.40625 1.90625 55.34375 2.75 
Q 57.296875 3.59375 58.296875 5.9375 
Q 59.296875 8.296875 60.34375 18.796875 
Q 61.40625 29.296875 61.203125 37.09375 
L 46.203125 37.09375 
Q 45 35.90625 44.5 32.796875 
Q 42.5 19.59375 39.296875 13.09375 
Q 36.09375 6.59375 30.59375 2.34375 
Q 25.09375 -1.90625 15.796875 -5.546875 
Q 6.5 -9.203125 4.90625 -9.203125 
Q 4.5 -9.203125 4.5 -9 
Q 4.5 -8.5 6.5 -7.40625 
Q 16.296875 -2.09375 21.640625 3.296875 
Q 27 8.703125 29.453125 16.546875 
Q 31.90625 24.40625 32.09375 37.09375 
L 24.5 37.09375 
Q 22.5 37.09375 20.90625 36 
z
" id="STSongti-SC-Black-20998"/>
     <path d="M 34.5 64.203125 
L 9.5 64.203125 
Q 7.5 64.203125 5.90625 63.09375 
L 3.296875 67.796875 
Q 5.703125 67.5 8.296875 67.5 
L 35.703125 67.5 
Q 38.296875 75.09375 39.09375 83.5 
Q 42.296875 83.203125 48.5 82 
Q 54.703125 80.796875 55.453125 80.1875 
Q 56.203125 79.59375 56.203125 78.90625 
Q 56.203125 77.703125 54.25 77.140625 
Q 52.296875 76.59375 51.390625 73.9375 
Q 50.5 71.296875 48.703125 67.5 
L 78 67.5 
Q 81.796875 74.5 82.5 75.59375 
Q 83.203125 76.703125 84 76.703125 
Q 84.796875 76.703125 87.296875 75 
Q 89.796875 73.296875 93.34375 70.59375 
Q 96.90625 67.90625 97.75 66.90625 
Q 98.59375 65.90625 98.59375 65.296875 
Q 98.59375 64.203125 96.296875 64.203125 
L 47.203125 64.203125 
Q 41.59375 52.796875 33.40625 44.59375 
Q 34.203125 44.40625 34.59375 44.203125 
L 47.5 44.203125 
L 47.5 44.5 
Q 47.5 54.90625 47.296875 59.5 
Q 58.703125 58.296875 60.453125 57.84375 
Q 62.203125 57.40625 62.203125 56.453125 
Q 62.203125 55.5 59.796875 54.40625 
L 59.796875 44.203125 
L 69.59375 44.203125 
L 72.796875 49.296875 
Q 74 51.5 75.390625 51.5 
Q 76.796875 51.5 81.203125 48.90625 
L 87.703125 45.09375 
Q 90 43.703125 90 42 
Q 90 40.296875 86.703125 39.203125 
L 86.703125 11 
Q 86.703125 7.09375 84.390625 4.796875 
Q 82.09375 2.5 78.25 1.5 
Q 74.40625 0.5 72.453125 0.5 
Q 70.5 0.5 70.203125 2.5 
Q 69.703125 6.296875 67.796875 7.9375 
Q 65.90625 9.59375 59.796875 11.40625 
L 59.796875 0.703125 
Q 59.796875 -2.703125 59.9375 -5.046875 
Q 60.09375 -7.40625 60.09375 -7.84375 
Q 60.09375 -8.296875 59.796875 -8.59375 
Q 59.5 -8.90625 57.296875 -9.90625 
Q 55.09375 -10.90625 51.640625 -11.453125 
Q 48.203125 -12 47.640625 -12 
Q 47.09375 -12 47.09375 -11.40625 
L 47.296875 -6.90625 
Q 47.5 -4.203125 47.5 -0.40625 
L 47.5 40.90625 
L 35.40625 40.90625 
Q 34.90625 40.296875 34 40 
L 34 4.796875 
Q 34 3.703125 33.640625 3.34375 
Q 33.296875 3 31.75 2.203125 
Q 30.203125 1.40625 26.140625 0.703125 
Q 22.09375 0 21.5 0 
Q 20.90625 0 20.90625 0.796875 
L 21.09375 5.296875 
Q 21.296875 8.203125 21.296875 11.5 
L 21.296875 34.5 
Q 17.40625 31.796875 12.796875 29.1875 
Q 8.203125 26.59375 5.640625 25.4375 
Q 3.09375 24.296875 2.6875 24.296875 
Q 2.296875 24.296875 2.296875 24.59375 
Q 2.296875 24.90625 2.90625 25.40625 
Q 13.703125 33 21.296875 42.09375 
Q 21.296875 45.90625 21 48 
Q 23.703125 47.40625 25.203125 47 
Q 31 55 34.5 64.203125 
z
M 59.796875 40.90625 
L 59.796875 12 
Q 66.296875 11.90625 69.046875 12.09375 
Q 71.796875 12.296875 72.59375 13.046875 
Q 73.40625 13.796875 73.40625 15.703125 
L 73.40625 40.90625 
z
" id="STSongti-SC-Black-24067"/>
    </defs>
    <g transform="translate(166.16 35.472)scale(0.14 -0.14)">
     <use xlink:href="#STSongti-SC-Black-24179"/>
     <use x="99.999985" xlink:href="#STSongti-SC-Black-23433"/>
     <use x="199.999969" xlink:href="#STSongti-SC-Black-38134"/>
     <use x="299.999954" xlink:href="#STSongti-SC-Black-34892"/>
     <use x="399.999939" xlink:href="#STSongti-SC-Black-26085"/>
     <use x="499.999924" xlink:href="#STSongti-SC-Black-25910"/>
     <use x="599.999908" xlink:href="#STSongti-SC-Black-30410"/>
     <use x="699.999893" xlink:href="#STSongti-SC-Black-29575"/>
     <use x="799.999878" xlink:href="#STSongti-SC-Black-20998"/>
     <use x="899.999863" xlink:href="#STSongti-SC-Black-24067"/>
    </g>
   </g>
  </g>
 </g>
 <defs>
  <clipPath id="p6671efaba7">
   <rect height="266.112" width="357.12" x="57.6" y="41.472"/>
  </clipPath>
 </defs>
</svg>
