<?xml version="1.0" encoding="utf-8" standalone="no"?>
<!DOCTYPE svg PUBLIC "-//W3C//DTD SVG 1.1//EN"
  "http://www.w3.org/Graphics/SVG/1.1/DTD/svg11.dtd">
<!-- Created with matplotlib (https://matplotlib.org/) -->
<svg height="576pt" version="1.1" viewBox="0 0 864 576" width="864pt" xmlns="http://www.w3.org/2000/svg" xmlns:xlink="http://www.w3.org/1999/xlink">
 <defs>
  <style type="text/css">
*{stroke-linecap:butt;stroke-linejoin:round;}
  </style>
 </defs>
 <g id="figure_1">
  <g id="patch_1">
   <path d="M 0 576 
L 864 576 
L 864 0 
L 0 0 
z
" style="fill:#ffffff;"/>
  </g>
  <g id="axes_1">
   <g id="patch_2">
    <path d="M 108 512.64 
L 777.6 512.64 
L 777.6 69.12 
L 108 69.12 
z
" style="fill:#ffffff;"/>
   </g>
   <g id="PathCollection_1">
    <defs>
     <path d="M 0 3 
C 0.795609 3 1.55874 2.683901 2.12132 2.12132 
C 2.683901 1.55874 3 0.795609 3 0 
C 3 -0.795609 2.683901 -1.55874 2.12132 -2.12132 
C 1.55874 -2.683901 0.795609 -3 0 -3 
C -0.795609 -3 -1.55874 -2.683901 -2.12132 -2.12132 
C -2.683901 -1.55874 -3 -0.795609 -3 0 
C -3 0.795609 -2.683901 1.55874 -2.12132 2.12132 
C -1.55874 2.683901 -0.795609 3 0 3 
z
" id="m5a069d4610" style="stroke:#1f77b4;"/>
    </defs>
    <g clip-path="url(#p562c0ff303)">
     <use style="fill:#1f77b4;stroke:#1f77b4;" x="454.019697" xlink:href="#m5a069d4610" y="282.779506"/>
     <use style="fill:#1f77b4;stroke:#1f77b4;" x="345.0545" xlink:href="#m5a069d4610" y="250.098571"/>
     <use style="fill:#1f77b4;stroke:#1f77b4;" x="429.8057" xlink:href="#m5a069d4610" y="251.855619"/>
     <use style="fill:#1f77b4;stroke:#1f77b4;" x="469.244819" xlink:href="#m5a069d4610" y="279.720736"/>
     <use style="fill:#1f77b4;stroke:#1f77b4;" x="350.878082" xlink:href="#m5a069d4610" y="265.821605"/>
     <use style="fill:#1f77b4;stroke:#1f77b4;" x="491.377635" xlink:href="#m5a069d4610" y="240.572135"/>
     <use style="fill:#1f77b4;stroke:#1f77b4;" x="574.319112" xlink:href="#m5a069d4610" y="271.930486"/>
     <use style="fill:#1f77b4;stroke:#1f77b4;" x="433.052658" xlink:href="#m5a069d4610" y="287.3241"/>
     <use style="fill:#1f77b4;stroke:#1f77b4;" x="499.183772" xlink:href="#m5a069d4610" y="262.677848"/>
     <use style="fill:#1f77b4;stroke:#1f77b4;" x="647.564144" xlink:href="#m5a069d4610" y="297.810086"/>
     <use style="fill:#1f77b4;stroke:#1f77b4;" x="454.019697" xlink:href="#m5a069d4610" y="243.213096"/>
     <use style="fill:#1f77b4;stroke:#1f77b4;" x="462.543621" xlink:href="#m5a069d4610" y="327.057126"/>
     <use style="fill:#1f77b4;stroke:#1f77b4;" x="592.950272" xlink:href="#m5a069d4610" y="272.987796"/>
     <use style="fill:#1f77b4;stroke:#1f77b4;" x="475.947183" xlink:href="#m5a069d4610" y="288.512119"/>
     <use style="fill:#1f77b4;stroke:#1f77b4;" x="355.879384" xlink:href="#m5a069d4610" y="192.080479"/>
     <use style="fill:#1f77b4;stroke:#1f77b4;" x="512.695461" xlink:href="#m5a069d4610" y="257.307642"/>
     <use style="fill:#1f77b4;stroke:#1f77b4;" x="451.265665" xlink:href="#m5a069d4610" y="286.293724"/>
     <use style="fill:#1f77b4;stroke:#1f77b4;" x="332.759505" xlink:href="#m5a069d4610" y="309.814635"/>
     <use style="fill:#1f77b4;stroke:#1f77b4;" x="411.400078" xlink:href="#m5a069d4610" y="280.527325"/>
     <use style="fill:#1f77b4;stroke:#1f77b4;" x="364.998789" xlink:href="#m5a069d4610" y="374.065508"/>
     <use style="fill:#1f77b4;stroke:#1f77b4;" x="427.591811" xlink:href="#m5a069d4610" y="324.798684"/>
     <use style="fill:#1f77b4;stroke:#1f77b4;" x="572.251413" xlink:href="#m5a069d4610" y="289.682669"/>
     <use style="fill:#1f77b4;stroke:#1f77b4;" x="448.276413" xlink:href="#m5a069d4610" y="366.554837"/>
     <use style="fill:#1f77b4;stroke:#1f77b4;" x="459.771169" xlink:href="#m5a069d4610" y="252.229129"/>
     <use style="fill:#1f77b4;stroke:#1f77b4;" x="597.601808" xlink:href="#m5a069d4610" y="327.520035"/>
     <use style="fill:#1f77b4;stroke:#1f77b4;" x="301.506878" xlink:href="#m5a069d4610" y="434.459918"/>
     <use style="fill:#1f77b4;stroke:#1f77b4;" x="142.774705" xlink:href="#m5a069d4610" y="382.983068"/>
     <use style="fill:#1f77b4;stroke:#1f77b4;" x="335.353306" xlink:href="#m5a069d4610" y="230.929626"/>
     <use style="fill:#1f77b4;stroke:#1f77b4;" x="180.538141" xlink:href="#m5a069d4610" y="432.762514"/>
     <use style="fill:#1f77b4;stroke:#1f77b4;" x="464.373822" xlink:href="#m5a069d4610" y="162.751861"/>
     <use style="fill:#1f77b4;stroke:#1f77b4;" x="529.755585" xlink:href="#m5a069d4610" y="246.961939"/>
     <use style="fill:#1f77b4;stroke:#1f77b4;" x="474.294357" xlink:href="#m5a069d4610" y="240.279501"/>
     <use style="fill:#1f77b4;stroke:#1f77b4;" x="608.681561" xlink:href="#m5a069d4610" y="193.729176"/>
     <use style="fill:#1f77b4;stroke:#1f77b4;" x="502.591013" xlink:href="#m5a069d4610" y="285.207788"/>
     <use style="fill:#1f77b4;stroke:#1f77b4;" x="460.418836" xlink:href="#m5a069d4610" y="207.302674"/>
     <use style="fill:#1f77b4;stroke:#1f77b4;" x="342.212092" xlink:href="#m5a069d4610" y="346.929533"/>
     <use style="fill:#1f77b4;stroke:#1f77b4;" x="378.452011" xlink:href="#m5a069d4610" y="287.764849"/>
     <use style="fill:#1f77b4;stroke:#1f77b4;" x="450.671434" xlink:href="#m5a069d4610" y="250.903235"/>
     <use style="fill:#1f77b4;stroke:#1f77b4;" x="423.860299" xlink:href="#m5a069d4610" y="316.906325"/>
     <use style="fill:#1f77b4;stroke:#1f77b4;" x="423.633157" xlink:href="#m5a069d4610" y="286.212309"/>
     <use style="fill:#1f77b4;stroke:#1f77b4;" x="535.665376" xlink:href="#m5a069d4610" y="229.081278"/>
     <use style="fill:#1f77b4;stroke:#1f77b4;" x="437.34756" xlink:href="#m5a069d4610" y="325.992209"/>
     <use style="fill:#1f77b4;stroke:#1f77b4;" x="474.109277" xlink:href="#m5a069d4610" y="228.141042"/>
     <use style="fill:#1f77b4;stroke:#1f77b4;" x="447.356349" xlink:href="#m5a069d4610" y="224.338837"/>
     <use style="fill:#1f77b4;stroke:#1f77b4;" x="433.996584" xlink:href="#m5a069d4610" y="246.41783"/>
     <use style="fill:#1f77b4;stroke:#1f77b4;" x="450.665867" xlink:href="#m5a069d4610" y="315.141359"/>
     <use style="fill:#1f77b4;stroke:#1f77b4;" x="420.453497" xlink:href="#m5a069d4610" y="305.369228"/>
     <use style="fill:#1f77b4;stroke:#1f77b4;" x="382.939325" xlink:href="#m5a069d4610" y="259.990278"/>
     <use style="fill:#1f77b4;stroke:#1f77b4;" x="429.901336" xlink:href="#m5a069d4610" y="335.646782"/>
     <use style="fill:#1f77b4;stroke:#1f77b4;" x="519.877506" xlink:href="#m5a069d4610" y="284.125975"/>
     <use style="fill:#1f77b4;stroke:#1f77b4;" x="450.609167" xlink:href="#m5a069d4610" y="290.674904"/>
     <use style="fill:#1f77b4;stroke:#1f77b4;" x="481.327022" xlink:href="#m5a069d4610" y="311.403642"/>
     <use style="fill:#1f77b4;stroke:#1f77b4;" x="372.648457" xlink:href="#m5a069d4610" y="335.33768"/>
     <use style="fill:#1f77b4;stroke:#1f77b4;" x="343.291538" xlink:href="#m5a069d4610" y="408.295219"/>
     <use style="fill:#1f77b4;stroke:#1f77b4;" x="308.145844" xlink:href="#m5a069d4610" y="275.066379"/>
     <use style="fill:#1f77b4;stroke:#1f77b4;" x="457.711058" xlink:href="#m5a069d4610" y="225.46284"/>
     <use style="fill:#1f77b4;stroke:#1f77b4;" x="435.579764" xlink:href="#m5a069d4610" y="356.834775"/>
     <use style="fill:#1f77b4;stroke:#1f77b4;" x="513.298409" xlink:href="#m5a069d4610" y="215.451752"/>
     <use style="fill:#1f77b4;stroke:#1f77b4;" x="399.250593" xlink:href="#m5a069d4610" y="273.278915"/>
     <use style="fill:#1f77b4;stroke:#1f77b4;" x="383.690808" xlink:href="#m5a069d4610" y="299.366541"/>
     <use style="fill:#1f77b4;stroke:#1f77b4;" x="397.511892" xlink:href="#m5a069d4610" y="308.240597"/>
     <use style="fill:#1f77b4;stroke:#1f77b4;" x="572.461342" xlink:href="#m5a069d4610" y="289.588778"/>
     <use style="fill:#1f77b4;stroke:#1f77b4;" x="509.695741" xlink:href="#m5a069d4610" y="310.258633"/>
     <use style="fill:#1f77b4;stroke:#1f77b4;" x="600.468238" xlink:href="#m5a069d4610" y="215.400019"/>
     <use style="fill:#1f77b4;stroke:#1f77b4;" x="598.871667" xlink:href="#m5a069d4610" y="268.02121"/>
     <use style="fill:#1f77b4;stroke:#1f77b4;" x="348.293259" xlink:href="#m5a069d4610" y="321.248239"/>
     <use style="fill:#1f77b4;stroke:#1f77b4;" x="471.531231" xlink:href="#m5a069d4610" y="301.968065"/>
     <use style="fill:#1f77b4;stroke:#1f77b4;" x="290.122641" xlink:href="#m5a069d4610" y="335.660574"/>
     <use style="fill:#1f77b4;stroke:#1f77b4;" x="494.002788" xlink:href="#m5a069d4610" y="364.742467"/>
     <use style="fill:#1f77b4;stroke:#1f77b4;" x="558.39531" xlink:href="#m5a069d4610" y="273.794737"/>
     <use style="fill:#1f77b4;stroke:#1f77b4;" x="443.494504" xlink:href="#m5a069d4610" y="217.385856"/>
     <use style="fill:#1f77b4;stroke:#1f77b4;" x="411.80881" xlink:href="#m5a069d4610" y="340.468768"/>
     <use style="fill:#1f77b4;stroke:#1f77b4;" x="532.224508" xlink:href="#m5a069d4610" y="288.667611"/>
     <use style="fill:#1f77b4;stroke:#1f77b4;" x="555.147668" xlink:href="#m5a069d4610" y="200.800618"/>
     <use style="fill:#1f77b4;stroke:#1f77b4;" x="392.785438" xlink:href="#m5a069d4610" y="296.04335"/>
     <use style="fill:#1f77b4;stroke:#1f77b4;" x="364.20712" xlink:href="#m5a069d4610" y="398.976959"/>
     <use style="fill:#1f77b4;stroke:#1f77b4;" x="252.640129" xlink:href="#m5a069d4610" y="277.049705"/>
     <use style="fill:#1f77b4;stroke:#1f77b4;" x="465.175432" xlink:href="#m5a069d4610" y="265.528936"/>
     <use style="fill:#1f77b4;stroke:#1f77b4;" x="405.811476" xlink:href="#m5a069d4610" y="228.738025"/>
     <use style="fill:#1f77b4;stroke:#1f77b4;" x="427.74751" xlink:href="#m5a069d4610" y="297.878528"/>
     <use style="fill:#1f77b4;stroke:#1f77b4;" x="503.130694" xlink:href="#m5a069d4610" y="202.395219"/>
     <use style="fill:#1f77b4;stroke:#1f77b4;" x="528.666456" xlink:href="#m5a069d4610" y="235.126004"/>
     <use style="fill:#1f77b4;stroke:#1f77b4;" x="439.361542" xlink:href="#m5a069d4610" y="286.233331"/>
     <use style="fill:#1f77b4;stroke:#1f77b4;" x="468.731301" xlink:href="#m5a069d4610" y="264.568759"/>
     <use style="fill:#1f77b4;stroke:#1f77b4;" x="454.019697" xlink:href="#m5a069d4610" y="311.396486"/>
     <use style="fill:#1f77b4;stroke:#1f77b4;" x="516.316858" xlink:href="#m5a069d4610" y="236.318688"/>
     <use style="fill:#1f77b4;stroke:#1f77b4;" x="432.366796" xlink:href="#m5a069d4610" y="265.278659"/>
     <use style="fill:#1f77b4;stroke:#1f77b4;" x="374.19734" xlink:href="#m5a069d4610" y="303.587767"/>
     <use style="fill:#1f77b4;stroke:#1f77b4;" x="424.407533" xlink:href="#m5a069d4610" y="311.639161"/>
     <use style="fill:#1f77b4;stroke:#1f77b4;" x="506.224136" xlink:href="#m5a069d4610" y="265.745998"/>
     <use style="fill:#1f77b4;stroke:#1f77b4;" x="450.338441" xlink:href="#m5a069d4610" y="259.613341"/>
     <use style="fill:#1f77b4;stroke:#1f77b4;" x="420.85813" xlink:href="#m5a069d4610" y="297.381428"/>
     <use style="fill:#1f77b4;stroke:#1f77b4;" x="376.001462" xlink:href="#m5a069d4610" y="336.705882"/>
     <use style="fill:#1f77b4;stroke:#1f77b4;" x="438.866055" xlink:href="#m5a069d4610" y="317.852729"/>
     <use style="fill:#1f77b4;stroke:#1f77b4;" x="446.414311" xlink:href="#m5a069d4610" y="312.816653"/>
     <use style="fill:#1f77b4;stroke:#1f77b4;" x="454.019697" xlink:href="#m5a069d4610" y="250.139036"/>
     <use style="fill:#1f77b4;stroke:#1f77b4;" x="374.012328" xlink:href="#m5a069d4610" y="322.803368"/>
     <use style="fill:#1f77b4;stroke:#1f77b4;" x="337.411104" xlink:href="#m5a069d4610" y="366.73111"/>
     <use style="fill:#1f77b4;stroke:#1f77b4;" x="494.046059" xlink:href="#m5a069d4610" y="186.249334"/>
     <use style="fill:#1f77b4;stroke:#1f77b4;" x="457.983015" xlink:href="#m5a069d4610" y="322.052023"/>
     <use style="fill:#1f77b4;stroke:#1f77b4;" x="485.695123" xlink:href="#m5a069d4610" y="246.800733"/>
     <use style="fill:#1f77b4;stroke:#1f77b4;" x="450.091112" xlink:href="#m5a069d4610" y="218.241492"/>
     <use style="fill:#1f77b4;stroke:#1f77b4;" x="406.830723" xlink:href="#m5a069d4610" y="296.681305"/>
     <use style="fill:#1f77b4;stroke:#1f77b4;" x="545.535593" xlink:href="#m5a069d4610" y="292.611305"/>
     <use style="fill:#1f77b4;stroke:#1f77b4;" x="356.752163" xlink:href="#m5a069d4610" y="326.138402"/>
     <use style="fill:#1f77b4;stroke:#1f77b4;" x="422.125173" xlink:href="#m5a069d4610" y="275.076712"/>
     <use style="fill:#1f77b4;stroke:#1f77b4;" x="462.056863" xlink:href="#m5a069d4610" y="223.350736"/>
     <use style="fill:#1f77b4;stroke:#1f77b4;" x="409.903166" xlink:href="#m5a069d4610" y="339.680563"/>
     <use style="fill:#1f77b4;stroke:#1f77b4;" x="502.678881" xlink:href="#m5a069d4610" y="320.979521"/>
     <use style="fill:#1f77b4;stroke:#1f77b4;" x="494.085808" xlink:href="#m5a069d4610" y="317.987155"/>
     <use style="fill:#1f77b4;stroke:#1f77b4;" x="335.003257" xlink:href="#m5a069d4610" y="465.164765"/>
     <use style="fill:#1f77b4;stroke:#1f77b4;" x="470.370892" xlink:href="#m5a069d4610" y="256.71793"/>
     <use style="fill:#1f77b4;stroke:#1f77b4;" x="433.663202" xlink:href="#m5a069d4610" y="351.09013"/>
     <use style="fill:#1f77b4;stroke:#1f77b4;" x="449.927753" xlink:href="#m5a069d4610" y="251.305159"/>
     <use style="fill:#1f77b4;stroke:#1f77b4;" x="294.271844" xlink:href="#m5a069d4610" y="324.853903"/>
     <use style="fill:#1f77b4;stroke:#1f77b4;" x="411.370043" xlink:href="#m5a069d4610" y="296.719889"/>
     <use style="fill:#1f77b4;stroke:#1f77b4;" x="337.635352" xlink:href="#m5a069d4610" y="377.643719"/>
     <use style="fill:#1f77b4;stroke:#1f77b4;" x="378.56406" xlink:href="#m5a069d4610" y="325.430822"/>
     <use style="fill:#1f77b4;stroke:#1f77b4;" x="530.91339" xlink:href="#m5a069d4610" y="152.877031"/>
     <use style="fill:#1f77b4;stroke:#1f77b4;" x="240.968486" xlink:href="#m5a069d4610" y="386.320256"/>
     <use style="fill:#1f77b4;stroke:#1f77b4;" x="482.135776" xlink:href="#m5a069d4610" y="284.908087"/>
     <use style="fill:#1f77b4;stroke:#1f77b4;" x="426.098193" xlink:href="#m5a069d4610" y="372.919886"/>
     <use style="fill:#1f77b4;stroke:#1f77b4;" x="449.333684" xlink:href="#m5a069d4610" y="332.190852"/>
     <use style="fill:#1f77b4;stroke:#1f77b4;" x="482.168469" xlink:href="#m5a069d4610" y="251.865413"/>
     <use style="fill:#1f77b4;stroke:#1f77b4;" x="626.40113" xlink:href="#m5a069d4610" y="153.779997"/>
     <use style="fill:#1f77b4;stroke:#1f77b4;" x="431.679402" xlink:href="#m5a069d4610" y="266.103493"/>
     <use style="fill:#1f77b4;stroke:#1f77b4;" x="364.16096" xlink:href="#m5a069d4610" y="353.968639"/>
     <use style="fill:#1f77b4;stroke:#1f77b4;" x="499.972514" xlink:href="#m5a069d4610" y="174.949999"/>
     <use style="fill:#1f77b4;stroke:#1f77b4;" x="454.019697" xlink:href="#m5a069d4610" y="257.735591"/>
     <use style="fill:#1f77b4;stroke:#1f77b4;" x="385.866702" xlink:href="#m5a069d4610" y="288.74159"/>
     <use style="fill:#1f77b4;stroke:#1f77b4;" x="449.398097" xlink:href="#m5a069d4610" y="299.861123"/>
     <use style="fill:#1f77b4;stroke:#1f77b4;" x="444.765896" xlink:href="#m5a069d4610" y="328.575957"/>
     <use style="fill:#1f77b4;stroke:#1f77b4;" x="467.932309" xlink:href="#m5a069d4610" y="283.996582"/>
     <use style="fill:#1f77b4;stroke:#1f77b4;" x="629.640519" xlink:href="#m5a069d4610" y="241.614601"/>
     <use style="fill:#1f77b4;stroke:#1f77b4;" x="591.313195" xlink:href="#m5a069d4610" y="262.334417"/>
     <use style="fill:#1f77b4;stroke:#1f77b4;" x="445.453546" xlink:href="#m5a069d4610" y="215.891408"/>
     <use style="fill:#1f77b4;stroke:#1f77b4;" x="445.43532" xlink:href="#m5a069d4610" y="290.615573"/>
     <use style="fill:#1f77b4;stroke:#1f77b4;" x="398.102272" xlink:href="#m5a069d4610" y="335.699063"/>
     <use style="fill:#1f77b4;stroke:#1f77b4;" x="454.019697" xlink:href="#m5a069d4610" y="306.79405"/>
     <use style="fill:#1f77b4;stroke:#1f77b4;" x="515.084781" xlink:href="#m5a069d4610" y="323.677621"/>
     <use style="fill:#1f77b4;stroke:#1f77b4;" x="466.909976" xlink:href="#m5a069d4610" y="281.693146"/>
     <use style="fill:#1f77b4;stroke:#1f77b4;" x="338.376653" xlink:href="#m5a069d4610" y="364.784868"/>
     <use style="fill:#1f77b4;stroke:#1f77b4;" x="361.421005" xlink:href="#m5a069d4610" y="390.294046"/>
     <use style="fill:#1f77b4;stroke:#1f77b4;" x="440.480579" xlink:href="#m5a069d4610" y="380.754882"/>
     <use style="fill:#1f77b4;stroke:#1f77b4;" x="467.604402" xlink:href="#m5a069d4610" y="358.353583"/>
     <use style="fill:#1f77b4;stroke:#1f77b4;" x="557.819606" xlink:href="#m5a069d4610" y="155.85325"/>
     <use style="fill:#1f77b4;stroke:#1f77b4;" x="401.221564" xlink:href="#m5a069d4610" y="368.946103"/>
     <use style="fill:#1f77b4;stroke:#1f77b4;" x="561.016134" xlink:href="#m5a069d4610" y="158.882888"/>
     <use style="fill:#1f77b4;stroke:#1f77b4;" x="427.961631" xlink:href="#m5a069d4610" y="256.60882"/>
     <use style="fill:#1f77b4;stroke:#1f77b4;" x="375.337323" xlink:href="#m5a069d4610" y="279.451431"/>
     <use style="fill:#1f77b4;stroke:#1f77b4;" x="431.728773" xlink:href="#m5a069d4610" y="310.858842"/>
     <use style="fill:#1f77b4;stroke:#1f77b4;" x="359.877693" xlink:href="#m5a069d4610" y="377.389416"/>
     <use style="fill:#1f77b4;stroke:#1f77b4;" x="449.429643" xlink:href="#m5a069d4610" y="319.255628"/>
     <use style="fill:#1f77b4;stroke:#1f77b4;" x="467.805542" xlink:href="#m5a069d4610" y="348.948185"/>
     <use style="fill:#1f77b4;stroke:#1f77b4;" x="541.032738" xlink:href="#m5a069d4610" y="250.484646"/>
     <use style="fill:#1f77b4;stroke:#1f77b4;" x="557.127606" xlink:href="#m5a069d4610" y="199.907591"/>
     <use style="fill:#1f77b4;stroke:#1f77b4;" x="480.247155" xlink:href="#m5a069d4610" y="319.069324"/>
     <use style="fill:#1f77b4;stroke:#1f77b4;" x="484.420775" xlink:href="#m5a069d4610" y="267.766878"/>
     <use style="fill:#1f77b4;stroke:#1f77b4;" x="742.825295" xlink:href="#m5a069d4610" y="287.093719"/>
     <use style="fill:#1f77b4;stroke:#1f77b4;" x="614.923279" xlink:href="#m5a069d4610" y="158.777734"/>
     <use style="fill:#1f77b4;stroke:#1f77b4;" x="399.863223" xlink:href="#m5a069d4610" y="284.850162"/>
     <use style="fill:#1f77b4;stroke:#1f77b4;" x="446.177798" xlink:href="#m5a069d4610" y="302.93149"/>
     <use style="fill:#1f77b4;stroke:#1f77b4;" x="395.090915" xlink:href="#m5a069d4610" y="332.151355"/>
     <use style="fill:#1f77b4;stroke:#1f77b4;" x="458.006513" xlink:href="#m5a069d4610" y="316.618832"/>
     <use style="fill:#1f77b4;stroke:#1f77b4;" x="477.916976" xlink:href="#m5a069d4610" y="301.284685"/>
     <use style="fill:#1f77b4;stroke:#1f77b4;" x="549.045973" xlink:href="#m5a069d4610" y="234.993322"/>
     <use style="fill:#1f77b4;stroke:#1f77b4;" x="307.023554" xlink:href="#m5a069d4610" y="360.538923"/>
     <use style="fill:#1f77b4;stroke:#1f77b4;" x="421.903022" xlink:href="#m5a069d4610" y="333.534515"/>
     <use style="fill:#1f77b4;stroke:#1f77b4;" x="470.206888" xlink:href="#m5a069d4610" y="283.408657"/>
     <use style="fill:#1f77b4;stroke:#1f77b4;" x="401.62155" xlink:href="#m5a069d4610" y="360.651679"/>
     <use style="fill:#1f77b4;stroke:#1f77b4;" x="466.270681" xlink:href="#m5a069d4610" y="279.127181"/>
     <use style="fill:#1f77b4;stroke:#1f77b4;" x="441.8058" xlink:href="#m5a069d4610" y="326.943476"/>
     <use style="fill:#1f77b4;stroke:#1f77b4;" x="486.688987" xlink:href="#m5a069d4610" y="255.538881"/>
     <use style="fill:#1f77b4;stroke:#1f77b4;" x="405.409368" xlink:href="#m5a069d4610" y="279.441613"/>
     <use style="fill:#1f77b4;stroke:#1f77b4;" x="392.515775" xlink:href="#m5a069d4610" y="329.427245"/>
     <use style="fill:#1f77b4;stroke:#1f77b4;" x="616.405285" xlink:href="#m5a069d4610" y="222.181235"/>
     <use style="fill:#1f77b4;stroke:#1f77b4;" x="518.061877" xlink:href="#m5a069d4610" y="219.969157"/>
     <use style="fill:#1f77b4;stroke:#1f77b4;" x="450.079602" xlink:href="#m5a069d4610" y="287.483853"/>
     <use style="fill:#1f77b4;stroke:#1f77b4;" x="627.553345" xlink:href="#m5a069d4610" y="176.674471"/>
     <use style="fill:#1f77b4;stroke:#1f77b4;" x="408.643982" xlink:href="#m5a069d4610" y="319.2463"/>
     <use style="fill:#1f77b4;stroke:#1f77b4;" x="515.208813" xlink:href="#m5a069d4610" y="241.923023"/>
     <use style="fill:#1f77b4;stroke:#1f77b4;" x="465.321258" xlink:href="#m5a069d4610" y="313.421337"/>
     <use style="fill:#1f77b4;stroke:#1f77b4;" x="570.476286" xlink:href="#m5a069d4610" y="248.964763"/>
     <use style="fill:#1f77b4;stroke:#1f77b4;" x="234.943282" xlink:href="#m5a069d4610" y="460.782423"/>
     <use style="fill:#1f77b4;stroke:#1f77b4;" x="496.489774" xlink:href="#m5a069d4610" y="282.442923"/>
     <use style="fill:#1f77b4;stroke:#1f77b4;" x="411.992017" xlink:href="#m5a069d4610" y="311.191522"/>
     <use style="fill:#1f77b4;stroke:#1f77b4;" x="226.225648" xlink:href="#m5a069d4610" y="486.159962"/>
     <use style="fill:#1f77b4;stroke:#1f77b4;" x="634.065257" xlink:href="#m5a069d4610" y="246.468909"/>
     <use style="fill:#1f77b4;stroke:#1f77b4;" x="379.59398" xlink:href="#m5a069d4610" y="341.565483"/>
     <use style="fill:#1f77b4;stroke:#1f77b4;" x="557.77943" xlink:href="#m5a069d4610" y="344.262335"/>
     <use style="fill:#1f77b4;stroke:#1f77b4;" x="438.456892" xlink:href="#m5a069d4610" y="248.021792"/>
     <use style="fill:#1f77b4;stroke:#1f77b4;" x="360.281289" xlink:href="#m5a069d4610" y="360.089379"/>
     <use style="fill:#1f77b4;stroke:#1f77b4;" x="721.930539" xlink:href="#m5a069d4610" y="173.199154"/>
     <use style="fill:#1f77b4;stroke:#1f77b4;" x="600.257276" xlink:href="#m5a069d4610" y="95.600038"/>
     <use style="fill:#1f77b4;stroke:#1f77b4;" x="341.845368" xlink:href="#m5a069d4610" y="383.527743"/>
     <use style="fill:#1f77b4;stroke:#1f77b4;" x="528.459869" xlink:href="#m5a069d4610" y="298.151073"/>
     <use style="fill:#1f77b4;stroke:#1f77b4;" x="545.38422" xlink:href="#m5a069d4610" y="285.607671"/>
     <use style="fill:#1f77b4;stroke:#1f77b4;" x="414.709484" xlink:href="#m5a069d4610" y="306.918408"/>
     <use style="fill:#1f77b4;stroke:#1f77b4;" x="298.84057" xlink:href="#m5a069d4610" y="411.948465"/>
     <use style="fill:#1f77b4;stroke:#1f77b4;" x="510.317241" xlink:href="#m5a069d4610" y="260.237281"/>
     <use style="fill:#1f77b4;stroke:#1f77b4;" x="457.721218" xlink:href="#m5a069d4610" y="224.256233"/>
     <use style="fill:#1f77b4;stroke:#1f77b4;" x="424.434676" xlink:href="#m5a069d4610" y="226.718934"/>
     <use style="fill:#1f77b4;stroke:#1f77b4;" x="550.881276" xlink:href="#m5a069d4610" y="113.852813"/>
     <use style="fill:#1f77b4;stroke:#1f77b4;" x="392.17193" xlink:href="#m5a069d4610" y="311.606496"/>
     <use style="fill:#1f77b4;stroke:#1f77b4;" x="424.461768" xlink:href="#m5a069d4610" y="324.782253"/>
     <use style="fill:#1f77b4;stroke:#1f77b4;" x="442.853671" xlink:href="#m5a069d4610" y="306.087534"/>
     <use style="fill:#1f77b4;stroke:#1f77b4;" x="483.878401" xlink:href="#m5a069d4610" y="309.439027"/>
     <use style="fill:#1f77b4;stroke:#1f77b4;" x="328.052435" xlink:href="#m5a069d4610" y="323.509473"/>
     <use style="fill:#1f77b4;stroke:#1f77b4;" x="457.844017" xlink:href="#m5a069d4610" y="203.406306"/>
     <use style="fill:#1f77b4;stroke:#1f77b4;" x="446.378301" xlink:href="#m5a069d4610" y="223.287573"/>
     <use style="fill:#1f77b4;stroke:#1f77b4;" x="415.740216" xlink:href="#m5a069d4610" y="317.330555"/>
     <use style="fill:#1f77b4;stroke:#1f77b4;" x="523.582754" xlink:href="#m5a069d4610" y="244.925654"/>
     <use style="fill:#1f77b4;stroke:#1f77b4;" x="435.024135" xlink:href="#m5a069d4610" y="249.213772"/>
     <use style="fill:#1f77b4;stroke:#1f77b4;" x="560.898037" xlink:href="#m5a069d4610" y="242.458838"/>
     <use style="fill:#1f77b4;stroke:#1f77b4;" x="349.899509" xlink:href="#m5a069d4610" y="395.962897"/>
     <use style="fill:#1f77b4;stroke:#1f77b4;" x="469.288031" xlink:href="#m5a069d4610" y="273.416027"/>
     <use style="fill:#1f77b4;stroke:#1f77b4;" x="431.203539" xlink:href="#m5a069d4610" y="289.693188"/>
     <use style="fill:#1f77b4;stroke:#1f77b4;" x="366.060344" xlink:href="#m5a069d4610" y="387.272011"/>
     <use style="fill:#1f77b4;stroke:#1f77b4;" x="461.838801" xlink:href="#m5a069d4610" y="289.508236"/>
     <use style="fill:#1f77b4;stroke:#1f77b4;" x="391.587863" xlink:href="#m5a069d4610" y="286.773049"/>
     <use style="fill:#1f77b4;stroke:#1f77b4;" x="493.652873" xlink:href="#m5a069d4610" y="210.836535"/>
     <use style="fill:#1f77b4;stroke:#1f77b4;" x="422.621586" xlink:href="#m5a069d4610" y="353.146824"/>
     <use style="fill:#1f77b4;stroke:#1f77b4;" x="517.308439" xlink:href="#m5a069d4610" y="229.988931"/>
     <use style="fill:#1f77b4;stroke:#1f77b4;" x="543.592205" xlink:href="#m5a069d4610" y="149.574579"/>
     <use style="fill:#1f77b4;stroke:#1f77b4;" x="454.019697" xlink:href="#m5a069d4610" y="287.799545"/>
     <use style="fill:#1f77b4;stroke:#1f77b4;" x="400.681451" xlink:href="#m5a069d4610" y="298.66487"/>
     <use style="fill:#1f77b4;stroke:#1f77b4;" x="376.801376" xlink:href="#m5a069d4610" y="390.02119"/>
     <use style="fill:#1f77b4;stroke:#1f77b4;" x="465.82845" xlink:href="#m5a069d4610" y="284.568408"/>
     <use style="fill:#1f77b4;stroke:#1f77b4;" x="410.847294" xlink:href="#m5a069d4610" y="347.410212"/>
     <use style="fill:#1f77b4;stroke:#1f77b4;" x="477.822985" xlink:href="#m5a069d4610" y="257.662592"/>
     <use style="fill:#1f77b4;stroke:#1f77b4;" x="457.963644" xlink:href="#m5a069d4610" y="266.902621"/>
     <use style="fill:#1f77b4;stroke:#1f77b4;" x="513.121123" xlink:href="#m5a069d4610" y="212.688398"/>
     <use style="fill:#1f77b4;stroke:#1f77b4;" x="368.589032" xlink:href="#m5a069d4610" y="364.768225"/>
     <use style="fill:#1f77b4;stroke:#1f77b4;" x="501.626273" xlink:href="#m5a069d4610" y="301.796624"/>
     <use style="fill:#1f77b4;stroke:#1f77b4;" x="387.363551" xlink:href="#m5a069d4610" y="323.38262"/>
     <use style="fill:#1f77b4;stroke:#1f77b4;" x="382.257018" xlink:href="#m5a069d4610" y="337.047711"/>
     <use style="fill:#1f77b4;stroke:#1f77b4;" x="360.662436" xlink:href="#m5a069d4610" y="284.65688"/>
     <use style="fill:#1f77b4;stroke:#1f77b4;" x="345.985619" xlink:href="#m5a069d4610" y="347.935892"/>
     <use style="fill:#1f77b4;stroke:#1f77b4;" x="441.211261" xlink:href="#m5a069d4610" y="258.786342"/>
     <use style="fill:#1f77b4;stroke:#1f77b4;" x="419.755092" xlink:href="#m5a069d4610" y="309.335251"/>
     <use style="fill:#1f77b4;stroke:#1f77b4;" x="436.740651" xlink:href="#m5a069d4610" y="306.832113"/>
     <use style="fill:#1f77b4;stroke:#1f77b4;" x="445.343015" xlink:href="#m5a069d4610" y="315.929997"/>
     <use style="fill:#1f77b4;stroke:#1f77b4;" x="497.496608" xlink:href="#m5a069d4610" y="265.759537"/>
    </g>
   </g>
   <g id="matplotlib.axis_1">
    <g id="xtick_1">
     <g id="line2d_1">
      <defs>
       <path d="M 0 0 
L 0 3.5 
" id="mb16b8da9e2" style="stroke:#000000;stroke-width:0.8;"/>
      </defs>
      <g>
       <use style="stroke:#000000;stroke-width:0.8;" x="131.247113" xlink:href="#mb16b8da9e2" y="512.64"/>
      </g>
     </g>
     <g id="text_1">
      <!-- -0.08 -->
      <defs>
       <path d="M 4.890625 31.390625 
L 31.203125 31.390625 
L 31.203125 23.390625 
L 4.890625 23.390625 
z
" id="DejaVuSans-45"/>
       <path d="M 31.78125 66.40625 
Q 24.171875 66.40625 20.328125 58.90625 
Q 16.5 51.421875 16.5 36.375 
Q 16.5 21.390625 20.328125 13.890625 
Q 24.171875 6.390625 31.78125 6.390625 
Q 39.453125 6.390625 43.28125 13.890625 
Q 47.125 21.390625 47.125 36.375 
Q 47.125 51.421875 43.28125 58.90625 
Q 39.453125 66.40625 31.78125 66.40625 
z
M 31.78125 74.21875 
Q 44.046875 74.21875 50.515625 64.515625 
Q 56.984375 54.828125 56.984375 36.375 
Q 56.984375 17.96875 50.515625 8.265625 
Q 44.046875 -1.421875 31.78125 -1.421875 
Q 19.53125 -1.421875 13.0625 8.265625 
Q 6.59375 17.96875 6.59375 36.375 
Q 6.59375 54.828125 13.0625 64.515625 
Q 19.53125 74.21875 31.78125 74.21875 
z
" id="DejaVuSans-48"/>
       <path d="M 10.6875 12.40625 
L 21 12.40625 
L 21 0 
L 10.6875 0 
z
" id="DejaVuSans-46"/>
       <path d="M 31.78125 34.625 
Q 24.75 34.625 20.71875 30.859375 
Q 16.703125 27.09375 16.703125 20.515625 
Q 16.703125 13.921875 20.71875 10.15625 
Q 24.75 6.390625 31.78125 6.390625 
Q 38.8125 6.390625 42.859375 10.171875 
Q 46.921875 13.96875 46.921875 20.515625 
Q 46.921875 27.09375 42.890625 30.859375 
Q 38.875 34.625 31.78125 34.625 
z
M 21.921875 38.8125 
Q 15.578125 40.375 12.03125 44.71875 
Q 8.5 49.078125 8.5 55.328125 
Q 8.5 64.0625 14.71875 69.140625 
Q 20.953125 74.21875 31.78125 74.21875 
Q 42.671875 74.21875 48.875 69.140625 
Q 55.078125 64.0625 55.078125 55.328125 
Q 55.078125 49.078125 51.53125 44.71875 
Q 48 40.375 41.703125 38.8125 
Q 48.828125 37.15625 52.796875 32.3125 
Q 56.78125 27.484375 56.78125 20.515625 
Q 56.78125 9.90625 50.3125 4.234375 
Q 43.84375 -1.421875 31.78125 -1.421875 
Q 19.734375 -1.421875 13.25 4.234375 
Q 6.78125 9.90625 6.78125 20.515625 
Q 6.78125 27.484375 10.78125 32.3125 
Q 14.796875 37.15625 21.921875 38.8125 
z
M 18.3125 54.390625 
Q 18.3125 48.734375 21.84375 45.5625 
Q 25.390625 42.390625 31.78125 42.390625 
Q 38.140625 42.390625 41.71875 45.5625 
Q 45.3125 48.734375 45.3125 54.390625 
Q 45.3125 60.0625 41.71875 63.234375 
Q 38.140625 66.40625 31.78125 66.40625 
Q 25.390625 66.40625 21.84375 63.234375 
Q 18.3125 60.0625 18.3125 54.390625 
z
" id="DejaVuSans-56"/>
      </defs>
      <g transform="translate(118.310394 527.238438)scale(0.1 -0.1)">
       <use xlink:href="#DejaVuSans-45"/>
       <use x="36.083984" xlink:href="#DejaVuSans-48"/>
       <use x="99.707031" xlink:href="#DejaVuSans-46"/>
       <use x="131.494141" xlink:href="#DejaVuSans-48"/>
       <use x="195.117188" xlink:href="#DejaVuSans-56"/>
      </g>
     </g>
    </g>
    <g id="xtick_2">
     <g id="line2d_2">
      <g>
       <use style="stroke:#000000;stroke-width:0.8;" x="211.940259" xlink:href="#mb16b8da9e2" y="512.64"/>
      </g>
     </g>
     <g id="text_2">
      <!-- -0.06 -->
      <defs>
       <path d="M 33.015625 40.375 
Q 26.375 40.375 22.484375 35.828125 
Q 18.609375 31.296875 18.609375 23.390625 
Q 18.609375 15.53125 22.484375 10.953125 
Q 26.375 6.390625 33.015625 6.390625 
Q 39.65625 6.390625 43.53125 10.953125 
Q 47.40625 15.53125 47.40625 23.390625 
Q 47.40625 31.296875 43.53125 35.828125 
Q 39.65625 40.375 33.015625 40.375 
z
M 52.59375 71.296875 
L 52.59375 62.3125 
Q 48.875 64.0625 45.09375 64.984375 
Q 41.3125 65.921875 37.59375 65.921875 
Q 27.828125 65.921875 22.671875 59.328125 
Q 17.53125 52.734375 16.796875 39.40625 
Q 19.671875 43.65625 24.015625 45.921875 
Q 28.375 48.1875 33.59375 48.1875 
Q 44.578125 48.1875 50.953125 41.515625 
Q 57.328125 34.859375 57.328125 23.390625 
Q 57.328125 12.15625 50.6875 5.359375 
Q 44.046875 -1.421875 33.015625 -1.421875 
Q 20.359375 -1.421875 13.671875 8.265625 
Q 6.984375 17.96875 6.984375 36.375 
Q 6.984375 53.65625 15.1875 63.9375 
Q 23.390625 74.21875 37.203125 74.21875 
Q 40.921875 74.21875 44.703125 73.484375 
Q 48.484375 72.75 52.59375 71.296875 
z
" id="DejaVuSans-54"/>
      </defs>
      <g transform="translate(199.00354 527.238438)scale(0.1 -0.1)">
       <use xlink:href="#DejaVuSans-45"/>
       <use x="36.083984" xlink:href="#DejaVuSans-48"/>
       <use x="99.707031" xlink:href="#DejaVuSans-46"/>
       <use x="131.494141" xlink:href="#DejaVuSans-48"/>
       <use x="195.117188" xlink:href="#DejaVuSans-54"/>
      </g>
     </g>
    </g>
    <g id="xtick_3">
     <g id="line2d_3">
      <g>
       <use style="stroke:#000000;stroke-width:0.8;" x="292.633405" xlink:href="#mb16b8da9e2" y="512.64"/>
      </g>
     </g>
     <g id="text_3">
      <!-- -0.04 -->
      <defs>
       <path d="M 37.796875 64.3125 
L 12.890625 25.390625 
L 37.796875 25.390625 
z
M 35.203125 72.90625 
L 47.609375 72.90625 
L 47.609375 25.390625 
L 58.015625 25.390625 
L 58.015625 17.1875 
L 47.609375 17.1875 
L 47.609375 0 
L 37.796875 0 
L 37.796875 17.1875 
L 4.890625 17.1875 
L 4.890625 26.703125 
z
" id="DejaVuSans-52"/>
      </defs>
      <g transform="translate(279.696686 527.238438)scale(0.1 -0.1)">
       <use xlink:href="#DejaVuSans-45"/>
       <use x="36.083984" xlink:href="#DejaVuSans-48"/>
       <use x="99.707031" xlink:href="#DejaVuSans-46"/>
       <use x="131.494141" xlink:href="#DejaVuSans-48"/>
       <use x="195.117188" xlink:href="#DejaVuSans-52"/>
      </g>
     </g>
    </g>
    <g id="xtick_4">
     <g id="line2d_4">
      <g>
       <use style="stroke:#000000;stroke-width:0.8;" x="373.326551" xlink:href="#mb16b8da9e2" y="512.64"/>
      </g>
     </g>
     <g id="text_4">
      <!-- -0.02 -->
      <defs>
       <path d="M 19.1875 8.296875 
L 53.609375 8.296875 
L 53.609375 0 
L 7.328125 0 
L 7.328125 8.296875 
Q 12.9375 14.109375 22.625 23.890625 
Q 32.328125 33.6875 34.8125 36.53125 
Q 39.546875 41.84375 41.421875 45.53125 
Q 43.3125 49.21875 43.3125 52.78125 
Q 43.3125 58.59375 39.234375 62.25 
Q 35.15625 65.921875 28.609375 65.921875 
Q 23.96875 65.921875 18.8125 64.3125 
Q 13.671875 62.703125 7.8125 59.421875 
L 7.8125 69.390625 
Q 13.765625 71.78125 18.9375 73 
Q 24.125 74.21875 28.421875 74.21875 
Q 39.75 74.21875 46.484375 68.546875 
Q 53.21875 62.890625 53.21875 53.421875 
Q 53.21875 48.921875 51.53125 44.890625 
Q 49.859375 40.875 45.40625 35.40625 
Q 44.1875 33.984375 37.640625 27.21875 
Q 31.109375 20.453125 19.1875 8.296875 
z
" id="DejaVuSans-50"/>
      </defs>
      <g transform="translate(360.389832 527.238438)scale(0.1 -0.1)">
       <use xlink:href="#DejaVuSans-45"/>
       <use x="36.083984" xlink:href="#DejaVuSans-48"/>
       <use x="99.707031" xlink:href="#DejaVuSans-46"/>
       <use x="131.494141" xlink:href="#DejaVuSans-48"/>
       <use x="195.117188" xlink:href="#DejaVuSans-50"/>
      </g>
     </g>
    </g>
    <g id="xtick_5">
     <g id="line2d_5">
      <g>
       <use style="stroke:#000000;stroke-width:0.8;" x="454.019697" xlink:href="#mb16b8da9e2" y="512.64"/>
      </g>
     </g>
     <g id="text_5">
      <!-- 0.00 -->
      <g transform="translate(442.886885 527.238438)scale(0.1 -0.1)">
       <use xlink:href="#DejaVuSans-48"/>
       <use x="63.623047" xlink:href="#DejaVuSans-46"/>
       <use x="95.410156" xlink:href="#DejaVuSans-48"/>
       <use x="159.033203" xlink:href="#DejaVuSans-48"/>
      </g>
     </g>
    </g>
    <g id="xtick_6">
     <g id="line2d_6">
      <g>
       <use style="stroke:#000000;stroke-width:0.8;" x="534.712843" xlink:href="#mb16b8da9e2" y="512.64"/>
      </g>
     </g>
     <g id="text_6">
      <!-- 0.02 -->
      <g transform="translate(523.580031 527.238438)scale(0.1 -0.1)">
       <use xlink:href="#DejaVuSans-48"/>
       <use x="63.623047" xlink:href="#DejaVuSans-46"/>
       <use x="95.410156" xlink:href="#DejaVuSans-48"/>
       <use x="159.033203" xlink:href="#DejaVuSans-50"/>
      </g>
     </g>
    </g>
    <g id="xtick_7">
     <g id="line2d_7">
      <g>
       <use style="stroke:#000000;stroke-width:0.8;" x="615.40599" xlink:href="#mb16b8da9e2" y="512.64"/>
      </g>
     </g>
     <g id="text_7">
      <!-- 0.04 -->
      <g transform="translate(604.273177 527.238438)scale(0.1 -0.1)">
       <use xlink:href="#DejaVuSans-48"/>
       <use x="63.623047" xlink:href="#DejaVuSans-46"/>
       <use x="95.410156" xlink:href="#DejaVuSans-48"/>
       <use x="159.033203" xlink:href="#DejaVuSans-52"/>
      </g>
     </g>
    </g>
    <g id="xtick_8">
     <g id="line2d_8">
      <g>
       <use style="stroke:#000000;stroke-width:0.8;" x="696.099136" xlink:href="#mb16b8da9e2" y="512.64"/>
      </g>
     </g>
     <g id="text_8">
      <!-- 0.06 -->
      <g transform="translate(684.966323 527.238438)scale(0.1 -0.1)">
       <use xlink:href="#DejaVuSans-48"/>
       <use x="63.623047" xlink:href="#DejaVuSans-46"/>
       <use x="95.410156" xlink:href="#DejaVuSans-48"/>
       <use x="159.033203" xlink:href="#DejaVuSans-54"/>
      </g>
     </g>
    </g>
    <g id="xtick_9">
     <g id="line2d_9">
      <g>
       <use style="stroke:#000000;stroke-width:0.8;" x="776.792282" xlink:href="#mb16b8da9e2" y="512.64"/>
      </g>
     </g>
     <g id="text_9">
      <!-- 0.08 -->
      <g transform="translate(765.659469 527.238438)scale(0.1 -0.1)">
       <use xlink:href="#DejaVuSans-48"/>
       <use x="63.623047" xlink:href="#DejaVuSans-46"/>
       <use x="95.410156" xlink:href="#DejaVuSans-48"/>
       <use x="159.033203" xlink:href="#DejaVuSans-56"/>
      </g>
     </g>
    </g>
    <g id="text_10">
     <!-- 000001.SZ -->
     <defs>
      <path d="M 12.40625 8.296875 
L 28.515625 8.296875 
L 28.515625 63.921875 
L 10.984375 60.40625 
L 10.984375 69.390625 
L 28.421875 72.90625 
L 38.28125 72.90625 
L 38.28125 8.296875 
L 54.390625 8.296875 
L 54.390625 0 
L 12.40625 0 
z
" id="DejaVuSans-49"/>
      <path d="M 53.515625 70.515625 
L 53.515625 60.890625 
Q 47.90625 63.578125 42.921875 64.890625 
Q 37.9375 66.21875 33.296875 66.21875 
Q 25.25 66.21875 20.875 63.09375 
Q 16.5 59.96875 16.5 54.203125 
Q 16.5 49.359375 19.40625 46.890625 
Q 22.3125 44.4375 30.421875 42.921875 
L 36.375 41.703125 
Q 47.40625 39.59375 52.65625 34.296875 
Q 57.90625 29 57.90625 20.125 
Q 57.90625 9.515625 50.796875 4.046875 
Q 43.703125 -1.421875 29.984375 -1.421875 
Q 24.8125 -1.421875 18.96875 -0.25 
Q 13.140625 0.921875 6.890625 3.21875 
L 6.890625 13.375 
Q 12.890625 10.015625 18.65625 8.296875 
Q 24.421875 6.59375 29.984375 6.59375 
Q 38.421875 6.59375 43.015625 9.90625 
Q 47.609375 13.234375 47.609375 19.390625 
Q 47.609375 24.75 44.3125 27.78125 
Q 41.015625 30.8125 33.5 32.328125 
L 27.484375 33.5 
Q 16.453125 35.6875 11.515625 40.375 
Q 6.59375 45.0625 6.59375 53.421875 
Q 6.59375 63.09375 13.40625 68.65625 
Q 20.21875 74.21875 32.171875 74.21875 
Q 37.3125 74.21875 42.625 73.28125 
Q 47.953125 72.359375 53.515625 70.515625 
z
" id="DejaVuSans-83"/>
      <path d="M 5.609375 72.90625 
L 62.890625 72.90625 
L 62.890625 65.375 
L 16.796875 8.296875 
L 64.015625 8.296875 
L 64.015625 0 
L 4.5 0 
L 4.5 7.515625 
L 50.59375 64.59375 
L 5.609375 64.59375 
z
" id="DejaVuSans-90"/>
     </defs>
     <g transform="translate(415.524219 540.916563)scale(0.1 -0.1)">
      <use xlink:href="#DejaVuSans-48"/>
      <use x="63.623047" xlink:href="#DejaVuSans-48"/>
      <use x="127.246094" xlink:href="#DejaVuSans-48"/>
      <use x="190.869141" xlink:href="#DejaVuSans-48"/>
      <use x="254.492188" xlink:href="#DejaVuSans-48"/>
      <use x="318.115234" xlink:href="#DejaVuSans-49"/>
      <use x="381.738281" xlink:href="#DejaVuSans-46"/>
      <use x="413.525391" xlink:href="#DejaVuSans-83"/>
      <use x="477.001953" xlink:href="#DejaVuSans-90"/>
     </g>
    </g>
   </g>
   <g id="matplotlib.axis_2">
    <g id="ytick_1">
     <g id="line2d_10">
      <defs>
       <path d="M 0 0 
L -3.5 0 
" id="m2c8d4eb6da" style="stroke:#000000;stroke-width:0.8;"/>
      </defs>
      <g>
       <use style="stroke:#000000;stroke-width:0.8;" x="108" xlink:href="#m2c8d4eb6da" y="438.50525"/>
      </g>
     </g>
     <g id="text_11">
      <!-- -0.04 -->
      <g transform="translate(75.126563 442.304469)scale(0.1 -0.1)">
       <use xlink:href="#DejaVuSans-45"/>
       <use x="36.083984" xlink:href="#DejaVuSans-48"/>
       <use x="99.707031" xlink:href="#DejaVuSans-46"/>
       <use x="131.494141" xlink:href="#DejaVuSans-48"/>
       <use x="195.117188" xlink:href="#DejaVuSans-52"/>
      </g>
     </g>
    </g>
    <g id="ytick_2">
     <g id="line2d_11">
      <g>
       <use style="stroke:#000000;stroke-width:0.8;" x="108" xlink:href="#m2c8d4eb6da" y="360.642378"/>
      </g>
     </g>
     <g id="text_12">
      <!-- -0.02 -->
      <g transform="translate(75.126563 364.441597)scale(0.1 -0.1)">
       <use xlink:href="#DejaVuSans-45"/>
       <use x="36.083984" xlink:href="#DejaVuSans-48"/>
       <use x="99.707031" xlink:href="#DejaVuSans-46"/>
       <use x="131.494141" xlink:href="#DejaVuSans-48"/>
       <use x="195.117188" xlink:href="#DejaVuSans-50"/>
      </g>
     </g>
    </g>
    <g id="ytick_3">
     <g id="line2d_12">
      <g>
       <use style="stroke:#000000;stroke-width:0.8;" x="108" xlink:href="#m2c8d4eb6da" y="282.779506"/>
      </g>
     </g>
     <g id="text_13">
      <!-- 0.00 -->
      <g transform="translate(78.734375 286.578725)scale(0.1 -0.1)">
       <use xlink:href="#DejaVuSans-48"/>
       <use x="63.623047" xlink:href="#DejaVuSans-46"/>
       <use x="95.410156" xlink:href="#DejaVuSans-48"/>
       <use x="159.033203" xlink:href="#DejaVuSans-48"/>
      </g>
     </g>
    </g>
    <g id="ytick_4">
     <g id="line2d_13">
      <g>
       <use style="stroke:#000000;stroke-width:0.8;" x="108" xlink:href="#m2c8d4eb6da" y="204.916634"/>
      </g>
     </g>
     <g id="text_14">
      <!-- 0.02 -->
      <g transform="translate(78.734375 208.715853)scale(0.1 -0.1)">
       <use xlink:href="#DejaVuSans-48"/>
       <use x="63.623047" xlink:href="#DejaVuSans-46"/>
       <use x="95.410156" xlink:href="#DejaVuSans-48"/>
       <use x="159.033203" xlink:href="#DejaVuSans-50"/>
      </g>
     </g>
    </g>
    <g id="ytick_5">
     <g id="line2d_14">
      <g>
       <use style="stroke:#000000;stroke-width:0.8;" x="108" xlink:href="#m2c8d4eb6da" y="127.053762"/>
      </g>
     </g>
     <g id="text_15">
      <!-- 0.04 -->
      <g transform="translate(78.734375 130.852981)scale(0.1 -0.1)">
       <use xlink:href="#DejaVuSans-48"/>
       <use x="63.623047" xlink:href="#DejaVuSans-46"/>
       <use x="95.410156" xlink:href="#DejaVuSans-48"/>
       <use x="159.033203" xlink:href="#DejaVuSans-52"/>
      </g>
     </g>
    </g>
    <g id="text_16">
     <!-- 399004.SZ -->
     <defs>
      <path d="M 40.578125 39.3125 
Q 47.65625 37.796875 51.625 33 
Q 55.609375 28.21875 55.609375 21.1875 
Q 55.609375 10.40625 48.1875 4.484375 
Q 40.765625 -1.421875 27.09375 -1.421875 
Q 22.515625 -1.421875 17.65625 -0.515625 
Q 12.796875 0.390625 7.625 2.203125 
L 7.625 11.71875 
Q 11.71875 9.328125 16.59375 8.109375 
Q 21.484375 6.890625 26.8125 6.890625 
Q 36.078125 6.890625 40.9375 10.546875 
Q 45.796875 14.203125 45.796875 21.1875 
Q 45.796875 27.640625 41.28125 31.265625 
Q 36.765625 34.90625 28.71875 34.90625 
L 20.21875 34.90625 
L 20.21875 43.015625 
L 29.109375 43.015625 
Q 36.375 43.015625 40.234375 45.921875 
Q 44.09375 48.828125 44.09375 54.296875 
Q 44.09375 59.90625 40.109375 62.90625 
Q 36.140625 65.921875 28.71875 65.921875 
Q 24.65625 65.921875 20.015625 65.03125 
Q 15.375 64.15625 9.8125 62.3125 
L 9.8125 71.09375 
Q 15.4375 72.65625 20.34375 73.4375 
Q 25.25 74.21875 29.59375 74.21875 
Q 40.828125 74.21875 47.359375 69.109375 
Q 53.90625 64.015625 53.90625 55.328125 
Q 53.90625 49.265625 50.4375 45.09375 
Q 46.96875 40.921875 40.578125 39.3125 
z
" id="DejaVuSans-51"/>
      <path d="M 10.984375 1.515625 
L 10.984375 10.5 
Q 14.703125 8.734375 18.5 7.8125 
Q 22.3125 6.890625 25.984375 6.890625 
Q 35.75 6.890625 40.890625 13.453125 
Q 46.046875 20.015625 46.78125 33.40625 
Q 43.953125 29.203125 39.59375 26.953125 
Q 35.25 24.703125 29.984375 24.703125 
Q 19.046875 24.703125 12.671875 31.3125 
Q 6.296875 37.9375 6.296875 49.421875 
Q 6.296875 60.640625 12.9375 67.421875 
Q 19.578125 74.21875 30.609375 74.21875 
Q 43.265625 74.21875 49.921875 64.515625 
Q 56.59375 54.828125 56.59375 36.375 
Q 56.59375 19.140625 48.40625 8.859375 
Q 40.234375 -1.421875 26.421875 -1.421875 
Q 22.703125 -1.421875 18.890625 -0.6875 
Q 15.09375 0.046875 10.984375 1.515625 
z
M 30.609375 32.421875 
Q 37.25 32.421875 41.125 36.953125 
Q 45.015625 41.5 45.015625 49.421875 
Q 45.015625 57.28125 41.125 61.84375 
Q 37.25 66.40625 30.609375 66.40625 
Q 23.96875 66.40625 20.09375 61.84375 
Q 16.21875 57.28125 16.21875 49.421875 
Q 16.21875 41.5 20.09375 36.953125 
Q 23.96875 32.421875 30.609375 32.421875 
z
" id="DejaVuSans-57"/>
     </defs>
     <g transform="translate(69.046875 318.155781)rotate(-90)scale(0.1 -0.1)">
      <use xlink:href="#DejaVuSans-51"/>
      <use x="63.623047" xlink:href="#DejaVuSans-57"/>
      <use x="127.246094" xlink:href="#DejaVuSans-57"/>
      <use x="190.869141" xlink:href="#DejaVuSans-48"/>
      <use x="254.492188" xlink:href="#DejaVuSans-48"/>
      <use x="318.115234" xlink:href="#DejaVuSans-52"/>
      <use x="381.738281" xlink:href="#DejaVuSans-46"/>
      <use x="413.525391" xlink:href="#DejaVuSans-83"/>
      <use x="477.001953" xlink:href="#DejaVuSans-90"/>
     </g>
    </g>
   </g>
   <g id="LineCollection_1">
    <path clip-path="url(#p562c0ff303)" d="M 454.019697 577 
L 454.019697 -1 
" style="fill:none;stroke:#000000;stroke-width:1.5;"/>
   </g>
   <g id="LineCollection_2">
    <path clip-path="url(#p562c0ff303)" d="M -1 282.779506 
L 865 282.779506 
" style="fill:none;stroke:#000000;stroke-width:1.5;"/>
   </g>
   <g id="line2d_15">
    <path clip-path="url(#p562c0ff303)" d="M 149.104444 577 
L 748.114438 -1 
" style="fill:none;stroke:#1f77b4;stroke-linecap:square;stroke-width:1.5;"/>
   </g>
   <g id="patch_3">
    <path d="M 108 512.64 
L 108 69.12 
" style="fill:none;stroke:#000000;stroke-linecap:square;stroke-linejoin:miter;stroke-width:0.8;"/>
   </g>
   <g id="patch_4">
    <path d="M 777.6 512.64 
L 777.6 69.12 
" style="fill:none;stroke:#000000;stroke-linecap:square;stroke-linejoin:miter;stroke-width:0.8;"/>
   </g>
   <g id="patch_5">
    <path d="M 108 512.64 
L 777.6 512.64 
" style="fill:none;stroke:#000000;stroke-linecap:square;stroke-linejoin:miter;stroke-width:0.8;"/>
   </g>
   <g id="patch_6">
    <path d="M 108 69.12 
L 777.6 69.12 
" style="fill:none;stroke:#000000;stroke-linecap:square;stroke-linejoin:miter;stroke-width:0.8;"/>
   </g>
  </g>
 </g>
 <defs>
  <clipPath id="p562c0ff303">
   <rect height="443.52" width="669.6" x="108" y="69.12"/>
  </clipPath>
 </defs>
</svg>
