<?xml version="1.0" encoding="utf-8" standalone="no"?>
<!DOCTYPE svg PUBLIC "-//W3C//DTD SVG 1.1//EN"
  "http://www.w3.org/Graphics/SVG/1.1/DTD/svg11.dtd">
<!-- Created with matplotlib (https://matplotlib.org/) -->
<svg height="345.6pt" version="1.1" viewBox="0 0 460.8 345.6" width="460.8pt" xmlns="http://www.w3.org/2000/svg" xmlns:xlink="http://www.w3.org/1999/xlink">
 <defs>
  <style type="text/css">
*{stroke-linecap:butt;stroke-linejoin:round;}
  </style>
 </defs>
 <g id="figure_1">
  <g id="patch_1">
   <path d="M 0 345.6 
L 460.8 345.6 
L 460.8 0 
L 0 0 
z
" style="fill:#ffffff;"/>
  </g>
  <g id="axes_1">
   <g id="patch_2">
    <path d="M 57.6 307.584 
L 414.72 307.584 
L 414.72 41.472 
L 57.6 41.472 
z
" style="fill:#ffffff;"/>
   </g>
   <g id="matplotlib.axis_1">
    <g id="xtick_1">
     <g id="line2d_1">
      <defs>
       <path d="M 0 0 
L 0 3.5 
" id="m03b0529b61" style="stroke:#000000;stroke-width:0.8;"/>
      </defs>
      <g>
       <use style="stroke:#000000;stroke-width:0.8;" x="57.206214" xlink:href="#m03b0529b61" y="307.584"/>
      </g>
     </g>
    </g>
    <g id="xtick_2">
     <g id="line2d_2">
      <g>
       <use style="stroke:#000000;stroke-width:0.8;" x="72.957648" xlink:href="#m03b0529b61" y="307.584"/>
      </g>
     </g>
     <g id="text_1">
      <!-- 2004 -->
      <defs>
       <path d="M 19.1875 8.296875 
L 53.609375 8.296875 
L 53.609375 0 
L 7.328125 0 
L 7.328125 8.296875 
Q 12.9375 14.109375 22.625 23.890625 
Q 32.328125 33.6875 34.8125 36.53125 
Q 39.546875 41.84375 41.421875 45.53125 
Q 43.3125 49.21875 43.3125 52.78125 
Q 43.3125 58.59375 39.234375 62.25 
Q 35.15625 65.921875 28.609375 65.921875 
Q 23.96875 65.921875 18.8125 64.3125 
Q 13.671875 62.703125 7.8125 59.421875 
L 7.8125 69.390625 
Q 13.765625 71.78125 18.9375 73 
Q 24.125 74.21875 28.421875 74.21875 
Q 39.75 74.21875 46.484375 68.546875 
Q 53.21875 62.890625 53.21875 53.421875 
Q 53.21875 48.921875 51.53125 44.890625 
Q 49.859375 40.875 45.40625 35.40625 
Q 44.1875 33.984375 37.640625 27.21875 
Q 31.109375 20.453125 19.1875 8.296875 
z
" id="DejaVuSans-50"/>
       <path d="M 31.78125 66.40625 
Q 24.171875 66.40625 20.328125 58.90625 
Q 16.5 51.421875 16.5 36.375 
Q 16.5 21.390625 20.328125 13.890625 
Q 24.171875 6.390625 31.78125 6.390625 
Q 39.453125 6.390625 43.28125 13.890625 
Q 47.125 21.390625 47.125 36.375 
Q 47.125 51.421875 43.28125 58.90625 
Q 39.453125 66.40625 31.78125 66.40625 
z
M 31.78125 74.21875 
Q 44.046875 74.21875 50.515625 64.515625 
Q 56.984375 54.828125 56.984375 36.375 
Q 56.984375 17.96875 50.515625 8.265625 
Q 44.046875 -1.421875 31.78125 -1.421875 
Q 19.53125 -1.421875 13.0625 8.265625 
Q 6.59375 17.96875 6.59375 36.375 
Q 6.59375 54.828125 13.0625 64.515625 
Q 19.53125 74.21875 31.78125 74.21875 
z
" id="DejaVuSans-48"/>
       <path d="M 37.796875 64.3125 
L 12.890625 25.390625 
L 37.796875 25.390625 
z
M 35.203125 72.90625 
L 47.609375 72.90625 
L 47.609375 25.390625 
L 58.015625 25.390625 
L 58.015625 17.1875 
L 47.609375 17.1875 
L 47.609375 0 
L 37.796875 0 
L 37.796875 17.1875 
L 4.890625 17.1875 
L 4.890625 26.703125 
z
" id="DejaVuSans-52"/>
      </defs>
      <g transform="translate(60.232648 322.182437)scale(0.1 -0.1)">
       <use xlink:href="#DejaVuSans-50"/>
       <use x="63.623047" xlink:href="#DejaVuSans-48"/>
       <use x="127.246094" xlink:href="#DejaVuSans-48"/>
       <use x="190.869141" xlink:href="#DejaVuSans-52"/>
      </g>
     </g>
    </g>
    <g id="xtick_3">
     <g id="line2d_3">
      <g>
       <use style="stroke:#000000;stroke-width:0.8;" x="118.461789" xlink:href="#m03b0529b61" y="307.584"/>
      </g>
     </g>
     <g id="text_2">
      <!-- 2005 -->
      <defs>
       <path d="M 10.796875 72.90625 
L 49.515625 72.90625 
L 49.515625 64.59375 
L 19.828125 64.59375 
L 19.828125 46.734375 
Q 21.96875 47.46875 24.109375 47.828125 
Q 26.265625 48.1875 28.421875 48.1875 
Q 40.625 48.1875 47.75 41.5 
Q 54.890625 34.8125 54.890625 23.390625 
Q 54.890625 11.625 47.5625 5.09375 
Q 40.234375 -1.421875 26.90625 -1.421875 
Q 22.3125 -1.421875 17.546875 -0.640625 
Q 12.796875 0.140625 7.71875 1.703125 
L 7.71875 11.625 
Q 12.109375 9.234375 16.796875 8.0625 
Q 21.484375 6.890625 26.703125 6.890625 
Q 35.15625 6.890625 40.078125 11.328125 
Q 45.015625 15.765625 45.015625 23.390625 
Q 45.015625 31 40.078125 35.4375 
Q 35.15625 39.890625 26.703125 39.890625 
Q 22.75 39.890625 18.8125 39.015625 
Q 14.890625 38.140625 10.796875 36.28125 
z
" id="DejaVuSans-53"/>
      </defs>
      <g transform="translate(105.736789 322.182437)scale(0.1 -0.1)">
       <use xlink:href="#DejaVuSans-50"/>
       <use x="63.623047" xlink:href="#DejaVuSans-48"/>
       <use x="127.246094" xlink:href="#DejaVuSans-48"/>
       <use x="190.869141" xlink:href="#DejaVuSans-53"/>
      </g>
     </g>
    </g>
    <g id="xtick_4">
     <g id="line2d_4">
      <g>
       <use style="stroke:#000000;stroke-width:0.8;" x="164.84101" xlink:href="#m03b0529b61" y="307.584"/>
      </g>
     </g>
     <g id="text_3">
      <!-- 2006 -->
      <defs>
       <path d="M 33.015625 40.375 
Q 26.375 40.375 22.484375 35.828125 
Q 18.609375 31.296875 18.609375 23.390625 
Q 18.609375 15.53125 22.484375 10.953125 
Q 26.375 6.390625 33.015625 6.390625 
Q 39.65625 6.390625 43.53125 10.953125 
Q 47.40625 15.53125 47.40625 23.390625 
Q 47.40625 31.296875 43.53125 35.828125 
Q 39.65625 40.375 33.015625 40.375 
z
M 52.59375 71.296875 
L 52.59375 62.3125 
Q 48.875 64.0625 45.09375 64.984375 
Q 41.3125 65.921875 37.59375 65.921875 
Q 27.828125 65.921875 22.671875 59.328125 
Q 17.53125 52.734375 16.796875 39.40625 
Q 19.671875 43.65625 24.015625 45.921875 
Q 28.375 48.1875 33.59375 48.1875 
Q 44.578125 48.1875 50.953125 41.515625 
Q 57.328125 34.859375 57.328125 23.390625 
Q 57.328125 12.15625 50.6875 5.359375 
Q 44.046875 -1.421875 33.015625 -1.421875 
Q 20.359375 -1.421875 13.671875 8.265625 
Q 6.984375 17.96875 6.984375 36.375 
Q 6.984375 53.65625 15.1875 63.9375 
Q 23.390625 74.21875 37.203125 74.21875 
Q 40.921875 74.21875 44.703125 73.484375 
Q 48.484375 72.75 52.59375 71.296875 
z
" id="DejaVuSans-54"/>
      </defs>
      <g transform="translate(152.11601 322.182437)scale(0.1 -0.1)">
       <use xlink:href="#DejaVuSans-50"/>
       <use x="63.623047" xlink:href="#DejaVuSans-48"/>
       <use x="127.246094" xlink:href="#DejaVuSans-48"/>
       <use x="190.869141" xlink:href="#DejaVuSans-54"/>
      </g>
     </g>
    </g>
    <g id="xtick_5">
     <g id="line2d_5">
      <g>
       <use style="stroke:#000000;stroke-width:0.8;" x="210.345151" xlink:href="#m03b0529b61" y="307.584"/>
      </g>
     </g>
     <g id="text_4">
      <!-- 2007 -->
      <defs>
       <path d="M 8.203125 72.90625 
L 55.078125 72.90625 
L 55.078125 68.703125 
L 28.609375 0 
L 18.3125 0 
L 43.21875 64.59375 
L 8.203125 64.59375 
z
" id="DejaVuSans-55"/>
      </defs>
      <g transform="translate(197.620151 322.182437)scale(0.1 -0.1)">
       <use xlink:href="#DejaVuSans-50"/>
       <use x="63.623047" xlink:href="#DejaVuSans-48"/>
       <use x="127.246094" xlink:href="#DejaVuSans-48"/>
       <use x="190.869141" xlink:href="#DejaVuSans-55"/>
      </g>
     </g>
    </g>
    <g id="xtick_6">
     <g id="line2d_6">
      <g>
       <use style="stroke:#000000;stroke-width:0.8;" x="255.849292" xlink:href="#m03b0529b61" y="307.584"/>
      </g>
     </g>
     <g id="text_5">
      <!-- 2008 -->
      <defs>
       <path d="M 31.78125 34.625 
Q 24.75 34.625 20.71875 30.859375 
Q 16.703125 27.09375 16.703125 20.515625 
Q 16.703125 13.921875 20.71875 10.15625 
Q 24.75 6.390625 31.78125 6.390625 
Q 38.8125 6.390625 42.859375 10.171875 
Q 46.921875 13.96875 46.921875 20.515625 
Q 46.921875 27.09375 42.890625 30.859375 
Q 38.875 34.625 31.78125 34.625 
z
M 21.921875 38.8125 
Q 15.578125 40.375 12.03125 44.71875 
Q 8.5 49.078125 8.5 55.328125 
Q 8.5 64.0625 14.71875 69.140625 
Q 20.953125 74.21875 31.78125 74.21875 
Q 42.671875 74.21875 48.875 69.140625 
Q 55.078125 64.0625 55.078125 55.328125 
Q 55.078125 49.078125 51.53125 44.71875 
Q 48 40.375 41.703125 38.8125 
Q 48.828125 37.15625 52.796875 32.3125 
Q 56.78125 27.484375 56.78125 20.515625 
Q 56.78125 9.90625 50.3125 4.234375 
Q 43.84375 -1.421875 31.78125 -1.421875 
Q 19.734375 -1.421875 13.25 4.234375 
Q 6.78125 9.90625 6.78125 20.515625 
Q 6.78125 27.484375 10.78125 32.3125 
Q 14.796875 37.15625 21.921875 38.8125 
z
M 18.3125 54.390625 
Q 18.3125 48.734375 21.84375 45.5625 
Q 25.390625 42.390625 31.78125 42.390625 
Q 38.140625 42.390625 41.71875 45.5625 
Q 45.3125 48.734375 45.3125 54.390625 
Q 45.3125 60.0625 41.71875 63.234375 
Q 38.140625 66.40625 31.78125 66.40625 
Q 25.390625 66.40625 21.84375 63.234375 
Q 18.3125 60.0625 18.3125 54.390625 
z
" id="DejaVuSans-56"/>
      </defs>
      <g transform="translate(243.124292 322.182437)scale(0.1 -0.1)">
       <use xlink:href="#DejaVuSans-50"/>
       <use x="63.623047" xlink:href="#DejaVuSans-48"/>
       <use x="127.246094" xlink:href="#DejaVuSans-48"/>
       <use x="190.869141" xlink:href="#DejaVuSans-56"/>
      </g>
     </g>
    </g>
    <g id="xtick_7">
     <g id="line2d_7">
      <g>
       <use style="stroke:#000000;stroke-width:0.8;" x="301.353433" xlink:href="#m03b0529b61" y="307.584"/>
      </g>
     </g>
     <g id="text_6">
      <!-- 2009 -->
      <defs>
       <path d="M 10.984375 1.515625 
L 10.984375 10.5 
Q 14.703125 8.734375 18.5 7.8125 
Q 22.3125 6.890625 25.984375 6.890625 
Q 35.75 6.890625 40.890625 13.453125 
Q 46.046875 20.015625 46.78125 33.40625 
Q 43.953125 29.203125 39.59375 26.953125 
Q 35.25 24.703125 29.984375 24.703125 
Q 19.046875 24.703125 12.671875 31.3125 
Q 6.296875 37.9375 6.296875 49.421875 
Q 6.296875 60.640625 12.9375 67.421875 
Q 19.578125 74.21875 30.609375 74.21875 
Q 43.265625 74.21875 49.921875 64.515625 
Q 56.59375 54.828125 56.59375 36.375 
Q 56.59375 19.140625 48.40625 8.859375 
Q 40.234375 -1.421875 26.421875 -1.421875 
Q 22.703125 -1.421875 18.890625 -0.6875 
Q 15.09375 0.046875 10.984375 1.515625 
z
M 30.609375 32.421875 
Q 37.25 32.421875 41.125 36.953125 
Q 45.015625 41.5 45.015625 49.421875 
Q 45.015625 57.28125 41.125 61.84375 
Q 37.25 66.40625 30.609375 66.40625 
Q 23.96875 66.40625 20.09375 61.84375 
Q 16.21875 57.28125 16.21875 49.421875 
Q 16.21875 41.5 20.09375 36.953125 
Q 23.96875 32.421875 30.609375 32.421875 
z
" id="DejaVuSans-57"/>
      </defs>
      <g transform="translate(288.628433 322.182437)scale(0.1 -0.1)">
       <use xlink:href="#DejaVuSans-50"/>
       <use x="63.623047" xlink:href="#DejaVuSans-48"/>
       <use x="127.246094" xlink:href="#DejaVuSans-48"/>
       <use x="190.869141" xlink:href="#DejaVuSans-57"/>
      </g>
     </g>
    </g>
    <g id="xtick_8">
     <g id="line2d_8">
      <g>
       <use style="stroke:#000000;stroke-width:0.8;" x="346.857574" xlink:href="#m03b0529b61" y="307.584"/>
      </g>
     </g>
     <g id="text_7">
      <!-- 2010 -->
      <defs>
       <path d="M 12.40625 8.296875 
L 28.515625 8.296875 
L 28.515625 63.921875 
L 10.984375 60.40625 
L 10.984375 69.390625 
L 28.421875 72.90625 
L 38.28125 72.90625 
L 38.28125 8.296875 
L 54.390625 8.296875 
L 54.390625 0 
L 12.40625 0 
z
" id="DejaVuSans-49"/>
      </defs>
      <g transform="translate(334.132574 322.182437)scale(0.1 -0.1)">
       <use xlink:href="#DejaVuSans-50"/>
       <use x="63.623047" xlink:href="#DejaVuSans-48"/>
       <use x="127.246094" xlink:href="#DejaVuSans-49"/>
       <use x="190.869141" xlink:href="#DejaVuSans-48"/>
      </g>
     </g>
    </g>
    <g id="xtick_9">
     <g id="line2d_9">
      <g>
       <use style="stroke:#000000;stroke-width:0.8;" x="392.361715" xlink:href="#m03b0529b61" y="307.584"/>
      </g>
     </g>
     <g id="text_8">
      <!-- 2011 -->
      <g transform="translate(379.636715 322.182437)scale(0.1 -0.1)">
       <use xlink:href="#DejaVuSans-50"/>
       <use x="63.623047" xlink:href="#DejaVuSans-48"/>
       <use x="127.246094" xlink:href="#DejaVuSans-49"/>
       <use x="190.869141" xlink:href="#DejaVuSans-49"/>
      </g>
     </g>
    </g>
    <g id="xtick_10">
     <g id="line2d_10">
      <g>
       <use style="stroke:#000000;stroke-width:0.8;" x="414.238706" xlink:href="#m03b0529b61" y="307.584"/>
      </g>
     </g>
    </g>
    <g id="xtick_11">
     <g id="line2d_11">
      <defs>
       <path d="M 0 0 
L 0 2 
" id="m24f88840f0" style="stroke:#000000;stroke-width:0.6;"/>
      </defs>
      <g>
       <use style="stroke:#000000;stroke-width:0.6;" x="61.581612" xlink:href="#m24f88840f0" y="307.584"/>
      </g>
     </g>
    </g>
    <g id="xtick_12">
     <g id="line2d_12">
      <g>
       <use style="stroke:#000000;stroke-width:0.6;" x="84.333683" xlink:href="#m24f88840f0" y="307.584"/>
      </g>
     </g>
    </g>
    <g id="xtick_13">
     <g id="line2d_13">
      <g>
       <use style="stroke:#000000;stroke-width:0.6;" x="95.709718" xlink:href="#m24f88840f0" y="307.584"/>
      </g>
     </g>
    </g>
    <g id="xtick_14">
     <g id="line2d_14">
      <g>
       <use style="stroke:#000000;stroke-width:0.6;" x="107.085753" xlink:href="#m24f88840f0" y="307.584"/>
      </g>
     </g>
    </g>
    <g id="xtick_15">
     <g id="line2d_15">
      <g>
       <use style="stroke:#000000;stroke-width:0.6;" x="129.837824" xlink:href="#m24f88840f0" y="307.584"/>
      </g>
     </g>
    </g>
    <g id="xtick_16">
     <g id="line2d_16">
      <g>
       <use style="stroke:#000000;stroke-width:0.6;" x="141.213859" xlink:href="#m24f88840f0" y="307.584"/>
      </g>
     </g>
    </g>
    <g id="xtick_17">
     <g id="line2d_17">
      <g>
       <use style="stroke:#000000;stroke-width:0.6;" x="152.589895" xlink:href="#m24f88840f0" y="307.584"/>
      </g>
     </g>
    </g>
    <g id="xtick_18">
     <g id="line2d_18">
      <g>
       <use style="stroke:#000000;stroke-width:0.6;" x="175.341965" xlink:href="#m24f88840f0" y="307.584"/>
      </g>
     </g>
    </g>
    <g id="xtick_19">
     <g id="line2d_19">
      <g>
       <use style="stroke:#000000;stroke-width:0.6;" x="186.718" xlink:href="#m24f88840f0" y="307.584"/>
      </g>
     </g>
    </g>
    <g id="xtick_20">
     <g id="line2d_20">
      <g>
       <use style="stroke:#000000;stroke-width:0.6;" x="198.969115" xlink:href="#m24f88840f0" y="307.584"/>
      </g>
     </g>
    </g>
    <g id="xtick_21">
     <g id="line2d_21">
      <g>
       <use style="stroke:#000000;stroke-width:0.6;" x="221.721186" xlink:href="#m24f88840f0" y="307.584"/>
      </g>
     </g>
    </g>
    <g id="xtick_22">
     <g id="line2d_22">
      <g>
       <use style="stroke:#000000;stroke-width:0.6;" x="233.097221" xlink:href="#m24f88840f0" y="307.584"/>
      </g>
     </g>
    </g>
    <g id="xtick_23">
     <g id="line2d_23">
      <g>
       <use style="stroke:#000000;stroke-width:0.6;" x="244.473257" xlink:href="#m24f88840f0" y="307.584"/>
      </g>
     </g>
    </g>
    <g id="xtick_24">
     <g id="line2d_24">
      <g>
       <use style="stroke:#000000;stroke-width:0.6;" x="267.225327" xlink:href="#m24f88840f0" y="307.584"/>
      </g>
     </g>
    </g>
    <g id="xtick_25">
     <g id="line2d_25">
      <g>
       <use style="stroke:#000000;stroke-width:0.6;" x="278.601362" xlink:href="#m24f88840f0" y="307.584"/>
      </g>
     </g>
    </g>
    <g id="xtick_26">
     <g id="line2d_26">
      <g>
       <use style="stroke:#000000;stroke-width:0.6;" x="289.977398" xlink:href="#m24f88840f0" y="307.584"/>
      </g>
     </g>
    </g>
    <g id="xtick_27">
     <g id="line2d_27">
      <g>
       <use style="stroke:#000000;stroke-width:0.6;" x="312.729468" xlink:href="#m24f88840f0" y="307.584"/>
      </g>
     </g>
    </g>
    <g id="xtick_28">
     <g id="line2d_28">
      <g>
       <use style="stroke:#000000;stroke-width:0.6;" x="324.105504" xlink:href="#m24f88840f0" y="307.584"/>
      </g>
     </g>
    </g>
    <g id="xtick_29">
     <g id="line2d_29">
      <g>
       <use style="stroke:#000000;stroke-width:0.6;" x="335.481539" xlink:href="#m24f88840f0" y="307.584"/>
      </g>
     </g>
    </g>
    <g id="xtick_30">
     <g id="line2d_30">
      <g>
       <use style="stroke:#000000;stroke-width:0.6;" x="358.233609" xlink:href="#m24f88840f0" y="307.584"/>
      </g>
     </g>
    </g>
    <g id="xtick_31">
     <g id="line2d_31">
      <g>
       <use style="stroke:#000000;stroke-width:0.6;" x="369.609645" xlink:href="#m24f88840f0" y="307.584"/>
      </g>
     </g>
    </g>
    <g id="xtick_32">
     <g id="line2d_32">
      <g>
       <use style="stroke:#000000;stroke-width:0.6;" x="380.98568" xlink:href="#m24f88840f0" y="307.584"/>
      </g>
     </g>
    </g>
    <g id="xtick_33">
     <g id="line2d_33">
      <g>
       <use style="stroke:#000000;stroke-width:0.6;" x="403.737751" xlink:href="#m24f88840f0" y="307.584"/>
      </g>
     </g>
    </g>
    <g id="text_9">
     <!-- GoogleWE -->
     <defs>
      <path d="M 59.515625 10.40625 
L 59.515625 29.984375 
L 43.40625 29.984375 
L 43.40625 38.09375 
L 69.28125 38.09375 
L 69.28125 6.78125 
Q 63.578125 2.734375 56.6875 0.65625 
Q 49.8125 -1.421875 42 -1.421875 
Q 24.90625 -1.421875 15.25 8.5625 
Q 5.609375 18.5625 5.609375 36.375 
Q 5.609375 54.25 15.25 64.234375 
Q 24.90625 74.21875 42 74.21875 
Q 49.125 74.21875 55.546875 72.453125 
Q 61.96875 70.703125 67.390625 67.28125 
L 67.390625 56.78125 
Q 61.921875 61.421875 55.765625 63.765625 
Q 49.609375 66.109375 42.828125 66.109375 
Q 29.4375 66.109375 22.71875 58.640625 
Q 16.015625 51.171875 16.015625 36.375 
Q 16.015625 21.625 22.71875 14.15625 
Q 29.4375 6.6875 42.828125 6.6875 
Q 48.046875 6.6875 52.140625 7.59375 
Q 56.25 8.5 59.515625 10.40625 
z
" id="DejaVuSans-71"/>
      <path d="M 30.609375 48.390625 
Q 23.390625 48.390625 19.1875 42.75 
Q 14.984375 37.109375 14.984375 27.296875 
Q 14.984375 17.484375 19.15625 11.84375 
Q 23.34375 6.203125 30.609375 6.203125 
Q 37.796875 6.203125 41.984375 11.859375 
Q 46.1875 17.53125 46.1875 27.296875 
Q 46.1875 37.015625 41.984375 42.703125 
Q 37.796875 48.390625 30.609375 48.390625 
z
M 30.609375 56 
Q 42.328125 56 49.015625 48.375 
Q 55.71875 40.765625 55.71875 27.296875 
Q 55.71875 13.875 49.015625 6.21875 
Q 42.328125 -1.421875 30.609375 -1.421875 
Q 18.84375 -1.421875 12.171875 6.21875 
Q 5.515625 13.875 5.515625 27.296875 
Q 5.515625 40.765625 12.171875 48.375 
Q 18.84375 56 30.609375 56 
z
" id="DejaVuSans-111"/>
      <path d="M 45.40625 27.984375 
Q 45.40625 37.75 41.375 43.109375 
Q 37.359375 48.484375 30.078125 48.484375 
Q 22.859375 48.484375 18.828125 43.109375 
Q 14.796875 37.75 14.796875 27.984375 
Q 14.796875 18.265625 18.828125 12.890625 
Q 22.859375 7.515625 30.078125 7.515625 
Q 37.359375 7.515625 41.375 12.890625 
Q 45.40625 18.265625 45.40625 27.984375 
z
M 54.390625 6.78125 
Q 54.390625 -7.171875 48.1875 -13.984375 
Q 42 -20.796875 29.203125 -20.796875 
Q 24.46875 -20.796875 20.265625 -20.09375 
Q 16.0625 -19.390625 12.109375 -17.921875 
L 12.109375 -9.1875 
Q 16.0625 -11.328125 19.921875 -12.34375 
Q 23.78125 -13.375 27.78125 -13.375 
Q 36.625 -13.375 41.015625 -8.765625 
Q 45.40625 -4.15625 45.40625 5.171875 
L 45.40625 9.625 
Q 42.625 4.78125 38.28125 2.390625 
Q 33.9375 0 27.875 0 
Q 17.828125 0 11.671875 7.65625 
Q 5.515625 15.328125 5.515625 27.984375 
Q 5.515625 40.671875 11.671875 48.328125 
Q 17.828125 56 27.875 56 
Q 33.9375 56 38.28125 53.609375 
Q 42.625 51.21875 45.40625 46.390625 
L 45.40625 54.6875 
L 54.390625 54.6875 
z
" id="DejaVuSans-103"/>
      <path d="M 9.421875 75.984375 
L 18.40625 75.984375 
L 18.40625 0 
L 9.421875 0 
z
" id="DejaVuSans-108"/>
      <path d="M 56.203125 29.59375 
L 56.203125 25.203125 
L 14.890625 25.203125 
Q 15.484375 15.921875 20.484375 11.0625 
Q 25.484375 6.203125 34.421875 6.203125 
Q 39.59375 6.203125 44.453125 7.46875 
Q 49.3125 8.734375 54.109375 11.28125 
L 54.109375 2.78125 
Q 49.265625 0.734375 44.1875 -0.34375 
Q 39.109375 -1.421875 33.890625 -1.421875 
Q 20.796875 -1.421875 13.15625 6.1875 
Q 5.515625 13.8125 5.515625 26.8125 
Q 5.515625 40.234375 12.765625 48.109375 
Q 20.015625 56 32.328125 56 
Q 43.359375 56 49.78125 48.890625 
Q 56.203125 41.796875 56.203125 29.59375 
z
M 47.21875 32.234375 
Q 47.125 39.59375 43.09375 43.984375 
Q 39.0625 48.390625 32.421875 48.390625 
Q 24.90625 48.390625 20.390625 44.140625 
Q 15.875 39.890625 15.1875 32.171875 
z
" id="DejaVuSans-101"/>
      <path d="M 3.328125 72.90625 
L 13.28125 72.90625 
L 28.609375 11.28125 
L 43.890625 72.90625 
L 54.984375 72.90625 
L 70.3125 11.28125 
L 85.59375 72.90625 
L 95.609375 72.90625 
L 77.296875 0 
L 64.890625 0 
L 49.515625 63.28125 
L 33.984375 0 
L 21.578125 0 
z
" id="DejaVuSans-87"/>
      <path d="M 9.8125 72.90625 
L 55.90625 72.90625 
L 55.90625 64.59375 
L 19.671875 64.59375 
L 19.671875 43.015625 
L 54.390625 43.015625 
L 54.390625 34.71875 
L 19.671875 34.71875 
L 19.671875 8.296875 
L 56.78125 8.296875 
L 56.78125 0 
L 9.8125 0 
z
" id="DejaVuSans-69"/>
     </defs>
     <g transform="translate(210.424062 335.860562)scale(0.1 -0.1)">
      <use xlink:href="#DejaVuSans-71"/>
      <use x="77.490234" xlink:href="#DejaVuSans-111"/>
      <use x="138.671875" xlink:href="#DejaVuSans-111"/>
      <use x="199.853516" xlink:href="#DejaVuSans-103"/>
      <use x="263.330078" xlink:href="#DejaVuSans-108"/>
      <use x="291.113281" xlink:href="#DejaVuSans-101"/>
      <use x="352.636719" xlink:href="#DejaVuSans-87"/>
      <use x="451.513672" xlink:href="#DejaVuSans-69"/>
     </g>
    </g>
   </g>
   <g id="matplotlib.axis_2">
    <g id="ytick_1">
     <g id="line2d_34">
      <defs>
       <path d="M 0 0 
L -3.5 0 
" id="m31ea8e70b4" style="stroke:#000000;stroke-width:0.8;"/>
      </defs>
      <g>
       <use style="stroke:#000000;stroke-width:0.8;" x="57.6" xlink:href="#m31ea8e70b4" y="286.16787"/>
      </g>
     </g>
     <g id="text_10">
      <!-- 0.0 -->
      <defs>
       <path d="M 10.6875 12.40625 
L 21 12.40625 
L 21 0 
L 10.6875 0 
z
" id="DejaVuSans-46"/>
      </defs>
      <g transform="translate(34.696875 289.967088)scale(0.1 -0.1)">
       <use xlink:href="#DejaVuSans-48"/>
       <use x="63.623047" xlink:href="#DejaVuSans-46"/>
       <use x="95.410156" xlink:href="#DejaVuSans-48"/>
      </g>
     </g>
    </g>
    <g id="ytick_2">
     <g id="line2d_35">
      <g>
       <use style="stroke:#000000;stroke-width:0.8;" x="57.6" xlink:href="#m31ea8e70b4" y="244.616891"/>
      </g>
     </g>
     <g id="text_11">
      <!-- 0.5 -->
      <g transform="translate(34.696875 248.41611)scale(0.1 -0.1)">
       <use xlink:href="#DejaVuSans-48"/>
       <use x="63.623047" xlink:href="#DejaVuSans-46"/>
       <use x="95.410156" xlink:href="#DejaVuSans-53"/>
      </g>
     </g>
    </g>
    <g id="ytick_3">
     <g id="line2d_36">
      <g>
       <use style="stroke:#000000;stroke-width:0.8;" x="57.6" xlink:href="#m31ea8e70b4" y="203.065913"/>
      </g>
     </g>
     <g id="text_12">
      <!-- 1.0 -->
      <g transform="translate(34.696875 206.865131)scale(0.1 -0.1)">
       <use xlink:href="#DejaVuSans-49"/>
       <use x="63.623047" xlink:href="#DejaVuSans-46"/>
       <use x="95.410156" xlink:href="#DejaVuSans-48"/>
      </g>
     </g>
    </g>
    <g id="ytick_4">
     <g id="line2d_37">
      <g>
       <use style="stroke:#000000;stroke-width:0.8;" x="57.6" xlink:href="#m31ea8e70b4" y="161.514934"/>
      </g>
     </g>
     <g id="text_13">
      <!-- 1.5 -->
      <g transform="translate(34.696875 165.314153)scale(0.1 -0.1)">
       <use xlink:href="#DejaVuSans-49"/>
       <use x="63.623047" xlink:href="#DejaVuSans-46"/>
       <use x="95.410156" xlink:href="#DejaVuSans-53"/>
      </g>
     </g>
    </g>
    <g id="ytick_5">
     <g id="line2d_38">
      <g>
       <use style="stroke:#000000;stroke-width:0.8;" x="57.6" xlink:href="#m31ea8e70b4" y="119.963956"/>
      </g>
     </g>
     <g id="text_14">
      <!-- 2.0 -->
      <g transform="translate(34.696875 123.763174)scale(0.1 -0.1)">
       <use xlink:href="#DejaVuSans-50"/>
       <use x="63.623047" xlink:href="#DejaVuSans-46"/>
       <use x="95.410156" xlink:href="#DejaVuSans-48"/>
      </g>
     </g>
    </g>
    <g id="ytick_6">
     <g id="line2d_39">
      <g>
       <use style="stroke:#000000;stroke-width:0.8;" x="57.6" xlink:href="#m31ea8e70b4" y="78.412977"/>
      </g>
     </g>
     <g id="text_15">
      <!-- 2.5 -->
      <g transform="translate(34.696875 82.212196)scale(0.1 -0.1)">
       <use xlink:href="#DejaVuSans-50"/>
       <use x="63.623047" xlink:href="#DejaVuSans-46"/>
       <use x="95.410156" xlink:href="#DejaVuSans-53"/>
      </g>
     </g>
    </g>
   </g>
   <g id="line2d_40">
    <path clip-path="url(#p2f9ecec7fa)" d="M 73.832727 286.16787 
L 75.582887 286.16787 
L 76.457966 286.815007 
L 77.333046 285.734983 
L 78.208125 286.729538 
L 79.083205 286.162331 
L 79.958285 287.537614 
L 80.833364 290.443579 
L 81.708444 291.010786 
L 82.583524 288.835197 
L 83.458603 287.172425 
L 84.333683 286.900477 
L 85.208763 287.557492 
L 86.083842 287.932929 
L 86.958922 286.654169 
L 87.834001 283.942968 
L 88.709081 284.241881 
L 89.584161 283.98567 
L 90.45924 282.021384 
L 91.33432 283.575732 
L 92.2094 283.262558 
L 93.959559 283.593995 
L 94.834639 284.652333 
L 95.709718 284.842504 
L 96.584798 286.175957 
L 97.459877 285.212907 
L 98.334957 287.03254 
L 99.210037 284.192877 
L 100.085116 282.999967 
L 100.960196 282.049097 
L 101.835276 281.608239 
L 102.710355 279.680566 
L 103.585435 279.559546 
L 104.460515 278.389412 
L 105.335594 276.618956 
L 106.210674 278.607768 
L 107.085753 277.570972 
L 107.960833 276.201926 
L 108.835913 274.380362 
L 109.710992 277.323801 
L 110.586072 274.055339 
L 111.461152 275.370028 
L 112.336231 274.544086 
L 113.211311 274.245808 
L 114.086391 273.445376 
L 114.96147 274.445916 
L 115.83655 274.294483 
L 116.71163 273.27899 
L 117.586709 273.670935 
L 118.461789 274.668612 
L 119.336868 274.632981 
L 120.211948 272.484575 
L 121.087028 273.464088 
L 121.962107 275.484419 
L 122.837187 276.334544 
L 123.712267 278.030066 
L 124.587346 276.575532 
L 125.462426 277.978426 
L 126.337506 276.984767 
L 127.212585 274.663559 
L 128.962744 275.740466 
L 129.837824 275.516111 
L 130.712904 271.998215 
L 131.587983 273.787896 
L 132.463063 273.955736 
L 133.338143 272.868609 
L 134.213222 273.899986 
L 135.088302 271.502731 
L 135.963382 272.050941 
L 136.838461 272.050941 
L 138.58862 270.815147 
L 139.4637 268.01835 
L 140.33878 267.349569 
L 141.213859 265.766132 
L 142.088939 265.097351 
L 142.964019 265.303886 
L 143.839098 265.362662 
L 144.714178 264.726636 
L 145.589258 263.656836 
L 147.339417 265.618136 
L 148.214496 264.439375 
L 149.089576 265.410119 
L 149.964656 266.645039 
L 150.839735 265.575423 
L 151.714815 266.409426 
L 152.589895 263.517455 
L 153.464974 262.297871 
L 155.215134 261.874117 
L 156.965293 258.473753 
L 157.840372 257.481549 
L 158.715452 258.391069 
L 159.590532 259.05203 
L 160.465611 258.370732 
L 162.215771 259.34448 
L 163.09085 258.752771 
L 163.96593 257.069459 
L 164.84101 256.079876 
L 165.716089 253.847435 
L 166.591169 256.061696 
L 167.466248 256.986819 
L 168.341328 255.91617 
L 169.216408 254.336184 
L 170.091487 254.045133 
L 170.966567 252.776986 
L 171.841647 254.243374 
L 172.716726 255.984158 
L 173.591806 255.74289 
L 174.466886 254.591972 
L 175.341965 254.385921 
L 176.217045 255.06589 
L 177.092124 252.490249 
L 177.967204 252.541761 
L 178.842284 250.017633 
L 179.717363 251.4909 
L 180.592443 254.942259 
L 182.342602 255.230731 
L 183.217682 258.053634 
L 184.092762 256.796721 
L 184.967841 258.063936 
L 185.842921 256.250797 
L 186.718 257.308462 
L 187.59308 260.96496 
L 188.46816 263.966713 
L 189.343239 265.30087 
L 190.218319 264.892055 
L 191.093399 265.997713 
L 191.968478 263.814272 
L 192.843558 263.870019 
L 193.718638 262.671449 
L 194.593717 263.386875 
L 195.468797 261.937442 
L 196.343877 262.011772 
L 197.218956 262.958166 
L 198.094036 264.781381 
L 199.844195 266.744725 
L 200.719275 266.659902 
L 201.594354 266.45599 
L 202.469434 266.744865 
L 203.344514 265.240997 
L 204.219593 266.947634 
L 205.094673 265.519804 
L 205.969753 265.976033 
L 206.844832 266.713009 
L 207.719912 266.506607 
L 208.594991 266.092139 
L 209.470071 266.365688 
L 210.345151 267.658828 
L 211.22023 266.890885 
L 212.09531 266.948332 
L 212.97039 268.473072 
L 213.845469 267.605781 
L 214.720549 265.930133 
L 215.595629 266.998662 
L 216.470708 262.109333 
L 217.345788 264.648048 
L 218.220867 263.908941 
L 219.095947 262.116738 
L 219.971027 262.7285 
L 220.846106 264.451772 
L 221.721186 265.611319 
L 222.596266 267.349297 
L 223.471345 266.165734 
L 224.346425 268.035763 
L 225.221505 268.553195 
L 226.096584 267.438473 
L 226.971664 267.423409 
L 227.846743 266.414134 
L 228.721823 268.161536 
L 229.596903 269.44196 
L 230.471982 267.738262 
L 231.347062 268.99202 
L 232.222142 268.095027 
L 233.097221 265.885906 
L 233.972301 265.700577 
L 234.847381 261.482219 
L 235.72246 262.014942 
L 236.59754 263.62936 
L 237.472619 264.604404 
L 238.347699 262.878096 
L 239.222779 261.903051 
L 240.972938 257.382312 
L 241.848018 260.295093 
L 242.723097 262.711472 
L 244.473257 262.271018 
L 245.348336 265.763266 
L 246.223416 268.208604 
L 247.098495 265.701207 
L 247.973575 261.534257 
L 248.848655 261.393122 
L 249.723734 259.611825 
L 250.598814 254.578879 
L 251.473894 258.097639 
L 252.348973 253.671789 
L 253.224053 250.710208 
L 254.099133 253.12854 
L 254.974212 257.062711 
L 255.849292 256.580797 
L 256.724371 249.254376 
L 257.599451 253.593132 
L 258.474531 255.934197 
L 259.34961 252.597887 
L 260.22469 251.300684 
L 261.09977 249.497954 
L 261.974849 252.426198 
L 262.849929 248.114907 
L 263.725009 250.281688 
L 264.600088 245.079859 
L 265.475168 247.992883 
L 266.350247 244.376373 
L 267.225327 247.229948 
L 268.100407 242.41454 
L 269.850566 240.829221 
L 270.725646 241.691238 
L 271.600725 240.234726 
L 272.475805 244.990685 
L 273.350885 245.258207 
L 274.225964 247.438022 
L 275.101044 247.140774 
L 275.976123 242.829517 
L 276.851203 237.582987 
L 277.726283 236.17811 
L 278.601362 238.206333 
L 279.476442 243.128627 
L 280.351522 239.486871 
L 281.226601 237.819998 
L 282.101681 243.776446 
L 282.976761 246.853099 
L 283.85184 247.992206 
L 284.72692 249.418751 
L 285.602 249.314767 
L 286.477079 243.564924 
L 287.352159 244.413352 
L 288.227238 238.576612 
L 289.977398 225.236406 
L 290.852477 222.204124 
L 291.727557 242.129155 
L 292.602637 221.33438 
L 293.477716 228.640225 
L 294.352796 238.096708 
L 295.227876 239.598992 
L 296.102955 236.136982 
L 296.978035 223.974711 
L 297.853114 218.871774 
L 298.728194 220.673263 
L 299.603274 220.760714 
L 301.353433 203.79524 
L 302.228513 193.295732 
L 303.978672 200.693543 
L 304.853752 193.403873 
L 305.728831 178.526995 
L 306.603911 166.943932 
L 307.47899 157.503005 
L 308.35407 150.041369 
L 309.22915 127.026402 
L 310.104229 108.76853 
L 310.979309 117.177201 
L 311.854389 132.286009 
L 312.729468 129.938752 
L 313.604548 135.970311 
L 314.479628 141.140218 
L 315.354707 129.825831 
L 316.229787 129.287484 
L 317.104866 127.32624 
L 317.979946 128.093683 
L 318.855026 120.987727 
L 319.730105 119.879198 
L 320.605185 116.32622 
L 321.480265 125.597017 
L 322.355344 131.241383 
L 323.230424 125.657138 
L 324.105504 125.832714 
L 324.980583 140.501473 
L 325.855663 147.779171 
L 326.730742 143.599185 
L 327.605822 142.043842 
L 328.480902 137.453148 
L 329.355981 146.357787 
L 330.231061 146.545246 
L 331.106141 146.568678 
L 332.8563 140.290127 
L 333.73138 140.055853 
L 334.606459 135.674923 
L 335.481539 128.445822 
L 337.231698 118.78268 
L 338.106778 116.349043 
L 338.981857 104.536595 
L 339.856937 99.780599 
L 340.732017 99.263643 
L 341.607096 96.989036 
L 342.482176 95.753547 
L 344.232335 102.170574 
L 345.107415 98.545141 
L 345.982494 97.593787 
L 346.857574 95.331105 
L 347.732654 96.95098 
L 348.607733 83.585326 
L 349.482813 83.389094 
L 350.357893 76.034347 
L 351.232972 86.644258 
L 352.108052 83.812779 
L 352.983132 83.317957 
L 353.858211 79.002014 
L 354.733291 76.307986 
L 356.48345 69.847815 
L 357.35853 72.074512 
L 358.233609 70.855722 
L 359.108689 69.068162 
L 359.983769 72.426607 
L 360.858848 73.856794 
L 361.733928 64.481125 
L 362.609008 60.304391 
L 363.484087 77.24354 
L 364.359167 78.287734 
L 365.234247 84.239641 
L 366.109326 73.008753 
L 366.984406 79.708998 
L 367.859485 88.053451 
L 368.734565 76.9922 
L 369.609645 62.595765 
L 370.484724 64.485297 
L 371.359804 53.568 
L 372.234884 57.976908 
L 373.109963 56.839419 
L 373.985043 68.039314 
L 375.735202 77.110062 
L 376.610282 67.222655 
L 378.360441 55.672763 
L 379.235521 57.626912 
L 380.1106 55.840992 
L 380.98568 63.678898 
L 382.735839 67.671429 
L 383.610919 66.618494 
L 384.485999 74.502871 
L 385.361078 69.418644 
L 386.236158 68.27026 
L 387.111237 71.419692 
L 387.986317 63.101961 
L 388.861397 65.120828 
L 389.736476 65.811532 
L 391.486636 61.421634 
L 392.361715 61.976983 
L 393.236795 67.345352 
L 394.111875 70.741779 
L 394.986954 68.344765 
L 395.862034 75.32237 
L 396.737113 72.270258 
L 397.612193 74.014322 
L 398.487273 73.384521 
L 398.487273 73.384521 
" style="fill:none;stroke:#1f77b4;stroke-linecap:square;stroke-width:1.5;"/>
   </g>
   <g id="line2d_41">
    <path clip-path="url(#p2f9ecec7fa)" d="M 73.832727 286.16787 
L 75.582887 286.16787 
L 76.457966 286.815007 
L 77.333046 285.734983 
L 78.208125 286.729538 
L 79.083205 286.162331 
L 79.958285 287.537614 
L 80.833364 290.443579 
L 81.708444 289.876372 
L 82.583524 287.669246 
L 83.458603 289.356121 
L 84.333683 289.091406 
L 85.208763 289.730945 
L 86.083842 289.365494 
L 86.958922 288.109256 
L 87.834001 290.772706 
L 88.709081 291.047693 
L 89.584161 290.81199 
L 90.45924 289.004929 
L 92.2094 289.004929 
L 93.959559 289.314237 
L 94.834639 288.326559 
L 95.709718 288.144647 
L 96.584798 289.425945 
L 97.459877 288.500563 
L 98.334957 290.249025 
L 99.210037 287.520428 
L 100.085116 288.666681 
L 100.960196 287.778269 
L 101.835276 287.366369 
L 102.710355 285.565317 
L 103.585435 285.452246 
L 104.460515 286.545519 
L 106.210674 289.898222 
L 107.085753 288.990542 
L 107.960833 287.791988 
L 108.835913 286.19727 
L 109.710992 288.774152 
L 110.586072 285.912723 
L 111.461152 287.063689 
L 112.336231 287.786773 
L 113.211311 288.043352 
L 114.086391 287.359143 
L 114.96147 288.214404 
L 115.83655 288.343849 
L 116.71163 287.478574 
L 117.586709 287.81254 
L 118.461789 288.662635 
L 119.336868 288.632274 
L 120.211948 286.801674 
L 121.087028 285.967056 
L 121.962107 285.967056 
L 122.837187 286.722161 
L 123.712267 288.22817 
L 125.462426 285.690124 
L 126.337506 284.780402 
L 127.212585 282.655275 
L 128.087665 283.19754 
L 128.962744 283.19754 
L 129.837824 282.991073 
L 130.712904 279.753658 
L 131.587983 281.400649 
L 132.463063 281.246191 
L 134.213222 283.181171 
L 135.088302 281.017212 
L 135.963382 281.512071 
L 137.713541 281.512071 
L 138.58862 282.028587 
L 139.4637 279.55033 
L 140.33878 278.957719 
L 141.213859 277.554626 
L 142.088939 278.147237 
L 142.964019 277.966575 
L 143.839098 278.018192 
L 144.714178 277.459632 
L 146.464337 279.217328 
L 147.339417 280.086659 
L 148.214496 279.072439 
L 149.089576 278.237199 
L 149.964656 279.319602 
L 150.839735 278.382088 
L 151.714815 279.113088 
L 152.589895 276.578286 
L 153.464974 275.509326 
L 154.340054 275.735801 
L 155.215134 275.591555 
L 156.965293 272.625513 
L 157.840372 272.625513 
L 158.715452 271.839205 
L 159.590532 272.420001 
L 160.465611 271.821335 
L 162.215771 272.67698 
L 163.09085 272.157037 
L 163.96593 272.157037 
L 164.84101 271.300523 
L 166.591169 267.451769 
L 167.466248 266.619724 
L 168.341328 267.59852 
L 169.216408 269.015672 
L 170.091487 268.761795 
L 170.966567 269.867973 
L 171.841647 268.616722 
L 172.716726 270.139984 
L 173.591806 269.928863 
L 174.466886 268.92176 
L 175.341965 269.102064 
L 176.217045 269.694932 
L 177.092124 267.44922 
L 177.967204 267.404306 
L 178.842284 265.201565 
L 179.717363 266.487246 
L 180.592443 269.499157 
L 182.342602 269.750899 
L 183.217682 272.214372 
L 184.967841 274.392396 
L 185.842921 274.392396 
L 186.718 275.280287 
L 187.59308 278.34985 
L 188.46816 280.869768 
L 189.343239 281.989769 
L 190.218319 282.332961 
L 191.093399 283.25387 
L 191.968478 281.435269 
L 192.843558 281.435269 
L 193.718638 280.436445 
L 194.593717 281.032642 
L 195.468797 279.824762 
L 196.343877 279.886705 
L 197.218956 280.675379 
L 198.094036 282.194749 
L 199.844195 280.543097 
L 201.594354 280.79268 
L 202.469434 281.041273 
L 204.219593 283.761633 
L 205.094673 282.56843 
L 205.969753 282.94969 
L 206.844832 283.565562 
L 207.719912 283.738047 
L 208.594991 283.393077 
L 209.470071 283.620757 
L 210.345151 284.697063 
L 211.22023 284.057889 
L 212.09531 284.105703 
L 212.97039 285.374773 
L 213.845469 286.096636 
L 214.720549 284.725759 
L 215.595629 285.599941 
L 216.470708 281.599893 
L 217.345788 283.676862 
L 218.220867 284.281538 
L 219.095947 282.835875 
L 219.971027 283.329346 
L 220.846106 284.719407 
L 221.721186 285.654744 
L 222.596266 284.252822 
L 223.471345 283.265553 
L 224.346425 284.825438 
L 225.221505 285.257054 
L 226.096584 284.327209 
L 226.971664 284.314643 
L 227.846743 283.472756 
L 228.721823 283.472756 
L 229.596903 284.559281 
L 230.471982 286.004981 
L 231.347062 284.976789 
L 232.222142 285.730796 
L 233.097221 283.906746 
L 233.972301 283.753722 
L 234.847381 280.270665 
L 235.72246 280.71053 
L 236.59754 282.043538 
L 237.472619 282.848623 
L 238.347699 281.423227 
L 239.222779 280.618143 
L 242.723097 288.322337 
L 244.473257 287.987744 
L 245.348336 285.334844 
L 246.223416 285.334844 
L 247.098495 287.417327 
L 247.973575 284.124097 
L 248.848655 284.012556 
L 249.723734 282.604758 
L 250.598814 278.627113 
L 251.473894 281.408065 
L 252.348973 277.91022 
L 253.224053 275.569619 
L 254.099133 277.480879 
L 254.974212 280.590139 
L 255.849292 280.209272 
L 256.724371 274.419044 
L 257.599451 277.848056 
L 258.474531 279.69825 
L 259.34961 282.335007 
L 260.22469 281.368433 
L 261.09977 280.025179 
L 261.974849 282.207079 
L 262.849929 278.994641 
L 263.725009 277.380124 
L 264.600088 273.362963 
L 265.475168 275.612573 
L 266.350247 278.405457 
L 267.225327 278.405457 
L 268.100407 281.990753 
L 268.975486 282.508851 
L 269.850566 281.942974 
L 270.725646 282.52906 
L 271.600725 281.538777 
L 272.475805 284.772356 
L 273.350885 284.954245 
L 274.225964 286.436302 
L 275.101044 286.436302 
L 275.976123 283.51221 
L 276.851203 287.070647 
L 277.726283 286.193721 
L 278.601362 287.459741 
L 279.476442 290.532247 
L 280.351522 288.259055 
L 281.226601 289.29952 
L 282.101681 292.923253 
L 282.976761 294.795 
L 283.85184 295.488 
L 284.72692 294.620131 
L 285.602 294.555365 
L 286.477079 290.974053 
L 287.352159 291.5025 
L 288.227238 287.867064 
L 289.977398 279.558066 
L 290.852477 277.669398 
L 291.727557 290.079778 
L 292.602637 277.127675 
L 293.477716 281.678148 
L 294.352796 287.568154 
L 295.227876 288.503857 
L 296.102955 286.347531 
L 296.978035 278.772215 
L 297.853114 275.593831 
L 298.728194 274.471767 
L 299.603274 274.527557 
L 301.353433 263.704332 
L 302.228513 257.006109 
L 303.978672 261.725587 
L 304.853752 266.376075 
L 305.728831 257.672072 
L 306.603911 250.895179 
L 307.47899 245.371583 
L 308.35407 241.00601 
L 309.22915 227.540662 
L 310.104229 216.858544 
L 310.979309 221.778198 
L 311.854389 230.617896 
L 312.729468 229.244588 
L 313.604548 232.773467 
L 314.479628 229.748714 
L 315.354707 236.668446 
L 316.229787 236.370316 
L 317.104866 235.284201 
L 317.979946 235.709202 
L 318.855026 231.774004 
L 319.730105 231.160113 
L 320.605185 229.192514 
L 321.480265 224.058452 
L 322.355344 227.422085 
L 323.230424 224.094279 
L 324.105504 224.19891 
L 324.980583 232.94043 
L 325.855663 237.277412 
L 326.730742 234.786442 
L 327.605822 233.85957 
L 328.480902 236.595291 
L 329.355981 241.691641 
L 331.106141 241.812339 
L 332.8563 238.218966 
L 333.73138 238.084885 
L 334.606459 235.577569 
L 335.481539 231.440171 
L 336.356618 231.440171 
L 337.231698 228.638756 
L 338.106778 227.272438 
L 338.981857 220.640572 
L 339.856937 217.970412 
L 340.732017 218.260647 
L 341.607096 216.988504 
L 342.482176 216.297519 
L 344.232335 219.886437 
L 345.107415 217.858803 
L 345.982494 217.326729 
L 346.857574 216.061256 
L 347.732654 216.96722 
L 348.607733 209.492071 
L 349.482813 209.382322 
L 350.357893 205.268956 
L 351.232972 211.202872 
L 352.108052 209.619281 
L 352.983132 209.342537 
L 353.858211 206.928714 
L 354.733291 205.421997 
L 356.48345 201.80895 
L 357.35853 203.054298 
L 358.233609 202.372652 
L 359.108689 202.372652 
L 359.983769 204.23978 
L 360.858848 203.444668 
L 361.733928 198.181793 
L 362.609008 195.837253 
L 363.484087 205.345761 
L 364.359167 205.931902 
L 365.234247 209.272905 
L 366.109326 202.968634 
L 366.984406 206.729705 
L 367.859485 211.413723 
L 368.734565 211.413723 
L 369.609645 203.638359 
L 370.484724 204.658875 
L 371.359804 198.762557 
L 372.234884 196.381352 
L 373.109963 197.0131 
L 373.985043 203.188098 
L 375.735202 208.189204 
L 376.610282 202.737838 
L 377.485361 199.344805 
L 378.360441 202.319739 
L 379.235521 203.360072 
L 380.1106 202.4093 
L 380.98568 206.581976 
L 381.86076 207.688596 
L 382.735839 207.688596 
L 383.610919 207.124486 
L 384.485999 211.348538 
L 385.361078 208.624666 
L 386.236158 209.239912 
L 387.111237 210.914344 
L 387.986317 206.492126 
L 388.861397 207.56548 
L 389.736476 207.932701 
L 391.486636 205.598761 
L 392.361715 205.894018 
L 393.236795 208.748174 
L 394.111875 210.553924 
L 394.986954 209.279524 
L 395.862034 212.989248 
L 396.737113 211.366558 
L 397.612193 212.29381 
L 398.487273 212.628651 
L 398.487273 212.628651 
" style="fill:none;stroke:#ff7f0e;stroke-linecap:square;stroke-width:1.5;"/>
   </g>
   <g id="patch_3">
    <path d="M 57.6 307.584 
L 57.6 41.472 
" style="fill:none;stroke:#000000;stroke-linecap:square;stroke-linejoin:miter;stroke-width:0.8;"/>
   </g>
   <g id="patch_4">
    <path d="M 414.72 307.584 
L 414.72 41.472 
" style="fill:none;stroke:#000000;stroke-linecap:square;stroke-linejoin:miter;stroke-width:0.8;"/>
   </g>
   <g id="patch_5">
    <path d="M 57.6 307.584 
L 414.72 307.584 
" style="fill:none;stroke:#000000;stroke-linecap:square;stroke-linejoin:miter;stroke-width:0.8;"/>
   </g>
   <g id="patch_6">
    <path d="M 57.6 41.472 
L 414.72 41.472 
" style="fill:none;stroke:#000000;stroke-linecap:square;stroke-linejoin:miter;stroke-width:0.8;"/>
   </g>
   <g id="legend_1">
    <g id="patch_7">
     <path d="M 64.6 78.82825 
L 138.720313 78.82825 
Q 140.720313 78.82825 140.720313 76.82825 
L 140.720313 48.472 
Q 140.720313 46.472 138.720313 46.472 
L 64.6 46.472 
Q 62.6 46.472 62.6 48.472 
L 62.6 76.82825 
Q 62.6 78.82825 64.6 78.82825 
z
" style="fill:#ffffff;opacity:0.8;stroke:#cccccc;stroke-linejoin:miter;"/>
    </g>
    <g id="line2d_42">
     <path d="M 66.6 54.570437 
L 86.6 54.570437 
" style="fill:none;stroke:#1f77b4;stroke-linecap:square;stroke-width:1.5;"/>
    </g>
    <g id="line2d_43"/>
    <g id="text_16">
     <!-- cumret0 -->
     <defs>
      <path d="M 48.78125 52.59375 
L 48.78125 44.1875 
Q 44.96875 46.296875 41.140625 47.34375 
Q 37.3125 48.390625 33.40625 48.390625 
Q 24.65625 48.390625 19.8125 42.84375 
Q 14.984375 37.3125 14.984375 27.296875 
Q 14.984375 17.28125 19.8125 11.734375 
Q 24.65625 6.203125 33.40625 6.203125 
Q 37.3125 6.203125 41.140625 7.25 
Q 44.96875 8.296875 48.78125 10.40625 
L 48.78125 2.09375 
Q 45.015625 0.34375 40.984375 -0.53125 
Q 36.96875 -1.421875 32.421875 -1.421875 
Q 20.0625 -1.421875 12.78125 6.34375 
Q 5.515625 14.109375 5.515625 27.296875 
Q 5.515625 40.671875 12.859375 48.328125 
Q 20.21875 56 33.015625 56 
Q 37.15625 56 41.109375 55.140625 
Q 45.0625 54.296875 48.78125 52.59375 
z
" id="DejaVuSans-99"/>
      <path d="M 8.5 21.578125 
L 8.5 54.6875 
L 17.484375 54.6875 
L 17.484375 21.921875 
Q 17.484375 14.15625 20.5 10.265625 
Q 23.53125 6.390625 29.59375 6.390625 
Q 36.859375 6.390625 41.078125 11.03125 
Q 45.3125 15.671875 45.3125 23.6875 
L 45.3125 54.6875 
L 54.296875 54.6875 
L 54.296875 0 
L 45.3125 0 
L 45.3125 8.40625 
Q 42.046875 3.421875 37.71875 1 
Q 33.40625 -1.421875 27.6875 -1.421875 
Q 18.265625 -1.421875 13.375 4.4375 
Q 8.5 10.296875 8.5 21.578125 
z
M 31.109375 56 
z
" id="DejaVuSans-117"/>
      <path d="M 52 44.1875 
Q 55.375 50.25 60.0625 53.125 
Q 64.75 56 71.09375 56 
Q 79.640625 56 84.28125 50.015625 
Q 88.921875 44.046875 88.921875 33.015625 
L 88.921875 0 
L 79.890625 0 
L 79.890625 32.71875 
Q 79.890625 40.578125 77.09375 44.375 
Q 74.3125 48.1875 68.609375 48.1875 
Q 61.625 48.1875 57.5625 43.546875 
Q 53.515625 38.921875 53.515625 30.90625 
L 53.515625 0 
L 44.484375 0 
L 44.484375 32.71875 
Q 44.484375 40.625 41.703125 44.40625 
Q 38.921875 48.1875 33.109375 48.1875 
Q 26.21875 48.1875 22.15625 43.53125 
Q 18.109375 38.875 18.109375 30.90625 
L 18.109375 0 
L 9.078125 0 
L 9.078125 54.6875 
L 18.109375 54.6875 
L 18.109375 46.1875 
Q 21.1875 51.21875 25.484375 53.609375 
Q 29.78125 56 35.6875 56 
Q 41.65625 56 45.828125 52.96875 
Q 50 49.953125 52 44.1875 
z
" id="DejaVuSans-109"/>
      <path d="M 41.109375 46.296875 
Q 39.59375 47.171875 37.8125 47.578125 
Q 36.03125 48 33.890625 48 
Q 26.265625 48 22.1875 43.046875 
Q 18.109375 38.09375 18.109375 28.8125 
L 18.109375 0 
L 9.078125 0 
L 9.078125 54.6875 
L 18.109375 54.6875 
L 18.109375 46.1875 
Q 20.953125 51.171875 25.484375 53.578125 
Q 30.03125 56 36.53125 56 
Q 37.453125 56 38.578125 55.875 
Q 39.703125 55.765625 41.0625 55.515625 
z
" id="DejaVuSans-114"/>
      <path d="M 18.3125 70.21875 
L 18.3125 54.6875 
L 36.8125 54.6875 
L 36.8125 47.703125 
L 18.3125 47.703125 
L 18.3125 18.015625 
Q 18.3125 11.328125 20.140625 9.421875 
Q 21.96875 7.515625 27.59375 7.515625 
L 36.8125 7.515625 
L 36.8125 0 
L 27.59375 0 
Q 17.1875 0 13.234375 3.875 
Q 9.28125 7.765625 9.28125 18.015625 
L 9.28125 47.703125 
L 2.6875 47.703125 
L 2.6875 54.6875 
L 9.28125 54.6875 
L 9.28125 70.21875 
z
" id="DejaVuSans-116"/>
     </defs>
     <g transform="translate(94.6 58.070437)scale(0.1 -0.1)">
      <use xlink:href="#DejaVuSans-99"/>
      <use x="54.980469" xlink:href="#DejaVuSans-117"/>
      <use x="118.359375" xlink:href="#DejaVuSans-109"/>
      <use x="215.771484" xlink:href="#DejaVuSans-114"/>
      <use x="256.853516" xlink:href="#DejaVuSans-101"/>
      <use x="318.376953" xlink:href="#DejaVuSans-116"/>
      <use x="357.585938" xlink:href="#DejaVuSans-48"/>
     </g>
    </g>
    <g id="line2d_44">
     <path d="M 66.6 69.248562 
L 86.6 69.248562 
" style="fill:none;stroke:#ff7f0e;stroke-linecap:square;stroke-width:1.5;"/>
    </g>
    <g id="line2d_45"/>
    <g id="text_17">
     <!-- cumret1 -->
     <g transform="translate(94.6 72.748562)scale(0.1 -0.1)">
      <use xlink:href="#DejaVuSans-99"/>
      <use x="54.980469" xlink:href="#DejaVuSans-117"/>
      <use x="118.359375" xlink:href="#DejaVuSans-109"/>
      <use x="215.771484" xlink:href="#DejaVuSans-114"/>
      <use x="256.853516" xlink:href="#DejaVuSans-101"/>
      <use x="318.376953" xlink:href="#DejaVuSans-116"/>
      <use x="357.585938" xlink:href="#DejaVuSans-49"/>
     </g>
    </g>
   </g>
  </g>
 </g>
 <defs>
  <clipPath id="p2f9ecec7fa">
   <rect height="266.112" width="357.12" x="57.6" y="41.472"/>
  </clipPath>
 </defs>
</svg>
