<?xml version="1.0" encoding="UTF-8" standalone="no"?>
<!-- This is a Stata 15.1 generated SVG file (http://www.stata.com) -->

<svg version="1.1" width="5.50in" height="4.00in" viewBox="0 0 3960 2880" xmlns="http://www.w3.org/2000/svg" xmlns:xlink="http://www.w3.org/1999/xlink">
	<desc>Stata Graph - lfp_year_gender</desc>
	<rect x="0" y="0" width="3960" height="2880" style="fill:#FFFFFF;stroke:none"/>
	<rect x="0.00" y="0.00" width="3959.88" height="2880.00" style="fill:#FFFFFF"/>
	<rect x="2.88" y="2.88" width="3954.12" height="2874.24" style="fill:none;stroke:#FFFFFF;stroke-width:5.76"/>
	<rect x="395.88" y="245.40" width="3463.14" height="2229.30" style="fill:#FFFFFF"/>
	<rect x="398.76" y="248.28" width="3457.38" height="2223.54" style="fill:none;stroke:#FFFFFF;stroke-width:5.76"/>
	<line x1="395.88" y1="2347.73" x2="3859.02" y2="2347.73" style="stroke:#FFFFFF;stroke-width:8.64"/>
	<line x1="395.88" y1="1842.20" x2="3859.02" y2="1842.20" style="stroke:#FFFFFF;stroke-width:8.64"/>
	<line x1="395.88" y1="1336.79" x2="3859.02" y2="1336.79" style="stroke:#FFFFFF;stroke-width:8.64"/>
	<line x1="395.88" y1="831.38" x2="3859.02" y2="831.38" style="stroke:#FFFFFF;stroke-width:8.64"/>
	<line x1="395.88" y1="325.97" x2="3859.02" y2="325.97" style="stroke:#FFFFFF;stroke-width:8.64"/>
	<line x1="413.08" y1="262.73" x2="475.45" y2="296.39" stroke-linecap="round" style="stroke:#18696D;stroke-width:12.96"/>
	<line x1="475.45" y1="296.39" x2="537.82" y2="286.74" stroke-linecap="round" style="stroke:#18696D;stroke-width:12.96"/>
	<line x1="537.82" y1="286.74" x2="600.19" y2="325.97" stroke-linecap="round" style="stroke:#18696D;stroke-width:12.96"/>
	<line x1="600.19" y1="325.97" x2="662.43" y2="323.25" stroke-linecap="round" style="stroke:#18696D;stroke-width:12.96"/>
	<line x1="662.43" y1="323.25" x2="724.80" y2="309.63" stroke-linecap="round" style="stroke:#18696D;stroke-width:12.96"/>
	<line x1="724.80" y1="309.63" x2="787.17" y2="287.23" stroke-linecap="round" style="stroke:#18696D;stroke-width:12.96"/>
	<line x1="787.17" y1="287.23" x2="849.54" y2="299.73" stroke-linecap="round" style="stroke:#18696D;stroke-width:12.96"/>
	<line x1="849.54" y1="299.73" x2="911.79" y2="310.13" stroke-linecap="round" style="stroke:#18696D;stroke-width:12.96"/>
	<line x1="911.79" y1="310.13" x2="974.16" y2="274.61" stroke-linecap="round" style="stroke:#18696D;stroke-width:12.96"/>
	<line x1="974.16" y1="274.61" x2="1036.53" y2="296.39" stroke-linecap="round" style="stroke:#18696D;stroke-width:12.96"/>
	<line x1="1036.53" y1="296.39" x2="1098.90" y2="268.30" stroke-linecap="round" style="stroke:#18696D;stroke-width:12.96"/>
	<line x1="1098.90" y1="268.30" x2="1161.15" y2="262.73" stroke-linecap="round" style="stroke:#18696D;stroke-width:12.96"/>
	<line x1="1161.15" y1="262.73" x2="1223.52" y2="302.08" stroke-linecap="round" style="stroke:#18696D;stroke-width:12.96"/>
	<line x1="1223.52" y1="302.08" x2="1285.89" y2="314.83" stroke-linecap="round" style="stroke:#18696D;stroke-width:12.96"/>
	<line x1="1285.89" y1="314.83" x2="1348.26" y2="342.80" stroke-linecap="round" style="stroke:#18696D;stroke-width:12.96"/>
	<line x1="1348.26" y1="342.80" x2="1410.50" y2="352.82" stroke-linecap="round" style="stroke:#18696D;stroke-width:12.96"/>
	<line x1="1410.50" y1="352.82" x2="1472.87" y2="348.86" stroke-linecap="round" style="stroke:#18696D;stroke-width:12.96"/>
	<line x1="1472.87" y1="348.86" x2="1535.24" y2="293.54" stroke-linecap="round" style="stroke:#18696D;stroke-width:12.96"/>
	<line x1="1535.24" y1="293.54" x2="1597.61" y2="330.67" stroke-linecap="round" style="stroke:#18696D;stroke-width:12.96"/>
	<line x1="1597.61" y1="330.67" x2="1659.86" y2="317.43" stroke-linecap="round" style="stroke:#18696D;stroke-width:12.96"/>
	<line x1="1659.86" y1="317.43" x2="1722.23" y2="303.69" stroke-linecap="round" style="stroke:#18696D;stroke-width:12.96"/>
	<line x1="1722.23" y1="303.69" x2="1784.60" y2="318.91" stroke-linecap="round" style="stroke:#18696D;stroke-width:12.96"/>
	<line x1="1784.60" y1="318.91" x2="1846.97" y2="348.49" stroke-linecap="round" style="stroke:#18696D;stroke-width:12.96"/>
	<line x1="1846.97" y1="348.49" x2="1909.21" y2="383.14" stroke-linecap="round" style="stroke:#18696D;stroke-width:12.96"/>
	<line x1="1909.21" y1="383.14" x2="1971.59" y2="365.69" stroke-linecap="round" style="stroke:#18696D;stroke-width:12.96"/>
	<line x1="1971.59" y1="365.69" x2="2033.95" y2="395.89" stroke-linecap="round" style="stroke:#18696D;stroke-width:12.96"/>
	<line x1="2033.95" y1="395.89" x2="2096.32" y2="373.24" stroke-linecap="round" style="stroke:#18696D;stroke-width:12.96"/>
	<line x1="2096.32" y1="373.24" x2="2158.57" y2="375.84" stroke-linecap="round" style="stroke:#18696D;stroke-width:12.96"/>
	<line x1="2158.57" y1="375.84" x2="2220.94" y2="402.57" stroke-linecap="round" style="stroke:#18696D;stroke-width:12.96"/>
	<line x1="2220.94" y1="402.57" x2="2283.31" y2="371.39" stroke-linecap="round" style="stroke:#18696D;stroke-width:12.96"/>
	<line x1="2283.31" y1="371.39" x2="2345.68" y2="419.03" stroke-linecap="round" style="stroke:#18696D;stroke-width:12.96"/>
	<line x1="2345.68" y1="419.03" x2="2407.93" y2="370.40" stroke-linecap="round" style="stroke:#18696D;stroke-width:12.96"/>
	<line x1="2407.93" y1="370.40" x2="2470.30" y2="418.04" stroke-linecap="round" style="stroke:#18696D;stroke-width:12.96"/>
	<line x1="2470.30" y1="418.04" x2="2532.67" y2="447.25" stroke-linecap="round" style="stroke:#18696D;stroke-width:12.96"/>
	<line x1="2532.67" y1="447.25" x2="2594.91" y2="507.76" stroke-linecap="round" style="stroke:#18696D;stroke-width:12.96"/>
	<line x1="2594.91" y1="507.76" x2="2657.28" y2="536.35" stroke-linecap="round" style="stroke:#18696D;stroke-width:12.96"/>
	<line x1="2657.28" y1="536.35" x2="2719.65" y2="551.82" stroke-linecap="round" style="stroke:#18696D;stroke-width:12.96"/>
	<line x1="2719.65" y1="551.82" x2="2782.02" y2="516.80" stroke-linecap="round" style="stroke:#18696D;stroke-width:12.96"/>
	<line x1="2782.02" y1="516.80" x2="2844.27" y2="493.78" stroke-linecap="round" style="stroke:#18696D;stroke-width:12.96"/>
	<line x1="2844.27" y1="493.78" x2="2906.64" y2="551.20" stroke-linecap="round" style="stroke:#18696D;stroke-width:12.96"/>
	<line x1="2906.64" y1="551.20" x2="2969.01" y2="601.20" stroke-linecap="round" style="stroke:#18696D;stroke-width:12.96"/>
	<line x1="2969.01" y1="601.20" x2="3031.38" y2="632.75" stroke-linecap="round" style="stroke:#18696D;stroke-width:12.96"/>
	<line x1="3031.38" y1="632.75" x2="3093.63" y2="698.22" stroke-linecap="round" style="stroke:#18696D;stroke-width:12.96"/>
	<line x1="3093.63" y1="698.22" x2="3156.00" y2="683.12" stroke-linecap="round" style="stroke:#18696D;stroke-width:12.96"/>
	<line x1="3156.00" y1="683.12" x2="3218.37" y2="714.06" stroke-linecap="round" style="stroke:#18696D;stroke-width:12.96"/>
	<line x1="3218.37" y1="714.06" x2="3280.74" y2="713.44" stroke-linecap="round" style="stroke:#18696D;stroke-width:12.96"/>
	<line x1="3280.74" y1="713.44" x2="3342.98" y2="724.08" stroke-linecap="round" style="stroke:#18696D;stroke-width:12.96"/>
	<line x1="3342.98" y1="724.08" x2="3405.35" y2="717.40" stroke-linecap="round" style="stroke:#18696D;stroke-width:12.96"/>
	<line x1="3405.35" y1="717.40" x2="3467.72" y2="714.55" stroke-linecap="round" style="stroke:#18696D;stroke-width:12.96"/>
	<circle cx="413.20" cy="262.73" r="6.73" style="fill:#18696D"/>
	<circle cx="413.20" cy="262.73" r="0.25" style="fill:none;stroke:#18696D;stroke-width:12.96"/>
	<circle cx="475.57" cy="296.39" r="6.73" style="fill:#18696D"/>
	<circle cx="475.57" cy="296.39" r="0.25" style="fill:none;stroke:#18696D;stroke-width:12.96"/>
	<circle cx="537.82" cy="286.61" r="6.73" style="fill:#18696D"/>
	<circle cx="537.82" cy="286.61" r="0.25" style="fill:none;stroke:#18696D;stroke-width:12.96"/>
	<circle cx="600.19" cy="325.97" r="6.73" style="fill:#18696D"/>
	<circle cx="600.19" cy="325.97" r="0.25" style="fill:none;stroke:#18696D;stroke-width:12.96"/>
	<circle cx="662.56" cy="323.12" r="6.73" style="fill:#18696D"/>
	<circle cx="662.56" cy="323.12" r="0.25" style="fill:none;stroke:#18696D;stroke-width:12.96"/>
	<circle cx="724.93" cy="309.63" r="6.73" style="fill:#18696D"/>
	<circle cx="724.93" cy="309.63" r="0.25" style="fill:none;stroke:#18696D;stroke-width:12.96"/>
	<circle cx="787.17" cy="287.11" r="6.73" style="fill:#18696D"/>
	<circle cx="787.17" cy="287.11" r="0.25" style="fill:none;stroke:#18696D;stroke-width:12.96"/>
	<circle cx="849.54" cy="299.61" r="6.73" style="fill:#18696D"/>
	<circle cx="849.54" cy="299.61" r="0.25" style="fill:none;stroke:#18696D;stroke-width:12.96"/>
	<circle cx="911.91" cy="310.00" r="6.73" style="fill:#18696D"/>
	<circle cx="911.91" cy="310.00" r="0.25" style="fill:none;stroke:#18696D;stroke-width:12.96"/>
	<circle cx="974.28" cy="274.61" r="6.73" style="fill:#18696D"/>
	<circle cx="974.28" cy="274.61" r="0.25" style="fill:none;stroke:#18696D;stroke-width:12.96"/>
	<circle cx="1036.53" cy="296.39" r="6.73" style="fill:#18696D"/>
	<circle cx="1036.53" cy="296.39" r="0.25" style="fill:none;stroke:#18696D;stroke-width:12.96"/>
	<circle cx="1098.90" cy="268.17" r="6.73" style="fill:#18696D"/>
	<circle cx="1098.90" cy="268.17" r="0.25" style="fill:none;stroke:#18696D;stroke-width:12.96"/>
	<circle cx="1161.27" cy="262.61" r="6.73" style="fill:#18696D"/>
	<circle cx="1161.27" cy="262.61" r="0.25" style="fill:none;stroke:#18696D;stroke-width:12.96"/>
	<circle cx="1223.64" cy="301.96" r="6.73" style="fill:#18696D"/>
	<circle cx="1223.64" cy="301.96" r="0.25" style="fill:none;stroke:#18696D;stroke-width:12.96"/>
	<circle cx="1285.89" cy="314.83" r="6.73" style="fill:#18696D"/>
	<circle cx="1285.89" cy="314.83" r="0.25" style="fill:none;stroke:#18696D;stroke-width:12.96"/>
	<circle cx="1348.26" cy="342.67" r="6.73" style="fill:#18696D"/>
	<circle cx="1348.26" cy="342.67" r="0.25" style="fill:none;stroke:#18696D;stroke-width:12.96"/>
	<circle cx="1410.63" cy="352.82" r="6.73" style="fill:#18696D"/>
	<circle cx="1410.63" cy="352.82" r="0.25" style="fill:none;stroke:#18696D;stroke-width:12.96"/>
	<circle cx="1473.00" cy="348.86" r="6.73" style="fill:#18696D"/>
	<circle cx="1473.00" cy="348.86" r="0.25" style="fill:none;stroke:#18696D;stroke-width:12.96"/>
	<circle cx="1535.24" cy="293.42" r="6.73" style="fill:#18696D"/>
	<circle cx="1535.24" cy="293.42" r="0.25" style="fill:none;stroke:#18696D;stroke-width:12.96"/>
	<circle cx="1597.61" cy="330.67" r="6.73" style="fill:#18696D"/>
	<circle cx="1597.61" cy="330.67" r="0.25" style="fill:none;stroke:#18696D;stroke-width:12.96"/>
	<circle cx="1659.98" cy="317.43" r="6.73" style="fill:#18696D"/>
	<circle cx="1659.98" cy="317.43" r="0.25" style="fill:none;stroke:#18696D;stroke-width:12.96"/>
	<circle cx="1722.35" cy="303.69" r="6.73" style="fill:#18696D"/>
	<circle cx="1722.35" cy="303.69" r="0.25" style="fill:none;stroke:#18696D;stroke-width:12.96"/>
	<circle cx="1784.60" cy="318.91" r="6.73" style="fill:#18696D"/>
	<circle cx="1784.60" cy="318.91" r="0.25" style="fill:none;stroke:#18696D;stroke-width:12.96"/>
	<circle cx="1846.97" cy="348.37" r="6.73" style="fill:#18696D"/>
	<circle cx="1846.97" cy="348.37" r="0.25" style="fill:none;stroke:#18696D;stroke-width:12.96"/>
	<circle cx="1909.34" cy="383.14" r="6.73" style="fill:#18696D"/>
	<circle cx="1909.34" cy="383.14" r="0.25" style="fill:none;stroke:#18696D;stroke-width:12.96"/>
	<circle cx="1971.71" cy="365.69" r="6.73" style="fill:#18696D"/>
	<circle cx="1971.71" cy="365.69" r="0.25" style="fill:none;stroke:#18696D;stroke-width:12.96"/>
	<circle cx="2033.95" cy="395.76" r="6.73" style="fill:#18696D"/>
	<circle cx="2033.95" cy="395.76" r="0.25" style="fill:none;stroke:#18696D;stroke-width:12.96"/>
	<circle cx="2096.32" cy="373.12" r="6.73" style="fill:#18696D"/>
	<circle cx="2096.32" cy="373.12" r="0.25" style="fill:none;stroke:#18696D;stroke-width:12.96"/>
	<circle cx="2158.70" cy="375.72" r="6.73" style="fill:#18696D"/>
	<circle cx="2158.70" cy="375.72" r="0.25" style="fill:none;stroke:#18696D;stroke-width:12.96"/>
	<circle cx="2221.07" cy="402.45" r="6.73" style="fill:#18696D"/>
	<circle cx="2221.07" cy="402.45" r="0.25" style="fill:none;stroke:#18696D;stroke-width:12.96"/>
	<circle cx="2283.31" cy="371.39" r="6.73" style="fill:#18696D"/>
	<circle cx="2283.31" cy="371.39" r="0.25" style="fill:none;stroke:#18696D;stroke-width:12.96"/>
	<circle cx="2345.68" cy="419.03" r="6.73" style="fill:#18696D"/>
	<circle cx="2345.68" cy="419.03" r="0.25" style="fill:none;stroke:#18696D;stroke-width:12.96"/>
	<circle cx="2408.05" cy="370.40" r="6.73" style="fill:#18696D"/>
	<circle cx="2408.05" cy="370.40" r="0.25" style="fill:none;stroke:#18696D;stroke-width:12.96"/>
	<circle cx="2470.30" cy="418.04" r="6.73" style="fill:#18696D"/>
	<circle cx="2470.30" cy="418.04" r="0.25" style="fill:none;stroke:#18696D;stroke-width:12.96"/>
	<circle cx="2532.67" cy="447.25" r="6.73" style="fill:#18696D"/>
	<circle cx="2532.67" cy="447.25" r="0.25" style="fill:none;stroke:#18696D;stroke-width:12.96"/>
	<circle cx="2595.04" cy="507.64" r="6.73" style="fill:#18696D"/>
	<circle cx="2595.04" cy="507.64" r="0.25" style="fill:none;stroke:#18696D;stroke-width:12.96"/>
	<circle cx="2657.41" cy="536.35" r="6.73" style="fill:#18696D"/>
	<circle cx="2657.41" cy="536.35" r="0.25" style="fill:none;stroke:#18696D;stroke-width:12.96"/>
	<circle cx="2719.65" cy="551.82" r="6.73" style="fill:#18696D"/>
	<circle cx="2719.65" cy="551.82" r="0.25" style="fill:none;stroke:#18696D;stroke-width:12.96"/>
	<circle cx="2782.02" cy="516.67" r="6.73" style="fill:#18696D"/>
	<circle cx="2782.02" cy="516.67" r="0.25" style="fill:none;stroke:#18696D;stroke-width:12.96"/>
	<circle cx="2844.39" cy="493.65" r="6.73" style="fill:#18696D"/>
	<circle cx="2844.39" cy="493.65" r="0.25" style="fill:none;stroke:#18696D;stroke-width:12.96"/>
	<circle cx="2906.76" cy="551.08" r="6.73" style="fill:#18696D"/>
	<circle cx="2906.76" cy="551.08" r="0.25" style="fill:none;stroke:#18696D;stroke-width:12.96"/>
	<circle cx="2969.01" cy="601.07" r="6.73" style="fill:#18696D"/>
	<circle cx="2969.01" cy="601.07" r="0.25" style="fill:none;stroke:#18696D;stroke-width:12.96"/>
	<circle cx="3031.38" cy="632.75" r="6.73" style="fill:#18696D"/>
	<circle cx="3031.38" cy="632.75" r="0.25" style="fill:none;stroke:#18696D;stroke-width:12.96"/>
	<circle cx="3093.75" cy="698.22" r="6.73" style="fill:#18696D"/>
	<circle cx="3093.75" cy="698.22" r="0.25" style="fill:none;stroke:#18696D;stroke-width:12.96"/>
	<circle cx="3156.12" cy="683.00" r="6.73" style="fill:#18696D"/>
	<circle cx="3156.12" cy="683.00" r="0.25" style="fill:none;stroke:#18696D;stroke-width:12.96"/>
	<circle cx="3218.37" cy="714.06" r="6.73" style="fill:#18696D"/>
	<circle cx="3218.37" cy="714.06" r="0.25" style="fill:none;stroke:#18696D;stroke-width:12.96"/>
	<circle cx="3280.74" cy="713.44" r="6.73" style="fill:#18696D"/>
	<circle cx="3280.74" cy="713.44" r="0.25" style="fill:none;stroke:#18696D;stroke-width:12.96"/>
	<circle cx="3343.11" cy="724.08" r="6.73" style="fill:#18696D"/>
	<circle cx="3343.11" cy="724.08" r="0.25" style="fill:none;stroke:#18696D;stroke-width:12.96"/>
	<circle cx="3405.48" cy="717.28" r="6.73" style="fill:#18696D"/>
	<circle cx="3405.48" cy="717.28" r="0.25" style="fill:none;stroke:#18696D;stroke-width:12.96"/>
	<circle cx="3467.72" cy="714.43" r="6.73" style="fill:#18696D"/>
	<circle cx="3467.72" cy="714.43" r="0.25" style="fill:none;stroke:#18696D;stroke-width:12.96"/>
	<text x="3487.77" y="752.97" style="font-family:'Helvetica';font-size:110.01px;fill:#18696d">Men</text>
	<line x1="413.08" y1="2457.50" x2="475.45" y2="2376.94" stroke-linecap="round" style="stroke:#DB7029;stroke-width:12.96"/>
	<line x1="475.45" y1="2376.94" x2="537.82" y2="2302.69" stroke-linecap="round" style="stroke:#DB7029;stroke-width:12.96"/>
	<line x1="537.82" y1="2302.69" x2="600.19" y2="2314.57" stroke-linecap="round" style="stroke:#DB7029;stroke-width:12.96"/>
	<line x1="600.19" y1="2314.57" x2="662.43" y2="2214.08" stroke-linecap="round" style="stroke:#DB7029;stroke-width:12.96"/>
	<line x1="662.43" y1="2214.08" x2="724.80" y2="2090.57" stroke-linecap="round" style="stroke:#DB7029;stroke-width:12.96"/>
	<line x1="724.80" y1="2090.57" x2="787.17" y2="1969.91" stroke-linecap="round" style="stroke:#DB7029;stroke-width:12.96"/>
	<line x1="787.17" y1="1969.91" x2="849.54" y2="1876.73" stroke-linecap="round" style="stroke:#DB7029;stroke-width:12.96"/>
	<line x1="849.54" y1="1876.73" x2="911.79" y2="1802.97" stroke-linecap="round" style="stroke:#DB7029;stroke-width:12.96"/>
	<line x1="911.79" y1="1802.97" x2="974.16" y2="1690.11" stroke-linecap="round" style="stroke:#DB7029;stroke-width:12.96"/>
	<line x1="974.16" y1="1690.11" x2="1036.53" y2="1604.72" stroke-linecap="round" style="stroke:#DB7029;stroke-width:12.96"/>
	<line x1="1036.53" y1="1604.72" x2="1098.90" y2="1495.07" stroke-linecap="round" style="stroke:#DB7029;stroke-width:12.96"/>
	<line x1="1098.90" y1="1495.07" x2="1161.15" y2="1480.96" stroke-linecap="round" style="stroke:#DB7029;stroke-width:12.96"/>
	<line x1="1161.15" y1="1480.96" x2="1223.52" y2="1428.61" stroke-linecap="round" style="stroke:#DB7029;stroke-width:12.96"/>
	<line x1="1223.52" y1="1428.61" x2="1285.89" y2="1391.49" stroke-linecap="round" style="stroke:#DB7029;stroke-width:12.96"/>
	<line x1="1285.89" y1="1391.49" x2="1348.26" y2="1351.76" stroke-linecap="round" style="stroke:#DB7029;stroke-width:12.96"/>
	<line x1="1348.26" y1="1351.76" x2="1410.50" y2="1333.45" stroke-linecap="round" style="stroke:#DB7029;stroke-width:12.96"/>
	<line x1="1410.50" y1="1333.45" x2="1472.87" y2="1292.24" stroke-linecap="round" style="stroke:#DB7029;stroke-width:12.96"/>
	<line x1="1472.87" y1="1292.24" x2="1535.24" y2="1265.26" stroke-linecap="round" style="stroke:#DB7029;stroke-width:12.96"/>
	<line x1="1535.24" y1="1265.26" x2="1597.61" y2="1173.81" stroke-linecap="round" style="stroke:#DB7029;stroke-width:12.96"/>
	<line x1="1597.61" y1="1173.81" x2="1659.86" y2="1197.44" stroke-linecap="round" style="stroke:#DB7029;stroke-width:12.96"/>
	<line x1="1659.86" y1="1197.44" x2="1722.23" y2="1204.37" stroke-linecap="round" style="stroke:#DB7029;stroke-width:12.96"/>
	<line x1="1722.23" y1="1204.37" x2="1784.60" y2="1186.06" stroke-linecap="round" style="stroke:#DB7029;stroke-width:12.96"/>
	<line x1="1784.60" y1="1186.06" x2="1846.97" y2="1231.72" stroke-linecap="round" style="stroke:#DB7029;stroke-width:12.96"/>
	<line x1="1846.97" y1="1231.72" x2="1909.21" y2="1191.63" stroke-linecap="round" style="stroke:#DB7029;stroke-width:12.96"/>
	<line x1="1909.21" y1="1191.63" x2="1971.59" y2="1196.70" stroke-linecap="round" style="stroke:#DB7029;stroke-width:12.96"/>
	<line x1="1971.59" y1="1196.70" x2="2033.95" y2="1189.77" stroke-linecap="round" style="stroke:#DB7029;stroke-width:12.96"/>
	<line x1="2033.95" y1="1189.77" x2="2096.32" y2="1188.78" stroke-linecap="round" style="stroke:#DB7029;stroke-width:12.96"/>
	<line x1="2096.32" y1="1188.78" x2="2158.57" y2="1138.16" stroke-linecap="round" style="stroke:#DB7029;stroke-width:12.96"/>
	<line x1="2158.57" y1="1138.16" x2="2220.94" y2="1038.54" stroke-linecap="round" style="stroke:#DB7029;stroke-width:12.96"/>
	<line x1="2220.94" y1="1038.54" x2="2283.31" y2="1022.08" stroke-linecap="round" style="stroke:#DB7029;stroke-width:12.96"/>
	<line x1="2283.31" y1="1022.08" x2="2345.68" y2="1025.92" stroke-linecap="round" style="stroke:#DB7029;stroke-width:12.96"/>
	<line x1="2345.68" y1="1025.92" x2="2407.93" y2="1010.45" stroke-linecap="round" style="stroke:#DB7029;stroke-width:12.96"/>
	<line x1="2407.93" y1="1010.45" x2="2470.30" y2="1059.09" stroke-linecap="round" style="stroke:#DB7029;stroke-width:12.96"/>
	<line x1="2470.30" y1="1059.09" x2="2532.67" y2="1073.32" stroke-linecap="round" style="stroke:#DB7029;stroke-width:12.96"/>
	<line x1="2532.67" y1="1073.32" x2="2594.91" y2="1202.15" stroke-linecap="round" style="stroke:#DB7029;stroke-width:12.96"/>
	<line x1="2594.91" y1="1202.15" x2="2657.28" y2="1247.19" stroke-linecap="round" style="stroke:#DB7029;stroke-width:12.96"/>
	<line x1="2657.28" y1="1247.19" x2="2719.65" y2="1236.67" stroke-linecap="round" style="stroke:#DB7029;stroke-width:12.96"/>
	<line x1="2719.65" y1="1236.67" x2="2782.02" y2="1207.84" stroke-linecap="round" style="stroke:#DB7029;stroke-width:12.96"/>
	<line x1="2782.02" y1="1207.84" x2="2844.27" y2="1185.31" stroke-linecap="round" style="stroke:#DB7029;stroke-width:12.96"/>
	<line x1="2844.27" y1="1185.31" x2="2906.64" y2="1154.75" stroke-linecap="round" style="stroke:#DB7029;stroke-width:12.96"/>
	<line x1="2906.64" y1="1154.75" x2="2969.01" y2="1134.20" stroke-linecap="round" style="stroke:#DB7029;stroke-width:12.96"/>
	<line x1="2969.01" y1="1134.20" x2="3031.38" y2="1234.20" stroke-linecap="round" style="stroke:#DB7029;stroke-width:12.96"/>
	<line x1="3031.38" y1="1234.20" x2="3093.63" y2="1242.24" stroke-linecap="round" style="stroke:#DB7029;stroke-width:12.96"/>
	<line x1="3093.63" y1="1242.24" x2="3156.00" y2="1260.06" stroke-linecap="round" style="stroke:#DB7029;stroke-width:12.96"/>
	<line x1="3156.00" y1="1260.06" x2="3218.37" y2="1285.68" stroke-linecap="round" style="stroke:#DB7029;stroke-width:12.96"/>
	<line x1="3218.37" y1="1285.68" x2="3280.74" y2="1249.17" stroke-linecap="round" style="stroke:#DB7029;stroke-width:12.96"/>
	<line x1="3280.74" y1="1249.17" x2="3342.98" y2="1260.19" stroke-linecap="round" style="stroke:#DB7029;stroke-width:12.96"/>
	<line x1="3342.98" y1="1260.19" x2="3405.35" y2="1184.82" stroke-linecap="round" style="stroke:#DB7029;stroke-width:12.96"/>
	<line x1="3405.35" y1="1184.82" x2="3467.72" y2="1131.61" stroke-linecap="round" style="stroke:#DB7029;stroke-width:12.96"/>
	<circle cx="413.20" cy="2457.38" r="6.73" style="fill:#DB7029"/>
	<circle cx="413.20" cy="2457.38" r="0.25" style="fill:none;stroke:#DB7029;stroke-width:12.96"/>
	<circle cx="475.57" cy="2376.82" r="6.73" style="fill:#DB7029"/>
	<circle cx="475.57" cy="2376.82" r="0.25" style="fill:none;stroke:#DB7029;stroke-width:12.96"/>
	<circle cx="537.82" cy="2302.56" r="6.73" style="fill:#DB7029"/>
	<circle cx="537.82" cy="2302.56" r="0.25" style="fill:none;stroke:#DB7029;stroke-width:12.96"/>
	<circle cx="600.19" cy="2314.44" r="6.73" style="fill:#DB7029"/>
	<circle cx="600.19" cy="2314.44" r="0.25" style="fill:none;stroke:#DB7029;stroke-width:12.96"/>
	<circle cx="662.56" cy="2213.96" r="6.73" style="fill:#DB7029"/>
	<circle cx="662.56" cy="2213.96" r="0.25" style="fill:none;stroke:#DB7029;stroke-width:12.96"/>
	<circle cx="724.93" cy="2090.45" r="6.73" style="fill:#DB7029"/>
	<circle cx="724.93" cy="2090.45" r="0.25" style="fill:none;stroke:#DB7029;stroke-width:12.96"/>
	<circle cx="787.17" cy="1969.91" r="6.73" style="fill:#DB7029"/>
	<circle cx="787.17" cy="1969.91" r="0.25" style="fill:none;stroke:#DB7029;stroke-width:12.96"/>
	<circle cx="849.54" cy="1876.73" r="6.73" style="fill:#DB7029"/>
	<circle cx="849.54" cy="1876.73" r="0.25" style="fill:none;stroke:#DB7029;stroke-width:12.96"/>
	<circle cx="911.91" cy="1802.97" r="6.73" style="fill:#DB7029"/>
	<circle cx="911.91" cy="1802.97" r="0.25" style="fill:none;stroke:#DB7029;stroke-width:12.96"/>
	<circle cx="974.28" cy="1690.11" r="6.73" style="fill:#DB7029"/>
	<circle cx="974.28" cy="1690.11" r="0.25" style="fill:none;stroke:#DB7029;stroke-width:12.96"/>
	<circle cx="1036.53" cy="1604.59" r="6.73" style="fill:#DB7029"/>
	<circle cx="1036.53" cy="1604.59" r="0.25" style="fill:none;stroke:#DB7029;stroke-width:12.96"/>
	<circle cx="1098.90" cy="1495.07" r="6.73" style="fill:#DB7029"/>
	<circle cx="1098.90" cy="1495.07" r="0.25" style="fill:none;stroke:#DB7029;stroke-width:12.96"/>
	<circle cx="1161.27" cy="1480.84" r="6.73" style="fill:#DB7029"/>
	<circle cx="1161.27" cy="1480.84" r="0.25" style="fill:none;stroke:#DB7029;stroke-width:12.96"/>
	<circle cx="1223.64" cy="1428.61" r="6.73" style="fill:#DB7029"/>
	<circle cx="1223.64" cy="1428.61" r="0.25" style="fill:none;stroke:#DB7029;stroke-width:12.96"/>
	<circle cx="1285.89" cy="1391.49" r="6.73" style="fill:#DB7029"/>
	<circle cx="1285.89" cy="1391.49" r="0.25" style="fill:none;stroke:#DB7029;stroke-width:12.96"/>
	<circle cx="1348.26" cy="1351.76" r="6.73" style="fill:#DB7029"/>
	<circle cx="1348.26" cy="1351.76" r="0.25" style="fill:none;stroke:#DB7029;stroke-width:12.96"/>
	<circle cx="1410.63" cy="1333.45" r="6.73" style="fill:#DB7029"/>
	<circle cx="1410.63" cy="1333.45" r="0.25" style="fill:none;stroke:#DB7029;stroke-width:12.96"/>
	<circle cx="1473.00" cy="1292.24" r="6.73" style="fill:#DB7029"/>
	<circle cx="1473.00" cy="1292.24" r="0.25" style="fill:none;stroke:#DB7029;stroke-width:12.96"/>
	<circle cx="1535.24" cy="1265.14" r="6.73" style="fill:#DB7029"/>
	<circle cx="1535.24" cy="1265.14" r="0.25" style="fill:none;stroke:#DB7029;stroke-width:12.96"/>
	<circle cx="1597.61" cy="1173.68" r="6.73" style="fill:#DB7029"/>
	<circle cx="1597.61" cy="1173.68" r="0.25" style="fill:none;stroke:#DB7029;stroke-width:12.96"/>
	<circle cx="1659.98" cy="1197.44" r="6.73" style="fill:#DB7029"/>
	<circle cx="1659.98" cy="1197.44" r="0.25" style="fill:none;stroke:#DB7029;stroke-width:12.96"/>
	<circle cx="1722.35" cy="1204.37" r="6.73" style="fill:#DB7029"/>
	<circle cx="1722.35" cy="1204.37" r="0.25" style="fill:none;stroke:#DB7029;stroke-width:12.96"/>
	<circle cx="1784.60" cy="1186.06" r="6.73" style="fill:#DB7029"/>
	<circle cx="1784.60" cy="1186.06" r="0.25" style="fill:none;stroke:#DB7029;stroke-width:12.96"/>
	<circle cx="1846.97" cy="1231.60" r="6.73" style="fill:#DB7029"/>
	<circle cx="1846.97" cy="1231.60" r="0.25" style="fill:none;stroke:#DB7029;stroke-width:12.96"/>
	<circle cx="1909.34" cy="1191.50" r="6.73" style="fill:#DB7029"/>
	<circle cx="1909.34" cy="1191.50" r="0.25" style="fill:none;stroke:#DB7029;stroke-width:12.96"/>
	<circle cx="1971.71" cy="1196.58" r="6.73" style="fill:#DB7029"/>
	<circle cx="1971.71" cy="1196.58" r="0.25" style="fill:none;stroke:#DB7029;stroke-width:12.96"/>
	<circle cx="2033.95" cy="1189.77" r="6.73" style="fill:#DB7029"/>
	<circle cx="2033.95" cy="1189.77" r="0.25" style="fill:none;stroke:#DB7029;stroke-width:12.96"/>
	<circle cx="2096.32" cy="1188.78" r="6.73" style="fill:#DB7029"/>
	<circle cx="2096.32" cy="1188.78" r="0.25" style="fill:none;stroke:#DB7029;stroke-width:12.96"/>
	<circle cx="2158.70" cy="1138.04" r="6.73" style="fill:#DB7029"/>
	<circle cx="2158.70" cy="1138.04" r="0.25" style="fill:none;stroke:#DB7029;stroke-width:12.96"/>
	<circle cx="2221.07" cy="1038.42" r="6.73" style="fill:#DB7029"/>
	<circle cx="2221.07" cy="1038.42" r="0.25" style="fill:none;stroke:#DB7029;stroke-width:12.96"/>
	<circle cx="2283.31" cy="1021.96" r="6.73" style="fill:#DB7029"/>
	<circle cx="2283.31" cy="1021.96" r="0.25" style="fill:none;stroke:#DB7029;stroke-width:12.96"/>
	<circle cx="2345.68" cy="1025.92" r="6.73" style="fill:#DB7029"/>
	<circle cx="2345.68" cy="1025.92" r="0.25" style="fill:none;stroke:#DB7029;stroke-width:12.96"/>
	<circle cx="2408.05" cy="1010.33" r="6.73" style="fill:#DB7029"/>
	<circle cx="2408.05" cy="1010.33" r="0.25" style="fill:none;stroke:#DB7029;stroke-width:12.96"/>
	<circle cx="2470.30" cy="1059.09" r="6.73" style="fill:#DB7029"/>
	<circle cx="2470.30" cy="1059.09" r="0.25" style="fill:none;stroke:#DB7029;stroke-width:12.96"/>
	<circle cx="2532.67" cy="1073.19" r="6.73" style="fill:#DB7029"/>
	<circle cx="2532.67" cy="1073.19" r="0.25" style="fill:none;stroke:#DB7029;stroke-width:12.96"/>
	<circle cx="2595.04" cy="1202.15" r="6.73" style="fill:#DB7029"/>
	<circle cx="2595.04" cy="1202.15" r="0.25" style="fill:none;stroke:#DB7029;stroke-width:12.96"/>
	<circle cx="2657.41" cy="1247.07" r="6.73" style="fill:#DB7029"/>
	<circle cx="2657.41" cy="1247.07" r="0.25" style="fill:none;stroke:#DB7029;stroke-width:12.96"/>
	<circle cx="2719.65" cy="1236.67" r="6.73" style="fill:#DB7029"/>
	<circle cx="2719.65" cy="1236.67" r="0.25" style="fill:none;stroke:#DB7029;stroke-width:12.96"/>
	<circle cx="2782.02" cy="1207.84" r="6.73" style="fill:#DB7029"/>
	<circle cx="2782.02" cy="1207.84" r="0.25" style="fill:none;stroke:#DB7029;stroke-width:12.96"/>
	<circle cx="2844.39" cy="1185.31" r="6.73" style="fill:#DB7029"/>
	<circle cx="2844.39" cy="1185.31" r="0.25" style="fill:none;stroke:#DB7029;stroke-width:12.96"/>
	<circle cx="2906.76" cy="1154.62" r="6.73" style="fill:#DB7029"/>
	<circle cx="2906.76" cy="1154.62" r="0.25" style="fill:none;stroke:#DB7029;stroke-width:12.96"/>
	<circle cx="2969.01" cy="1134.08" r="6.73" style="fill:#DB7029"/>
	<circle cx="2969.01" cy="1134.08" r="0.25" style="fill:none;stroke:#DB7029;stroke-width:12.96"/>
	<circle cx="3031.38" cy="1234.20" r="6.73" style="fill:#DB7029"/>
	<circle cx="3031.38" cy="1234.20" r="0.25" style="fill:none;stroke:#DB7029;stroke-width:12.96"/>
	<circle cx="3093.75" cy="1242.24" r="6.73" style="fill:#DB7029"/>
	<circle cx="3093.75" cy="1242.24" r="0.25" style="fill:none;stroke:#DB7029;stroke-width:12.96"/>
	<circle cx="3156.12" cy="1259.94" r="6.73" style="fill:#DB7029"/>
	<circle cx="3156.12" cy="1259.94" r="0.25" style="fill:none;stroke:#DB7029;stroke-width:12.96"/>
	<circle cx="3218.37" cy="1285.68" r="6.73" style="fill:#DB7029"/>
	<circle cx="3218.37" cy="1285.68" r="0.25" style="fill:none;stroke:#DB7029;stroke-width:12.96"/>
	<circle cx="3280.74" cy="1249.05" r="6.73" style="fill:#DB7029"/>
	<circle cx="3280.74" cy="1249.05" r="0.25" style="fill:none;stroke:#DB7029;stroke-width:12.96"/>
	<circle cx="3343.11" cy="1260.06" r="6.73" style="fill:#DB7029"/>
	<circle cx="3343.11" cy="1260.06" r="0.25" style="fill:none;stroke:#DB7029;stroke-width:12.96"/>
	<circle cx="3405.48" cy="1184.82" r="6.73" style="fill:#DB7029"/>
	<circle cx="3405.48" cy="1184.82" r="0.25" style="fill:none;stroke:#DB7029;stroke-width:12.96"/>
	<circle cx="3467.72" cy="1131.61" r="6.73" style="fill:#DB7029"/>
	<circle cx="3467.72" cy="1131.61" r="0.25" style="fill:none;stroke:#DB7029;stroke-width:12.96"/>
	<text x="3487.77" y="1170.14" style="font-family:'Helvetica';font-size:110.01px;fill:#DB7029">Women</text>
	<line x1="395.88" y1="2474.71" x2="395.88" y2="245.40" style="stroke:#000000;stroke-width:5.76"/>
	<line x1="395.88" y1="2347.73" x2="355.90" y2="2347.73" style="stroke:#000000;stroke-width:5.76"/>
	<text x="335.98" y="2382.76" style="font-family:'Helvetica';font-size:99.99px;fill:#000000" text-anchor="end">50%</text>
	<line x1="395.88" y1="1842.20" x2="355.90" y2="1842.20" style="stroke:#000000;stroke-width:5.76"/>
	<text x="335.98" y="1877.23" style="font-family:'Helvetica';font-size:99.99px;fill:#000000" text-anchor="end">60%</text>
	<line x1="395.88" y1="1336.79" x2="355.90" y2="1336.79" style="stroke:#000000;stroke-width:5.76"/>
	<text x="335.98" y="1371.82" style="font-family:'Helvetica';font-size:99.99px;fill:#000000" text-anchor="end">70%</text>
	<line x1="395.88" y1="831.38" x2="355.90" y2="831.38" style="stroke:#000000;stroke-width:5.76"/>
	<text x="335.98" y="866.41" style="font-family:'Helvetica';font-size:99.99px;fill:#000000" text-anchor="end">80%</text>
	<line x1="395.88" y1="325.97" x2="355.90" y2="325.97" style="stroke:#000000;stroke-width:5.76"/>
	<text x="335.98" y="361.00" style="font-family:'Helvetica';font-size:99.99px;fill:#000000" text-anchor="end">90%</text>
	<line x1="395.88" y1="2474.71" x2="3859.02" y2="2474.71" style="stroke:#000000;stroke-width:5.76"/>
	<line x1="537.82" y1="2474.71" x2="537.82" y2="2514.68" style="stroke:#000000;stroke-width:5.76"/>
	<text x="537.82" y="2604.66" style="font-family:'Helvetica';font-size:99.99px;fill:#000000" text-anchor="middle">1970</text>
	<line x1="849.54" y1="2474.71" x2="849.54" y2="2514.68" style="stroke:#000000;stroke-width:5.76"/>
	<text x="849.54" y="2604.66" style="font-family:'Helvetica';font-size:99.99px;fill:#000000" text-anchor="middle">1975</text>
	<line x1="1161.27" y1="2474.71" x2="1161.27" y2="2514.68" style="stroke:#000000;stroke-width:5.76"/>
	<text x="1161.27" y="2604.66" style="font-family:'Helvetica';font-size:99.99px;fill:#000000" text-anchor="middle">1980</text>
	<line x1="1473.00" y1="2474.71" x2="1473.00" y2="2514.68" style="stroke:#000000;stroke-width:5.76"/>
	<text x="1473.00" y="2604.66" style="font-family:'Helvetica';font-size:99.99px;fill:#000000" text-anchor="middle">1985</text>
	<line x1="1784.60" y1="2474.71" x2="1784.60" y2="2514.68" style="stroke:#000000;stroke-width:5.76"/>
	<text x="1784.60" y="2604.66" style="font-family:'Helvetica';font-size:99.99px;fill:#000000" text-anchor="middle">1990</text>
	<line x1="2096.32" y1="2474.71" x2="2096.32" y2="2514.68" style="stroke:#000000;stroke-width:5.76"/>
	<text x="2096.32" y="2604.66" style="font-family:'Helvetica';font-size:99.99px;fill:#000000" text-anchor="middle">1995</text>
	<line x1="2408.05" y1="2474.71" x2="2408.05" y2="2514.68" style="stroke:#000000;stroke-width:5.76"/>
	<text x="2408.05" y="2604.66" style="font-family:'Helvetica';font-size:99.99px;fill:#000000" text-anchor="middle">2000</text>
	<line x1="2719.65" y1="2474.71" x2="2719.65" y2="2514.68" style="stroke:#000000;stroke-width:5.76"/>
	<text x="2719.65" y="2604.66" style="font-family:'Helvetica';font-size:99.99px;fill:#000000" text-anchor="middle">2005</text>
	<line x1="3031.38" y1="2474.71" x2="3031.38" y2="2514.68" style="stroke:#000000;stroke-width:5.76"/>
	<text x="3031.38" y="2604.66" style="font-family:'Helvetica';font-size:99.99px;fill:#000000" text-anchor="middle">2010</text>
	<line x1="3343.11" y1="2474.71" x2="3343.11" y2="2514.68" style="stroke:#000000;stroke-width:5.76"/>
	<text x="3343.11" y="2604.66" style="font-family:'Helvetica';font-size:99.99px;fill:#000000" text-anchor="middle">2015</text>
	<text x="182.78" y="2795.44" style="font-family:'Helvetica';font-size:79.94px;fill:#000000">Excludes armed forces. Source: 1968-2017 ASEC samples from IPUMS-CPS (cps.ipums.org), @graykimbrough</text>
	<text x="413.20" y="166.18" style="font-family:'Helvetica';font-size:110.01px;fill:#000000">Percentage of 21-30 year olds in the labor force</text>
</svg>
