<svg t="1572486098095" class="icon" viewBox="0 0 1024 1024" version="1.1" xmlns="http://www.w3.org/2000/svg" p-id="15365" width="200" height="200"><path d="M365.226667 512a147.114667 146.773333 90 1 0 293.546666 0 147.114667 146.773333 90 1 0-293.546666 0Z" fill="#55C77F" p-id="15366"></path><path d="M548.864 480.597333c2.048 0 4.778667 0 6.826667 0.341334-6.144-29.354667-37.888-51.2-73.386667-51.2-39.936 0-72.704 26.965333-72.704 61.781333 0 20.138667 10.581333 36.522667 29.013333 49.152l-7.168 21.845333 25.6-12.629333c9.216 2.048 16.384 3.754667 25.6 3.754667 2.048 0 4.437333-0.341333 6.826667-0.341334-1.365333-4.778667-2.048-9.898667-2.048-15.018666-0.341333-31.744 26.624-57.685333 61.44-57.685334z m-45.738667-19.797333c3.413333-2.048 7.850667-2.048 11.264 0s5.802667 5.802667 5.802667 9.898667-2.048 7.850667-5.802667 9.898666c-3.413333 2.048-7.850667 2.048-11.264 0s-5.802667-5.802667-5.802666-9.898666c0.341333-4.096 2.389333-7.850667 5.802666-9.898667z m-45.056 21.504c-6.144 0-11.264-5.12-11.264-11.264 0-6.144 5.12-11.264 11.264-11.264 6.144 0 11.264 5.12 11.264 11.264 0 6.144-4.778667 11.264-11.264 11.264z m156.330667 55.296c0-29.013333-29.013333-52.565333-61.781333-52.565333-34.816 0-61.781333 23.552-61.781334 52.565333s26.965333 52.565333 61.781334 52.565333c7.168 0 14.336-2.048 21.845333-3.754666l19.797333 10.922666-5.461333-18.432c15.018667-10.581333 25.6-25.258667 25.6-41.301333z m-80.554667-8.533333c-4.437333 0-7.850667-3.413333-7.850666-7.850667 0-4.437333 3.413333-7.850667 7.850666-7.850667 4.437333 0 7.850667 3.413333 7.850667 7.850667 0 4.437333-3.754667 7.850667-7.850667 7.850667z m43.690667-0.341334c-2.389333 1.365333-5.461333 1.365333-7.850667 0-2.389333-1.365333-4.096-4.096-4.096-6.826666s1.365333-5.461333 4.096-6.826667c2.389333-1.365333 5.461333-1.365333 7.850667 0 2.389333 1.365333 4.096 4.096 4.096 6.826667s-1.365333 5.461333-4.096 6.826666z" fill="#FFFFFF" p-id="15367"></path></svg>